G04 EAGLE Gerber X2 export*
%TF.Part,Single*%
%TF.FileFunction,Copper,L2,Bot,Mixed*%
%TF.FilePolarity,Positive*%
%TF.GenerationSoftware,Autodesk,EAGLE,9.1.0*%
%TF.CreationDate,2018-07-07T09:38:12Z*%
G75*
%MOMM*%
%FSLAX34Y34*%
%LPD*%
%AMOC8*
5,1,8,0,0,1.08239X$1,22.5*%
G01*
%ADD10C,1.524000*%
%ADD11C,1.790700*%
%ADD12C,1.828800*%
%ADD13P,1.429621X8X202.500000*%
%ADD14C,1.879600*%
%ADD15C,1.320800*%
%ADD16P,1.429621X8X22.500000*%

G36*
X582698Y11942D02*
X582698Y11942D01*
X582717Y11940D01*
X582819Y11962D01*
X582921Y11978D01*
X582938Y11988D01*
X582958Y11992D01*
X583047Y12045D01*
X583138Y12094D01*
X583152Y12108D01*
X583169Y12118D01*
X583236Y12197D01*
X583308Y12272D01*
X583316Y12290D01*
X583329Y12305D01*
X583368Y12401D01*
X583411Y12495D01*
X583413Y12515D01*
X583421Y12533D01*
X583439Y12700D01*
X583439Y431800D01*
X583436Y431820D01*
X583438Y431839D01*
X583416Y431941D01*
X583400Y432043D01*
X583390Y432060D01*
X583386Y432080D01*
X583333Y432169D01*
X583284Y432260D01*
X583270Y432274D01*
X583260Y432291D01*
X583181Y432358D01*
X583106Y432430D01*
X583088Y432438D01*
X583073Y432451D01*
X582977Y432490D01*
X582883Y432533D01*
X582863Y432535D01*
X582845Y432543D01*
X582678Y432561D01*
X368300Y432561D01*
X368280Y432558D01*
X368261Y432560D01*
X368159Y432538D01*
X368057Y432522D01*
X368040Y432512D01*
X368020Y432508D01*
X367931Y432455D01*
X367840Y432406D01*
X367826Y432392D01*
X367809Y432382D01*
X367742Y432303D01*
X367671Y432228D01*
X367662Y432210D01*
X367649Y432195D01*
X367610Y432099D01*
X367567Y432005D01*
X367565Y431985D01*
X367557Y431967D01*
X367539Y431800D01*
X367539Y153161D01*
X12700Y153161D01*
X12680Y153158D01*
X12661Y153160D01*
X12559Y153138D01*
X12457Y153122D01*
X12440Y153112D01*
X12420Y153108D01*
X12331Y153055D01*
X12240Y153006D01*
X12226Y152992D01*
X12209Y152982D01*
X12142Y152903D01*
X12071Y152828D01*
X12062Y152810D01*
X12049Y152795D01*
X12010Y152699D01*
X11967Y152605D01*
X11965Y152585D01*
X11957Y152567D01*
X11939Y152400D01*
X11939Y12700D01*
X11942Y12680D01*
X11940Y12661D01*
X11962Y12559D01*
X11979Y12457D01*
X11988Y12440D01*
X11992Y12420D01*
X12045Y12331D01*
X12094Y12240D01*
X12108Y12226D01*
X12118Y12209D01*
X12197Y12142D01*
X12272Y12071D01*
X12290Y12062D01*
X12305Y12049D01*
X12401Y12010D01*
X12495Y11967D01*
X12515Y11965D01*
X12533Y11957D01*
X12700Y11939D01*
X582678Y11939D01*
X582698Y11942D01*
G37*
%LPC*%
G36*
X290416Y44068D02*
X290416Y44068D01*
X286565Y45663D01*
X283617Y48611D01*
X282022Y52462D01*
X282022Y74538D01*
X283617Y78389D01*
X286565Y81337D01*
X290416Y82932D01*
X294584Y82932D01*
X298435Y81337D01*
X301383Y78389D01*
X302978Y74538D01*
X302978Y52462D01*
X301383Y48611D01*
X298435Y45663D01*
X294584Y44068D01*
X290416Y44068D01*
G37*
%LPD*%
%LPC*%
G36*
X429981Y34035D02*
X429981Y34035D01*
X426620Y35427D01*
X424047Y38000D01*
X422655Y41361D01*
X422655Y60239D01*
X424047Y63600D01*
X426620Y66173D01*
X429981Y67565D01*
X433619Y67565D01*
X436980Y66173D01*
X439553Y63600D01*
X440945Y60239D01*
X440945Y41361D01*
X439553Y38000D01*
X436980Y35427D01*
X433619Y34035D01*
X429981Y34035D01*
G37*
%LPD*%
%LPC*%
G36*
X493481Y148335D02*
X493481Y148335D01*
X490120Y149727D01*
X487547Y152300D01*
X486155Y155661D01*
X486155Y174539D01*
X487547Y177900D01*
X490120Y180473D01*
X493481Y181865D01*
X497119Y181865D01*
X500480Y180473D01*
X503053Y177900D01*
X504445Y174539D01*
X504445Y155661D01*
X503053Y152300D01*
X500480Y149727D01*
X497119Y148335D01*
X493481Y148335D01*
G37*
%LPD*%
%LPC*%
G36*
X544281Y148335D02*
X544281Y148335D01*
X540920Y149727D01*
X538347Y152300D01*
X536955Y155661D01*
X536955Y174539D01*
X538347Y177900D01*
X540920Y180473D01*
X544281Y181865D01*
X547919Y181865D01*
X551280Y180473D01*
X553853Y177900D01*
X555245Y174539D01*
X555245Y155661D01*
X553853Y152300D01*
X551280Y149727D01*
X547919Y148335D01*
X544281Y148335D01*
G37*
%LPD*%
%LPC*%
G36*
X493481Y34035D02*
X493481Y34035D01*
X490120Y35427D01*
X487547Y38000D01*
X486155Y41361D01*
X486155Y60239D01*
X487547Y63600D01*
X490120Y66173D01*
X493481Y67565D01*
X497119Y67565D01*
X500480Y66173D01*
X503053Y63600D01*
X504445Y60239D01*
X504445Y41361D01*
X503053Y38000D01*
X500480Y35427D01*
X497119Y34035D01*
X493481Y34035D01*
G37*
%LPD*%
%LPC*%
G36*
X518881Y34035D02*
X518881Y34035D01*
X515520Y35427D01*
X512947Y38000D01*
X511555Y41361D01*
X511555Y60239D01*
X512947Y63600D01*
X515520Y66173D01*
X518881Y67565D01*
X522519Y67565D01*
X525880Y66173D01*
X528453Y63600D01*
X529845Y60239D01*
X529845Y41361D01*
X528453Y38000D01*
X525880Y35427D01*
X522519Y34035D01*
X518881Y34035D01*
G37*
%LPD*%
%LPC*%
G36*
X569681Y148335D02*
X569681Y148335D01*
X566320Y149727D01*
X563747Y152300D01*
X562355Y155661D01*
X562355Y174539D01*
X563747Y177900D01*
X566320Y180473D01*
X569681Y181865D01*
X573319Y181865D01*
X576680Y180473D01*
X579253Y177900D01*
X580645Y174539D01*
X580645Y155661D01*
X579253Y152300D01*
X576680Y149727D01*
X573319Y148335D01*
X569681Y148335D01*
G37*
%LPD*%
%LPC*%
G36*
X531581Y389635D02*
X531581Y389635D01*
X528220Y391027D01*
X525647Y393600D01*
X524255Y396961D01*
X524255Y415839D01*
X525647Y419200D01*
X528220Y421773D01*
X531581Y423165D01*
X535219Y423165D01*
X538580Y421773D01*
X541153Y419200D01*
X542545Y415839D01*
X542545Y396961D01*
X541153Y393600D01*
X538580Y391027D01*
X535219Y389635D01*
X531581Y389635D01*
G37*
%LPD*%
%LPC*%
G36*
X480781Y389635D02*
X480781Y389635D01*
X477420Y391027D01*
X474847Y393600D01*
X473455Y396961D01*
X473455Y415839D01*
X474847Y419200D01*
X477420Y421773D01*
X480781Y423165D01*
X484419Y423165D01*
X487780Y421773D01*
X490353Y419200D01*
X491745Y415839D01*
X491745Y396961D01*
X490353Y393600D01*
X487780Y391027D01*
X484419Y389635D01*
X480781Y389635D01*
G37*
%LPD*%
%LPC*%
G36*
X404581Y389635D02*
X404581Y389635D01*
X401220Y391027D01*
X398647Y393600D01*
X397255Y396961D01*
X397255Y415839D01*
X398647Y419200D01*
X401220Y421773D01*
X404581Y423165D01*
X408219Y423165D01*
X411580Y421773D01*
X414153Y419200D01*
X415545Y415839D01*
X415545Y396961D01*
X414153Y393600D01*
X411580Y391027D01*
X408219Y389635D01*
X404581Y389635D01*
G37*
%LPD*%
%LPC*%
G36*
X569681Y34035D02*
X569681Y34035D01*
X566320Y35427D01*
X563747Y38000D01*
X562355Y41361D01*
X562355Y60239D01*
X563747Y63600D01*
X566320Y66173D01*
X569681Y67565D01*
X573319Y67565D01*
X576680Y66173D01*
X579253Y63600D01*
X580645Y60239D01*
X580645Y41361D01*
X579253Y38000D01*
X576680Y35427D01*
X573319Y34035D01*
X569681Y34035D01*
G37*
%LPD*%
%LPC*%
G36*
X28661Y28955D02*
X28661Y28955D01*
X25300Y30347D01*
X22727Y32920D01*
X21335Y36281D01*
X21335Y39919D01*
X22727Y43280D01*
X25300Y45853D01*
X28661Y47245D01*
X47539Y47245D01*
X50900Y45853D01*
X53473Y43280D01*
X54865Y39919D01*
X54865Y36281D01*
X53473Y32920D01*
X50900Y30347D01*
X47539Y28955D01*
X28661Y28955D01*
G37*
%LPD*%
%LPC*%
G36*
X28661Y54355D02*
X28661Y54355D01*
X25300Y55747D01*
X22727Y58320D01*
X21335Y61681D01*
X21335Y65319D01*
X22727Y68680D01*
X25300Y71253D01*
X28661Y72645D01*
X47539Y72645D01*
X50900Y71253D01*
X53473Y68680D01*
X54865Y65319D01*
X54865Y61681D01*
X53473Y58320D01*
X50900Y55747D01*
X47539Y54355D01*
X28661Y54355D01*
G37*
%LPD*%
%LPC*%
G36*
X544281Y34035D02*
X544281Y34035D01*
X540920Y35427D01*
X538347Y38000D01*
X536955Y41361D01*
X536955Y60239D01*
X538347Y63600D01*
X540920Y66173D01*
X544281Y67565D01*
X547919Y67565D01*
X551280Y66173D01*
X553853Y63600D01*
X555245Y60239D01*
X555245Y41361D01*
X553853Y38000D01*
X551280Y35427D01*
X547919Y34035D01*
X544281Y34035D01*
G37*
%LPD*%
%LPC*%
G36*
X493481Y84835D02*
X493481Y84835D01*
X490120Y86227D01*
X487547Y88800D01*
X486155Y92161D01*
X486155Y111039D01*
X487547Y114400D01*
X490120Y116973D01*
X493481Y118365D01*
X497119Y118365D01*
X500480Y116973D01*
X503053Y114400D01*
X504445Y111039D01*
X504445Y92161D01*
X503053Y88800D01*
X500480Y86227D01*
X497119Y84835D01*
X493481Y84835D01*
G37*
%LPD*%
%LPC*%
G36*
X569681Y199135D02*
X569681Y199135D01*
X566320Y200527D01*
X563747Y203100D01*
X562355Y206461D01*
X562355Y225339D01*
X563747Y228700D01*
X566320Y231273D01*
X569681Y232665D01*
X573319Y232665D01*
X576680Y231273D01*
X579253Y228700D01*
X580645Y225339D01*
X580645Y206461D01*
X579253Y203100D01*
X576680Y200527D01*
X573319Y199135D01*
X569681Y199135D01*
G37*
%LPD*%
%LPC*%
G36*
X544281Y199135D02*
X544281Y199135D01*
X540920Y200527D01*
X538347Y203100D01*
X536955Y206461D01*
X536955Y225339D01*
X538347Y228700D01*
X540920Y231273D01*
X544281Y232665D01*
X547919Y232665D01*
X551280Y231273D01*
X553853Y228700D01*
X555245Y225339D01*
X555245Y206461D01*
X553853Y203100D01*
X551280Y200527D01*
X547919Y199135D01*
X544281Y199135D01*
G37*
%LPD*%
%LPC*%
G36*
X493481Y199135D02*
X493481Y199135D01*
X490120Y200527D01*
X487547Y203100D01*
X486155Y206461D01*
X486155Y225339D01*
X487547Y228700D01*
X490120Y231273D01*
X493481Y232665D01*
X497119Y232665D01*
X500480Y231273D01*
X503053Y228700D01*
X504445Y225339D01*
X504445Y206461D01*
X503053Y203100D01*
X500480Y200527D01*
X497119Y199135D01*
X493481Y199135D01*
G37*
%LPD*%
%LPC*%
G36*
X544281Y84835D02*
X544281Y84835D01*
X540920Y86227D01*
X538347Y88800D01*
X536955Y92161D01*
X536955Y111039D01*
X538347Y114400D01*
X540920Y116973D01*
X544281Y118365D01*
X547919Y118365D01*
X551280Y116973D01*
X553853Y114400D01*
X555245Y111039D01*
X555245Y92161D01*
X553853Y88800D01*
X551280Y86227D01*
X547919Y84835D01*
X544281Y84835D01*
G37*
%LPD*%
%LPC*%
G36*
X569681Y84835D02*
X569681Y84835D01*
X566320Y86227D01*
X563747Y88800D01*
X562355Y92161D01*
X562355Y111039D01*
X563747Y114400D01*
X566320Y116973D01*
X569681Y118365D01*
X573319Y118365D01*
X576680Y116973D01*
X579253Y114400D01*
X580645Y111039D01*
X580645Y92161D01*
X579253Y88800D01*
X576680Y86227D01*
X573319Y84835D01*
X569681Y84835D01*
G37*
%LPD*%
%LPC*%
G36*
X28661Y105155D02*
X28661Y105155D01*
X25300Y106547D01*
X22727Y109120D01*
X21335Y112481D01*
X21335Y116119D01*
X22727Y119480D01*
X25300Y122053D01*
X28661Y123445D01*
X47539Y123445D01*
X50900Y122053D01*
X53473Y119480D01*
X54865Y116119D01*
X54865Y112481D01*
X53473Y109120D01*
X50900Y106547D01*
X47539Y105155D01*
X28661Y105155D01*
G37*
%LPD*%
%LPC*%
G36*
X423579Y283971D02*
X423579Y283971D01*
X420591Y285209D01*
X418305Y287495D01*
X417067Y290483D01*
X417067Y293717D01*
X418305Y296705D01*
X420591Y298991D01*
X423579Y300229D01*
X440021Y300229D01*
X443009Y298991D01*
X445295Y296705D01*
X446533Y293717D01*
X446533Y290483D01*
X445295Y287495D01*
X443009Y285209D01*
X440021Y283971D01*
X423579Y283971D01*
G37*
%LPD*%
%LPC*%
G36*
X499779Y258571D02*
X499779Y258571D01*
X496791Y259809D01*
X494505Y262095D01*
X493267Y265083D01*
X493267Y268317D01*
X494505Y271305D01*
X496791Y273591D01*
X499779Y274829D01*
X516221Y274829D01*
X519209Y273591D01*
X521495Y271305D01*
X522733Y268317D01*
X522733Y265083D01*
X521495Y262095D01*
X519209Y259809D01*
X516221Y258571D01*
X499779Y258571D01*
G37*
%LPD*%
%LPC*%
G36*
X442883Y163067D02*
X442883Y163067D01*
X439895Y164305D01*
X437609Y166591D01*
X436371Y169579D01*
X436371Y186021D01*
X437609Y189009D01*
X439895Y191295D01*
X442883Y192533D01*
X446117Y192533D01*
X449105Y191295D01*
X451391Y189009D01*
X452629Y186021D01*
X452629Y169579D01*
X451391Y166591D01*
X449105Y164305D01*
X446117Y163067D01*
X442883Y163067D01*
G37*
%LPD*%
%LPC*%
G36*
X417483Y163067D02*
X417483Y163067D01*
X414495Y164305D01*
X412209Y166591D01*
X410971Y169579D01*
X410971Y186021D01*
X412209Y189009D01*
X414495Y191295D01*
X417483Y192533D01*
X420717Y192533D01*
X423705Y191295D01*
X425991Y189009D01*
X427229Y186021D01*
X427229Y169579D01*
X425991Y166591D01*
X423705Y164305D01*
X420717Y163067D01*
X417483Y163067D01*
G37*
%LPD*%
%LPC*%
G36*
X423579Y309371D02*
X423579Y309371D01*
X420591Y310609D01*
X418305Y312895D01*
X417067Y315883D01*
X417067Y319117D01*
X418305Y322105D01*
X420591Y324391D01*
X423579Y325629D01*
X440021Y325629D01*
X443009Y324391D01*
X445295Y322105D01*
X446533Y319117D01*
X446533Y315883D01*
X445295Y312895D01*
X443009Y310609D01*
X440021Y309371D01*
X423579Y309371D01*
G37*
%LPD*%
%LPC*%
G36*
X499779Y334771D02*
X499779Y334771D01*
X496791Y336009D01*
X494505Y338295D01*
X493267Y341283D01*
X493267Y344517D01*
X494505Y347505D01*
X496791Y349791D01*
X499779Y351029D01*
X516221Y351029D01*
X519209Y349791D01*
X521495Y347505D01*
X522733Y344517D01*
X522733Y341283D01*
X521495Y338295D01*
X519209Y336009D01*
X516221Y334771D01*
X499779Y334771D01*
G37*
%LPD*%
%LPC*%
G36*
X423579Y334771D02*
X423579Y334771D01*
X420591Y336009D01*
X418305Y338295D01*
X417067Y341283D01*
X417067Y344517D01*
X418305Y347505D01*
X420591Y349791D01*
X423579Y351029D01*
X440021Y351029D01*
X443009Y349791D01*
X445295Y347505D01*
X446533Y344517D01*
X446533Y341283D01*
X445295Y338295D01*
X443009Y336009D01*
X440021Y334771D01*
X423579Y334771D01*
G37*
%LPD*%
%LPC*%
G36*
X499779Y309371D02*
X499779Y309371D01*
X496791Y310609D01*
X494505Y312895D01*
X493267Y315883D01*
X493267Y319117D01*
X494505Y322105D01*
X496791Y324391D01*
X499779Y325629D01*
X516221Y325629D01*
X519209Y324391D01*
X521495Y322105D01*
X522733Y319117D01*
X522733Y315883D01*
X521495Y312895D01*
X519209Y310609D01*
X516221Y309371D01*
X499779Y309371D01*
G37*
%LPD*%
%LPC*%
G36*
X499779Y283971D02*
X499779Y283971D01*
X496791Y285209D01*
X494505Y287495D01*
X493267Y290483D01*
X493267Y293717D01*
X494505Y296705D01*
X496791Y298991D01*
X499779Y300229D01*
X516221Y300229D01*
X519209Y298991D01*
X521495Y296705D01*
X522733Y293717D01*
X522733Y290483D01*
X521495Y287495D01*
X519209Y285209D01*
X516221Y283971D01*
X499779Y283971D01*
G37*
%LPD*%
%LPC*%
G36*
X213727Y39877D02*
X213727Y39877D01*
X209713Y41540D01*
X206640Y44613D01*
X204977Y48627D01*
X204977Y52973D01*
X206640Y56987D01*
X209713Y60060D01*
X213727Y61723D01*
X218073Y61723D01*
X222087Y60060D01*
X225160Y56987D01*
X226823Y52973D01*
X226823Y48627D01*
X225160Y44613D01*
X222087Y41540D01*
X218073Y39877D01*
X213727Y39877D01*
G37*
%LPD*%
%LPC*%
G36*
X213727Y65277D02*
X213727Y65277D01*
X209713Y66940D01*
X206640Y70013D01*
X204977Y74027D01*
X204977Y78373D01*
X206640Y82387D01*
X209713Y85460D01*
X213727Y87123D01*
X218073Y87123D01*
X222087Y85460D01*
X225160Y82387D01*
X226823Y78373D01*
X226823Y74027D01*
X225160Y70013D01*
X222087Y66940D01*
X218073Y65277D01*
X213727Y65277D01*
G37*
%LPD*%
%LPC*%
G36*
X213727Y90677D02*
X213727Y90677D01*
X209713Y92340D01*
X206640Y95413D01*
X204977Y99427D01*
X204977Y103773D01*
X206640Y107787D01*
X209713Y110860D01*
X213727Y112523D01*
X218073Y112523D01*
X222087Y110860D01*
X225160Y107787D01*
X226823Y103773D01*
X226823Y99427D01*
X225160Y95413D01*
X222087Y92340D01*
X218073Y90677D01*
X213727Y90677D01*
G37*
%LPD*%
%LPC*%
G36*
X344023Y65023D02*
X344023Y65023D01*
X344023Y83850D01*
X345192Y83665D01*
X346912Y83106D01*
X348524Y82284D01*
X349988Y81221D01*
X351267Y79942D01*
X352331Y78478D01*
X353152Y76866D01*
X353711Y75145D01*
X353994Y73358D01*
X353994Y65023D01*
X344023Y65023D01*
G37*
%LPD*%
%LPC*%
G36*
X344023Y61977D02*
X344023Y61977D01*
X353994Y61977D01*
X353994Y53642D01*
X353711Y51855D01*
X353152Y50134D01*
X352331Y48522D01*
X351267Y47058D01*
X349988Y45779D01*
X348524Y44716D01*
X346912Y43894D01*
X345192Y43335D01*
X344023Y43150D01*
X344023Y61977D01*
G37*
%LPD*%
%LPC*%
G36*
X331006Y65023D02*
X331006Y65023D01*
X331006Y73358D01*
X331289Y75145D01*
X331848Y76866D01*
X332669Y78478D01*
X333733Y79942D01*
X335012Y81221D01*
X336476Y82284D01*
X338088Y83106D01*
X339808Y83665D01*
X340977Y83850D01*
X340977Y65023D01*
X331006Y65023D01*
G37*
%LPD*%
%LPC*%
G36*
X339808Y43335D02*
X339808Y43335D01*
X338088Y43894D01*
X336476Y44716D01*
X335012Y45779D01*
X333733Y47058D01*
X332669Y48522D01*
X331848Y50134D01*
X331289Y51855D01*
X331006Y53642D01*
X331006Y61977D01*
X340977Y61977D01*
X340977Y43150D01*
X339808Y43335D01*
G37*
%LPD*%
%LPC*%
G36*
X433323Y407923D02*
X433323Y407923D01*
X433323Y424066D01*
X434179Y423931D01*
X435700Y423436D01*
X437125Y422710D01*
X438419Y421770D01*
X439550Y420639D01*
X440490Y419345D01*
X441216Y417920D01*
X441711Y416399D01*
X441961Y414820D01*
X441961Y407923D01*
X433323Y407923D01*
G37*
%LPD*%
%LPC*%
G36*
X458723Y407923D02*
X458723Y407923D01*
X458723Y424066D01*
X459579Y423931D01*
X461100Y423436D01*
X462525Y422710D01*
X463819Y421770D01*
X464950Y420639D01*
X465890Y419345D01*
X466616Y417920D01*
X467111Y416399D01*
X467361Y414820D01*
X467361Y407923D01*
X458723Y407923D01*
G37*
%LPD*%
%LPC*%
G36*
X509523Y407923D02*
X509523Y407923D01*
X509523Y424066D01*
X510379Y423931D01*
X511900Y423436D01*
X513325Y422710D01*
X514619Y421770D01*
X515750Y420639D01*
X516690Y419345D01*
X517416Y417920D01*
X517911Y416399D01*
X518161Y414820D01*
X518161Y407923D01*
X509523Y407923D01*
G37*
%LPD*%
%LPC*%
G36*
X522223Y166623D02*
X522223Y166623D01*
X522223Y182766D01*
X523079Y182631D01*
X524600Y182136D01*
X526025Y181410D01*
X527319Y180470D01*
X528450Y179339D01*
X529390Y178045D01*
X530116Y176620D01*
X530611Y175099D01*
X530861Y173520D01*
X530861Y166623D01*
X522223Y166623D01*
G37*
%LPD*%
%LPC*%
G36*
X407923Y52323D02*
X407923Y52323D01*
X407923Y68466D01*
X408779Y68331D01*
X410300Y67836D01*
X411725Y67110D01*
X413019Y66170D01*
X414150Y65039D01*
X415090Y63745D01*
X415816Y62320D01*
X416311Y60799D01*
X416561Y59220D01*
X416561Y52323D01*
X407923Y52323D01*
G37*
%LPD*%
%LPC*%
G36*
X522223Y217423D02*
X522223Y217423D01*
X522223Y233566D01*
X523079Y233431D01*
X524600Y232936D01*
X526025Y232210D01*
X527319Y231270D01*
X528450Y230139D01*
X529390Y228845D01*
X530116Y227420D01*
X530611Y225899D01*
X530861Y224320D01*
X530861Y217423D01*
X522223Y217423D01*
G37*
%LPD*%
%LPC*%
G36*
X522223Y103123D02*
X522223Y103123D01*
X522223Y119266D01*
X523079Y119131D01*
X524600Y118636D01*
X526025Y117910D01*
X527319Y116970D01*
X528450Y115839D01*
X529390Y114545D01*
X530116Y113120D01*
X530611Y111599D01*
X530861Y110020D01*
X530861Y103123D01*
X522223Y103123D01*
G37*
%LPD*%
%LPC*%
G36*
X39623Y90423D02*
X39623Y90423D01*
X39623Y99061D01*
X46520Y99061D01*
X48099Y98811D01*
X49620Y98316D01*
X51045Y97590D01*
X52339Y96650D01*
X53470Y95519D01*
X54410Y94225D01*
X55136Y92800D01*
X55631Y91279D01*
X55766Y90423D01*
X39623Y90423D01*
G37*
%LPD*%
%LPC*%
G36*
X20434Y90423D02*
X20434Y90423D01*
X20569Y91279D01*
X21064Y92800D01*
X21790Y94225D01*
X22730Y95519D01*
X23861Y96650D01*
X25155Y97590D01*
X26580Y98316D01*
X28101Y98811D01*
X29680Y99061D01*
X36577Y99061D01*
X36577Y90423D01*
X20434Y90423D01*
G37*
%LPD*%
%LPC*%
G36*
X509523Y404877D02*
X509523Y404877D01*
X518161Y404877D01*
X518161Y397980D01*
X517911Y396401D01*
X517416Y394880D01*
X516690Y393455D01*
X515750Y392161D01*
X514619Y391030D01*
X513325Y390090D01*
X511900Y389364D01*
X510379Y388869D01*
X509523Y388734D01*
X509523Y404877D01*
G37*
%LPD*%
%LPC*%
G36*
X458723Y404877D02*
X458723Y404877D01*
X467361Y404877D01*
X467361Y397980D01*
X467111Y396401D01*
X466616Y394880D01*
X465890Y393455D01*
X464950Y392161D01*
X463819Y391030D01*
X462525Y390090D01*
X461100Y389364D01*
X459579Y388869D01*
X458723Y388734D01*
X458723Y404877D01*
G37*
%LPD*%
%LPC*%
G36*
X433323Y404877D02*
X433323Y404877D01*
X441961Y404877D01*
X441961Y397980D01*
X441711Y396401D01*
X441216Y394880D01*
X440490Y393455D01*
X439550Y392161D01*
X438419Y391030D01*
X437125Y390090D01*
X435700Y389364D01*
X434179Y388869D01*
X433323Y388734D01*
X433323Y404877D01*
G37*
%LPD*%
%LPC*%
G36*
X522223Y163577D02*
X522223Y163577D01*
X530861Y163577D01*
X530861Y156680D01*
X530611Y155101D01*
X530116Y153580D01*
X529390Y152155D01*
X528450Y150861D01*
X527319Y149730D01*
X526025Y148790D01*
X524600Y148064D01*
X523079Y147569D01*
X522223Y147434D01*
X522223Y163577D01*
G37*
%LPD*%
%LPC*%
G36*
X522223Y214377D02*
X522223Y214377D01*
X530861Y214377D01*
X530861Y207480D01*
X530611Y205901D01*
X530116Y204380D01*
X529390Y202955D01*
X528450Y201661D01*
X527319Y200530D01*
X526025Y199590D01*
X524600Y198864D01*
X523079Y198369D01*
X522223Y198234D01*
X522223Y214377D01*
G37*
%LPD*%
%LPC*%
G36*
X522223Y100077D02*
X522223Y100077D01*
X530861Y100077D01*
X530861Y93180D01*
X530611Y91601D01*
X530116Y90080D01*
X529390Y88655D01*
X528450Y87361D01*
X527319Y86230D01*
X526025Y85290D01*
X524600Y84564D01*
X523079Y84069D01*
X522223Y83934D01*
X522223Y100077D01*
G37*
%LPD*%
%LPC*%
G36*
X407923Y49277D02*
X407923Y49277D01*
X416561Y49277D01*
X416561Y42380D01*
X416311Y40801D01*
X415816Y39280D01*
X415090Y37855D01*
X414150Y36561D01*
X413019Y35430D01*
X411725Y34490D01*
X410300Y33764D01*
X408779Y33269D01*
X407923Y33134D01*
X407923Y49277D01*
G37*
%LPD*%
%LPC*%
G36*
X421639Y407923D02*
X421639Y407923D01*
X421639Y414820D01*
X421889Y416399D01*
X422384Y417920D01*
X423110Y419345D01*
X424050Y420639D01*
X425181Y421770D01*
X426475Y422710D01*
X427900Y423436D01*
X429421Y423931D01*
X430277Y424066D01*
X430277Y407923D01*
X421639Y407923D01*
G37*
%LPD*%
%LPC*%
G36*
X497839Y407923D02*
X497839Y407923D01*
X497839Y414820D01*
X498089Y416399D01*
X498584Y417920D01*
X499310Y419345D01*
X500250Y420639D01*
X501381Y421770D01*
X502675Y422710D01*
X504100Y423436D01*
X505621Y423931D01*
X506477Y424066D01*
X506477Y407923D01*
X497839Y407923D01*
G37*
%LPD*%
%LPC*%
G36*
X447039Y407923D02*
X447039Y407923D01*
X447039Y414820D01*
X447289Y416399D01*
X447784Y417920D01*
X448510Y419345D01*
X449450Y420639D01*
X450581Y421770D01*
X451875Y422710D01*
X453300Y423436D01*
X454821Y423931D01*
X455677Y424066D01*
X455677Y407923D01*
X447039Y407923D01*
G37*
%LPD*%
%LPC*%
G36*
X510539Y166623D02*
X510539Y166623D01*
X510539Y173520D01*
X510789Y175099D01*
X511284Y176620D01*
X512010Y178045D01*
X512950Y179339D01*
X514081Y180470D01*
X515375Y181410D01*
X516800Y182136D01*
X518321Y182631D01*
X519177Y182766D01*
X519177Y166623D01*
X510539Y166623D01*
G37*
%LPD*%
%LPC*%
G36*
X396239Y52323D02*
X396239Y52323D01*
X396239Y59220D01*
X396489Y60799D01*
X396984Y62320D01*
X397710Y63745D01*
X398650Y65039D01*
X399781Y66170D01*
X401075Y67110D01*
X402500Y67836D01*
X404021Y68331D01*
X404877Y68466D01*
X404877Y52323D01*
X396239Y52323D01*
G37*
%LPD*%
%LPC*%
G36*
X510539Y103123D02*
X510539Y103123D01*
X510539Y110020D01*
X510789Y111599D01*
X511284Y113120D01*
X512010Y114545D01*
X512950Y115839D01*
X514081Y116970D01*
X515375Y117910D01*
X516800Y118636D01*
X518321Y119131D01*
X519177Y119266D01*
X519177Y103123D01*
X510539Y103123D01*
G37*
%LPD*%
%LPC*%
G36*
X510539Y217423D02*
X510539Y217423D01*
X510539Y224320D01*
X510789Y225899D01*
X511284Y227420D01*
X512010Y228845D01*
X512950Y230139D01*
X514081Y231270D01*
X515375Y232210D01*
X516800Y232936D01*
X518321Y233431D01*
X519177Y233566D01*
X519177Y217423D01*
X510539Y217423D01*
G37*
%LPD*%
%LPC*%
G36*
X39623Y78739D02*
X39623Y78739D01*
X39623Y87377D01*
X55766Y87377D01*
X55631Y86521D01*
X55136Y85000D01*
X54410Y83575D01*
X53470Y82281D01*
X52339Y81150D01*
X51045Y80210D01*
X49620Y79484D01*
X48099Y78989D01*
X46520Y78739D01*
X39623Y78739D01*
G37*
%LPD*%
%LPC*%
G36*
X518321Y84069D02*
X518321Y84069D01*
X516800Y84564D01*
X515375Y85290D01*
X514081Y86230D01*
X512950Y87361D01*
X512010Y88655D01*
X511284Y90080D01*
X510789Y91601D01*
X510539Y93180D01*
X510539Y100077D01*
X519177Y100077D01*
X519177Y83934D01*
X518321Y84069D01*
G37*
%LPD*%
%LPC*%
G36*
X518321Y198369D02*
X518321Y198369D01*
X516800Y198864D01*
X515375Y199590D01*
X514081Y200530D01*
X512950Y201661D01*
X512010Y202955D01*
X511284Y204380D01*
X510789Y205901D01*
X510539Y207480D01*
X510539Y214377D01*
X519177Y214377D01*
X519177Y198234D01*
X518321Y198369D01*
G37*
%LPD*%
%LPC*%
G36*
X518321Y147569D02*
X518321Y147569D01*
X516800Y148064D01*
X515375Y148790D01*
X514081Y149730D01*
X512950Y150861D01*
X512010Y152155D01*
X511284Y153580D01*
X510789Y155101D01*
X510539Y156680D01*
X510539Y163577D01*
X519177Y163577D01*
X519177Y147434D01*
X518321Y147569D01*
G37*
%LPD*%
%LPC*%
G36*
X429421Y388869D02*
X429421Y388869D01*
X427900Y389364D01*
X426475Y390090D01*
X425181Y391030D01*
X424050Y392161D01*
X423110Y393455D01*
X422384Y394880D01*
X421889Y396401D01*
X421639Y397980D01*
X421639Y404877D01*
X430277Y404877D01*
X430277Y388734D01*
X429421Y388869D01*
G37*
%LPD*%
%LPC*%
G36*
X454821Y388869D02*
X454821Y388869D01*
X453300Y389364D01*
X451875Y390090D01*
X450581Y391030D01*
X449450Y392161D01*
X448510Y393455D01*
X447784Y394880D01*
X447289Y396401D01*
X447039Y397980D01*
X447039Y404877D01*
X455677Y404877D01*
X455677Y388734D01*
X454821Y388869D01*
G37*
%LPD*%
%LPC*%
G36*
X505621Y388869D02*
X505621Y388869D01*
X504100Y389364D01*
X502675Y390090D01*
X501381Y391030D01*
X500250Y392161D01*
X499310Y393455D01*
X498584Y394880D01*
X498089Y396401D01*
X497839Y397980D01*
X497839Y404877D01*
X506477Y404877D01*
X506477Y388734D01*
X505621Y388869D01*
G37*
%LPD*%
%LPC*%
G36*
X404021Y33269D02*
X404021Y33269D01*
X402500Y33764D01*
X401075Y34490D01*
X399781Y35430D01*
X398650Y36561D01*
X397710Y37855D01*
X396984Y39280D01*
X396489Y40801D01*
X396239Y42380D01*
X396239Y49277D01*
X404877Y49277D01*
X404877Y33134D01*
X404021Y33269D01*
G37*
%LPD*%
%LPC*%
G36*
X29680Y78739D02*
X29680Y78739D01*
X28101Y78989D01*
X26580Y79484D01*
X25155Y80210D01*
X23861Y81150D01*
X22730Y82281D01*
X21790Y83575D01*
X21064Y85000D01*
X20569Y86521D01*
X20434Y87377D01*
X36577Y87377D01*
X36577Y78739D01*
X29680Y78739D01*
G37*
%LPD*%
%LPC*%
G36*
X395223Y179323D02*
X395223Y179323D01*
X395223Y193425D01*
X396367Y193197D01*
X398032Y192508D01*
X399530Y191507D01*
X400803Y190234D01*
X401804Y188736D01*
X402493Y187071D01*
X402845Y185305D01*
X402845Y179323D01*
X395223Y179323D01*
G37*
%LPD*%
%LPC*%
G36*
X433323Y268223D02*
X433323Y268223D01*
X433323Y275845D01*
X439305Y275845D01*
X441071Y275493D01*
X442736Y274804D01*
X444234Y273803D01*
X445507Y272530D01*
X446508Y271032D01*
X447197Y269367D01*
X447425Y268223D01*
X433323Y268223D01*
G37*
%LPD*%
%LPC*%
G36*
X395223Y176277D02*
X395223Y176277D01*
X402845Y176277D01*
X402845Y170295D01*
X402493Y168529D01*
X401804Y166864D01*
X400803Y165366D01*
X399530Y164093D01*
X398032Y163092D01*
X396367Y162403D01*
X395223Y162175D01*
X395223Y176277D01*
G37*
%LPD*%
%LPC*%
G36*
X416175Y268223D02*
X416175Y268223D01*
X416403Y269367D01*
X417092Y271032D01*
X418093Y272530D01*
X419366Y273803D01*
X420864Y274804D01*
X422529Y275493D01*
X424295Y275845D01*
X430277Y275845D01*
X430277Y268223D01*
X416175Y268223D01*
G37*
%LPD*%
%LPC*%
G36*
X433323Y257555D02*
X433323Y257555D01*
X433323Y265177D01*
X447425Y265177D01*
X447197Y264033D01*
X446508Y262368D01*
X445507Y260870D01*
X444234Y259597D01*
X442736Y258596D01*
X441071Y257907D01*
X439305Y257555D01*
X433323Y257555D01*
G37*
%LPD*%
%LPC*%
G36*
X384555Y179323D02*
X384555Y179323D01*
X384555Y185305D01*
X384907Y187071D01*
X385596Y188736D01*
X386597Y190234D01*
X387870Y191507D01*
X389368Y192508D01*
X391033Y193197D01*
X392177Y193425D01*
X392177Y179323D01*
X384555Y179323D01*
G37*
%LPD*%
%LPC*%
G36*
X391033Y162403D02*
X391033Y162403D01*
X389368Y163092D01*
X387870Y164093D01*
X386597Y165366D01*
X385596Y166864D01*
X384907Y168529D01*
X384555Y170295D01*
X384555Y176277D01*
X392177Y176277D01*
X392177Y162175D01*
X391033Y162403D01*
G37*
%LPD*%
%LPC*%
G36*
X424295Y257555D02*
X424295Y257555D01*
X422529Y257907D01*
X420864Y258596D01*
X419366Y259597D01*
X418093Y260870D01*
X417092Y262368D01*
X416403Y264033D01*
X416175Y265177D01*
X430277Y265177D01*
X430277Y257555D01*
X424295Y257555D01*
G37*
%LPD*%
%LPC*%
G36*
X520699Y215899D02*
X520699Y215899D01*
X520699Y215901D01*
X520701Y215901D01*
X520701Y215899D01*
X520699Y215899D01*
G37*
%LPD*%
%LPC*%
G36*
X520699Y165099D02*
X520699Y165099D01*
X520699Y165101D01*
X520701Y165101D01*
X520701Y165099D01*
X520699Y165099D01*
G37*
%LPD*%
%LPC*%
G36*
X393699Y177799D02*
X393699Y177799D01*
X393699Y177801D01*
X393701Y177801D01*
X393701Y177799D01*
X393699Y177799D01*
G37*
%LPD*%
%LPC*%
G36*
X431799Y406399D02*
X431799Y406399D01*
X431799Y406401D01*
X431801Y406401D01*
X431801Y406399D01*
X431799Y406399D01*
G37*
%LPD*%
%LPC*%
G36*
X431799Y266699D02*
X431799Y266699D01*
X431799Y266701D01*
X431801Y266701D01*
X431801Y266699D01*
X431799Y266699D01*
G37*
%LPD*%
%LPC*%
G36*
X457199Y406399D02*
X457199Y406399D01*
X457199Y406401D01*
X457201Y406401D01*
X457201Y406399D01*
X457199Y406399D01*
G37*
%LPD*%
%LPC*%
G36*
X342499Y63499D02*
X342499Y63499D01*
X342499Y63501D01*
X342501Y63501D01*
X342501Y63499D01*
X342499Y63499D01*
G37*
%LPD*%
%LPC*%
G36*
X507999Y406399D02*
X507999Y406399D01*
X507999Y406401D01*
X508001Y406401D01*
X508001Y406399D01*
X507999Y406399D01*
G37*
%LPD*%
%LPC*%
G36*
X406399Y50799D02*
X406399Y50799D01*
X406399Y50801D01*
X406401Y50801D01*
X406401Y50799D01*
X406399Y50799D01*
G37*
%LPD*%
%LPC*%
G36*
X520699Y101599D02*
X520699Y101599D01*
X520699Y101601D01*
X520701Y101601D01*
X520701Y101599D01*
X520699Y101599D01*
G37*
%LPD*%
%LPC*%
G36*
X38099Y88899D02*
X38099Y88899D01*
X38099Y88901D01*
X38101Y88901D01*
X38101Y88899D01*
X38099Y88899D01*
G37*
%LPD*%
D10*
X533400Y414020D02*
X533400Y398780D01*
X508000Y398780D02*
X508000Y414020D01*
X482600Y414020D02*
X482600Y398780D01*
X457200Y398780D02*
X457200Y414020D01*
X431800Y414020D02*
X431800Y398780D01*
X406400Y398780D02*
X406400Y414020D01*
D11*
X292500Y72454D02*
X292500Y54547D01*
X342500Y54547D02*
X342500Y72454D01*
D10*
X431800Y58420D02*
X431800Y43180D01*
X406400Y43180D02*
X406400Y58420D01*
D12*
X101600Y168656D02*
X101600Y186944D01*
X127000Y186944D02*
X127000Y168656D01*
X152400Y168656D02*
X152400Y186944D01*
X177800Y186944D02*
X177800Y168656D01*
X203200Y168656D02*
X203200Y186944D01*
X228600Y186944D02*
X228600Y168656D01*
X254000Y168656D02*
X254000Y186944D01*
X279400Y186944D02*
X279400Y168656D01*
X101600Y397256D02*
X101600Y415544D01*
X127000Y415544D02*
X127000Y397256D01*
X152400Y397256D02*
X152400Y415544D01*
X177800Y415544D02*
X177800Y397256D01*
X203200Y397256D02*
X203200Y415544D01*
X228600Y415544D02*
X228600Y397256D01*
X254000Y397256D02*
X254000Y415544D01*
X279400Y415544D02*
X279400Y397256D01*
D10*
X45720Y114300D02*
X30480Y114300D01*
X30480Y88900D02*
X45720Y88900D01*
X45720Y63500D02*
X30480Y63500D01*
X30480Y38100D02*
X45720Y38100D01*
X495300Y93980D02*
X495300Y109220D01*
X520700Y109220D02*
X520700Y93980D01*
X546100Y93980D02*
X546100Y109220D01*
X571500Y109220D02*
X571500Y93980D01*
X495300Y208280D02*
X495300Y223520D01*
X520700Y223520D02*
X520700Y208280D01*
X546100Y208280D02*
X546100Y223520D01*
X571500Y223520D02*
X571500Y208280D01*
D13*
X254000Y330200D03*
X177800Y330200D03*
X152400Y330200D03*
X76200Y330200D03*
D14*
X215900Y101600D03*
X215900Y76200D03*
X215900Y50800D03*
D10*
X495300Y157480D02*
X495300Y172720D01*
X520700Y172720D02*
X520700Y157480D01*
X546100Y157480D02*
X546100Y172720D01*
X571500Y172720D02*
X571500Y157480D01*
D15*
X438404Y342900D02*
X425196Y342900D01*
X425196Y317500D02*
X438404Y317500D01*
X438404Y292100D02*
X425196Y292100D01*
X425196Y266700D02*
X438404Y266700D01*
X501396Y266700D02*
X514604Y266700D01*
X514604Y292100D02*
X501396Y292100D01*
X501396Y317500D02*
X514604Y317500D01*
X514604Y342900D02*
X501396Y342900D01*
D16*
X279400Y330200D03*
X355600Y330200D03*
X279400Y279400D03*
X355600Y279400D03*
D10*
X495300Y58420D02*
X495300Y43180D01*
X520700Y43180D02*
X520700Y58420D01*
X546100Y58420D02*
X546100Y43180D01*
X571500Y43180D02*
X571500Y58420D01*
D15*
X444500Y171196D02*
X444500Y184404D01*
X393700Y184404D02*
X393700Y171196D01*
X419100Y171196D02*
X419100Y184404D01*
D13*
X254000Y279400D03*
X177800Y279400D03*
M02*
