M48
;GenerationSoftware,Autodesk,EAGLE,9.1.0*%
;CreationDate,2018-07-07T09:38:12Z*%
FMAT,2
ICI,OFF
METRIC,TZ,000.000
T3C0.813
T2C1.016
T1C1.194
%
G90
M71
T1
X29250Y6350
X34250Y6350
T2
X53340Y40640
X50800Y40640
X48260Y40640
X45720Y40640
X43180Y40640
X40640Y40640
X43180Y5080
X40640Y5080
X10160Y17780
X12700Y17780
X15240Y17780
X17780Y17780
X20320Y17780
X22860Y17780
X25400Y17780
X27940Y17780
X10160Y40640
X12700Y40640
X15240Y40640
X17780Y40640
X20320Y40640
X22860Y40640
X25400Y40640
X27940Y40640
X3810Y11430
X3810Y8890
X3810Y6350
X3810Y3810
X49530Y10160
X52070Y10160
X54610Y10160
X57150Y10160
X49530Y21590
X52070Y21590
X54610Y21590
X57150Y21590
X21590Y10160
X21590Y7620
X21590Y5080
X49530Y16510
X52070Y16510
X54610Y16510
X57150Y16510
X49530Y5080
X52070Y5080
X54610Y5080
X57150Y5080
T3
X43180Y34290
X43180Y31750
X43180Y29210
X43180Y26670
X7620Y33020
X50800Y29210
X50800Y31750
X50800Y34290
X27940Y33020
X35560Y33020
X27940Y27940
X35560Y27940
X50800Y26670
X25400Y33020
X17780Y33020
X15240Y33020
X44450Y17780
X39370Y17780
X41910Y17780
X25400Y27940
X17780Y27940
M30