G04 EAGLE Gerber X2 export*
%TF.Part,Single*%
%TF.FileFunction,Legend,Bot,1*%
%TF.FilePolarity,Positive*%
%TF.GenerationSoftware,Autodesk,EAGLE,9.1.0*%
%TF.CreationDate,2018-07-07T09:38:13Z*%
G75*
%MOMM*%
%FSLAX34Y34*%
%LPD*%
%AMOC8*
5,1,8,0,0,1.08239X$1,22.5*%
G01*
%ADD10C,0.076200*%


D10*
X84736Y117983D02*
X82280Y110617D01*
X79825Y117983D01*
X75397Y110617D02*
X73760Y110617D01*
X75397Y110617D02*
X75475Y110619D01*
X75553Y110624D01*
X75630Y110634D01*
X75707Y110647D01*
X75783Y110663D01*
X75858Y110683D01*
X75932Y110707D01*
X76005Y110734D01*
X76077Y110765D01*
X76147Y110799D01*
X76216Y110836D01*
X76282Y110877D01*
X76347Y110921D01*
X76409Y110967D01*
X76469Y111017D01*
X76527Y111069D01*
X76582Y111124D01*
X76634Y111182D01*
X76684Y111242D01*
X76730Y111304D01*
X76774Y111369D01*
X76815Y111436D01*
X76852Y111504D01*
X76886Y111574D01*
X76917Y111646D01*
X76944Y111719D01*
X76968Y111793D01*
X76988Y111868D01*
X77004Y111944D01*
X77017Y112021D01*
X77027Y112098D01*
X77032Y112176D01*
X77034Y112254D01*
X77034Y116346D01*
X77032Y116424D01*
X77027Y116502D01*
X77017Y116579D01*
X77004Y116656D01*
X76988Y116732D01*
X76968Y116807D01*
X76944Y116881D01*
X76917Y116954D01*
X76886Y117026D01*
X76852Y117096D01*
X76815Y117165D01*
X76774Y117231D01*
X76730Y117296D01*
X76684Y117358D01*
X76634Y117418D01*
X76582Y117476D01*
X76527Y117531D01*
X76469Y117583D01*
X76409Y117633D01*
X76347Y117679D01*
X76282Y117723D01*
X76216Y117764D01*
X76147Y117801D01*
X76077Y117835D01*
X76005Y117866D01*
X75932Y117893D01*
X75858Y117917D01*
X75783Y117937D01*
X75707Y117953D01*
X75630Y117966D01*
X75553Y117976D01*
X75475Y117981D01*
X75397Y117983D01*
X73760Y117983D01*
X69301Y110617D02*
X67664Y110617D01*
X69301Y110617D02*
X69379Y110619D01*
X69457Y110624D01*
X69534Y110634D01*
X69611Y110647D01*
X69687Y110663D01*
X69762Y110683D01*
X69836Y110707D01*
X69909Y110734D01*
X69981Y110765D01*
X70051Y110799D01*
X70120Y110836D01*
X70186Y110877D01*
X70251Y110921D01*
X70313Y110967D01*
X70373Y111017D01*
X70431Y111069D01*
X70486Y111124D01*
X70538Y111182D01*
X70588Y111242D01*
X70634Y111304D01*
X70678Y111369D01*
X70719Y111436D01*
X70756Y111504D01*
X70790Y111574D01*
X70821Y111646D01*
X70848Y111719D01*
X70872Y111793D01*
X70892Y111868D01*
X70908Y111944D01*
X70921Y112021D01*
X70931Y112098D01*
X70936Y112176D01*
X70938Y112254D01*
X70938Y116346D01*
X70936Y116424D01*
X70931Y116502D01*
X70921Y116579D01*
X70908Y116656D01*
X70892Y116732D01*
X70872Y116807D01*
X70848Y116881D01*
X70821Y116954D01*
X70790Y117026D01*
X70756Y117096D01*
X70719Y117165D01*
X70678Y117231D01*
X70634Y117296D01*
X70588Y117358D01*
X70538Y117418D01*
X70486Y117476D01*
X70431Y117531D01*
X70373Y117583D01*
X70313Y117633D01*
X70251Y117679D01*
X70186Y117723D01*
X70120Y117764D01*
X70051Y117801D01*
X69981Y117835D01*
X69909Y117866D01*
X69836Y117893D01*
X69762Y117917D01*
X69687Y117937D01*
X69611Y117953D01*
X69534Y117966D01*
X69457Y117976D01*
X69379Y117981D01*
X69301Y117983D01*
X67664Y117983D01*
X80878Y89309D02*
X82106Y89309D01*
X80878Y89309D02*
X80878Y85217D01*
X83334Y85217D01*
X83412Y85219D01*
X83490Y85224D01*
X83567Y85234D01*
X83644Y85247D01*
X83720Y85263D01*
X83795Y85283D01*
X83869Y85307D01*
X83942Y85334D01*
X84014Y85365D01*
X84084Y85399D01*
X84153Y85436D01*
X84219Y85477D01*
X84284Y85521D01*
X84346Y85567D01*
X84406Y85617D01*
X84464Y85669D01*
X84519Y85724D01*
X84571Y85782D01*
X84621Y85842D01*
X84667Y85904D01*
X84711Y85969D01*
X84752Y86036D01*
X84789Y86104D01*
X84823Y86174D01*
X84854Y86246D01*
X84881Y86319D01*
X84905Y86393D01*
X84925Y86468D01*
X84941Y86544D01*
X84954Y86621D01*
X84964Y86698D01*
X84969Y86776D01*
X84971Y86854D01*
X84970Y86854D02*
X84970Y90946D01*
X84971Y90946D02*
X84969Y91024D01*
X84964Y91102D01*
X84954Y91179D01*
X84941Y91256D01*
X84925Y91332D01*
X84905Y91407D01*
X84881Y91481D01*
X84854Y91554D01*
X84823Y91626D01*
X84789Y91696D01*
X84752Y91765D01*
X84711Y91831D01*
X84667Y91896D01*
X84621Y91958D01*
X84571Y92018D01*
X84519Y92076D01*
X84464Y92131D01*
X84406Y92183D01*
X84346Y92233D01*
X84284Y92279D01*
X84219Y92323D01*
X84153Y92364D01*
X84084Y92401D01*
X84014Y92435D01*
X83942Y92466D01*
X83869Y92493D01*
X83795Y92517D01*
X83720Y92537D01*
X83644Y92553D01*
X83567Y92566D01*
X83490Y92576D01*
X83412Y92581D01*
X83334Y92583D01*
X80878Y92583D01*
X77246Y90128D02*
X77246Y85217D01*
X77246Y90128D02*
X75200Y90128D01*
X75131Y90126D01*
X75063Y90120D01*
X74994Y90111D01*
X74927Y90097D01*
X74860Y90080D01*
X74794Y90059D01*
X74730Y90035D01*
X74667Y90006D01*
X74606Y89975D01*
X74547Y89940D01*
X74489Y89902D01*
X74434Y89860D01*
X74382Y89816D01*
X74332Y89768D01*
X74284Y89718D01*
X74240Y89666D01*
X74199Y89611D01*
X74160Y89553D01*
X74125Y89494D01*
X74094Y89433D01*
X74065Y89370D01*
X74041Y89306D01*
X74020Y89240D01*
X74003Y89173D01*
X73989Y89106D01*
X73980Y89038D01*
X73974Y88969D01*
X73972Y88900D01*
X73972Y85217D01*
X67430Y85217D02*
X67430Y92583D01*
X67430Y85217D02*
X69476Y85217D01*
X69545Y85219D01*
X69613Y85225D01*
X69682Y85234D01*
X69749Y85248D01*
X69816Y85265D01*
X69882Y85286D01*
X69946Y85310D01*
X70009Y85339D01*
X70070Y85370D01*
X70129Y85405D01*
X70187Y85443D01*
X70242Y85485D01*
X70294Y85529D01*
X70344Y85577D01*
X70392Y85627D01*
X70436Y85679D01*
X70478Y85734D01*
X70516Y85792D01*
X70551Y85851D01*
X70582Y85912D01*
X70611Y85975D01*
X70635Y86039D01*
X70656Y86105D01*
X70673Y86172D01*
X70687Y86239D01*
X70696Y86308D01*
X70702Y86376D01*
X70704Y86445D01*
X70703Y86445D02*
X70703Y88900D01*
X70704Y88900D02*
X70702Y88969D01*
X70696Y89037D01*
X70687Y89106D01*
X70673Y89173D01*
X70656Y89240D01*
X70635Y89306D01*
X70611Y89370D01*
X70582Y89433D01*
X70551Y89494D01*
X70516Y89553D01*
X70478Y89611D01*
X70436Y89666D01*
X70392Y89718D01*
X70344Y89768D01*
X70294Y89816D01*
X70242Y89860D01*
X70187Y89902D01*
X70129Y89940D01*
X70070Y89975D01*
X70009Y90006D01*
X69946Y90035D01*
X69882Y90059D01*
X69816Y90080D01*
X69749Y90097D01*
X69682Y90111D01*
X69613Y90120D01*
X69545Y90126D01*
X69476Y90128D01*
X67430Y90128D01*
X81795Y36054D02*
X81797Y35976D01*
X81802Y35898D01*
X81812Y35821D01*
X81825Y35744D01*
X81841Y35668D01*
X81861Y35593D01*
X81885Y35519D01*
X81912Y35446D01*
X81943Y35374D01*
X81977Y35304D01*
X82014Y35235D01*
X82055Y35169D01*
X82099Y35104D01*
X82145Y35042D01*
X82195Y34982D01*
X82247Y34924D01*
X82302Y34869D01*
X82360Y34817D01*
X82420Y34767D01*
X82482Y34721D01*
X82547Y34677D01*
X82614Y34636D01*
X82682Y34599D01*
X82752Y34565D01*
X82824Y34534D01*
X82897Y34507D01*
X82971Y34483D01*
X83046Y34463D01*
X83122Y34447D01*
X83199Y34434D01*
X83276Y34424D01*
X83354Y34419D01*
X83432Y34417D01*
X83546Y34419D01*
X83659Y34424D01*
X83773Y34434D01*
X83886Y34447D01*
X83998Y34464D01*
X84110Y34484D01*
X84221Y34508D01*
X84332Y34536D01*
X84441Y34567D01*
X84549Y34602D01*
X84656Y34641D01*
X84762Y34683D01*
X84866Y34728D01*
X84969Y34777D01*
X85070Y34830D01*
X85169Y34885D01*
X85267Y34944D01*
X85362Y35006D01*
X85455Y35071D01*
X85547Y35139D01*
X85635Y35210D01*
X85722Y35284D01*
X85806Y35361D01*
X85887Y35440D01*
X85683Y40146D02*
X85681Y40224D01*
X85676Y40302D01*
X85666Y40379D01*
X85653Y40456D01*
X85637Y40532D01*
X85617Y40607D01*
X85593Y40681D01*
X85566Y40754D01*
X85535Y40826D01*
X85501Y40896D01*
X85464Y40965D01*
X85423Y41031D01*
X85379Y41096D01*
X85333Y41158D01*
X85283Y41218D01*
X85231Y41276D01*
X85176Y41331D01*
X85118Y41383D01*
X85058Y41433D01*
X84996Y41479D01*
X84931Y41523D01*
X84865Y41564D01*
X84796Y41601D01*
X84726Y41635D01*
X84654Y41666D01*
X84581Y41693D01*
X84507Y41717D01*
X84432Y41737D01*
X84356Y41753D01*
X84279Y41766D01*
X84202Y41776D01*
X84124Y41781D01*
X84046Y41783D01*
X83936Y41781D01*
X83827Y41775D01*
X83717Y41765D01*
X83609Y41752D01*
X83500Y41734D01*
X83393Y41713D01*
X83286Y41687D01*
X83180Y41658D01*
X83075Y41626D01*
X82972Y41589D01*
X82870Y41549D01*
X82769Y41505D01*
X82670Y41457D01*
X82573Y41407D01*
X82478Y41352D01*
X82385Y41294D01*
X82294Y41233D01*
X82205Y41169D01*
X84865Y38713D02*
X84932Y38755D01*
X84997Y38799D01*
X85059Y38847D01*
X85119Y38897D01*
X85177Y38950D01*
X85232Y39006D01*
X85284Y39065D01*
X85334Y39125D01*
X85381Y39189D01*
X85424Y39254D01*
X85465Y39321D01*
X85502Y39390D01*
X85536Y39461D01*
X85567Y39533D01*
X85594Y39607D01*
X85618Y39681D01*
X85638Y39757D01*
X85654Y39834D01*
X85667Y39911D01*
X85677Y39989D01*
X85682Y40068D01*
X85684Y40146D01*
X82614Y37486D02*
X82548Y37445D01*
X82483Y37400D01*
X82421Y37353D01*
X82361Y37302D01*
X82303Y37249D01*
X82248Y37193D01*
X82195Y37135D01*
X82146Y37074D01*
X82099Y37011D01*
X82056Y36946D01*
X82015Y36879D01*
X81978Y36810D01*
X81944Y36739D01*
X81913Y36667D01*
X81886Y36593D01*
X81862Y36518D01*
X81842Y36443D01*
X81826Y36366D01*
X81813Y36289D01*
X81803Y36211D01*
X81798Y36132D01*
X81796Y36054D01*
X82614Y37486D02*
X84865Y38714D01*
X78573Y41783D02*
X78573Y34417D01*
X78573Y41783D02*
X76527Y41783D01*
X76438Y41781D01*
X76349Y41775D01*
X76260Y41765D01*
X76172Y41752D01*
X76084Y41735D01*
X75997Y41713D01*
X75912Y41688D01*
X75827Y41660D01*
X75744Y41627D01*
X75662Y41591D01*
X75582Y41552D01*
X75504Y41509D01*
X75428Y41463D01*
X75353Y41413D01*
X75281Y41360D01*
X75212Y41304D01*
X75145Y41245D01*
X75080Y41184D01*
X75019Y41119D01*
X74960Y41052D01*
X74904Y40983D01*
X74851Y40911D01*
X74801Y40836D01*
X74755Y40760D01*
X74712Y40682D01*
X74673Y40602D01*
X74637Y40520D01*
X74604Y40437D01*
X74576Y40352D01*
X74551Y40267D01*
X74529Y40180D01*
X74512Y40092D01*
X74499Y40004D01*
X74489Y39915D01*
X74483Y39826D01*
X74481Y39737D01*
X74480Y39737D02*
X74480Y36463D01*
X74481Y36463D02*
X74483Y36374D01*
X74489Y36285D01*
X74499Y36196D01*
X74512Y36108D01*
X74529Y36020D01*
X74551Y35933D01*
X74576Y35848D01*
X74604Y35763D01*
X74637Y35680D01*
X74673Y35598D01*
X74712Y35518D01*
X74755Y35440D01*
X74801Y35364D01*
X74851Y35289D01*
X74904Y35217D01*
X74960Y35148D01*
X75019Y35081D01*
X75080Y35016D01*
X75145Y34955D01*
X75212Y34896D01*
X75281Y34840D01*
X75353Y34787D01*
X75428Y34737D01*
X75504Y34691D01*
X75582Y34648D01*
X75662Y34609D01*
X75744Y34573D01*
X75827Y34540D01*
X75912Y34512D01*
X75997Y34487D01*
X76084Y34465D01*
X76172Y34448D01*
X76260Y34435D01*
X76349Y34425D01*
X76438Y34419D01*
X76527Y34417D01*
X78573Y34417D01*
X71423Y34417D02*
X68968Y41783D01*
X66512Y34417D01*
X67126Y36259D02*
X70809Y36259D01*
X347578Y38509D02*
X348806Y38509D01*
X347578Y38509D02*
X347578Y34417D01*
X350034Y34417D01*
X350112Y34419D01*
X350190Y34424D01*
X350267Y34434D01*
X350344Y34447D01*
X350420Y34463D01*
X350495Y34483D01*
X350569Y34507D01*
X350642Y34534D01*
X350714Y34565D01*
X350784Y34599D01*
X350853Y34636D01*
X350919Y34677D01*
X350984Y34721D01*
X351046Y34767D01*
X351106Y34817D01*
X351164Y34869D01*
X351219Y34924D01*
X351271Y34982D01*
X351321Y35042D01*
X351367Y35104D01*
X351411Y35169D01*
X351452Y35236D01*
X351489Y35304D01*
X351523Y35374D01*
X351554Y35446D01*
X351581Y35519D01*
X351605Y35593D01*
X351625Y35668D01*
X351641Y35744D01*
X351654Y35821D01*
X351664Y35898D01*
X351669Y35976D01*
X351671Y36054D01*
X351670Y36054D02*
X351670Y40146D01*
X351671Y40146D02*
X351669Y40224D01*
X351664Y40302D01*
X351654Y40379D01*
X351641Y40456D01*
X351625Y40532D01*
X351605Y40607D01*
X351581Y40681D01*
X351554Y40754D01*
X351523Y40826D01*
X351489Y40896D01*
X351452Y40965D01*
X351411Y41031D01*
X351367Y41096D01*
X351321Y41158D01*
X351271Y41218D01*
X351219Y41276D01*
X351164Y41331D01*
X351106Y41383D01*
X351046Y41433D01*
X350984Y41479D01*
X350919Y41523D01*
X350853Y41564D01*
X350784Y41601D01*
X350714Y41635D01*
X350642Y41666D01*
X350569Y41693D01*
X350495Y41717D01*
X350420Y41737D01*
X350344Y41753D01*
X350267Y41766D01*
X350190Y41776D01*
X350112Y41781D01*
X350034Y41783D01*
X347578Y41783D01*
X343946Y39328D02*
X343946Y34417D01*
X343946Y39328D02*
X341900Y39328D01*
X341831Y39326D01*
X341763Y39320D01*
X341694Y39311D01*
X341627Y39297D01*
X341560Y39280D01*
X341494Y39259D01*
X341430Y39235D01*
X341367Y39206D01*
X341306Y39175D01*
X341247Y39140D01*
X341189Y39102D01*
X341134Y39060D01*
X341082Y39016D01*
X341032Y38968D01*
X340984Y38918D01*
X340940Y38866D01*
X340899Y38811D01*
X340860Y38753D01*
X340825Y38694D01*
X340794Y38633D01*
X340765Y38570D01*
X340741Y38506D01*
X340720Y38440D01*
X340703Y38373D01*
X340689Y38306D01*
X340680Y38238D01*
X340674Y38169D01*
X340672Y38100D01*
X340672Y34417D01*
X334130Y34417D02*
X334130Y41783D01*
X334130Y34417D02*
X336176Y34417D01*
X336245Y34419D01*
X336313Y34425D01*
X336382Y34434D01*
X336449Y34448D01*
X336516Y34465D01*
X336582Y34486D01*
X336646Y34510D01*
X336709Y34539D01*
X336770Y34570D01*
X336829Y34605D01*
X336887Y34643D01*
X336942Y34685D01*
X336994Y34729D01*
X337044Y34777D01*
X337092Y34827D01*
X337136Y34879D01*
X337178Y34934D01*
X337216Y34992D01*
X337251Y35051D01*
X337282Y35112D01*
X337311Y35175D01*
X337335Y35239D01*
X337356Y35305D01*
X337373Y35372D01*
X337387Y35439D01*
X337396Y35508D01*
X337402Y35576D01*
X337404Y35645D01*
X337403Y35645D02*
X337403Y38100D01*
X337404Y38100D02*
X337402Y38169D01*
X337396Y38237D01*
X337387Y38306D01*
X337373Y38373D01*
X337356Y38440D01*
X337335Y38506D01*
X337311Y38570D01*
X337282Y38633D01*
X337251Y38694D01*
X337216Y38753D01*
X337178Y38811D01*
X337136Y38866D01*
X337092Y38918D01*
X337044Y38968D01*
X336994Y39016D01*
X336942Y39060D01*
X336887Y39102D01*
X336829Y39140D01*
X336770Y39175D01*
X336709Y39206D01*
X336646Y39235D01*
X336582Y39259D01*
X336516Y39280D01*
X336449Y39297D01*
X336382Y39311D01*
X336313Y39320D01*
X336245Y39326D01*
X336176Y39328D01*
X334130Y39328D01*
X299145Y41783D02*
X296689Y34417D01*
X294234Y41783D01*
X291569Y39328D02*
X291569Y34417D01*
X291773Y41374D02*
X291773Y41783D01*
X291364Y41783D01*
X291364Y41374D01*
X291773Y41374D01*
X288329Y39328D02*
X288329Y34417D01*
X288329Y39328D02*
X286283Y39328D01*
X286214Y39326D01*
X286146Y39320D01*
X286077Y39311D01*
X286010Y39297D01*
X285943Y39280D01*
X285877Y39259D01*
X285813Y39235D01*
X285750Y39206D01*
X285689Y39175D01*
X285630Y39140D01*
X285572Y39102D01*
X285517Y39060D01*
X285465Y39016D01*
X285415Y38968D01*
X285367Y38918D01*
X285323Y38866D01*
X285282Y38811D01*
X285243Y38753D01*
X285208Y38694D01*
X285177Y38633D01*
X285148Y38570D01*
X285124Y38506D01*
X285103Y38440D01*
X285086Y38373D01*
X285072Y38306D01*
X285063Y38238D01*
X285057Y38169D01*
X285055Y38100D01*
X285055Y34417D01*
X411078Y76609D02*
X412306Y76609D01*
X411078Y76609D02*
X411078Y72517D01*
X413534Y72517D01*
X413612Y72519D01*
X413690Y72524D01*
X413767Y72534D01*
X413844Y72547D01*
X413920Y72563D01*
X413995Y72583D01*
X414069Y72607D01*
X414142Y72634D01*
X414214Y72665D01*
X414284Y72699D01*
X414353Y72736D01*
X414419Y72777D01*
X414484Y72821D01*
X414546Y72867D01*
X414606Y72917D01*
X414664Y72969D01*
X414719Y73024D01*
X414771Y73082D01*
X414821Y73142D01*
X414867Y73204D01*
X414911Y73269D01*
X414952Y73336D01*
X414989Y73404D01*
X415023Y73474D01*
X415054Y73546D01*
X415081Y73619D01*
X415105Y73693D01*
X415125Y73768D01*
X415141Y73844D01*
X415154Y73921D01*
X415164Y73998D01*
X415169Y74076D01*
X415171Y74154D01*
X415170Y74154D02*
X415170Y78246D01*
X415171Y78246D02*
X415169Y78324D01*
X415164Y78402D01*
X415154Y78479D01*
X415141Y78556D01*
X415125Y78632D01*
X415105Y78707D01*
X415081Y78781D01*
X415054Y78854D01*
X415023Y78926D01*
X414989Y78996D01*
X414952Y79065D01*
X414911Y79131D01*
X414867Y79196D01*
X414821Y79258D01*
X414771Y79318D01*
X414719Y79376D01*
X414664Y79431D01*
X414606Y79483D01*
X414546Y79533D01*
X414484Y79579D01*
X414419Y79623D01*
X414353Y79664D01*
X414284Y79701D01*
X414214Y79735D01*
X414142Y79766D01*
X414069Y79793D01*
X413995Y79817D01*
X413920Y79837D01*
X413844Y79853D01*
X413767Y79866D01*
X413690Y79876D01*
X413612Y79881D01*
X413534Y79883D01*
X411078Y79883D01*
X407446Y77428D02*
X407446Y72517D01*
X407446Y77428D02*
X405400Y77428D01*
X405331Y77426D01*
X405263Y77420D01*
X405194Y77411D01*
X405127Y77397D01*
X405060Y77380D01*
X404994Y77359D01*
X404930Y77335D01*
X404867Y77306D01*
X404806Y77275D01*
X404747Y77240D01*
X404689Y77202D01*
X404634Y77160D01*
X404582Y77116D01*
X404532Y77068D01*
X404484Y77018D01*
X404440Y76966D01*
X404399Y76911D01*
X404360Y76853D01*
X404325Y76794D01*
X404294Y76733D01*
X404265Y76670D01*
X404241Y76606D01*
X404220Y76540D01*
X404203Y76473D01*
X404189Y76406D01*
X404180Y76338D01*
X404174Y76269D01*
X404172Y76200D01*
X404172Y72517D01*
X397630Y72517D02*
X397630Y79883D01*
X397630Y72517D02*
X399676Y72517D01*
X399745Y72519D01*
X399813Y72525D01*
X399882Y72534D01*
X399949Y72548D01*
X400016Y72565D01*
X400082Y72586D01*
X400146Y72610D01*
X400209Y72639D01*
X400270Y72670D01*
X400329Y72705D01*
X400387Y72743D01*
X400442Y72785D01*
X400494Y72829D01*
X400544Y72877D01*
X400592Y72927D01*
X400636Y72979D01*
X400678Y73034D01*
X400716Y73092D01*
X400751Y73151D01*
X400782Y73212D01*
X400811Y73275D01*
X400835Y73339D01*
X400856Y73405D01*
X400873Y73472D01*
X400887Y73539D01*
X400896Y73608D01*
X400902Y73676D01*
X400904Y73745D01*
X400903Y73745D02*
X400903Y76200D01*
X400904Y76200D02*
X400902Y76269D01*
X400896Y76337D01*
X400887Y76406D01*
X400873Y76473D01*
X400856Y76540D01*
X400835Y76606D01*
X400811Y76670D01*
X400782Y76733D01*
X400751Y76794D01*
X400716Y76853D01*
X400678Y76911D01*
X400636Y76966D01*
X400592Y77018D01*
X400544Y77068D01*
X400494Y77116D01*
X400442Y77160D01*
X400387Y77202D01*
X400329Y77240D01*
X400270Y77275D01*
X400209Y77306D01*
X400146Y77335D01*
X400082Y77359D01*
X400016Y77380D01*
X399949Y77397D01*
X399882Y77411D01*
X399813Y77420D01*
X399745Y77426D01*
X399676Y77428D01*
X397630Y77428D01*
X436389Y72517D02*
X438845Y79883D01*
X433934Y79883D02*
X436389Y72517D01*
X431269Y72517D02*
X431269Y77428D01*
X431473Y79474D02*
X431473Y79883D01*
X431064Y79883D01*
X431064Y79474D01*
X431473Y79474D01*
X428029Y77428D02*
X428029Y72517D01*
X428029Y77428D02*
X425983Y77428D01*
X425914Y77426D01*
X425846Y77420D01*
X425777Y77411D01*
X425710Y77397D01*
X425643Y77380D01*
X425577Y77359D01*
X425513Y77335D01*
X425450Y77306D01*
X425389Y77275D01*
X425330Y77240D01*
X425272Y77202D01*
X425217Y77160D01*
X425165Y77116D01*
X425115Y77068D01*
X425067Y77018D01*
X425023Y76966D01*
X424982Y76911D01*
X424943Y76853D01*
X424908Y76794D01*
X424877Y76733D01*
X424848Y76670D01*
X424824Y76606D01*
X424803Y76540D01*
X424786Y76473D01*
X424772Y76406D01*
X424763Y76338D01*
X424757Y76269D01*
X424755Y76200D01*
X424755Y72517D01*
X500909Y136017D02*
X503364Y143383D01*
X498453Y143383D02*
X500909Y136017D01*
X494481Y136017D02*
X492844Y136017D01*
X494481Y136017D02*
X494550Y136019D01*
X494618Y136025D01*
X494687Y136034D01*
X494754Y136048D01*
X494821Y136065D01*
X494887Y136086D01*
X494951Y136110D01*
X495014Y136139D01*
X495075Y136170D01*
X495134Y136205D01*
X495192Y136243D01*
X495247Y136285D01*
X495299Y136329D01*
X495349Y136377D01*
X495397Y136427D01*
X495441Y136479D01*
X495483Y136534D01*
X495521Y136592D01*
X495556Y136651D01*
X495587Y136712D01*
X495616Y136775D01*
X495640Y136839D01*
X495661Y136905D01*
X495678Y136972D01*
X495692Y137039D01*
X495701Y137108D01*
X495707Y137176D01*
X495709Y137245D01*
X495709Y139700D01*
X495707Y139769D01*
X495701Y139837D01*
X495692Y139906D01*
X495678Y139973D01*
X495661Y140040D01*
X495640Y140106D01*
X495616Y140170D01*
X495587Y140233D01*
X495556Y140294D01*
X495521Y140353D01*
X495483Y140411D01*
X495441Y140466D01*
X495397Y140518D01*
X495349Y140568D01*
X495299Y140616D01*
X495247Y140660D01*
X495192Y140702D01*
X495134Y140740D01*
X495075Y140775D01*
X495014Y140806D01*
X494951Y140835D01*
X494887Y140859D01*
X494821Y140880D01*
X494754Y140897D01*
X494687Y140911D01*
X494618Y140920D01*
X494550Y140926D01*
X494481Y140928D01*
X492844Y140928D01*
X488873Y136017D02*
X487236Y136017D01*
X488873Y136017D02*
X488942Y136019D01*
X489010Y136025D01*
X489079Y136034D01*
X489146Y136048D01*
X489213Y136065D01*
X489279Y136086D01*
X489343Y136110D01*
X489406Y136139D01*
X489467Y136170D01*
X489526Y136205D01*
X489584Y136243D01*
X489639Y136285D01*
X489691Y136329D01*
X489741Y136377D01*
X489789Y136427D01*
X489833Y136479D01*
X489875Y136534D01*
X489913Y136592D01*
X489948Y136651D01*
X489979Y136712D01*
X490008Y136775D01*
X490032Y136839D01*
X490053Y136905D01*
X490070Y136972D01*
X490084Y137039D01*
X490093Y137108D01*
X490099Y137176D01*
X490101Y137245D01*
X490101Y139700D01*
X490099Y139769D01*
X490093Y139837D01*
X490084Y139906D01*
X490070Y139973D01*
X490053Y140040D01*
X490032Y140106D01*
X490008Y140170D01*
X489979Y140233D01*
X489948Y140294D01*
X489913Y140353D01*
X489875Y140411D01*
X489833Y140466D01*
X489789Y140518D01*
X489741Y140568D01*
X489691Y140616D01*
X489639Y140660D01*
X489584Y140702D01*
X489526Y140740D01*
X489467Y140775D01*
X489406Y140806D01*
X489343Y140835D01*
X489279Y140859D01*
X489213Y140880D01*
X489146Y140897D01*
X489079Y140911D01*
X489010Y140920D01*
X488942Y140926D01*
X488873Y140928D01*
X487236Y140928D01*
X525378Y140109D02*
X526606Y140109D01*
X525378Y140109D02*
X525378Y136017D01*
X527834Y136017D01*
X527912Y136019D01*
X527990Y136024D01*
X528067Y136034D01*
X528144Y136047D01*
X528220Y136063D01*
X528295Y136083D01*
X528369Y136107D01*
X528442Y136134D01*
X528514Y136165D01*
X528584Y136199D01*
X528653Y136236D01*
X528719Y136277D01*
X528784Y136321D01*
X528846Y136367D01*
X528906Y136417D01*
X528964Y136469D01*
X529019Y136524D01*
X529071Y136582D01*
X529121Y136642D01*
X529167Y136704D01*
X529211Y136769D01*
X529252Y136836D01*
X529289Y136904D01*
X529323Y136974D01*
X529354Y137046D01*
X529381Y137119D01*
X529405Y137193D01*
X529425Y137268D01*
X529441Y137344D01*
X529454Y137421D01*
X529464Y137498D01*
X529469Y137576D01*
X529471Y137654D01*
X529470Y137654D02*
X529470Y141746D01*
X529471Y141746D02*
X529469Y141824D01*
X529464Y141902D01*
X529454Y141979D01*
X529441Y142056D01*
X529425Y142132D01*
X529405Y142207D01*
X529381Y142281D01*
X529354Y142354D01*
X529323Y142426D01*
X529289Y142496D01*
X529252Y142565D01*
X529211Y142631D01*
X529167Y142696D01*
X529121Y142758D01*
X529071Y142818D01*
X529019Y142876D01*
X528964Y142931D01*
X528906Y142983D01*
X528846Y143033D01*
X528784Y143079D01*
X528719Y143123D01*
X528653Y143164D01*
X528584Y143201D01*
X528514Y143235D01*
X528442Y143266D01*
X528369Y143293D01*
X528295Y143317D01*
X528220Y143337D01*
X528144Y143353D01*
X528067Y143366D01*
X527990Y143376D01*
X527912Y143381D01*
X527834Y143383D01*
X525378Y143383D01*
X521746Y140928D02*
X521746Y136017D01*
X521746Y140928D02*
X519700Y140928D01*
X519631Y140926D01*
X519563Y140920D01*
X519494Y140911D01*
X519427Y140897D01*
X519360Y140880D01*
X519294Y140859D01*
X519230Y140835D01*
X519167Y140806D01*
X519106Y140775D01*
X519047Y140740D01*
X518989Y140702D01*
X518934Y140660D01*
X518882Y140616D01*
X518832Y140568D01*
X518784Y140518D01*
X518740Y140466D01*
X518699Y140411D01*
X518660Y140353D01*
X518625Y140294D01*
X518594Y140233D01*
X518565Y140170D01*
X518541Y140106D01*
X518520Y140040D01*
X518503Y139973D01*
X518489Y139906D01*
X518480Y139838D01*
X518474Y139769D01*
X518472Y139700D01*
X518472Y136017D01*
X511930Y136017D02*
X511930Y143383D01*
X511930Y136017D02*
X513976Y136017D01*
X514045Y136019D01*
X514113Y136025D01*
X514182Y136034D01*
X514249Y136048D01*
X514316Y136065D01*
X514382Y136086D01*
X514446Y136110D01*
X514509Y136139D01*
X514570Y136170D01*
X514629Y136205D01*
X514687Y136243D01*
X514742Y136285D01*
X514794Y136329D01*
X514844Y136377D01*
X514892Y136427D01*
X514936Y136479D01*
X514978Y136534D01*
X515016Y136592D01*
X515051Y136651D01*
X515082Y136712D01*
X515111Y136775D01*
X515135Y136839D01*
X515156Y136905D01*
X515173Y136972D01*
X515187Y137039D01*
X515196Y137108D01*
X515202Y137176D01*
X515204Y137245D01*
X515203Y137245D02*
X515203Y139700D01*
X515204Y139700D02*
X515202Y139769D01*
X515196Y139837D01*
X515187Y139906D01*
X515173Y139973D01*
X515156Y140040D01*
X515135Y140106D01*
X515111Y140170D01*
X515082Y140233D01*
X515051Y140294D01*
X515016Y140353D01*
X514978Y140411D01*
X514936Y140466D01*
X514892Y140518D01*
X514844Y140568D01*
X514794Y140616D01*
X514742Y140660D01*
X514687Y140702D01*
X514629Y140740D01*
X514570Y140775D01*
X514509Y140806D01*
X514446Y140835D01*
X514382Y140859D01*
X514316Y140880D01*
X514249Y140897D01*
X514182Y140911D01*
X514113Y140920D01*
X514045Y140926D01*
X513976Y140928D01*
X511930Y140928D01*
X550358Y137654D02*
X550360Y137576D01*
X550365Y137498D01*
X550375Y137421D01*
X550388Y137344D01*
X550404Y137268D01*
X550424Y137193D01*
X550448Y137119D01*
X550475Y137046D01*
X550506Y136974D01*
X550540Y136904D01*
X550577Y136835D01*
X550618Y136769D01*
X550662Y136704D01*
X550708Y136642D01*
X550758Y136582D01*
X550810Y136524D01*
X550865Y136469D01*
X550923Y136417D01*
X550983Y136367D01*
X551045Y136321D01*
X551110Y136277D01*
X551177Y136236D01*
X551245Y136199D01*
X551315Y136165D01*
X551387Y136134D01*
X551460Y136107D01*
X551534Y136083D01*
X551609Y136063D01*
X551685Y136047D01*
X551762Y136034D01*
X551839Y136024D01*
X551917Y136019D01*
X551995Y136017D01*
X552109Y136019D01*
X552222Y136024D01*
X552336Y136034D01*
X552449Y136047D01*
X552561Y136064D01*
X552673Y136084D01*
X552784Y136108D01*
X552895Y136136D01*
X553004Y136167D01*
X553112Y136202D01*
X553219Y136241D01*
X553325Y136283D01*
X553429Y136328D01*
X553532Y136377D01*
X553633Y136430D01*
X553732Y136485D01*
X553830Y136544D01*
X553925Y136606D01*
X554018Y136671D01*
X554110Y136739D01*
X554198Y136810D01*
X554285Y136884D01*
X554369Y136961D01*
X554450Y137040D01*
X554246Y141746D02*
X554244Y141824D01*
X554239Y141902D01*
X554229Y141979D01*
X554216Y142056D01*
X554200Y142132D01*
X554180Y142207D01*
X554156Y142281D01*
X554129Y142354D01*
X554098Y142426D01*
X554064Y142496D01*
X554027Y142565D01*
X553986Y142631D01*
X553942Y142696D01*
X553896Y142758D01*
X553846Y142818D01*
X553794Y142876D01*
X553739Y142931D01*
X553681Y142983D01*
X553621Y143033D01*
X553559Y143079D01*
X553494Y143123D01*
X553428Y143164D01*
X553359Y143201D01*
X553289Y143235D01*
X553217Y143266D01*
X553144Y143293D01*
X553070Y143317D01*
X552995Y143337D01*
X552919Y143353D01*
X552842Y143366D01*
X552765Y143376D01*
X552687Y143381D01*
X552609Y143383D01*
X552499Y143381D01*
X552390Y143375D01*
X552280Y143365D01*
X552172Y143352D01*
X552063Y143334D01*
X551956Y143313D01*
X551849Y143287D01*
X551743Y143258D01*
X551638Y143226D01*
X551535Y143189D01*
X551433Y143149D01*
X551332Y143105D01*
X551233Y143057D01*
X551136Y143007D01*
X551041Y142952D01*
X550948Y142894D01*
X550857Y142833D01*
X550768Y142769D01*
X553427Y140313D02*
X553494Y140355D01*
X553559Y140399D01*
X553621Y140447D01*
X553681Y140497D01*
X553739Y140550D01*
X553794Y140606D01*
X553846Y140665D01*
X553896Y140725D01*
X553943Y140789D01*
X553986Y140854D01*
X554027Y140921D01*
X554064Y140990D01*
X554098Y141061D01*
X554129Y141133D01*
X554156Y141207D01*
X554180Y141281D01*
X554200Y141357D01*
X554216Y141434D01*
X554229Y141511D01*
X554239Y141589D01*
X554244Y141668D01*
X554246Y141746D01*
X551177Y139086D02*
X551111Y139045D01*
X551046Y139000D01*
X550984Y138953D01*
X550924Y138902D01*
X550866Y138849D01*
X550811Y138793D01*
X550758Y138735D01*
X550709Y138674D01*
X550662Y138611D01*
X550619Y138546D01*
X550578Y138479D01*
X550541Y138410D01*
X550507Y138339D01*
X550476Y138267D01*
X550449Y138193D01*
X550425Y138118D01*
X550405Y138043D01*
X550389Y137966D01*
X550376Y137889D01*
X550366Y137811D01*
X550361Y137732D01*
X550359Y137654D01*
X551177Y139086D02*
X553427Y140314D01*
X545765Y136017D02*
X544128Y136017D01*
X545765Y136017D02*
X545843Y136019D01*
X545921Y136024D01*
X545998Y136034D01*
X546075Y136047D01*
X546151Y136063D01*
X546226Y136083D01*
X546300Y136107D01*
X546373Y136134D01*
X546445Y136165D01*
X546515Y136199D01*
X546584Y136236D01*
X546650Y136277D01*
X546715Y136321D01*
X546777Y136367D01*
X546837Y136417D01*
X546895Y136469D01*
X546950Y136524D01*
X547002Y136582D01*
X547052Y136642D01*
X547098Y136704D01*
X547142Y136769D01*
X547183Y136836D01*
X547220Y136904D01*
X547254Y136974D01*
X547285Y137046D01*
X547312Y137119D01*
X547336Y137193D01*
X547356Y137268D01*
X547372Y137344D01*
X547385Y137421D01*
X547395Y137498D01*
X547400Y137576D01*
X547402Y137654D01*
X547402Y141746D01*
X547400Y141824D01*
X547395Y141902D01*
X547385Y141979D01*
X547372Y142056D01*
X547356Y142132D01*
X547336Y142207D01*
X547312Y142281D01*
X547285Y142354D01*
X547254Y142426D01*
X547220Y142496D01*
X547183Y142565D01*
X547142Y142631D01*
X547098Y142696D01*
X547052Y142758D01*
X547002Y142818D01*
X546950Y142876D01*
X546895Y142931D01*
X546837Y142983D01*
X546777Y143033D01*
X546715Y143079D01*
X546650Y143123D01*
X546584Y143164D01*
X546515Y143201D01*
X546445Y143235D01*
X546373Y143266D01*
X546300Y143293D01*
X546226Y143317D01*
X546151Y143337D01*
X546075Y143353D01*
X545998Y143366D01*
X545921Y143376D01*
X545843Y143381D01*
X545765Y143383D01*
X544128Y143383D01*
X541023Y143383D02*
X541023Y136017D01*
X537750Y136017D01*
X577095Y137654D02*
X577097Y137576D01*
X577102Y137498D01*
X577112Y137421D01*
X577125Y137344D01*
X577141Y137268D01*
X577161Y137193D01*
X577185Y137119D01*
X577212Y137046D01*
X577243Y136974D01*
X577277Y136904D01*
X577314Y136835D01*
X577355Y136769D01*
X577399Y136704D01*
X577445Y136642D01*
X577495Y136582D01*
X577547Y136524D01*
X577602Y136469D01*
X577660Y136417D01*
X577720Y136367D01*
X577782Y136321D01*
X577847Y136277D01*
X577914Y136236D01*
X577982Y136199D01*
X578052Y136165D01*
X578124Y136134D01*
X578197Y136107D01*
X578271Y136083D01*
X578346Y136063D01*
X578422Y136047D01*
X578499Y136034D01*
X578576Y136024D01*
X578654Y136019D01*
X578732Y136017D01*
X578846Y136019D01*
X578959Y136024D01*
X579073Y136034D01*
X579186Y136047D01*
X579298Y136064D01*
X579410Y136084D01*
X579521Y136108D01*
X579632Y136136D01*
X579741Y136167D01*
X579849Y136202D01*
X579956Y136241D01*
X580062Y136283D01*
X580166Y136328D01*
X580269Y136377D01*
X580370Y136430D01*
X580469Y136485D01*
X580567Y136544D01*
X580662Y136606D01*
X580755Y136671D01*
X580847Y136739D01*
X580935Y136810D01*
X581022Y136884D01*
X581106Y136961D01*
X581187Y137040D01*
X580983Y141746D02*
X580981Y141824D01*
X580976Y141902D01*
X580966Y141979D01*
X580953Y142056D01*
X580937Y142132D01*
X580917Y142207D01*
X580893Y142281D01*
X580866Y142354D01*
X580835Y142426D01*
X580801Y142496D01*
X580764Y142565D01*
X580723Y142631D01*
X580679Y142696D01*
X580633Y142758D01*
X580583Y142818D01*
X580531Y142876D01*
X580476Y142931D01*
X580418Y142983D01*
X580358Y143033D01*
X580296Y143079D01*
X580231Y143123D01*
X580165Y143164D01*
X580096Y143201D01*
X580026Y143235D01*
X579954Y143266D01*
X579881Y143293D01*
X579807Y143317D01*
X579732Y143337D01*
X579656Y143353D01*
X579579Y143366D01*
X579502Y143376D01*
X579424Y143381D01*
X579346Y143383D01*
X579236Y143381D01*
X579127Y143375D01*
X579017Y143365D01*
X578909Y143352D01*
X578800Y143334D01*
X578693Y143313D01*
X578586Y143287D01*
X578480Y143258D01*
X578375Y143226D01*
X578272Y143189D01*
X578170Y143149D01*
X578069Y143105D01*
X577970Y143057D01*
X577873Y143007D01*
X577778Y142952D01*
X577685Y142894D01*
X577594Y142833D01*
X577505Y142769D01*
X580165Y140313D02*
X580232Y140355D01*
X580297Y140399D01*
X580359Y140447D01*
X580419Y140497D01*
X580477Y140550D01*
X580532Y140606D01*
X580584Y140665D01*
X580634Y140725D01*
X580681Y140789D01*
X580724Y140854D01*
X580765Y140921D01*
X580802Y140990D01*
X580836Y141061D01*
X580867Y141133D01*
X580894Y141207D01*
X580918Y141281D01*
X580938Y141357D01*
X580954Y141434D01*
X580967Y141511D01*
X580977Y141589D01*
X580982Y141668D01*
X580984Y141746D01*
X577914Y139086D02*
X577848Y139045D01*
X577783Y139000D01*
X577721Y138953D01*
X577661Y138902D01*
X577603Y138849D01*
X577548Y138793D01*
X577495Y138735D01*
X577446Y138674D01*
X577399Y138611D01*
X577356Y138546D01*
X577315Y138479D01*
X577278Y138410D01*
X577244Y138339D01*
X577213Y138267D01*
X577186Y138193D01*
X577162Y138118D01*
X577142Y138043D01*
X577126Y137966D01*
X577113Y137889D01*
X577103Y137811D01*
X577098Y137732D01*
X577096Y137654D01*
X577914Y139086D02*
X580165Y140314D01*
X573873Y143383D02*
X573873Y136017D01*
X573873Y143383D02*
X571827Y143383D01*
X571738Y143381D01*
X571649Y143375D01*
X571560Y143365D01*
X571472Y143352D01*
X571384Y143335D01*
X571297Y143313D01*
X571212Y143288D01*
X571127Y143260D01*
X571044Y143227D01*
X570962Y143191D01*
X570882Y143152D01*
X570804Y143109D01*
X570728Y143063D01*
X570653Y143013D01*
X570581Y142960D01*
X570512Y142904D01*
X570445Y142845D01*
X570380Y142784D01*
X570319Y142719D01*
X570260Y142652D01*
X570204Y142583D01*
X570151Y142511D01*
X570101Y142436D01*
X570055Y142360D01*
X570012Y142282D01*
X569973Y142202D01*
X569937Y142120D01*
X569904Y142037D01*
X569876Y141952D01*
X569851Y141867D01*
X569829Y141780D01*
X569812Y141692D01*
X569799Y141604D01*
X569789Y141515D01*
X569783Y141426D01*
X569781Y141337D01*
X569780Y141337D02*
X569780Y138063D01*
X569781Y138063D02*
X569783Y137974D01*
X569789Y137885D01*
X569799Y137796D01*
X569812Y137708D01*
X569829Y137620D01*
X569851Y137533D01*
X569876Y137448D01*
X569904Y137363D01*
X569937Y137280D01*
X569973Y137198D01*
X570012Y137118D01*
X570055Y137040D01*
X570101Y136964D01*
X570151Y136889D01*
X570204Y136817D01*
X570260Y136748D01*
X570319Y136681D01*
X570380Y136616D01*
X570445Y136555D01*
X570512Y136496D01*
X570581Y136440D01*
X570653Y136387D01*
X570728Y136337D01*
X570804Y136291D01*
X570882Y136248D01*
X570962Y136209D01*
X571044Y136173D01*
X571127Y136140D01*
X571212Y136112D01*
X571297Y136087D01*
X571384Y136065D01*
X571472Y136048D01*
X571560Y136035D01*
X571649Y136025D01*
X571738Y136019D01*
X571827Y136017D01*
X573873Y136017D01*
X566723Y136017D02*
X564268Y143383D01*
X561812Y136017D01*
X562426Y137859D02*
X566109Y137859D01*
X503364Y29083D02*
X500909Y21717D01*
X498453Y29083D01*
X494481Y21717D02*
X492844Y21717D01*
X494481Y21717D02*
X494550Y21719D01*
X494618Y21725D01*
X494687Y21734D01*
X494754Y21748D01*
X494821Y21765D01*
X494887Y21786D01*
X494951Y21810D01*
X495014Y21839D01*
X495075Y21870D01*
X495134Y21905D01*
X495192Y21943D01*
X495247Y21985D01*
X495299Y22029D01*
X495349Y22077D01*
X495397Y22127D01*
X495441Y22179D01*
X495483Y22234D01*
X495521Y22292D01*
X495556Y22351D01*
X495587Y22412D01*
X495616Y22475D01*
X495640Y22539D01*
X495661Y22605D01*
X495678Y22672D01*
X495692Y22739D01*
X495701Y22808D01*
X495707Y22876D01*
X495709Y22945D01*
X495709Y25400D01*
X495707Y25469D01*
X495701Y25537D01*
X495692Y25606D01*
X495678Y25673D01*
X495661Y25740D01*
X495640Y25806D01*
X495616Y25870D01*
X495587Y25933D01*
X495556Y25994D01*
X495521Y26053D01*
X495483Y26111D01*
X495441Y26166D01*
X495397Y26218D01*
X495349Y26268D01*
X495299Y26316D01*
X495247Y26360D01*
X495192Y26402D01*
X495134Y26440D01*
X495075Y26475D01*
X495014Y26506D01*
X494951Y26535D01*
X494887Y26559D01*
X494821Y26580D01*
X494754Y26597D01*
X494687Y26611D01*
X494618Y26620D01*
X494550Y26626D01*
X494481Y26628D01*
X492844Y26628D01*
X488873Y21717D02*
X487236Y21717D01*
X488873Y21717D02*
X488942Y21719D01*
X489010Y21725D01*
X489079Y21734D01*
X489146Y21748D01*
X489213Y21765D01*
X489279Y21786D01*
X489343Y21810D01*
X489406Y21839D01*
X489467Y21870D01*
X489526Y21905D01*
X489584Y21943D01*
X489639Y21985D01*
X489691Y22029D01*
X489741Y22077D01*
X489789Y22127D01*
X489833Y22179D01*
X489875Y22234D01*
X489913Y22292D01*
X489948Y22351D01*
X489979Y22412D01*
X490008Y22475D01*
X490032Y22539D01*
X490053Y22605D01*
X490070Y22672D01*
X490084Y22739D01*
X490093Y22808D01*
X490099Y22876D01*
X490101Y22945D01*
X490101Y25400D01*
X490099Y25469D01*
X490093Y25537D01*
X490084Y25606D01*
X490070Y25673D01*
X490053Y25740D01*
X490032Y25806D01*
X490008Y25870D01*
X489979Y25933D01*
X489948Y25994D01*
X489913Y26053D01*
X489875Y26111D01*
X489833Y26166D01*
X489789Y26218D01*
X489741Y26268D01*
X489691Y26316D01*
X489639Y26360D01*
X489584Y26402D01*
X489526Y26440D01*
X489467Y26475D01*
X489406Y26506D01*
X489343Y26535D01*
X489279Y26559D01*
X489213Y26580D01*
X489146Y26597D01*
X489079Y26611D01*
X489010Y26620D01*
X488942Y26626D01*
X488873Y26628D01*
X487236Y26628D01*
X576178Y25809D02*
X577406Y25809D01*
X576178Y25809D02*
X576178Y21717D01*
X578634Y21717D01*
X578712Y21719D01*
X578790Y21724D01*
X578867Y21734D01*
X578944Y21747D01*
X579020Y21763D01*
X579095Y21783D01*
X579169Y21807D01*
X579242Y21834D01*
X579314Y21865D01*
X579384Y21899D01*
X579453Y21936D01*
X579519Y21977D01*
X579584Y22021D01*
X579646Y22067D01*
X579706Y22117D01*
X579764Y22169D01*
X579819Y22224D01*
X579871Y22282D01*
X579921Y22342D01*
X579967Y22404D01*
X580011Y22469D01*
X580052Y22536D01*
X580089Y22604D01*
X580123Y22674D01*
X580154Y22746D01*
X580181Y22819D01*
X580205Y22893D01*
X580225Y22968D01*
X580241Y23044D01*
X580254Y23121D01*
X580264Y23198D01*
X580269Y23276D01*
X580271Y23354D01*
X580270Y23354D02*
X580270Y27446D01*
X580271Y27446D02*
X580269Y27524D01*
X580264Y27602D01*
X580254Y27679D01*
X580241Y27756D01*
X580225Y27832D01*
X580205Y27907D01*
X580181Y27981D01*
X580154Y28054D01*
X580123Y28126D01*
X580089Y28196D01*
X580052Y28265D01*
X580011Y28331D01*
X579967Y28396D01*
X579921Y28458D01*
X579871Y28518D01*
X579819Y28576D01*
X579764Y28631D01*
X579706Y28683D01*
X579646Y28733D01*
X579584Y28779D01*
X579519Y28823D01*
X579453Y28864D01*
X579384Y28901D01*
X579314Y28935D01*
X579242Y28966D01*
X579169Y28993D01*
X579095Y29017D01*
X579020Y29037D01*
X578944Y29053D01*
X578867Y29066D01*
X578790Y29076D01*
X578712Y29081D01*
X578634Y29083D01*
X576178Y29083D01*
X572546Y26628D02*
X572546Y21717D01*
X572546Y26628D02*
X570500Y26628D01*
X570431Y26626D01*
X570363Y26620D01*
X570294Y26611D01*
X570227Y26597D01*
X570160Y26580D01*
X570094Y26559D01*
X570030Y26535D01*
X569967Y26506D01*
X569906Y26475D01*
X569847Y26440D01*
X569789Y26402D01*
X569734Y26360D01*
X569682Y26316D01*
X569632Y26268D01*
X569584Y26218D01*
X569540Y26166D01*
X569499Y26111D01*
X569460Y26053D01*
X569425Y25994D01*
X569394Y25933D01*
X569365Y25870D01*
X569341Y25806D01*
X569320Y25740D01*
X569303Y25673D01*
X569289Y25606D01*
X569280Y25538D01*
X569274Y25469D01*
X569272Y25400D01*
X569272Y21717D01*
X562730Y21717D02*
X562730Y29083D01*
X562730Y21717D02*
X564776Y21717D01*
X564845Y21719D01*
X564913Y21725D01*
X564982Y21734D01*
X565049Y21748D01*
X565116Y21765D01*
X565182Y21786D01*
X565246Y21810D01*
X565309Y21839D01*
X565370Y21870D01*
X565429Y21905D01*
X565487Y21943D01*
X565542Y21985D01*
X565594Y22029D01*
X565644Y22077D01*
X565692Y22127D01*
X565736Y22179D01*
X565778Y22234D01*
X565816Y22292D01*
X565851Y22351D01*
X565882Y22412D01*
X565911Y22475D01*
X565935Y22539D01*
X565956Y22605D01*
X565973Y22672D01*
X565987Y22739D01*
X565996Y22808D01*
X566002Y22876D01*
X566004Y22945D01*
X566003Y22945D02*
X566003Y25400D01*
X566004Y25400D02*
X566002Y25469D01*
X565996Y25537D01*
X565987Y25606D01*
X565973Y25673D01*
X565956Y25740D01*
X565935Y25806D01*
X565911Y25870D01*
X565882Y25933D01*
X565851Y25994D01*
X565816Y26053D01*
X565778Y26111D01*
X565736Y26166D01*
X565692Y26218D01*
X565644Y26268D01*
X565594Y26316D01*
X565542Y26360D01*
X565487Y26402D01*
X565429Y26440D01*
X565370Y26475D01*
X565309Y26506D01*
X565246Y26535D01*
X565182Y26559D01*
X565116Y26580D01*
X565049Y26597D01*
X564982Y26611D01*
X564913Y26620D01*
X564845Y26626D01*
X564776Y26628D01*
X562730Y26628D01*
X529227Y26628D02*
X529227Y19262D01*
X529227Y26628D02*
X527181Y26628D01*
X527112Y26626D01*
X527044Y26620D01*
X526975Y26611D01*
X526908Y26597D01*
X526841Y26580D01*
X526775Y26559D01*
X526711Y26535D01*
X526648Y26506D01*
X526587Y26475D01*
X526528Y26440D01*
X526470Y26402D01*
X526415Y26360D01*
X526363Y26316D01*
X526313Y26268D01*
X526265Y26218D01*
X526221Y26166D01*
X526180Y26111D01*
X526141Y26053D01*
X526106Y25994D01*
X526075Y25933D01*
X526046Y25870D01*
X526022Y25806D01*
X526001Y25740D01*
X525984Y25673D01*
X525970Y25606D01*
X525961Y25538D01*
X525955Y25469D01*
X525953Y25400D01*
X525953Y22945D01*
X525955Y22876D01*
X525961Y22808D01*
X525970Y22739D01*
X525984Y22672D01*
X526001Y22605D01*
X526022Y22539D01*
X526046Y22475D01*
X526075Y22412D01*
X526106Y22351D01*
X526141Y22292D01*
X526179Y22234D01*
X526221Y22179D01*
X526265Y22127D01*
X526313Y22077D01*
X526363Y22029D01*
X526415Y21985D01*
X526470Y21943D01*
X526528Y21905D01*
X526587Y21870D01*
X526648Y21839D01*
X526711Y21810D01*
X526775Y21786D01*
X526841Y21765D01*
X526908Y21748D01*
X526975Y21734D01*
X527044Y21725D01*
X527112Y21719D01*
X527181Y21717D01*
X529227Y21717D01*
X522643Y21717D02*
X522643Y29083D01*
X522643Y21717D02*
X520597Y21717D01*
X520528Y21719D01*
X520460Y21725D01*
X520391Y21734D01*
X520324Y21748D01*
X520257Y21765D01*
X520191Y21786D01*
X520127Y21810D01*
X520064Y21839D01*
X520003Y21870D01*
X519944Y21905D01*
X519886Y21943D01*
X519831Y21985D01*
X519779Y22029D01*
X519729Y22077D01*
X519681Y22127D01*
X519637Y22179D01*
X519595Y22234D01*
X519557Y22292D01*
X519522Y22351D01*
X519491Y22412D01*
X519462Y22475D01*
X519438Y22539D01*
X519417Y22605D01*
X519400Y22672D01*
X519386Y22739D01*
X519377Y22808D01*
X519371Y22876D01*
X519369Y22945D01*
X519369Y25400D01*
X519371Y25469D01*
X519377Y25537D01*
X519386Y25606D01*
X519400Y25673D01*
X519417Y25740D01*
X519438Y25806D01*
X519462Y25870D01*
X519491Y25933D01*
X519522Y25994D01*
X519557Y26053D01*
X519595Y26111D01*
X519637Y26166D01*
X519681Y26218D01*
X519729Y26268D01*
X519779Y26316D01*
X519831Y26360D01*
X519886Y26402D01*
X519944Y26440D01*
X520003Y26475D01*
X520064Y26506D01*
X520127Y26535D01*
X520191Y26559D01*
X520257Y26580D01*
X520324Y26597D01*
X520391Y26611D01*
X520460Y26620D01*
X520528Y26626D01*
X520597Y26628D01*
X522643Y26628D01*
X516266Y23354D02*
X514629Y29083D01*
X516266Y23354D02*
X512173Y23354D01*
X513401Y24991D02*
X513401Y21717D01*
X554627Y19262D02*
X554627Y26628D01*
X552581Y26628D01*
X552512Y26626D01*
X552444Y26620D01*
X552375Y26611D01*
X552308Y26597D01*
X552241Y26580D01*
X552175Y26559D01*
X552111Y26535D01*
X552048Y26506D01*
X551987Y26475D01*
X551928Y26440D01*
X551870Y26402D01*
X551815Y26360D01*
X551763Y26316D01*
X551713Y26268D01*
X551665Y26218D01*
X551621Y26166D01*
X551580Y26111D01*
X551541Y26053D01*
X551506Y25994D01*
X551475Y25933D01*
X551446Y25870D01*
X551422Y25806D01*
X551401Y25740D01*
X551384Y25673D01*
X551370Y25606D01*
X551361Y25538D01*
X551355Y25469D01*
X551353Y25400D01*
X551353Y22945D01*
X551355Y22876D01*
X551361Y22808D01*
X551370Y22739D01*
X551384Y22672D01*
X551401Y22605D01*
X551422Y22539D01*
X551446Y22475D01*
X551475Y22412D01*
X551506Y22351D01*
X551541Y22292D01*
X551579Y22234D01*
X551621Y22179D01*
X551665Y22127D01*
X551713Y22077D01*
X551763Y22029D01*
X551815Y21985D01*
X551870Y21943D01*
X551928Y21905D01*
X551987Y21870D01*
X552048Y21839D01*
X552111Y21810D01*
X552175Y21786D01*
X552241Y21765D01*
X552308Y21748D01*
X552375Y21734D01*
X552444Y21725D01*
X552512Y21719D01*
X552581Y21717D01*
X554627Y21717D01*
X548043Y21717D02*
X548043Y29083D01*
X548043Y21717D02*
X545997Y21717D01*
X545928Y21719D01*
X545860Y21725D01*
X545791Y21734D01*
X545724Y21748D01*
X545657Y21765D01*
X545591Y21786D01*
X545527Y21810D01*
X545464Y21839D01*
X545403Y21870D01*
X545344Y21905D01*
X545286Y21943D01*
X545231Y21985D01*
X545179Y22029D01*
X545129Y22077D01*
X545081Y22127D01*
X545037Y22179D01*
X544995Y22234D01*
X544957Y22292D01*
X544922Y22351D01*
X544891Y22412D01*
X544862Y22475D01*
X544838Y22539D01*
X544817Y22605D01*
X544800Y22672D01*
X544786Y22739D01*
X544777Y22808D01*
X544771Y22876D01*
X544769Y22945D01*
X544769Y25400D01*
X544771Y25469D01*
X544777Y25537D01*
X544786Y25606D01*
X544800Y25673D01*
X544817Y25740D01*
X544838Y25806D01*
X544862Y25870D01*
X544891Y25933D01*
X544922Y25994D01*
X544957Y26053D01*
X544995Y26111D01*
X545037Y26166D01*
X545081Y26218D01*
X545129Y26268D01*
X545179Y26316D01*
X545231Y26360D01*
X545286Y26402D01*
X545344Y26440D01*
X545403Y26475D01*
X545464Y26506D01*
X545527Y26535D01*
X545591Y26559D01*
X545657Y26580D01*
X545724Y26597D01*
X545791Y26611D01*
X545860Y26620D01*
X545928Y26626D01*
X545997Y26628D01*
X548043Y26628D01*
X541666Y21717D02*
X539620Y21717D01*
X539531Y21719D01*
X539442Y21725D01*
X539353Y21735D01*
X539265Y21748D01*
X539177Y21765D01*
X539090Y21787D01*
X539005Y21812D01*
X538920Y21840D01*
X538837Y21873D01*
X538755Y21909D01*
X538675Y21948D01*
X538597Y21991D01*
X538521Y22037D01*
X538446Y22087D01*
X538374Y22140D01*
X538305Y22196D01*
X538238Y22255D01*
X538173Y22316D01*
X538112Y22381D01*
X538053Y22448D01*
X537997Y22517D01*
X537944Y22589D01*
X537894Y22664D01*
X537848Y22740D01*
X537805Y22818D01*
X537766Y22898D01*
X537730Y22980D01*
X537697Y23063D01*
X537669Y23148D01*
X537644Y23233D01*
X537622Y23320D01*
X537605Y23408D01*
X537592Y23496D01*
X537582Y23585D01*
X537576Y23674D01*
X537574Y23763D01*
X537576Y23852D01*
X537582Y23941D01*
X537592Y24030D01*
X537605Y24118D01*
X537622Y24206D01*
X537644Y24293D01*
X537669Y24378D01*
X537697Y24463D01*
X537730Y24546D01*
X537766Y24628D01*
X537805Y24708D01*
X537848Y24786D01*
X537894Y24862D01*
X537944Y24937D01*
X537997Y25009D01*
X538053Y25078D01*
X538112Y25145D01*
X538173Y25210D01*
X538238Y25271D01*
X538305Y25330D01*
X538374Y25386D01*
X538446Y25439D01*
X538521Y25489D01*
X538597Y25535D01*
X538675Y25578D01*
X538755Y25617D01*
X538837Y25653D01*
X538920Y25686D01*
X539005Y25714D01*
X539090Y25739D01*
X539177Y25761D01*
X539265Y25778D01*
X539353Y25791D01*
X539442Y25801D01*
X539531Y25807D01*
X539620Y25809D01*
X539210Y29083D02*
X541666Y29083D01*
X539210Y29083D02*
X539131Y29081D01*
X539052Y29075D01*
X538973Y29066D01*
X538895Y29053D01*
X538818Y29035D01*
X538742Y29015D01*
X538667Y28990D01*
X538593Y28962D01*
X538520Y28931D01*
X538449Y28895D01*
X538380Y28857D01*
X538313Y28815D01*
X538248Y28770D01*
X538185Y28722D01*
X538124Y28671D01*
X538067Y28617D01*
X538011Y28561D01*
X537959Y28502D01*
X537909Y28440D01*
X537863Y28376D01*
X537819Y28310D01*
X537779Y28242D01*
X537743Y28172D01*
X537709Y28100D01*
X537679Y28026D01*
X537653Y27952D01*
X537630Y27876D01*
X537612Y27799D01*
X537596Y27722D01*
X537585Y27643D01*
X537577Y27565D01*
X537573Y27486D01*
X537573Y27406D01*
X537577Y27327D01*
X537585Y27249D01*
X537596Y27170D01*
X537612Y27093D01*
X537630Y27016D01*
X537653Y26940D01*
X537679Y26866D01*
X537709Y26792D01*
X537743Y26720D01*
X537779Y26650D01*
X537819Y26582D01*
X537863Y26516D01*
X537909Y26452D01*
X537959Y26390D01*
X538011Y26331D01*
X538067Y26275D01*
X538124Y26221D01*
X538185Y26170D01*
X538248Y26122D01*
X538313Y26077D01*
X538380Y26035D01*
X538449Y25997D01*
X538520Y25961D01*
X538593Y25930D01*
X538667Y25902D01*
X538742Y25877D01*
X538818Y25857D01*
X538895Y25839D01*
X538973Y25826D01*
X539052Y25817D01*
X539131Y25811D01*
X539210Y25809D01*
X540847Y25809D01*
X227011Y123317D02*
X226933Y123319D01*
X226855Y123324D01*
X226778Y123334D01*
X226701Y123347D01*
X226625Y123363D01*
X226550Y123383D01*
X226476Y123407D01*
X226403Y123434D01*
X226331Y123465D01*
X226261Y123499D01*
X226193Y123536D01*
X226126Y123577D01*
X226061Y123621D01*
X225999Y123667D01*
X225939Y123717D01*
X225881Y123769D01*
X225826Y123824D01*
X225774Y123882D01*
X225724Y123942D01*
X225678Y124004D01*
X225634Y124069D01*
X225593Y124135D01*
X225556Y124204D01*
X225522Y124274D01*
X225491Y124346D01*
X225464Y124419D01*
X225440Y124493D01*
X225420Y124568D01*
X225404Y124644D01*
X225391Y124721D01*
X225381Y124798D01*
X225376Y124876D01*
X225374Y124954D01*
X227011Y123317D02*
X227125Y123319D01*
X227238Y123324D01*
X227352Y123334D01*
X227465Y123347D01*
X227577Y123364D01*
X227689Y123384D01*
X227800Y123408D01*
X227911Y123436D01*
X228020Y123467D01*
X228128Y123502D01*
X228235Y123541D01*
X228341Y123583D01*
X228445Y123628D01*
X228548Y123677D01*
X228649Y123730D01*
X228748Y123785D01*
X228846Y123844D01*
X228941Y123906D01*
X229034Y123971D01*
X229126Y124039D01*
X229214Y124110D01*
X229301Y124184D01*
X229385Y124261D01*
X229466Y124340D01*
X229262Y129046D02*
X229260Y129124D01*
X229255Y129202D01*
X229245Y129279D01*
X229232Y129356D01*
X229216Y129432D01*
X229196Y129507D01*
X229172Y129581D01*
X229145Y129654D01*
X229114Y129726D01*
X229080Y129796D01*
X229043Y129865D01*
X229002Y129931D01*
X228958Y129996D01*
X228912Y130058D01*
X228862Y130118D01*
X228810Y130176D01*
X228755Y130231D01*
X228697Y130283D01*
X228637Y130333D01*
X228575Y130379D01*
X228510Y130423D01*
X228444Y130464D01*
X228375Y130501D01*
X228305Y130535D01*
X228233Y130566D01*
X228160Y130593D01*
X228086Y130617D01*
X228011Y130637D01*
X227935Y130653D01*
X227858Y130666D01*
X227781Y130676D01*
X227703Y130681D01*
X227625Y130683D01*
X227515Y130681D01*
X227406Y130675D01*
X227296Y130665D01*
X227188Y130652D01*
X227079Y130634D01*
X226972Y130613D01*
X226865Y130587D01*
X226759Y130558D01*
X226654Y130526D01*
X226551Y130489D01*
X226449Y130449D01*
X226348Y130405D01*
X226249Y130357D01*
X226152Y130307D01*
X226057Y130252D01*
X225964Y130194D01*
X225873Y130133D01*
X225784Y130069D01*
X228443Y127613D02*
X228510Y127655D01*
X228575Y127699D01*
X228637Y127747D01*
X228697Y127797D01*
X228755Y127850D01*
X228810Y127906D01*
X228862Y127965D01*
X228912Y128025D01*
X228959Y128089D01*
X229002Y128154D01*
X229043Y128221D01*
X229080Y128290D01*
X229114Y128361D01*
X229145Y128433D01*
X229172Y128507D01*
X229196Y128581D01*
X229216Y128657D01*
X229232Y128734D01*
X229245Y128811D01*
X229255Y128889D01*
X229260Y128968D01*
X229262Y129046D01*
X226192Y126386D02*
X226126Y126345D01*
X226061Y126300D01*
X225999Y126253D01*
X225939Y126202D01*
X225881Y126149D01*
X225826Y126093D01*
X225773Y126035D01*
X225724Y125974D01*
X225677Y125911D01*
X225634Y125846D01*
X225593Y125779D01*
X225556Y125710D01*
X225522Y125639D01*
X225491Y125567D01*
X225464Y125493D01*
X225440Y125418D01*
X225420Y125343D01*
X225404Y125266D01*
X225391Y125189D01*
X225381Y125111D01*
X225376Y125032D01*
X225374Y124954D01*
X226192Y126386D02*
X228443Y127614D01*
X222390Y130683D02*
X222390Y124545D01*
X222391Y124545D02*
X222389Y124476D01*
X222383Y124408D01*
X222374Y124339D01*
X222360Y124272D01*
X222343Y124205D01*
X222322Y124139D01*
X222298Y124075D01*
X222269Y124012D01*
X222238Y123951D01*
X222203Y123892D01*
X222165Y123834D01*
X222123Y123779D01*
X222079Y123727D01*
X222031Y123677D01*
X221981Y123629D01*
X221929Y123585D01*
X221874Y123544D01*
X221816Y123505D01*
X221757Y123470D01*
X221696Y123439D01*
X221633Y123410D01*
X221569Y123386D01*
X221503Y123365D01*
X221436Y123348D01*
X221369Y123334D01*
X221301Y123325D01*
X221232Y123319D01*
X221163Y123317D01*
X217344Y123317D02*
X215298Y123317D01*
X217344Y123317D02*
X217413Y123319D01*
X217481Y123325D01*
X217550Y123334D01*
X217617Y123348D01*
X217684Y123365D01*
X217750Y123386D01*
X217814Y123410D01*
X217877Y123439D01*
X217938Y123470D01*
X217997Y123505D01*
X218055Y123543D01*
X218110Y123585D01*
X218162Y123629D01*
X218212Y123677D01*
X218260Y123727D01*
X218304Y123779D01*
X218346Y123834D01*
X218384Y123892D01*
X218419Y123951D01*
X218450Y124012D01*
X218479Y124075D01*
X218503Y124139D01*
X218524Y124205D01*
X218541Y124272D01*
X218555Y124339D01*
X218564Y124408D01*
X218570Y124476D01*
X218572Y124545D01*
X218572Y126591D01*
X218570Y126670D01*
X218564Y126749D01*
X218555Y126828D01*
X218542Y126906D01*
X218524Y126983D01*
X218504Y127059D01*
X218479Y127134D01*
X218451Y127208D01*
X218420Y127281D01*
X218384Y127352D01*
X218346Y127421D01*
X218304Y127488D01*
X218259Y127553D01*
X218211Y127616D01*
X218160Y127677D01*
X218106Y127734D01*
X218050Y127790D01*
X217991Y127842D01*
X217929Y127892D01*
X217865Y127938D01*
X217799Y127982D01*
X217731Y128022D01*
X217661Y128058D01*
X217589Y128092D01*
X217515Y128122D01*
X217441Y128148D01*
X217365Y128171D01*
X217288Y128189D01*
X217211Y128205D01*
X217132Y128216D01*
X217054Y128224D01*
X216975Y128228D01*
X216895Y128228D01*
X216816Y128224D01*
X216738Y128216D01*
X216659Y128205D01*
X216582Y128189D01*
X216505Y128171D01*
X216429Y128148D01*
X216355Y128122D01*
X216281Y128092D01*
X216209Y128058D01*
X216139Y128022D01*
X216071Y127982D01*
X216005Y127938D01*
X215941Y127892D01*
X215879Y127842D01*
X215820Y127790D01*
X215764Y127734D01*
X215710Y127677D01*
X215659Y127616D01*
X215611Y127553D01*
X215566Y127488D01*
X215524Y127421D01*
X215486Y127352D01*
X215450Y127281D01*
X215419Y127208D01*
X215391Y127134D01*
X215366Y127059D01*
X215346Y126983D01*
X215328Y126906D01*
X215315Y126828D01*
X215306Y126749D01*
X215300Y126670D01*
X215298Y126591D01*
X215298Y125772D01*
X218572Y125772D01*
X211004Y123317D02*
X208958Y123317D01*
X211004Y123317D02*
X211073Y123319D01*
X211141Y123325D01*
X211210Y123334D01*
X211277Y123348D01*
X211344Y123365D01*
X211410Y123386D01*
X211474Y123410D01*
X211537Y123439D01*
X211598Y123470D01*
X211657Y123505D01*
X211715Y123543D01*
X211770Y123585D01*
X211822Y123629D01*
X211872Y123677D01*
X211920Y123727D01*
X211964Y123779D01*
X212006Y123834D01*
X212044Y123892D01*
X212079Y123951D01*
X212110Y124012D01*
X212139Y124075D01*
X212163Y124139D01*
X212184Y124205D01*
X212201Y124272D01*
X212215Y124339D01*
X212224Y124408D01*
X212230Y124476D01*
X212232Y124545D01*
X212232Y126591D01*
X212230Y126670D01*
X212224Y126749D01*
X212215Y126828D01*
X212202Y126906D01*
X212184Y126983D01*
X212164Y127059D01*
X212139Y127134D01*
X212111Y127208D01*
X212080Y127281D01*
X212044Y127352D01*
X212006Y127421D01*
X211964Y127488D01*
X211919Y127553D01*
X211871Y127616D01*
X211820Y127677D01*
X211766Y127734D01*
X211710Y127790D01*
X211651Y127842D01*
X211589Y127892D01*
X211525Y127938D01*
X211459Y127982D01*
X211391Y128022D01*
X211321Y128058D01*
X211249Y128092D01*
X211175Y128122D01*
X211101Y128148D01*
X211025Y128171D01*
X210948Y128189D01*
X210871Y128205D01*
X210792Y128216D01*
X210714Y128224D01*
X210635Y128228D01*
X210555Y128228D01*
X210476Y128224D01*
X210398Y128216D01*
X210319Y128205D01*
X210242Y128189D01*
X210165Y128171D01*
X210089Y128148D01*
X210015Y128122D01*
X209941Y128092D01*
X209869Y128058D01*
X209799Y128022D01*
X209731Y127982D01*
X209665Y127938D01*
X209601Y127892D01*
X209539Y127842D01*
X209480Y127790D01*
X209424Y127734D01*
X209370Y127677D01*
X209319Y127616D01*
X209271Y127553D01*
X209226Y127488D01*
X209184Y127421D01*
X209146Y127352D01*
X209110Y127281D01*
X209079Y127208D01*
X209051Y127134D01*
X209026Y127059D01*
X209006Y126983D01*
X208988Y126906D01*
X208975Y126828D01*
X208966Y126749D01*
X208960Y126670D01*
X208958Y126591D01*
X208958Y125772D01*
X212232Y125772D01*
X205608Y128228D02*
X205608Y120862D01*
X205608Y128228D02*
X203561Y128228D01*
X203492Y128226D01*
X203424Y128220D01*
X203355Y128211D01*
X203288Y128197D01*
X203221Y128180D01*
X203155Y128159D01*
X203091Y128135D01*
X203028Y128106D01*
X202967Y128075D01*
X202908Y128040D01*
X202850Y128002D01*
X202795Y127960D01*
X202743Y127916D01*
X202693Y127868D01*
X202645Y127818D01*
X202601Y127766D01*
X202560Y127711D01*
X202521Y127653D01*
X202486Y127594D01*
X202455Y127533D01*
X202426Y127470D01*
X202402Y127406D01*
X202381Y127340D01*
X202364Y127273D01*
X202350Y127206D01*
X202341Y127138D01*
X202335Y127069D01*
X202333Y127000D01*
X202334Y127000D02*
X202334Y124545D01*
X202333Y124545D02*
X202335Y124476D01*
X202341Y124408D01*
X202350Y124339D01*
X202364Y124272D01*
X202381Y124205D01*
X202402Y124139D01*
X202426Y124075D01*
X202455Y124012D01*
X202486Y123951D01*
X202521Y123892D01*
X202559Y123834D01*
X202601Y123779D01*
X202645Y123727D01*
X202693Y123677D01*
X202743Y123629D01*
X202795Y123585D01*
X202850Y123543D01*
X202908Y123505D01*
X202967Y123470D01*
X203028Y123439D01*
X203091Y123410D01*
X203155Y123386D01*
X203221Y123365D01*
X203288Y123348D01*
X203355Y123334D01*
X203424Y123325D01*
X203492Y123319D01*
X203561Y123317D01*
X205608Y123317D01*
X224665Y29083D02*
X224665Y21717D01*
X224665Y29083D02*
X222619Y29083D01*
X222530Y29081D01*
X222441Y29075D01*
X222352Y29065D01*
X222264Y29052D01*
X222176Y29035D01*
X222089Y29013D01*
X222004Y28988D01*
X221919Y28960D01*
X221836Y28927D01*
X221754Y28891D01*
X221674Y28852D01*
X221596Y28809D01*
X221520Y28763D01*
X221445Y28713D01*
X221373Y28660D01*
X221304Y28604D01*
X221237Y28545D01*
X221172Y28484D01*
X221111Y28419D01*
X221052Y28352D01*
X220996Y28283D01*
X220943Y28211D01*
X220893Y28136D01*
X220847Y28060D01*
X220804Y27982D01*
X220765Y27902D01*
X220729Y27820D01*
X220696Y27737D01*
X220668Y27652D01*
X220643Y27567D01*
X220621Y27480D01*
X220604Y27392D01*
X220591Y27304D01*
X220581Y27215D01*
X220575Y27126D01*
X220573Y27037D01*
X220575Y26948D01*
X220581Y26859D01*
X220591Y26770D01*
X220604Y26682D01*
X220621Y26594D01*
X220643Y26507D01*
X220668Y26422D01*
X220696Y26337D01*
X220729Y26254D01*
X220765Y26172D01*
X220804Y26092D01*
X220847Y26014D01*
X220893Y25938D01*
X220943Y25863D01*
X220996Y25791D01*
X221052Y25722D01*
X221111Y25655D01*
X221172Y25590D01*
X221237Y25529D01*
X221304Y25470D01*
X221373Y25414D01*
X221445Y25361D01*
X221520Y25311D01*
X221596Y25265D01*
X221674Y25222D01*
X221754Y25183D01*
X221836Y25147D01*
X221919Y25114D01*
X222004Y25086D01*
X222089Y25061D01*
X222176Y25039D01*
X222264Y25022D01*
X222352Y25009D01*
X222441Y24999D01*
X222530Y24993D01*
X222619Y24991D01*
X224665Y24991D01*
X222210Y24991D02*
X220573Y21717D01*
X217236Y22945D02*
X217236Y26628D01*
X217236Y22945D02*
X217234Y22876D01*
X217228Y22808D01*
X217219Y22739D01*
X217205Y22672D01*
X217188Y22605D01*
X217167Y22539D01*
X217143Y22475D01*
X217114Y22412D01*
X217083Y22351D01*
X217048Y22292D01*
X217010Y22234D01*
X216968Y22179D01*
X216924Y22127D01*
X216876Y22077D01*
X216826Y22029D01*
X216774Y21985D01*
X216719Y21944D01*
X216661Y21905D01*
X216602Y21870D01*
X216541Y21839D01*
X216478Y21810D01*
X216414Y21786D01*
X216348Y21765D01*
X216281Y21748D01*
X216214Y21734D01*
X216146Y21725D01*
X216077Y21719D01*
X216008Y21717D01*
X213962Y21717D01*
X213962Y26628D01*
X210408Y26628D02*
X210408Y21717D01*
X210408Y26628D02*
X208362Y26628D01*
X208293Y26626D01*
X208225Y26620D01*
X208156Y26611D01*
X208089Y26597D01*
X208022Y26580D01*
X207956Y26559D01*
X207892Y26535D01*
X207829Y26506D01*
X207768Y26475D01*
X207709Y26440D01*
X207651Y26402D01*
X207596Y26360D01*
X207544Y26316D01*
X207494Y26268D01*
X207446Y26218D01*
X207402Y26166D01*
X207361Y26111D01*
X207322Y26053D01*
X207287Y25994D01*
X207256Y25933D01*
X207227Y25870D01*
X207203Y25806D01*
X207182Y25740D01*
X207165Y25673D01*
X207151Y25606D01*
X207142Y25538D01*
X207136Y25469D01*
X207134Y25400D01*
X207135Y25400D02*
X207135Y21717D01*
X146205Y52023D02*
X146205Y54069D01*
X146203Y54158D01*
X146197Y54247D01*
X146187Y54336D01*
X146174Y54424D01*
X146157Y54512D01*
X146135Y54599D01*
X146110Y54684D01*
X146082Y54769D01*
X146049Y54852D01*
X146013Y54934D01*
X145974Y55014D01*
X145931Y55092D01*
X145885Y55168D01*
X145835Y55243D01*
X145782Y55315D01*
X145726Y55384D01*
X145667Y55451D01*
X145606Y55516D01*
X145541Y55577D01*
X145474Y55636D01*
X145405Y55692D01*
X145333Y55745D01*
X145258Y55795D01*
X145182Y55841D01*
X145104Y55884D01*
X145024Y55923D01*
X144942Y55959D01*
X144859Y55992D01*
X144774Y56020D01*
X144689Y56045D01*
X144602Y56067D01*
X144514Y56084D01*
X144426Y56097D01*
X144337Y56107D01*
X144248Y56113D01*
X144159Y56115D01*
X144070Y56113D01*
X143981Y56107D01*
X143892Y56097D01*
X143804Y56084D01*
X143716Y56067D01*
X143629Y56045D01*
X143544Y56020D01*
X143459Y55992D01*
X143376Y55959D01*
X143294Y55923D01*
X143214Y55884D01*
X143136Y55841D01*
X143060Y55795D01*
X142985Y55745D01*
X142913Y55692D01*
X142844Y55636D01*
X142777Y55577D01*
X142712Y55516D01*
X142651Y55451D01*
X142592Y55384D01*
X142536Y55315D01*
X142483Y55243D01*
X142433Y55168D01*
X142387Y55092D01*
X142344Y55014D01*
X142305Y54934D01*
X142269Y54852D01*
X142236Y54769D01*
X142208Y54684D01*
X142183Y54599D01*
X142161Y54512D01*
X142144Y54424D01*
X142131Y54336D01*
X142121Y54247D01*
X142115Y54158D01*
X142113Y54069D01*
X142113Y52023D01*
X149479Y52023D01*
X149479Y54069D01*
X149477Y54148D01*
X149471Y54227D01*
X149462Y54306D01*
X149449Y54384D01*
X149431Y54461D01*
X149411Y54537D01*
X149386Y54612D01*
X149358Y54686D01*
X149327Y54759D01*
X149291Y54830D01*
X149253Y54899D01*
X149211Y54966D01*
X149166Y55031D01*
X149118Y55094D01*
X149067Y55155D01*
X149013Y55212D01*
X148957Y55268D01*
X148898Y55320D01*
X148836Y55370D01*
X148772Y55416D01*
X148706Y55460D01*
X148638Y55500D01*
X148568Y55536D01*
X148496Y55570D01*
X148422Y55600D01*
X148348Y55626D01*
X148272Y55649D01*
X148195Y55667D01*
X148118Y55683D01*
X148039Y55694D01*
X147961Y55702D01*
X147882Y55706D01*
X147802Y55706D01*
X147723Y55702D01*
X147645Y55694D01*
X147566Y55683D01*
X147489Y55667D01*
X147412Y55649D01*
X147336Y55626D01*
X147262Y55600D01*
X147188Y55570D01*
X147116Y55536D01*
X147046Y55500D01*
X146978Y55460D01*
X146912Y55416D01*
X146848Y55370D01*
X146786Y55320D01*
X146727Y55268D01*
X146671Y55212D01*
X146617Y55155D01*
X146566Y55094D01*
X146518Y55031D01*
X146473Y54966D01*
X146431Y54899D01*
X146393Y54830D01*
X146357Y54759D01*
X146326Y54686D01*
X146298Y54612D01*
X146273Y54537D01*
X146253Y54461D01*
X146235Y54384D01*
X146222Y54306D01*
X146213Y54227D01*
X146207Y54148D01*
X146205Y54069D01*
X143750Y60663D02*
X149479Y60663D01*
X143750Y60663D02*
X143672Y60661D01*
X143594Y60656D01*
X143517Y60646D01*
X143440Y60633D01*
X143364Y60617D01*
X143289Y60597D01*
X143215Y60573D01*
X143142Y60546D01*
X143070Y60515D01*
X143000Y60481D01*
X142932Y60444D01*
X142865Y60403D01*
X142800Y60359D01*
X142738Y60313D01*
X142678Y60263D01*
X142620Y60211D01*
X142565Y60156D01*
X142513Y60098D01*
X142463Y60038D01*
X142417Y59976D01*
X142373Y59911D01*
X142332Y59845D01*
X142295Y59776D01*
X142261Y59706D01*
X142230Y59634D01*
X142203Y59561D01*
X142179Y59487D01*
X142159Y59412D01*
X142143Y59336D01*
X142130Y59259D01*
X142120Y59182D01*
X142115Y59104D01*
X142113Y59026D01*
X142113Y58208D01*
X142113Y64357D02*
X149479Y64357D01*
X149479Y67631D01*
X146205Y67631D02*
X146205Y64357D01*
X149480Y76590D02*
X149478Y76675D01*
X149472Y76760D01*
X149462Y76844D01*
X149449Y76928D01*
X149431Y77012D01*
X149410Y77094D01*
X149385Y77175D01*
X149356Y77255D01*
X149323Y77334D01*
X149287Y77411D01*
X149247Y77486D01*
X149204Y77560D01*
X149158Y77631D01*
X149108Y77700D01*
X149055Y77767D01*
X148999Y77831D01*
X148940Y77892D01*
X148879Y77951D01*
X148815Y78007D01*
X148748Y78060D01*
X148679Y78110D01*
X148608Y78156D01*
X148534Y78199D01*
X148459Y78239D01*
X148382Y78275D01*
X148303Y78308D01*
X148223Y78337D01*
X148142Y78362D01*
X148060Y78383D01*
X147976Y78401D01*
X147892Y78414D01*
X147808Y78424D01*
X147723Y78430D01*
X147638Y78432D01*
X149479Y76590D02*
X149477Y76494D01*
X149471Y76398D01*
X149461Y76303D01*
X149448Y76208D01*
X149430Y76113D01*
X149409Y76020D01*
X149384Y75927D01*
X149355Y75836D01*
X149323Y75745D01*
X149287Y75656D01*
X149247Y75569D01*
X149204Y75483D01*
X149158Y75399D01*
X149108Y75317D01*
X149054Y75237D01*
X148998Y75160D01*
X148938Y75085D01*
X148876Y75012D01*
X148810Y74942D01*
X148742Y74874D01*
X148671Y74809D01*
X148598Y74748D01*
X148522Y74689D01*
X148443Y74633D01*
X148363Y74581D01*
X148280Y74532D01*
X148196Y74486D01*
X148110Y74444D01*
X148022Y74406D01*
X147933Y74371D01*
X147842Y74339D01*
X146206Y77817D02*
X146265Y77877D01*
X146327Y77934D01*
X146391Y77989D01*
X146458Y78040D01*
X146527Y78089D01*
X146597Y78135D01*
X146670Y78178D01*
X146744Y78218D01*
X146820Y78254D01*
X146898Y78287D01*
X146977Y78317D01*
X147057Y78344D01*
X147138Y78367D01*
X147220Y78386D01*
X147302Y78402D01*
X147386Y78415D01*
X147470Y78424D01*
X147554Y78429D01*
X147638Y78431D01*
X146205Y77817D02*
X142113Y74339D01*
X142113Y78431D01*
X145796Y81654D02*
X145949Y81656D01*
X146102Y81662D01*
X146254Y81671D01*
X146407Y81685D01*
X146559Y81702D01*
X146710Y81723D01*
X146861Y81748D01*
X147011Y81777D01*
X147161Y81809D01*
X147309Y81846D01*
X147457Y81886D01*
X147604Y81929D01*
X147749Y81977D01*
X147893Y82028D01*
X148036Y82082D01*
X148178Y82141D01*
X148317Y82202D01*
X148456Y82268D01*
X148526Y82294D01*
X148596Y82324D01*
X148663Y82357D01*
X148729Y82393D01*
X148793Y82432D01*
X148855Y82475D01*
X148914Y82521D01*
X148972Y82569D01*
X149026Y82620D01*
X149079Y82674D01*
X149128Y82731D01*
X149175Y82790D01*
X149218Y82851D01*
X149259Y82914D01*
X149296Y82979D01*
X149331Y83046D01*
X149361Y83115D01*
X149389Y83185D01*
X149412Y83256D01*
X149433Y83328D01*
X149449Y83401D01*
X149462Y83475D01*
X149472Y83550D01*
X149477Y83625D01*
X149479Y83700D01*
X149477Y83775D01*
X149472Y83850D01*
X149462Y83925D01*
X149449Y83999D01*
X149433Y84072D01*
X149412Y84144D01*
X149389Y84215D01*
X149361Y84285D01*
X149331Y84354D01*
X149296Y84421D01*
X149259Y84486D01*
X149218Y84549D01*
X149175Y84610D01*
X149128Y84669D01*
X149079Y84726D01*
X149026Y84780D01*
X148972Y84831D01*
X148914Y84880D01*
X148855Y84925D01*
X148793Y84968D01*
X148729Y85007D01*
X148663Y85044D01*
X148595Y85076D01*
X148526Y85106D01*
X148456Y85132D01*
X148318Y85197D01*
X148178Y85259D01*
X148036Y85317D01*
X147893Y85372D01*
X147749Y85423D01*
X147604Y85471D01*
X147457Y85514D01*
X147310Y85554D01*
X147161Y85591D01*
X147011Y85623D01*
X146861Y85652D01*
X146710Y85677D01*
X146559Y85698D01*
X146407Y85715D01*
X146254Y85729D01*
X146102Y85738D01*
X145949Y85744D01*
X145796Y85746D01*
X145796Y81654D02*
X145643Y81656D01*
X145490Y81662D01*
X145337Y81671D01*
X145185Y81685D01*
X145033Y81702D01*
X144882Y81723D01*
X144731Y81748D01*
X144580Y81777D01*
X144431Y81809D01*
X144282Y81846D01*
X144135Y81886D01*
X143988Y81929D01*
X143843Y81977D01*
X143698Y82028D01*
X143556Y82083D01*
X143414Y82141D01*
X143274Y82203D01*
X143136Y82268D01*
X143065Y82294D01*
X142996Y82324D01*
X142929Y82357D01*
X142863Y82393D01*
X142799Y82432D01*
X142737Y82475D01*
X142678Y82521D01*
X142620Y82569D01*
X142566Y82620D01*
X142513Y82674D01*
X142464Y82731D01*
X142417Y82790D01*
X142374Y82851D01*
X142333Y82914D01*
X142296Y82979D01*
X142261Y83046D01*
X142231Y83115D01*
X142203Y83185D01*
X142180Y83256D01*
X142159Y83328D01*
X142143Y83401D01*
X142130Y83475D01*
X142120Y83550D01*
X142115Y83625D01*
X142113Y83700D01*
X143136Y85132D02*
X143274Y85197D01*
X143414Y85259D01*
X143556Y85317D01*
X143699Y85372D01*
X143843Y85423D01*
X143988Y85471D01*
X144135Y85514D01*
X144283Y85554D01*
X144431Y85591D01*
X144581Y85623D01*
X144731Y85652D01*
X144882Y85677D01*
X145033Y85698D01*
X145185Y85715D01*
X145338Y85729D01*
X145490Y85738D01*
X145643Y85744D01*
X145796Y85746D01*
X143136Y85132D02*
X143066Y85106D01*
X142996Y85076D01*
X142929Y85044D01*
X142863Y85007D01*
X142799Y84968D01*
X142737Y84925D01*
X142678Y84879D01*
X142620Y84831D01*
X142566Y84780D01*
X142513Y84726D01*
X142464Y84669D01*
X142417Y84610D01*
X142374Y84549D01*
X142333Y84486D01*
X142296Y84421D01*
X142261Y84354D01*
X142231Y84285D01*
X142203Y84215D01*
X142180Y84144D01*
X142159Y84072D01*
X142143Y83999D01*
X142130Y83925D01*
X142120Y83850D01*
X142115Y83775D01*
X142113Y83700D01*
X143750Y82063D02*
X147842Y85337D01*
X147842Y88969D02*
X149479Y91015D01*
X142113Y91015D01*
X142113Y88969D02*
X142113Y93061D01*
X144159Y96285D02*
X144248Y96287D01*
X144337Y96293D01*
X144426Y96303D01*
X144514Y96316D01*
X144602Y96333D01*
X144689Y96355D01*
X144774Y96380D01*
X144859Y96408D01*
X144942Y96441D01*
X145024Y96477D01*
X145104Y96516D01*
X145182Y96559D01*
X145258Y96605D01*
X145333Y96655D01*
X145405Y96708D01*
X145474Y96764D01*
X145541Y96823D01*
X145606Y96884D01*
X145667Y96949D01*
X145726Y97016D01*
X145782Y97085D01*
X145835Y97157D01*
X145885Y97232D01*
X145931Y97308D01*
X145974Y97386D01*
X146013Y97466D01*
X146049Y97548D01*
X146082Y97631D01*
X146110Y97716D01*
X146135Y97801D01*
X146157Y97888D01*
X146174Y97976D01*
X146187Y98064D01*
X146197Y98153D01*
X146203Y98242D01*
X146205Y98331D01*
X146203Y98420D01*
X146197Y98509D01*
X146187Y98598D01*
X146174Y98686D01*
X146157Y98774D01*
X146135Y98861D01*
X146110Y98946D01*
X146082Y99031D01*
X146049Y99114D01*
X146013Y99196D01*
X145974Y99276D01*
X145931Y99354D01*
X145885Y99430D01*
X145835Y99505D01*
X145782Y99577D01*
X145726Y99646D01*
X145667Y99713D01*
X145606Y99778D01*
X145541Y99839D01*
X145474Y99898D01*
X145405Y99954D01*
X145333Y100007D01*
X145258Y100057D01*
X145182Y100103D01*
X145104Y100146D01*
X145024Y100185D01*
X144942Y100221D01*
X144859Y100254D01*
X144774Y100282D01*
X144689Y100307D01*
X144602Y100329D01*
X144514Y100346D01*
X144426Y100359D01*
X144337Y100369D01*
X144248Y100375D01*
X144159Y100377D01*
X144070Y100375D01*
X143981Y100369D01*
X143892Y100359D01*
X143804Y100346D01*
X143716Y100329D01*
X143629Y100307D01*
X143544Y100282D01*
X143459Y100254D01*
X143376Y100221D01*
X143294Y100185D01*
X143214Y100146D01*
X143136Y100103D01*
X143060Y100057D01*
X142985Y100007D01*
X142913Y99954D01*
X142844Y99898D01*
X142777Y99839D01*
X142712Y99778D01*
X142651Y99713D01*
X142592Y99646D01*
X142536Y99577D01*
X142483Y99505D01*
X142433Y99430D01*
X142387Y99354D01*
X142344Y99276D01*
X142305Y99196D01*
X142269Y99114D01*
X142236Y99031D01*
X142208Y98946D01*
X142183Y98861D01*
X142161Y98774D01*
X142144Y98686D01*
X142131Y98598D01*
X142121Y98509D01*
X142115Y98420D01*
X142113Y98331D01*
X142115Y98242D01*
X142121Y98153D01*
X142131Y98064D01*
X142144Y97976D01*
X142161Y97888D01*
X142183Y97801D01*
X142208Y97716D01*
X142236Y97631D01*
X142269Y97548D01*
X142305Y97466D01*
X142344Y97386D01*
X142387Y97308D01*
X142433Y97232D01*
X142483Y97157D01*
X142536Y97085D01*
X142592Y97016D01*
X142651Y96949D01*
X142712Y96884D01*
X142777Y96823D01*
X142844Y96764D01*
X142913Y96708D01*
X142985Y96655D01*
X143060Y96605D01*
X143136Y96559D01*
X143214Y96516D01*
X143294Y96477D01*
X143376Y96441D01*
X143459Y96408D01*
X143544Y96380D01*
X143629Y96355D01*
X143716Y96333D01*
X143804Y96316D01*
X143892Y96303D01*
X143981Y96293D01*
X144070Y96287D01*
X144159Y96285D01*
X147842Y96694D02*
X147921Y96696D01*
X148000Y96702D01*
X148079Y96711D01*
X148157Y96724D01*
X148234Y96742D01*
X148310Y96762D01*
X148385Y96787D01*
X148459Y96815D01*
X148532Y96846D01*
X148603Y96882D01*
X148672Y96920D01*
X148739Y96962D01*
X148804Y97007D01*
X148867Y97055D01*
X148928Y97106D01*
X148985Y97160D01*
X149041Y97216D01*
X149093Y97275D01*
X149143Y97337D01*
X149189Y97401D01*
X149233Y97467D01*
X149273Y97535D01*
X149309Y97605D01*
X149343Y97677D01*
X149373Y97751D01*
X149399Y97825D01*
X149422Y97901D01*
X149440Y97978D01*
X149456Y98055D01*
X149467Y98134D01*
X149475Y98212D01*
X149479Y98291D01*
X149479Y98371D01*
X149475Y98450D01*
X149467Y98528D01*
X149456Y98607D01*
X149440Y98684D01*
X149422Y98761D01*
X149399Y98837D01*
X149373Y98911D01*
X149343Y98985D01*
X149309Y99057D01*
X149273Y99127D01*
X149233Y99195D01*
X149189Y99261D01*
X149143Y99325D01*
X149093Y99387D01*
X149041Y99446D01*
X148985Y99502D01*
X148928Y99556D01*
X148867Y99607D01*
X148804Y99655D01*
X148739Y99700D01*
X148672Y99742D01*
X148603Y99780D01*
X148532Y99816D01*
X148459Y99847D01*
X148385Y99875D01*
X148310Y99900D01*
X148234Y99920D01*
X148157Y99938D01*
X148079Y99951D01*
X148000Y99960D01*
X147921Y99966D01*
X147842Y99968D01*
X147763Y99966D01*
X147684Y99960D01*
X147605Y99951D01*
X147527Y99938D01*
X147450Y99920D01*
X147374Y99900D01*
X147299Y99875D01*
X147225Y99847D01*
X147152Y99816D01*
X147081Y99780D01*
X147012Y99742D01*
X146945Y99700D01*
X146880Y99655D01*
X146817Y99607D01*
X146756Y99556D01*
X146699Y99502D01*
X146643Y99446D01*
X146591Y99387D01*
X146541Y99325D01*
X146495Y99261D01*
X146451Y99195D01*
X146411Y99127D01*
X146375Y99057D01*
X146341Y98985D01*
X146311Y98911D01*
X146285Y98837D01*
X146262Y98761D01*
X146244Y98684D01*
X146228Y98607D01*
X146217Y98528D01*
X146209Y98450D01*
X146205Y98371D01*
X146205Y98291D01*
X146209Y98212D01*
X146217Y98134D01*
X146228Y98055D01*
X146244Y97978D01*
X146262Y97901D01*
X146285Y97825D01*
X146311Y97751D01*
X146341Y97677D01*
X146375Y97605D01*
X146411Y97535D01*
X146451Y97467D01*
X146495Y97401D01*
X146541Y97337D01*
X146591Y97275D01*
X146643Y97216D01*
X146699Y97160D01*
X146756Y97106D01*
X146817Y97055D01*
X146880Y97007D01*
X146945Y96962D01*
X147012Y96920D01*
X147081Y96882D01*
X147152Y96846D01*
X147225Y96815D01*
X147299Y96787D01*
X147374Y96762D01*
X147450Y96742D01*
X147527Y96724D01*
X147605Y96711D01*
X147684Y96702D01*
X147763Y96696D01*
X147842Y96694D01*
X137287Y32065D02*
X129921Y32065D01*
X137287Y30019D02*
X137287Y34111D01*
X132786Y38159D02*
X132786Y40001D01*
X132785Y38159D02*
X132783Y38084D01*
X132777Y38009D01*
X132767Y37935D01*
X132754Y37861D01*
X132736Y37788D01*
X132715Y37716D01*
X132690Y37646D01*
X132661Y37577D01*
X132629Y37509D01*
X132593Y37443D01*
X132554Y37379D01*
X132512Y37317D01*
X132466Y37258D01*
X132417Y37201D01*
X132366Y37146D01*
X132311Y37095D01*
X132254Y37046D01*
X132195Y37000D01*
X132133Y36958D01*
X132069Y36919D01*
X132003Y36883D01*
X131935Y36851D01*
X131866Y36822D01*
X131796Y36797D01*
X131724Y36776D01*
X131651Y36758D01*
X131577Y36745D01*
X131503Y36735D01*
X131428Y36729D01*
X131353Y36727D01*
X131278Y36729D01*
X131203Y36735D01*
X131129Y36745D01*
X131055Y36758D01*
X130982Y36776D01*
X130910Y36797D01*
X130840Y36822D01*
X130771Y36851D01*
X130703Y36883D01*
X130637Y36919D01*
X130573Y36958D01*
X130511Y37000D01*
X130452Y37046D01*
X130395Y37095D01*
X130340Y37146D01*
X130289Y37201D01*
X130240Y37258D01*
X130194Y37317D01*
X130152Y37379D01*
X130113Y37443D01*
X130077Y37509D01*
X130045Y37577D01*
X130016Y37646D01*
X129991Y37716D01*
X129970Y37788D01*
X129952Y37861D01*
X129939Y37935D01*
X129929Y38009D01*
X129923Y38084D01*
X129921Y38159D01*
X129921Y40001D01*
X133604Y40001D01*
X133673Y39999D01*
X133741Y39993D01*
X133810Y39984D01*
X133877Y39970D01*
X133944Y39953D01*
X134010Y39932D01*
X134074Y39908D01*
X134137Y39879D01*
X134198Y39848D01*
X134257Y39813D01*
X134315Y39775D01*
X134370Y39733D01*
X134422Y39689D01*
X134472Y39641D01*
X134520Y39591D01*
X134564Y39539D01*
X134606Y39484D01*
X134644Y39426D01*
X134679Y39367D01*
X134710Y39306D01*
X134739Y39243D01*
X134763Y39179D01*
X134784Y39113D01*
X134801Y39046D01*
X134815Y38979D01*
X134824Y38910D01*
X134830Y38842D01*
X134832Y38773D01*
X134832Y37136D01*
X134832Y43596D02*
X129921Y43596D01*
X134832Y43596D02*
X134832Y45642D01*
X134830Y45711D01*
X134824Y45779D01*
X134815Y45848D01*
X134801Y45915D01*
X134784Y45982D01*
X134763Y46048D01*
X134739Y46112D01*
X134710Y46175D01*
X134679Y46236D01*
X134644Y46295D01*
X134606Y46353D01*
X134564Y46408D01*
X134520Y46460D01*
X134472Y46510D01*
X134422Y46558D01*
X134370Y46602D01*
X134315Y46644D01*
X134257Y46682D01*
X134198Y46717D01*
X134137Y46748D01*
X134074Y46777D01*
X134010Y46801D01*
X133944Y46822D01*
X133877Y46839D01*
X133810Y46853D01*
X133741Y46862D01*
X133673Y46868D01*
X133604Y46870D01*
X133604Y46869D02*
X129921Y46869D01*
X129921Y50517D02*
X137287Y50517D01*
X134832Y53791D02*
X132376Y50517D01*
X133399Y51949D02*
X129921Y53791D01*
X129921Y62710D02*
X129923Y62788D01*
X129928Y62866D01*
X129938Y62943D01*
X129951Y63020D01*
X129967Y63096D01*
X129987Y63171D01*
X130011Y63245D01*
X130038Y63318D01*
X130069Y63390D01*
X130103Y63460D01*
X130140Y63529D01*
X130181Y63595D01*
X130225Y63660D01*
X130271Y63722D01*
X130321Y63782D01*
X130373Y63840D01*
X130428Y63895D01*
X130486Y63947D01*
X130546Y63997D01*
X130608Y64043D01*
X130673Y64087D01*
X130740Y64128D01*
X130808Y64165D01*
X130878Y64199D01*
X130950Y64230D01*
X131023Y64257D01*
X131097Y64281D01*
X131172Y64301D01*
X131248Y64317D01*
X131325Y64330D01*
X131402Y64340D01*
X131480Y64345D01*
X131558Y64347D01*
X129921Y62710D02*
X129923Y62596D01*
X129928Y62483D01*
X129938Y62369D01*
X129951Y62256D01*
X129968Y62144D01*
X129988Y62032D01*
X130012Y61921D01*
X130040Y61810D01*
X130071Y61701D01*
X130106Y61593D01*
X130145Y61486D01*
X130187Y61380D01*
X130232Y61276D01*
X130281Y61173D01*
X130334Y61072D01*
X130389Y60973D01*
X130448Y60875D01*
X130510Y60780D01*
X130575Y60687D01*
X130643Y60595D01*
X130714Y60507D01*
X130788Y60420D01*
X130865Y60336D01*
X130944Y60255D01*
X135650Y60460D02*
X135728Y60462D01*
X135806Y60467D01*
X135883Y60477D01*
X135960Y60490D01*
X136036Y60506D01*
X136111Y60526D01*
X136185Y60550D01*
X136258Y60577D01*
X136330Y60608D01*
X136400Y60642D01*
X136469Y60679D01*
X136535Y60720D01*
X136600Y60764D01*
X136662Y60810D01*
X136722Y60860D01*
X136780Y60912D01*
X136835Y60967D01*
X136887Y61025D01*
X136937Y61085D01*
X136983Y61147D01*
X137027Y61212D01*
X137068Y61279D01*
X137105Y61347D01*
X137139Y61417D01*
X137170Y61489D01*
X137197Y61562D01*
X137221Y61636D01*
X137241Y61711D01*
X137257Y61787D01*
X137270Y61864D01*
X137280Y61941D01*
X137285Y62019D01*
X137287Y62097D01*
X137285Y62207D01*
X137279Y62316D01*
X137269Y62426D01*
X137256Y62534D01*
X137238Y62643D01*
X137217Y62750D01*
X137191Y62857D01*
X137162Y62963D01*
X137130Y63068D01*
X137093Y63171D01*
X137053Y63273D01*
X137009Y63374D01*
X136961Y63473D01*
X136911Y63570D01*
X136856Y63665D01*
X136798Y63758D01*
X136737Y63849D01*
X136673Y63938D01*
X134217Y61278D02*
X134259Y61211D01*
X134303Y61146D01*
X134351Y61084D01*
X134401Y61024D01*
X134454Y60966D01*
X134510Y60911D01*
X134569Y60859D01*
X134629Y60809D01*
X134693Y60762D01*
X134758Y60719D01*
X134825Y60678D01*
X134894Y60641D01*
X134965Y60607D01*
X135037Y60576D01*
X135111Y60549D01*
X135185Y60525D01*
X135261Y60505D01*
X135338Y60489D01*
X135415Y60476D01*
X135493Y60466D01*
X135572Y60461D01*
X135650Y60459D01*
X132990Y63529D02*
X132948Y63595D01*
X132904Y63660D01*
X132857Y63722D01*
X132806Y63782D01*
X132753Y63840D01*
X132697Y63895D01*
X132639Y63948D01*
X132578Y63997D01*
X132515Y64044D01*
X132450Y64087D01*
X132383Y64128D01*
X132314Y64165D01*
X132243Y64199D01*
X132171Y64230D01*
X132097Y64257D01*
X132022Y64281D01*
X131947Y64301D01*
X131870Y64317D01*
X131793Y64330D01*
X131715Y64340D01*
X131636Y64345D01*
X131558Y64347D01*
X132990Y63529D02*
X134218Y61278D01*
X129921Y68476D02*
X129921Y70522D01*
X129921Y68476D02*
X129923Y68407D01*
X129929Y68339D01*
X129938Y68270D01*
X129952Y68203D01*
X129969Y68136D01*
X129990Y68070D01*
X130014Y68006D01*
X130043Y67943D01*
X130074Y67882D01*
X130109Y67823D01*
X130147Y67765D01*
X130189Y67710D01*
X130233Y67658D01*
X130281Y67608D01*
X130331Y67560D01*
X130383Y67516D01*
X130438Y67474D01*
X130496Y67436D01*
X130555Y67401D01*
X130616Y67370D01*
X130679Y67341D01*
X130743Y67317D01*
X130809Y67296D01*
X130876Y67279D01*
X130943Y67265D01*
X131012Y67256D01*
X131080Y67250D01*
X131149Y67248D01*
X133195Y67248D01*
X133274Y67250D01*
X133353Y67256D01*
X133432Y67265D01*
X133510Y67278D01*
X133587Y67296D01*
X133663Y67316D01*
X133738Y67341D01*
X133812Y67369D01*
X133885Y67400D01*
X133956Y67436D01*
X134025Y67474D01*
X134092Y67516D01*
X134157Y67561D01*
X134220Y67609D01*
X134281Y67660D01*
X134338Y67714D01*
X134394Y67770D01*
X134446Y67829D01*
X134496Y67891D01*
X134542Y67955D01*
X134586Y68021D01*
X134626Y68089D01*
X134662Y68159D01*
X134696Y68231D01*
X134726Y68305D01*
X134752Y68379D01*
X134775Y68455D01*
X134793Y68532D01*
X134809Y68609D01*
X134820Y68688D01*
X134828Y68766D01*
X134832Y68845D01*
X134832Y68925D01*
X134828Y69004D01*
X134820Y69082D01*
X134809Y69161D01*
X134793Y69238D01*
X134775Y69315D01*
X134752Y69391D01*
X134726Y69465D01*
X134696Y69539D01*
X134662Y69611D01*
X134626Y69681D01*
X134586Y69749D01*
X134542Y69815D01*
X134496Y69879D01*
X134446Y69941D01*
X134394Y70000D01*
X134338Y70056D01*
X134281Y70110D01*
X134220Y70161D01*
X134157Y70209D01*
X134092Y70254D01*
X134025Y70296D01*
X133956Y70334D01*
X133885Y70370D01*
X133812Y70401D01*
X133738Y70429D01*
X133663Y70454D01*
X133587Y70474D01*
X133510Y70492D01*
X133432Y70505D01*
X133353Y70514D01*
X133274Y70520D01*
X133195Y70522D01*
X132376Y70522D01*
X132376Y67248D01*
X129921Y73832D02*
X134832Y73832D01*
X134832Y75878D01*
X134830Y75947D01*
X134824Y76015D01*
X134815Y76084D01*
X134801Y76151D01*
X134784Y76218D01*
X134763Y76284D01*
X134739Y76348D01*
X134710Y76411D01*
X134679Y76472D01*
X134644Y76531D01*
X134606Y76589D01*
X134564Y76644D01*
X134520Y76696D01*
X134472Y76746D01*
X134422Y76794D01*
X134370Y76838D01*
X134315Y76880D01*
X134257Y76918D01*
X134198Y76953D01*
X134137Y76984D01*
X134074Y77013D01*
X134010Y77037D01*
X133944Y77058D01*
X133877Y77075D01*
X133810Y77089D01*
X133741Y77098D01*
X133673Y77104D01*
X133604Y77106D01*
X133604Y77105D02*
X129921Y77105D01*
X132786Y81029D02*
X131967Y83075D01*
X132786Y81029D02*
X132811Y80970D01*
X132840Y80913D01*
X132873Y80858D01*
X132909Y80805D01*
X132947Y80754D01*
X132989Y80706D01*
X133034Y80660D01*
X133081Y80617D01*
X133131Y80577D01*
X133183Y80540D01*
X133238Y80506D01*
X133294Y80475D01*
X133352Y80448D01*
X133412Y80425D01*
X133472Y80405D01*
X133534Y80389D01*
X133597Y80376D01*
X133661Y80368D01*
X133724Y80363D01*
X133788Y80362D01*
X133852Y80365D01*
X133916Y80372D01*
X133979Y80383D01*
X134041Y80397D01*
X134103Y80415D01*
X134163Y80437D01*
X134222Y80462D01*
X134279Y80491D01*
X134334Y80524D01*
X134387Y80559D01*
X134438Y80598D01*
X134487Y80640D01*
X134533Y80684D01*
X134576Y80732D01*
X134616Y80781D01*
X134653Y80834D01*
X134687Y80888D01*
X134718Y80944D01*
X134745Y81002D01*
X134769Y81061D01*
X134788Y81122D01*
X134805Y81184D01*
X134817Y81247D01*
X134826Y81310D01*
X134831Y81374D01*
X134832Y81438D01*
X134828Y81574D01*
X134820Y81709D01*
X134808Y81845D01*
X134792Y81979D01*
X134772Y82114D01*
X134749Y82247D01*
X134721Y82380D01*
X134690Y82512D01*
X134655Y82643D01*
X134616Y82773D01*
X134573Y82902D01*
X134526Y83029D01*
X134476Y83155D01*
X134422Y83280D01*
X131967Y83075D02*
X131942Y83134D01*
X131913Y83191D01*
X131880Y83246D01*
X131844Y83299D01*
X131806Y83350D01*
X131764Y83398D01*
X131719Y83444D01*
X131672Y83487D01*
X131622Y83527D01*
X131570Y83564D01*
X131515Y83598D01*
X131459Y83629D01*
X131401Y83656D01*
X131341Y83679D01*
X131281Y83699D01*
X131219Y83715D01*
X131156Y83728D01*
X131092Y83736D01*
X131029Y83741D01*
X130965Y83742D01*
X130901Y83739D01*
X130837Y83732D01*
X130774Y83721D01*
X130712Y83707D01*
X130650Y83689D01*
X130590Y83667D01*
X130531Y83642D01*
X130474Y83613D01*
X130419Y83580D01*
X130366Y83545D01*
X130315Y83506D01*
X130266Y83464D01*
X130220Y83420D01*
X130177Y83372D01*
X130137Y83323D01*
X130100Y83270D01*
X130066Y83216D01*
X130035Y83160D01*
X130008Y83102D01*
X129984Y83043D01*
X129965Y82982D01*
X129948Y82920D01*
X129936Y82857D01*
X129927Y82794D01*
X129922Y82730D01*
X129921Y82666D01*
X129925Y82502D01*
X129933Y82338D01*
X129945Y82174D01*
X129961Y82011D01*
X129981Y81848D01*
X130004Y81685D01*
X130032Y81524D01*
X130063Y81362D01*
X130098Y81202D01*
X130137Y81043D01*
X130180Y80884D01*
X130226Y80727D01*
X130276Y80570D01*
X130330Y80415D01*
X131558Y86755D02*
X133195Y86755D01*
X133274Y86757D01*
X133353Y86763D01*
X133432Y86772D01*
X133510Y86785D01*
X133587Y86803D01*
X133663Y86823D01*
X133738Y86848D01*
X133812Y86876D01*
X133885Y86907D01*
X133956Y86943D01*
X134025Y86981D01*
X134092Y87023D01*
X134157Y87068D01*
X134220Y87116D01*
X134281Y87167D01*
X134338Y87221D01*
X134394Y87277D01*
X134446Y87336D01*
X134496Y87398D01*
X134542Y87462D01*
X134586Y87528D01*
X134626Y87596D01*
X134662Y87666D01*
X134696Y87738D01*
X134726Y87812D01*
X134752Y87886D01*
X134775Y87962D01*
X134793Y88039D01*
X134809Y88116D01*
X134820Y88195D01*
X134828Y88273D01*
X134832Y88352D01*
X134832Y88432D01*
X134828Y88511D01*
X134820Y88589D01*
X134809Y88668D01*
X134793Y88745D01*
X134775Y88822D01*
X134752Y88898D01*
X134726Y88972D01*
X134696Y89046D01*
X134662Y89118D01*
X134626Y89188D01*
X134586Y89256D01*
X134542Y89322D01*
X134496Y89386D01*
X134446Y89448D01*
X134394Y89507D01*
X134338Y89563D01*
X134281Y89617D01*
X134220Y89668D01*
X134157Y89716D01*
X134092Y89761D01*
X134025Y89803D01*
X133956Y89841D01*
X133885Y89877D01*
X133812Y89908D01*
X133738Y89936D01*
X133663Y89961D01*
X133587Y89981D01*
X133510Y89999D01*
X133432Y90012D01*
X133353Y90021D01*
X133274Y90027D01*
X133195Y90029D01*
X131558Y90029D01*
X131479Y90027D01*
X131400Y90021D01*
X131321Y90012D01*
X131243Y89999D01*
X131166Y89981D01*
X131090Y89961D01*
X131015Y89936D01*
X130941Y89908D01*
X130868Y89877D01*
X130797Y89841D01*
X130728Y89803D01*
X130661Y89761D01*
X130596Y89716D01*
X130533Y89668D01*
X130472Y89617D01*
X130415Y89563D01*
X130359Y89507D01*
X130307Y89448D01*
X130257Y89386D01*
X130211Y89322D01*
X130167Y89256D01*
X130127Y89188D01*
X130091Y89118D01*
X130057Y89046D01*
X130027Y88972D01*
X130001Y88898D01*
X129978Y88822D01*
X129960Y88745D01*
X129944Y88668D01*
X129933Y88589D01*
X129925Y88511D01*
X129921Y88432D01*
X129921Y88352D01*
X129925Y88273D01*
X129933Y88195D01*
X129944Y88116D01*
X129960Y88039D01*
X129978Y87962D01*
X130001Y87886D01*
X130027Y87812D01*
X130057Y87738D01*
X130091Y87666D01*
X130127Y87596D01*
X130167Y87528D01*
X130211Y87462D01*
X130257Y87398D01*
X130307Y87336D01*
X130359Y87277D01*
X130415Y87221D01*
X130472Y87167D01*
X130533Y87116D01*
X130596Y87068D01*
X130661Y87023D01*
X130728Y86981D01*
X130797Y86943D01*
X130868Y86907D01*
X130941Y86876D01*
X131015Y86848D01*
X131090Y86823D01*
X131166Y86803D01*
X131243Y86785D01*
X131321Y86772D01*
X131400Y86763D01*
X131479Y86757D01*
X131558Y86755D01*
X129921Y93385D02*
X134832Y93385D01*
X134832Y95840D01*
X134013Y95840D01*
X134832Y101873D02*
X129921Y103510D01*
X134832Y105147D01*
X135650Y108048D02*
X137287Y110094D01*
X129921Y110094D01*
X129921Y108048D02*
X129921Y112140D01*
X129921Y115010D02*
X130330Y115010D01*
X130330Y115419D01*
X129921Y115419D01*
X129921Y115010D01*
X135650Y118289D02*
X137287Y120335D01*
X129921Y120335D01*
X129921Y118289D02*
X129921Y122381D01*
M02*
