G04 EAGLE Gerber X2 export*
%TF.Part,Single*%
%TF.FileFunction,Soldermask,Top,1*%
%TF.FilePolarity,Negative*%
%TF.GenerationSoftware,Autodesk,EAGLE,9.1.0*%
%TF.CreationDate,2018-07-07T09:38:12Z*%
G75*
%MOMM*%
%FSLAX34Y34*%
%LPD*%
%AMOC8*
5,1,8,0,0,1.08239X$1,22.5*%
G01*
%ADD10C,1.727200*%
%ADD11C,1.993900*%
%ADD12C,2.032000*%
%ADD13P,1.649562X8X202.500000*%
%ADD14C,2.082800*%
%ADD15C,1.524000*%
%ADD16P,1.649562X8X22.500000*%


D10*
X533400Y414020D02*
X533400Y398780D01*
X508000Y398780D02*
X508000Y414020D01*
X482600Y414020D02*
X482600Y398780D01*
X457200Y398780D02*
X457200Y414020D01*
X431800Y414020D02*
X431800Y398780D01*
X406400Y398780D02*
X406400Y414020D01*
D11*
X292500Y72454D02*
X292500Y54547D01*
X342500Y54547D02*
X342500Y72454D01*
D10*
X431800Y58420D02*
X431800Y43180D01*
X406400Y43180D02*
X406400Y58420D01*
D12*
X101600Y168656D02*
X101600Y186944D01*
X127000Y186944D02*
X127000Y168656D01*
X152400Y168656D02*
X152400Y186944D01*
X177800Y186944D02*
X177800Y168656D01*
X203200Y168656D02*
X203200Y186944D01*
X228600Y186944D02*
X228600Y168656D01*
X254000Y168656D02*
X254000Y186944D01*
X279400Y186944D02*
X279400Y168656D01*
X101600Y397256D02*
X101600Y415544D01*
X127000Y415544D02*
X127000Y397256D01*
X152400Y397256D02*
X152400Y415544D01*
X177800Y415544D02*
X177800Y397256D01*
X203200Y397256D02*
X203200Y415544D01*
X228600Y415544D02*
X228600Y397256D01*
X254000Y397256D02*
X254000Y415544D01*
X279400Y415544D02*
X279400Y397256D01*
D10*
X45720Y114300D02*
X30480Y114300D01*
X30480Y88900D02*
X45720Y88900D01*
X45720Y63500D02*
X30480Y63500D01*
X30480Y38100D02*
X45720Y38100D01*
X495300Y93980D02*
X495300Y109220D01*
X520700Y109220D02*
X520700Y93980D01*
X546100Y93980D02*
X546100Y109220D01*
X571500Y109220D02*
X571500Y93980D01*
X495300Y208280D02*
X495300Y223520D01*
X520700Y223520D02*
X520700Y208280D01*
X546100Y208280D02*
X546100Y223520D01*
X571500Y223520D02*
X571500Y208280D01*
D13*
X254000Y330200D03*
X177800Y330200D03*
X152400Y330200D03*
X76200Y330200D03*
D14*
X215900Y101600D03*
X215900Y76200D03*
X215900Y50800D03*
D10*
X495300Y157480D02*
X495300Y172720D01*
X520700Y172720D02*
X520700Y157480D01*
X546100Y157480D02*
X546100Y172720D01*
X571500Y172720D02*
X571500Y157480D01*
D15*
X438404Y342900D02*
X425196Y342900D01*
X425196Y317500D02*
X438404Y317500D01*
X438404Y292100D02*
X425196Y292100D01*
X425196Y266700D02*
X438404Y266700D01*
X501396Y266700D02*
X514604Y266700D01*
X514604Y292100D02*
X501396Y292100D01*
X501396Y317500D02*
X514604Y317500D01*
X514604Y342900D02*
X501396Y342900D01*
D16*
X279400Y330200D03*
X355600Y330200D03*
X279400Y279400D03*
X355600Y279400D03*
D10*
X495300Y58420D02*
X495300Y43180D01*
X520700Y43180D02*
X520700Y58420D01*
X546100Y58420D02*
X546100Y43180D01*
X571500Y43180D02*
X571500Y58420D01*
D15*
X444500Y171196D02*
X444500Y184404D01*
X393700Y184404D02*
X393700Y171196D01*
X419100Y171196D02*
X419100Y184404D01*
D13*
X254000Y279400D03*
X177800Y279400D03*
M02*
