G75*
%MOIN*%
%OFA0B0*%
%FSLAX25Y25*%
%IPPOS*%
%LPD*%
%AMOC8*
5,1,8,0,0,1.08239X$1,22.5*
%
%ADD10C,0.00000*%
%ADD11C,0.00400*%
%ADD12C,0.06000*%
%ADD13C,0.07050*%
%ADD14C,0.07200*%
%ADD15OC8,0.05200*%
%ADD16C,0.07400*%
%ADD17C,0.05200*%
%ADD18C,0.00600*%
%ADD19C,0.02000*%
%ADD20C,0.02978*%
D10*
X0001000Y0001000D02*
X0001000Y0175961D01*
X0279701Y0175961D01*
X0279701Y0001000D01*
X0001000Y0001000D01*
D11*
X0050722Y0029550D02*
X0053278Y0029550D01*
X0052000Y0029550D02*
X0052000Y0024950D01*
X0055749Y0024950D02*
X0056899Y0024950D01*
X0056899Y0027250D01*
X0056899Y0026739D02*
X0055749Y0026739D01*
X0056899Y0027250D02*
X0056897Y0027305D01*
X0056891Y0027359D01*
X0056881Y0027413D01*
X0056868Y0027466D01*
X0056851Y0027518D01*
X0056830Y0027569D01*
X0056805Y0027618D01*
X0056777Y0027665D01*
X0056746Y0027710D01*
X0056712Y0027752D01*
X0056674Y0027792D01*
X0056634Y0027830D01*
X0056592Y0027864D01*
X0056547Y0027895D01*
X0056500Y0027923D01*
X0056451Y0027948D01*
X0056400Y0027969D01*
X0056348Y0027986D01*
X0056295Y0027999D01*
X0056241Y0028009D01*
X0056187Y0028015D01*
X0056132Y0028017D01*
X0055110Y0028017D01*
X0055749Y0026738D02*
X0055691Y0026736D01*
X0055632Y0026730D01*
X0055575Y0026721D01*
X0055518Y0026708D01*
X0055462Y0026691D01*
X0055407Y0026670D01*
X0055354Y0026646D01*
X0055302Y0026618D01*
X0055252Y0026587D01*
X0055205Y0026553D01*
X0055160Y0026516D01*
X0055117Y0026476D01*
X0055077Y0026433D01*
X0055040Y0026388D01*
X0055006Y0026341D01*
X0054975Y0026291D01*
X0054947Y0026239D01*
X0054923Y0026186D01*
X0054902Y0026131D01*
X0054885Y0026075D01*
X0054872Y0026018D01*
X0054863Y0025961D01*
X0054857Y0025902D01*
X0054855Y0025844D01*
X0054857Y0025786D01*
X0054863Y0025727D01*
X0054872Y0025670D01*
X0054885Y0025613D01*
X0054902Y0025557D01*
X0054923Y0025502D01*
X0054947Y0025449D01*
X0054975Y0025397D01*
X0055006Y0025347D01*
X0055040Y0025300D01*
X0055077Y0025255D01*
X0055117Y0025212D01*
X0055160Y0025172D01*
X0055205Y0025135D01*
X0055252Y0025101D01*
X0055302Y0025070D01*
X0055354Y0025042D01*
X0055407Y0025018D01*
X0055462Y0024997D01*
X0055518Y0024980D01*
X0055575Y0024967D01*
X0055632Y0024958D01*
X0055691Y0024952D01*
X0055749Y0024950D01*
X0059078Y0024950D02*
X0059078Y0028017D01*
X0060356Y0028017D01*
X0060411Y0028015D01*
X0060465Y0028009D01*
X0060519Y0027999D01*
X0060572Y0027986D01*
X0060624Y0027969D01*
X0060675Y0027948D01*
X0060724Y0027923D01*
X0060771Y0027895D01*
X0060816Y0027864D01*
X0060858Y0027830D01*
X0060898Y0027792D01*
X0060936Y0027752D01*
X0060970Y0027710D01*
X0061001Y0027665D01*
X0061029Y0027618D01*
X0061054Y0027569D01*
X0061075Y0027518D01*
X0061092Y0027466D01*
X0061105Y0027413D01*
X0061115Y0027359D01*
X0061121Y0027305D01*
X0061123Y0027250D01*
X0061122Y0027250D02*
X0061122Y0024950D01*
X0063331Y0024950D02*
X0063331Y0029550D01*
X0065376Y0028017D02*
X0063331Y0026483D01*
X0064226Y0027122D02*
X0065376Y0024950D01*
X0069961Y0027633D02*
X0071367Y0026867D01*
X0070856Y0024950D02*
X0070766Y0024952D01*
X0070677Y0024957D01*
X0070588Y0024967D01*
X0070499Y0024980D01*
X0070411Y0024996D01*
X0070323Y0025017D01*
X0070237Y0025041D01*
X0070151Y0025068D01*
X0070067Y0025099D01*
X0069984Y0025134D01*
X0069903Y0025172D01*
X0069823Y0025213D01*
X0069746Y0025257D01*
X0069670Y0025305D01*
X0069596Y0025356D01*
X0069524Y0025410D01*
X0069455Y0025467D01*
X0069387Y0025526D01*
X0069323Y0025589D01*
X0071367Y0026866D02*
X0071421Y0026832D01*
X0071472Y0026795D01*
X0071521Y0026755D01*
X0071568Y0026712D01*
X0071611Y0026666D01*
X0071652Y0026618D01*
X0071690Y0026567D01*
X0071725Y0026514D01*
X0071757Y0026459D01*
X0071785Y0026402D01*
X0071809Y0026344D01*
X0071830Y0026284D01*
X0071847Y0026223D01*
X0071861Y0026161D01*
X0071870Y0026098D01*
X0071876Y0026035D01*
X0071878Y0025972D01*
X0071876Y0025910D01*
X0071871Y0025849D01*
X0071861Y0025788D01*
X0071848Y0025727D01*
X0071832Y0025668D01*
X0071812Y0025610D01*
X0071788Y0025553D01*
X0071761Y0025497D01*
X0071731Y0025443D01*
X0071697Y0025391D01*
X0071661Y0025342D01*
X0071621Y0025294D01*
X0071579Y0025249D01*
X0071534Y0025207D01*
X0071486Y0025167D01*
X0071437Y0025131D01*
X0071385Y0025097D01*
X0071331Y0025067D01*
X0071275Y0025040D01*
X0071218Y0025016D01*
X0071160Y0024996D01*
X0071101Y0024980D01*
X0071040Y0024967D01*
X0070979Y0024957D01*
X0070918Y0024952D01*
X0070856Y0024950D01*
X0071622Y0029167D02*
X0071555Y0029215D01*
X0071487Y0029260D01*
X0071416Y0029302D01*
X0071343Y0029340D01*
X0071269Y0029376D01*
X0071194Y0029409D01*
X0071117Y0029438D01*
X0071039Y0029464D01*
X0070960Y0029487D01*
X0070880Y0029506D01*
X0070799Y0029522D01*
X0070718Y0029534D01*
X0070636Y0029543D01*
X0070554Y0029548D01*
X0070472Y0029550D01*
X0070410Y0029548D01*
X0070349Y0029543D01*
X0070288Y0029533D01*
X0070227Y0029520D01*
X0070168Y0029504D01*
X0070110Y0029484D01*
X0070053Y0029460D01*
X0069997Y0029433D01*
X0069943Y0029403D01*
X0069891Y0029369D01*
X0069842Y0029333D01*
X0069794Y0029293D01*
X0069749Y0029251D01*
X0069707Y0029206D01*
X0069668Y0029158D01*
X0069631Y0029109D01*
X0069597Y0029057D01*
X0069567Y0029003D01*
X0069540Y0028947D01*
X0069516Y0028890D01*
X0069496Y0028832D01*
X0069480Y0028773D01*
X0069467Y0028712D01*
X0069457Y0028651D01*
X0069452Y0028590D01*
X0069450Y0028528D01*
X0069452Y0028465D01*
X0069458Y0028402D01*
X0069467Y0028339D01*
X0069481Y0028277D01*
X0069498Y0028216D01*
X0069519Y0028156D01*
X0069543Y0028098D01*
X0069571Y0028041D01*
X0069603Y0027986D01*
X0069638Y0027933D01*
X0069676Y0027882D01*
X0069717Y0027834D01*
X0069760Y0027788D01*
X0069807Y0027745D01*
X0069856Y0027705D01*
X0069907Y0027668D01*
X0069961Y0027634D01*
X0073628Y0026994D02*
X0073628Y0025717D01*
X0073628Y0026483D02*
X0075672Y0026483D01*
X0075672Y0026994D01*
X0075670Y0027057D01*
X0075664Y0027120D01*
X0075655Y0027182D01*
X0075641Y0027243D01*
X0075624Y0027304D01*
X0075603Y0027363D01*
X0075578Y0027421D01*
X0075550Y0027478D01*
X0075519Y0027532D01*
X0075484Y0027584D01*
X0075446Y0027635D01*
X0075405Y0027683D01*
X0075361Y0027728D01*
X0075315Y0027770D01*
X0075266Y0027810D01*
X0075215Y0027846D01*
X0075161Y0027879D01*
X0075106Y0027909D01*
X0075048Y0027935D01*
X0074990Y0027958D01*
X0074930Y0027977D01*
X0074869Y0027992D01*
X0074807Y0028004D01*
X0074744Y0028012D01*
X0074681Y0028016D01*
X0074619Y0028016D01*
X0074556Y0028012D01*
X0074493Y0028004D01*
X0074431Y0027992D01*
X0074370Y0027977D01*
X0074310Y0027958D01*
X0074252Y0027935D01*
X0074194Y0027909D01*
X0074139Y0027879D01*
X0074085Y0027846D01*
X0074034Y0027810D01*
X0073985Y0027770D01*
X0073939Y0027728D01*
X0073895Y0027683D01*
X0073854Y0027635D01*
X0073816Y0027584D01*
X0073781Y0027532D01*
X0073750Y0027478D01*
X0073722Y0027421D01*
X0073697Y0027363D01*
X0073676Y0027304D01*
X0073659Y0027243D01*
X0073645Y0027182D01*
X0073636Y0027120D01*
X0073630Y0027057D01*
X0073628Y0026994D01*
X0073627Y0025717D02*
X0073629Y0025662D01*
X0073635Y0025608D01*
X0073645Y0025554D01*
X0073658Y0025501D01*
X0073675Y0025449D01*
X0073696Y0025398D01*
X0073721Y0025349D01*
X0073749Y0025302D01*
X0073780Y0025257D01*
X0073814Y0025215D01*
X0073852Y0025175D01*
X0073892Y0025137D01*
X0073934Y0025103D01*
X0073979Y0025072D01*
X0074026Y0025044D01*
X0074075Y0025019D01*
X0074126Y0024998D01*
X0074178Y0024981D01*
X0074231Y0024968D01*
X0074285Y0024958D01*
X0074339Y0024952D01*
X0074394Y0024950D01*
X0075672Y0024950D01*
X0077678Y0024950D02*
X0077678Y0028017D01*
X0078956Y0028017D01*
X0079011Y0028015D01*
X0079065Y0028009D01*
X0079119Y0027999D01*
X0079172Y0027986D01*
X0079224Y0027969D01*
X0079275Y0027948D01*
X0079324Y0027923D01*
X0079371Y0027895D01*
X0079416Y0027864D01*
X0079458Y0027830D01*
X0079498Y0027792D01*
X0079536Y0027752D01*
X0079570Y0027710D01*
X0079601Y0027665D01*
X0079629Y0027618D01*
X0079654Y0027569D01*
X0079675Y0027518D01*
X0079692Y0027466D01*
X0079705Y0027413D01*
X0079715Y0027359D01*
X0079721Y0027305D01*
X0079723Y0027250D01*
X0079722Y0027250D02*
X0079722Y0024950D01*
X0082366Y0028017D02*
X0082465Y0028014D01*
X0082564Y0028007D01*
X0082662Y0027997D01*
X0082760Y0027984D01*
X0082858Y0027968D01*
X0082955Y0027948D01*
X0083051Y0027925D01*
X0083146Y0027898D01*
X0083240Y0027869D01*
X0083333Y0027836D01*
X0083426Y0027800D01*
X0083516Y0027761D01*
X0082366Y0028017D02*
X0082315Y0028016D01*
X0082265Y0028011D01*
X0082214Y0028001D01*
X0082165Y0027989D01*
X0082117Y0027972D01*
X0082070Y0027951D01*
X0082024Y0027928D01*
X0081981Y0027900D01*
X0081940Y0027870D01*
X0081902Y0027836D01*
X0081866Y0027800D01*
X0081833Y0027760D01*
X0081803Y0027719D01*
X0081777Y0027675D01*
X0081754Y0027630D01*
X0081735Y0027582D01*
X0081719Y0027534D01*
X0081707Y0027484D01*
X0081699Y0027434D01*
X0081695Y0027383D01*
X0081694Y0027332D01*
X0081698Y0027281D01*
X0081706Y0027230D01*
X0081717Y0027180D01*
X0081732Y0027131D01*
X0081751Y0027084D01*
X0081774Y0027038D01*
X0081800Y0026994D01*
X0081829Y0026952D01*
X0081862Y0026913D01*
X0081897Y0026876D01*
X0081936Y0026842D01*
X0081976Y0026811D01*
X0082019Y0026784D01*
X0082064Y0026759D01*
X0082111Y0026738D01*
X0082111Y0026739D02*
X0083389Y0026228D01*
X0083389Y0026229D02*
X0083436Y0026208D01*
X0083481Y0026183D01*
X0083524Y0026156D01*
X0083564Y0026125D01*
X0083603Y0026091D01*
X0083638Y0026054D01*
X0083671Y0026015D01*
X0083700Y0025973D01*
X0083726Y0025929D01*
X0083749Y0025883D01*
X0083768Y0025836D01*
X0083783Y0025787D01*
X0083794Y0025737D01*
X0083802Y0025686D01*
X0083806Y0025635D01*
X0083805Y0025584D01*
X0083801Y0025533D01*
X0083793Y0025483D01*
X0083781Y0025433D01*
X0083765Y0025385D01*
X0083746Y0025337D01*
X0083723Y0025292D01*
X0083697Y0025248D01*
X0083667Y0025207D01*
X0083634Y0025167D01*
X0083598Y0025131D01*
X0083560Y0025097D01*
X0083519Y0025067D01*
X0083476Y0025039D01*
X0083430Y0025016D01*
X0083383Y0024995D01*
X0083335Y0024978D01*
X0083286Y0024966D01*
X0083235Y0024956D01*
X0083185Y0024951D01*
X0083134Y0024950D01*
X0085628Y0025972D02*
X0085628Y0026994D01*
X0085630Y0027057D01*
X0085636Y0027120D01*
X0085645Y0027182D01*
X0085659Y0027243D01*
X0085676Y0027304D01*
X0085697Y0027363D01*
X0085722Y0027421D01*
X0085750Y0027478D01*
X0085781Y0027532D01*
X0085816Y0027584D01*
X0085854Y0027635D01*
X0085895Y0027683D01*
X0085939Y0027728D01*
X0085985Y0027770D01*
X0086034Y0027810D01*
X0086085Y0027846D01*
X0086139Y0027879D01*
X0086194Y0027909D01*
X0086252Y0027935D01*
X0086310Y0027958D01*
X0086370Y0027977D01*
X0086431Y0027992D01*
X0086493Y0028004D01*
X0086556Y0028012D01*
X0086619Y0028016D01*
X0086681Y0028016D01*
X0086744Y0028012D01*
X0086807Y0028004D01*
X0086869Y0027992D01*
X0086930Y0027977D01*
X0086990Y0027958D01*
X0087048Y0027935D01*
X0087106Y0027909D01*
X0087161Y0027879D01*
X0087215Y0027846D01*
X0087266Y0027810D01*
X0087315Y0027770D01*
X0087361Y0027728D01*
X0087405Y0027683D01*
X0087446Y0027635D01*
X0087484Y0027584D01*
X0087519Y0027532D01*
X0087550Y0027478D01*
X0087578Y0027421D01*
X0087603Y0027363D01*
X0087624Y0027304D01*
X0087641Y0027243D01*
X0087655Y0027182D01*
X0087664Y0027120D01*
X0087670Y0027057D01*
X0087672Y0026994D01*
X0087672Y0025972D01*
X0087670Y0025909D01*
X0087664Y0025846D01*
X0087655Y0025784D01*
X0087641Y0025723D01*
X0087624Y0025662D01*
X0087603Y0025603D01*
X0087578Y0025545D01*
X0087550Y0025488D01*
X0087519Y0025434D01*
X0087484Y0025382D01*
X0087446Y0025331D01*
X0087405Y0025283D01*
X0087361Y0025238D01*
X0087315Y0025196D01*
X0087266Y0025156D01*
X0087215Y0025120D01*
X0087161Y0025087D01*
X0087106Y0025057D01*
X0087048Y0025031D01*
X0086990Y0025008D01*
X0086930Y0024989D01*
X0086869Y0024974D01*
X0086807Y0024962D01*
X0086744Y0024954D01*
X0086681Y0024950D01*
X0086619Y0024950D01*
X0086556Y0024954D01*
X0086493Y0024962D01*
X0086431Y0024974D01*
X0086370Y0024989D01*
X0086310Y0025008D01*
X0086252Y0025031D01*
X0086194Y0025057D01*
X0086139Y0025087D01*
X0086085Y0025120D01*
X0086034Y0025156D01*
X0085985Y0025196D01*
X0085939Y0025238D01*
X0085895Y0025283D01*
X0085854Y0025331D01*
X0085816Y0025382D01*
X0085781Y0025434D01*
X0085750Y0025488D01*
X0085722Y0025545D01*
X0085697Y0025603D01*
X0085676Y0025662D01*
X0085659Y0025723D01*
X0085645Y0025784D01*
X0085636Y0025846D01*
X0085630Y0025909D01*
X0085628Y0025972D01*
X0089704Y0024950D02*
X0089704Y0028017D01*
X0091237Y0028017D01*
X0091237Y0027506D01*
X0094928Y0028017D02*
X0095950Y0024950D01*
X0096972Y0028017D01*
X0098722Y0028528D02*
X0100000Y0029550D01*
X0100000Y0024950D01*
X0098722Y0024950D02*
X0101278Y0024950D01*
X0090895Y0033728D02*
X0090893Y0033658D01*
X0090887Y0033587D01*
X0090878Y0033518D01*
X0090864Y0033449D01*
X0090847Y0033380D01*
X0090826Y0033313D01*
X0090801Y0033247D01*
X0090773Y0033183D01*
X0090741Y0033120D01*
X0090706Y0033059D01*
X0090667Y0033000D01*
X0090626Y0032943D01*
X0090581Y0032889D01*
X0090533Y0032837D01*
X0090483Y0032788D01*
X0090429Y0032741D01*
X0090374Y0032698D01*
X0090316Y0032658D01*
X0090256Y0032621D01*
X0090194Y0032588D01*
X0090130Y0032558D01*
X0090065Y0032531D01*
X0089999Y0032508D01*
X0089931Y0032489D01*
X0089862Y0032474D01*
X0089793Y0032462D01*
X0089723Y0032454D01*
X0089652Y0032450D01*
X0089582Y0032450D01*
X0089511Y0032454D01*
X0089441Y0032462D01*
X0089372Y0032474D01*
X0089303Y0032489D01*
X0089235Y0032508D01*
X0089169Y0032531D01*
X0089104Y0032558D01*
X0089040Y0032588D01*
X0088978Y0032621D01*
X0088918Y0032658D01*
X0088860Y0032698D01*
X0088805Y0032741D01*
X0088751Y0032788D01*
X0088701Y0032837D01*
X0088653Y0032889D01*
X0088608Y0032943D01*
X0088567Y0033000D01*
X0088528Y0033059D01*
X0088493Y0033120D01*
X0088461Y0033183D01*
X0088433Y0033247D01*
X0088408Y0033313D01*
X0088387Y0033380D01*
X0088370Y0033449D01*
X0088356Y0033518D01*
X0088347Y0033587D01*
X0088341Y0033658D01*
X0088339Y0033728D01*
X0088341Y0033798D01*
X0088347Y0033869D01*
X0088356Y0033938D01*
X0088370Y0034007D01*
X0088387Y0034076D01*
X0088408Y0034143D01*
X0088433Y0034209D01*
X0088461Y0034273D01*
X0088493Y0034336D01*
X0088528Y0034397D01*
X0088567Y0034456D01*
X0088608Y0034513D01*
X0088653Y0034567D01*
X0088701Y0034619D01*
X0088751Y0034668D01*
X0088805Y0034715D01*
X0088860Y0034758D01*
X0088918Y0034798D01*
X0088978Y0034835D01*
X0089040Y0034868D01*
X0089104Y0034898D01*
X0089169Y0034925D01*
X0089235Y0034948D01*
X0089303Y0034967D01*
X0089372Y0034982D01*
X0089441Y0034994D01*
X0089511Y0035002D01*
X0089582Y0035006D01*
X0089652Y0035006D01*
X0089723Y0035002D01*
X0089793Y0034994D01*
X0089862Y0034982D01*
X0089931Y0034967D01*
X0089999Y0034948D01*
X0090065Y0034925D01*
X0090130Y0034898D01*
X0090194Y0034868D01*
X0090256Y0034835D01*
X0090316Y0034798D01*
X0090374Y0034758D01*
X0090429Y0034715D01*
X0090483Y0034668D01*
X0090533Y0034619D01*
X0090581Y0034567D01*
X0090626Y0034513D01*
X0090667Y0034456D01*
X0090706Y0034397D01*
X0090741Y0034336D01*
X0090773Y0034273D01*
X0090801Y0034209D01*
X0090826Y0034143D01*
X0090847Y0034076D01*
X0090864Y0034007D01*
X0090878Y0033938D01*
X0090887Y0033869D01*
X0090893Y0033798D01*
X0090895Y0033728D01*
X0090639Y0036028D02*
X0090637Y0035965D01*
X0090631Y0035902D01*
X0090622Y0035840D01*
X0090608Y0035779D01*
X0090591Y0035718D01*
X0090570Y0035659D01*
X0090545Y0035601D01*
X0090517Y0035544D01*
X0090486Y0035490D01*
X0090451Y0035438D01*
X0090413Y0035387D01*
X0090372Y0035339D01*
X0090328Y0035294D01*
X0090282Y0035252D01*
X0090233Y0035212D01*
X0090182Y0035176D01*
X0090128Y0035143D01*
X0090073Y0035113D01*
X0090015Y0035087D01*
X0089957Y0035064D01*
X0089897Y0035045D01*
X0089836Y0035030D01*
X0089774Y0035018D01*
X0089711Y0035010D01*
X0089648Y0035006D01*
X0089586Y0035006D01*
X0089523Y0035010D01*
X0089460Y0035018D01*
X0089398Y0035030D01*
X0089337Y0035045D01*
X0089277Y0035064D01*
X0089219Y0035087D01*
X0089161Y0035113D01*
X0089106Y0035143D01*
X0089052Y0035176D01*
X0089001Y0035212D01*
X0088952Y0035252D01*
X0088906Y0035294D01*
X0088862Y0035339D01*
X0088821Y0035387D01*
X0088783Y0035438D01*
X0088748Y0035490D01*
X0088717Y0035544D01*
X0088689Y0035601D01*
X0088664Y0035659D01*
X0088643Y0035718D01*
X0088626Y0035779D01*
X0088612Y0035840D01*
X0088603Y0035902D01*
X0088597Y0035965D01*
X0088595Y0036028D01*
X0088597Y0036091D01*
X0088603Y0036154D01*
X0088612Y0036216D01*
X0088626Y0036277D01*
X0088643Y0036338D01*
X0088664Y0036397D01*
X0088689Y0036455D01*
X0088717Y0036512D01*
X0088748Y0036566D01*
X0088783Y0036618D01*
X0088821Y0036669D01*
X0088862Y0036717D01*
X0088906Y0036762D01*
X0088952Y0036804D01*
X0089001Y0036844D01*
X0089052Y0036880D01*
X0089106Y0036913D01*
X0089161Y0036943D01*
X0089219Y0036969D01*
X0089277Y0036992D01*
X0089337Y0037011D01*
X0089398Y0037026D01*
X0089460Y0037038D01*
X0089523Y0037046D01*
X0089586Y0037050D01*
X0089648Y0037050D01*
X0089711Y0037046D01*
X0089774Y0037038D01*
X0089836Y0037026D01*
X0089897Y0037011D01*
X0089957Y0036992D01*
X0090015Y0036969D01*
X0090073Y0036943D01*
X0090128Y0036913D01*
X0090182Y0036880D01*
X0090233Y0036844D01*
X0090282Y0036804D01*
X0090328Y0036762D01*
X0090372Y0036717D01*
X0090413Y0036669D01*
X0090451Y0036618D01*
X0090486Y0036566D01*
X0090517Y0036512D01*
X0090545Y0036455D01*
X0090570Y0036397D01*
X0090591Y0036338D01*
X0090608Y0036277D01*
X0090622Y0036216D01*
X0090631Y0036154D01*
X0090637Y0036091D01*
X0090639Y0036028D01*
X0086394Y0032450D02*
X0083839Y0032450D01*
X0085117Y0032450D02*
X0085117Y0037050D01*
X0083839Y0036028D01*
X0079339Y0034750D02*
X0079341Y0034635D01*
X0079346Y0034521D01*
X0079355Y0034407D01*
X0079367Y0034293D01*
X0079382Y0034179D01*
X0079401Y0034066D01*
X0079424Y0033954D01*
X0079449Y0033842D01*
X0079479Y0033731D01*
X0079511Y0033621D01*
X0079547Y0033512D01*
X0079586Y0033404D01*
X0079628Y0033298D01*
X0079674Y0033193D01*
X0079722Y0033089D01*
X0079594Y0033472D02*
X0081639Y0036028D01*
X0081512Y0036411D02*
X0081491Y0036466D01*
X0081467Y0036519D01*
X0081440Y0036571D01*
X0081409Y0036621D01*
X0081376Y0036669D01*
X0081339Y0036715D01*
X0081300Y0036759D01*
X0081258Y0036800D01*
X0081214Y0036838D01*
X0081167Y0036874D01*
X0081118Y0036906D01*
X0081067Y0036936D01*
X0081015Y0036962D01*
X0080961Y0036985D01*
X0080906Y0037005D01*
X0080849Y0037021D01*
X0080792Y0037034D01*
X0080734Y0037043D01*
X0080676Y0037048D01*
X0080617Y0037050D01*
X0080558Y0037048D01*
X0080500Y0037043D01*
X0080442Y0037034D01*
X0080385Y0037021D01*
X0080328Y0037005D01*
X0080273Y0036985D01*
X0080219Y0036962D01*
X0080167Y0036936D01*
X0080116Y0036906D01*
X0080067Y0036874D01*
X0080020Y0036838D01*
X0079976Y0036800D01*
X0079934Y0036759D01*
X0079895Y0036715D01*
X0079858Y0036669D01*
X0079825Y0036621D01*
X0079794Y0036571D01*
X0079767Y0036519D01*
X0079743Y0036466D01*
X0079722Y0036411D01*
X0081512Y0036411D02*
X0081560Y0036307D01*
X0081606Y0036202D01*
X0081648Y0036096D01*
X0081687Y0035988D01*
X0081723Y0035879D01*
X0081755Y0035769D01*
X0081785Y0035658D01*
X0081810Y0035546D01*
X0081833Y0035434D01*
X0081852Y0035321D01*
X0081867Y0035207D01*
X0081879Y0035093D01*
X0081888Y0034979D01*
X0081893Y0034865D01*
X0081895Y0034750D01*
X0079339Y0034750D02*
X0079341Y0034865D01*
X0079346Y0034979D01*
X0079355Y0035093D01*
X0079367Y0035207D01*
X0079382Y0035321D01*
X0079401Y0035434D01*
X0079424Y0035546D01*
X0079449Y0035658D01*
X0079479Y0035769D01*
X0079511Y0035879D01*
X0079547Y0035988D01*
X0079586Y0036096D01*
X0079628Y0036202D01*
X0079674Y0036307D01*
X0079722Y0036411D01*
X0081895Y0034750D02*
X0081893Y0034635D01*
X0081888Y0034521D01*
X0081879Y0034407D01*
X0081867Y0034293D01*
X0081852Y0034179D01*
X0081833Y0034066D01*
X0081810Y0033954D01*
X0081785Y0033842D01*
X0081755Y0033731D01*
X0081723Y0033621D01*
X0081687Y0033512D01*
X0081648Y0033404D01*
X0081606Y0033298D01*
X0081560Y0033193D01*
X0081512Y0033089D01*
X0081491Y0033034D01*
X0081467Y0032981D01*
X0081440Y0032929D01*
X0081409Y0032879D01*
X0081376Y0032831D01*
X0081339Y0032785D01*
X0081300Y0032741D01*
X0081258Y0032700D01*
X0081214Y0032662D01*
X0081167Y0032626D01*
X0081118Y0032594D01*
X0081067Y0032564D01*
X0081015Y0032538D01*
X0080961Y0032515D01*
X0080906Y0032495D01*
X0080849Y0032479D01*
X0080792Y0032466D01*
X0080734Y0032457D01*
X0080676Y0032452D01*
X0080617Y0032450D01*
X0080558Y0032452D01*
X0080500Y0032457D01*
X0080442Y0032466D01*
X0080385Y0032479D01*
X0080328Y0032495D01*
X0080273Y0032515D01*
X0080219Y0032538D01*
X0080167Y0032564D01*
X0080116Y0032594D01*
X0080067Y0032626D01*
X0080020Y0032662D01*
X0079976Y0032700D01*
X0079934Y0032741D01*
X0079895Y0032785D01*
X0079858Y0032831D01*
X0079825Y0032879D01*
X0079794Y0032929D01*
X0079767Y0032981D01*
X0079743Y0033034D01*
X0079722Y0033089D01*
X0077394Y0032450D02*
X0074839Y0032450D01*
X0077011Y0035006D01*
X0076244Y0037050D02*
X0076170Y0037048D01*
X0076096Y0037043D01*
X0076022Y0037033D01*
X0075949Y0037020D01*
X0075876Y0037004D01*
X0075805Y0036983D01*
X0075735Y0036959D01*
X0075666Y0036932D01*
X0075598Y0036901D01*
X0075532Y0036867D01*
X0075468Y0036830D01*
X0075406Y0036789D01*
X0075346Y0036745D01*
X0075288Y0036699D01*
X0075232Y0036649D01*
X0075179Y0036597D01*
X0075129Y0036542D01*
X0075082Y0036485D01*
X0075038Y0036425D01*
X0074996Y0036363D01*
X0074958Y0036300D01*
X0074923Y0036234D01*
X0074892Y0036167D01*
X0074864Y0036098D01*
X0074839Y0036028D01*
X0077011Y0035006D02*
X0077058Y0035053D01*
X0077102Y0035103D01*
X0077144Y0035155D01*
X0077183Y0035209D01*
X0077218Y0035265D01*
X0077251Y0035323D01*
X0077281Y0035383D01*
X0077307Y0035444D01*
X0077330Y0035507D01*
X0077349Y0035571D01*
X0077365Y0035635D01*
X0077378Y0035701D01*
X0077387Y0035767D01*
X0077392Y0035833D01*
X0077394Y0035900D01*
X0077392Y0035967D01*
X0077386Y0036034D01*
X0077377Y0036100D01*
X0077363Y0036165D01*
X0077346Y0036230D01*
X0077325Y0036293D01*
X0077300Y0036355D01*
X0077272Y0036416D01*
X0077240Y0036475D01*
X0077205Y0036532D01*
X0077166Y0036587D01*
X0077125Y0036639D01*
X0077080Y0036689D01*
X0077033Y0036736D01*
X0076983Y0036781D01*
X0076931Y0036822D01*
X0076876Y0036861D01*
X0076819Y0036896D01*
X0076760Y0036928D01*
X0076699Y0036956D01*
X0076637Y0036981D01*
X0076574Y0037002D01*
X0076509Y0037019D01*
X0076444Y0037033D01*
X0076378Y0037042D01*
X0076311Y0037048D01*
X0076244Y0037050D01*
X0070742Y0037050D02*
X0068698Y0037050D01*
X0068698Y0032450D01*
X0066463Y0033472D02*
X0066463Y0037050D01*
X0068698Y0035006D02*
X0070742Y0035006D01*
X0066463Y0033472D02*
X0066461Y0033410D01*
X0066456Y0033349D01*
X0066446Y0033288D01*
X0066433Y0033227D01*
X0066417Y0033168D01*
X0066397Y0033110D01*
X0066373Y0033053D01*
X0066346Y0032997D01*
X0066316Y0032943D01*
X0066282Y0032891D01*
X0066246Y0032842D01*
X0066206Y0032794D01*
X0066164Y0032749D01*
X0066119Y0032707D01*
X0066071Y0032667D01*
X0066022Y0032631D01*
X0065970Y0032597D01*
X0065916Y0032567D01*
X0065860Y0032540D01*
X0065803Y0032516D01*
X0065745Y0032496D01*
X0065686Y0032480D01*
X0065625Y0032467D01*
X0065564Y0032457D01*
X0065503Y0032452D01*
X0065441Y0032450D01*
X0064929Y0032450D01*
X0062383Y0032450D02*
X0061106Y0032450D01*
X0061106Y0037050D01*
X0062383Y0037050D01*
X0062446Y0037048D01*
X0062509Y0037042D01*
X0062571Y0037033D01*
X0062632Y0037019D01*
X0062693Y0037002D01*
X0062752Y0036981D01*
X0062810Y0036956D01*
X0062867Y0036928D01*
X0062921Y0036897D01*
X0062973Y0036862D01*
X0063024Y0036824D01*
X0063072Y0036783D01*
X0063117Y0036739D01*
X0063159Y0036693D01*
X0063199Y0036644D01*
X0063235Y0036593D01*
X0063268Y0036539D01*
X0063298Y0036484D01*
X0063324Y0036426D01*
X0063347Y0036368D01*
X0063366Y0036308D01*
X0063381Y0036247D01*
X0063393Y0036185D01*
X0063401Y0036122D01*
X0063405Y0036059D01*
X0063405Y0035997D01*
X0063401Y0035934D01*
X0063393Y0035871D01*
X0063381Y0035809D01*
X0063366Y0035748D01*
X0063347Y0035688D01*
X0063324Y0035630D01*
X0063298Y0035572D01*
X0063268Y0035517D01*
X0063235Y0035463D01*
X0063199Y0035412D01*
X0063159Y0035363D01*
X0063117Y0035317D01*
X0063072Y0035273D01*
X0063024Y0035232D01*
X0062973Y0035194D01*
X0062921Y0035159D01*
X0062867Y0035128D01*
X0062810Y0035100D01*
X0062752Y0035075D01*
X0062693Y0035054D01*
X0062632Y0035037D01*
X0062571Y0035023D01*
X0062509Y0035014D01*
X0062446Y0035008D01*
X0062383Y0035006D01*
X0061106Y0035006D01*
X0062383Y0035006D02*
X0062453Y0035004D01*
X0062524Y0034998D01*
X0062593Y0034989D01*
X0062662Y0034975D01*
X0062731Y0034958D01*
X0062798Y0034937D01*
X0062864Y0034912D01*
X0062928Y0034884D01*
X0062991Y0034852D01*
X0063052Y0034817D01*
X0063111Y0034778D01*
X0063168Y0034737D01*
X0063222Y0034692D01*
X0063274Y0034644D01*
X0063323Y0034594D01*
X0063370Y0034540D01*
X0063413Y0034485D01*
X0063453Y0034427D01*
X0063490Y0034367D01*
X0063523Y0034305D01*
X0063553Y0034241D01*
X0063580Y0034176D01*
X0063603Y0034110D01*
X0063622Y0034042D01*
X0063637Y0033973D01*
X0063649Y0033904D01*
X0063657Y0033834D01*
X0063661Y0033763D01*
X0063661Y0033693D01*
X0063657Y0033622D01*
X0063649Y0033552D01*
X0063637Y0033483D01*
X0063622Y0033414D01*
X0063603Y0033346D01*
X0063580Y0033280D01*
X0063553Y0033215D01*
X0063523Y0033151D01*
X0063490Y0033089D01*
X0063453Y0033029D01*
X0063413Y0032971D01*
X0063370Y0032916D01*
X0063323Y0032862D01*
X0063274Y0032812D01*
X0063222Y0032764D01*
X0063168Y0032719D01*
X0063111Y0032678D01*
X0063052Y0032639D01*
X0062991Y0032604D01*
X0062928Y0032572D01*
X0062864Y0032544D01*
X0062798Y0032519D01*
X0062731Y0032498D01*
X0062662Y0032481D01*
X0062593Y0032467D01*
X0062524Y0032458D01*
X0062453Y0032452D01*
X0062383Y0032450D01*
X0081728Y0025206D02*
X0081851Y0025164D01*
X0081976Y0025125D01*
X0082101Y0025090D01*
X0082228Y0025059D01*
X0082356Y0025032D01*
X0082484Y0025009D01*
X0082613Y0024989D01*
X0082743Y0024974D01*
X0082872Y0024962D01*
X0083003Y0024954D01*
X0083133Y0024950D01*
D12*
X0019000Y0026000D02*
X0013000Y0026000D01*
X0013000Y0016000D02*
X0019000Y0016000D01*
X0019000Y0036000D02*
X0013000Y0036000D01*
X0013000Y0046000D02*
X0019000Y0046000D01*
X0161000Y0158000D02*
X0161000Y0164000D01*
X0171000Y0164000D02*
X0171000Y0158000D01*
X0181000Y0158000D02*
X0181000Y0164000D01*
X0191000Y0164000D02*
X0191000Y0158000D01*
X0201000Y0158000D02*
X0201000Y0164000D01*
X0211000Y0164000D02*
X0211000Y0158000D01*
X0241000Y0158000D02*
X0241000Y0164000D01*
X0251000Y0164000D02*
X0251000Y0158000D01*
X0261000Y0158000D02*
X0261000Y0164000D01*
X0271000Y0164000D02*
X0271000Y0158000D01*
X0271000Y0139000D02*
X0271000Y0133000D01*
X0261000Y0133000D02*
X0261000Y0139000D01*
X0251000Y0139000D02*
X0251000Y0133000D01*
X0241000Y0133000D02*
X0241000Y0139000D01*
X0241000Y0114000D02*
X0241000Y0108000D01*
X0251000Y0108000D02*
X0251000Y0114000D01*
X0261000Y0114000D02*
X0261000Y0108000D01*
X0271000Y0108000D02*
X0271000Y0114000D01*
X0271000Y0089000D02*
X0271000Y0083000D01*
X0261000Y0083000D02*
X0261000Y0089000D01*
X0251000Y0089000D02*
X0251000Y0083000D01*
X0241000Y0083000D02*
X0241000Y0089000D01*
X0246000Y0024000D02*
X0246000Y0018000D01*
X0256000Y0018000D02*
X0256000Y0024000D01*
D13*
X0195843Y0027475D02*
X0195843Y0034525D01*
X0176157Y0034525D02*
X0176157Y0027475D01*
D14*
X0111000Y0067400D02*
X0111000Y0074600D01*
X0101000Y0074600D02*
X0101000Y0067400D01*
X0091000Y0067400D02*
X0091000Y0074600D01*
X0081000Y0074600D02*
X0081000Y0067400D01*
X0071000Y0067400D02*
X0071000Y0074600D01*
X0061000Y0074600D02*
X0061000Y0067400D01*
X0051000Y0067400D02*
X0051000Y0074600D01*
X0041000Y0074600D02*
X0041000Y0067400D01*
X0041000Y0157400D02*
X0041000Y0164600D01*
X0051000Y0164600D02*
X0051000Y0157400D01*
X0061000Y0157400D02*
X0061000Y0164600D01*
X0071000Y0164600D02*
X0071000Y0157400D01*
X0081000Y0157400D02*
X0081000Y0164600D01*
X0091000Y0164600D02*
X0091000Y0157400D01*
X0101000Y0157400D02*
X0101000Y0164600D01*
X0111000Y0164600D02*
X0111000Y0157400D01*
D15*
X0111000Y0131000D03*
X0101000Y0131000D03*
X0071000Y0131000D03*
X0061000Y0131000D03*
X0031000Y0131000D03*
X0071000Y0111000D03*
X0101000Y0111000D03*
X0111000Y0111000D03*
X0141000Y0111000D03*
X0141000Y0131000D03*
D16*
X0126000Y0041000D03*
X0126000Y0031000D03*
X0126000Y0021000D03*
D17*
X0241000Y0048400D02*
X0241000Y0053600D01*
X0251000Y0053600D02*
X0251000Y0048400D01*
X0261000Y0048400D02*
X0261000Y0053600D01*
X0203600Y0096000D02*
X0198400Y0096000D01*
X0198400Y0106000D02*
X0203600Y0106000D01*
X0203600Y0116000D02*
X0198400Y0116000D01*
X0198400Y0126000D02*
X0203600Y0126000D01*
X0173600Y0126000D02*
X0168400Y0126000D01*
X0168400Y0116000D02*
X0173600Y0116000D01*
X0173600Y0106000D02*
X0168400Y0106000D01*
X0168400Y0096000D02*
X0173600Y0096000D01*
D18*
X0169600Y0099700D02*
X0197200Y0099700D01*
X0200800Y0096100D01*
X0201000Y0096000D01*
X0207100Y0092500D02*
X0133000Y0092500D01*
X0118000Y0107500D01*
X0109600Y0107500D02*
X0069400Y0107500D01*
X0067300Y0109600D01*
X0067300Y0112300D01*
X0085900Y0130900D01*
X0100900Y0130900D01*
X0101000Y0131000D01*
X0140500Y0170500D01*
X0201700Y0170500D01*
X0211000Y0161200D01*
X0211000Y0161000D01*
X0199300Y0154000D02*
X0195100Y0158200D01*
X0195100Y0165700D01*
X0192700Y0168100D01*
X0141700Y0168100D01*
X0111000Y0161000D02*
X0110800Y0160900D01*
X0110800Y0157600D01*
X0066100Y0112900D01*
X0066100Y0109000D01*
X0095800Y0079300D01*
X0102700Y0079300D01*
X0106300Y0075700D01*
X0106300Y0050500D01*
X0125800Y0031000D01*
X0126000Y0031000D01*
X0104200Y0022600D02*
X0104200Y0057700D01*
X0091000Y0070900D01*
X0091000Y0071000D01*
X0081100Y0070900D02*
X0081000Y0071000D01*
X0081100Y0070900D02*
X0073000Y0062800D01*
X0070900Y0062800D01*
X0040000Y0031900D01*
X0013300Y0031900D01*
X0009100Y0027700D01*
X0009100Y0024100D01*
X0016000Y0017200D01*
X0016000Y0016000D01*
X0016000Y0025900D02*
X0016000Y0026000D01*
X0016000Y0025900D02*
X0044500Y0025900D01*
X0048400Y0022000D01*
X0103600Y0022000D01*
X0104200Y0022600D01*
X0186100Y0031000D02*
X0109600Y0107500D01*
X0141000Y0111000D02*
X0141100Y0110800D01*
X0158500Y0110800D01*
X0169600Y0099700D01*
X0171000Y0106000D02*
X0176800Y0106000D01*
X0181900Y0100900D01*
X0236200Y0100900D01*
X0250900Y0086200D01*
X0251000Y0086000D01*
X0253600Y0095500D02*
X0247900Y0095500D01*
X0233800Y0109600D01*
X0199600Y0109600D01*
X0193300Y0115900D01*
X0171100Y0115900D01*
X0171000Y0116000D01*
X0172300Y0112300D02*
X0144700Y0112300D01*
X0142300Y0114700D01*
X0074800Y0114700D01*
X0071200Y0111100D01*
X0071000Y0111000D01*
X0070900Y0130900D02*
X0061000Y0130900D01*
X0061000Y0131000D01*
X0056200Y0131200D02*
X0077800Y0152800D01*
X0092800Y0152800D01*
X0101000Y0161000D01*
X0071000Y0131000D02*
X0070900Y0130900D01*
X0056200Y0131200D02*
X0031000Y0131200D01*
X0031000Y0131000D01*
X0016000Y0136000D02*
X0041000Y0161000D01*
X0016000Y0136000D02*
X0016000Y0046000D01*
X0141000Y0131000D02*
X0141100Y0130900D01*
X0186100Y0130900D01*
X0201000Y0116000D01*
X0201000Y0106000D02*
X0178600Y0106000D01*
X0172300Y0112300D01*
X0207100Y0092500D02*
X0248500Y0051100D01*
X0250900Y0051100D01*
X0251000Y0051000D01*
X0261000Y0051000D02*
X0261100Y0051100D01*
X0261100Y0076000D01*
X0271000Y0085900D01*
X0271000Y0086000D01*
X0256000Y0096700D02*
X0256000Y0021000D01*
X0195843Y0031000D02*
X0186100Y0031000D01*
X0256000Y0096700D02*
X0247000Y0105700D01*
X0247000Y0113800D01*
X0242800Y0118000D01*
X0233500Y0118000D01*
X0191200Y0160300D01*
X0191200Y0160900D01*
X0191000Y0161000D01*
X0199300Y0154000D02*
X0241000Y0154000D01*
X0241000Y0136000D01*
X0261000Y0136000D02*
X0261100Y0136000D01*
X0261100Y0160900D01*
X0261000Y0161000D01*
X0271000Y0161000D02*
X0271000Y0136000D01*
X0271000Y0111000D01*
X0261100Y0111100D02*
X0261000Y0111000D01*
X0261100Y0111100D02*
X0261100Y0136000D01*
X0241000Y0154000D02*
X0241000Y0161000D01*
D19*
X0223000Y0125800D02*
X0201100Y0125800D01*
X0201000Y0126000D01*
X0200200Y0126700D01*
X0195400Y0126700D01*
X0161200Y0160900D01*
X0161000Y0161000D01*
X0131200Y0131200D01*
X0111100Y0131200D01*
X0111000Y0131000D01*
X0223000Y0125800D02*
X0237700Y0111100D01*
X0241000Y0111100D01*
X0241000Y0111000D01*
D20*
X0253600Y0095500D03*
X0141700Y0168100D03*
X0118000Y0107500D03*
M02*
