G75*
%MOIN*%
%OFA0B0*%
%FSLAX25Y25*%
%IPPOS*%
%LPD*%
%AMOC8*
5,1,8,0,0,1.08239X$1,22.5*
%
%ADD10C,0.00600*%
%ADD11C,0.00500*%
%ADD12C,0.00400*%
%ADD13C,0.00800*%
%ADD14R,0.01500X0.02000*%
D10*
X0013500Y0011000D02*
X0011000Y0013500D01*
X0011000Y0018500D01*
X0013500Y0021000D01*
X0011000Y0023500D01*
X0011000Y0028500D01*
X0013500Y0031000D01*
X0011000Y0033500D01*
X0011000Y0038500D01*
X0013500Y0041000D01*
X0011000Y0043500D01*
X0011000Y0048500D01*
X0013500Y0051000D01*
X0018500Y0051000D01*
X0021000Y0048500D01*
X0021000Y0043500D01*
X0018500Y0041000D01*
X0021000Y0038500D01*
X0021000Y0033500D01*
X0018500Y0031000D01*
X0013500Y0031000D01*
X0018500Y0031000D02*
X0021000Y0028500D01*
X0021000Y0023500D01*
X0018500Y0021000D01*
X0021000Y0018500D01*
X0021000Y0013500D01*
X0018500Y0011000D01*
X0013500Y0011000D01*
X0013500Y0021000D02*
X0018500Y0021000D01*
X0018500Y0041000D02*
X0013500Y0041000D01*
X0077000Y0107000D02*
X0078500Y0107000D01*
X0079000Y0107500D01*
X0093000Y0107500D01*
X0093500Y0107000D01*
X0095000Y0107000D01*
X0095060Y0107002D01*
X0095121Y0107007D01*
X0095180Y0107016D01*
X0095239Y0107029D01*
X0095298Y0107045D01*
X0095355Y0107065D01*
X0095410Y0107088D01*
X0095465Y0107115D01*
X0095517Y0107144D01*
X0095568Y0107177D01*
X0095617Y0107213D01*
X0095663Y0107251D01*
X0095707Y0107293D01*
X0095749Y0107337D01*
X0095787Y0107383D01*
X0095823Y0107432D01*
X0095856Y0107483D01*
X0095885Y0107535D01*
X0095912Y0107590D01*
X0095935Y0107645D01*
X0095955Y0107702D01*
X0095971Y0107761D01*
X0095984Y0107820D01*
X0095993Y0107879D01*
X0095998Y0107940D01*
X0096000Y0108000D01*
X0096000Y0114000D01*
X0095998Y0114060D01*
X0095993Y0114121D01*
X0095984Y0114180D01*
X0095971Y0114239D01*
X0095955Y0114298D01*
X0095935Y0114355D01*
X0095912Y0114410D01*
X0095885Y0114465D01*
X0095856Y0114517D01*
X0095823Y0114568D01*
X0095787Y0114617D01*
X0095749Y0114663D01*
X0095707Y0114707D01*
X0095663Y0114749D01*
X0095617Y0114787D01*
X0095568Y0114823D01*
X0095517Y0114856D01*
X0095465Y0114885D01*
X0095410Y0114912D01*
X0095355Y0114935D01*
X0095298Y0114955D01*
X0095239Y0114971D01*
X0095180Y0114984D01*
X0095121Y0114993D01*
X0095060Y0114998D01*
X0095000Y0115000D01*
X0093500Y0115000D01*
X0093000Y0114500D01*
X0079000Y0114500D01*
X0078500Y0115000D01*
X0077000Y0115000D01*
X0076940Y0114998D01*
X0076879Y0114993D01*
X0076820Y0114984D01*
X0076761Y0114971D01*
X0076702Y0114955D01*
X0076645Y0114935D01*
X0076590Y0114912D01*
X0076535Y0114885D01*
X0076483Y0114856D01*
X0076432Y0114823D01*
X0076383Y0114787D01*
X0076337Y0114749D01*
X0076293Y0114707D01*
X0076251Y0114663D01*
X0076213Y0114617D01*
X0076177Y0114568D01*
X0076144Y0114517D01*
X0076115Y0114465D01*
X0076088Y0114410D01*
X0076065Y0114355D01*
X0076045Y0114298D01*
X0076029Y0114239D01*
X0076016Y0114180D01*
X0076007Y0114121D01*
X0076002Y0114060D01*
X0076000Y0114000D01*
X0076000Y0108000D01*
X0076002Y0107940D01*
X0076007Y0107879D01*
X0076016Y0107820D01*
X0076029Y0107761D01*
X0076045Y0107702D01*
X0076065Y0107645D01*
X0076088Y0107590D01*
X0076115Y0107535D01*
X0076144Y0107483D01*
X0076177Y0107432D01*
X0076213Y0107383D01*
X0076251Y0107337D01*
X0076293Y0107293D01*
X0076337Y0107251D01*
X0076383Y0107213D01*
X0076432Y0107177D01*
X0076483Y0107144D01*
X0076535Y0107115D01*
X0076590Y0107088D01*
X0076645Y0107065D01*
X0076702Y0107045D01*
X0076761Y0107029D01*
X0076820Y0107016D01*
X0076879Y0107007D01*
X0076940Y0107002D01*
X0077000Y0107000D01*
X0077000Y0127000D02*
X0078500Y0127000D01*
X0079000Y0127500D01*
X0093000Y0127500D01*
X0093500Y0127000D01*
X0095000Y0127000D01*
X0095060Y0127002D01*
X0095121Y0127007D01*
X0095180Y0127016D01*
X0095239Y0127029D01*
X0095298Y0127045D01*
X0095355Y0127065D01*
X0095410Y0127088D01*
X0095465Y0127115D01*
X0095517Y0127144D01*
X0095568Y0127177D01*
X0095617Y0127213D01*
X0095663Y0127251D01*
X0095707Y0127293D01*
X0095749Y0127337D01*
X0095787Y0127383D01*
X0095823Y0127432D01*
X0095856Y0127483D01*
X0095885Y0127535D01*
X0095912Y0127590D01*
X0095935Y0127645D01*
X0095955Y0127702D01*
X0095971Y0127761D01*
X0095984Y0127820D01*
X0095993Y0127879D01*
X0095998Y0127940D01*
X0096000Y0128000D01*
X0096000Y0134000D01*
X0095998Y0134060D01*
X0095993Y0134121D01*
X0095984Y0134180D01*
X0095971Y0134239D01*
X0095955Y0134298D01*
X0095935Y0134355D01*
X0095912Y0134410D01*
X0095885Y0134465D01*
X0095856Y0134517D01*
X0095823Y0134568D01*
X0095787Y0134617D01*
X0095749Y0134663D01*
X0095707Y0134707D01*
X0095663Y0134749D01*
X0095617Y0134787D01*
X0095568Y0134823D01*
X0095517Y0134856D01*
X0095465Y0134885D01*
X0095410Y0134912D01*
X0095355Y0134935D01*
X0095298Y0134955D01*
X0095239Y0134971D01*
X0095180Y0134984D01*
X0095121Y0134993D01*
X0095060Y0134998D01*
X0095000Y0135000D01*
X0093500Y0135000D01*
X0093000Y0134500D01*
X0079000Y0134500D01*
X0078500Y0135000D01*
X0077000Y0135000D01*
X0076940Y0134998D01*
X0076879Y0134993D01*
X0076820Y0134984D01*
X0076761Y0134971D01*
X0076702Y0134955D01*
X0076645Y0134935D01*
X0076590Y0134912D01*
X0076535Y0134885D01*
X0076483Y0134856D01*
X0076432Y0134823D01*
X0076383Y0134787D01*
X0076337Y0134749D01*
X0076293Y0134707D01*
X0076251Y0134663D01*
X0076213Y0134617D01*
X0076177Y0134568D01*
X0076144Y0134517D01*
X0076115Y0134465D01*
X0076088Y0134410D01*
X0076065Y0134355D01*
X0076045Y0134298D01*
X0076029Y0134239D01*
X0076016Y0134180D01*
X0076007Y0134121D01*
X0076002Y0134060D01*
X0076000Y0134000D01*
X0076000Y0128000D01*
X0076002Y0127940D01*
X0076007Y0127879D01*
X0076016Y0127820D01*
X0076029Y0127761D01*
X0076045Y0127702D01*
X0076065Y0127645D01*
X0076088Y0127590D01*
X0076115Y0127535D01*
X0076144Y0127483D01*
X0076177Y0127432D01*
X0076213Y0127383D01*
X0076251Y0127337D01*
X0076293Y0127293D01*
X0076337Y0127251D01*
X0076383Y0127213D01*
X0076432Y0127177D01*
X0076483Y0127144D01*
X0076535Y0127115D01*
X0076590Y0127088D01*
X0076645Y0127065D01*
X0076702Y0127045D01*
X0076761Y0127029D01*
X0076820Y0127016D01*
X0076879Y0127007D01*
X0076940Y0127002D01*
X0077000Y0127000D01*
X0056000Y0128000D02*
X0056000Y0134000D01*
X0055998Y0134060D01*
X0055993Y0134121D01*
X0055984Y0134180D01*
X0055971Y0134239D01*
X0055955Y0134298D01*
X0055935Y0134355D01*
X0055912Y0134410D01*
X0055885Y0134465D01*
X0055856Y0134517D01*
X0055823Y0134568D01*
X0055787Y0134617D01*
X0055749Y0134663D01*
X0055707Y0134707D01*
X0055663Y0134749D01*
X0055617Y0134787D01*
X0055568Y0134823D01*
X0055517Y0134856D01*
X0055465Y0134885D01*
X0055410Y0134912D01*
X0055355Y0134935D01*
X0055298Y0134955D01*
X0055239Y0134971D01*
X0055180Y0134984D01*
X0055121Y0134993D01*
X0055060Y0134998D01*
X0055000Y0135000D01*
X0053500Y0135000D01*
X0053000Y0134500D01*
X0039000Y0134500D01*
X0038500Y0135000D01*
X0037000Y0135000D01*
X0036940Y0134998D01*
X0036879Y0134993D01*
X0036820Y0134984D01*
X0036761Y0134971D01*
X0036702Y0134955D01*
X0036645Y0134935D01*
X0036590Y0134912D01*
X0036535Y0134885D01*
X0036483Y0134856D01*
X0036432Y0134823D01*
X0036383Y0134787D01*
X0036337Y0134749D01*
X0036293Y0134707D01*
X0036251Y0134663D01*
X0036213Y0134617D01*
X0036177Y0134568D01*
X0036144Y0134517D01*
X0036115Y0134465D01*
X0036088Y0134410D01*
X0036065Y0134355D01*
X0036045Y0134298D01*
X0036029Y0134239D01*
X0036016Y0134180D01*
X0036007Y0134121D01*
X0036002Y0134060D01*
X0036000Y0134000D01*
X0036000Y0128000D01*
X0036002Y0127940D01*
X0036007Y0127879D01*
X0036016Y0127820D01*
X0036029Y0127761D01*
X0036045Y0127702D01*
X0036065Y0127645D01*
X0036088Y0127590D01*
X0036115Y0127535D01*
X0036144Y0127483D01*
X0036177Y0127432D01*
X0036213Y0127383D01*
X0036251Y0127337D01*
X0036293Y0127293D01*
X0036337Y0127251D01*
X0036383Y0127213D01*
X0036432Y0127177D01*
X0036483Y0127144D01*
X0036535Y0127115D01*
X0036590Y0127088D01*
X0036645Y0127065D01*
X0036702Y0127045D01*
X0036761Y0127029D01*
X0036820Y0127016D01*
X0036879Y0127007D01*
X0036940Y0127002D01*
X0037000Y0127000D01*
X0038500Y0127000D01*
X0039000Y0127500D01*
X0053000Y0127500D01*
X0053500Y0127000D01*
X0055000Y0127000D01*
X0055060Y0127002D01*
X0055121Y0127007D01*
X0055180Y0127016D01*
X0055239Y0127029D01*
X0055298Y0127045D01*
X0055355Y0127065D01*
X0055410Y0127088D01*
X0055465Y0127115D01*
X0055517Y0127144D01*
X0055568Y0127177D01*
X0055617Y0127213D01*
X0055663Y0127251D01*
X0055707Y0127293D01*
X0055749Y0127337D01*
X0055787Y0127383D01*
X0055823Y0127432D01*
X0055856Y0127483D01*
X0055885Y0127535D01*
X0055912Y0127590D01*
X0055935Y0127645D01*
X0055955Y0127702D01*
X0055971Y0127761D01*
X0055984Y0127820D01*
X0055993Y0127879D01*
X0055998Y0127940D01*
X0056000Y0128000D01*
X0116000Y0128000D02*
X0116000Y0134000D01*
X0116002Y0134060D01*
X0116007Y0134121D01*
X0116016Y0134180D01*
X0116029Y0134239D01*
X0116045Y0134298D01*
X0116065Y0134355D01*
X0116088Y0134410D01*
X0116115Y0134465D01*
X0116144Y0134517D01*
X0116177Y0134568D01*
X0116213Y0134617D01*
X0116251Y0134663D01*
X0116293Y0134707D01*
X0116337Y0134749D01*
X0116383Y0134787D01*
X0116432Y0134823D01*
X0116483Y0134856D01*
X0116535Y0134885D01*
X0116590Y0134912D01*
X0116645Y0134935D01*
X0116702Y0134955D01*
X0116761Y0134971D01*
X0116820Y0134984D01*
X0116879Y0134993D01*
X0116940Y0134998D01*
X0117000Y0135000D01*
X0118500Y0135000D01*
X0119000Y0134500D01*
X0133000Y0134500D01*
X0133500Y0135000D01*
X0135000Y0135000D01*
X0135060Y0134998D01*
X0135121Y0134993D01*
X0135180Y0134984D01*
X0135239Y0134971D01*
X0135298Y0134955D01*
X0135355Y0134935D01*
X0135410Y0134912D01*
X0135465Y0134885D01*
X0135517Y0134856D01*
X0135568Y0134823D01*
X0135617Y0134787D01*
X0135663Y0134749D01*
X0135707Y0134707D01*
X0135749Y0134663D01*
X0135787Y0134617D01*
X0135823Y0134568D01*
X0135856Y0134517D01*
X0135885Y0134465D01*
X0135912Y0134410D01*
X0135935Y0134355D01*
X0135955Y0134298D01*
X0135971Y0134239D01*
X0135984Y0134180D01*
X0135993Y0134121D01*
X0135998Y0134060D01*
X0136000Y0134000D01*
X0136000Y0128000D01*
X0135998Y0127940D01*
X0135993Y0127879D01*
X0135984Y0127820D01*
X0135971Y0127761D01*
X0135955Y0127702D01*
X0135935Y0127645D01*
X0135912Y0127590D01*
X0135885Y0127535D01*
X0135856Y0127483D01*
X0135823Y0127432D01*
X0135787Y0127383D01*
X0135749Y0127337D01*
X0135707Y0127293D01*
X0135663Y0127251D01*
X0135617Y0127213D01*
X0135568Y0127177D01*
X0135517Y0127144D01*
X0135465Y0127115D01*
X0135410Y0127088D01*
X0135355Y0127065D01*
X0135298Y0127045D01*
X0135239Y0127029D01*
X0135180Y0127016D01*
X0135121Y0127007D01*
X0135060Y0127002D01*
X0135000Y0127000D01*
X0133500Y0127000D01*
X0133000Y0127500D01*
X0119000Y0127500D01*
X0118500Y0127000D01*
X0117000Y0127000D01*
X0116940Y0127002D01*
X0116879Y0127007D01*
X0116820Y0127016D01*
X0116761Y0127029D01*
X0116702Y0127045D01*
X0116645Y0127065D01*
X0116590Y0127088D01*
X0116535Y0127115D01*
X0116483Y0127144D01*
X0116432Y0127177D01*
X0116383Y0127213D01*
X0116337Y0127251D01*
X0116293Y0127293D01*
X0116251Y0127337D01*
X0116213Y0127383D01*
X0116177Y0127432D01*
X0116144Y0127483D01*
X0116115Y0127535D01*
X0116088Y0127590D01*
X0116065Y0127645D01*
X0116045Y0127702D01*
X0116029Y0127761D01*
X0116016Y0127820D01*
X0116007Y0127879D01*
X0116002Y0127940D01*
X0116000Y0128000D01*
X0117000Y0115000D02*
X0118500Y0115000D01*
X0119000Y0114500D01*
X0133000Y0114500D01*
X0133500Y0115000D01*
X0135000Y0115000D01*
X0135060Y0114998D01*
X0135121Y0114993D01*
X0135180Y0114984D01*
X0135239Y0114971D01*
X0135298Y0114955D01*
X0135355Y0114935D01*
X0135410Y0114912D01*
X0135465Y0114885D01*
X0135517Y0114856D01*
X0135568Y0114823D01*
X0135617Y0114787D01*
X0135663Y0114749D01*
X0135707Y0114707D01*
X0135749Y0114663D01*
X0135787Y0114617D01*
X0135823Y0114568D01*
X0135856Y0114517D01*
X0135885Y0114465D01*
X0135912Y0114410D01*
X0135935Y0114355D01*
X0135955Y0114298D01*
X0135971Y0114239D01*
X0135984Y0114180D01*
X0135993Y0114121D01*
X0135998Y0114060D01*
X0136000Y0114000D01*
X0136000Y0108000D01*
X0135998Y0107940D01*
X0135993Y0107879D01*
X0135984Y0107820D01*
X0135971Y0107761D01*
X0135955Y0107702D01*
X0135935Y0107645D01*
X0135912Y0107590D01*
X0135885Y0107535D01*
X0135856Y0107483D01*
X0135823Y0107432D01*
X0135787Y0107383D01*
X0135749Y0107337D01*
X0135707Y0107293D01*
X0135663Y0107251D01*
X0135617Y0107213D01*
X0135568Y0107177D01*
X0135517Y0107144D01*
X0135465Y0107115D01*
X0135410Y0107088D01*
X0135355Y0107065D01*
X0135298Y0107045D01*
X0135239Y0107029D01*
X0135180Y0107016D01*
X0135121Y0107007D01*
X0135060Y0107002D01*
X0135000Y0107000D01*
X0133500Y0107000D01*
X0133000Y0107500D01*
X0119000Y0107500D01*
X0118500Y0107000D01*
X0117000Y0107000D01*
X0116940Y0107002D01*
X0116879Y0107007D01*
X0116820Y0107016D01*
X0116761Y0107029D01*
X0116702Y0107045D01*
X0116645Y0107065D01*
X0116590Y0107088D01*
X0116535Y0107115D01*
X0116483Y0107144D01*
X0116432Y0107177D01*
X0116383Y0107213D01*
X0116337Y0107251D01*
X0116293Y0107293D01*
X0116251Y0107337D01*
X0116213Y0107383D01*
X0116177Y0107432D01*
X0116144Y0107483D01*
X0116115Y0107535D01*
X0116088Y0107590D01*
X0116065Y0107645D01*
X0116045Y0107702D01*
X0116029Y0107761D01*
X0116016Y0107820D01*
X0116007Y0107879D01*
X0116002Y0107940D01*
X0116000Y0108000D01*
X0116000Y0114000D01*
X0116002Y0114060D01*
X0116007Y0114121D01*
X0116016Y0114180D01*
X0116029Y0114239D01*
X0116045Y0114298D01*
X0116065Y0114355D01*
X0116088Y0114410D01*
X0116115Y0114465D01*
X0116144Y0114517D01*
X0116177Y0114568D01*
X0116213Y0114617D01*
X0116251Y0114663D01*
X0116293Y0114707D01*
X0116337Y0114749D01*
X0116383Y0114787D01*
X0116432Y0114823D01*
X0116483Y0114856D01*
X0116535Y0114885D01*
X0116590Y0114912D01*
X0116645Y0114935D01*
X0116702Y0114955D01*
X0116761Y0114971D01*
X0116820Y0114984D01*
X0116879Y0114993D01*
X0116940Y0114998D01*
X0117000Y0115000D01*
X0175000Y0131000D02*
X0175000Y0091000D01*
X0197000Y0091000D01*
X0197000Y0131000D01*
X0188500Y0131000D01*
X0188498Y0130902D01*
X0188492Y0130804D01*
X0188483Y0130706D01*
X0188469Y0130609D01*
X0188452Y0130512D01*
X0188431Y0130416D01*
X0188406Y0130321D01*
X0188378Y0130227D01*
X0188345Y0130135D01*
X0188310Y0130043D01*
X0188270Y0129953D01*
X0188228Y0129865D01*
X0188181Y0129778D01*
X0188132Y0129694D01*
X0188079Y0129611D01*
X0188023Y0129531D01*
X0187963Y0129452D01*
X0187901Y0129376D01*
X0187836Y0129303D01*
X0187768Y0129232D01*
X0187697Y0129164D01*
X0187624Y0129099D01*
X0187548Y0129037D01*
X0187469Y0128977D01*
X0187389Y0128921D01*
X0187306Y0128868D01*
X0187222Y0128819D01*
X0187135Y0128772D01*
X0187047Y0128730D01*
X0186957Y0128690D01*
X0186865Y0128655D01*
X0186773Y0128622D01*
X0186679Y0128594D01*
X0186584Y0128569D01*
X0186488Y0128548D01*
X0186391Y0128531D01*
X0186294Y0128517D01*
X0186196Y0128508D01*
X0186098Y0128502D01*
X0186000Y0128500D01*
X0185902Y0128502D01*
X0185804Y0128508D01*
X0185706Y0128517D01*
X0185609Y0128531D01*
X0185512Y0128548D01*
X0185416Y0128569D01*
X0185321Y0128594D01*
X0185227Y0128622D01*
X0185135Y0128655D01*
X0185043Y0128690D01*
X0184953Y0128730D01*
X0184865Y0128772D01*
X0184778Y0128819D01*
X0184694Y0128868D01*
X0184611Y0128921D01*
X0184531Y0128977D01*
X0184452Y0129037D01*
X0184376Y0129099D01*
X0184303Y0129164D01*
X0184232Y0129232D01*
X0184164Y0129303D01*
X0184099Y0129376D01*
X0184037Y0129452D01*
X0183977Y0129531D01*
X0183921Y0129611D01*
X0183868Y0129694D01*
X0183819Y0129778D01*
X0183772Y0129865D01*
X0183730Y0129953D01*
X0183690Y0130043D01*
X0183655Y0130135D01*
X0183622Y0130227D01*
X0183594Y0130321D01*
X0183569Y0130416D01*
X0183548Y0130512D01*
X0183531Y0130609D01*
X0183517Y0130706D01*
X0183508Y0130804D01*
X0183502Y0130902D01*
X0183500Y0131000D01*
X0175000Y0131000D01*
X0173500Y0156000D02*
X0168500Y0156000D01*
X0166000Y0158500D01*
X0163500Y0156000D01*
X0158500Y0156000D01*
X0156000Y0158500D01*
X0156000Y0163500D01*
X0158500Y0166000D01*
X0163500Y0166000D01*
X0166000Y0163500D01*
X0168500Y0166000D01*
X0173500Y0166000D01*
X0176000Y0163500D01*
X0178500Y0166000D01*
X0183500Y0166000D01*
X0186000Y0163500D01*
X0188500Y0166000D01*
X0193500Y0166000D01*
X0196000Y0163500D01*
X0198500Y0166000D01*
X0203500Y0166000D01*
X0206000Y0163500D01*
X0208500Y0166000D01*
X0213500Y0166000D01*
X0216000Y0163500D01*
X0216000Y0158500D01*
X0213500Y0156000D01*
X0208500Y0156000D01*
X0206000Y0158500D01*
X0203500Y0156000D01*
X0198500Y0156000D01*
X0196000Y0158500D01*
X0193500Y0156000D01*
X0188500Y0156000D01*
X0186000Y0158500D01*
X0183500Y0156000D01*
X0178500Y0156000D01*
X0176000Y0158500D01*
X0173500Y0156000D01*
X0236000Y0158500D02*
X0238500Y0156000D01*
X0243500Y0156000D01*
X0246000Y0158500D01*
X0248500Y0156000D01*
X0253500Y0156000D01*
X0256000Y0158500D01*
X0256000Y0163500D01*
X0253500Y0166000D01*
X0248500Y0166000D01*
X0246000Y0163500D01*
X0246000Y0158500D01*
X0246000Y0163500D02*
X0243500Y0166000D01*
X0238500Y0166000D01*
X0236000Y0163500D01*
X0236000Y0158500D01*
X0256000Y0158500D02*
X0258500Y0156000D01*
X0263500Y0156000D01*
X0266000Y0158500D01*
X0268500Y0156000D01*
X0273500Y0156000D01*
X0276000Y0158500D01*
X0276000Y0163500D01*
X0273500Y0166000D01*
X0268500Y0166000D01*
X0266000Y0163500D01*
X0266000Y0158500D01*
X0266000Y0163500D02*
X0263500Y0166000D01*
X0258500Y0166000D01*
X0256000Y0163500D01*
X0253500Y0141000D02*
X0248500Y0141000D01*
X0246000Y0138500D01*
X0246000Y0133500D01*
X0248500Y0131000D01*
X0253500Y0131000D01*
X0256000Y0133500D01*
X0256000Y0138500D01*
X0253500Y0141000D01*
X0256000Y0138500D02*
X0258500Y0141000D01*
X0263500Y0141000D01*
X0266000Y0138500D01*
X0268500Y0141000D01*
X0273500Y0141000D01*
X0276000Y0138500D01*
X0276000Y0133500D01*
X0273500Y0131000D01*
X0268500Y0131000D01*
X0266000Y0133500D01*
X0263500Y0131000D01*
X0258500Y0131000D01*
X0256000Y0133500D01*
X0246000Y0133500D02*
X0243500Y0131000D01*
X0238500Y0131000D01*
X0236000Y0133500D01*
X0236000Y0138500D01*
X0238500Y0141000D01*
X0243500Y0141000D01*
X0246000Y0138500D01*
X0266000Y0138500D02*
X0266000Y0133500D01*
X0263500Y0116000D02*
X0258500Y0116000D01*
X0256000Y0113500D01*
X0256000Y0108500D01*
X0253500Y0106000D01*
X0248500Y0106000D01*
X0246000Y0108500D01*
X0243500Y0106000D01*
X0238500Y0106000D01*
X0236000Y0108500D01*
X0236000Y0113500D01*
X0238500Y0116000D01*
X0243500Y0116000D01*
X0246000Y0113500D01*
X0248500Y0116000D01*
X0253500Y0116000D01*
X0256000Y0113500D01*
X0256000Y0108500D02*
X0258500Y0106000D01*
X0263500Y0106000D01*
X0266000Y0108500D01*
X0268500Y0106000D01*
X0273500Y0106000D01*
X0276000Y0108500D01*
X0276000Y0113500D01*
X0273500Y0116000D01*
X0268500Y0116000D01*
X0266000Y0113500D01*
X0266000Y0108500D01*
X0266000Y0113500D02*
X0263500Y0116000D01*
X0246000Y0113500D02*
X0246000Y0108500D01*
X0243500Y0091000D02*
X0238500Y0091000D01*
X0236000Y0088500D01*
X0236000Y0083500D01*
X0238500Y0081000D01*
X0243500Y0081000D01*
X0246000Y0083500D01*
X0248500Y0081000D01*
X0253500Y0081000D01*
X0256000Y0083500D01*
X0256000Y0088500D01*
X0253500Y0091000D01*
X0248500Y0091000D01*
X0246000Y0088500D01*
X0246000Y0083500D01*
X0246000Y0088500D02*
X0243500Y0091000D01*
X0256000Y0088500D02*
X0258500Y0091000D01*
X0263500Y0091000D01*
X0266000Y0088500D01*
X0268500Y0091000D01*
X0273500Y0091000D01*
X0276000Y0088500D01*
X0276000Y0083500D01*
X0273500Y0081000D01*
X0268500Y0081000D01*
X0266000Y0083500D01*
X0263500Y0081000D01*
X0258500Y0081000D01*
X0256000Y0083500D01*
X0266000Y0083500D02*
X0266000Y0088500D01*
X0205642Y0047500D02*
X0205642Y0038098D01*
X0205642Y0012098D01*
X0205642Y0011299D01*
X0166343Y0011299D01*
X0166343Y0012098D01*
X0166343Y0038098D01*
X0166343Y0047500D01*
X0205642Y0047500D01*
X0205642Y0038098D02*
X0199343Y0038098D01*
X0192343Y0038098D02*
X0179642Y0038098D01*
X0172642Y0038098D02*
X0166343Y0038098D01*
X0174143Y0017300D02*
X0174145Y0017389D01*
X0174151Y0017478D01*
X0174161Y0017567D01*
X0174175Y0017655D01*
X0174192Y0017742D01*
X0174214Y0017828D01*
X0174240Y0017914D01*
X0174269Y0017998D01*
X0174302Y0018081D01*
X0174338Y0018162D01*
X0174379Y0018242D01*
X0174422Y0018319D01*
X0174469Y0018395D01*
X0174520Y0018468D01*
X0174573Y0018539D01*
X0174630Y0018608D01*
X0174690Y0018674D01*
X0174753Y0018738D01*
X0174818Y0018798D01*
X0174886Y0018856D01*
X0174957Y0018910D01*
X0175030Y0018961D01*
X0175105Y0019009D01*
X0175182Y0019054D01*
X0175261Y0019095D01*
X0175342Y0019132D01*
X0175424Y0019166D01*
X0175508Y0019197D01*
X0175593Y0019223D01*
X0175679Y0019246D01*
X0175766Y0019264D01*
X0175854Y0019279D01*
X0175943Y0019290D01*
X0176032Y0019297D01*
X0176121Y0019300D01*
X0176210Y0019299D01*
X0176299Y0019294D01*
X0176387Y0019285D01*
X0176476Y0019272D01*
X0176563Y0019255D01*
X0176650Y0019235D01*
X0176736Y0019210D01*
X0176820Y0019182D01*
X0176903Y0019150D01*
X0176985Y0019114D01*
X0177065Y0019075D01*
X0177143Y0019032D01*
X0177219Y0018986D01*
X0177293Y0018936D01*
X0177365Y0018883D01*
X0177434Y0018827D01*
X0177501Y0018768D01*
X0177565Y0018706D01*
X0177626Y0018642D01*
X0177685Y0018574D01*
X0177740Y0018504D01*
X0177792Y0018432D01*
X0177841Y0018357D01*
X0177886Y0018281D01*
X0177928Y0018202D01*
X0177966Y0018122D01*
X0178001Y0018040D01*
X0178032Y0017956D01*
X0178060Y0017871D01*
X0178083Y0017785D01*
X0178103Y0017698D01*
X0178119Y0017611D01*
X0178131Y0017522D01*
X0178139Y0017434D01*
X0178143Y0017345D01*
X0178143Y0017255D01*
X0178139Y0017166D01*
X0178131Y0017078D01*
X0178119Y0016989D01*
X0178103Y0016902D01*
X0178083Y0016815D01*
X0178060Y0016729D01*
X0178032Y0016644D01*
X0178001Y0016560D01*
X0177966Y0016478D01*
X0177928Y0016398D01*
X0177886Y0016319D01*
X0177841Y0016243D01*
X0177792Y0016168D01*
X0177740Y0016096D01*
X0177685Y0016026D01*
X0177626Y0015958D01*
X0177565Y0015894D01*
X0177501Y0015832D01*
X0177434Y0015773D01*
X0177365Y0015717D01*
X0177293Y0015664D01*
X0177219Y0015614D01*
X0177143Y0015568D01*
X0177065Y0015525D01*
X0176985Y0015486D01*
X0176903Y0015450D01*
X0176820Y0015418D01*
X0176736Y0015390D01*
X0176650Y0015365D01*
X0176563Y0015345D01*
X0176476Y0015328D01*
X0176387Y0015315D01*
X0176299Y0015306D01*
X0176210Y0015301D01*
X0176121Y0015300D01*
X0176032Y0015303D01*
X0175943Y0015310D01*
X0175854Y0015321D01*
X0175766Y0015336D01*
X0175679Y0015354D01*
X0175593Y0015377D01*
X0175508Y0015403D01*
X0175424Y0015434D01*
X0175342Y0015468D01*
X0175261Y0015505D01*
X0175182Y0015546D01*
X0175105Y0015591D01*
X0175030Y0015639D01*
X0174957Y0015690D01*
X0174886Y0015744D01*
X0174818Y0015802D01*
X0174753Y0015862D01*
X0174690Y0015926D01*
X0174630Y0015992D01*
X0174573Y0016061D01*
X0174520Y0016132D01*
X0174469Y0016205D01*
X0174422Y0016281D01*
X0174379Y0016358D01*
X0174338Y0016438D01*
X0174302Y0016519D01*
X0174269Y0016602D01*
X0174240Y0016686D01*
X0174214Y0016772D01*
X0174192Y0016858D01*
X0174175Y0016945D01*
X0174161Y0017033D01*
X0174151Y0017122D01*
X0174145Y0017211D01*
X0174143Y0017300D01*
X0166343Y0012098D02*
X0205642Y0012098D01*
X0193843Y0017300D02*
X0193845Y0017389D01*
X0193851Y0017478D01*
X0193861Y0017567D01*
X0193875Y0017655D01*
X0193892Y0017742D01*
X0193914Y0017828D01*
X0193940Y0017914D01*
X0193969Y0017998D01*
X0194002Y0018081D01*
X0194038Y0018162D01*
X0194079Y0018242D01*
X0194122Y0018319D01*
X0194169Y0018395D01*
X0194220Y0018468D01*
X0194273Y0018539D01*
X0194330Y0018608D01*
X0194390Y0018674D01*
X0194453Y0018738D01*
X0194518Y0018798D01*
X0194586Y0018856D01*
X0194657Y0018910D01*
X0194730Y0018961D01*
X0194805Y0019009D01*
X0194882Y0019054D01*
X0194961Y0019095D01*
X0195042Y0019132D01*
X0195124Y0019166D01*
X0195208Y0019197D01*
X0195293Y0019223D01*
X0195379Y0019246D01*
X0195466Y0019264D01*
X0195554Y0019279D01*
X0195643Y0019290D01*
X0195732Y0019297D01*
X0195821Y0019300D01*
X0195910Y0019299D01*
X0195999Y0019294D01*
X0196087Y0019285D01*
X0196176Y0019272D01*
X0196263Y0019255D01*
X0196350Y0019235D01*
X0196436Y0019210D01*
X0196520Y0019182D01*
X0196603Y0019150D01*
X0196685Y0019114D01*
X0196765Y0019075D01*
X0196843Y0019032D01*
X0196919Y0018986D01*
X0196993Y0018936D01*
X0197065Y0018883D01*
X0197134Y0018827D01*
X0197201Y0018768D01*
X0197265Y0018706D01*
X0197326Y0018642D01*
X0197385Y0018574D01*
X0197440Y0018504D01*
X0197492Y0018432D01*
X0197541Y0018357D01*
X0197586Y0018281D01*
X0197628Y0018202D01*
X0197666Y0018122D01*
X0197701Y0018040D01*
X0197732Y0017956D01*
X0197760Y0017871D01*
X0197783Y0017785D01*
X0197803Y0017698D01*
X0197819Y0017611D01*
X0197831Y0017522D01*
X0197839Y0017434D01*
X0197843Y0017345D01*
X0197843Y0017255D01*
X0197839Y0017166D01*
X0197831Y0017078D01*
X0197819Y0016989D01*
X0197803Y0016902D01*
X0197783Y0016815D01*
X0197760Y0016729D01*
X0197732Y0016644D01*
X0197701Y0016560D01*
X0197666Y0016478D01*
X0197628Y0016398D01*
X0197586Y0016319D01*
X0197541Y0016243D01*
X0197492Y0016168D01*
X0197440Y0016096D01*
X0197385Y0016026D01*
X0197326Y0015958D01*
X0197265Y0015894D01*
X0197201Y0015832D01*
X0197134Y0015773D01*
X0197065Y0015717D01*
X0196993Y0015664D01*
X0196919Y0015614D01*
X0196843Y0015568D01*
X0196765Y0015525D01*
X0196685Y0015486D01*
X0196603Y0015450D01*
X0196520Y0015418D01*
X0196436Y0015390D01*
X0196350Y0015365D01*
X0196263Y0015345D01*
X0196176Y0015328D01*
X0196087Y0015315D01*
X0195999Y0015306D01*
X0195910Y0015301D01*
X0195821Y0015300D01*
X0195732Y0015303D01*
X0195643Y0015310D01*
X0195554Y0015321D01*
X0195466Y0015336D01*
X0195379Y0015354D01*
X0195293Y0015377D01*
X0195208Y0015403D01*
X0195124Y0015434D01*
X0195042Y0015468D01*
X0194961Y0015505D01*
X0194882Y0015546D01*
X0194805Y0015591D01*
X0194730Y0015639D01*
X0194657Y0015690D01*
X0194586Y0015744D01*
X0194518Y0015802D01*
X0194453Y0015862D01*
X0194390Y0015926D01*
X0194330Y0015992D01*
X0194273Y0016061D01*
X0194220Y0016132D01*
X0194169Y0016205D01*
X0194122Y0016281D01*
X0194079Y0016358D01*
X0194038Y0016438D01*
X0194002Y0016519D01*
X0193969Y0016602D01*
X0193940Y0016686D01*
X0193914Y0016772D01*
X0193892Y0016858D01*
X0193875Y0016945D01*
X0193861Y0017033D01*
X0193851Y0017122D01*
X0193845Y0017211D01*
X0193843Y0017300D01*
X0241000Y0018500D02*
X0241000Y0023500D01*
X0243500Y0026000D01*
X0248500Y0026000D01*
X0251000Y0023500D01*
X0253500Y0026000D01*
X0258500Y0026000D01*
X0261000Y0023500D01*
X0261000Y0018500D01*
X0258500Y0016000D01*
X0253500Y0016000D01*
X0251000Y0018500D01*
X0248500Y0016000D01*
X0243500Y0016000D01*
X0241000Y0018500D01*
X0251000Y0018500D02*
X0251000Y0023500D01*
D11*
X0242752Y0044500D02*
X0259248Y0044500D01*
X0256528Y0050500D02*
X0255472Y0050500D01*
X0260546Y0046622D02*
X0260439Y0046397D01*
X0260327Y0046174D01*
X0260210Y0045954D01*
X0260088Y0045737D01*
X0259960Y0045522D01*
X0259827Y0045311D01*
X0259690Y0045103D01*
X0259547Y0044899D01*
X0259400Y0044697D01*
X0259248Y0044500D01*
X0260500Y0055472D02*
X0260388Y0055702D01*
X0260271Y0055929D01*
X0260149Y0056153D01*
X0260021Y0056374D01*
X0259887Y0056591D01*
X0259749Y0056806D01*
X0259605Y0057017D01*
X0259456Y0057224D01*
X0259302Y0057428D01*
X0259144Y0057628D01*
X0258980Y0057824D01*
X0258812Y0058016D01*
X0258639Y0058204D01*
X0258461Y0058388D01*
X0258280Y0058567D01*
X0258093Y0058742D01*
X0257903Y0058912D01*
X0257709Y0059077D01*
X0257510Y0059238D01*
X0257308Y0059394D01*
X0257102Y0059545D01*
X0256892Y0059691D01*
X0256679Y0059831D01*
X0256463Y0059967D01*
X0256243Y0060097D01*
X0256020Y0060222D01*
X0255795Y0060341D01*
X0255566Y0060455D01*
X0255335Y0060563D01*
X0255101Y0060666D01*
X0254865Y0060763D01*
X0254626Y0060854D01*
X0254386Y0060939D01*
X0254143Y0061019D01*
X0253898Y0061092D01*
X0253652Y0061160D01*
X0253404Y0061221D01*
X0253155Y0061276D01*
X0252905Y0061326D01*
X0252653Y0061369D01*
X0252400Y0061406D01*
X0252147Y0061437D01*
X0251893Y0061462D01*
X0251638Y0061481D01*
X0251383Y0061493D01*
X0251128Y0061499D01*
X0250872Y0061499D01*
X0250617Y0061493D01*
X0250362Y0061481D01*
X0250107Y0061462D01*
X0249853Y0061437D01*
X0249600Y0061406D01*
X0249347Y0061369D01*
X0249095Y0061326D01*
X0248845Y0061276D01*
X0248596Y0061221D01*
X0248348Y0061160D01*
X0248102Y0061092D01*
X0247857Y0061019D01*
X0247614Y0060939D01*
X0247374Y0060854D01*
X0247135Y0060763D01*
X0246899Y0060666D01*
X0246665Y0060563D01*
X0246434Y0060455D01*
X0246205Y0060341D01*
X0245980Y0060222D01*
X0245757Y0060097D01*
X0245537Y0059967D01*
X0245321Y0059831D01*
X0245108Y0059691D01*
X0244898Y0059545D01*
X0244692Y0059394D01*
X0244490Y0059238D01*
X0244291Y0059077D01*
X0244097Y0058912D01*
X0243907Y0058742D01*
X0243720Y0058567D01*
X0243539Y0058388D01*
X0243361Y0058204D01*
X0243188Y0058016D01*
X0243020Y0057824D01*
X0242856Y0057628D01*
X0242698Y0057428D01*
X0242544Y0057224D01*
X0242395Y0057017D01*
X0242251Y0056806D01*
X0242113Y0056591D01*
X0241979Y0056374D01*
X0241851Y0056153D01*
X0241729Y0055929D01*
X0241612Y0055702D01*
X0241500Y0055472D01*
X0245472Y0050500D02*
X0246528Y0050500D01*
X0241498Y0046528D02*
X0241602Y0046313D01*
X0241711Y0046100D01*
X0241825Y0045890D01*
X0241944Y0045683D01*
X0242067Y0045478D01*
X0242195Y0045276D01*
X0242328Y0045077D01*
X0242465Y0044882D01*
X0242606Y0044689D01*
X0242752Y0044500D01*
X0202343Y0023250D02*
X0201093Y0022250D01*
X0202343Y0023250D02*
X0202343Y0018750D01*
X0201093Y0018750D02*
X0203593Y0018750D01*
X0184093Y0018750D02*
X0181593Y0018750D01*
X0183718Y0021250D01*
X0182968Y0023250D02*
X0182895Y0023248D01*
X0182823Y0023243D01*
X0182751Y0023234D01*
X0182679Y0023221D01*
X0182608Y0023205D01*
X0182538Y0023185D01*
X0182470Y0023161D01*
X0182402Y0023135D01*
X0182336Y0023104D01*
X0182271Y0023071D01*
X0182209Y0023034D01*
X0182148Y0022995D01*
X0182089Y0022952D01*
X0182032Y0022906D01*
X0181978Y0022858D01*
X0181927Y0022807D01*
X0181877Y0022753D01*
X0181831Y0022697D01*
X0181788Y0022639D01*
X0181747Y0022578D01*
X0181710Y0022516D01*
X0181676Y0022452D01*
X0181645Y0022386D01*
X0181617Y0022319D01*
X0181593Y0022250D01*
X0183717Y0021250D02*
X0183763Y0021296D01*
X0183807Y0021345D01*
X0183847Y0021396D01*
X0183885Y0021449D01*
X0183920Y0021504D01*
X0183952Y0021561D01*
X0183981Y0021619D01*
X0184007Y0021679D01*
X0184029Y0021741D01*
X0184048Y0021803D01*
X0184064Y0021866D01*
X0184076Y0021930D01*
X0184085Y0021995D01*
X0184090Y0022060D01*
X0184092Y0022125D01*
X0184093Y0022125D02*
X0184091Y0022190D01*
X0184085Y0022256D01*
X0184076Y0022320D01*
X0184063Y0022384D01*
X0184046Y0022448D01*
X0184025Y0022510D01*
X0184001Y0022571D01*
X0183973Y0022630D01*
X0183942Y0022688D01*
X0183908Y0022743D01*
X0183870Y0022797D01*
X0183830Y0022848D01*
X0183786Y0022897D01*
X0183740Y0022943D01*
X0183691Y0022987D01*
X0183640Y0023027D01*
X0183586Y0023065D01*
X0183531Y0023099D01*
X0183473Y0023130D01*
X0183414Y0023158D01*
X0183353Y0023182D01*
X0183291Y0023203D01*
X0183227Y0023220D01*
X0183163Y0023233D01*
X0183099Y0023242D01*
X0183033Y0023248D01*
X0182968Y0023250D01*
X0131000Y0066000D02*
X0006000Y0066000D01*
X0006000Y0166000D01*
X0131000Y0166000D01*
X0131242Y0165997D01*
X0131483Y0165988D01*
X0131724Y0165974D01*
X0131965Y0165953D01*
X0132205Y0165927D01*
X0132445Y0165895D01*
X0132684Y0165857D01*
X0132921Y0165814D01*
X0133158Y0165764D01*
X0133393Y0165709D01*
X0133627Y0165649D01*
X0133859Y0165582D01*
X0134090Y0165511D01*
X0134319Y0165433D01*
X0134546Y0165350D01*
X0134771Y0165262D01*
X0134994Y0165168D01*
X0135214Y0165069D01*
X0135432Y0164964D01*
X0135647Y0164855D01*
X0135860Y0164740D01*
X0136070Y0164620D01*
X0136276Y0164495D01*
X0136480Y0164365D01*
X0136681Y0164230D01*
X0136878Y0164090D01*
X0137072Y0163946D01*
X0137262Y0163797D01*
X0137448Y0163643D01*
X0137631Y0163485D01*
X0137810Y0163323D01*
X0137985Y0163156D01*
X0138156Y0162985D01*
X0138323Y0162810D01*
X0138485Y0162631D01*
X0138643Y0162448D01*
X0138797Y0162262D01*
X0138946Y0162072D01*
X0139090Y0161878D01*
X0139230Y0161681D01*
X0139365Y0161480D01*
X0139495Y0161276D01*
X0139620Y0161070D01*
X0139740Y0160860D01*
X0139855Y0160647D01*
X0139964Y0160432D01*
X0140069Y0160214D01*
X0140168Y0159994D01*
X0140262Y0159771D01*
X0140350Y0159546D01*
X0140433Y0159319D01*
X0140511Y0159090D01*
X0140582Y0158859D01*
X0140649Y0158627D01*
X0140709Y0158393D01*
X0140764Y0158158D01*
X0140814Y0157921D01*
X0140857Y0157684D01*
X0140895Y0157445D01*
X0140927Y0157205D01*
X0140953Y0156965D01*
X0140974Y0156724D01*
X0140988Y0156483D01*
X0140997Y0156242D01*
X0141000Y0156000D01*
X0141000Y0076000D01*
X0140997Y0075758D01*
X0140988Y0075517D01*
X0140974Y0075276D01*
X0140953Y0075035D01*
X0140927Y0074795D01*
X0140895Y0074555D01*
X0140857Y0074316D01*
X0140814Y0074079D01*
X0140764Y0073842D01*
X0140709Y0073607D01*
X0140649Y0073373D01*
X0140582Y0073141D01*
X0140511Y0072910D01*
X0140433Y0072681D01*
X0140350Y0072454D01*
X0140262Y0072229D01*
X0140168Y0072006D01*
X0140069Y0071786D01*
X0139964Y0071568D01*
X0139855Y0071353D01*
X0139740Y0071140D01*
X0139620Y0070930D01*
X0139495Y0070724D01*
X0139365Y0070520D01*
X0139230Y0070319D01*
X0139090Y0070122D01*
X0138946Y0069928D01*
X0138797Y0069738D01*
X0138643Y0069552D01*
X0138485Y0069369D01*
X0138323Y0069190D01*
X0138156Y0069015D01*
X0137985Y0068844D01*
X0137810Y0068677D01*
X0137631Y0068515D01*
X0137448Y0068357D01*
X0137262Y0068203D01*
X0137072Y0068054D01*
X0136878Y0067910D01*
X0136681Y0067770D01*
X0136480Y0067635D01*
X0136276Y0067505D01*
X0136070Y0067380D01*
X0135860Y0067260D01*
X0135647Y0067145D01*
X0135432Y0067036D01*
X0135214Y0066931D01*
X0134994Y0066832D01*
X0134771Y0066738D01*
X0134546Y0066650D01*
X0134319Y0066567D01*
X0134090Y0066489D01*
X0133859Y0066418D01*
X0133627Y0066351D01*
X0133393Y0066291D01*
X0133158Y0066236D01*
X0132921Y0066186D01*
X0132684Y0066143D01*
X0132445Y0066105D01*
X0132205Y0066073D01*
X0131965Y0066047D01*
X0131724Y0066026D01*
X0131483Y0066012D01*
X0131242Y0066003D01*
X0131000Y0066000D01*
X0140906Y0084898D02*
X0118071Y0084898D01*
X0118071Y0147890D01*
X0140906Y0147890D01*
X0140906Y0084898D01*
X0118100Y0084900D02*
X0046000Y0084900D01*
X0046000Y0085000D02*
X0046000Y0147900D01*
X0118100Y0147900D01*
X0160750Y0151000D02*
X0160750Y0152250D01*
X0162250Y0152250D01*
X0160750Y0152250D02*
X0160752Y0152337D01*
X0160758Y0152424D01*
X0160767Y0152511D01*
X0160780Y0152597D01*
X0160797Y0152683D01*
X0160818Y0152768D01*
X0160843Y0152851D01*
X0160871Y0152934D01*
X0160902Y0153015D01*
X0160937Y0153095D01*
X0160976Y0153173D01*
X0161018Y0153250D01*
X0161063Y0153325D01*
X0161112Y0153397D01*
X0161163Y0153468D01*
X0161218Y0153536D01*
X0161275Y0153601D01*
X0161336Y0153664D01*
X0161399Y0153725D01*
X0161464Y0153782D01*
X0161532Y0153837D01*
X0161603Y0153888D01*
X0161675Y0153937D01*
X0161750Y0153982D01*
X0161827Y0154024D01*
X0161905Y0154063D01*
X0161985Y0154098D01*
X0162066Y0154129D01*
X0162149Y0154157D01*
X0162232Y0154182D01*
X0162317Y0154203D01*
X0162403Y0154220D01*
X0162489Y0154233D01*
X0162576Y0154242D01*
X0162663Y0154248D01*
X0162750Y0154250D01*
X0162250Y0152250D02*
X0162310Y0152248D01*
X0162371Y0152243D01*
X0162430Y0152234D01*
X0162489Y0152221D01*
X0162548Y0152205D01*
X0162605Y0152185D01*
X0162660Y0152162D01*
X0162715Y0152135D01*
X0162767Y0152106D01*
X0162818Y0152073D01*
X0162867Y0152037D01*
X0162913Y0151999D01*
X0162957Y0151957D01*
X0162999Y0151913D01*
X0163037Y0151867D01*
X0163073Y0151818D01*
X0163106Y0151767D01*
X0163135Y0151715D01*
X0163162Y0151660D01*
X0163185Y0151605D01*
X0163205Y0151548D01*
X0163221Y0151489D01*
X0163234Y0151430D01*
X0163243Y0151371D01*
X0163248Y0151310D01*
X0163250Y0151250D01*
X0163250Y0151000D01*
X0163248Y0150931D01*
X0163242Y0150862D01*
X0163233Y0150794D01*
X0163220Y0150727D01*
X0163203Y0150660D01*
X0163182Y0150594D01*
X0163158Y0150530D01*
X0163130Y0150467D01*
X0163099Y0150405D01*
X0163065Y0150345D01*
X0163027Y0150288D01*
X0162986Y0150232D01*
X0162943Y0150179D01*
X0162896Y0150128D01*
X0162847Y0150080D01*
X0162795Y0150035D01*
X0162740Y0149993D01*
X0162684Y0149954D01*
X0162625Y0149917D01*
X0162564Y0149885D01*
X0162502Y0149855D01*
X0162438Y0149829D01*
X0162373Y0149807D01*
X0162307Y0149788D01*
X0162240Y0149773D01*
X0162172Y0149762D01*
X0162103Y0149754D01*
X0162034Y0149750D01*
X0161966Y0149750D01*
X0161897Y0149754D01*
X0161828Y0149762D01*
X0161760Y0149773D01*
X0161693Y0149788D01*
X0161627Y0149807D01*
X0161562Y0149829D01*
X0161498Y0149855D01*
X0161436Y0149885D01*
X0161375Y0149917D01*
X0161316Y0149954D01*
X0161260Y0149993D01*
X0161205Y0150035D01*
X0161153Y0150080D01*
X0161104Y0150128D01*
X0161057Y0150179D01*
X0161014Y0150232D01*
X0160973Y0150288D01*
X0160935Y0150345D01*
X0160901Y0150405D01*
X0160870Y0150467D01*
X0160842Y0150530D01*
X0160818Y0150594D01*
X0160797Y0150660D01*
X0160780Y0150727D01*
X0160767Y0150794D01*
X0160758Y0150862D01*
X0160752Y0150931D01*
X0160750Y0151000D01*
X0210750Y0167750D02*
X0213250Y0167750D01*
X0212000Y0167750D02*
X0212000Y0172250D01*
X0210750Y0171250D01*
X0118100Y0085000D02*
X0118100Y0084900D01*
D12*
X0069800Y0097209D02*
X0069800Y0098653D01*
X0069800Y0097209D02*
X0064600Y0097209D01*
X0064600Y0098653D01*
X0064602Y0098726D01*
X0064607Y0098799D01*
X0064617Y0098872D01*
X0064630Y0098944D01*
X0064646Y0099015D01*
X0064666Y0099085D01*
X0064690Y0099155D01*
X0064717Y0099222D01*
X0064748Y0099289D01*
X0064781Y0099354D01*
X0064819Y0099417D01*
X0064859Y0099478D01*
X0064902Y0099537D01*
X0064948Y0099594D01*
X0064997Y0099648D01*
X0065049Y0099700D01*
X0065103Y0099749D01*
X0065160Y0099795D01*
X0065219Y0099838D01*
X0065280Y0099878D01*
X0065343Y0099916D01*
X0065408Y0099949D01*
X0065475Y0099980D01*
X0065543Y0100007D01*
X0065612Y0100031D01*
X0065682Y0100051D01*
X0065753Y0100067D01*
X0065825Y0100080D01*
X0065898Y0100090D01*
X0065971Y0100095D01*
X0066044Y0100097D01*
X0066044Y0100098D02*
X0068356Y0100098D01*
X0068356Y0100097D02*
X0068432Y0100095D01*
X0068507Y0100089D01*
X0068582Y0100079D01*
X0068656Y0100065D01*
X0068730Y0100048D01*
X0068802Y0100026D01*
X0068873Y0100001D01*
X0068943Y0099972D01*
X0069012Y0099940D01*
X0069078Y0099904D01*
X0069142Y0099864D01*
X0069205Y0099821D01*
X0069265Y0099775D01*
X0069322Y0099726D01*
X0069377Y0099674D01*
X0069429Y0099619D01*
X0069478Y0099562D01*
X0069524Y0099502D01*
X0069567Y0099439D01*
X0069607Y0099375D01*
X0069643Y0099309D01*
X0069675Y0099240D01*
X0069704Y0099170D01*
X0069729Y0099099D01*
X0069751Y0099027D01*
X0069768Y0098953D01*
X0069782Y0098879D01*
X0069792Y0098804D01*
X0069798Y0098729D01*
X0069800Y0098653D01*
X0069800Y0102417D02*
X0069800Y0105306D01*
X0069800Y0103861D02*
X0064600Y0103861D01*
X0065756Y0102417D01*
X0061400Y0100675D02*
X0056200Y0101831D01*
X0057933Y0099520D02*
X0061400Y0100675D01*
X0061400Y0098364D02*
X0057933Y0099520D01*
X0056200Y0097209D02*
X0061400Y0098364D01*
X0060533Y0103740D02*
X0059089Y0103740D01*
X0059667Y0103740D02*
X0059667Y0106051D01*
X0059089Y0106051D01*
X0059089Y0106052D02*
X0059022Y0106050D01*
X0058955Y0106044D01*
X0058888Y0106034D01*
X0058822Y0106021D01*
X0058757Y0106003D01*
X0058694Y0105982D01*
X0058631Y0105957D01*
X0058570Y0105929D01*
X0058511Y0105897D01*
X0058454Y0105862D01*
X0058399Y0105823D01*
X0058346Y0105782D01*
X0058296Y0105737D01*
X0058248Y0105689D01*
X0058203Y0105639D01*
X0058162Y0105586D01*
X0058123Y0105531D01*
X0058088Y0105474D01*
X0058056Y0105415D01*
X0058028Y0105354D01*
X0058003Y0105291D01*
X0057982Y0105228D01*
X0057964Y0105163D01*
X0057951Y0105097D01*
X0057941Y0105030D01*
X0057935Y0104963D01*
X0057933Y0104896D01*
X0057935Y0104829D01*
X0057941Y0104762D01*
X0057951Y0104695D01*
X0057964Y0104629D01*
X0057982Y0104564D01*
X0058003Y0104501D01*
X0058028Y0104438D01*
X0058056Y0104377D01*
X0058088Y0104318D01*
X0058123Y0104261D01*
X0058162Y0104206D01*
X0058203Y0104153D01*
X0058248Y0104103D01*
X0058296Y0104055D01*
X0058346Y0104010D01*
X0058399Y0103969D01*
X0058454Y0103930D01*
X0058511Y0103895D01*
X0058570Y0103863D01*
X0058631Y0103835D01*
X0058694Y0103810D01*
X0058757Y0103789D01*
X0058822Y0103771D01*
X0058888Y0103758D01*
X0058955Y0103748D01*
X0059022Y0103742D01*
X0059089Y0103740D01*
X0060533Y0103740D02*
X0060590Y0103742D01*
X0060646Y0103747D01*
X0060702Y0103757D01*
X0060757Y0103770D01*
X0060812Y0103786D01*
X0060865Y0103806D01*
X0060916Y0103829D01*
X0060967Y0103856D01*
X0061015Y0103886D01*
X0061061Y0103919D01*
X0061105Y0103955D01*
X0061146Y0103994D01*
X0061185Y0104035D01*
X0061221Y0104079D01*
X0061254Y0104125D01*
X0061284Y0104174D01*
X0061311Y0104224D01*
X0061334Y0104275D01*
X0061354Y0104328D01*
X0061370Y0104383D01*
X0061383Y0104438D01*
X0061393Y0104494D01*
X0061398Y0104550D01*
X0061400Y0104607D01*
X0061400Y0106051D01*
X0061400Y0108371D02*
X0056200Y0108371D01*
X0059089Y0110104D01*
X0056200Y0111837D01*
X0061400Y0111837D01*
X0060244Y0114156D02*
X0059089Y0114156D01*
X0059022Y0114158D01*
X0058955Y0114164D01*
X0058888Y0114174D01*
X0058822Y0114187D01*
X0058757Y0114205D01*
X0058694Y0114226D01*
X0058631Y0114251D01*
X0058570Y0114279D01*
X0058511Y0114311D01*
X0058454Y0114346D01*
X0058399Y0114385D01*
X0058346Y0114426D01*
X0058296Y0114471D01*
X0058248Y0114519D01*
X0058203Y0114569D01*
X0058162Y0114622D01*
X0058123Y0114677D01*
X0058088Y0114734D01*
X0058056Y0114793D01*
X0058028Y0114854D01*
X0058003Y0114917D01*
X0057982Y0114980D01*
X0057964Y0115045D01*
X0057951Y0115111D01*
X0057941Y0115178D01*
X0057935Y0115245D01*
X0057933Y0115312D01*
X0057935Y0115379D01*
X0057941Y0115446D01*
X0057951Y0115513D01*
X0057964Y0115579D01*
X0057982Y0115644D01*
X0058003Y0115707D01*
X0058028Y0115770D01*
X0058056Y0115831D01*
X0058088Y0115890D01*
X0058123Y0115947D01*
X0058162Y0116002D01*
X0058203Y0116055D01*
X0058248Y0116105D01*
X0058296Y0116153D01*
X0058346Y0116198D01*
X0058399Y0116239D01*
X0058454Y0116278D01*
X0058511Y0116313D01*
X0058570Y0116345D01*
X0058631Y0116373D01*
X0058694Y0116398D01*
X0058757Y0116419D01*
X0058822Y0116437D01*
X0058888Y0116450D01*
X0058955Y0116460D01*
X0059022Y0116466D01*
X0059089Y0116468D01*
X0059089Y0116467D02*
X0060244Y0116467D01*
X0060244Y0116468D02*
X0060311Y0116466D01*
X0060378Y0116460D01*
X0060445Y0116450D01*
X0060511Y0116437D01*
X0060576Y0116419D01*
X0060639Y0116398D01*
X0060702Y0116373D01*
X0060763Y0116345D01*
X0060822Y0116313D01*
X0060879Y0116278D01*
X0060934Y0116239D01*
X0060987Y0116198D01*
X0061037Y0116153D01*
X0061085Y0116105D01*
X0061130Y0116055D01*
X0061171Y0116002D01*
X0061210Y0115947D01*
X0061245Y0115890D01*
X0061277Y0115831D01*
X0061305Y0115770D01*
X0061330Y0115707D01*
X0061351Y0115644D01*
X0061369Y0115579D01*
X0061382Y0115513D01*
X0061392Y0115446D01*
X0061398Y0115379D01*
X0061400Y0115312D01*
X0061398Y0115245D01*
X0061392Y0115178D01*
X0061382Y0115111D01*
X0061369Y0115045D01*
X0061351Y0114980D01*
X0061330Y0114917D01*
X0061305Y0114854D01*
X0061277Y0114793D01*
X0061245Y0114734D01*
X0061210Y0114677D01*
X0061171Y0114622D01*
X0061130Y0114569D01*
X0061085Y0114519D01*
X0061037Y0114471D01*
X0060987Y0114426D01*
X0060934Y0114385D01*
X0060879Y0114346D01*
X0060822Y0114311D01*
X0060763Y0114279D01*
X0060702Y0114251D01*
X0060639Y0114226D01*
X0060576Y0114205D01*
X0060511Y0114187D01*
X0060445Y0114174D01*
X0060378Y0114164D01*
X0060311Y0114158D01*
X0060244Y0114156D01*
X0064600Y0115981D02*
X0064600Y0116270D01*
X0064889Y0116270D01*
X0064889Y0115981D01*
X0064600Y0115981D01*
X0066333Y0116125D02*
X0069800Y0116125D01*
X0069800Y0118330D02*
X0066333Y0118330D01*
X0066333Y0119774D01*
X0066335Y0119831D01*
X0066340Y0119887D01*
X0066350Y0119943D01*
X0066363Y0119998D01*
X0066379Y0120053D01*
X0066399Y0120106D01*
X0066422Y0120157D01*
X0066449Y0120207D01*
X0066479Y0120256D01*
X0066512Y0120302D01*
X0066548Y0120346D01*
X0066587Y0120387D01*
X0066628Y0120426D01*
X0066672Y0120462D01*
X0066718Y0120495D01*
X0066766Y0120525D01*
X0066817Y0120552D01*
X0066868Y0120575D01*
X0066921Y0120595D01*
X0066976Y0120611D01*
X0067031Y0120624D01*
X0067087Y0120634D01*
X0067143Y0120639D01*
X0067200Y0120641D01*
X0069800Y0120641D01*
X0069800Y0122845D02*
X0066333Y0122845D01*
X0064889Y0122990D02*
X0064889Y0122701D01*
X0064600Y0122701D01*
X0064600Y0122990D01*
X0064889Y0122990D01*
X0061400Y0123016D02*
X0061400Y0122727D01*
X0061111Y0122727D01*
X0061111Y0123016D01*
X0061400Y0123016D01*
X0060533Y0124914D02*
X0058800Y0124914D01*
X0058800Y0124913D02*
X0058743Y0124915D01*
X0058687Y0124920D01*
X0058631Y0124930D01*
X0058576Y0124943D01*
X0058521Y0124959D01*
X0058468Y0124979D01*
X0058417Y0125002D01*
X0058367Y0125029D01*
X0058318Y0125059D01*
X0058272Y0125092D01*
X0058228Y0125128D01*
X0058187Y0125167D01*
X0058148Y0125208D01*
X0058112Y0125252D01*
X0058079Y0125298D01*
X0058049Y0125347D01*
X0058022Y0125397D01*
X0057999Y0125448D01*
X0057979Y0125501D01*
X0057963Y0125556D01*
X0057950Y0125611D01*
X0057940Y0125667D01*
X0057935Y0125723D01*
X0057933Y0125780D01*
X0057933Y0126936D01*
X0058800Y0128778D02*
X0060533Y0128778D01*
X0060533Y0128777D02*
X0060590Y0128779D01*
X0060646Y0128784D01*
X0060702Y0128794D01*
X0060757Y0128807D01*
X0060812Y0128823D01*
X0060865Y0128843D01*
X0060916Y0128866D01*
X0060967Y0128893D01*
X0061015Y0128923D01*
X0061061Y0128956D01*
X0061105Y0128992D01*
X0061146Y0129031D01*
X0061185Y0129072D01*
X0061221Y0129116D01*
X0061254Y0129162D01*
X0061284Y0129211D01*
X0061311Y0129261D01*
X0061334Y0129312D01*
X0061354Y0129365D01*
X0061370Y0129420D01*
X0061383Y0129475D01*
X0061393Y0129531D01*
X0061398Y0129587D01*
X0061400Y0129644D01*
X0061400Y0130800D01*
X0058800Y0128777D02*
X0058743Y0128779D01*
X0058687Y0128784D01*
X0058631Y0128794D01*
X0058576Y0128807D01*
X0058521Y0128823D01*
X0058468Y0128843D01*
X0058417Y0128866D01*
X0058367Y0128893D01*
X0058318Y0128923D01*
X0058272Y0128956D01*
X0058228Y0128992D01*
X0058187Y0129031D01*
X0058148Y0129072D01*
X0058112Y0129116D01*
X0058079Y0129162D01*
X0058049Y0129211D01*
X0058022Y0129261D01*
X0057999Y0129312D01*
X0057979Y0129365D01*
X0057963Y0129420D01*
X0057950Y0129475D01*
X0057940Y0129531D01*
X0057935Y0129587D01*
X0057933Y0129644D01*
X0057933Y0130800D01*
X0061400Y0126936D02*
X0061400Y0125780D01*
X0061398Y0125723D01*
X0061393Y0125667D01*
X0061383Y0125611D01*
X0061370Y0125556D01*
X0061354Y0125501D01*
X0061334Y0125448D01*
X0061311Y0125397D01*
X0061284Y0125347D01*
X0061254Y0125298D01*
X0061221Y0125252D01*
X0061185Y0125208D01*
X0061146Y0125167D01*
X0061105Y0125128D01*
X0061061Y0125092D01*
X0061015Y0125059D01*
X0060967Y0125029D01*
X0060916Y0125002D01*
X0060865Y0124979D01*
X0060812Y0124959D01*
X0060757Y0124943D01*
X0060702Y0124930D01*
X0060646Y0124920D01*
X0060590Y0124915D01*
X0060533Y0124913D01*
X0059956Y0120402D02*
X0059378Y0118958D01*
X0059377Y0118958D02*
X0059356Y0118909D01*
X0059331Y0118862D01*
X0059303Y0118817D01*
X0059271Y0118774D01*
X0059237Y0118733D01*
X0059200Y0118695D01*
X0059160Y0118659D01*
X0059118Y0118627D01*
X0059073Y0118597D01*
X0059027Y0118571D01*
X0058979Y0118548D01*
X0058929Y0118529D01*
X0058878Y0118513D01*
X0058826Y0118501D01*
X0058774Y0118493D01*
X0058721Y0118488D01*
X0058667Y0118487D01*
X0058614Y0118490D01*
X0058561Y0118497D01*
X0058509Y0118507D01*
X0058458Y0118521D01*
X0058407Y0118539D01*
X0058359Y0118560D01*
X0058311Y0118585D01*
X0058266Y0118613D01*
X0058223Y0118644D01*
X0058182Y0118678D01*
X0058144Y0118715D01*
X0058108Y0118755D01*
X0058075Y0118797D01*
X0058045Y0118841D01*
X0058019Y0118888D01*
X0057996Y0118936D01*
X0057976Y0118985D01*
X0057960Y0119036D01*
X0057948Y0119088D01*
X0057939Y0119140D01*
X0057934Y0119193D01*
X0057933Y0119247D01*
X0061112Y0118524D02*
X0061156Y0118652D01*
X0061196Y0118781D01*
X0061233Y0118911D01*
X0061266Y0119042D01*
X0061296Y0119174D01*
X0061322Y0119306D01*
X0061344Y0119440D01*
X0061363Y0119574D01*
X0061378Y0119708D01*
X0061389Y0119843D01*
X0061397Y0119978D01*
X0061400Y0120113D01*
X0061399Y0120167D01*
X0061394Y0120220D01*
X0061385Y0120272D01*
X0061373Y0120324D01*
X0061357Y0120375D01*
X0061337Y0120424D01*
X0061314Y0120472D01*
X0061288Y0120519D01*
X0061258Y0120563D01*
X0061225Y0120605D01*
X0061189Y0120645D01*
X0061151Y0120682D01*
X0061110Y0120716D01*
X0061067Y0120747D01*
X0061022Y0120775D01*
X0060974Y0120800D01*
X0060926Y0120821D01*
X0060875Y0120839D01*
X0060824Y0120853D01*
X0060772Y0120863D01*
X0060719Y0120870D01*
X0060666Y0120873D01*
X0060612Y0120872D01*
X0060559Y0120867D01*
X0060507Y0120859D01*
X0060455Y0120847D01*
X0060404Y0120831D01*
X0060354Y0120812D01*
X0060306Y0120789D01*
X0060260Y0120763D01*
X0060215Y0120733D01*
X0060173Y0120701D01*
X0060133Y0120665D01*
X0060096Y0120627D01*
X0060062Y0120586D01*
X0060030Y0120543D01*
X0060002Y0120498D01*
X0059977Y0120451D01*
X0059956Y0120402D01*
X0058222Y0120547D02*
X0058178Y0120444D01*
X0058137Y0120340D01*
X0058100Y0120235D01*
X0058067Y0120128D01*
X0058037Y0120020D01*
X0058011Y0119912D01*
X0057989Y0119802D01*
X0057970Y0119692D01*
X0057955Y0119581D01*
X0057944Y0119470D01*
X0057937Y0119359D01*
X0057933Y0119247D01*
X0067200Y0113826D02*
X0069800Y0113826D01*
X0069800Y0112093D02*
X0066333Y0112093D01*
X0066333Y0112960D02*
X0066333Y0110360D01*
X0069800Y0110360D01*
X0067200Y0113827D02*
X0067143Y0113825D01*
X0067087Y0113820D01*
X0067031Y0113810D01*
X0066976Y0113797D01*
X0066921Y0113781D01*
X0066868Y0113761D01*
X0066817Y0113738D01*
X0066767Y0113711D01*
X0066718Y0113681D01*
X0066672Y0113648D01*
X0066628Y0113612D01*
X0066587Y0113573D01*
X0066548Y0113532D01*
X0066512Y0113488D01*
X0066479Y0113442D01*
X0066449Y0113394D01*
X0066422Y0113343D01*
X0066399Y0113292D01*
X0066379Y0113239D01*
X0066363Y0113184D01*
X0066350Y0113129D01*
X0066340Y0113073D01*
X0066335Y0113017D01*
X0066333Y0112960D01*
D13*
X0026000Y0101000D02*
X0026000Y0131000D01*
X0006000Y0131000D01*
X0006000Y0101000D01*
X0026000Y0101000D01*
X0031000Y0146000D02*
X0011000Y0146000D01*
X0011000Y0161000D01*
X0031000Y0161000D01*
X0031000Y0146000D01*
X0117437Y0053894D02*
X0117437Y0008106D01*
X0134563Y0008106D01*
X0134563Y0053894D01*
X0117437Y0053894D01*
D14*
X0115250Y0111000D03*
X0096750Y0111000D03*
X0075250Y0111000D03*
X0075250Y0131000D03*
X0056750Y0131000D03*
X0035250Y0131000D03*
X0096750Y0131000D03*
X0115250Y0131000D03*
X0136750Y0131000D03*
X0136750Y0111000D03*
M02*
