G75*
%MOIN*%
%OFA0B0*%
%FSLAX25Y25*%
%IPPOS*%
%LPD*%
%AMOC8*
5,1,8,0,0,1.08239X$1,22.5*
%
%ADD10C,0.00000*%
%ADD11C,0.00400*%
%ADD12C,0.00512*%
%ADD13C,0.00600*%
%ADD14C,0.06000*%
%ADD15C,0.07050*%
%ADD16C,0.07200*%
%ADD17OC8,0.05200*%
%ADD18C,0.07400*%
%ADD19C,0.05200*%
%ADD20C,0.02978*%
%ADD21C,0.02000*%
D10*
X0038342Y0001256D02*
X0038342Y0176217D01*
X0317043Y0176217D01*
X0317043Y0001256D01*
X0038342Y0001256D01*
D11*
X0089342Y0025206D02*
X0089342Y0029806D01*
X0088064Y0029806D02*
X0090620Y0029806D01*
X0092452Y0028273D02*
X0093474Y0028273D01*
X0093529Y0028271D01*
X0093583Y0028265D01*
X0093637Y0028255D01*
X0093690Y0028242D01*
X0093742Y0028225D01*
X0093793Y0028204D01*
X0093842Y0028179D01*
X0093889Y0028151D01*
X0093934Y0028120D01*
X0093976Y0028086D01*
X0094016Y0028048D01*
X0094054Y0028008D01*
X0094088Y0027966D01*
X0094119Y0027921D01*
X0094147Y0027874D01*
X0094172Y0027825D01*
X0094193Y0027774D01*
X0094210Y0027722D01*
X0094223Y0027669D01*
X0094233Y0027615D01*
X0094239Y0027561D01*
X0094241Y0027506D01*
X0094241Y0025206D01*
X0093091Y0025206D01*
X0093033Y0025208D01*
X0092974Y0025214D01*
X0092917Y0025223D01*
X0092860Y0025236D01*
X0092804Y0025253D01*
X0092749Y0025274D01*
X0092696Y0025298D01*
X0092644Y0025326D01*
X0092594Y0025357D01*
X0092547Y0025391D01*
X0092502Y0025428D01*
X0092459Y0025468D01*
X0092419Y0025511D01*
X0092382Y0025556D01*
X0092348Y0025603D01*
X0092317Y0025653D01*
X0092289Y0025705D01*
X0092265Y0025758D01*
X0092244Y0025813D01*
X0092227Y0025869D01*
X0092214Y0025926D01*
X0092205Y0025983D01*
X0092199Y0026042D01*
X0092197Y0026100D01*
X0092199Y0026158D01*
X0092205Y0026217D01*
X0092214Y0026274D01*
X0092227Y0026331D01*
X0092244Y0026387D01*
X0092265Y0026442D01*
X0092289Y0026495D01*
X0092317Y0026547D01*
X0092348Y0026597D01*
X0092382Y0026644D01*
X0092419Y0026689D01*
X0092459Y0026732D01*
X0092502Y0026772D01*
X0092547Y0026809D01*
X0092594Y0026843D01*
X0092644Y0026874D01*
X0092696Y0026902D01*
X0092749Y0026926D01*
X0092804Y0026947D01*
X0092860Y0026964D01*
X0092917Y0026977D01*
X0092974Y0026986D01*
X0093033Y0026992D01*
X0093091Y0026994D01*
X0093091Y0026995D02*
X0094241Y0026995D01*
X0096420Y0028273D02*
X0096420Y0025206D01*
X0098464Y0025206D02*
X0098464Y0027506D01*
X0098462Y0027561D01*
X0098456Y0027615D01*
X0098446Y0027669D01*
X0098433Y0027722D01*
X0098416Y0027774D01*
X0098395Y0027825D01*
X0098370Y0027874D01*
X0098342Y0027921D01*
X0098311Y0027966D01*
X0098277Y0028008D01*
X0098239Y0028048D01*
X0098199Y0028086D01*
X0098157Y0028120D01*
X0098112Y0028151D01*
X0098065Y0028179D01*
X0098016Y0028204D01*
X0097965Y0028225D01*
X0097913Y0028242D01*
X0097860Y0028255D01*
X0097806Y0028265D01*
X0097752Y0028271D01*
X0097697Y0028273D01*
X0096420Y0028273D01*
X0100673Y0029806D02*
X0100673Y0025206D01*
X0100673Y0026739D02*
X0102717Y0028273D01*
X0101567Y0027378D02*
X0102717Y0025206D01*
X0107303Y0027889D02*
X0108708Y0027123D01*
X0108197Y0025206D02*
X0108107Y0025208D01*
X0108018Y0025213D01*
X0107929Y0025223D01*
X0107840Y0025236D01*
X0107752Y0025252D01*
X0107664Y0025273D01*
X0107578Y0025297D01*
X0107492Y0025324D01*
X0107408Y0025355D01*
X0107325Y0025390D01*
X0107244Y0025428D01*
X0107164Y0025469D01*
X0107087Y0025513D01*
X0107011Y0025561D01*
X0106937Y0025612D01*
X0106865Y0025666D01*
X0106796Y0025723D01*
X0106728Y0025782D01*
X0106664Y0025845D01*
X0108708Y0027122D02*
X0108762Y0027088D01*
X0108813Y0027051D01*
X0108862Y0027011D01*
X0108909Y0026968D01*
X0108952Y0026922D01*
X0108993Y0026874D01*
X0109031Y0026823D01*
X0109066Y0026770D01*
X0109098Y0026715D01*
X0109126Y0026658D01*
X0109150Y0026600D01*
X0109171Y0026540D01*
X0109188Y0026479D01*
X0109202Y0026417D01*
X0109211Y0026354D01*
X0109217Y0026291D01*
X0109219Y0026228D01*
X0109217Y0026166D01*
X0109212Y0026105D01*
X0109202Y0026044D01*
X0109189Y0025983D01*
X0109173Y0025924D01*
X0109153Y0025866D01*
X0109129Y0025809D01*
X0109102Y0025753D01*
X0109072Y0025699D01*
X0109038Y0025647D01*
X0109002Y0025598D01*
X0108962Y0025550D01*
X0108920Y0025505D01*
X0108875Y0025463D01*
X0108827Y0025423D01*
X0108778Y0025387D01*
X0108726Y0025353D01*
X0108672Y0025323D01*
X0108616Y0025296D01*
X0108559Y0025272D01*
X0108501Y0025252D01*
X0108442Y0025236D01*
X0108381Y0025223D01*
X0108320Y0025213D01*
X0108259Y0025208D01*
X0108197Y0025206D01*
X0108964Y0029423D02*
X0108897Y0029471D01*
X0108829Y0029516D01*
X0108758Y0029558D01*
X0108685Y0029596D01*
X0108611Y0029632D01*
X0108536Y0029665D01*
X0108459Y0029694D01*
X0108381Y0029720D01*
X0108302Y0029743D01*
X0108222Y0029762D01*
X0108141Y0029778D01*
X0108060Y0029790D01*
X0107978Y0029799D01*
X0107896Y0029804D01*
X0107814Y0029806D01*
X0107752Y0029804D01*
X0107691Y0029799D01*
X0107630Y0029789D01*
X0107569Y0029776D01*
X0107510Y0029760D01*
X0107452Y0029740D01*
X0107395Y0029716D01*
X0107339Y0029689D01*
X0107285Y0029659D01*
X0107233Y0029625D01*
X0107184Y0029589D01*
X0107136Y0029549D01*
X0107091Y0029507D01*
X0107049Y0029462D01*
X0107010Y0029414D01*
X0106973Y0029365D01*
X0106939Y0029313D01*
X0106909Y0029259D01*
X0106882Y0029203D01*
X0106858Y0029146D01*
X0106838Y0029088D01*
X0106822Y0029029D01*
X0106809Y0028968D01*
X0106799Y0028907D01*
X0106794Y0028846D01*
X0106792Y0028784D01*
X0106794Y0028721D01*
X0106800Y0028658D01*
X0106809Y0028595D01*
X0106823Y0028533D01*
X0106840Y0028472D01*
X0106861Y0028412D01*
X0106885Y0028354D01*
X0106913Y0028297D01*
X0106945Y0028242D01*
X0106980Y0028189D01*
X0107018Y0028138D01*
X0107059Y0028090D01*
X0107102Y0028044D01*
X0107149Y0028001D01*
X0107198Y0027961D01*
X0107249Y0027924D01*
X0107303Y0027890D01*
X0110970Y0027250D02*
X0110970Y0025973D01*
X0110969Y0025973D02*
X0110971Y0025918D01*
X0110977Y0025864D01*
X0110987Y0025810D01*
X0111000Y0025757D01*
X0111017Y0025705D01*
X0111038Y0025654D01*
X0111063Y0025605D01*
X0111091Y0025558D01*
X0111122Y0025513D01*
X0111156Y0025471D01*
X0111194Y0025431D01*
X0111234Y0025393D01*
X0111276Y0025359D01*
X0111321Y0025328D01*
X0111368Y0025300D01*
X0111417Y0025275D01*
X0111468Y0025254D01*
X0111520Y0025237D01*
X0111573Y0025224D01*
X0111627Y0025214D01*
X0111681Y0025208D01*
X0111736Y0025206D01*
X0113014Y0025206D01*
X0113014Y0026739D02*
X0110970Y0026739D01*
X0110970Y0027250D02*
X0110972Y0027313D01*
X0110978Y0027376D01*
X0110987Y0027438D01*
X0111001Y0027499D01*
X0111018Y0027560D01*
X0111039Y0027619D01*
X0111064Y0027677D01*
X0111092Y0027734D01*
X0111123Y0027788D01*
X0111158Y0027840D01*
X0111196Y0027891D01*
X0111237Y0027939D01*
X0111281Y0027984D01*
X0111327Y0028026D01*
X0111376Y0028066D01*
X0111427Y0028102D01*
X0111481Y0028135D01*
X0111536Y0028165D01*
X0111594Y0028191D01*
X0111652Y0028214D01*
X0111712Y0028233D01*
X0111773Y0028248D01*
X0111835Y0028260D01*
X0111898Y0028268D01*
X0111961Y0028272D01*
X0112023Y0028272D01*
X0112086Y0028268D01*
X0112149Y0028260D01*
X0112211Y0028248D01*
X0112272Y0028233D01*
X0112332Y0028214D01*
X0112390Y0028191D01*
X0112448Y0028165D01*
X0112503Y0028135D01*
X0112557Y0028102D01*
X0112608Y0028066D01*
X0112657Y0028026D01*
X0112703Y0027984D01*
X0112747Y0027939D01*
X0112788Y0027891D01*
X0112826Y0027840D01*
X0112861Y0027788D01*
X0112892Y0027734D01*
X0112920Y0027677D01*
X0112945Y0027619D01*
X0112966Y0027560D01*
X0112983Y0027499D01*
X0112997Y0027438D01*
X0113006Y0027376D01*
X0113012Y0027313D01*
X0113014Y0027250D01*
X0113014Y0026739D01*
X0115020Y0025206D02*
X0115020Y0028273D01*
X0116297Y0028273D01*
X0116352Y0028271D01*
X0116406Y0028265D01*
X0116460Y0028255D01*
X0116513Y0028242D01*
X0116565Y0028225D01*
X0116616Y0028204D01*
X0116665Y0028179D01*
X0116712Y0028151D01*
X0116757Y0028120D01*
X0116799Y0028086D01*
X0116839Y0028048D01*
X0116877Y0028008D01*
X0116911Y0027966D01*
X0116942Y0027921D01*
X0116970Y0027874D01*
X0116995Y0027825D01*
X0117016Y0027774D01*
X0117033Y0027722D01*
X0117046Y0027669D01*
X0117056Y0027615D01*
X0117062Y0027561D01*
X0117064Y0027506D01*
X0117064Y0025206D01*
X0119708Y0028273D02*
X0119807Y0028270D01*
X0119906Y0028263D01*
X0120004Y0028253D01*
X0120102Y0028240D01*
X0120200Y0028224D01*
X0120297Y0028204D01*
X0120393Y0028181D01*
X0120488Y0028154D01*
X0120582Y0028125D01*
X0120675Y0028092D01*
X0120768Y0028056D01*
X0120858Y0028017D01*
X0119708Y0028273D02*
X0119657Y0028272D01*
X0119607Y0028267D01*
X0119556Y0028257D01*
X0119507Y0028245D01*
X0119459Y0028228D01*
X0119412Y0028207D01*
X0119366Y0028184D01*
X0119323Y0028156D01*
X0119282Y0028126D01*
X0119244Y0028092D01*
X0119208Y0028056D01*
X0119175Y0028016D01*
X0119145Y0027975D01*
X0119119Y0027931D01*
X0119096Y0027886D01*
X0119077Y0027838D01*
X0119061Y0027790D01*
X0119049Y0027740D01*
X0119041Y0027690D01*
X0119037Y0027639D01*
X0119036Y0027588D01*
X0119040Y0027537D01*
X0119048Y0027486D01*
X0119059Y0027436D01*
X0119074Y0027387D01*
X0119093Y0027340D01*
X0119116Y0027294D01*
X0119142Y0027250D01*
X0119171Y0027208D01*
X0119204Y0027169D01*
X0119239Y0027132D01*
X0119278Y0027098D01*
X0119318Y0027067D01*
X0119361Y0027040D01*
X0119406Y0027015D01*
X0119453Y0026994D01*
X0119453Y0026995D02*
X0120731Y0026484D01*
X0120778Y0026463D01*
X0120823Y0026438D01*
X0120866Y0026411D01*
X0120906Y0026380D01*
X0120945Y0026346D01*
X0120980Y0026309D01*
X0121013Y0026270D01*
X0121042Y0026228D01*
X0121068Y0026184D01*
X0121091Y0026138D01*
X0121110Y0026091D01*
X0121125Y0026042D01*
X0121136Y0025992D01*
X0121144Y0025941D01*
X0121148Y0025890D01*
X0121147Y0025839D01*
X0121143Y0025788D01*
X0121135Y0025738D01*
X0121123Y0025688D01*
X0121107Y0025640D01*
X0121088Y0025592D01*
X0121065Y0025547D01*
X0121039Y0025503D01*
X0121009Y0025462D01*
X0120976Y0025422D01*
X0120940Y0025386D01*
X0120902Y0025352D01*
X0120861Y0025322D01*
X0120818Y0025294D01*
X0120772Y0025271D01*
X0120725Y0025250D01*
X0120677Y0025233D01*
X0120628Y0025221D01*
X0120577Y0025211D01*
X0120527Y0025206D01*
X0120476Y0025205D01*
X0122970Y0026228D02*
X0122970Y0027250D01*
X0122972Y0027313D01*
X0122978Y0027376D01*
X0122987Y0027438D01*
X0123001Y0027499D01*
X0123018Y0027560D01*
X0123039Y0027619D01*
X0123064Y0027677D01*
X0123092Y0027734D01*
X0123123Y0027788D01*
X0123158Y0027840D01*
X0123196Y0027891D01*
X0123237Y0027939D01*
X0123281Y0027984D01*
X0123327Y0028026D01*
X0123376Y0028066D01*
X0123427Y0028102D01*
X0123481Y0028135D01*
X0123536Y0028165D01*
X0123594Y0028191D01*
X0123652Y0028214D01*
X0123712Y0028233D01*
X0123773Y0028248D01*
X0123835Y0028260D01*
X0123898Y0028268D01*
X0123961Y0028272D01*
X0124023Y0028272D01*
X0124086Y0028268D01*
X0124149Y0028260D01*
X0124211Y0028248D01*
X0124272Y0028233D01*
X0124332Y0028214D01*
X0124390Y0028191D01*
X0124448Y0028165D01*
X0124503Y0028135D01*
X0124557Y0028102D01*
X0124608Y0028066D01*
X0124657Y0028026D01*
X0124703Y0027984D01*
X0124747Y0027939D01*
X0124788Y0027891D01*
X0124826Y0027840D01*
X0124861Y0027788D01*
X0124892Y0027734D01*
X0124920Y0027677D01*
X0124945Y0027619D01*
X0124966Y0027560D01*
X0124983Y0027499D01*
X0124997Y0027438D01*
X0125006Y0027376D01*
X0125012Y0027313D01*
X0125014Y0027250D01*
X0125014Y0026228D01*
X0125012Y0026165D01*
X0125006Y0026102D01*
X0124997Y0026040D01*
X0124983Y0025979D01*
X0124966Y0025918D01*
X0124945Y0025859D01*
X0124920Y0025801D01*
X0124892Y0025744D01*
X0124861Y0025690D01*
X0124826Y0025638D01*
X0124788Y0025587D01*
X0124747Y0025539D01*
X0124703Y0025494D01*
X0124657Y0025452D01*
X0124608Y0025412D01*
X0124557Y0025376D01*
X0124503Y0025343D01*
X0124448Y0025313D01*
X0124390Y0025287D01*
X0124332Y0025264D01*
X0124272Y0025245D01*
X0124211Y0025230D01*
X0124149Y0025218D01*
X0124086Y0025210D01*
X0124023Y0025206D01*
X0123961Y0025206D01*
X0123898Y0025210D01*
X0123835Y0025218D01*
X0123773Y0025230D01*
X0123712Y0025245D01*
X0123652Y0025264D01*
X0123594Y0025287D01*
X0123536Y0025313D01*
X0123481Y0025343D01*
X0123427Y0025376D01*
X0123376Y0025412D01*
X0123327Y0025452D01*
X0123281Y0025494D01*
X0123237Y0025539D01*
X0123196Y0025587D01*
X0123158Y0025638D01*
X0123123Y0025690D01*
X0123092Y0025744D01*
X0123064Y0025801D01*
X0123039Y0025859D01*
X0123018Y0025918D01*
X0123001Y0025979D01*
X0122987Y0026040D01*
X0122978Y0026102D01*
X0122972Y0026165D01*
X0122970Y0026228D01*
X0127046Y0025206D02*
X0127046Y0028273D01*
X0128579Y0028273D01*
X0128579Y0027761D01*
X0132270Y0028273D02*
X0133292Y0025206D01*
X0134314Y0028273D01*
X0136064Y0028784D02*
X0137342Y0029806D01*
X0137342Y0025206D01*
X0136064Y0025206D02*
X0138620Y0025206D01*
X0128236Y0033984D02*
X0128234Y0033914D01*
X0128228Y0033843D01*
X0128219Y0033774D01*
X0128205Y0033705D01*
X0128188Y0033636D01*
X0128167Y0033569D01*
X0128142Y0033503D01*
X0128114Y0033439D01*
X0128082Y0033376D01*
X0128047Y0033315D01*
X0128008Y0033256D01*
X0127967Y0033199D01*
X0127922Y0033145D01*
X0127874Y0033093D01*
X0127824Y0033044D01*
X0127770Y0032997D01*
X0127715Y0032954D01*
X0127657Y0032914D01*
X0127597Y0032877D01*
X0127535Y0032844D01*
X0127471Y0032814D01*
X0127406Y0032787D01*
X0127340Y0032764D01*
X0127272Y0032745D01*
X0127203Y0032730D01*
X0127134Y0032718D01*
X0127064Y0032710D01*
X0126993Y0032706D01*
X0126923Y0032706D01*
X0126852Y0032710D01*
X0126782Y0032718D01*
X0126713Y0032730D01*
X0126644Y0032745D01*
X0126576Y0032764D01*
X0126510Y0032787D01*
X0126445Y0032814D01*
X0126381Y0032844D01*
X0126319Y0032877D01*
X0126259Y0032914D01*
X0126201Y0032954D01*
X0126146Y0032997D01*
X0126092Y0033044D01*
X0126042Y0033093D01*
X0125994Y0033145D01*
X0125949Y0033199D01*
X0125908Y0033256D01*
X0125869Y0033315D01*
X0125834Y0033376D01*
X0125802Y0033439D01*
X0125774Y0033503D01*
X0125749Y0033569D01*
X0125728Y0033636D01*
X0125711Y0033705D01*
X0125697Y0033774D01*
X0125688Y0033843D01*
X0125682Y0033914D01*
X0125680Y0033984D01*
X0125682Y0034054D01*
X0125688Y0034125D01*
X0125697Y0034194D01*
X0125711Y0034263D01*
X0125728Y0034332D01*
X0125749Y0034399D01*
X0125774Y0034465D01*
X0125802Y0034529D01*
X0125834Y0034592D01*
X0125869Y0034653D01*
X0125908Y0034712D01*
X0125949Y0034769D01*
X0125994Y0034823D01*
X0126042Y0034875D01*
X0126092Y0034924D01*
X0126146Y0034971D01*
X0126201Y0035014D01*
X0126259Y0035054D01*
X0126319Y0035091D01*
X0126381Y0035124D01*
X0126445Y0035154D01*
X0126510Y0035181D01*
X0126576Y0035204D01*
X0126644Y0035223D01*
X0126713Y0035238D01*
X0126782Y0035250D01*
X0126852Y0035258D01*
X0126923Y0035262D01*
X0126993Y0035262D01*
X0127064Y0035258D01*
X0127134Y0035250D01*
X0127203Y0035238D01*
X0127272Y0035223D01*
X0127340Y0035204D01*
X0127406Y0035181D01*
X0127471Y0035154D01*
X0127535Y0035124D01*
X0127597Y0035091D01*
X0127657Y0035054D01*
X0127715Y0035014D01*
X0127770Y0034971D01*
X0127824Y0034924D01*
X0127874Y0034875D01*
X0127922Y0034823D01*
X0127967Y0034769D01*
X0128008Y0034712D01*
X0128047Y0034653D01*
X0128082Y0034592D01*
X0128114Y0034529D01*
X0128142Y0034465D01*
X0128167Y0034399D01*
X0128188Y0034332D01*
X0128205Y0034263D01*
X0128219Y0034194D01*
X0128228Y0034125D01*
X0128234Y0034054D01*
X0128236Y0033984D01*
X0127980Y0036284D02*
X0127978Y0036221D01*
X0127972Y0036158D01*
X0127963Y0036096D01*
X0127949Y0036035D01*
X0127932Y0035974D01*
X0127911Y0035915D01*
X0127886Y0035857D01*
X0127858Y0035800D01*
X0127827Y0035746D01*
X0127792Y0035694D01*
X0127754Y0035643D01*
X0127713Y0035595D01*
X0127669Y0035550D01*
X0127623Y0035508D01*
X0127574Y0035468D01*
X0127523Y0035432D01*
X0127469Y0035399D01*
X0127414Y0035369D01*
X0127356Y0035343D01*
X0127298Y0035320D01*
X0127238Y0035301D01*
X0127177Y0035286D01*
X0127115Y0035274D01*
X0127052Y0035266D01*
X0126989Y0035262D01*
X0126927Y0035262D01*
X0126864Y0035266D01*
X0126801Y0035274D01*
X0126739Y0035286D01*
X0126678Y0035301D01*
X0126618Y0035320D01*
X0126560Y0035343D01*
X0126502Y0035369D01*
X0126447Y0035399D01*
X0126393Y0035432D01*
X0126342Y0035468D01*
X0126293Y0035508D01*
X0126247Y0035550D01*
X0126203Y0035595D01*
X0126162Y0035643D01*
X0126124Y0035694D01*
X0126089Y0035746D01*
X0126058Y0035800D01*
X0126030Y0035857D01*
X0126005Y0035915D01*
X0125984Y0035974D01*
X0125967Y0036035D01*
X0125953Y0036096D01*
X0125944Y0036158D01*
X0125938Y0036221D01*
X0125936Y0036284D01*
X0125938Y0036347D01*
X0125944Y0036410D01*
X0125953Y0036472D01*
X0125967Y0036533D01*
X0125984Y0036594D01*
X0126005Y0036653D01*
X0126030Y0036711D01*
X0126058Y0036768D01*
X0126089Y0036822D01*
X0126124Y0036874D01*
X0126162Y0036925D01*
X0126203Y0036973D01*
X0126247Y0037018D01*
X0126293Y0037060D01*
X0126342Y0037100D01*
X0126393Y0037136D01*
X0126447Y0037169D01*
X0126502Y0037199D01*
X0126560Y0037225D01*
X0126618Y0037248D01*
X0126678Y0037267D01*
X0126739Y0037282D01*
X0126801Y0037294D01*
X0126864Y0037302D01*
X0126927Y0037306D01*
X0126989Y0037306D01*
X0127052Y0037302D01*
X0127115Y0037294D01*
X0127177Y0037282D01*
X0127238Y0037267D01*
X0127298Y0037248D01*
X0127356Y0037225D01*
X0127414Y0037199D01*
X0127469Y0037169D01*
X0127523Y0037136D01*
X0127574Y0037100D01*
X0127623Y0037060D01*
X0127669Y0037018D01*
X0127713Y0036973D01*
X0127754Y0036925D01*
X0127792Y0036874D01*
X0127827Y0036822D01*
X0127858Y0036768D01*
X0127886Y0036711D01*
X0127911Y0036653D01*
X0127932Y0036594D01*
X0127949Y0036533D01*
X0127963Y0036472D01*
X0127972Y0036410D01*
X0127978Y0036347D01*
X0127980Y0036284D01*
X0123736Y0032706D02*
X0121181Y0032706D01*
X0122458Y0032706D02*
X0122458Y0037306D01*
X0121181Y0036284D01*
X0116681Y0035006D02*
X0116683Y0034891D01*
X0116688Y0034777D01*
X0116697Y0034663D01*
X0116709Y0034549D01*
X0116724Y0034435D01*
X0116743Y0034322D01*
X0116766Y0034210D01*
X0116791Y0034098D01*
X0116821Y0033987D01*
X0116853Y0033877D01*
X0116889Y0033768D01*
X0116928Y0033660D01*
X0116970Y0033554D01*
X0117016Y0033449D01*
X0117064Y0033345D01*
X0116936Y0033728D02*
X0118981Y0036284D01*
X0118853Y0036667D02*
X0118832Y0036722D01*
X0118808Y0036775D01*
X0118781Y0036827D01*
X0118750Y0036877D01*
X0118717Y0036925D01*
X0118680Y0036971D01*
X0118641Y0037015D01*
X0118599Y0037056D01*
X0118555Y0037094D01*
X0118508Y0037130D01*
X0118459Y0037162D01*
X0118408Y0037192D01*
X0118356Y0037218D01*
X0118302Y0037241D01*
X0118247Y0037261D01*
X0118190Y0037277D01*
X0118133Y0037290D01*
X0118075Y0037299D01*
X0118017Y0037304D01*
X0117958Y0037306D01*
X0117899Y0037304D01*
X0117841Y0037299D01*
X0117783Y0037290D01*
X0117726Y0037277D01*
X0117669Y0037261D01*
X0117614Y0037241D01*
X0117560Y0037218D01*
X0117508Y0037192D01*
X0117457Y0037162D01*
X0117408Y0037130D01*
X0117361Y0037094D01*
X0117317Y0037056D01*
X0117275Y0037015D01*
X0117236Y0036971D01*
X0117199Y0036925D01*
X0117166Y0036877D01*
X0117135Y0036827D01*
X0117108Y0036775D01*
X0117084Y0036722D01*
X0117063Y0036667D01*
X0118853Y0036667D02*
X0118901Y0036563D01*
X0118947Y0036458D01*
X0118989Y0036352D01*
X0119028Y0036244D01*
X0119064Y0036135D01*
X0119096Y0036025D01*
X0119126Y0035914D01*
X0119151Y0035802D01*
X0119174Y0035690D01*
X0119193Y0035577D01*
X0119208Y0035463D01*
X0119220Y0035349D01*
X0119229Y0035235D01*
X0119234Y0035121D01*
X0119236Y0035006D01*
X0116680Y0035006D02*
X0116682Y0035121D01*
X0116687Y0035235D01*
X0116696Y0035349D01*
X0116708Y0035463D01*
X0116723Y0035577D01*
X0116742Y0035690D01*
X0116765Y0035802D01*
X0116790Y0035914D01*
X0116820Y0036025D01*
X0116852Y0036135D01*
X0116888Y0036244D01*
X0116927Y0036352D01*
X0116969Y0036458D01*
X0117015Y0036563D01*
X0117063Y0036667D01*
X0119236Y0035006D02*
X0119234Y0034891D01*
X0119229Y0034777D01*
X0119220Y0034663D01*
X0119208Y0034549D01*
X0119193Y0034435D01*
X0119174Y0034322D01*
X0119151Y0034210D01*
X0119126Y0034098D01*
X0119096Y0033987D01*
X0119064Y0033877D01*
X0119028Y0033768D01*
X0118989Y0033660D01*
X0118947Y0033554D01*
X0118901Y0033449D01*
X0118853Y0033345D01*
X0118853Y0033344D02*
X0118832Y0033289D01*
X0118808Y0033236D01*
X0118781Y0033184D01*
X0118750Y0033134D01*
X0118717Y0033086D01*
X0118680Y0033040D01*
X0118641Y0032996D01*
X0118599Y0032955D01*
X0118555Y0032917D01*
X0118508Y0032881D01*
X0118459Y0032849D01*
X0118408Y0032819D01*
X0118356Y0032793D01*
X0118302Y0032770D01*
X0118247Y0032750D01*
X0118190Y0032734D01*
X0118133Y0032721D01*
X0118075Y0032712D01*
X0118017Y0032707D01*
X0117958Y0032705D01*
X0117899Y0032707D01*
X0117841Y0032712D01*
X0117783Y0032721D01*
X0117726Y0032734D01*
X0117669Y0032750D01*
X0117614Y0032770D01*
X0117560Y0032793D01*
X0117508Y0032819D01*
X0117457Y0032849D01*
X0117408Y0032881D01*
X0117361Y0032917D01*
X0117317Y0032955D01*
X0117275Y0032996D01*
X0117236Y0033040D01*
X0117199Y0033086D01*
X0117166Y0033134D01*
X0117135Y0033184D01*
X0117108Y0033236D01*
X0117084Y0033289D01*
X0117063Y0033344D01*
X0114736Y0032706D02*
X0112181Y0032706D01*
X0114353Y0035261D01*
X0113586Y0037305D02*
X0113512Y0037303D01*
X0113438Y0037298D01*
X0113364Y0037288D01*
X0113291Y0037275D01*
X0113218Y0037259D01*
X0113147Y0037238D01*
X0113077Y0037214D01*
X0113008Y0037187D01*
X0112940Y0037156D01*
X0112874Y0037122D01*
X0112810Y0037085D01*
X0112748Y0037044D01*
X0112688Y0037000D01*
X0112630Y0036954D01*
X0112574Y0036904D01*
X0112521Y0036852D01*
X0112471Y0036797D01*
X0112424Y0036740D01*
X0112380Y0036680D01*
X0112338Y0036618D01*
X0112300Y0036555D01*
X0112265Y0036489D01*
X0112234Y0036422D01*
X0112206Y0036353D01*
X0112181Y0036283D01*
X0114353Y0035262D02*
X0114400Y0035309D01*
X0114444Y0035359D01*
X0114486Y0035411D01*
X0114525Y0035465D01*
X0114560Y0035521D01*
X0114593Y0035579D01*
X0114623Y0035639D01*
X0114649Y0035700D01*
X0114672Y0035763D01*
X0114691Y0035827D01*
X0114707Y0035891D01*
X0114720Y0035957D01*
X0114729Y0036023D01*
X0114734Y0036089D01*
X0114736Y0036156D01*
X0114734Y0036223D01*
X0114728Y0036290D01*
X0114719Y0036356D01*
X0114705Y0036421D01*
X0114688Y0036486D01*
X0114667Y0036549D01*
X0114642Y0036611D01*
X0114614Y0036672D01*
X0114582Y0036731D01*
X0114547Y0036788D01*
X0114508Y0036843D01*
X0114467Y0036895D01*
X0114422Y0036945D01*
X0114375Y0036992D01*
X0114325Y0037037D01*
X0114273Y0037078D01*
X0114218Y0037117D01*
X0114161Y0037152D01*
X0114102Y0037184D01*
X0114041Y0037212D01*
X0113979Y0037237D01*
X0113916Y0037258D01*
X0113851Y0037275D01*
X0113786Y0037289D01*
X0113720Y0037298D01*
X0113653Y0037304D01*
X0113586Y0037306D01*
X0108084Y0037306D02*
X0106040Y0037306D01*
X0106040Y0032706D01*
X0103805Y0033728D02*
X0103805Y0037306D01*
X0106040Y0035261D02*
X0108084Y0035261D01*
X0103804Y0033728D02*
X0103802Y0033666D01*
X0103797Y0033605D01*
X0103787Y0033544D01*
X0103774Y0033483D01*
X0103758Y0033424D01*
X0103738Y0033366D01*
X0103714Y0033309D01*
X0103687Y0033253D01*
X0103657Y0033199D01*
X0103623Y0033147D01*
X0103587Y0033098D01*
X0103547Y0033050D01*
X0103505Y0033005D01*
X0103460Y0032963D01*
X0103412Y0032923D01*
X0103363Y0032887D01*
X0103311Y0032853D01*
X0103257Y0032823D01*
X0103201Y0032796D01*
X0103144Y0032772D01*
X0103086Y0032752D01*
X0103027Y0032736D01*
X0102966Y0032723D01*
X0102905Y0032713D01*
X0102844Y0032708D01*
X0102782Y0032706D01*
X0102271Y0032706D01*
X0099725Y0032706D02*
X0098447Y0032706D01*
X0098447Y0037306D01*
X0099725Y0037306D01*
X0099788Y0037304D01*
X0099851Y0037298D01*
X0099913Y0037289D01*
X0099974Y0037275D01*
X0100035Y0037258D01*
X0100094Y0037237D01*
X0100152Y0037212D01*
X0100209Y0037184D01*
X0100263Y0037153D01*
X0100315Y0037118D01*
X0100366Y0037080D01*
X0100414Y0037039D01*
X0100459Y0036995D01*
X0100501Y0036949D01*
X0100541Y0036900D01*
X0100577Y0036849D01*
X0100610Y0036795D01*
X0100640Y0036740D01*
X0100666Y0036682D01*
X0100689Y0036624D01*
X0100708Y0036564D01*
X0100723Y0036503D01*
X0100735Y0036441D01*
X0100743Y0036378D01*
X0100747Y0036315D01*
X0100747Y0036253D01*
X0100743Y0036190D01*
X0100735Y0036127D01*
X0100723Y0036065D01*
X0100708Y0036004D01*
X0100689Y0035944D01*
X0100666Y0035886D01*
X0100640Y0035828D01*
X0100610Y0035773D01*
X0100577Y0035719D01*
X0100541Y0035668D01*
X0100501Y0035619D01*
X0100459Y0035573D01*
X0100414Y0035529D01*
X0100366Y0035488D01*
X0100315Y0035450D01*
X0100263Y0035415D01*
X0100209Y0035384D01*
X0100152Y0035356D01*
X0100094Y0035331D01*
X0100035Y0035310D01*
X0099974Y0035293D01*
X0099913Y0035279D01*
X0099851Y0035270D01*
X0099788Y0035264D01*
X0099725Y0035262D01*
X0099725Y0035261D02*
X0098447Y0035261D01*
X0099725Y0035262D02*
X0099795Y0035260D01*
X0099866Y0035254D01*
X0099935Y0035245D01*
X0100004Y0035231D01*
X0100073Y0035214D01*
X0100140Y0035193D01*
X0100206Y0035168D01*
X0100270Y0035140D01*
X0100333Y0035108D01*
X0100394Y0035073D01*
X0100453Y0035034D01*
X0100510Y0034993D01*
X0100564Y0034948D01*
X0100616Y0034900D01*
X0100665Y0034850D01*
X0100712Y0034796D01*
X0100755Y0034741D01*
X0100795Y0034683D01*
X0100832Y0034623D01*
X0100865Y0034561D01*
X0100895Y0034497D01*
X0100922Y0034432D01*
X0100945Y0034366D01*
X0100964Y0034298D01*
X0100979Y0034229D01*
X0100991Y0034160D01*
X0100999Y0034090D01*
X0101003Y0034019D01*
X0101003Y0033949D01*
X0100999Y0033878D01*
X0100991Y0033808D01*
X0100979Y0033739D01*
X0100964Y0033670D01*
X0100945Y0033602D01*
X0100922Y0033536D01*
X0100895Y0033471D01*
X0100865Y0033407D01*
X0100832Y0033345D01*
X0100795Y0033285D01*
X0100755Y0033227D01*
X0100712Y0033172D01*
X0100665Y0033118D01*
X0100616Y0033068D01*
X0100564Y0033020D01*
X0100510Y0032975D01*
X0100453Y0032934D01*
X0100394Y0032895D01*
X0100333Y0032860D01*
X0100270Y0032828D01*
X0100206Y0032800D01*
X0100140Y0032775D01*
X0100073Y0032754D01*
X0100004Y0032737D01*
X0099935Y0032723D01*
X0099866Y0032714D01*
X0099795Y0032708D01*
X0099725Y0032706D01*
X0119070Y0025461D02*
X0119193Y0025419D01*
X0119318Y0025380D01*
X0119443Y0025345D01*
X0119570Y0025314D01*
X0119698Y0025287D01*
X0119826Y0025264D01*
X0119955Y0025244D01*
X0120085Y0025229D01*
X0120214Y0025217D01*
X0120345Y0025209D01*
X0120475Y0025205D01*
D12*
X0033342Y0001256D02*
X0005665Y0001256D01*
X0013342Y0001512D02*
X0014365Y0011492D01*
X0014599Y0011492D02*
X0013342Y0001512D01*
X0012318Y0011492D01*
X0012085Y0011492D02*
X0014599Y0011492D01*
X0013854Y0011492D02*
X0013342Y0001512D01*
X0012830Y0011492D01*
X0012085Y0011492D02*
X0013342Y0001512D01*
X0013342Y0176000D01*
X0014365Y0166020D01*
X0014599Y0166020D02*
X0013342Y0176000D01*
X0012318Y0166020D01*
X0012085Y0166020D02*
X0014599Y0166020D01*
X0013854Y0166020D02*
X0013342Y0176000D01*
X0012830Y0166020D01*
X0012085Y0166020D02*
X0013342Y0176000D01*
X0005665Y0176256D02*
X0033342Y0176256D01*
X0038342Y0181256D02*
X0038342Y0198933D01*
X0038598Y0191256D02*
X0048578Y0190232D01*
X0048578Y0189999D02*
X0038598Y0191256D01*
X0048578Y0192280D01*
X0048578Y0192513D02*
X0048578Y0189999D01*
X0048578Y0190744D02*
X0038598Y0191256D01*
X0048578Y0191768D01*
X0048578Y0192513D02*
X0038598Y0191256D01*
X0318086Y0191256D01*
X0308106Y0190232D01*
X0308106Y0189999D02*
X0318086Y0191256D01*
X0308106Y0192280D01*
X0308106Y0192513D02*
X0308106Y0189999D01*
X0308106Y0190744D02*
X0318086Y0191256D01*
X0308106Y0191768D01*
X0308106Y0192513D02*
X0318086Y0191256D01*
X0318342Y0198933D02*
X0318342Y0181256D01*
D13*
X0308342Y0161256D02*
X0308342Y0136256D01*
X0308342Y0111256D01*
X0308342Y0111056D01*
X0304442Y0107156D01*
X0304442Y0083756D01*
X0299942Y0079256D01*
X0276542Y0079256D01*
X0259742Y0096056D01*
X0238442Y0096056D01*
X0238342Y0096256D01*
X0230042Y0101156D02*
X0283442Y0101156D01*
X0298342Y0086256D01*
X0308342Y0086256D02*
X0308342Y0085856D01*
X0298442Y0075956D01*
X0298442Y0051356D01*
X0298342Y0051256D01*
X0293342Y0054056D02*
X0290042Y0057356D01*
X0269342Y0057356D01*
X0235142Y0023156D01*
X0231242Y0023156D01*
X0218042Y0036356D01*
X0218042Y0069656D01*
X0189542Y0098156D01*
X0189542Y0134756D01*
X0182042Y0134756D01*
X0189542Y0134756D02*
X0201842Y0134756D01*
X0228342Y0161256D01*
X0246842Y0161156D02*
X0215642Y0129956D01*
X0199742Y0129956D01*
X0190742Y0120956D01*
X0190742Y0098756D01*
X0233042Y0056456D01*
X0233042Y0031256D01*
X0233184Y0031256D01*
X0256742Y0021956D02*
X0169442Y0021956D01*
X0164942Y0026456D01*
X0161342Y0026456D01*
X0143042Y0044756D01*
X0143042Y0106556D01*
X0138342Y0111256D01*
X0143642Y0107756D02*
X0163142Y0088256D01*
X0163142Y0041456D01*
X0163342Y0041256D01*
X0167942Y0035756D02*
X0163442Y0031256D01*
X0163342Y0031256D01*
X0167942Y0035756D02*
X0167942Y0116756D01*
X0148442Y0136256D01*
X0148442Y0161156D01*
X0148342Y0161256D01*
X0143642Y0165956D02*
X0143642Y0107756D01*
X0108342Y0131256D02*
X0108242Y0131156D01*
X0098342Y0131156D01*
X0098342Y0131256D01*
X0093542Y0131456D02*
X0115142Y0153056D01*
X0130142Y0153056D01*
X0138342Y0161256D01*
X0143642Y0165956D02*
X0140042Y0169556D01*
X0136442Y0169556D01*
X0128342Y0161456D01*
X0128342Y0161256D01*
X0088142Y0171056D02*
X0078342Y0161256D01*
X0053342Y0136256D01*
X0053342Y0046256D01*
X0050642Y0032156D02*
X0069242Y0032156D01*
X0103742Y0066656D01*
X0103742Y0076856D01*
X0106442Y0079556D01*
X0110042Y0079556D01*
X0118342Y0071256D01*
X0120242Y0063056D02*
X0128342Y0071156D01*
X0128342Y0071256D01*
X0120242Y0063056D02*
X0108242Y0063056D01*
X0071642Y0026456D01*
X0053342Y0026456D01*
X0053342Y0026256D01*
X0050642Y0032156D02*
X0046442Y0027956D01*
X0046442Y0024356D01*
X0053342Y0017456D01*
X0053342Y0016256D01*
X0009358Y0076528D02*
X0009358Y0080084D01*
X0007936Y0079017D02*
X0010780Y0079017D01*
X0009358Y0076528D02*
X0004380Y0077950D01*
X0004380Y0084104D02*
X0009358Y0082682D01*
X0009358Y0086238D01*
X0007936Y0085171D02*
X0010780Y0085171D01*
X0010780Y0088590D02*
X0010780Y0088945D01*
X0010424Y0088945D01*
X0010424Y0088590D01*
X0010780Y0088590D01*
X0009358Y0091298D02*
X0009358Y0094853D01*
X0007936Y0093787D02*
X0010780Y0093787D01*
X0009358Y0091298D02*
X0004380Y0092720D01*
X0004380Y0097452D02*
X0004380Y0101007D01*
X0007224Y0099585D02*
X0007224Y0097452D01*
X0004380Y0097452D01*
X0007225Y0099585D02*
X0007227Y0099659D01*
X0007233Y0099734D01*
X0007243Y0099807D01*
X0007256Y0099881D01*
X0007273Y0099953D01*
X0007295Y0100024D01*
X0007319Y0100095D01*
X0007348Y0100163D01*
X0007380Y0100231D01*
X0007416Y0100296D01*
X0007454Y0100359D01*
X0007497Y0100421D01*
X0007542Y0100480D01*
X0007590Y0100537D01*
X0007641Y0100591D01*
X0007695Y0100642D01*
X0007752Y0100690D01*
X0007811Y0100735D01*
X0007873Y0100778D01*
X0007936Y0100816D01*
X0008001Y0100852D01*
X0008069Y0100884D01*
X0008137Y0100913D01*
X0008208Y0100937D01*
X0008279Y0100959D01*
X0008351Y0100976D01*
X0008425Y0100989D01*
X0008498Y0100999D01*
X0008573Y0101005D01*
X0008647Y0101007D01*
X0009358Y0101007D01*
X0009432Y0101005D01*
X0009507Y0100999D01*
X0009580Y0100989D01*
X0009654Y0100976D01*
X0009726Y0100959D01*
X0009797Y0100937D01*
X0009868Y0100913D01*
X0009936Y0100884D01*
X0010004Y0100852D01*
X0010069Y0100816D01*
X0010132Y0100778D01*
X0010194Y0100735D01*
X0010253Y0100690D01*
X0010310Y0100642D01*
X0010364Y0100591D01*
X0010415Y0100537D01*
X0010463Y0100480D01*
X0010508Y0100421D01*
X0010551Y0100359D01*
X0010589Y0100296D01*
X0010625Y0100231D01*
X0010657Y0100163D01*
X0010686Y0100095D01*
X0010710Y0100024D01*
X0010732Y0099953D01*
X0010749Y0099881D01*
X0010762Y0099807D01*
X0010772Y0099734D01*
X0010778Y0099659D01*
X0010780Y0099585D01*
X0010780Y0097452D01*
X0068342Y0131256D02*
X0068342Y0131456D01*
X0093542Y0131456D01*
X0088142Y0171056D02*
X0251042Y0171056D01*
X0260642Y0161456D01*
X0278342Y0161456D01*
X0278342Y0161256D01*
X0278342Y0136256D01*
X0298342Y0136256D02*
X0298442Y0136256D01*
X0298442Y0111356D01*
X0298342Y0111256D01*
X0291242Y0104156D01*
X0276842Y0104156D01*
X0264842Y0116156D01*
X0238442Y0116156D01*
X0238342Y0116256D01*
X0238142Y0116456D01*
X0216542Y0116456D01*
X0213242Y0119756D01*
X0193142Y0119756D01*
X0208342Y0116256D02*
X0208442Y0116156D01*
X0215042Y0116156D01*
X0230042Y0101156D01*
X0229442Y0099956D02*
X0274742Y0099956D01*
X0288242Y0086456D01*
X0288342Y0086256D01*
X0293342Y0054056D02*
X0293342Y0021256D01*
X0285842Y0051056D02*
X0256742Y0021956D01*
X0285842Y0051056D02*
X0288242Y0051056D01*
X0288342Y0051256D01*
X0229442Y0099956D02*
X0223142Y0106256D01*
X0208342Y0106256D01*
X0246842Y0161156D02*
X0248342Y0161156D01*
X0248342Y0161256D01*
X0298342Y0161256D02*
X0298442Y0161156D01*
X0298442Y0136256D01*
X0190593Y0193818D02*
X0187038Y0193818D01*
X0190060Y0197373D01*
X0188993Y0200218D02*
X0188904Y0200216D01*
X0188815Y0200210D01*
X0188726Y0200201D01*
X0188638Y0200187D01*
X0188551Y0200170D01*
X0188464Y0200149D01*
X0188378Y0200124D01*
X0188294Y0200096D01*
X0188211Y0200063D01*
X0188129Y0200028D01*
X0188049Y0199988D01*
X0187971Y0199946D01*
X0187894Y0199900D01*
X0187820Y0199851D01*
X0187748Y0199798D01*
X0187678Y0199743D01*
X0187611Y0199684D01*
X0187546Y0199623D01*
X0187484Y0199559D01*
X0187425Y0199492D01*
X0187369Y0199423D01*
X0187316Y0199351D01*
X0187266Y0199277D01*
X0187219Y0199201D01*
X0187176Y0199124D01*
X0187136Y0199044D01*
X0187099Y0198963D01*
X0187066Y0198880D01*
X0187037Y0198795D01*
X0190061Y0197373D02*
X0190118Y0197431D01*
X0190174Y0197492D01*
X0190226Y0197555D01*
X0190275Y0197620D01*
X0190321Y0197688D01*
X0190363Y0197758D01*
X0190403Y0197830D01*
X0190438Y0197903D01*
X0190471Y0197979D01*
X0190499Y0198055D01*
X0190524Y0198133D01*
X0190545Y0198212D01*
X0190563Y0198292D01*
X0190576Y0198373D01*
X0190586Y0198454D01*
X0190592Y0198536D01*
X0190594Y0198618D01*
X0190593Y0198618D02*
X0190591Y0198697D01*
X0190585Y0198775D01*
X0190576Y0198853D01*
X0190562Y0198930D01*
X0190545Y0199007D01*
X0190524Y0199082D01*
X0190499Y0199157D01*
X0190471Y0199230D01*
X0190439Y0199302D01*
X0190404Y0199372D01*
X0190365Y0199441D01*
X0190323Y0199507D01*
X0190278Y0199571D01*
X0190230Y0199633D01*
X0190179Y0199692D01*
X0190124Y0199749D01*
X0190067Y0199804D01*
X0190008Y0199855D01*
X0189946Y0199903D01*
X0189882Y0199948D01*
X0189816Y0199990D01*
X0189747Y0200029D01*
X0189677Y0200064D01*
X0189605Y0200096D01*
X0189532Y0200124D01*
X0189457Y0200149D01*
X0189382Y0200170D01*
X0189305Y0200187D01*
X0189228Y0200201D01*
X0189150Y0200210D01*
X0189072Y0200216D01*
X0188993Y0200218D01*
X0182661Y0200218D02*
X0182661Y0193818D01*
X0180884Y0193818D02*
X0184439Y0193818D01*
X0178531Y0193818D02*
X0178176Y0193818D01*
X0178176Y0194173D01*
X0178531Y0194173D01*
X0178531Y0193818D01*
X0175824Y0193818D02*
X0172268Y0193818D01*
X0174046Y0193818D02*
X0174046Y0200218D01*
X0172268Y0198795D01*
X0169670Y0200218D02*
X0167892Y0193818D01*
X0166114Y0199507D02*
X0166114Y0200218D01*
X0169670Y0200218D01*
X0180884Y0198795D02*
X0182661Y0200218D01*
D14*
X0198342Y0164256D02*
X0198342Y0158256D01*
X0208342Y0158256D02*
X0208342Y0164256D01*
X0218342Y0164256D02*
X0218342Y0158256D01*
X0228342Y0158256D02*
X0228342Y0164256D01*
X0238342Y0164256D02*
X0238342Y0158256D01*
X0248342Y0158256D02*
X0248342Y0164256D01*
X0278342Y0164256D02*
X0278342Y0158256D01*
X0288342Y0158256D02*
X0288342Y0164256D01*
X0298342Y0164256D02*
X0298342Y0158256D01*
X0308342Y0158256D02*
X0308342Y0164256D01*
X0308342Y0139256D02*
X0308342Y0133256D01*
X0298342Y0133256D02*
X0298342Y0139256D01*
X0288342Y0139256D02*
X0288342Y0133256D01*
X0278342Y0133256D02*
X0278342Y0139256D01*
X0278342Y0114256D02*
X0278342Y0108256D01*
X0288342Y0108256D02*
X0288342Y0114256D01*
X0298342Y0114256D02*
X0298342Y0108256D01*
X0308342Y0108256D02*
X0308342Y0114256D01*
X0308342Y0089256D02*
X0308342Y0083256D01*
X0298342Y0083256D02*
X0298342Y0089256D01*
X0288342Y0089256D02*
X0288342Y0083256D01*
X0278342Y0083256D02*
X0278342Y0089256D01*
X0283342Y0024256D02*
X0283342Y0018256D01*
X0293342Y0018256D02*
X0293342Y0024256D01*
X0056342Y0026256D02*
X0050342Y0026256D01*
X0050342Y0036256D02*
X0056342Y0036256D01*
X0056342Y0046256D02*
X0050342Y0046256D01*
X0050342Y0016256D02*
X0056342Y0016256D01*
D15*
X0213499Y0027731D02*
X0213499Y0034781D01*
X0233184Y0034781D02*
X0233184Y0027731D01*
D16*
X0148342Y0067656D02*
X0148342Y0074856D01*
X0138342Y0074856D02*
X0138342Y0067656D01*
X0128342Y0067656D02*
X0128342Y0074856D01*
X0118342Y0074856D02*
X0118342Y0067656D01*
X0108342Y0067656D02*
X0108342Y0074856D01*
X0098342Y0074856D02*
X0098342Y0067656D01*
X0088342Y0067656D02*
X0088342Y0074856D01*
X0078342Y0074856D02*
X0078342Y0067656D01*
X0078342Y0157656D02*
X0078342Y0164856D01*
X0088342Y0164856D02*
X0088342Y0157656D01*
X0098342Y0157656D02*
X0098342Y0164856D01*
X0108342Y0164856D02*
X0108342Y0157656D01*
X0118342Y0157656D02*
X0118342Y0164856D01*
X0128342Y0164856D02*
X0128342Y0157656D01*
X0138342Y0157656D02*
X0138342Y0164856D01*
X0148342Y0164856D02*
X0148342Y0157656D01*
D17*
X0148342Y0131256D03*
X0138342Y0131256D03*
X0138342Y0111256D03*
X0148342Y0111256D03*
X0178342Y0111256D03*
X0178342Y0131256D03*
X0108342Y0131256D03*
X0098342Y0131256D03*
X0068342Y0131256D03*
X0108342Y0111256D03*
D18*
X0163342Y0041256D03*
X0163342Y0031256D03*
X0163342Y0021256D03*
D19*
X0278342Y0048656D02*
X0278342Y0053856D01*
X0288342Y0053856D02*
X0288342Y0048656D01*
X0298342Y0048656D02*
X0298342Y0053856D01*
X0240942Y0096256D02*
X0235742Y0096256D01*
X0235742Y0106256D02*
X0240942Y0106256D01*
X0240942Y0116256D02*
X0235742Y0116256D01*
X0235742Y0126256D02*
X0240942Y0126256D01*
X0210942Y0126256D02*
X0205742Y0126256D01*
X0205742Y0116256D02*
X0210942Y0116256D01*
X0210942Y0106256D02*
X0205742Y0106256D01*
X0205742Y0096256D02*
X0210942Y0096256D01*
D20*
X0193142Y0119756D03*
X0182042Y0134756D03*
X0168542Y0131456D03*
D21*
X0198342Y0161256D01*
X0206042Y0168956D01*
X0250442Y0168956D01*
X0253142Y0166256D01*
X0253142Y0126056D01*
X0238442Y0126056D01*
X0238342Y0126256D01*
X0253142Y0126056D02*
X0263642Y0126056D01*
X0278342Y0111356D01*
X0278342Y0111256D01*
X0148442Y0111356D02*
X0148342Y0111256D01*
X0148442Y0111356D02*
X0148442Y0131156D01*
X0148342Y0131256D01*
M02*
