%
M48
M72
T01C0.01378
T02C0.03200
T03C0.04000
T04C0.04700
%
T01
X193142Y119756
X182042Y134756
X168542Y131456
T02
X178342Y131256
X148342Y131256
X138342Y131256
X138342Y111256
X148342Y111256
X178342Y111256
X208342Y116256
X208342Y126256
X238342Y126256
X238342Y116256
X238342Y106256
X238342Y96256
X208342Y96256
X208342Y106256
X278342Y51256
X288342Y51256
X298342Y51256
X108342Y111256
X108342Y131256
X98342Y131256
X68342Y131256
T03
X53342Y16256
X53342Y26256
X53342Y36256
X53342Y46256
X78342Y71256
X88342Y71256
X98342Y71256
X108342Y71256
X118342Y71256
X128342Y71256
X138342Y71256
X148342Y71256
X163342Y41256
X163342Y31256
X163342Y21256
X278342Y86256
X288342Y86256
X298342Y86256
X308342Y86256
X308342Y111256
X298342Y111256
X288342Y111256
X278342Y111256
X278342Y136256
X288342Y136256
X298342Y136256
X308342Y136256
X308342Y161256
X298342Y161256
X288342Y161256
X278342Y161256
X248342Y161256
X238342Y161256
X228342Y161256
X218342Y161256
X208342Y161256
X198342Y161256
X148342Y161256
X138342Y161256
X128342Y161256
X118342Y161256
X108342Y161256
X98342Y161256
X88342Y161256
X78342Y161256
X283342Y21256
X293342Y21256
T04
X233184Y31256
X213499Y31256
M30
