%
M48
M72
T01C0.01378
T02C0.03200
T03C0.04000
T04C0.04700
%
T01
X118000Y107500
X141700Y168100
X253600Y95500
T02
X201000Y96000
X201000Y106000
X201000Y116000
X201000Y126000
X171000Y126000
X171000Y116000
X171000Y106000
X171000Y96000
X141000Y111000
X111000Y111000
X101000Y111000
X71000Y111000
X71000Y131000
X61000Y131000
X31000Y131000
X101000Y131000
X111000Y131000
X141000Y131000
X241000Y51000
X251000Y51000
X261000Y51000
T03
X16000Y16000
X16000Y26000
X16000Y36000
X16000Y46000
X41000Y71000
X51000Y71000
X61000Y71000
X71000Y71000
X81000Y71000
X91000Y71000
X101000Y71000
X111000Y71000
X126000Y41000
X126000Y31000
X126000Y21000
X241000Y86000
X251000Y86000
X261000Y86000
X271000Y86000
X271000Y111000
X261000Y111000
X251000Y111000
X241000Y111000
X241000Y136000
X251000Y136000
X261000Y136000
X271000Y136000
X271000Y161000
X261000Y161000
X251000Y161000
X241000Y161000
X211000Y161000
X201000Y161000
X191000Y161000
X181000Y161000
X171000Y161000
X161000Y161000
X111000Y161000
X101000Y161000
X91000Y161000
X81000Y161000
X71000Y161000
X61000Y161000
X51000Y161000
X41000Y161000
X246000Y21000
X256000Y21000
T04
X195843Y31000
X176157Y31000
M30
