G75*
%MOIN*%
%OFA0B0*%
%FSLAX25Y25*%
%IPPOS*%
%LPD*%
%AMOC8*
5,1,8,0,0,1.08239X$1,22.5*
%
%ADD10C,0.06800*%
%ADD11C,0.07850*%
%ADD12C,0.08000*%
%ADD13OC8,0.06000*%
%ADD14C,0.08200*%
%ADD15C,0.06000*%
%ADD16C,0.03778*%
D10*
X0013000Y0016000D02*
X0019000Y0016000D01*
X0019000Y0026000D02*
X0013000Y0026000D01*
X0013000Y0036000D02*
X0019000Y0036000D01*
X0019000Y0046000D02*
X0013000Y0046000D01*
X0161000Y0158000D02*
X0161000Y0164000D01*
X0171000Y0164000D02*
X0171000Y0158000D01*
X0181000Y0158000D02*
X0181000Y0164000D01*
X0191000Y0164000D02*
X0191000Y0158000D01*
X0201000Y0158000D02*
X0201000Y0164000D01*
X0211000Y0164000D02*
X0211000Y0158000D01*
X0241000Y0158000D02*
X0241000Y0164000D01*
X0251000Y0164000D02*
X0251000Y0158000D01*
X0261000Y0158000D02*
X0261000Y0164000D01*
X0271000Y0164000D02*
X0271000Y0158000D01*
X0271000Y0139000D02*
X0271000Y0133000D01*
X0261000Y0133000D02*
X0261000Y0139000D01*
X0251000Y0139000D02*
X0251000Y0133000D01*
X0241000Y0133000D02*
X0241000Y0139000D01*
X0241000Y0114000D02*
X0241000Y0108000D01*
X0251000Y0108000D02*
X0251000Y0114000D01*
X0261000Y0114000D02*
X0261000Y0108000D01*
X0271000Y0108000D02*
X0271000Y0114000D01*
X0271000Y0089000D02*
X0271000Y0083000D01*
X0261000Y0083000D02*
X0261000Y0089000D01*
X0251000Y0089000D02*
X0251000Y0083000D01*
X0241000Y0083000D02*
X0241000Y0089000D01*
X0246000Y0024000D02*
X0246000Y0018000D01*
X0256000Y0018000D02*
X0256000Y0024000D01*
D11*
X0195843Y0027475D02*
X0195843Y0034525D01*
X0176157Y0034525D02*
X0176157Y0027475D01*
D12*
X0111000Y0067400D02*
X0111000Y0074600D01*
X0101000Y0074600D02*
X0101000Y0067400D01*
X0091000Y0067400D02*
X0091000Y0074600D01*
X0081000Y0074600D02*
X0081000Y0067400D01*
X0071000Y0067400D02*
X0071000Y0074600D01*
X0061000Y0074600D02*
X0061000Y0067400D01*
X0051000Y0067400D02*
X0051000Y0074600D01*
X0041000Y0074600D02*
X0041000Y0067400D01*
X0041000Y0157400D02*
X0041000Y0164600D01*
X0051000Y0164600D02*
X0051000Y0157400D01*
X0061000Y0157400D02*
X0061000Y0164600D01*
X0071000Y0164600D02*
X0071000Y0157400D01*
X0081000Y0157400D02*
X0081000Y0164600D01*
X0091000Y0164600D02*
X0091000Y0157400D01*
X0101000Y0157400D02*
X0101000Y0164600D01*
X0111000Y0164600D02*
X0111000Y0157400D01*
D13*
X0111000Y0131000D03*
X0101000Y0131000D03*
X0071000Y0131000D03*
X0061000Y0131000D03*
X0031000Y0131000D03*
X0071000Y0111000D03*
X0101000Y0111000D03*
X0111000Y0111000D03*
X0141000Y0111000D03*
X0141000Y0131000D03*
D14*
X0126000Y0041000D03*
X0126000Y0031000D03*
X0126000Y0021000D03*
D15*
X0241000Y0048400D02*
X0241000Y0053600D01*
X0251000Y0053600D02*
X0251000Y0048400D01*
X0261000Y0048400D02*
X0261000Y0053600D01*
X0203600Y0096000D02*
X0198400Y0096000D01*
X0198400Y0106000D02*
X0203600Y0106000D01*
X0203600Y0116000D02*
X0198400Y0116000D01*
X0198400Y0126000D02*
X0203600Y0126000D01*
X0173600Y0126000D02*
X0168400Y0126000D01*
X0168400Y0116000D02*
X0173600Y0116000D01*
X0173600Y0106000D02*
X0168400Y0106000D01*
X0168400Y0096000D02*
X0173600Y0096000D01*
D16*
X0118000Y0107500D03*
X0141700Y0168100D03*
X0253600Y0095500D03*
M02*
