G75*
%MOIN*%
%OFA0B0*%
%FSLAX25Y25*%
%IPPOS*%
%LPD*%
%AMOC8*
5,1,8,0,0,1.08239X$1,22.5*
%
%ADD10C,0.00600*%
%ADD11C,0.00500*%
%ADD12C,0.00400*%
%ADD13C,0.00800*%
%ADD14R,0.01500X0.02000*%
D10*
X0048342Y0013756D02*
X0050842Y0011256D01*
X0055842Y0011256D01*
X0058342Y0013756D01*
X0058342Y0018756D01*
X0055842Y0021256D01*
X0050842Y0021256D01*
X0048342Y0018756D01*
X0048342Y0013756D01*
X0050842Y0021256D02*
X0048342Y0023756D01*
X0048342Y0028756D01*
X0050842Y0031256D01*
X0048342Y0033756D01*
X0048342Y0038756D01*
X0050842Y0041256D01*
X0048342Y0043756D01*
X0048342Y0048756D01*
X0050842Y0051256D01*
X0055842Y0051256D01*
X0058342Y0048756D01*
X0058342Y0043756D01*
X0055842Y0041256D01*
X0058342Y0038756D01*
X0058342Y0033756D01*
X0055842Y0031256D01*
X0050842Y0031256D01*
X0055842Y0031256D02*
X0058342Y0028756D01*
X0058342Y0023756D01*
X0055842Y0021256D01*
X0055842Y0041256D02*
X0050842Y0041256D01*
X0114342Y0107256D02*
X0115842Y0107256D01*
X0116342Y0107756D01*
X0130342Y0107756D01*
X0130842Y0107256D01*
X0132342Y0107256D01*
X0132402Y0107258D01*
X0132463Y0107263D01*
X0132522Y0107272D01*
X0132581Y0107285D01*
X0132640Y0107301D01*
X0132697Y0107321D01*
X0132752Y0107344D01*
X0132807Y0107371D01*
X0132859Y0107400D01*
X0132910Y0107433D01*
X0132959Y0107469D01*
X0133005Y0107507D01*
X0133049Y0107549D01*
X0133091Y0107593D01*
X0133129Y0107639D01*
X0133165Y0107688D01*
X0133198Y0107739D01*
X0133227Y0107791D01*
X0133254Y0107846D01*
X0133277Y0107901D01*
X0133297Y0107958D01*
X0133313Y0108017D01*
X0133326Y0108076D01*
X0133335Y0108135D01*
X0133340Y0108196D01*
X0133342Y0108256D01*
X0133342Y0114256D01*
X0133340Y0114316D01*
X0133335Y0114377D01*
X0133326Y0114436D01*
X0133313Y0114495D01*
X0133297Y0114554D01*
X0133277Y0114611D01*
X0133254Y0114666D01*
X0133227Y0114721D01*
X0133198Y0114773D01*
X0133165Y0114824D01*
X0133129Y0114873D01*
X0133091Y0114919D01*
X0133049Y0114963D01*
X0133005Y0115005D01*
X0132959Y0115043D01*
X0132910Y0115079D01*
X0132859Y0115112D01*
X0132807Y0115141D01*
X0132752Y0115168D01*
X0132697Y0115191D01*
X0132640Y0115211D01*
X0132581Y0115227D01*
X0132522Y0115240D01*
X0132463Y0115249D01*
X0132402Y0115254D01*
X0132342Y0115256D01*
X0130842Y0115256D01*
X0130342Y0114756D01*
X0116342Y0114756D01*
X0115842Y0115256D01*
X0114342Y0115256D01*
X0114282Y0115254D01*
X0114221Y0115249D01*
X0114162Y0115240D01*
X0114103Y0115227D01*
X0114044Y0115211D01*
X0113987Y0115191D01*
X0113932Y0115168D01*
X0113877Y0115141D01*
X0113825Y0115112D01*
X0113774Y0115079D01*
X0113725Y0115043D01*
X0113679Y0115005D01*
X0113635Y0114963D01*
X0113593Y0114919D01*
X0113555Y0114873D01*
X0113519Y0114824D01*
X0113486Y0114773D01*
X0113457Y0114721D01*
X0113430Y0114666D01*
X0113407Y0114611D01*
X0113387Y0114554D01*
X0113371Y0114495D01*
X0113358Y0114436D01*
X0113349Y0114377D01*
X0113344Y0114316D01*
X0113342Y0114256D01*
X0113342Y0108256D01*
X0113344Y0108196D01*
X0113349Y0108135D01*
X0113358Y0108076D01*
X0113371Y0108017D01*
X0113387Y0107958D01*
X0113407Y0107901D01*
X0113430Y0107846D01*
X0113457Y0107791D01*
X0113486Y0107739D01*
X0113519Y0107688D01*
X0113555Y0107639D01*
X0113593Y0107593D01*
X0113635Y0107549D01*
X0113679Y0107507D01*
X0113725Y0107469D01*
X0113774Y0107433D01*
X0113825Y0107400D01*
X0113877Y0107371D01*
X0113932Y0107344D01*
X0113987Y0107321D01*
X0114044Y0107301D01*
X0114103Y0107285D01*
X0114162Y0107272D01*
X0114221Y0107263D01*
X0114282Y0107258D01*
X0114342Y0107256D01*
X0114342Y0127256D02*
X0115842Y0127256D01*
X0116342Y0127756D01*
X0130342Y0127756D01*
X0130842Y0127256D01*
X0132342Y0127256D01*
X0132402Y0127258D01*
X0132463Y0127263D01*
X0132522Y0127272D01*
X0132581Y0127285D01*
X0132640Y0127301D01*
X0132697Y0127321D01*
X0132752Y0127344D01*
X0132807Y0127371D01*
X0132859Y0127400D01*
X0132910Y0127433D01*
X0132959Y0127469D01*
X0133005Y0127507D01*
X0133049Y0127549D01*
X0133091Y0127593D01*
X0133129Y0127639D01*
X0133165Y0127688D01*
X0133198Y0127739D01*
X0133227Y0127791D01*
X0133254Y0127846D01*
X0133277Y0127901D01*
X0133297Y0127958D01*
X0133313Y0128017D01*
X0133326Y0128076D01*
X0133335Y0128135D01*
X0133340Y0128196D01*
X0133342Y0128256D01*
X0133342Y0134256D01*
X0133340Y0134316D01*
X0133335Y0134377D01*
X0133326Y0134436D01*
X0133313Y0134495D01*
X0133297Y0134554D01*
X0133277Y0134611D01*
X0133254Y0134666D01*
X0133227Y0134721D01*
X0133198Y0134773D01*
X0133165Y0134824D01*
X0133129Y0134873D01*
X0133091Y0134919D01*
X0133049Y0134963D01*
X0133005Y0135005D01*
X0132959Y0135043D01*
X0132910Y0135079D01*
X0132859Y0135112D01*
X0132807Y0135141D01*
X0132752Y0135168D01*
X0132697Y0135191D01*
X0132640Y0135211D01*
X0132581Y0135227D01*
X0132522Y0135240D01*
X0132463Y0135249D01*
X0132402Y0135254D01*
X0132342Y0135256D01*
X0130842Y0135256D01*
X0130342Y0134756D01*
X0116342Y0134756D01*
X0115842Y0135256D01*
X0114342Y0135256D01*
X0114282Y0135254D01*
X0114221Y0135249D01*
X0114162Y0135240D01*
X0114103Y0135227D01*
X0114044Y0135211D01*
X0113987Y0135191D01*
X0113932Y0135168D01*
X0113877Y0135141D01*
X0113825Y0135112D01*
X0113774Y0135079D01*
X0113725Y0135043D01*
X0113679Y0135005D01*
X0113635Y0134963D01*
X0113593Y0134919D01*
X0113555Y0134873D01*
X0113519Y0134824D01*
X0113486Y0134773D01*
X0113457Y0134721D01*
X0113430Y0134666D01*
X0113407Y0134611D01*
X0113387Y0134554D01*
X0113371Y0134495D01*
X0113358Y0134436D01*
X0113349Y0134377D01*
X0113344Y0134316D01*
X0113342Y0134256D01*
X0113342Y0128256D01*
X0113344Y0128196D01*
X0113349Y0128135D01*
X0113358Y0128076D01*
X0113371Y0128017D01*
X0113387Y0127958D01*
X0113407Y0127901D01*
X0113430Y0127846D01*
X0113457Y0127791D01*
X0113486Y0127739D01*
X0113519Y0127688D01*
X0113555Y0127639D01*
X0113593Y0127593D01*
X0113635Y0127549D01*
X0113679Y0127507D01*
X0113725Y0127469D01*
X0113774Y0127433D01*
X0113825Y0127400D01*
X0113877Y0127371D01*
X0113932Y0127344D01*
X0113987Y0127321D01*
X0114044Y0127301D01*
X0114103Y0127285D01*
X0114162Y0127272D01*
X0114221Y0127263D01*
X0114282Y0127258D01*
X0114342Y0127256D01*
X0093342Y0128256D02*
X0093342Y0134256D01*
X0093340Y0134316D01*
X0093335Y0134377D01*
X0093326Y0134436D01*
X0093313Y0134495D01*
X0093297Y0134554D01*
X0093277Y0134611D01*
X0093254Y0134666D01*
X0093227Y0134721D01*
X0093198Y0134773D01*
X0093165Y0134824D01*
X0093129Y0134873D01*
X0093091Y0134919D01*
X0093049Y0134963D01*
X0093005Y0135005D01*
X0092959Y0135043D01*
X0092910Y0135079D01*
X0092859Y0135112D01*
X0092807Y0135141D01*
X0092752Y0135168D01*
X0092697Y0135191D01*
X0092640Y0135211D01*
X0092581Y0135227D01*
X0092522Y0135240D01*
X0092463Y0135249D01*
X0092402Y0135254D01*
X0092342Y0135256D01*
X0090842Y0135256D01*
X0090342Y0134756D01*
X0076342Y0134756D01*
X0075842Y0135256D01*
X0074342Y0135256D01*
X0074282Y0135254D01*
X0074221Y0135249D01*
X0074162Y0135240D01*
X0074103Y0135227D01*
X0074044Y0135211D01*
X0073987Y0135191D01*
X0073932Y0135168D01*
X0073877Y0135141D01*
X0073825Y0135112D01*
X0073774Y0135079D01*
X0073725Y0135043D01*
X0073679Y0135005D01*
X0073635Y0134963D01*
X0073593Y0134919D01*
X0073555Y0134873D01*
X0073519Y0134824D01*
X0073486Y0134773D01*
X0073457Y0134721D01*
X0073430Y0134666D01*
X0073407Y0134611D01*
X0073387Y0134554D01*
X0073371Y0134495D01*
X0073358Y0134436D01*
X0073349Y0134377D01*
X0073344Y0134316D01*
X0073342Y0134256D01*
X0073342Y0128256D01*
X0073344Y0128196D01*
X0073349Y0128135D01*
X0073358Y0128076D01*
X0073371Y0128017D01*
X0073387Y0127958D01*
X0073407Y0127901D01*
X0073430Y0127846D01*
X0073457Y0127791D01*
X0073486Y0127739D01*
X0073519Y0127688D01*
X0073555Y0127639D01*
X0073593Y0127593D01*
X0073635Y0127549D01*
X0073679Y0127507D01*
X0073725Y0127469D01*
X0073774Y0127433D01*
X0073825Y0127400D01*
X0073877Y0127371D01*
X0073932Y0127344D01*
X0073987Y0127321D01*
X0074044Y0127301D01*
X0074103Y0127285D01*
X0074162Y0127272D01*
X0074221Y0127263D01*
X0074282Y0127258D01*
X0074342Y0127256D01*
X0075842Y0127256D01*
X0076342Y0127756D01*
X0090342Y0127756D01*
X0090842Y0127256D01*
X0092342Y0127256D01*
X0092402Y0127258D01*
X0092463Y0127263D01*
X0092522Y0127272D01*
X0092581Y0127285D01*
X0092640Y0127301D01*
X0092697Y0127321D01*
X0092752Y0127344D01*
X0092807Y0127371D01*
X0092859Y0127400D01*
X0092910Y0127433D01*
X0092959Y0127469D01*
X0093005Y0127507D01*
X0093049Y0127549D01*
X0093091Y0127593D01*
X0093129Y0127639D01*
X0093165Y0127688D01*
X0093198Y0127739D01*
X0093227Y0127791D01*
X0093254Y0127846D01*
X0093277Y0127901D01*
X0093297Y0127958D01*
X0093313Y0128017D01*
X0093326Y0128076D01*
X0093335Y0128135D01*
X0093340Y0128196D01*
X0093342Y0128256D01*
X0153342Y0128256D02*
X0153342Y0134256D01*
X0153344Y0134316D01*
X0153349Y0134377D01*
X0153358Y0134436D01*
X0153371Y0134495D01*
X0153387Y0134554D01*
X0153407Y0134611D01*
X0153430Y0134666D01*
X0153457Y0134721D01*
X0153486Y0134773D01*
X0153519Y0134824D01*
X0153555Y0134873D01*
X0153593Y0134919D01*
X0153635Y0134963D01*
X0153679Y0135005D01*
X0153725Y0135043D01*
X0153774Y0135079D01*
X0153825Y0135112D01*
X0153877Y0135141D01*
X0153932Y0135168D01*
X0153987Y0135191D01*
X0154044Y0135211D01*
X0154103Y0135227D01*
X0154162Y0135240D01*
X0154221Y0135249D01*
X0154282Y0135254D01*
X0154342Y0135256D01*
X0155842Y0135256D01*
X0156342Y0134756D01*
X0170342Y0134756D01*
X0170842Y0135256D01*
X0172342Y0135256D01*
X0172402Y0135254D01*
X0172463Y0135249D01*
X0172522Y0135240D01*
X0172581Y0135227D01*
X0172640Y0135211D01*
X0172697Y0135191D01*
X0172752Y0135168D01*
X0172807Y0135141D01*
X0172859Y0135112D01*
X0172910Y0135079D01*
X0172959Y0135043D01*
X0173005Y0135005D01*
X0173049Y0134963D01*
X0173091Y0134919D01*
X0173129Y0134873D01*
X0173165Y0134824D01*
X0173198Y0134773D01*
X0173227Y0134721D01*
X0173254Y0134666D01*
X0173277Y0134611D01*
X0173297Y0134554D01*
X0173313Y0134495D01*
X0173326Y0134436D01*
X0173335Y0134377D01*
X0173340Y0134316D01*
X0173342Y0134256D01*
X0173342Y0128256D01*
X0173340Y0128196D01*
X0173335Y0128135D01*
X0173326Y0128076D01*
X0173313Y0128017D01*
X0173297Y0127958D01*
X0173277Y0127901D01*
X0173254Y0127846D01*
X0173227Y0127791D01*
X0173198Y0127739D01*
X0173165Y0127688D01*
X0173129Y0127639D01*
X0173091Y0127593D01*
X0173049Y0127549D01*
X0173005Y0127507D01*
X0172959Y0127469D01*
X0172910Y0127433D01*
X0172859Y0127400D01*
X0172807Y0127371D01*
X0172752Y0127344D01*
X0172697Y0127321D01*
X0172640Y0127301D01*
X0172581Y0127285D01*
X0172522Y0127272D01*
X0172463Y0127263D01*
X0172402Y0127258D01*
X0172342Y0127256D01*
X0170842Y0127256D01*
X0170342Y0127756D01*
X0156342Y0127756D01*
X0155842Y0127256D01*
X0154342Y0127256D01*
X0154282Y0127258D01*
X0154221Y0127263D01*
X0154162Y0127272D01*
X0154103Y0127285D01*
X0154044Y0127301D01*
X0153987Y0127321D01*
X0153932Y0127344D01*
X0153877Y0127371D01*
X0153825Y0127400D01*
X0153774Y0127433D01*
X0153725Y0127469D01*
X0153679Y0127507D01*
X0153635Y0127549D01*
X0153593Y0127593D01*
X0153555Y0127639D01*
X0153519Y0127688D01*
X0153486Y0127739D01*
X0153457Y0127791D01*
X0153430Y0127846D01*
X0153407Y0127901D01*
X0153387Y0127958D01*
X0153371Y0128017D01*
X0153358Y0128076D01*
X0153349Y0128135D01*
X0153344Y0128196D01*
X0153342Y0128256D01*
X0154342Y0115256D02*
X0155842Y0115256D01*
X0156342Y0114756D01*
X0170342Y0114756D01*
X0170842Y0115256D01*
X0172342Y0115256D01*
X0172402Y0115254D01*
X0172463Y0115249D01*
X0172522Y0115240D01*
X0172581Y0115227D01*
X0172640Y0115211D01*
X0172697Y0115191D01*
X0172752Y0115168D01*
X0172807Y0115141D01*
X0172859Y0115112D01*
X0172910Y0115079D01*
X0172959Y0115043D01*
X0173005Y0115005D01*
X0173049Y0114963D01*
X0173091Y0114919D01*
X0173129Y0114873D01*
X0173165Y0114824D01*
X0173198Y0114773D01*
X0173227Y0114721D01*
X0173254Y0114666D01*
X0173277Y0114611D01*
X0173297Y0114554D01*
X0173313Y0114495D01*
X0173326Y0114436D01*
X0173335Y0114377D01*
X0173340Y0114316D01*
X0173342Y0114256D01*
X0173342Y0108256D01*
X0173340Y0108196D01*
X0173335Y0108135D01*
X0173326Y0108076D01*
X0173313Y0108017D01*
X0173297Y0107958D01*
X0173277Y0107901D01*
X0173254Y0107846D01*
X0173227Y0107791D01*
X0173198Y0107739D01*
X0173165Y0107688D01*
X0173129Y0107639D01*
X0173091Y0107593D01*
X0173049Y0107549D01*
X0173005Y0107507D01*
X0172959Y0107469D01*
X0172910Y0107433D01*
X0172859Y0107400D01*
X0172807Y0107371D01*
X0172752Y0107344D01*
X0172697Y0107321D01*
X0172640Y0107301D01*
X0172581Y0107285D01*
X0172522Y0107272D01*
X0172463Y0107263D01*
X0172402Y0107258D01*
X0172342Y0107256D01*
X0170842Y0107256D01*
X0170342Y0107756D01*
X0156342Y0107756D01*
X0155842Y0107256D01*
X0154342Y0107256D01*
X0154282Y0107258D01*
X0154221Y0107263D01*
X0154162Y0107272D01*
X0154103Y0107285D01*
X0154044Y0107301D01*
X0153987Y0107321D01*
X0153932Y0107344D01*
X0153877Y0107371D01*
X0153825Y0107400D01*
X0153774Y0107433D01*
X0153725Y0107469D01*
X0153679Y0107507D01*
X0153635Y0107549D01*
X0153593Y0107593D01*
X0153555Y0107639D01*
X0153519Y0107688D01*
X0153486Y0107739D01*
X0153457Y0107791D01*
X0153430Y0107846D01*
X0153407Y0107901D01*
X0153387Y0107958D01*
X0153371Y0108017D01*
X0153358Y0108076D01*
X0153349Y0108135D01*
X0153344Y0108196D01*
X0153342Y0108256D01*
X0153342Y0114256D01*
X0153344Y0114316D01*
X0153349Y0114377D01*
X0153358Y0114436D01*
X0153371Y0114495D01*
X0153387Y0114554D01*
X0153407Y0114611D01*
X0153430Y0114666D01*
X0153457Y0114721D01*
X0153486Y0114773D01*
X0153519Y0114824D01*
X0153555Y0114873D01*
X0153593Y0114919D01*
X0153635Y0114963D01*
X0153679Y0115005D01*
X0153725Y0115043D01*
X0153774Y0115079D01*
X0153825Y0115112D01*
X0153877Y0115141D01*
X0153932Y0115168D01*
X0153987Y0115191D01*
X0154044Y0115211D01*
X0154103Y0115227D01*
X0154162Y0115240D01*
X0154221Y0115249D01*
X0154282Y0115254D01*
X0154342Y0115256D01*
X0212342Y0131256D02*
X0212342Y0091256D01*
X0234342Y0091256D01*
X0234342Y0131256D01*
X0225842Y0131256D01*
X0225840Y0131158D01*
X0225834Y0131060D01*
X0225825Y0130962D01*
X0225811Y0130865D01*
X0225794Y0130768D01*
X0225773Y0130672D01*
X0225748Y0130577D01*
X0225720Y0130483D01*
X0225687Y0130391D01*
X0225652Y0130299D01*
X0225612Y0130209D01*
X0225570Y0130121D01*
X0225523Y0130034D01*
X0225474Y0129950D01*
X0225421Y0129867D01*
X0225365Y0129787D01*
X0225305Y0129708D01*
X0225243Y0129632D01*
X0225178Y0129559D01*
X0225110Y0129488D01*
X0225039Y0129420D01*
X0224966Y0129355D01*
X0224890Y0129293D01*
X0224811Y0129233D01*
X0224731Y0129177D01*
X0224648Y0129124D01*
X0224564Y0129075D01*
X0224477Y0129028D01*
X0224389Y0128986D01*
X0224299Y0128946D01*
X0224207Y0128911D01*
X0224115Y0128878D01*
X0224021Y0128850D01*
X0223926Y0128825D01*
X0223830Y0128804D01*
X0223733Y0128787D01*
X0223636Y0128773D01*
X0223538Y0128764D01*
X0223440Y0128758D01*
X0223342Y0128756D01*
X0223244Y0128758D01*
X0223146Y0128764D01*
X0223048Y0128773D01*
X0222951Y0128787D01*
X0222854Y0128804D01*
X0222758Y0128825D01*
X0222663Y0128850D01*
X0222569Y0128878D01*
X0222477Y0128911D01*
X0222385Y0128946D01*
X0222295Y0128986D01*
X0222207Y0129028D01*
X0222120Y0129075D01*
X0222036Y0129124D01*
X0221953Y0129177D01*
X0221873Y0129233D01*
X0221794Y0129293D01*
X0221718Y0129355D01*
X0221645Y0129420D01*
X0221574Y0129488D01*
X0221506Y0129559D01*
X0221441Y0129632D01*
X0221379Y0129708D01*
X0221319Y0129787D01*
X0221263Y0129867D01*
X0221210Y0129950D01*
X0221161Y0130034D01*
X0221114Y0130121D01*
X0221072Y0130209D01*
X0221032Y0130299D01*
X0220997Y0130391D01*
X0220964Y0130483D01*
X0220936Y0130577D01*
X0220911Y0130672D01*
X0220890Y0130768D01*
X0220873Y0130865D01*
X0220859Y0130962D01*
X0220850Y0131060D01*
X0220844Y0131158D01*
X0220842Y0131256D01*
X0212342Y0131256D01*
X0210842Y0156256D02*
X0205842Y0156256D01*
X0203342Y0158756D01*
X0200842Y0156256D01*
X0195842Y0156256D01*
X0193342Y0158756D01*
X0193342Y0163756D01*
X0195842Y0166256D01*
X0200842Y0166256D01*
X0203342Y0163756D01*
X0205842Y0166256D01*
X0210842Y0166256D01*
X0213342Y0163756D01*
X0215842Y0166256D01*
X0220842Y0166256D01*
X0223342Y0163756D01*
X0225842Y0166256D01*
X0230842Y0166256D01*
X0233342Y0163756D01*
X0235842Y0166256D01*
X0240842Y0166256D01*
X0243342Y0163756D01*
X0245842Y0166256D01*
X0250842Y0166256D01*
X0253342Y0163756D01*
X0253342Y0158756D01*
X0250842Y0156256D01*
X0245842Y0156256D01*
X0243342Y0158756D01*
X0240842Y0156256D01*
X0235842Y0156256D01*
X0233342Y0158756D01*
X0230842Y0156256D01*
X0225842Y0156256D01*
X0223342Y0158756D01*
X0220842Y0156256D01*
X0215842Y0156256D01*
X0213342Y0158756D01*
X0210842Y0156256D01*
X0273342Y0158756D02*
X0275842Y0156256D01*
X0280842Y0156256D01*
X0283342Y0158756D01*
X0285842Y0156256D01*
X0290842Y0156256D01*
X0293342Y0158756D01*
X0293342Y0163756D01*
X0290842Y0166256D01*
X0285842Y0166256D01*
X0283342Y0163756D01*
X0283342Y0158756D01*
X0283342Y0163756D02*
X0280842Y0166256D01*
X0275842Y0166256D01*
X0273342Y0163756D01*
X0273342Y0158756D01*
X0293342Y0158756D02*
X0295842Y0156256D01*
X0300842Y0156256D01*
X0303342Y0158756D01*
X0305842Y0156256D01*
X0310842Y0156256D01*
X0313342Y0158756D01*
X0313342Y0163756D01*
X0310842Y0166256D01*
X0305842Y0166256D01*
X0303342Y0163756D01*
X0303342Y0158756D01*
X0303342Y0163756D02*
X0300842Y0166256D01*
X0295842Y0166256D01*
X0293342Y0163756D01*
X0295842Y0141256D02*
X0300842Y0141256D01*
X0303342Y0138756D01*
X0305842Y0141256D01*
X0310842Y0141256D01*
X0313342Y0138756D01*
X0313342Y0133756D01*
X0310842Y0131256D01*
X0305842Y0131256D01*
X0303342Y0133756D01*
X0300842Y0131256D01*
X0295842Y0131256D01*
X0293342Y0133756D01*
X0290842Y0131256D01*
X0285842Y0131256D01*
X0283342Y0133756D01*
X0280842Y0131256D01*
X0275842Y0131256D01*
X0273342Y0133756D01*
X0273342Y0138756D01*
X0275842Y0141256D01*
X0280842Y0141256D01*
X0283342Y0138756D01*
X0285842Y0141256D01*
X0290842Y0141256D01*
X0293342Y0138756D01*
X0293342Y0133756D01*
X0293342Y0138756D02*
X0295842Y0141256D01*
X0303342Y0138756D02*
X0303342Y0133756D01*
X0283342Y0133756D02*
X0283342Y0138756D01*
X0285842Y0116256D02*
X0290842Y0116256D01*
X0293342Y0113756D01*
X0293342Y0108756D01*
X0290842Y0106256D01*
X0285842Y0106256D01*
X0283342Y0108756D01*
X0280842Y0106256D01*
X0275842Y0106256D01*
X0273342Y0108756D01*
X0273342Y0113756D01*
X0275842Y0116256D01*
X0280842Y0116256D01*
X0283342Y0113756D01*
X0285842Y0116256D01*
X0283342Y0113756D02*
X0283342Y0108756D01*
X0293342Y0108756D02*
X0295842Y0106256D01*
X0300842Y0106256D01*
X0303342Y0108756D01*
X0305842Y0106256D01*
X0310842Y0106256D01*
X0313342Y0108756D01*
X0313342Y0113756D01*
X0310842Y0116256D01*
X0305842Y0116256D01*
X0303342Y0113756D01*
X0303342Y0108756D01*
X0303342Y0113756D02*
X0300842Y0116256D01*
X0295842Y0116256D01*
X0293342Y0113756D01*
X0295842Y0091256D02*
X0300842Y0091256D01*
X0303342Y0088756D01*
X0305842Y0091256D01*
X0310842Y0091256D01*
X0313342Y0088756D01*
X0313342Y0083756D01*
X0310842Y0081256D01*
X0305842Y0081256D01*
X0303342Y0083756D01*
X0300842Y0081256D01*
X0295842Y0081256D01*
X0293342Y0083756D01*
X0290842Y0081256D01*
X0285842Y0081256D01*
X0283342Y0083756D01*
X0280842Y0081256D01*
X0275842Y0081256D01*
X0273342Y0083756D01*
X0273342Y0088756D01*
X0275842Y0091256D01*
X0280842Y0091256D01*
X0283342Y0088756D01*
X0285842Y0091256D01*
X0290842Y0091256D01*
X0293342Y0088756D01*
X0293342Y0083756D01*
X0293342Y0088756D02*
X0295842Y0091256D01*
X0303342Y0088756D02*
X0303342Y0083756D01*
X0283342Y0083756D02*
X0283342Y0088756D01*
X0242984Y0047756D02*
X0242984Y0038354D01*
X0242984Y0012354D01*
X0242984Y0011555D01*
X0203684Y0011555D01*
X0203684Y0012354D01*
X0203684Y0038354D01*
X0203684Y0047756D01*
X0242984Y0047756D01*
X0242984Y0038354D02*
X0236684Y0038354D01*
X0229684Y0038354D02*
X0216984Y0038354D01*
X0209984Y0038354D02*
X0203684Y0038354D01*
X0211484Y0017556D02*
X0211486Y0017645D01*
X0211492Y0017734D01*
X0211502Y0017823D01*
X0211516Y0017911D01*
X0211533Y0017998D01*
X0211555Y0018084D01*
X0211581Y0018170D01*
X0211610Y0018254D01*
X0211643Y0018337D01*
X0211679Y0018418D01*
X0211720Y0018498D01*
X0211763Y0018575D01*
X0211810Y0018651D01*
X0211861Y0018724D01*
X0211914Y0018795D01*
X0211971Y0018864D01*
X0212031Y0018930D01*
X0212094Y0018994D01*
X0212159Y0019054D01*
X0212227Y0019112D01*
X0212298Y0019166D01*
X0212371Y0019217D01*
X0212446Y0019265D01*
X0212523Y0019310D01*
X0212602Y0019351D01*
X0212683Y0019388D01*
X0212765Y0019422D01*
X0212849Y0019453D01*
X0212934Y0019479D01*
X0213020Y0019502D01*
X0213107Y0019520D01*
X0213195Y0019535D01*
X0213284Y0019546D01*
X0213373Y0019553D01*
X0213462Y0019556D01*
X0213551Y0019555D01*
X0213640Y0019550D01*
X0213728Y0019541D01*
X0213817Y0019528D01*
X0213904Y0019511D01*
X0213991Y0019491D01*
X0214077Y0019466D01*
X0214161Y0019438D01*
X0214244Y0019406D01*
X0214326Y0019370D01*
X0214406Y0019331D01*
X0214484Y0019288D01*
X0214560Y0019242D01*
X0214634Y0019192D01*
X0214706Y0019139D01*
X0214775Y0019083D01*
X0214842Y0019024D01*
X0214906Y0018962D01*
X0214967Y0018898D01*
X0215026Y0018830D01*
X0215081Y0018760D01*
X0215133Y0018688D01*
X0215182Y0018613D01*
X0215227Y0018537D01*
X0215269Y0018458D01*
X0215307Y0018378D01*
X0215342Y0018296D01*
X0215373Y0018212D01*
X0215401Y0018127D01*
X0215424Y0018041D01*
X0215444Y0017954D01*
X0215460Y0017867D01*
X0215472Y0017778D01*
X0215480Y0017690D01*
X0215484Y0017601D01*
X0215484Y0017511D01*
X0215480Y0017422D01*
X0215472Y0017334D01*
X0215460Y0017245D01*
X0215444Y0017158D01*
X0215424Y0017071D01*
X0215401Y0016985D01*
X0215373Y0016900D01*
X0215342Y0016816D01*
X0215307Y0016734D01*
X0215269Y0016654D01*
X0215227Y0016575D01*
X0215182Y0016499D01*
X0215133Y0016424D01*
X0215081Y0016352D01*
X0215026Y0016282D01*
X0214967Y0016214D01*
X0214906Y0016150D01*
X0214842Y0016088D01*
X0214775Y0016029D01*
X0214706Y0015973D01*
X0214634Y0015920D01*
X0214560Y0015870D01*
X0214484Y0015824D01*
X0214406Y0015781D01*
X0214326Y0015742D01*
X0214244Y0015706D01*
X0214161Y0015674D01*
X0214077Y0015646D01*
X0213991Y0015621D01*
X0213904Y0015601D01*
X0213817Y0015584D01*
X0213728Y0015571D01*
X0213640Y0015562D01*
X0213551Y0015557D01*
X0213462Y0015556D01*
X0213373Y0015559D01*
X0213284Y0015566D01*
X0213195Y0015577D01*
X0213107Y0015592D01*
X0213020Y0015610D01*
X0212934Y0015633D01*
X0212849Y0015659D01*
X0212765Y0015690D01*
X0212683Y0015724D01*
X0212602Y0015761D01*
X0212523Y0015802D01*
X0212446Y0015847D01*
X0212371Y0015895D01*
X0212298Y0015946D01*
X0212227Y0016000D01*
X0212159Y0016058D01*
X0212094Y0016118D01*
X0212031Y0016182D01*
X0211971Y0016248D01*
X0211914Y0016317D01*
X0211861Y0016388D01*
X0211810Y0016461D01*
X0211763Y0016537D01*
X0211720Y0016614D01*
X0211679Y0016694D01*
X0211643Y0016775D01*
X0211610Y0016858D01*
X0211581Y0016942D01*
X0211555Y0017028D01*
X0211533Y0017114D01*
X0211516Y0017201D01*
X0211502Y0017289D01*
X0211492Y0017378D01*
X0211486Y0017467D01*
X0211484Y0017556D01*
X0203684Y0012354D02*
X0242984Y0012354D01*
X0231184Y0017556D02*
X0231186Y0017645D01*
X0231192Y0017734D01*
X0231202Y0017823D01*
X0231216Y0017911D01*
X0231233Y0017998D01*
X0231255Y0018084D01*
X0231281Y0018170D01*
X0231310Y0018254D01*
X0231343Y0018337D01*
X0231379Y0018418D01*
X0231420Y0018498D01*
X0231463Y0018575D01*
X0231510Y0018651D01*
X0231561Y0018724D01*
X0231614Y0018795D01*
X0231671Y0018864D01*
X0231731Y0018930D01*
X0231794Y0018994D01*
X0231859Y0019054D01*
X0231927Y0019112D01*
X0231998Y0019166D01*
X0232071Y0019217D01*
X0232146Y0019265D01*
X0232223Y0019310D01*
X0232302Y0019351D01*
X0232383Y0019388D01*
X0232465Y0019422D01*
X0232549Y0019453D01*
X0232634Y0019479D01*
X0232720Y0019502D01*
X0232807Y0019520D01*
X0232895Y0019535D01*
X0232984Y0019546D01*
X0233073Y0019553D01*
X0233162Y0019556D01*
X0233251Y0019555D01*
X0233340Y0019550D01*
X0233428Y0019541D01*
X0233517Y0019528D01*
X0233604Y0019511D01*
X0233691Y0019491D01*
X0233777Y0019466D01*
X0233861Y0019438D01*
X0233944Y0019406D01*
X0234026Y0019370D01*
X0234106Y0019331D01*
X0234184Y0019288D01*
X0234260Y0019242D01*
X0234334Y0019192D01*
X0234406Y0019139D01*
X0234475Y0019083D01*
X0234542Y0019024D01*
X0234606Y0018962D01*
X0234667Y0018898D01*
X0234726Y0018830D01*
X0234781Y0018760D01*
X0234833Y0018688D01*
X0234882Y0018613D01*
X0234927Y0018537D01*
X0234969Y0018458D01*
X0235007Y0018378D01*
X0235042Y0018296D01*
X0235073Y0018212D01*
X0235101Y0018127D01*
X0235124Y0018041D01*
X0235144Y0017954D01*
X0235160Y0017867D01*
X0235172Y0017778D01*
X0235180Y0017690D01*
X0235184Y0017601D01*
X0235184Y0017511D01*
X0235180Y0017422D01*
X0235172Y0017334D01*
X0235160Y0017245D01*
X0235144Y0017158D01*
X0235124Y0017071D01*
X0235101Y0016985D01*
X0235073Y0016900D01*
X0235042Y0016816D01*
X0235007Y0016734D01*
X0234969Y0016654D01*
X0234927Y0016575D01*
X0234882Y0016499D01*
X0234833Y0016424D01*
X0234781Y0016352D01*
X0234726Y0016282D01*
X0234667Y0016214D01*
X0234606Y0016150D01*
X0234542Y0016088D01*
X0234475Y0016029D01*
X0234406Y0015973D01*
X0234334Y0015920D01*
X0234260Y0015870D01*
X0234184Y0015824D01*
X0234106Y0015781D01*
X0234026Y0015742D01*
X0233944Y0015706D01*
X0233861Y0015674D01*
X0233777Y0015646D01*
X0233691Y0015621D01*
X0233604Y0015601D01*
X0233517Y0015584D01*
X0233428Y0015571D01*
X0233340Y0015562D01*
X0233251Y0015557D01*
X0233162Y0015556D01*
X0233073Y0015559D01*
X0232984Y0015566D01*
X0232895Y0015577D01*
X0232807Y0015592D01*
X0232720Y0015610D01*
X0232634Y0015633D01*
X0232549Y0015659D01*
X0232465Y0015690D01*
X0232383Y0015724D01*
X0232302Y0015761D01*
X0232223Y0015802D01*
X0232146Y0015847D01*
X0232071Y0015895D01*
X0231998Y0015946D01*
X0231927Y0016000D01*
X0231859Y0016058D01*
X0231794Y0016118D01*
X0231731Y0016182D01*
X0231671Y0016248D01*
X0231614Y0016317D01*
X0231561Y0016388D01*
X0231510Y0016461D01*
X0231463Y0016537D01*
X0231420Y0016614D01*
X0231379Y0016694D01*
X0231343Y0016775D01*
X0231310Y0016858D01*
X0231281Y0016942D01*
X0231255Y0017028D01*
X0231233Y0017114D01*
X0231216Y0017201D01*
X0231202Y0017289D01*
X0231192Y0017378D01*
X0231186Y0017467D01*
X0231184Y0017556D01*
X0278342Y0018756D02*
X0280842Y0016256D01*
X0285842Y0016256D01*
X0288342Y0018756D01*
X0288342Y0023756D01*
X0285842Y0026256D01*
X0280842Y0026256D01*
X0278342Y0023756D01*
X0278342Y0018756D01*
X0288342Y0018756D02*
X0290842Y0016256D01*
X0295842Y0016256D01*
X0298342Y0018756D01*
X0298342Y0023756D01*
X0295842Y0026256D01*
X0290842Y0026256D01*
X0288342Y0023756D01*
D11*
X0280094Y0044756D02*
X0296590Y0044756D01*
X0293869Y0050756D02*
X0292814Y0050756D01*
X0297888Y0046878D02*
X0297781Y0046653D01*
X0297669Y0046430D01*
X0297552Y0046210D01*
X0297430Y0045993D01*
X0297302Y0045778D01*
X0297169Y0045567D01*
X0297032Y0045359D01*
X0296889Y0045155D01*
X0296742Y0044953D01*
X0296590Y0044756D01*
X0297842Y0055728D02*
X0297730Y0055958D01*
X0297613Y0056185D01*
X0297491Y0056409D01*
X0297363Y0056630D01*
X0297229Y0056847D01*
X0297091Y0057062D01*
X0296947Y0057273D01*
X0296798Y0057480D01*
X0296644Y0057684D01*
X0296486Y0057884D01*
X0296322Y0058080D01*
X0296154Y0058272D01*
X0295981Y0058460D01*
X0295803Y0058644D01*
X0295622Y0058823D01*
X0295435Y0058998D01*
X0295245Y0059168D01*
X0295051Y0059333D01*
X0294852Y0059494D01*
X0294650Y0059650D01*
X0294444Y0059801D01*
X0294234Y0059947D01*
X0294021Y0060087D01*
X0293805Y0060223D01*
X0293585Y0060353D01*
X0293362Y0060478D01*
X0293137Y0060597D01*
X0292908Y0060711D01*
X0292677Y0060819D01*
X0292443Y0060922D01*
X0292207Y0061019D01*
X0291968Y0061110D01*
X0291728Y0061195D01*
X0291485Y0061275D01*
X0291240Y0061348D01*
X0290994Y0061416D01*
X0290746Y0061477D01*
X0290497Y0061532D01*
X0290247Y0061582D01*
X0289995Y0061625D01*
X0289742Y0061662D01*
X0289489Y0061693D01*
X0289235Y0061718D01*
X0288980Y0061737D01*
X0288725Y0061749D01*
X0288470Y0061755D01*
X0288214Y0061755D01*
X0287959Y0061749D01*
X0287704Y0061737D01*
X0287449Y0061718D01*
X0287195Y0061693D01*
X0286942Y0061662D01*
X0286689Y0061625D01*
X0286437Y0061582D01*
X0286187Y0061532D01*
X0285938Y0061477D01*
X0285690Y0061416D01*
X0285444Y0061348D01*
X0285199Y0061275D01*
X0284956Y0061195D01*
X0284716Y0061110D01*
X0284477Y0061019D01*
X0284241Y0060922D01*
X0284007Y0060819D01*
X0283776Y0060711D01*
X0283547Y0060597D01*
X0283322Y0060478D01*
X0283099Y0060353D01*
X0282879Y0060223D01*
X0282663Y0060087D01*
X0282450Y0059947D01*
X0282240Y0059801D01*
X0282034Y0059650D01*
X0281832Y0059494D01*
X0281633Y0059333D01*
X0281439Y0059168D01*
X0281249Y0058998D01*
X0281062Y0058823D01*
X0280881Y0058644D01*
X0280703Y0058460D01*
X0280530Y0058272D01*
X0280362Y0058080D01*
X0280198Y0057884D01*
X0280040Y0057684D01*
X0279886Y0057480D01*
X0279737Y0057273D01*
X0279593Y0057062D01*
X0279455Y0056847D01*
X0279321Y0056630D01*
X0279193Y0056409D01*
X0279071Y0056185D01*
X0278954Y0055958D01*
X0278842Y0055728D01*
X0282814Y0050756D02*
X0283869Y0050756D01*
X0278840Y0046784D02*
X0278944Y0046569D01*
X0279053Y0046356D01*
X0279167Y0046146D01*
X0279286Y0045939D01*
X0279409Y0045734D01*
X0279537Y0045532D01*
X0279670Y0045333D01*
X0279807Y0045138D01*
X0279948Y0044945D01*
X0280094Y0044756D01*
X0240934Y0019006D02*
X0238434Y0019006D01*
X0239684Y0019006D02*
X0239684Y0023506D01*
X0238434Y0022506D01*
X0221434Y0019006D02*
X0218934Y0019006D01*
X0221059Y0021506D01*
X0220309Y0023506D02*
X0220236Y0023504D01*
X0220164Y0023499D01*
X0220092Y0023490D01*
X0220020Y0023477D01*
X0219949Y0023461D01*
X0219879Y0023441D01*
X0219811Y0023417D01*
X0219743Y0023391D01*
X0219677Y0023360D01*
X0219612Y0023327D01*
X0219550Y0023290D01*
X0219489Y0023251D01*
X0219430Y0023208D01*
X0219373Y0023162D01*
X0219319Y0023114D01*
X0219268Y0023063D01*
X0219218Y0023009D01*
X0219172Y0022953D01*
X0219129Y0022895D01*
X0219088Y0022834D01*
X0219051Y0022772D01*
X0219017Y0022708D01*
X0218986Y0022642D01*
X0218958Y0022575D01*
X0218934Y0022506D01*
X0221059Y0021506D02*
X0221105Y0021552D01*
X0221149Y0021601D01*
X0221189Y0021652D01*
X0221227Y0021705D01*
X0221262Y0021760D01*
X0221294Y0021817D01*
X0221323Y0021875D01*
X0221349Y0021935D01*
X0221371Y0021997D01*
X0221390Y0022059D01*
X0221406Y0022122D01*
X0221418Y0022186D01*
X0221427Y0022251D01*
X0221432Y0022316D01*
X0221434Y0022381D01*
X0221432Y0022446D01*
X0221426Y0022512D01*
X0221417Y0022576D01*
X0221404Y0022640D01*
X0221387Y0022704D01*
X0221366Y0022766D01*
X0221342Y0022827D01*
X0221314Y0022886D01*
X0221283Y0022944D01*
X0221249Y0022999D01*
X0221211Y0023053D01*
X0221171Y0023104D01*
X0221127Y0023153D01*
X0221081Y0023199D01*
X0221032Y0023243D01*
X0220981Y0023283D01*
X0220927Y0023321D01*
X0220872Y0023355D01*
X0220814Y0023386D01*
X0220755Y0023414D01*
X0220694Y0023438D01*
X0220632Y0023459D01*
X0220568Y0023476D01*
X0220504Y0023489D01*
X0220440Y0023498D01*
X0220374Y0023504D01*
X0220309Y0023506D01*
X0168342Y0066256D02*
X0043342Y0066256D01*
X0043342Y0166256D01*
X0168342Y0166256D01*
X0168584Y0166253D01*
X0168825Y0166244D01*
X0169066Y0166230D01*
X0169307Y0166209D01*
X0169547Y0166183D01*
X0169787Y0166151D01*
X0170026Y0166113D01*
X0170263Y0166070D01*
X0170500Y0166020D01*
X0170735Y0165965D01*
X0170969Y0165905D01*
X0171201Y0165838D01*
X0171432Y0165767D01*
X0171661Y0165689D01*
X0171888Y0165606D01*
X0172113Y0165518D01*
X0172336Y0165424D01*
X0172556Y0165325D01*
X0172774Y0165220D01*
X0172989Y0165111D01*
X0173202Y0164996D01*
X0173412Y0164876D01*
X0173618Y0164751D01*
X0173822Y0164621D01*
X0174023Y0164486D01*
X0174220Y0164346D01*
X0174414Y0164202D01*
X0174604Y0164053D01*
X0174790Y0163899D01*
X0174973Y0163741D01*
X0175152Y0163579D01*
X0175327Y0163412D01*
X0175498Y0163241D01*
X0175665Y0163066D01*
X0175827Y0162887D01*
X0175985Y0162704D01*
X0176139Y0162518D01*
X0176288Y0162328D01*
X0176432Y0162134D01*
X0176572Y0161937D01*
X0176707Y0161736D01*
X0176837Y0161532D01*
X0176962Y0161326D01*
X0177082Y0161116D01*
X0177197Y0160903D01*
X0177306Y0160688D01*
X0177411Y0160470D01*
X0177510Y0160250D01*
X0177604Y0160027D01*
X0177692Y0159802D01*
X0177775Y0159575D01*
X0177853Y0159346D01*
X0177924Y0159115D01*
X0177991Y0158883D01*
X0178051Y0158649D01*
X0178106Y0158414D01*
X0178156Y0158177D01*
X0178199Y0157940D01*
X0178237Y0157701D01*
X0178269Y0157461D01*
X0178295Y0157221D01*
X0178316Y0156980D01*
X0178330Y0156739D01*
X0178339Y0156498D01*
X0178342Y0156256D01*
X0178342Y0076256D01*
X0178339Y0076014D01*
X0178330Y0075773D01*
X0178316Y0075532D01*
X0178295Y0075291D01*
X0178269Y0075051D01*
X0178237Y0074811D01*
X0178199Y0074572D01*
X0178156Y0074335D01*
X0178106Y0074098D01*
X0178051Y0073863D01*
X0177991Y0073629D01*
X0177924Y0073397D01*
X0177853Y0073166D01*
X0177775Y0072937D01*
X0177692Y0072710D01*
X0177604Y0072485D01*
X0177510Y0072262D01*
X0177411Y0072042D01*
X0177306Y0071824D01*
X0177197Y0071609D01*
X0177082Y0071396D01*
X0176962Y0071186D01*
X0176837Y0070980D01*
X0176707Y0070776D01*
X0176572Y0070575D01*
X0176432Y0070378D01*
X0176288Y0070184D01*
X0176139Y0069994D01*
X0175985Y0069808D01*
X0175827Y0069625D01*
X0175665Y0069446D01*
X0175498Y0069271D01*
X0175327Y0069100D01*
X0175152Y0068933D01*
X0174973Y0068771D01*
X0174790Y0068613D01*
X0174604Y0068459D01*
X0174414Y0068310D01*
X0174220Y0068166D01*
X0174023Y0068026D01*
X0173822Y0067891D01*
X0173618Y0067761D01*
X0173412Y0067636D01*
X0173202Y0067516D01*
X0172989Y0067401D01*
X0172774Y0067292D01*
X0172556Y0067187D01*
X0172336Y0067088D01*
X0172113Y0066994D01*
X0171888Y0066906D01*
X0171661Y0066823D01*
X0171432Y0066745D01*
X0171201Y0066674D01*
X0170969Y0066607D01*
X0170735Y0066547D01*
X0170500Y0066492D01*
X0170263Y0066442D01*
X0170026Y0066399D01*
X0169787Y0066361D01*
X0169547Y0066329D01*
X0169307Y0066303D01*
X0169066Y0066282D01*
X0168825Y0066268D01*
X0168584Y0066259D01*
X0168342Y0066256D01*
X0178247Y0085154D02*
X0155413Y0085154D01*
X0155413Y0148146D01*
X0178247Y0148146D01*
X0178247Y0085154D01*
X0155442Y0085156D02*
X0083342Y0085156D01*
X0083342Y0085256D02*
X0083342Y0148156D01*
X0155442Y0148156D01*
X0198092Y0151256D02*
X0198092Y0152506D01*
X0199592Y0152506D01*
X0198092Y0152506D02*
X0198094Y0152593D01*
X0198100Y0152680D01*
X0198109Y0152767D01*
X0198122Y0152853D01*
X0198139Y0152939D01*
X0198160Y0153024D01*
X0198185Y0153107D01*
X0198213Y0153190D01*
X0198244Y0153271D01*
X0198279Y0153351D01*
X0198318Y0153429D01*
X0198360Y0153506D01*
X0198405Y0153581D01*
X0198454Y0153653D01*
X0198505Y0153724D01*
X0198560Y0153792D01*
X0198617Y0153857D01*
X0198678Y0153920D01*
X0198741Y0153981D01*
X0198806Y0154038D01*
X0198874Y0154093D01*
X0198945Y0154144D01*
X0199017Y0154193D01*
X0199092Y0154238D01*
X0199169Y0154280D01*
X0199247Y0154319D01*
X0199327Y0154354D01*
X0199408Y0154385D01*
X0199491Y0154413D01*
X0199574Y0154438D01*
X0199659Y0154459D01*
X0199745Y0154476D01*
X0199831Y0154489D01*
X0199918Y0154498D01*
X0200005Y0154504D01*
X0200092Y0154506D01*
X0200592Y0151506D02*
X0200592Y0151256D01*
X0200592Y0151506D02*
X0200590Y0151566D01*
X0200585Y0151627D01*
X0200576Y0151686D01*
X0200563Y0151745D01*
X0200547Y0151804D01*
X0200527Y0151861D01*
X0200504Y0151916D01*
X0200477Y0151971D01*
X0200448Y0152023D01*
X0200415Y0152074D01*
X0200379Y0152123D01*
X0200341Y0152169D01*
X0200299Y0152213D01*
X0200255Y0152255D01*
X0200209Y0152293D01*
X0200160Y0152329D01*
X0200109Y0152362D01*
X0200057Y0152391D01*
X0200002Y0152418D01*
X0199947Y0152441D01*
X0199890Y0152461D01*
X0199831Y0152477D01*
X0199772Y0152490D01*
X0199713Y0152499D01*
X0199652Y0152504D01*
X0199592Y0152506D01*
X0200592Y0151256D02*
X0200590Y0151187D01*
X0200584Y0151118D01*
X0200575Y0151050D01*
X0200562Y0150983D01*
X0200545Y0150916D01*
X0200524Y0150850D01*
X0200500Y0150786D01*
X0200472Y0150723D01*
X0200441Y0150661D01*
X0200407Y0150601D01*
X0200369Y0150544D01*
X0200328Y0150488D01*
X0200285Y0150435D01*
X0200238Y0150384D01*
X0200189Y0150336D01*
X0200137Y0150291D01*
X0200082Y0150249D01*
X0200026Y0150210D01*
X0199967Y0150173D01*
X0199906Y0150141D01*
X0199844Y0150111D01*
X0199780Y0150085D01*
X0199715Y0150063D01*
X0199649Y0150044D01*
X0199582Y0150029D01*
X0199514Y0150018D01*
X0199445Y0150010D01*
X0199376Y0150006D01*
X0199308Y0150006D01*
X0199239Y0150010D01*
X0199170Y0150018D01*
X0199102Y0150029D01*
X0199035Y0150044D01*
X0198969Y0150063D01*
X0198904Y0150085D01*
X0198840Y0150111D01*
X0198778Y0150141D01*
X0198717Y0150173D01*
X0198658Y0150210D01*
X0198602Y0150249D01*
X0198547Y0150291D01*
X0198495Y0150336D01*
X0198446Y0150384D01*
X0198399Y0150435D01*
X0198356Y0150488D01*
X0198315Y0150544D01*
X0198277Y0150601D01*
X0198243Y0150661D01*
X0198212Y0150723D01*
X0198184Y0150786D01*
X0198160Y0150850D01*
X0198139Y0150916D01*
X0198122Y0150983D01*
X0198109Y0151050D01*
X0198100Y0151118D01*
X0198094Y0151187D01*
X0198092Y0151256D01*
X0248092Y0168006D02*
X0250592Y0168006D01*
X0249342Y0168006D02*
X0249342Y0172506D01*
X0248092Y0171506D01*
X0155442Y0085256D02*
X0155442Y0085156D01*
D12*
X0107142Y0097465D02*
X0107142Y0098909D01*
X0107142Y0097465D02*
X0101942Y0097465D01*
X0101942Y0098909D01*
X0101944Y0098982D01*
X0101949Y0099055D01*
X0101959Y0099128D01*
X0101972Y0099200D01*
X0101988Y0099271D01*
X0102008Y0099341D01*
X0102032Y0099411D01*
X0102059Y0099478D01*
X0102090Y0099545D01*
X0102123Y0099610D01*
X0102161Y0099673D01*
X0102201Y0099734D01*
X0102244Y0099793D01*
X0102290Y0099850D01*
X0102339Y0099904D01*
X0102391Y0099956D01*
X0102445Y0100005D01*
X0102502Y0100051D01*
X0102561Y0100094D01*
X0102622Y0100134D01*
X0102685Y0100172D01*
X0102750Y0100205D01*
X0102817Y0100236D01*
X0102885Y0100263D01*
X0102954Y0100287D01*
X0103024Y0100307D01*
X0103095Y0100323D01*
X0103167Y0100336D01*
X0103240Y0100346D01*
X0103313Y0100351D01*
X0103386Y0100353D01*
X0103386Y0100354D02*
X0105697Y0100354D01*
X0105697Y0100353D02*
X0105773Y0100351D01*
X0105848Y0100345D01*
X0105923Y0100335D01*
X0105997Y0100321D01*
X0106071Y0100304D01*
X0106143Y0100282D01*
X0106214Y0100257D01*
X0106284Y0100228D01*
X0106353Y0100196D01*
X0106419Y0100160D01*
X0106483Y0100120D01*
X0106546Y0100077D01*
X0106606Y0100031D01*
X0106663Y0099982D01*
X0106718Y0099930D01*
X0106770Y0099875D01*
X0106819Y0099818D01*
X0106865Y0099758D01*
X0106908Y0099695D01*
X0106948Y0099631D01*
X0106984Y0099565D01*
X0107016Y0099496D01*
X0107045Y0099426D01*
X0107070Y0099355D01*
X0107092Y0099283D01*
X0107109Y0099209D01*
X0107123Y0099135D01*
X0107133Y0099060D01*
X0107139Y0098985D01*
X0107141Y0098909D01*
X0107142Y0102673D02*
X0107142Y0105562D01*
X0107142Y0104117D02*
X0101942Y0104117D01*
X0103097Y0102673D01*
X0098742Y0100931D02*
X0093542Y0102087D01*
X0095275Y0099776D02*
X0098742Y0100931D01*
X0098742Y0098620D02*
X0095275Y0099776D01*
X0093542Y0097465D02*
X0098742Y0098620D01*
X0097875Y0103996D02*
X0096431Y0103996D01*
X0097008Y0103996D02*
X0097008Y0106307D01*
X0096431Y0106307D01*
X0096431Y0106308D02*
X0096364Y0106306D01*
X0096297Y0106300D01*
X0096230Y0106290D01*
X0096164Y0106277D01*
X0096099Y0106259D01*
X0096036Y0106238D01*
X0095973Y0106213D01*
X0095912Y0106185D01*
X0095853Y0106153D01*
X0095796Y0106118D01*
X0095741Y0106079D01*
X0095688Y0106038D01*
X0095638Y0105993D01*
X0095590Y0105945D01*
X0095545Y0105895D01*
X0095504Y0105842D01*
X0095465Y0105787D01*
X0095430Y0105730D01*
X0095398Y0105671D01*
X0095370Y0105610D01*
X0095345Y0105547D01*
X0095324Y0105484D01*
X0095306Y0105419D01*
X0095293Y0105353D01*
X0095283Y0105286D01*
X0095277Y0105219D01*
X0095275Y0105152D01*
X0095277Y0105085D01*
X0095283Y0105018D01*
X0095293Y0104951D01*
X0095306Y0104885D01*
X0095324Y0104820D01*
X0095345Y0104757D01*
X0095370Y0104694D01*
X0095398Y0104633D01*
X0095430Y0104574D01*
X0095465Y0104517D01*
X0095504Y0104462D01*
X0095545Y0104409D01*
X0095590Y0104359D01*
X0095638Y0104311D01*
X0095688Y0104266D01*
X0095741Y0104225D01*
X0095796Y0104186D01*
X0095853Y0104151D01*
X0095912Y0104119D01*
X0095973Y0104091D01*
X0096036Y0104066D01*
X0096099Y0104045D01*
X0096164Y0104027D01*
X0096230Y0104014D01*
X0096297Y0104004D01*
X0096364Y0103998D01*
X0096431Y0103996D01*
X0097875Y0103996D02*
X0097932Y0103998D01*
X0097988Y0104003D01*
X0098044Y0104013D01*
X0098099Y0104026D01*
X0098154Y0104042D01*
X0098207Y0104062D01*
X0098258Y0104085D01*
X0098309Y0104112D01*
X0098357Y0104142D01*
X0098403Y0104175D01*
X0098447Y0104211D01*
X0098488Y0104250D01*
X0098527Y0104291D01*
X0098563Y0104335D01*
X0098596Y0104381D01*
X0098626Y0104430D01*
X0098653Y0104480D01*
X0098676Y0104531D01*
X0098696Y0104584D01*
X0098712Y0104639D01*
X0098725Y0104694D01*
X0098735Y0104750D01*
X0098740Y0104806D01*
X0098742Y0104863D01*
X0098742Y0106307D01*
X0098742Y0108626D02*
X0093542Y0108626D01*
X0096431Y0110360D01*
X0093542Y0112093D01*
X0098742Y0112093D01*
X0097586Y0114412D02*
X0096431Y0114412D01*
X0096364Y0114414D01*
X0096297Y0114420D01*
X0096230Y0114430D01*
X0096164Y0114443D01*
X0096099Y0114461D01*
X0096036Y0114482D01*
X0095973Y0114507D01*
X0095912Y0114535D01*
X0095853Y0114567D01*
X0095796Y0114602D01*
X0095741Y0114641D01*
X0095688Y0114682D01*
X0095638Y0114727D01*
X0095590Y0114775D01*
X0095545Y0114825D01*
X0095504Y0114878D01*
X0095465Y0114933D01*
X0095430Y0114990D01*
X0095398Y0115049D01*
X0095370Y0115110D01*
X0095345Y0115173D01*
X0095324Y0115236D01*
X0095306Y0115301D01*
X0095293Y0115367D01*
X0095283Y0115434D01*
X0095277Y0115501D01*
X0095275Y0115568D01*
X0095277Y0115635D01*
X0095283Y0115702D01*
X0095293Y0115769D01*
X0095306Y0115835D01*
X0095324Y0115900D01*
X0095345Y0115963D01*
X0095370Y0116026D01*
X0095398Y0116087D01*
X0095430Y0116146D01*
X0095465Y0116203D01*
X0095504Y0116258D01*
X0095545Y0116311D01*
X0095590Y0116361D01*
X0095638Y0116409D01*
X0095688Y0116454D01*
X0095741Y0116495D01*
X0095796Y0116534D01*
X0095853Y0116569D01*
X0095912Y0116601D01*
X0095973Y0116629D01*
X0096036Y0116654D01*
X0096099Y0116675D01*
X0096164Y0116693D01*
X0096230Y0116706D01*
X0096297Y0116716D01*
X0096364Y0116722D01*
X0096431Y0116724D01*
X0096431Y0116723D02*
X0097586Y0116723D01*
X0097586Y0116724D02*
X0097653Y0116722D01*
X0097720Y0116716D01*
X0097787Y0116706D01*
X0097853Y0116693D01*
X0097918Y0116675D01*
X0097981Y0116654D01*
X0098044Y0116629D01*
X0098105Y0116601D01*
X0098164Y0116569D01*
X0098221Y0116534D01*
X0098276Y0116495D01*
X0098329Y0116454D01*
X0098379Y0116409D01*
X0098427Y0116361D01*
X0098472Y0116311D01*
X0098513Y0116258D01*
X0098552Y0116203D01*
X0098587Y0116146D01*
X0098619Y0116087D01*
X0098647Y0116026D01*
X0098672Y0115963D01*
X0098693Y0115900D01*
X0098711Y0115835D01*
X0098724Y0115769D01*
X0098734Y0115702D01*
X0098740Y0115635D01*
X0098742Y0115568D01*
X0098740Y0115501D01*
X0098734Y0115434D01*
X0098724Y0115367D01*
X0098711Y0115301D01*
X0098693Y0115236D01*
X0098672Y0115173D01*
X0098647Y0115110D01*
X0098619Y0115049D01*
X0098587Y0114990D01*
X0098552Y0114933D01*
X0098513Y0114878D01*
X0098472Y0114825D01*
X0098427Y0114775D01*
X0098379Y0114727D01*
X0098329Y0114682D01*
X0098276Y0114641D01*
X0098221Y0114602D01*
X0098164Y0114567D01*
X0098105Y0114535D01*
X0098044Y0114507D01*
X0097981Y0114482D01*
X0097918Y0114461D01*
X0097853Y0114443D01*
X0097787Y0114430D01*
X0097720Y0114420D01*
X0097653Y0114414D01*
X0097586Y0114412D01*
X0101942Y0116237D02*
X0101942Y0116525D01*
X0102231Y0116525D01*
X0102231Y0116237D01*
X0101942Y0116237D01*
X0103675Y0116381D02*
X0107142Y0116381D01*
X0107142Y0118585D02*
X0103675Y0118585D01*
X0103675Y0120030D01*
X0103677Y0120087D01*
X0103682Y0120143D01*
X0103692Y0120199D01*
X0103705Y0120254D01*
X0103721Y0120309D01*
X0103741Y0120362D01*
X0103764Y0120413D01*
X0103791Y0120463D01*
X0103821Y0120512D01*
X0103854Y0120558D01*
X0103890Y0120602D01*
X0103929Y0120643D01*
X0103970Y0120682D01*
X0104014Y0120718D01*
X0104060Y0120751D01*
X0104108Y0120781D01*
X0104159Y0120808D01*
X0104210Y0120831D01*
X0104263Y0120851D01*
X0104318Y0120867D01*
X0104373Y0120880D01*
X0104429Y0120890D01*
X0104485Y0120895D01*
X0104542Y0120897D01*
X0107142Y0120897D01*
X0107142Y0123101D02*
X0103675Y0123101D01*
X0102231Y0123245D02*
X0102231Y0122957D01*
X0101942Y0122957D01*
X0101942Y0123245D01*
X0102231Y0123245D01*
X0098742Y0123272D02*
X0098742Y0122983D01*
X0098453Y0122983D01*
X0098453Y0123272D01*
X0098742Y0123272D01*
X0097875Y0125170D02*
X0096142Y0125170D01*
X0096142Y0125169D02*
X0096085Y0125171D01*
X0096029Y0125176D01*
X0095973Y0125186D01*
X0095918Y0125199D01*
X0095863Y0125215D01*
X0095810Y0125235D01*
X0095759Y0125258D01*
X0095709Y0125285D01*
X0095660Y0125315D01*
X0095614Y0125348D01*
X0095570Y0125384D01*
X0095529Y0125423D01*
X0095490Y0125464D01*
X0095454Y0125508D01*
X0095421Y0125554D01*
X0095391Y0125603D01*
X0095364Y0125653D01*
X0095341Y0125704D01*
X0095321Y0125757D01*
X0095305Y0125812D01*
X0095292Y0125867D01*
X0095282Y0125923D01*
X0095277Y0125979D01*
X0095275Y0126036D01*
X0095275Y0127192D01*
X0096142Y0129034D02*
X0097875Y0129034D01*
X0097875Y0129033D02*
X0097932Y0129035D01*
X0097988Y0129040D01*
X0098044Y0129050D01*
X0098099Y0129063D01*
X0098154Y0129079D01*
X0098207Y0129099D01*
X0098258Y0129122D01*
X0098309Y0129149D01*
X0098357Y0129179D01*
X0098403Y0129212D01*
X0098447Y0129248D01*
X0098488Y0129287D01*
X0098527Y0129328D01*
X0098563Y0129372D01*
X0098596Y0129418D01*
X0098626Y0129467D01*
X0098653Y0129517D01*
X0098676Y0129568D01*
X0098696Y0129621D01*
X0098712Y0129676D01*
X0098725Y0129731D01*
X0098735Y0129787D01*
X0098740Y0129843D01*
X0098742Y0129900D01*
X0098742Y0131056D01*
X0096142Y0129033D02*
X0096085Y0129035D01*
X0096029Y0129040D01*
X0095973Y0129050D01*
X0095918Y0129063D01*
X0095863Y0129079D01*
X0095810Y0129099D01*
X0095759Y0129122D01*
X0095709Y0129149D01*
X0095660Y0129179D01*
X0095614Y0129212D01*
X0095570Y0129248D01*
X0095529Y0129287D01*
X0095490Y0129328D01*
X0095454Y0129372D01*
X0095421Y0129418D01*
X0095391Y0129467D01*
X0095364Y0129517D01*
X0095341Y0129568D01*
X0095321Y0129621D01*
X0095305Y0129676D01*
X0095292Y0129731D01*
X0095282Y0129787D01*
X0095277Y0129843D01*
X0095275Y0129900D01*
X0095275Y0131056D01*
X0098742Y0127192D02*
X0098742Y0126036D01*
X0098740Y0125979D01*
X0098735Y0125923D01*
X0098725Y0125867D01*
X0098712Y0125812D01*
X0098696Y0125757D01*
X0098676Y0125704D01*
X0098653Y0125653D01*
X0098626Y0125603D01*
X0098596Y0125554D01*
X0098563Y0125508D01*
X0098527Y0125464D01*
X0098488Y0125423D01*
X0098447Y0125384D01*
X0098403Y0125348D01*
X0098357Y0125315D01*
X0098309Y0125285D01*
X0098258Y0125258D01*
X0098207Y0125235D01*
X0098154Y0125215D01*
X0098099Y0125199D01*
X0098044Y0125186D01*
X0097988Y0125176D01*
X0097932Y0125171D01*
X0097875Y0125169D01*
X0097297Y0120658D02*
X0096720Y0119213D01*
X0096719Y0119214D02*
X0096698Y0119165D01*
X0096673Y0119118D01*
X0096645Y0119073D01*
X0096613Y0119030D01*
X0096579Y0118989D01*
X0096542Y0118951D01*
X0096502Y0118915D01*
X0096460Y0118883D01*
X0096415Y0118853D01*
X0096369Y0118827D01*
X0096321Y0118804D01*
X0096271Y0118785D01*
X0096220Y0118769D01*
X0096168Y0118757D01*
X0096116Y0118749D01*
X0096063Y0118744D01*
X0096009Y0118743D01*
X0095956Y0118746D01*
X0095903Y0118753D01*
X0095851Y0118763D01*
X0095800Y0118777D01*
X0095749Y0118795D01*
X0095701Y0118816D01*
X0095653Y0118841D01*
X0095608Y0118869D01*
X0095565Y0118900D01*
X0095524Y0118934D01*
X0095486Y0118971D01*
X0095450Y0119011D01*
X0095417Y0119053D01*
X0095387Y0119097D01*
X0095361Y0119144D01*
X0095338Y0119192D01*
X0095318Y0119241D01*
X0095302Y0119292D01*
X0095290Y0119344D01*
X0095281Y0119396D01*
X0095276Y0119449D01*
X0095275Y0119503D01*
X0098454Y0118780D02*
X0098498Y0118908D01*
X0098538Y0119037D01*
X0098575Y0119167D01*
X0098608Y0119298D01*
X0098638Y0119430D01*
X0098664Y0119562D01*
X0098686Y0119696D01*
X0098705Y0119830D01*
X0098720Y0119964D01*
X0098731Y0120099D01*
X0098739Y0120234D01*
X0098742Y0120369D01*
X0098741Y0120423D01*
X0098736Y0120476D01*
X0098727Y0120528D01*
X0098715Y0120580D01*
X0098699Y0120631D01*
X0098679Y0120680D01*
X0098656Y0120728D01*
X0098630Y0120775D01*
X0098600Y0120819D01*
X0098567Y0120861D01*
X0098531Y0120901D01*
X0098493Y0120938D01*
X0098452Y0120972D01*
X0098409Y0121003D01*
X0098364Y0121031D01*
X0098316Y0121056D01*
X0098268Y0121077D01*
X0098217Y0121095D01*
X0098166Y0121109D01*
X0098114Y0121119D01*
X0098061Y0121126D01*
X0098008Y0121129D01*
X0097954Y0121128D01*
X0097901Y0121123D01*
X0097849Y0121115D01*
X0097797Y0121103D01*
X0097746Y0121087D01*
X0097696Y0121068D01*
X0097648Y0121045D01*
X0097602Y0121019D01*
X0097557Y0120989D01*
X0097515Y0120957D01*
X0097475Y0120921D01*
X0097438Y0120883D01*
X0097404Y0120842D01*
X0097372Y0120799D01*
X0097344Y0120754D01*
X0097319Y0120707D01*
X0097298Y0120658D01*
X0095564Y0120802D02*
X0095520Y0120699D01*
X0095479Y0120595D01*
X0095442Y0120490D01*
X0095409Y0120383D01*
X0095379Y0120275D01*
X0095353Y0120167D01*
X0095331Y0120057D01*
X0095312Y0119947D01*
X0095297Y0119836D01*
X0095286Y0119725D01*
X0095279Y0119614D01*
X0095275Y0119502D01*
X0103675Y0113216D02*
X0103675Y0110616D01*
X0107142Y0110616D01*
X0107142Y0112349D02*
X0103675Y0112349D01*
X0103675Y0113216D02*
X0103677Y0113273D01*
X0103682Y0113329D01*
X0103692Y0113385D01*
X0103705Y0113440D01*
X0103721Y0113495D01*
X0103741Y0113548D01*
X0103764Y0113599D01*
X0103791Y0113650D01*
X0103821Y0113698D01*
X0103854Y0113744D01*
X0103890Y0113788D01*
X0103929Y0113829D01*
X0103970Y0113868D01*
X0104014Y0113904D01*
X0104060Y0113937D01*
X0104109Y0113967D01*
X0104159Y0113994D01*
X0104210Y0114017D01*
X0104263Y0114037D01*
X0104318Y0114053D01*
X0104373Y0114066D01*
X0104429Y0114076D01*
X0104485Y0114081D01*
X0104542Y0114083D01*
X0104542Y0114082D02*
X0107142Y0114082D01*
D13*
X0063342Y0101256D02*
X0063342Y0131256D01*
X0043342Y0131256D01*
X0043342Y0101256D01*
X0063342Y0101256D01*
X0068342Y0146256D02*
X0048342Y0146256D01*
X0048342Y0161256D01*
X0068342Y0161256D01*
X0068342Y0146256D01*
X0154779Y0054150D02*
X0154779Y0008362D01*
X0171905Y0008362D01*
X0171905Y0054150D01*
X0154779Y0054150D01*
D14*
X0152592Y0111256D03*
X0134092Y0111256D03*
X0112592Y0111256D03*
X0112592Y0131256D03*
X0094092Y0131256D03*
X0072592Y0131256D03*
X0134092Y0131256D03*
X0152592Y0131256D03*
X0174092Y0131256D03*
X0174092Y0111256D03*
M02*
