G75*
%MOIN*%
%OFA0B0*%
%FSLAX25Y25*%
%IPPOS*%
%LPD*%
%AMOC8*
5,1,8,0,0,1.08239X$1,22.5*
%
%ADD10C,0.00300*%
%ADD11C,0.06000*%
%ADD12C,0.07050*%
%ADD13C,0.07200*%
%ADD14OC8,0.05200*%
%ADD15C,0.07400*%
%ADD16C,0.05200*%
%ADD17C,0.00600*%
%ADD18C,0.02000*%
%ADD19C,0.02978*%
D10*
X0027186Y0014550D02*
X0028153Y0017450D01*
X0029119Y0014550D01*
X0028878Y0015275D02*
X0027428Y0015275D01*
X0030323Y0015356D02*
X0030323Y0016644D01*
X0030325Y0016699D01*
X0030331Y0016754D01*
X0030340Y0016808D01*
X0030353Y0016861D01*
X0030370Y0016914D01*
X0030390Y0016965D01*
X0030413Y0017015D01*
X0030440Y0017063D01*
X0030471Y0017109D01*
X0030504Y0017153D01*
X0030540Y0017194D01*
X0030579Y0017233D01*
X0030620Y0017269D01*
X0030664Y0017302D01*
X0030710Y0017333D01*
X0030758Y0017360D01*
X0030808Y0017383D01*
X0030859Y0017403D01*
X0030912Y0017420D01*
X0030965Y0017433D01*
X0031019Y0017442D01*
X0031074Y0017448D01*
X0031129Y0017450D01*
X0031934Y0017450D01*
X0031934Y0014550D01*
X0031129Y0014550D01*
X0031074Y0014552D01*
X0031019Y0014558D01*
X0030965Y0014567D01*
X0030912Y0014580D01*
X0030859Y0014597D01*
X0030808Y0014617D01*
X0030758Y0014640D01*
X0030710Y0014667D01*
X0030664Y0014698D01*
X0030620Y0014731D01*
X0030579Y0014767D01*
X0030540Y0014806D01*
X0030504Y0014847D01*
X0030471Y0014891D01*
X0030440Y0014937D01*
X0030413Y0014985D01*
X0030390Y0015035D01*
X0030370Y0015086D01*
X0030353Y0015139D01*
X0030340Y0015192D01*
X0030331Y0015246D01*
X0030325Y0015301D01*
X0030323Y0015356D01*
X0033525Y0015758D02*
X0034411Y0016242D01*
X0034089Y0017450D02*
X0034024Y0017448D01*
X0033960Y0017443D01*
X0033895Y0017434D01*
X0033832Y0017422D01*
X0033769Y0017407D01*
X0033707Y0017388D01*
X0033646Y0017366D01*
X0033587Y0017341D01*
X0033528Y0017312D01*
X0033472Y0017280D01*
X0033417Y0017246D01*
X0033364Y0017208D01*
X0034412Y0016242D02*
X0034452Y0016268D01*
X0034491Y0016297D01*
X0034528Y0016329D01*
X0034562Y0016364D01*
X0034593Y0016401D01*
X0034622Y0016440D01*
X0034648Y0016481D01*
X0034670Y0016524D01*
X0034689Y0016569D01*
X0034705Y0016615D01*
X0034718Y0016661D01*
X0034727Y0016709D01*
X0034732Y0016757D01*
X0034734Y0016806D01*
X0034733Y0016806D02*
X0034731Y0016854D01*
X0034726Y0016902D01*
X0034717Y0016949D01*
X0034704Y0016996D01*
X0034688Y0017041D01*
X0034669Y0017085D01*
X0034647Y0017128D01*
X0034621Y0017169D01*
X0034592Y0017208D01*
X0034561Y0017244D01*
X0034527Y0017278D01*
X0034491Y0017309D01*
X0034452Y0017338D01*
X0034411Y0017364D01*
X0034368Y0017386D01*
X0034324Y0017405D01*
X0034279Y0017421D01*
X0034232Y0017434D01*
X0034185Y0017443D01*
X0034137Y0017448D01*
X0034089Y0017450D01*
X0034813Y0014953D02*
X0034762Y0014903D01*
X0034707Y0014856D01*
X0034651Y0014813D01*
X0034592Y0014772D01*
X0034531Y0014734D01*
X0034468Y0014700D01*
X0034403Y0014669D01*
X0034337Y0014641D01*
X0034270Y0014617D01*
X0034201Y0014597D01*
X0034131Y0014580D01*
X0034061Y0014567D01*
X0033990Y0014558D01*
X0033919Y0014552D01*
X0033847Y0014550D01*
X0033799Y0014552D01*
X0033751Y0014557D01*
X0033704Y0014566D01*
X0033657Y0014579D01*
X0033612Y0014595D01*
X0033568Y0014614D01*
X0033525Y0014636D01*
X0033484Y0014662D01*
X0033445Y0014690D01*
X0033409Y0014722D01*
X0033375Y0014756D01*
X0033344Y0014792D01*
X0033315Y0014831D01*
X0033289Y0014872D01*
X0033267Y0014915D01*
X0033248Y0014959D01*
X0033232Y0015004D01*
X0033219Y0015051D01*
X0033210Y0015098D01*
X0033205Y0015146D01*
X0033203Y0015194D01*
X0033205Y0015242D01*
X0033210Y0015291D01*
X0033219Y0015338D01*
X0033232Y0015385D01*
X0033247Y0015431D01*
X0033267Y0015476D01*
X0033289Y0015518D01*
X0033315Y0015560D01*
X0033343Y0015599D01*
X0033375Y0015636D01*
X0033409Y0015670D01*
X0033445Y0015702D01*
X0033484Y0015731D01*
X0033525Y0015757D01*
X0030868Y0024550D02*
X0030224Y0024550D01*
X0030868Y0024550D02*
X0030916Y0024552D01*
X0030964Y0024557D01*
X0031011Y0024566D01*
X0031058Y0024579D01*
X0031103Y0024595D01*
X0031147Y0024614D01*
X0031190Y0024636D01*
X0031231Y0024662D01*
X0031270Y0024691D01*
X0031306Y0024722D01*
X0031340Y0024756D01*
X0031371Y0024792D01*
X0031400Y0024831D01*
X0031426Y0024872D01*
X0031448Y0024915D01*
X0031467Y0024959D01*
X0031483Y0025004D01*
X0031496Y0025051D01*
X0031505Y0025098D01*
X0031510Y0025146D01*
X0031512Y0025194D01*
X0031513Y0025194D02*
X0031513Y0026806D01*
X0031512Y0026806D02*
X0031510Y0026854D01*
X0031505Y0026902D01*
X0031496Y0026949D01*
X0031483Y0026996D01*
X0031467Y0027041D01*
X0031448Y0027085D01*
X0031426Y0027128D01*
X0031400Y0027169D01*
X0031371Y0027208D01*
X0031340Y0027244D01*
X0031306Y0027278D01*
X0031270Y0027309D01*
X0031231Y0027338D01*
X0031190Y0027364D01*
X0031147Y0027386D01*
X0031103Y0027405D01*
X0031058Y0027421D01*
X0031011Y0027434D01*
X0030964Y0027443D01*
X0030916Y0027448D01*
X0030868Y0027450D01*
X0030224Y0027450D01*
X0029001Y0027450D02*
X0029001Y0024550D01*
X0027712Y0024550D01*
X0032999Y0025758D02*
X0033885Y0026242D01*
X0033563Y0027450D02*
X0033498Y0027448D01*
X0033434Y0027443D01*
X0033369Y0027434D01*
X0033306Y0027422D01*
X0033243Y0027407D01*
X0033181Y0027388D01*
X0033120Y0027366D01*
X0033061Y0027341D01*
X0033002Y0027312D01*
X0032946Y0027280D01*
X0032891Y0027246D01*
X0032838Y0027208D01*
X0033885Y0026242D02*
X0033925Y0026268D01*
X0033964Y0026297D01*
X0034001Y0026329D01*
X0034035Y0026364D01*
X0034066Y0026401D01*
X0034095Y0026440D01*
X0034121Y0026481D01*
X0034143Y0026524D01*
X0034162Y0026569D01*
X0034178Y0026615D01*
X0034191Y0026661D01*
X0034200Y0026709D01*
X0034205Y0026757D01*
X0034207Y0026806D01*
X0034205Y0026854D01*
X0034200Y0026902D01*
X0034191Y0026949D01*
X0034178Y0026996D01*
X0034162Y0027041D01*
X0034143Y0027085D01*
X0034121Y0027128D01*
X0034095Y0027169D01*
X0034066Y0027208D01*
X0034035Y0027244D01*
X0034001Y0027278D01*
X0033965Y0027309D01*
X0033926Y0027338D01*
X0033885Y0027364D01*
X0033842Y0027386D01*
X0033798Y0027405D01*
X0033753Y0027421D01*
X0033706Y0027434D01*
X0033659Y0027443D01*
X0033611Y0027448D01*
X0033563Y0027450D01*
X0034287Y0024953D02*
X0034236Y0024903D01*
X0034181Y0024856D01*
X0034125Y0024813D01*
X0034066Y0024772D01*
X0034005Y0024734D01*
X0033942Y0024700D01*
X0033877Y0024669D01*
X0033811Y0024641D01*
X0033744Y0024617D01*
X0033675Y0024597D01*
X0033605Y0024580D01*
X0033535Y0024567D01*
X0033464Y0024558D01*
X0033393Y0024552D01*
X0033321Y0024550D01*
X0033273Y0024552D01*
X0033225Y0024557D01*
X0033178Y0024566D01*
X0033131Y0024579D01*
X0033086Y0024595D01*
X0033042Y0024614D01*
X0032999Y0024636D01*
X0032958Y0024662D01*
X0032919Y0024690D01*
X0032883Y0024722D01*
X0032849Y0024756D01*
X0032818Y0024792D01*
X0032789Y0024831D01*
X0032763Y0024872D01*
X0032741Y0024915D01*
X0032722Y0024959D01*
X0032706Y0025004D01*
X0032693Y0025051D01*
X0032684Y0025098D01*
X0032679Y0025146D01*
X0032677Y0025194D01*
X0032679Y0025242D01*
X0032684Y0025291D01*
X0032693Y0025338D01*
X0032706Y0025385D01*
X0032721Y0025431D01*
X0032741Y0025476D01*
X0032763Y0025518D01*
X0032789Y0025560D01*
X0032817Y0025599D01*
X0032849Y0025636D01*
X0032883Y0025670D01*
X0032919Y0025702D01*
X0032958Y0025731D01*
X0032999Y0025757D01*
X0032842Y0034550D02*
X0033808Y0034550D01*
X0033856Y0034552D01*
X0033904Y0034557D01*
X0033951Y0034566D01*
X0033998Y0034579D01*
X0034043Y0034595D01*
X0034087Y0034614D01*
X0034130Y0034636D01*
X0034171Y0034662D01*
X0034210Y0034691D01*
X0034246Y0034722D01*
X0034280Y0034756D01*
X0034311Y0034792D01*
X0034340Y0034831D01*
X0034366Y0034872D01*
X0034388Y0034915D01*
X0034407Y0034959D01*
X0034423Y0035004D01*
X0034436Y0035051D01*
X0034445Y0035098D01*
X0034450Y0035146D01*
X0034452Y0035194D01*
X0034453Y0035194D02*
X0034453Y0036806D01*
X0034452Y0036806D02*
X0034450Y0036854D01*
X0034445Y0036902D01*
X0034436Y0036949D01*
X0034423Y0036996D01*
X0034407Y0037041D01*
X0034388Y0037085D01*
X0034366Y0037128D01*
X0034340Y0037169D01*
X0034311Y0037208D01*
X0034280Y0037244D01*
X0034246Y0037278D01*
X0034210Y0037309D01*
X0034171Y0037338D01*
X0034130Y0037364D01*
X0034087Y0037386D01*
X0034043Y0037405D01*
X0033998Y0037421D01*
X0033951Y0037434D01*
X0033904Y0037443D01*
X0033856Y0037448D01*
X0033808Y0037450D01*
X0032842Y0037450D01*
X0032842Y0036161D02*
X0032842Y0034550D01*
X0031412Y0034550D02*
X0031412Y0036483D01*
X0030606Y0036483D01*
X0030564Y0036481D01*
X0030522Y0036476D01*
X0030481Y0036467D01*
X0030441Y0036454D01*
X0030402Y0036438D01*
X0030365Y0036418D01*
X0030329Y0036396D01*
X0030296Y0036370D01*
X0030264Y0036342D01*
X0030236Y0036310D01*
X0030210Y0036277D01*
X0030188Y0036242D01*
X0030168Y0036204D01*
X0030152Y0036165D01*
X0030139Y0036125D01*
X0030130Y0036084D01*
X0030125Y0036042D01*
X0030123Y0036000D01*
X0030123Y0034550D01*
X0028836Y0035033D02*
X0028836Y0036000D01*
X0028834Y0036042D01*
X0028829Y0036084D01*
X0028820Y0036125D01*
X0028807Y0036165D01*
X0028791Y0036204D01*
X0028771Y0036242D01*
X0028749Y0036277D01*
X0028723Y0036310D01*
X0028695Y0036342D01*
X0028663Y0036370D01*
X0028630Y0036396D01*
X0028595Y0036418D01*
X0028557Y0036438D01*
X0028518Y0036454D01*
X0028478Y0036467D01*
X0028437Y0036476D01*
X0028395Y0036481D01*
X0028353Y0036483D01*
X0027547Y0036483D01*
X0027547Y0037450D02*
X0027547Y0034550D01*
X0028353Y0034550D01*
X0028395Y0034552D01*
X0028437Y0034557D01*
X0028478Y0034566D01*
X0028518Y0034579D01*
X0028557Y0034595D01*
X0028595Y0034615D01*
X0028630Y0034637D01*
X0028663Y0034663D01*
X0028695Y0034691D01*
X0028723Y0034723D01*
X0028749Y0034756D01*
X0028771Y0034792D01*
X0028791Y0034829D01*
X0028807Y0034868D01*
X0028820Y0034908D01*
X0028829Y0034949D01*
X0028834Y0034991D01*
X0028836Y0035033D01*
X0032842Y0036161D02*
X0033325Y0036161D01*
X0033394Y0044550D02*
X0032427Y0047450D01*
X0031328Y0046806D02*
X0031328Y0045194D01*
X0031326Y0045146D01*
X0031321Y0045098D01*
X0031312Y0045051D01*
X0031299Y0045004D01*
X0031283Y0044959D01*
X0031264Y0044915D01*
X0031242Y0044872D01*
X0031216Y0044831D01*
X0031187Y0044792D01*
X0031156Y0044756D01*
X0031122Y0044722D01*
X0031086Y0044691D01*
X0031047Y0044662D01*
X0031006Y0044636D01*
X0030963Y0044614D01*
X0030919Y0044595D01*
X0030874Y0044579D01*
X0030827Y0044566D01*
X0030780Y0044557D01*
X0030732Y0044552D01*
X0030684Y0044550D01*
X0030040Y0044550D01*
X0028928Y0045194D02*
X0028928Y0046806D01*
X0028926Y0046854D01*
X0028921Y0046902D01*
X0028912Y0046949D01*
X0028899Y0046996D01*
X0028883Y0047041D01*
X0028864Y0047085D01*
X0028842Y0047128D01*
X0028816Y0047169D01*
X0028787Y0047208D01*
X0028756Y0047244D01*
X0028722Y0047278D01*
X0028686Y0047309D01*
X0028647Y0047338D01*
X0028606Y0047364D01*
X0028563Y0047386D01*
X0028519Y0047405D01*
X0028474Y0047421D01*
X0028427Y0047434D01*
X0028380Y0047443D01*
X0028332Y0047448D01*
X0028284Y0047450D01*
X0027640Y0047450D01*
X0028928Y0045194D02*
X0028926Y0045146D01*
X0028921Y0045098D01*
X0028912Y0045051D01*
X0028899Y0045004D01*
X0028883Y0044959D01*
X0028864Y0044915D01*
X0028842Y0044872D01*
X0028816Y0044831D01*
X0028787Y0044792D01*
X0028756Y0044756D01*
X0028722Y0044722D01*
X0028686Y0044691D01*
X0028647Y0044662D01*
X0028606Y0044636D01*
X0028563Y0044614D01*
X0028519Y0044595D01*
X0028474Y0044579D01*
X0028427Y0044566D01*
X0028380Y0044557D01*
X0028332Y0044552D01*
X0028284Y0044550D01*
X0027640Y0044550D01*
X0030040Y0047450D02*
X0030684Y0047450D01*
X0030732Y0047448D01*
X0030780Y0047443D01*
X0030827Y0047434D01*
X0030874Y0047421D01*
X0030919Y0047405D01*
X0030963Y0047386D01*
X0031006Y0047364D01*
X0031047Y0047338D01*
X0031086Y0047309D01*
X0031122Y0047278D01*
X0031156Y0047244D01*
X0031187Y0047208D01*
X0031216Y0047169D01*
X0031242Y0047128D01*
X0031264Y0047085D01*
X0031283Y0047041D01*
X0031299Y0046996D01*
X0031312Y0046949D01*
X0031321Y0046902D01*
X0031326Y0046854D01*
X0031328Y0046806D01*
X0033394Y0044550D02*
X0034360Y0047450D01*
X0120659Y0050033D02*
X0120659Y0051000D01*
X0120661Y0051042D01*
X0120666Y0051084D01*
X0120675Y0051125D01*
X0120688Y0051165D01*
X0120704Y0051204D01*
X0120724Y0051242D01*
X0120746Y0051277D01*
X0120772Y0051310D01*
X0120800Y0051342D01*
X0120832Y0051370D01*
X0120865Y0051396D01*
X0120901Y0051418D01*
X0120938Y0051438D01*
X0120977Y0051454D01*
X0121017Y0051467D01*
X0121058Y0051476D01*
X0121100Y0051481D01*
X0121142Y0051483D01*
X0121948Y0051483D01*
X0121948Y0048583D01*
X0121948Y0049550D02*
X0121142Y0049550D01*
X0121100Y0049552D01*
X0121058Y0049557D01*
X0121017Y0049566D01*
X0120977Y0049579D01*
X0120938Y0049595D01*
X0120901Y0049615D01*
X0120865Y0049637D01*
X0120832Y0049663D01*
X0120800Y0049691D01*
X0120772Y0049723D01*
X0120746Y0049756D01*
X0120724Y0049792D01*
X0120704Y0049829D01*
X0120688Y0049868D01*
X0120675Y0049908D01*
X0120666Y0049949D01*
X0120661Y0049991D01*
X0120659Y0050033D01*
X0123267Y0049550D02*
X0124073Y0049550D01*
X0124115Y0049552D01*
X0124157Y0049557D01*
X0124198Y0049566D01*
X0124238Y0049579D01*
X0124277Y0049595D01*
X0124315Y0049615D01*
X0124350Y0049637D01*
X0124383Y0049663D01*
X0124415Y0049691D01*
X0124443Y0049723D01*
X0124469Y0049756D01*
X0124491Y0049792D01*
X0124511Y0049829D01*
X0124527Y0049868D01*
X0124540Y0049908D01*
X0124549Y0049949D01*
X0124554Y0049991D01*
X0124556Y0050033D01*
X0124556Y0050839D01*
X0124556Y0050517D02*
X0123267Y0050517D01*
X0123267Y0050839D01*
X0123268Y0050839D02*
X0123270Y0050888D01*
X0123276Y0050937D01*
X0123285Y0050986D01*
X0123298Y0051033D01*
X0123315Y0051080D01*
X0123335Y0051125D01*
X0123358Y0051168D01*
X0123385Y0051210D01*
X0123415Y0051249D01*
X0123448Y0051286D01*
X0123484Y0051320D01*
X0123522Y0051351D01*
X0123562Y0051380D01*
X0123604Y0051405D01*
X0123649Y0051427D01*
X0123694Y0051445D01*
X0123741Y0051460D01*
X0123789Y0051471D01*
X0123838Y0051479D01*
X0123887Y0051483D01*
X0123937Y0051483D01*
X0123986Y0051479D01*
X0124035Y0051471D01*
X0124083Y0051460D01*
X0124130Y0051445D01*
X0124175Y0051427D01*
X0124220Y0051405D01*
X0124262Y0051380D01*
X0124302Y0051351D01*
X0124340Y0051320D01*
X0124376Y0051286D01*
X0124409Y0051249D01*
X0124439Y0051210D01*
X0124466Y0051168D01*
X0124489Y0051125D01*
X0124509Y0051080D01*
X0124526Y0051033D01*
X0124539Y0050986D01*
X0124548Y0050937D01*
X0124554Y0050888D01*
X0124556Y0050839D01*
X0125763Y0050839D02*
X0125763Y0050517D01*
X0127052Y0050517D01*
X0127052Y0050839D02*
X0127052Y0050033D01*
X0127050Y0049991D01*
X0127045Y0049949D01*
X0127036Y0049908D01*
X0127023Y0049868D01*
X0127007Y0049829D01*
X0126987Y0049792D01*
X0126965Y0049756D01*
X0126939Y0049723D01*
X0126911Y0049691D01*
X0126879Y0049663D01*
X0126846Y0049637D01*
X0126811Y0049615D01*
X0126773Y0049595D01*
X0126734Y0049579D01*
X0126694Y0049566D01*
X0126653Y0049557D01*
X0126611Y0049552D01*
X0126569Y0049550D01*
X0125763Y0049550D01*
X0125763Y0050839D02*
X0125765Y0050888D01*
X0125771Y0050937D01*
X0125780Y0050986D01*
X0125793Y0051033D01*
X0125810Y0051080D01*
X0125830Y0051125D01*
X0125853Y0051168D01*
X0125880Y0051210D01*
X0125910Y0051249D01*
X0125943Y0051286D01*
X0125979Y0051320D01*
X0126017Y0051351D01*
X0126057Y0051380D01*
X0126099Y0051405D01*
X0126144Y0051427D01*
X0126189Y0051445D01*
X0126236Y0051460D01*
X0126284Y0051471D01*
X0126333Y0051479D01*
X0126382Y0051483D01*
X0126432Y0051483D01*
X0126481Y0051479D01*
X0126530Y0051471D01*
X0126578Y0051460D01*
X0126625Y0051445D01*
X0126670Y0051427D01*
X0126715Y0051405D01*
X0126757Y0051380D01*
X0126797Y0051351D01*
X0126835Y0051320D01*
X0126871Y0051286D01*
X0126904Y0051249D01*
X0126934Y0051210D01*
X0126961Y0051168D01*
X0126984Y0051125D01*
X0127004Y0051080D01*
X0127021Y0051033D01*
X0127034Y0050986D01*
X0127043Y0050937D01*
X0127049Y0050888D01*
X0127051Y0050839D01*
X0128072Y0049550D02*
X0128114Y0049552D01*
X0128156Y0049557D01*
X0128197Y0049566D01*
X0128237Y0049579D01*
X0128276Y0049595D01*
X0128314Y0049615D01*
X0128349Y0049637D01*
X0128382Y0049663D01*
X0128414Y0049691D01*
X0128442Y0049723D01*
X0128468Y0049756D01*
X0128490Y0049792D01*
X0128510Y0049829D01*
X0128526Y0049868D01*
X0128539Y0049908D01*
X0128548Y0049949D01*
X0128553Y0049991D01*
X0128555Y0050033D01*
X0128555Y0052450D01*
X0130939Y0051242D02*
X0130979Y0051268D01*
X0131018Y0051297D01*
X0131055Y0051329D01*
X0131089Y0051364D01*
X0131120Y0051401D01*
X0131149Y0051440D01*
X0131175Y0051481D01*
X0131197Y0051524D01*
X0131216Y0051569D01*
X0131232Y0051615D01*
X0131245Y0051661D01*
X0131254Y0051709D01*
X0131259Y0051757D01*
X0131261Y0051806D01*
X0131260Y0051806D02*
X0131258Y0051854D01*
X0131253Y0051902D01*
X0131244Y0051949D01*
X0131231Y0051996D01*
X0131215Y0052041D01*
X0131196Y0052085D01*
X0131174Y0052128D01*
X0131148Y0052169D01*
X0131119Y0052208D01*
X0131088Y0052244D01*
X0131054Y0052278D01*
X0131018Y0052309D01*
X0130979Y0052338D01*
X0130938Y0052364D01*
X0130895Y0052386D01*
X0130851Y0052405D01*
X0130806Y0052421D01*
X0130759Y0052434D01*
X0130712Y0052443D01*
X0130664Y0052448D01*
X0130616Y0052450D01*
X0130551Y0052448D01*
X0130487Y0052443D01*
X0130422Y0052434D01*
X0130359Y0052422D01*
X0130296Y0052407D01*
X0130234Y0052388D01*
X0130173Y0052366D01*
X0130114Y0052341D01*
X0130055Y0052312D01*
X0129999Y0052280D01*
X0129944Y0052246D01*
X0129891Y0052208D01*
X0131340Y0049953D02*
X0131289Y0049903D01*
X0131234Y0049856D01*
X0131178Y0049813D01*
X0131119Y0049772D01*
X0131058Y0049734D01*
X0130995Y0049700D01*
X0130930Y0049669D01*
X0130864Y0049641D01*
X0130797Y0049617D01*
X0130728Y0049597D01*
X0130658Y0049580D01*
X0130588Y0049567D01*
X0130517Y0049558D01*
X0130446Y0049552D01*
X0130374Y0049550D01*
X0130326Y0049552D01*
X0130278Y0049557D01*
X0130231Y0049566D01*
X0130184Y0049579D01*
X0130139Y0049595D01*
X0130095Y0049614D01*
X0130052Y0049636D01*
X0130011Y0049662D01*
X0129972Y0049690D01*
X0129936Y0049722D01*
X0129902Y0049756D01*
X0129871Y0049792D01*
X0129842Y0049831D01*
X0129816Y0049872D01*
X0129794Y0049915D01*
X0129775Y0049959D01*
X0129759Y0050004D01*
X0129746Y0050051D01*
X0129737Y0050098D01*
X0129732Y0050146D01*
X0129730Y0050194D01*
X0130052Y0050758D02*
X0130938Y0051242D01*
X0130052Y0050757D02*
X0130011Y0050731D01*
X0129972Y0050702D01*
X0129936Y0050670D01*
X0129902Y0050636D01*
X0129870Y0050599D01*
X0129842Y0050560D01*
X0129816Y0050518D01*
X0129794Y0050476D01*
X0129774Y0050431D01*
X0129759Y0050385D01*
X0129746Y0050338D01*
X0129737Y0050291D01*
X0129732Y0050242D01*
X0129730Y0050194D01*
X0172547Y0017450D02*
X0172547Y0014550D01*
X0173353Y0014550D01*
X0173395Y0014552D01*
X0173437Y0014557D01*
X0173478Y0014566D01*
X0173518Y0014579D01*
X0173557Y0014595D01*
X0173595Y0014615D01*
X0173630Y0014637D01*
X0173663Y0014663D01*
X0173695Y0014691D01*
X0173723Y0014723D01*
X0173749Y0014756D01*
X0173771Y0014792D01*
X0173791Y0014829D01*
X0173807Y0014868D01*
X0173820Y0014908D01*
X0173829Y0014949D01*
X0173834Y0014991D01*
X0173836Y0015033D01*
X0173836Y0016000D01*
X0173834Y0016042D01*
X0173829Y0016084D01*
X0173820Y0016125D01*
X0173807Y0016165D01*
X0173791Y0016204D01*
X0173771Y0016242D01*
X0173749Y0016277D01*
X0173723Y0016310D01*
X0173695Y0016342D01*
X0173663Y0016370D01*
X0173630Y0016396D01*
X0173595Y0016418D01*
X0173557Y0016438D01*
X0173518Y0016454D01*
X0173478Y0016467D01*
X0173437Y0016476D01*
X0173395Y0016481D01*
X0173353Y0016483D01*
X0172547Y0016483D01*
X0175123Y0016000D02*
X0175123Y0014550D01*
X0176412Y0014550D02*
X0176412Y0016483D01*
X0175606Y0016483D01*
X0175564Y0016481D01*
X0175522Y0016476D01*
X0175481Y0016467D01*
X0175441Y0016454D01*
X0175402Y0016438D01*
X0175365Y0016418D01*
X0175329Y0016396D01*
X0175296Y0016370D01*
X0175264Y0016342D01*
X0175236Y0016310D01*
X0175210Y0016277D01*
X0175188Y0016242D01*
X0175168Y0016204D01*
X0175152Y0016165D01*
X0175139Y0016125D01*
X0175130Y0016084D01*
X0175125Y0016042D01*
X0175123Y0016000D01*
X0177842Y0016161D02*
X0177842Y0014550D01*
X0178808Y0014550D01*
X0178856Y0014552D01*
X0178904Y0014557D01*
X0178951Y0014566D01*
X0178998Y0014579D01*
X0179043Y0014595D01*
X0179087Y0014614D01*
X0179130Y0014636D01*
X0179171Y0014662D01*
X0179210Y0014691D01*
X0179246Y0014722D01*
X0179280Y0014756D01*
X0179311Y0014792D01*
X0179340Y0014831D01*
X0179366Y0014872D01*
X0179388Y0014915D01*
X0179407Y0014959D01*
X0179423Y0015004D01*
X0179436Y0015051D01*
X0179445Y0015098D01*
X0179450Y0015146D01*
X0179452Y0015194D01*
X0179453Y0015194D02*
X0179453Y0016806D01*
X0179452Y0016806D02*
X0179450Y0016854D01*
X0179445Y0016902D01*
X0179436Y0016949D01*
X0179423Y0016996D01*
X0179407Y0017041D01*
X0179388Y0017085D01*
X0179366Y0017128D01*
X0179340Y0017169D01*
X0179311Y0017208D01*
X0179280Y0017244D01*
X0179246Y0017278D01*
X0179210Y0017309D01*
X0179171Y0017338D01*
X0179130Y0017364D01*
X0179087Y0017386D01*
X0179043Y0017405D01*
X0178998Y0017421D01*
X0178951Y0017434D01*
X0178904Y0017443D01*
X0178856Y0017448D01*
X0178808Y0017450D01*
X0177842Y0017450D01*
X0177842Y0016161D02*
X0178325Y0016161D01*
X0193226Y0016000D02*
X0193226Y0014550D01*
X0194515Y0014550D02*
X0194515Y0016483D01*
X0193710Y0016483D01*
X0193668Y0016481D01*
X0193626Y0016476D01*
X0193585Y0016467D01*
X0193545Y0016454D01*
X0193506Y0016438D01*
X0193469Y0016418D01*
X0193433Y0016396D01*
X0193400Y0016370D01*
X0193368Y0016342D01*
X0193340Y0016310D01*
X0193314Y0016277D01*
X0193292Y0016242D01*
X0193272Y0016204D01*
X0193256Y0016165D01*
X0193243Y0016125D01*
X0193234Y0016084D01*
X0193229Y0016042D01*
X0193227Y0016000D01*
X0195791Y0016483D02*
X0195791Y0014550D01*
X0197807Y0014550D02*
X0196840Y0017450D01*
X0195871Y0017450D02*
X0195710Y0017450D01*
X0195710Y0017289D01*
X0195871Y0017289D01*
X0195871Y0017450D01*
X0198774Y0017450D02*
X0197807Y0014550D01*
X0242547Y0029550D02*
X0243353Y0029550D01*
X0243395Y0029552D01*
X0243437Y0029557D01*
X0243478Y0029566D01*
X0243518Y0029579D01*
X0243557Y0029595D01*
X0243595Y0029615D01*
X0243630Y0029637D01*
X0243663Y0029663D01*
X0243695Y0029691D01*
X0243723Y0029723D01*
X0243749Y0029756D01*
X0243771Y0029792D01*
X0243791Y0029829D01*
X0243807Y0029868D01*
X0243820Y0029908D01*
X0243829Y0029949D01*
X0243834Y0029991D01*
X0243836Y0030033D01*
X0243836Y0031000D01*
X0243834Y0031042D01*
X0243829Y0031084D01*
X0243820Y0031125D01*
X0243807Y0031165D01*
X0243791Y0031204D01*
X0243771Y0031242D01*
X0243749Y0031277D01*
X0243723Y0031310D01*
X0243695Y0031342D01*
X0243663Y0031370D01*
X0243630Y0031396D01*
X0243595Y0031418D01*
X0243557Y0031438D01*
X0243518Y0031454D01*
X0243478Y0031467D01*
X0243437Y0031476D01*
X0243395Y0031481D01*
X0243353Y0031483D01*
X0242547Y0031483D01*
X0242547Y0032450D02*
X0242547Y0029550D01*
X0245123Y0029550D02*
X0245123Y0031000D01*
X0245125Y0031042D01*
X0245130Y0031084D01*
X0245139Y0031125D01*
X0245152Y0031165D01*
X0245168Y0031204D01*
X0245188Y0031242D01*
X0245210Y0031277D01*
X0245236Y0031310D01*
X0245264Y0031342D01*
X0245296Y0031370D01*
X0245329Y0031396D01*
X0245365Y0031418D01*
X0245402Y0031438D01*
X0245441Y0031454D01*
X0245481Y0031467D01*
X0245522Y0031476D01*
X0245564Y0031481D01*
X0245606Y0031483D01*
X0246412Y0031483D01*
X0246412Y0029550D01*
X0247842Y0029550D02*
X0248808Y0029550D01*
X0248856Y0029552D01*
X0248904Y0029557D01*
X0248951Y0029566D01*
X0248998Y0029579D01*
X0249043Y0029595D01*
X0249087Y0029614D01*
X0249130Y0029636D01*
X0249171Y0029662D01*
X0249210Y0029691D01*
X0249246Y0029722D01*
X0249280Y0029756D01*
X0249311Y0029792D01*
X0249340Y0029831D01*
X0249366Y0029872D01*
X0249388Y0029915D01*
X0249407Y0029959D01*
X0249423Y0030004D01*
X0249436Y0030051D01*
X0249445Y0030098D01*
X0249450Y0030146D01*
X0249452Y0030194D01*
X0249453Y0030194D02*
X0249453Y0031806D01*
X0249452Y0031806D02*
X0249450Y0031854D01*
X0249445Y0031902D01*
X0249436Y0031949D01*
X0249423Y0031996D01*
X0249407Y0032041D01*
X0249388Y0032085D01*
X0249366Y0032128D01*
X0249340Y0032169D01*
X0249311Y0032208D01*
X0249280Y0032244D01*
X0249246Y0032278D01*
X0249210Y0032309D01*
X0249171Y0032338D01*
X0249130Y0032364D01*
X0249087Y0032386D01*
X0249043Y0032405D01*
X0248998Y0032421D01*
X0248951Y0032434D01*
X0248904Y0032443D01*
X0248856Y0032448D01*
X0248808Y0032450D01*
X0247842Y0032450D01*
X0247842Y0031161D02*
X0247842Y0029550D01*
X0247842Y0031161D02*
X0248325Y0031161D01*
X0253226Y0031000D02*
X0253226Y0029550D01*
X0254515Y0029550D02*
X0254515Y0031483D01*
X0253710Y0031483D01*
X0253668Y0031481D01*
X0253626Y0031476D01*
X0253585Y0031467D01*
X0253545Y0031454D01*
X0253506Y0031438D01*
X0253469Y0031418D01*
X0253433Y0031396D01*
X0253400Y0031370D01*
X0253368Y0031342D01*
X0253340Y0031310D01*
X0253314Y0031277D01*
X0253292Y0031242D01*
X0253272Y0031204D01*
X0253256Y0031165D01*
X0253243Y0031125D01*
X0253234Y0031084D01*
X0253229Y0031042D01*
X0253227Y0031000D01*
X0255791Y0031483D02*
X0255791Y0029550D01*
X0257807Y0029550D02*
X0256840Y0032450D01*
X0255871Y0032450D02*
X0255710Y0032450D01*
X0255710Y0032289D01*
X0255871Y0032289D01*
X0255871Y0032450D01*
X0258774Y0032450D02*
X0257807Y0029550D01*
X0254357Y0073583D02*
X0254357Y0076483D01*
X0253551Y0076483D01*
X0253509Y0076481D01*
X0253467Y0076476D01*
X0253426Y0076467D01*
X0253386Y0076454D01*
X0253347Y0076438D01*
X0253310Y0076418D01*
X0253274Y0076396D01*
X0253241Y0076370D01*
X0253209Y0076342D01*
X0253181Y0076310D01*
X0253155Y0076277D01*
X0253133Y0076242D01*
X0253113Y0076204D01*
X0253097Y0076165D01*
X0253084Y0076125D01*
X0253075Y0076084D01*
X0253070Y0076042D01*
X0253068Y0076000D01*
X0253068Y0075033D01*
X0253070Y0074991D01*
X0253075Y0074949D01*
X0253084Y0074908D01*
X0253097Y0074868D01*
X0253113Y0074829D01*
X0253133Y0074792D01*
X0253155Y0074756D01*
X0253181Y0074723D01*
X0253209Y0074691D01*
X0253241Y0074663D01*
X0253274Y0074637D01*
X0253310Y0074615D01*
X0253347Y0074595D01*
X0253386Y0074579D01*
X0253426Y0074566D01*
X0253467Y0074557D01*
X0253509Y0074552D01*
X0253551Y0074550D01*
X0254357Y0074550D01*
X0251765Y0074550D02*
X0251765Y0077450D01*
X0251765Y0076483D02*
X0250959Y0076483D01*
X0250917Y0076481D01*
X0250875Y0076476D01*
X0250834Y0076467D01*
X0250794Y0076454D01*
X0250755Y0076438D01*
X0250718Y0076418D01*
X0250682Y0076396D01*
X0250649Y0076370D01*
X0250617Y0076342D01*
X0250589Y0076310D01*
X0250563Y0076277D01*
X0250541Y0076242D01*
X0250521Y0076204D01*
X0250505Y0076165D01*
X0250492Y0076125D01*
X0250483Y0076084D01*
X0250478Y0076042D01*
X0250476Y0076000D01*
X0250476Y0075033D01*
X0250478Y0074991D01*
X0250483Y0074949D01*
X0250492Y0074908D01*
X0250505Y0074868D01*
X0250521Y0074829D01*
X0250541Y0074792D01*
X0250563Y0074756D01*
X0250589Y0074723D01*
X0250617Y0074691D01*
X0250649Y0074663D01*
X0250682Y0074637D01*
X0250718Y0074615D01*
X0250755Y0074595D01*
X0250794Y0074579D01*
X0250834Y0074566D01*
X0250875Y0074557D01*
X0250917Y0074552D01*
X0250959Y0074550D01*
X0251765Y0074550D01*
X0249254Y0075194D02*
X0248610Y0077450D01*
X0248126Y0075839D02*
X0248126Y0074550D01*
X0247643Y0075194D02*
X0249254Y0075194D01*
X0244175Y0077450D02*
X0243208Y0074550D01*
X0242241Y0077450D01*
X0241161Y0076000D02*
X0241161Y0075033D01*
X0241159Y0074991D01*
X0241154Y0074949D01*
X0241145Y0074908D01*
X0241132Y0074868D01*
X0241116Y0074829D01*
X0241096Y0074792D01*
X0241074Y0074756D01*
X0241048Y0074723D01*
X0241020Y0074691D01*
X0240988Y0074663D01*
X0240955Y0074637D01*
X0240920Y0074615D01*
X0240882Y0074595D01*
X0240843Y0074579D01*
X0240803Y0074566D01*
X0240762Y0074557D01*
X0240720Y0074552D01*
X0240678Y0074550D01*
X0240033Y0074550D01*
X0238953Y0075033D02*
X0238953Y0076000D01*
X0238951Y0076042D01*
X0238946Y0076084D01*
X0238937Y0076125D01*
X0238924Y0076165D01*
X0238908Y0076204D01*
X0238888Y0076242D01*
X0238866Y0076277D01*
X0238840Y0076310D01*
X0238812Y0076342D01*
X0238780Y0076370D01*
X0238747Y0076396D01*
X0238712Y0076418D01*
X0238674Y0076438D01*
X0238635Y0076454D01*
X0238595Y0076467D01*
X0238554Y0076476D01*
X0238512Y0076481D01*
X0238470Y0076483D01*
X0237825Y0076483D01*
X0238953Y0075033D02*
X0238951Y0074991D01*
X0238946Y0074949D01*
X0238937Y0074908D01*
X0238924Y0074868D01*
X0238908Y0074829D01*
X0238888Y0074792D01*
X0238866Y0074756D01*
X0238840Y0074723D01*
X0238812Y0074691D01*
X0238780Y0074663D01*
X0238747Y0074637D01*
X0238712Y0074615D01*
X0238674Y0074595D01*
X0238635Y0074579D01*
X0238595Y0074566D01*
X0238554Y0074557D01*
X0238512Y0074552D01*
X0238470Y0074550D01*
X0237825Y0074550D01*
X0240033Y0076483D02*
X0240678Y0076483D01*
X0240720Y0076481D01*
X0240762Y0076476D01*
X0240803Y0076467D01*
X0240843Y0076454D01*
X0240882Y0076438D01*
X0240920Y0076418D01*
X0240955Y0076396D01*
X0240988Y0076370D01*
X0241020Y0076342D01*
X0241048Y0076310D01*
X0241074Y0076277D01*
X0241096Y0076242D01*
X0241116Y0076204D01*
X0241132Y0076165D01*
X0241145Y0076125D01*
X0241154Y0076084D01*
X0241159Y0076042D01*
X0241161Y0076000D01*
X0258288Y0076161D02*
X0258932Y0076161D01*
X0258288Y0076162D02*
X0258239Y0076164D01*
X0258190Y0076170D01*
X0258141Y0076179D01*
X0258094Y0076192D01*
X0258047Y0076209D01*
X0258002Y0076229D01*
X0257959Y0076252D01*
X0257917Y0076279D01*
X0257878Y0076309D01*
X0257841Y0076342D01*
X0257807Y0076378D01*
X0257776Y0076416D01*
X0257747Y0076456D01*
X0257722Y0076498D01*
X0257700Y0076543D01*
X0257682Y0076588D01*
X0257667Y0076635D01*
X0257656Y0076683D01*
X0257648Y0076732D01*
X0257644Y0076781D01*
X0257644Y0076831D01*
X0257648Y0076880D01*
X0257656Y0076929D01*
X0257667Y0076977D01*
X0257682Y0077024D01*
X0257700Y0077069D01*
X0257722Y0077114D01*
X0257747Y0077156D01*
X0257776Y0077196D01*
X0257807Y0077234D01*
X0257841Y0077270D01*
X0257878Y0077303D01*
X0257917Y0077333D01*
X0257959Y0077360D01*
X0258002Y0077383D01*
X0258047Y0077403D01*
X0258094Y0077420D01*
X0258141Y0077433D01*
X0258190Y0077442D01*
X0258239Y0077448D01*
X0258288Y0077450D01*
X0259254Y0077450D01*
X0260476Y0076000D02*
X0260476Y0075033D01*
X0260478Y0074991D01*
X0260483Y0074949D01*
X0260492Y0074908D01*
X0260505Y0074868D01*
X0260521Y0074829D01*
X0260541Y0074792D01*
X0260563Y0074756D01*
X0260589Y0074723D01*
X0260617Y0074691D01*
X0260649Y0074663D01*
X0260682Y0074637D01*
X0260718Y0074615D01*
X0260755Y0074595D01*
X0260794Y0074579D01*
X0260834Y0074566D01*
X0260875Y0074557D01*
X0260917Y0074552D01*
X0260959Y0074550D01*
X0261765Y0074550D01*
X0261765Y0077450D01*
X0261765Y0076483D02*
X0260959Y0076483D01*
X0260917Y0076481D01*
X0260875Y0076476D01*
X0260834Y0076467D01*
X0260794Y0076454D01*
X0260755Y0076438D01*
X0260718Y0076418D01*
X0260682Y0076396D01*
X0260649Y0076370D01*
X0260617Y0076342D01*
X0260589Y0076310D01*
X0260563Y0076277D01*
X0260541Y0076242D01*
X0260521Y0076204D01*
X0260505Y0076165D01*
X0260492Y0076125D01*
X0260483Y0076084D01*
X0260478Y0076042D01*
X0260476Y0076000D01*
X0259254Y0074550D02*
X0258449Y0074550D01*
X0258394Y0074552D01*
X0258339Y0074558D01*
X0258285Y0074567D01*
X0258232Y0074580D01*
X0258179Y0074597D01*
X0258128Y0074617D01*
X0258078Y0074640D01*
X0258030Y0074667D01*
X0257984Y0074698D01*
X0257940Y0074731D01*
X0257899Y0074767D01*
X0257860Y0074806D01*
X0257824Y0074847D01*
X0257791Y0074891D01*
X0257760Y0074937D01*
X0257733Y0074985D01*
X0257710Y0075035D01*
X0257690Y0075086D01*
X0257673Y0075139D01*
X0257660Y0075192D01*
X0257651Y0075246D01*
X0257645Y0075301D01*
X0257643Y0075356D01*
X0257645Y0075411D01*
X0257651Y0075466D01*
X0257660Y0075520D01*
X0257673Y0075573D01*
X0257690Y0075626D01*
X0257710Y0075677D01*
X0257733Y0075727D01*
X0257760Y0075775D01*
X0257791Y0075821D01*
X0257824Y0075865D01*
X0257860Y0075906D01*
X0257899Y0075945D01*
X0257940Y0075981D01*
X0257984Y0076014D01*
X0258030Y0076045D01*
X0258078Y0076072D01*
X0258128Y0076095D01*
X0258179Y0076115D01*
X0258232Y0076132D01*
X0258285Y0076145D01*
X0258339Y0076154D01*
X0258394Y0076160D01*
X0258449Y0076162D01*
X0263068Y0076000D02*
X0263068Y0075033D01*
X0263070Y0074991D01*
X0263075Y0074949D01*
X0263084Y0074908D01*
X0263097Y0074868D01*
X0263113Y0074829D01*
X0263133Y0074792D01*
X0263155Y0074756D01*
X0263181Y0074723D01*
X0263209Y0074691D01*
X0263241Y0074663D01*
X0263274Y0074637D01*
X0263310Y0074615D01*
X0263347Y0074595D01*
X0263386Y0074579D01*
X0263426Y0074566D01*
X0263467Y0074557D01*
X0263509Y0074552D01*
X0263551Y0074550D01*
X0264357Y0074550D01*
X0264357Y0073583D02*
X0264357Y0076483D01*
X0263551Y0076483D01*
X0263509Y0076481D01*
X0263467Y0076476D01*
X0263426Y0076467D01*
X0263386Y0076454D01*
X0263347Y0076438D01*
X0263310Y0076418D01*
X0263274Y0076396D01*
X0263241Y0076370D01*
X0263209Y0076342D01*
X0263181Y0076310D01*
X0263155Y0076277D01*
X0263133Y0076242D01*
X0263113Y0076204D01*
X0263097Y0076165D01*
X0263084Y0076125D01*
X0263075Y0076084D01*
X0263070Y0076042D01*
X0263068Y0076000D01*
X0267547Y0076483D02*
X0268353Y0076483D01*
X0268395Y0076481D01*
X0268437Y0076476D01*
X0268478Y0076467D01*
X0268518Y0076454D01*
X0268557Y0076438D01*
X0268595Y0076418D01*
X0268630Y0076396D01*
X0268663Y0076370D01*
X0268695Y0076342D01*
X0268723Y0076310D01*
X0268749Y0076277D01*
X0268771Y0076242D01*
X0268791Y0076204D01*
X0268807Y0076165D01*
X0268820Y0076125D01*
X0268829Y0076084D01*
X0268834Y0076042D01*
X0268836Y0076000D01*
X0268836Y0075033D01*
X0268834Y0074991D01*
X0268829Y0074949D01*
X0268820Y0074908D01*
X0268807Y0074868D01*
X0268791Y0074829D01*
X0268771Y0074792D01*
X0268749Y0074756D01*
X0268723Y0074723D01*
X0268695Y0074691D01*
X0268663Y0074663D01*
X0268630Y0074637D01*
X0268595Y0074615D01*
X0268557Y0074595D01*
X0268518Y0074579D01*
X0268478Y0074566D01*
X0268437Y0074557D01*
X0268395Y0074552D01*
X0268353Y0074550D01*
X0267547Y0074550D01*
X0267547Y0077450D01*
X0270123Y0076000D02*
X0270123Y0074550D01*
X0271412Y0074550D02*
X0271412Y0076483D01*
X0270606Y0076483D01*
X0270564Y0076481D01*
X0270522Y0076476D01*
X0270481Y0076467D01*
X0270441Y0076454D01*
X0270402Y0076438D01*
X0270365Y0076418D01*
X0270329Y0076396D01*
X0270296Y0076370D01*
X0270264Y0076342D01*
X0270236Y0076310D01*
X0270210Y0076277D01*
X0270188Y0076242D01*
X0270168Y0076204D01*
X0270152Y0076165D01*
X0270139Y0076125D01*
X0270130Y0076084D01*
X0270125Y0076042D01*
X0270123Y0076000D01*
X0272842Y0076161D02*
X0272842Y0074550D01*
X0273808Y0074550D01*
X0273856Y0074552D01*
X0273904Y0074557D01*
X0273951Y0074566D01*
X0273998Y0074579D01*
X0274043Y0074595D01*
X0274087Y0074614D01*
X0274130Y0074636D01*
X0274171Y0074662D01*
X0274210Y0074691D01*
X0274246Y0074722D01*
X0274280Y0074756D01*
X0274311Y0074792D01*
X0274340Y0074831D01*
X0274366Y0074872D01*
X0274388Y0074915D01*
X0274407Y0074959D01*
X0274423Y0075004D01*
X0274436Y0075051D01*
X0274445Y0075098D01*
X0274450Y0075146D01*
X0274452Y0075194D01*
X0274453Y0075194D02*
X0274453Y0076806D01*
X0274452Y0076806D02*
X0274450Y0076854D01*
X0274445Y0076902D01*
X0274436Y0076949D01*
X0274423Y0076996D01*
X0274407Y0077041D01*
X0274388Y0077085D01*
X0274366Y0077128D01*
X0274340Y0077169D01*
X0274311Y0077208D01*
X0274280Y0077244D01*
X0274246Y0077278D01*
X0274210Y0077309D01*
X0274171Y0077338D01*
X0274130Y0077364D01*
X0274087Y0077386D01*
X0274043Y0077405D01*
X0273998Y0077421D01*
X0273951Y0077434D01*
X0273904Y0077443D01*
X0273856Y0077448D01*
X0273808Y0077450D01*
X0272842Y0077450D01*
X0272842Y0076161D02*
X0273325Y0076161D01*
X0271934Y0124550D02*
X0271129Y0124550D01*
X0271934Y0124550D02*
X0271934Y0127450D01*
X0271129Y0127450D01*
X0271074Y0127448D01*
X0271019Y0127442D01*
X0270965Y0127433D01*
X0270912Y0127420D01*
X0270859Y0127403D01*
X0270808Y0127383D01*
X0270758Y0127360D01*
X0270710Y0127333D01*
X0270664Y0127302D01*
X0270620Y0127269D01*
X0270579Y0127233D01*
X0270540Y0127194D01*
X0270504Y0127153D01*
X0270471Y0127109D01*
X0270440Y0127063D01*
X0270413Y0127015D01*
X0270390Y0126965D01*
X0270370Y0126914D01*
X0270353Y0126861D01*
X0270340Y0126808D01*
X0270331Y0126754D01*
X0270325Y0126699D01*
X0270323Y0126644D01*
X0270323Y0125356D01*
X0270325Y0125301D01*
X0270331Y0125246D01*
X0270340Y0125192D01*
X0270353Y0125139D01*
X0270370Y0125086D01*
X0270390Y0125035D01*
X0270413Y0124985D01*
X0270440Y0124937D01*
X0270471Y0124891D01*
X0270504Y0124847D01*
X0270540Y0124806D01*
X0270579Y0124767D01*
X0270620Y0124731D01*
X0270664Y0124698D01*
X0270710Y0124667D01*
X0270758Y0124640D01*
X0270808Y0124617D01*
X0270859Y0124597D01*
X0270912Y0124580D01*
X0270965Y0124567D01*
X0271019Y0124558D01*
X0271074Y0124552D01*
X0271129Y0124550D01*
X0269119Y0124550D02*
X0268153Y0127450D01*
X0267186Y0124550D01*
X0267428Y0125275D02*
X0268878Y0125275D01*
X0273525Y0125758D02*
X0274411Y0126242D01*
X0274089Y0127450D02*
X0274024Y0127448D01*
X0273960Y0127443D01*
X0273895Y0127434D01*
X0273832Y0127422D01*
X0273769Y0127407D01*
X0273707Y0127388D01*
X0273646Y0127366D01*
X0273587Y0127341D01*
X0273528Y0127312D01*
X0273472Y0127280D01*
X0273417Y0127246D01*
X0273364Y0127208D01*
X0274412Y0126242D02*
X0274452Y0126268D01*
X0274491Y0126297D01*
X0274528Y0126329D01*
X0274562Y0126364D01*
X0274593Y0126401D01*
X0274622Y0126440D01*
X0274648Y0126481D01*
X0274670Y0126524D01*
X0274689Y0126569D01*
X0274705Y0126615D01*
X0274718Y0126661D01*
X0274727Y0126709D01*
X0274732Y0126757D01*
X0274734Y0126806D01*
X0274733Y0126806D02*
X0274731Y0126854D01*
X0274726Y0126902D01*
X0274717Y0126949D01*
X0274704Y0126996D01*
X0274688Y0127041D01*
X0274669Y0127085D01*
X0274647Y0127128D01*
X0274621Y0127169D01*
X0274592Y0127208D01*
X0274561Y0127244D01*
X0274527Y0127278D01*
X0274491Y0127309D01*
X0274452Y0127338D01*
X0274411Y0127364D01*
X0274368Y0127386D01*
X0274324Y0127405D01*
X0274279Y0127421D01*
X0274232Y0127434D01*
X0274185Y0127443D01*
X0274137Y0127448D01*
X0274089Y0127450D01*
X0274813Y0124953D02*
X0274762Y0124903D01*
X0274707Y0124856D01*
X0274651Y0124813D01*
X0274592Y0124772D01*
X0274531Y0124734D01*
X0274468Y0124700D01*
X0274403Y0124669D01*
X0274337Y0124641D01*
X0274270Y0124617D01*
X0274201Y0124597D01*
X0274131Y0124580D01*
X0274061Y0124567D01*
X0273990Y0124558D01*
X0273919Y0124552D01*
X0273847Y0124550D01*
X0273799Y0124552D01*
X0273751Y0124557D01*
X0273704Y0124566D01*
X0273657Y0124579D01*
X0273612Y0124595D01*
X0273568Y0124614D01*
X0273525Y0124636D01*
X0273484Y0124662D01*
X0273445Y0124690D01*
X0273409Y0124722D01*
X0273375Y0124756D01*
X0273344Y0124792D01*
X0273315Y0124831D01*
X0273289Y0124872D01*
X0273267Y0124915D01*
X0273248Y0124959D01*
X0273232Y0125004D01*
X0273219Y0125051D01*
X0273210Y0125098D01*
X0273205Y0125146D01*
X0273203Y0125194D01*
X0273205Y0125242D01*
X0273210Y0125291D01*
X0273219Y0125338D01*
X0273232Y0125385D01*
X0273247Y0125431D01*
X0273267Y0125476D01*
X0273289Y0125518D01*
X0273315Y0125560D01*
X0273343Y0125599D01*
X0273375Y0125636D01*
X0273409Y0125670D01*
X0273445Y0125702D01*
X0273484Y0125731D01*
X0273525Y0125757D01*
X0263885Y0126242D02*
X0262999Y0125758D01*
X0263321Y0124550D02*
X0263393Y0124552D01*
X0263464Y0124558D01*
X0263535Y0124567D01*
X0263605Y0124580D01*
X0263675Y0124597D01*
X0263744Y0124617D01*
X0263811Y0124641D01*
X0263877Y0124669D01*
X0263942Y0124700D01*
X0264005Y0124734D01*
X0264066Y0124772D01*
X0264125Y0124813D01*
X0264181Y0124856D01*
X0264236Y0124903D01*
X0264287Y0124953D01*
X0262999Y0125757D02*
X0262958Y0125731D01*
X0262919Y0125702D01*
X0262883Y0125670D01*
X0262849Y0125636D01*
X0262817Y0125599D01*
X0262789Y0125560D01*
X0262763Y0125518D01*
X0262741Y0125476D01*
X0262721Y0125431D01*
X0262706Y0125385D01*
X0262693Y0125338D01*
X0262684Y0125291D01*
X0262679Y0125242D01*
X0262677Y0125194D01*
X0262679Y0125146D01*
X0262684Y0125098D01*
X0262693Y0125051D01*
X0262706Y0125004D01*
X0262722Y0124959D01*
X0262741Y0124915D01*
X0262763Y0124872D01*
X0262789Y0124831D01*
X0262818Y0124792D01*
X0262849Y0124756D01*
X0262883Y0124722D01*
X0262919Y0124690D01*
X0262958Y0124662D01*
X0262999Y0124636D01*
X0263042Y0124614D01*
X0263086Y0124595D01*
X0263131Y0124579D01*
X0263178Y0124566D01*
X0263225Y0124557D01*
X0263273Y0124552D01*
X0263321Y0124550D01*
X0262838Y0127208D02*
X0262891Y0127246D01*
X0262946Y0127280D01*
X0263002Y0127312D01*
X0263061Y0127341D01*
X0263120Y0127366D01*
X0263181Y0127388D01*
X0263243Y0127407D01*
X0263306Y0127422D01*
X0263369Y0127434D01*
X0263434Y0127443D01*
X0263498Y0127448D01*
X0263563Y0127450D01*
X0263611Y0127448D01*
X0263659Y0127443D01*
X0263706Y0127434D01*
X0263753Y0127421D01*
X0263798Y0127405D01*
X0263842Y0127386D01*
X0263885Y0127364D01*
X0263926Y0127338D01*
X0263965Y0127309D01*
X0264001Y0127278D01*
X0264035Y0127244D01*
X0264066Y0127208D01*
X0264095Y0127169D01*
X0264121Y0127128D01*
X0264143Y0127085D01*
X0264162Y0127041D01*
X0264178Y0126996D01*
X0264191Y0126949D01*
X0264200Y0126902D01*
X0264205Y0126854D01*
X0264207Y0126806D01*
X0264205Y0126757D01*
X0264200Y0126709D01*
X0264191Y0126661D01*
X0264178Y0126615D01*
X0264162Y0126569D01*
X0264143Y0126524D01*
X0264121Y0126481D01*
X0264095Y0126440D01*
X0264066Y0126401D01*
X0264035Y0126364D01*
X0264001Y0126329D01*
X0263964Y0126297D01*
X0263925Y0126268D01*
X0263885Y0126242D01*
X0261513Y0126806D02*
X0261513Y0125194D01*
X0261512Y0125194D02*
X0261510Y0125146D01*
X0261505Y0125098D01*
X0261496Y0125051D01*
X0261483Y0125004D01*
X0261467Y0124959D01*
X0261448Y0124915D01*
X0261426Y0124872D01*
X0261400Y0124831D01*
X0261371Y0124792D01*
X0261340Y0124756D01*
X0261306Y0124722D01*
X0261270Y0124691D01*
X0261231Y0124662D01*
X0261190Y0124636D01*
X0261147Y0124614D01*
X0261103Y0124595D01*
X0261058Y0124579D01*
X0261011Y0124566D01*
X0260964Y0124557D01*
X0260916Y0124552D01*
X0260868Y0124550D01*
X0260224Y0124550D01*
X0259001Y0124550D02*
X0257712Y0124550D01*
X0259001Y0124550D02*
X0259001Y0127450D01*
X0260224Y0127450D02*
X0260868Y0127450D01*
X0260916Y0127448D01*
X0260964Y0127443D01*
X0261011Y0127434D01*
X0261058Y0127421D01*
X0261103Y0127405D01*
X0261147Y0127386D01*
X0261190Y0127364D01*
X0261231Y0127338D01*
X0261270Y0127309D01*
X0261306Y0127278D01*
X0261340Y0127244D01*
X0261371Y0127208D01*
X0261400Y0127169D01*
X0261426Y0127128D01*
X0261448Y0127085D01*
X0261467Y0127041D01*
X0261483Y0126996D01*
X0261496Y0126949D01*
X0261505Y0126902D01*
X0261510Y0126854D01*
X0261512Y0126806D01*
X0254453Y0126806D02*
X0254453Y0125194D01*
X0254452Y0125194D02*
X0254450Y0125146D01*
X0254445Y0125098D01*
X0254436Y0125051D01*
X0254423Y0125004D01*
X0254407Y0124959D01*
X0254388Y0124915D01*
X0254366Y0124872D01*
X0254340Y0124831D01*
X0254311Y0124792D01*
X0254280Y0124756D01*
X0254246Y0124722D01*
X0254210Y0124691D01*
X0254171Y0124662D01*
X0254130Y0124636D01*
X0254087Y0124614D01*
X0254043Y0124595D01*
X0253998Y0124579D01*
X0253951Y0124566D01*
X0253904Y0124557D01*
X0253856Y0124552D01*
X0253808Y0124550D01*
X0252842Y0124550D01*
X0252842Y0126161D01*
X0253325Y0126161D01*
X0254452Y0126806D02*
X0254450Y0126854D01*
X0254445Y0126902D01*
X0254436Y0126949D01*
X0254423Y0126996D01*
X0254407Y0127041D01*
X0254388Y0127085D01*
X0254366Y0127128D01*
X0254340Y0127169D01*
X0254311Y0127208D01*
X0254280Y0127244D01*
X0254246Y0127278D01*
X0254210Y0127309D01*
X0254171Y0127338D01*
X0254130Y0127364D01*
X0254087Y0127386D01*
X0254043Y0127405D01*
X0253998Y0127421D01*
X0253951Y0127434D01*
X0253904Y0127443D01*
X0253856Y0127448D01*
X0253808Y0127450D01*
X0252842Y0127450D01*
X0251412Y0126483D02*
X0250606Y0126483D01*
X0250564Y0126481D01*
X0250522Y0126476D01*
X0250481Y0126467D01*
X0250441Y0126454D01*
X0250402Y0126438D01*
X0250365Y0126418D01*
X0250329Y0126396D01*
X0250296Y0126370D01*
X0250264Y0126342D01*
X0250236Y0126310D01*
X0250210Y0126277D01*
X0250188Y0126242D01*
X0250168Y0126204D01*
X0250152Y0126165D01*
X0250139Y0126125D01*
X0250130Y0126084D01*
X0250125Y0126042D01*
X0250123Y0126000D01*
X0250123Y0124550D01*
X0251412Y0124550D02*
X0251412Y0126483D01*
X0248836Y0126000D02*
X0248836Y0125033D01*
X0248834Y0124991D01*
X0248829Y0124949D01*
X0248820Y0124908D01*
X0248807Y0124868D01*
X0248791Y0124829D01*
X0248771Y0124792D01*
X0248749Y0124756D01*
X0248723Y0124723D01*
X0248695Y0124691D01*
X0248663Y0124663D01*
X0248630Y0124637D01*
X0248595Y0124615D01*
X0248557Y0124595D01*
X0248518Y0124579D01*
X0248478Y0124566D01*
X0248437Y0124557D01*
X0248395Y0124552D01*
X0248353Y0124550D01*
X0247547Y0124550D01*
X0247547Y0127450D01*
X0247547Y0126483D02*
X0248353Y0126483D01*
X0248395Y0126481D01*
X0248437Y0126476D01*
X0248478Y0126467D01*
X0248518Y0126454D01*
X0248557Y0126438D01*
X0248595Y0126418D01*
X0248630Y0126396D01*
X0248663Y0126370D01*
X0248695Y0126342D01*
X0248723Y0126310D01*
X0248749Y0126277D01*
X0248771Y0126242D01*
X0248791Y0126204D01*
X0248807Y0126165D01*
X0248820Y0126125D01*
X0248829Y0126084D01*
X0248834Y0126042D01*
X0248836Y0126000D01*
X0244175Y0127450D02*
X0243208Y0124550D01*
X0242241Y0127450D01*
X0241161Y0126000D02*
X0241161Y0125033D01*
X0241159Y0124991D01*
X0241154Y0124949D01*
X0241145Y0124908D01*
X0241132Y0124868D01*
X0241116Y0124829D01*
X0241096Y0124792D01*
X0241074Y0124756D01*
X0241048Y0124723D01*
X0241020Y0124691D01*
X0240988Y0124663D01*
X0240955Y0124637D01*
X0240920Y0124615D01*
X0240882Y0124595D01*
X0240843Y0124579D01*
X0240803Y0124566D01*
X0240762Y0124557D01*
X0240720Y0124552D01*
X0240678Y0124550D01*
X0240033Y0124550D01*
X0238953Y0125033D02*
X0238953Y0126000D01*
X0238951Y0126042D01*
X0238946Y0126084D01*
X0238937Y0126125D01*
X0238924Y0126165D01*
X0238908Y0126204D01*
X0238888Y0126242D01*
X0238866Y0126277D01*
X0238840Y0126310D01*
X0238812Y0126342D01*
X0238780Y0126370D01*
X0238747Y0126396D01*
X0238712Y0126418D01*
X0238674Y0126438D01*
X0238635Y0126454D01*
X0238595Y0126467D01*
X0238554Y0126476D01*
X0238512Y0126481D01*
X0238470Y0126483D01*
X0237825Y0126483D01*
X0238953Y0125033D02*
X0238951Y0124991D01*
X0238946Y0124949D01*
X0238937Y0124908D01*
X0238924Y0124868D01*
X0238908Y0124829D01*
X0238888Y0124792D01*
X0238866Y0124756D01*
X0238840Y0124723D01*
X0238812Y0124691D01*
X0238780Y0124663D01*
X0238747Y0124637D01*
X0238712Y0124615D01*
X0238674Y0124595D01*
X0238635Y0124579D01*
X0238595Y0124566D01*
X0238554Y0124557D01*
X0238512Y0124552D01*
X0238470Y0124550D01*
X0237825Y0124550D01*
X0240033Y0126483D02*
X0240678Y0126483D01*
X0240720Y0126481D01*
X0240762Y0126476D01*
X0240803Y0126467D01*
X0240843Y0126454D01*
X0240882Y0126438D01*
X0240920Y0126418D01*
X0240955Y0126396D01*
X0240988Y0126370D01*
X0241020Y0126342D01*
X0241048Y0126310D01*
X0241074Y0126277D01*
X0241096Y0126242D01*
X0241116Y0126204D01*
X0241132Y0126165D01*
X0241145Y0126125D01*
X0241154Y0126084D01*
X0241159Y0126042D01*
X0241161Y0126000D01*
X0129451Y0012450D02*
X0128645Y0012450D01*
X0128590Y0012448D01*
X0128535Y0012442D01*
X0128481Y0012433D01*
X0128428Y0012420D01*
X0128375Y0012403D01*
X0128324Y0012383D01*
X0128274Y0012360D01*
X0128226Y0012333D01*
X0128180Y0012302D01*
X0128136Y0012269D01*
X0128095Y0012233D01*
X0128056Y0012194D01*
X0128020Y0012153D01*
X0127987Y0012109D01*
X0127956Y0012063D01*
X0127929Y0012015D01*
X0127906Y0011965D01*
X0127886Y0011914D01*
X0127869Y0011861D01*
X0127856Y0011808D01*
X0127847Y0011754D01*
X0127841Y0011699D01*
X0127839Y0011644D01*
X0127841Y0011589D01*
X0127847Y0011534D01*
X0127856Y0011480D01*
X0127869Y0011427D01*
X0127886Y0011374D01*
X0127906Y0011323D01*
X0127929Y0011273D01*
X0127956Y0011225D01*
X0127987Y0011179D01*
X0128020Y0011135D01*
X0128056Y0011094D01*
X0128095Y0011055D01*
X0128136Y0011019D01*
X0128180Y0010986D01*
X0128226Y0010955D01*
X0128274Y0010928D01*
X0128324Y0010905D01*
X0128375Y0010885D01*
X0128428Y0010868D01*
X0128481Y0010855D01*
X0128535Y0010846D01*
X0128590Y0010840D01*
X0128645Y0010838D01*
X0128645Y0010839D02*
X0129451Y0010839D01*
X0128484Y0010839D02*
X0127840Y0009550D01*
X0126526Y0010033D02*
X0126526Y0011483D01*
X0125237Y0011483D02*
X0125237Y0009550D01*
X0126043Y0009550D01*
X0126085Y0009552D01*
X0126127Y0009557D01*
X0126168Y0009566D01*
X0126208Y0009579D01*
X0126247Y0009595D01*
X0126285Y0009615D01*
X0126320Y0009637D01*
X0126353Y0009663D01*
X0126385Y0009691D01*
X0126413Y0009723D01*
X0126439Y0009756D01*
X0126461Y0009792D01*
X0126481Y0009829D01*
X0126497Y0009868D01*
X0126510Y0009908D01*
X0126519Y0009949D01*
X0126524Y0009991D01*
X0126526Y0010033D01*
X0123838Y0009550D02*
X0123838Y0011483D01*
X0123032Y0011483D01*
X0122990Y0011481D01*
X0122948Y0011476D01*
X0122907Y0011467D01*
X0122867Y0011454D01*
X0122828Y0011438D01*
X0122791Y0011418D01*
X0122755Y0011396D01*
X0122722Y0011370D01*
X0122690Y0011342D01*
X0122662Y0011310D01*
X0122636Y0011277D01*
X0122614Y0011242D01*
X0122594Y0011204D01*
X0122578Y0011165D01*
X0122565Y0011125D01*
X0122556Y0011084D01*
X0122551Y0011042D01*
X0122549Y0011000D01*
X0122549Y0009550D01*
X0129451Y0009550D02*
X0129451Y0012450D01*
D11*
X0019000Y0016000D02*
X0013000Y0016000D01*
X0013000Y0026000D02*
X0019000Y0026000D01*
X0019000Y0036000D02*
X0013000Y0036000D01*
X0013000Y0046000D02*
X0019000Y0046000D01*
X0161000Y0158000D02*
X0161000Y0164000D01*
X0171000Y0164000D02*
X0171000Y0158000D01*
X0181000Y0158000D02*
X0181000Y0164000D01*
X0191000Y0164000D02*
X0191000Y0158000D01*
X0201000Y0158000D02*
X0201000Y0164000D01*
X0211000Y0164000D02*
X0211000Y0158000D01*
X0241000Y0158000D02*
X0241000Y0164000D01*
X0251000Y0164000D02*
X0251000Y0158000D01*
X0261000Y0158000D02*
X0261000Y0164000D01*
X0271000Y0164000D02*
X0271000Y0158000D01*
X0271000Y0139000D02*
X0271000Y0133000D01*
X0261000Y0133000D02*
X0261000Y0139000D01*
X0251000Y0139000D02*
X0251000Y0133000D01*
X0241000Y0133000D02*
X0241000Y0139000D01*
X0241000Y0114000D02*
X0241000Y0108000D01*
X0251000Y0108000D02*
X0251000Y0114000D01*
X0261000Y0114000D02*
X0261000Y0108000D01*
X0271000Y0108000D02*
X0271000Y0114000D01*
X0271000Y0089000D02*
X0271000Y0083000D01*
X0261000Y0083000D02*
X0261000Y0089000D01*
X0251000Y0089000D02*
X0251000Y0083000D01*
X0241000Y0083000D02*
X0241000Y0089000D01*
X0246000Y0024000D02*
X0246000Y0018000D01*
X0256000Y0018000D02*
X0256000Y0024000D01*
D12*
X0195843Y0027475D02*
X0195843Y0034525D01*
X0176157Y0034525D02*
X0176157Y0027475D01*
D13*
X0111000Y0067400D02*
X0111000Y0074600D01*
X0101000Y0074600D02*
X0101000Y0067400D01*
X0091000Y0067400D02*
X0091000Y0074600D01*
X0081000Y0074600D02*
X0081000Y0067400D01*
X0071000Y0067400D02*
X0071000Y0074600D01*
X0061000Y0074600D02*
X0061000Y0067400D01*
X0051000Y0067400D02*
X0051000Y0074600D01*
X0041000Y0074600D02*
X0041000Y0067400D01*
X0041000Y0157400D02*
X0041000Y0164600D01*
X0051000Y0164600D02*
X0051000Y0157400D01*
X0061000Y0157400D02*
X0061000Y0164600D01*
X0071000Y0164600D02*
X0071000Y0157400D01*
X0081000Y0157400D02*
X0081000Y0164600D01*
X0091000Y0164600D02*
X0091000Y0157400D01*
X0101000Y0157400D02*
X0101000Y0164600D01*
X0111000Y0164600D02*
X0111000Y0157400D01*
D14*
X0111000Y0131000D03*
X0101000Y0131000D03*
X0071000Y0131000D03*
X0061000Y0131000D03*
X0031000Y0131000D03*
X0071000Y0111000D03*
X0101000Y0111000D03*
X0111000Y0111000D03*
X0141000Y0111000D03*
X0141000Y0131000D03*
D15*
X0126000Y0041000D03*
X0126000Y0031000D03*
X0126000Y0021000D03*
D16*
X0241000Y0048400D02*
X0241000Y0053600D01*
X0251000Y0053600D02*
X0251000Y0048400D01*
X0261000Y0048400D02*
X0261000Y0053600D01*
X0203600Y0096000D02*
X0198400Y0096000D01*
X0198400Y0106000D02*
X0203600Y0106000D01*
X0203600Y0116000D02*
X0198400Y0116000D01*
X0198400Y0126000D02*
X0203600Y0126000D01*
X0173600Y0126000D02*
X0168400Y0126000D01*
X0168400Y0116000D02*
X0173600Y0116000D01*
X0173600Y0106000D02*
X0168400Y0106000D01*
X0168400Y0096000D02*
X0173600Y0096000D01*
D17*
X0006000Y0061000D02*
X0006000Y0006000D01*
X0275401Y0006000D01*
X0275401Y0074564D01*
X0275049Y0073954D01*
X0275049Y0073954D01*
X0275049Y0073954D01*
X0274263Y0073500D01*
X0272407Y0073500D01*
X0272127Y0073780D01*
X0271847Y0073500D01*
X0270977Y0073500D01*
X0270767Y0073710D01*
X0270558Y0073500D01*
X0269688Y0073500D01*
X0269350Y0073838D01*
X0268820Y0073533D01*
X0268788Y0073500D01*
X0267112Y0073500D01*
X0266497Y0074115D01*
X0266497Y0077885D01*
X0267112Y0078500D01*
X0267982Y0078500D01*
X0268597Y0077885D01*
X0268597Y0077533D01*
X0268788Y0077533D01*
X0268820Y0077500D01*
X0269475Y0077122D01*
X0269475Y0077122D01*
X0269506Y0077068D01*
X0269971Y0077533D01*
X0271792Y0077533D01*
X0271792Y0077885D01*
X0272407Y0078500D01*
X0274243Y0078500D01*
X0274243Y0078500D01*
X0274263Y0078500D01*
X0275049Y0078046D01*
X0275049Y0078046D01*
X0275401Y0077436D01*
X0275401Y0124053D01*
X0275220Y0123871D01*
X0275220Y0123871D01*
X0274330Y0123500D01*
X0274330Y0123500D01*
X0273847Y0123500D01*
X0273413Y0123500D01*
X0273393Y0123500D01*
X0272744Y0123875D01*
X0272369Y0123500D01*
X0271563Y0123500D01*
X0271563Y0123500D01*
X0270631Y0123500D01*
X0269962Y0123887D01*
X0269864Y0123691D01*
X0269039Y0123416D01*
X0268261Y0123805D01*
X0268153Y0124130D01*
X0268044Y0123805D01*
X0267266Y0123416D01*
X0266441Y0123691D01*
X0266052Y0124469D01*
X0266378Y0125445D01*
X0266378Y0125710D01*
X0266510Y0125842D01*
X0267046Y0127450D01*
X0267019Y0127531D01*
X0267180Y0127853D01*
X0267294Y0128195D01*
X0267370Y0128233D01*
X0267408Y0128309D01*
X0267750Y0128423D01*
X0268072Y0128584D01*
X0268153Y0128557D01*
X0268233Y0128584D01*
X0268555Y0128423D01*
X0268897Y0128309D01*
X0268935Y0128233D01*
X0269011Y0128195D01*
X0269125Y0127853D01*
X0269286Y0127531D01*
X0269259Y0127450D01*
X0269330Y0127240D01*
X0269770Y0128003D01*
X0269770Y0128003D01*
X0269770Y0128003D01*
X0270631Y0128500D01*
X0272369Y0128500D01*
X0272784Y0128085D01*
X0273336Y0128500D01*
X0274543Y0128500D01*
X0275330Y0128046D01*
X0275330Y0128046D01*
X0275330Y0128046D01*
X0275401Y0127922D01*
X0275401Y0171000D01*
X0146000Y0171000D01*
X0146000Y0115997D01*
X0147100Y0114897D01*
X0147100Y0108503D01*
X0146000Y0107403D01*
X0146000Y0061000D01*
X0145900Y0061000D01*
X0145900Y0058403D01*
X0130252Y0042755D01*
X0130600Y0041915D01*
X0130600Y0040085D01*
X0129900Y0038394D01*
X0128606Y0037100D01*
X0126915Y0036400D01*
X0125085Y0036400D01*
X0123394Y0037100D01*
X0122100Y0038394D01*
X0121400Y0040085D01*
X0121400Y0041915D01*
X0122100Y0043606D01*
X0123394Y0044900D01*
X0125085Y0045600D01*
X0126915Y0045600D01*
X0128606Y0044900D01*
X0128804Y0044701D01*
X0143500Y0059397D01*
X0143500Y0061000D01*
X0006000Y0061000D01*
X0006000Y0060851D02*
X0143500Y0060851D01*
X0143500Y0060253D02*
X0006000Y0060253D01*
X0006000Y0059654D02*
X0143500Y0059654D01*
X0143159Y0059056D02*
X0006000Y0059056D01*
X0006000Y0058457D02*
X0142560Y0058457D01*
X0141962Y0057859D02*
X0006000Y0057859D01*
X0006000Y0057260D02*
X0141363Y0057260D01*
X0140765Y0056662D02*
X0006000Y0056662D01*
X0006000Y0056063D02*
X0140166Y0056063D01*
X0139567Y0055465D02*
X0006000Y0055465D01*
X0006000Y0054866D02*
X0138969Y0054866D01*
X0138370Y0054268D02*
X0006000Y0054268D01*
X0006000Y0053669D02*
X0137772Y0053669D01*
X0137173Y0053070D02*
X0131814Y0053070D01*
X0131856Y0053046D02*
X0131070Y0053500D01*
X0129863Y0053500D01*
X0129364Y0053126D01*
X0128990Y0053500D01*
X0128120Y0053500D01*
X0127505Y0052885D01*
X0127505Y0052211D01*
X0127455Y0052280D01*
X0127455Y0052280D01*
X0127455Y0052280D01*
X0126407Y0052621D01*
X0125360Y0052280D01*
X0125159Y0052004D01*
X0124959Y0052280D01*
X0124959Y0052280D01*
X0123912Y0052621D01*
X0123911Y0052621D01*
X0122864Y0052280D01*
X0122768Y0052148D01*
X0122383Y0052533D01*
X0120507Y0052533D01*
X0119609Y0051635D01*
X0119609Y0051000D01*
X0119609Y0050565D01*
X0119609Y0049598D01*
X0119642Y0049566D01*
X0120020Y0048911D01*
X0120674Y0048533D01*
X0120707Y0048500D01*
X0120898Y0048500D01*
X0120898Y0048148D01*
X0121513Y0047533D01*
X0122383Y0047533D01*
X0122998Y0048148D01*
X0122998Y0048500D01*
X0124508Y0048500D01*
X0124540Y0048533D01*
X0125019Y0048809D01*
X0125328Y0048500D01*
X0127004Y0048500D01*
X0127036Y0048533D01*
X0127396Y0048741D01*
X0127637Y0048500D01*
X0128072Y0048500D01*
X0128707Y0048500D01*
X0128707Y0048500D01*
X0129151Y0048944D01*
X0129920Y0048500D01*
X0129939Y0048500D01*
X0130374Y0048500D01*
X0130857Y0048500D01*
X0131747Y0048871D01*
X0132087Y0049213D01*
X0132393Y0049522D01*
X0132389Y0050392D01*
X0131988Y0050789D01*
X0132310Y0051353D01*
X0132310Y0052260D01*
X0131856Y0053046D01*
X0131856Y0053046D01*
X0131856Y0053046D01*
X0132188Y0052472D02*
X0136575Y0052472D01*
X0135976Y0051873D02*
X0132310Y0051873D01*
X0132266Y0051275D02*
X0135378Y0051275D01*
X0134779Y0050676D02*
X0132102Y0050676D01*
X0132391Y0050078D02*
X0134181Y0050078D01*
X0133582Y0049479D02*
X0132350Y0049479D01*
X0132087Y0049213D02*
X0132087Y0049213D01*
X0131757Y0048881D02*
X0132984Y0048881D01*
X0132385Y0048282D02*
X0122998Y0048282D01*
X0122533Y0047684D02*
X0131787Y0047684D01*
X0131188Y0047085D02*
X0035346Y0047085D01*
X0035494Y0047531D02*
X0035105Y0048309D01*
X0034280Y0048584D01*
X0033502Y0048195D01*
X0033394Y0047870D01*
X0033286Y0048195D01*
X0032508Y0048584D01*
X0031682Y0048309D01*
X0031635Y0048213D01*
X0031138Y0048500D01*
X0031119Y0048500D01*
X0031119Y0048500D01*
X0029605Y0048500D01*
X0029287Y0048183D01*
X0028738Y0048500D01*
X0028719Y0048500D01*
X0028719Y0048500D01*
X0027205Y0048500D01*
X0026590Y0047885D01*
X0026590Y0047015D01*
X0027205Y0046400D01*
X0027849Y0046400D01*
X0027849Y0046400D01*
X0027878Y0046400D01*
X0027878Y0045600D01*
X0027205Y0045600D01*
X0026590Y0044985D01*
X0026590Y0044115D01*
X0027205Y0043500D01*
X0028738Y0043500D01*
X0029287Y0043817D01*
X0029605Y0043500D01*
X0031138Y0043500D01*
X0031924Y0043954D01*
X0031924Y0043954D01*
X0032280Y0044570D01*
X0032287Y0044550D01*
X0032260Y0044469D01*
X0032421Y0044147D01*
X0032535Y0043805D01*
X0032611Y0043767D01*
X0032649Y0043691D01*
X0032991Y0043577D01*
X0033313Y0043416D01*
X0033394Y0043443D01*
X0033474Y0043416D01*
X0033797Y0043577D01*
X0034138Y0043691D01*
X0034176Y0043767D01*
X0034252Y0043805D01*
X0034366Y0044147D01*
X0034527Y0044469D01*
X0034501Y0044550D01*
X0035494Y0047531D01*
X0035417Y0047684D02*
X0121362Y0047684D01*
X0120898Y0048282D02*
X0035118Y0048282D01*
X0033677Y0048282D02*
X0033110Y0048282D01*
X0031669Y0048282D02*
X0031515Y0048282D01*
X0029387Y0048282D02*
X0029115Y0048282D01*
X0026987Y0048282D02*
X0022233Y0048282D01*
X0022306Y0048209D02*
X0021209Y0049306D01*
X0019776Y0049900D01*
X0012224Y0049900D01*
X0010791Y0049306D01*
X0009694Y0048209D01*
X0009100Y0046776D01*
X0009100Y0045224D01*
X0009694Y0043791D01*
X0010791Y0042694D01*
X0012224Y0042100D01*
X0019776Y0042100D01*
X0021209Y0042694D01*
X0022306Y0043791D01*
X0022900Y0045224D01*
X0022900Y0046776D01*
X0022306Y0048209D01*
X0022524Y0047684D02*
X0026590Y0047684D01*
X0026590Y0047085D02*
X0022772Y0047085D01*
X0022900Y0046487D02*
X0027118Y0046487D01*
X0027878Y0045888D02*
X0022900Y0045888D01*
X0022900Y0045290D02*
X0026894Y0045290D01*
X0026590Y0044691D02*
X0022679Y0044691D01*
X0022431Y0044093D02*
X0026612Y0044093D01*
X0022010Y0043494D02*
X0033157Y0043494D01*
X0033630Y0043494D02*
X0122054Y0043494D01*
X0121806Y0042896D02*
X0021411Y0042896D01*
X0020252Y0042297D02*
X0121558Y0042297D01*
X0121400Y0041699D02*
X0006000Y0041699D01*
X0006000Y0042297D02*
X0011748Y0042297D01*
X0010589Y0042896D02*
X0006000Y0042896D01*
X0006000Y0043494D02*
X0009990Y0043494D01*
X0009569Y0044093D02*
X0006000Y0044093D01*
X0006000Y0044691D02*
X0009321Y0044691D01*
X0009100Y0045290D02*
X0006000Y0045290D01*
X0006000Y0045888D02*
X0009100Y0045888D01*
X0009100Y0046487D02*
X0006000Y0046487D01*
X0006000Y0047085D02*
X0009228Y0047085D01*
X0009476Y0047684D02*
X0006000Y0047684D01*
X0006000Y0048282D02*
X0009767Y0048282D01*
X0010365Y0048881D02*
X0006000Y0048881D01*
X0006000Y0049479D02*
X0011209Y0049479D01*
X0006000Y0050078D02*
X0119609Y0050078D01*
X0119609Y0050565D02*
X0119609Y0050565D01*
X0119609Y0050676D02*
X0006000Y0050676D01*
X0006000Y0051275D02*
X0119609Y0051275D01*
X0119609Y0051635D02*
X0119609Y0051635D01*
X0119847Y0051873D02*
X0006000Y0051873D01*
X0006000Y0052472D02*
X0120446Y0052472D01*
X0122444Y0052472D02*
X0123454Y0052472D01*
X0122864Y0052280D02*
X0122864Y0052280D01*
X0124369Y0052472D02*
X0125950Y0052472D01*
X0126407Y0052621D02*
X0126407Y0052621D01*
X0126865Y0052472D02*
X0127505Y0052472D01*
X0127691Y0053070D02*
X0006000Y0053070D01*
X0020791Y0049479D02*
X0119692Y0049479D01*
X0120020Y0048911D02*
X0120020Y0048911D01*
X0120020Y0048911D01*
X0120072Y0048881D02*
X0021635Y0048881D01*
X0031924Y0043954D02*
X0031924Y0043954D01*
X0032005Y0044093D02*
X0032439Y0044093D01*
X0034348Y0044093D02*
X0122587Y0044093D01*
X0123186Y0044691D02*
X0034548Y0044691D01*
X0034747Y0045290D02*
X0124336Y0045290D01*
X0127664Y0045290D02*
X0129393Y0045290D01*
X0129991Y0045888D02*
X0034947Y0045888D01*
X0035146Y0046487D02*
X0130590Y0046487D01*
X0130857Y0048500D02*
X0130857Y0048500D01*
X0131747Y0048871D02*
X0131747Y0048871D01*
X0129261Y0048881D02*
X0129088Y0048881D01*
X0125360Y0052280D02*
X0125360Y0052280D01*
X0133984Y0046487D02*
X0237588Y0046487D01*
X0237544Y0046553D02*
X0237971Y0045914D01*
X0238514Y0045371D01*
X0239153Y0044944D01*
X0239862Y0044650D01*
X0240616Y0044500D01*
X0240700Y0044500D01*
X0240700Y0050700D01*
X0241300Y0050700D01*
X0241300Y0051300D01*
X0244900Y0051300D01*
X0244900Y0053984D01*
X0244750Y0054738D01*
X0244456Y0055447D01*
X0244029Y0056086D01*
X0243486Y0056629D01*
X0242847Y0057056D01*
X0242138Y0057350D01*
X0241384Y0057500D01*
X0241300Y0057500D01*
X0241300Y0051300D01*
X0240700Y0051300D01*
X0240700Y0057500D01*
X0240616Y0057500D01*
X0239862Y0057350D01*
X0239153Y0057056D01*
X0238514Y0056629D01*
X0237971Y0056086D01*
X0237544Y0055447D01*
X0237250Y0054738D01*
X0237100Y0053984D01*
X0237100Y0051300D01*
X0240700Y0051300D01*
X0240700Y0050700D01*
X0237100Y0050700D01*
X0237100Y0048016D01*
X0237250Y0047262D01*
X0237544Y0046553D01*
X0237323Y0047085D02*
X0134582Y0047085D01*
X0135181Y0047684D02*
X0237166Y0047684D01*
X0237100Y0048282D02*
X0135779Y0048282D01*
X0136378Y0048881D02*
X0237100Y0048881D01*
X0237100Y0049479D02*
X0136976Y0049479D01*
X0137575Y0050078D02*
X0237100Y0050078D01*
X0237100Y0050676D02*
X0138173Y0050676D01*
X0138772Y0051275D02*
X0240700Y0051275D01*
X0240700Y0051873D02*
X0241300Y0051873D01*
X0241300Y0051275D02*
X0247500Y0051275D01*
X0247500Y0051873D02*
X0244900Y0051873D01*
X0244900Y0052472D02*
X0247500Y0052472D01*
X0247500Y0053070D02*
X0244900Y0053070D01*
X0244900Y0053669D02*
X0247500Y0053669D01*
X0247500Y0054268D02*
X0244844Y0054268D01*
X0244697Y0054866D02*
X0247736Y0054866D01*
X0247500Y0054296D02*
X0248033Y0055583D01*
X0249017Y0056567D01*
X0250304Y0057100D01*
X0251696Y0057100D01*
X0252983Y0056567D01*
X0253967Y0055583D01*
X0254500Y0054296D01*
X0254500Y0047704D01*
X0253967Y0046417D01*
X0252983Y0045433D01*
X0251696Y0044900D01*
X0250304Y0044900D01*
X0249017Y0045433D01*
X0248033Y0046417D01*
X0247500Y0047704D01*
X0247500Y0054296D01*
X0247984Y0055465D02*
X0244445Y0055465D01*
X0244045Y0056063D02*
X0248513Y0056063D01*
X0249245Y0056662D02*
X0243438Y0056662D01*
X0242355Y0057260D02*
X0275401Y0057260D01*
X0275401Y0056662D02*
X0262755Y0056662D01*
X0262983Y0056567D02*
X0261696Y0057100D01*
X0260304Y0057100D01*
X0259017Y0056567D01*
X0258033Y0055583D01*
X0257500Y0054296D01*
X0257500Y0047704D01*
X0258033Y0046417D01*
X0259017Y0045433D01*
X0260304Y0044900D01*
X0261696Y0044900D01*
X0262983Y0045433D01*
X0263967Y0046417D01*
X0264500Y0047704D01*
X0264500Y0054296D01*
X0263967Y0055583D01*
X0262983Y0056567D01*
X0263487Y0056063D02*
X0275401Y0056063D01*
X0275401Y0055465D02*
X0264016Y0055465D01*
X0264264Y0054866D02*
X0275401Y0054866D01*
X0275401Y0054268D02*
X0264500Y0054268D01*
X0264500Y0053669D02*
X0275401Y0053669D01*
X0275401Y0053070D02*
X0264500Y0053070D01*
X0264500Y0052472D02*
X0275401Y0052472D01*
X0275401Y0051873D02*
X0264500Y0051873D01*
X0264500Y0051275D02*
X0275401Y0051275D01*
X0275401Y0050676D02*
X0264500Y0050676D01*
X0264500Y0050078D02*
X0275401Y0050078D01*
X0275401Y0049479D02*
X0264500Y0049479D01*
X0264500Y0048881D02*
X0275401Y0048881D01*
X0275401Y0048282D02*
X0264500Y0048282D01*
X0264492Y0047684D02*
X0275401Y0047684D01*
X0275401Y0047085D02*
X0264244Y0047085D01*
X0263996Y0046487D02*
X0275401Y0046487D01*
X0275401Y0045888D02*
X0263438Y0045888D01*
X0262637Y0045290D02*
X0275401Y0045290D01*
X0275401Y0044691D02*
X0242238Y0044691D01*
X0242138Y0044650D02*
X0242847Y0044944D01*
X0243486Y0045371D01*
X0244029Y0045914D01*
X0244456Y0046553D01*
X0244750Y0047262D01*
X0244900Y0048016D01*
X0244900Y0050700D01*
X0241300Y0050700D01*
X0241300Y0044500D01*
X0241384Y0044500D01*
X0242138Y0044650D01*
X0241300Y0044691D02*
X0240700Y0044691D01*
X0240700Y0045290D02*
X0241300Y0045290D01*
X0241300Y0045888D02*
X0240700Y0045888D01*
X0240700Y0046487D02*
X0241300Y0046487D01*
X0241300Y0047085D02*
X0240700Y0047085D01*
X0240700Y0047684D02*
X0241300Y0047684D01*
X0241300Y0048282D02*
X0240700Y0048282D01*
X0240700Y0048881D02*
X0241300Y0048881D01*
X0241300Y0049479D02*
X0240700Y0049479D01*
X0240700Y0050078D02*
X0241300Y0050078D01*
X0241300Y0050676D02*
X0240700Y0050676D01*
X0240700Y0052472D02*
X0241300Y0052472D01*
X0241300Y0053070D02*
X0240700Y0053070D01*
X0240700Y0053669D02*
X0241300Y0053669D01*
X0241300Y0054268D02*
X0240700Y0054268D01*
X0240700Y0054866D02*
X0241300Y0054866D01*
X0241300Y0055465D02*
X0240700Y0055465D01*
X0240700Y0056063D02*
X0241300Y0056063D01*
X0241300Y0056662D02*
X0240700Y0056662D01*
X0240700Y0057260D02*
X0241300Y0057260D01*
X0239645Y0057260D02*
X0144757Y0057260D01*
X0144159Y0056662D02*
X0238562Y0056662D01*
X0237955Y0056063D02*
X0143560Y0056063D01*
X0142962Y0055465D02*
X0237555Y0055465D01*
X0237303Y0054866D02*
X0142363Y0054866D01*
X0141765Y0054268D02*
X0237156Y0054268D01*
X0237100Y0053669D02*
X0141166Y0053669D01*
X0140568Y0053070D02*
X0237100Y0053070D01*
X0237100Y0052472D02*
X0139969Y0052472D01*
X0139370Y0051873D02*
X0237100Y0051873D01*
X0244900Y0050676D02*
X0247500Y0050676D01*
X0247500Y0050078D02*
X0244900Y0050078D01*
X0244900Y0049479D02*
X0247500Y0049479D01*
X0247500Y0048881D02*
X0244900Y0048881D01*
X0244900Y0048282D02*
X0247500Y0048282D01*
X0247508Y0047684D02*
X0244834Y0047684D01*
X0244677Y0047085D02*
X0247756Y0047085D01*
X0248004Y0046487D02*
X0244412Y0046487D01*
X0244004Y0045888D02*
X0248562Y0045888D01*
X0249363Y0045290D02*
X0243365Y0045290D01*
X0239762Y0044691D02*
X0132188Y0044691D01*
X0131590Y0044093D02*
X0275401Y0044093D01*
X0275401Y0043494D02*
X0130991Y0043494D01*
X0130393Y0042896D02*
X0275401Y0042896D01*
X0275401Y0042297D02*
X0130442Y0042297D01*
X0130600Y0041699D02*
X0275401Y0041699D01*
X0275401Y0041100D02*
X0130600Y0041100D01*
X0130600Y0040502D02*
X0275401Y0040502D01*
X0275401Y0039903D02*
X0130525Y0039903D01*
X0130277Y0039305D02*
X0175492Y0039305D01*
X0175778Y0039350D02*
X0175028Y0039231D01*
X0174305Y0038996D01*
X0173629Y0038652D01*
X0173014Y0038205D01*
X0172477Y0037668D01*
X0172031Y0037054D01*
X0171686Y0036377D01*
X0171451Y0035655D01*
X0171332Y0034905D01*
X0171332Y0031300D01*
X0175857Y0031300D01*
X0175857Y0030700D01*
X0171332Y0030700D01*
X0171332Y0027095D01*
X0171451Y0026345D01*
X0171686Y0025623D01*
X0172031Y0024946D01*
X0172477Y0024332D01*
X0173014Y0023795D01*
X0173629Y0023348D01*
X0174305Y0023003D01*
X0175028Y0022769D01*
X0175778Y0022650D01*
X0175857Y0022650D01*
X0175857Y0030700D01*
X0176457Y0030700D01*
X0176457Y0022650D01*
X0176537Y0022650D01*
X0177287Y0022769D01*
X0178010Y0023003D01*
X0178686Y0023348D01*
X0179301Y0023795D01*
X0179838Y0024332D01*
X0180284Y0024946D01*
X0180629Y0025623D01*
X0180864Y0026345D01*
X0180982Y0027095D01*
X0180982Y0030700D01*
X0176458Y0030700D01*
X0176458Y0031300D01*
X0180982Y0031300D01*
X0180982Y0034905D01*
X0180864Y0035655D01*
X0180629Y0036377D01*
X0180284Y0037054D01*
X0179838Y0037668D01*
X0179301Y0038205D01*
X0178686Y0038652D01*
X0178010Y0038996D01*
X0177287Y0039231D01*
X0176537Y0039350D01*
X0176457Y0039350D01*
X0176457Y0031300D01*
X0175857Y0031300D01*
X0175857Y0039350D01*
X0175778Y0039350D01*
X0175857Y0039305D02*
X0176457Y0039305D01*
X0176823Y0039305D02*
X0275401Y0039305D01*
X0275401Y0038706D02*
X0197311Y0038706D01*
X0196723Y0038950D02*
X0194962Y0038950D01*
X0193336Y0038276D01*
X0192091Y0037032D01*
X0191418Y0035405D01*
X0191418Y0026595D01*
X0192091Y0024968D01*
X0193336Y0023724D01*
X0194962Y0023050D01*
X0196723Y0023050D01*
X0198349Y0023724D01*
X0199594Y0024968D01*
X0200268Y0026595D01*
X0200268Y0035405D01*
X0199594Y0037032D01*
X0198349Y0038276D01*
X0196723Y0038950D01*
X0198518Y0038108D02*
X0275401Y0038108D01*
X0275401Y0037509D02*
X0199116Y0037509D01*
X0199644Y0036911D02*
X0275401Y0036911D01*
X0275401Y0036312D02*
X0199892Y0036312D01*
X0200140Y0035714D02*
X0275401Y0035714D01*
X0275401Y0035115D02*
X0200268Y0035115D01*
X0200268Y0034517D02*
X0275401Y0034517D01*
X0275401Y0033918D02*
X0200268Y0033918D01*
X0200268Y0033320D02*
X0241932Y0033320D01*
X0242112Y0033500D02*
X0241497Y0032885D01*
X0241497Y0029115D01*
X0242112Y0028500D01*
X0243788Y0028500D01*
X0243820Y0028533D01*
X0244350Y0028838D01*
X0244688Y0028500D01*
X0245558Y0028500D01*
X0245767Y0028710D01*
X0245977Y0028500D01*
X0246847Y0028500D01*
X0247127Y0028780D01*
X0247407Y0028500D01*
X0249263Y0028500D01*
X0250049Y0028954D01*
X0250503Y0029740D01*
X0250503Y0032260D01*
X0250049Y0033046D01*
X0250049Y0033046D01*
X0250049Y0033046D01*
X0249263Y0033500D01*
X0249243Y0033500D01*
X0247407Y0033500D01*
X0246792Y0032885D01*
X0246792Y0032533D01*
X0244971Y0032533D01*
X0244506Y0032068D01*
X0244475Y0032122D01*
X0244475Y0032122D01*
X0243820Y0032500D01*
X0243788Y0032533D01*
X0243597Y0032533D01*
X0243597Y0032885D01*
X0242982Y0033500D01*
X0242112Y0033500D01*
X0241497Y0032721D02*
X0200268Y0032721D01*
X0200268Y0032123D02*
X0241497Y0032123D01*
X0241497Y0031524D02*
X0200268Y0031524D01*
X0200268Y0030926D02*
X0241497Y0030926D01*
X0241497Y0030327D02*
X0200268Y0030327D01*
X0200268Y0029729D02*
X0241497Y0029729D01*
X0241497Y0029130D02*
X0200268Y0029130D01*
X0200268Y0028532D02*
X0242081Y0028532D01*
X0243199Y0027280D02*
X0242720Y0026801D01*
X0242322Y0026254D01*
X0242015Y0025651D01*
X0241806Y0025007D01*
X0241700Y0024338D01*
X0241700Y0021300D01*
X0245700Y0021300D01*
X0245700Y0028300D01*
X0245662Y0028300D01*
X0244993Y0028194D01*
X0244349Y0027985D01*
X0243746Y0027678D01*
X0243199Y0027280D01*
X0243274Y0027334D02*
X0200268Y0027334D01*
X0200268Y0026736D02*
X0242673Y0026736D01*
X0242263Y0026137D02*
X0200078Y0026137D01*
X0199830Y0025539D02*
X0241979Y0025539D01*
X0241795Y0024940D02*
X0199566Y0024940D01*
X0198967Y0024342D02*
X0241701Y0024342D01*
X0241700Y0023743D02*
X0198369Y0023743D01*
X0196952Y0023145D02*
X0241700Y0023145D01*
X0241700Y0022546D02*
X0130338Y0022546D01*
X0130586Y0021948D02*
X0241700Y0021948D01*
X0241700Y0021349D02*
X0130600Y0021349D01*
X0130600Y0021915D02*
X0129900Y0023606D01*
X0128606Y0024900D01*
X0126915Y0025600D01*
X0125085Y0025600D01*
X0123394Y0024900D01*
X0122100Y0023606D01*
X0121400Y0021915D01*
X0121400Y0020085D01*
X0122100Y0018394D01*
X0123394Y0017100D01*
X0125085Y0016400D01*
X0126915Y0016400D01*
X0128606Y0017100D01*
X0129900Y0018394D01*
X0130600Y0020085D01*
X0130600Y0021915D01*
X0130600Y0020751D02*
X0245700Y0020751D01*
X0245700Y0020700D02*
X0241700Y0020700D01*
X0241700Y0017662D01*
X0241806Y0016993D01*
X0242015Y0016349D01*
X0242322Y0015746D01*
X0242720Y0015199D01*
X0243199Y0014720D01*
X0243746Y0014322D01*
X0244349Y0014015D01*
X0244993Y0013806D01*
X0245662Y0013700D01*
X0245700Y0013700D01*
X0245700Y0020700D01*
X0245700Y0021300D01*
X0246300Y0021300D01*
X0246300Y0028300D01*
X0246338Y0028300D01*
X0247007Y0028194D01*
X0247651Y0027985D01*
X0248254Y0027678D01*
X0248801Y0027280D01*
X0249280Y0026801D01*
X0249678Y0026254D01*
X0249985Y0025651D01*
X0250194Y0025007D01*
X0250300Y0024338D01*
X0250300Y0021300D01*
X0246300Y0021300D01*
X0246300Y0020700D01*
X0250300Y0020700D01*
X0250300Y0017662D01*
X0250194Y0016993D01*
X0249985Y0016349D01*
X0249678Y0015746D01*
X0249280Y0015199D01*
X0248801Y0014720D01*
X0248254Y0014322D01*
X0247651Y0014015D01*
X0247007Y0013806D01*
X0246338Y0013700D01*
X0246300Y0013700D01*
X0246300Y0020700D01*
X0245700Y0020700D01*
X0245700Y0020152D02*
X0246300Y0020152D01*
X0246300Y0019554D02*
X0245700Y0019554D01*
X0245700Y0018955D02*
X0246300Y0018955D01*
X0246300Y0018357D02*
X0245700Y0018357D01*
X0245700Y0017758D02*
X0246300Y0017758D01*
X0246300Y0017160D02*
X0245700Y0017160D01*
X0245700Y0016561D02*
X0246300Y0016561D01*
X0246300Y0015963D02*
X0245700Y0015963D01*
X0245700Y0015364D02*
X0246300Y0015364D01*
X0246300Y0014766D02*
X0245700Y0014766D01*
X0245700Y0014167D02*
X0246300Y0014167D01*
X0247949Y0014167D02*
X0255062Y0014167D01*
X0255224Y0014100D02*
X0256776Y0014100D01*
X0258209Y0014694D01*
X0259306Y0015791D01*
X0259900Y0017224D01*
X0259900Y0024776D01*
X0259306Y0026209D01*
X0258209Y0027306D01*
X0256776Y0027900D01*
X0255224Y0027900D01*
X0253791Y0027306D01*
X0252694Y0026209D01*
X0252100Y0024776D01*
X0252100Y0017224D01*
X0252694Y0015791D01*
X0253791Y0014694D01*
X0255224Y0014100D01*
X0253719Y0014766D02*
X0248847Y0014766D01*
X0249400Y0015364D02*
X0253120Y0015364D01*
X0252623Y0015963D02*
X0249788Y0015963D01*
X0250054Y0016561D02*
X0252375Y0016561D01*
X0252127Y0017160D02*
X0250221Y0017160D01*
X0250300Y0017758D02*
X0252100Y0017758D01*
X0252100Y0018357D02*
X0250300Y0018357D01*
X0250300Y0018955D02*
X0252100Y0018955D01*
X0252100Y0019554D02*
X0250300Y0019554D01*
X0250300Y0020152D02*
X0252100Y0020152D01*
X0252100Y0020751D02*
X0246300Y0020751D01*
X0246300Y0021349D02*
X0245700Y0021349D01*
X0245700Y0021948D02*
X0246300Y0021948D01*
X0246300Y0022546D02*
X0245700Y0022546D01*
X0245700Y0023145D02*
X0246300Y0023145D01*
X0246300Y0023743D02*
X0245700Y0023743D01*
X0245700Y0024342D02*
X0246300Y0024342D01*
X0246300Y0024940D02*
X0245700Y0024940D01*
X0245700Y0025539D02*
X0246300Y0025539D01*
X0246300Y0026137D02*
X0245700Y0026137D01*
X0245700Y0026736D02*
X0246300Y0026736D01*
X0246300Y0027334D02*
X0245700Y0027334D01*
X0245700Y0027933D02*
X0246300Y0027933D01*
X0245945Y0028532D02*
X0245589Y0028532D01*
X0244656Y0028532D02*
X0243819Y0028532D01*
X0244247Y0027933D02*
X0200268Y0027933D01*
X0194733Y0023145D02*
X0178287Y0023145D01*
X0179230Y0023743D02*
X0193316Y0023743D01*
X0192718Y0024342D02*
X0179845Y0024342D01*
X0180280Y0024940D02*
X0192119Y0024940D01*
X0191855Y0025539D02*
X0180586Y0025539D01*
X0180796Y0026137D02*
X0191607Y0026137D01*
X0191418Y0026736D02*
X0180926Y0026736D01*
X0180982Y0027334D02*
X0191418Y0027334D01*
X0191418Y0027933D02*
X0180982Y0027933D01*
X0180982Y0028532D02*
X0191418Y0028532D01*
X0191418Y0029130D02*
X0180982Y0029130D01*
X0180982Y0029729D02*
X0191418Y0029729D01*
X0191418Y0030327D02*
X0180982Y0030327D01*
X0180982Y0031524D02*
X0191418Y0031524D01*
X0191418Y0030926D02*
X0176458Y0030926D01*
X0176457Y0031524D02*
X0175857Y0031524D01*
X0175857Y0030926D02*
X0130600Y0030926D01*
X0130600Y0031524D02*
X0171332Y0031524D01*
X0171332Y0032123D02*
X0130514Y0032123D01*
X0130600Y0031915D02*
X0129900Y0033606D01*
X0128606Y0034900D01*
X0126915Y0035600D01*
X0125085Y0035600D01*
X0123394Y0034900D01*
X0122100Y0033606D01*
X0121400Y0031915D01*
X0121400Y0030085D01*
X0122100Y0028394D01*
X0123394Y0027100D01*
X0125085Y0026400D01*
X0126915Y0026400D01*
X0128606Y0027100D01*
X0129900Y0028394D01*
X0130600Y0030085D01*
X0130600Y0031915D01*
X0130266Y0032721D02*
X0171332Y0032721D01*
X0171332Y0033320D02*
X0130018Y0033320D01*
X0129587Y0033918D02*
X0171332Y0033918D01*
X0171332Y0034517D02*
X0128989Y0034517D01*
X0128086Y0035115D02*
X0171366Y0035115D01*
X0171470Y0035714D02*
X0035503Y0035714D01*
X0035503Y0036312D02*
X0171665Y0036312D01*
X0171958Y0036911D02*
X0128148Y0036911D01*
X0129015Y0037509D02*
X0172362Y0037509D01*
X0172917Y0038108D02*
X0129613Y0038108D01*
X0130029Y0038706D02*
X0173736Y0038706D01*
X0175857Y0038706D02*
X0176457Y0038706D01*
X0176457Y0038108D02*
X0175857Y0038108D01*
X0175857Y0037509D02*
X0176457Y0037509D01*
X0176457Y0036911D02*
X0175857Y0036911D01*
X0175857Y0036312D02*
X0176457Y0036312D01*
X0176457Y0035714D02*
X0175857Y0035714D01*
X0175857Y0035115D02*
X0176457Y0035115D01*
X0176457Y0034517D02*
X0175857Y0034517D01*
X0175857Y0033918D02*
X0176457Y0033918D01*
X0176457Y0033320D02*
X0175857Y0033320D01*
X0175857Y0032721D02*
X0176457Y0032721D01*
X0176457Y0032123D02*
X0175857Y0032123D01*
X0175857Y0030327D02*
X0176457Y0030327D01*
X0176457Y0029729D02*
X0175857Y0029729D01*
X0175857Y0029130D02*
X0176457Y0029130D01*
X0176457Y0028532D02*
X0175857Y0028532D01*
X0175857Y0027933D02*
X0176457Y0027933D01*
X0176457Y0027334D02*
X0175857Y0027334D01*
X0175857Y0026736D02*
X0176457Y0026736D01*
X0176457Y0026137D02*
X0175857Y0026137D01*
X0175857Y0025539D02*
X0176457Y0025539D01*
X0176457Y0024940D02*
X0175857Y0024940D01*
X0175857Y0024342D02*
X0176457Y0024342D01*
X0176457Y0023743D02*
X0175857Y0023743D01*
X0175857Y0023145D02*
X0176457Y0023145D01*
X0174028Y0023145D02*
X0130091Y0023145D01*
X0129762Y0023743D02*
X0173085Y0023743D01*
X0172470Y0024342D02*
X0129163Y0024342D01*
X0128507Y0024940D02*
X0172035Y0024940D01*
X0171729Y0025539D02*
X0127062Y0025539D01*
X0127726Y0026736D02*
X0171389Y0026736D01*
X0171332Y0027334D02*
X0128840Y0027334D01*
X0129438Y0027933D02*
X0171332Y0027933D01*
X0171332Y0028532D02*
X0129957Y0028532D01*
X0130204Y0029130D02*
X0171332Y0029130D01*
X0171332Y0029729D02*
X0130452Y0029729D01*
X0130600Y0030327D02*
X0171332Y0030327D01*
X0171519Y0026137D02*
X0035134Y0026137D01*
X0035257Y0026353D02*
X0035257Y0027260D01*
X0034803Y0028046D01*
X0034803Y0028046D01*
X0034803Y0028046D01*
X0034017Y0028500D01*
X0032810Y0028500D01*
X0032208Y0028048D01*
X0032138Y0027996D01*
X0032109Y0028046D01*
X0032109Y0028046D01*
X0032109Y0028046D01*
X0031322Y0028500D01*
X0031303Y0028500D01*
X0029789Y0028500D01*
X0029613Y0028324D01*
X0029436Y0028500D01*
X0028566Y0028500D01*
X0027951Y0027885D01*
X0027951Y0025600D01*
X0027278Y0025600D01*
X0026662Y0024985D01*
X0026662Y0024115D01*
X0027278Y0023500D01*
X0029436Y0023500D01*
X0029613Y0023676D01*
X0029789Y0023500D01*
X0031322Y0023500D01*
X0032095Y0023946D01*
X0032867Y0023500D01*
X0032886Y0023500D01*
X0033321Y0023500D01*
X0033803Y0023500D01*
X0033803Y0023500D01*
X0034693Y0023871D01*
X0034693Y0023871D01*
X0035033Y0024213D01*
X0035339Y0024522D01*
X0035336Y0025392D01*
X0034935Y0025789D01*
X0035257Y0026353D01*
X0035257Y0026736D02*
X0124274Y0026736D01*
X0123160Y0027334D02*
X0035214Y0027334D01*
X0034868Y0027933D02*
X0122562Y0027933D01*
X0122043Y0028532D02*
X0021984Y0028532D01*
X0022306Y0028209D02*
X0021209Y0029306D01*
X0019776Y0029900D01*
X0012224Y0029900D01*
X0010791Y0029306D01*
X0009694Y0028209D01*
X0009100Y0026776D01*
X0009100Y0025224D01*
X0009694Y0023791D01*
X0010791Y0022694D01*
X0012224Y0022100D01*
X0019776Y0022100D01*
X0021209Y0022694D01*
X0022306Y0023791D01*
X0022900Y0025224D01*
X0022900Y0026776D01*
X0022306Y0028209D01*
X0022421Y0027933D02*
X0027999Y0027933D01*
X0027951Y0027334D02*
X0022669Y0027334D01*
X0022900Y0026736D02*
X0027951Y0026736D01*
X0027951Y0026137D02*
X0022900Y0026137D01*
X0022900Y0025539D02*
X0027217Y0025539D01*
X0026662Y0024940D02*
X0022782Y0024940D01*
X0022535Y0024342D02*
X0026662Y0024342D01*
X0027034Y0023743D02*
X0022259Y0023743D01*
X0021660Y0023145D02*
X0121909Y0023145D01*
X0121662Y0022546D02*
X0020853Y0022546D01*
X0019776Y0019900D02*
X0021209Y0019306D01*
X0022306Y0018209D01*
X0022900Y0016776D01*
X0022900Y0015224D01*
X0022306Y0013791D01*
X0021209Y0012694D01*
X0019776Y0012100D01*
X0012224Y0012100D01*
X0010791Y0012694D01*
X0009694Y0013791D01*
X0009100Y0015224D01*
X0009100Y0016776D01*
X0009694Y0018209D01*
X0010791Y0019306D01*
X0012224Y0019900D01*
X0019776Y0019900D01*
X0020611Y0019554D02*
X0121620Y0019554D01*
X0121400Y0020152D02*
X0006000Y0020152D01*
X0006000Y0019554D02*
X0011389Y0019554D01*
X0010440Y0018955D02*
X0006000Y0018955D01*
X0006000Y0018357D02*
X0009841Y0018357D01*
X0009507Y0017758D02*
X0006000Y0017758D01*
X0006000Y0017160D02*
X0009259Y0017160D01*
X0009100Y0016561D02*
X0006000Y0016561D01*
X0006000Y0015963D02*
X0009100Y0015963D01*
X0009100Y0015364D02*
X0006000Y0015364D01*
X0006000Y0014766D02*
X0009290Y0014766D01*
X0009538Y0014167D02*
X0006000Y0014167D01*
X0006000Y0013569D02*
X0009916Y0013569D01*
X0010514Y0012970D02*
X0006000Y0012970D01*
X0006000Y0012372D02*
X0011568Y0012372D01*
X0006000Y0011773D02*
X0121637Y0011773D01*
X0121499Y0011635D02*
X0121499Y0011635D01*
X0121499Y0011000D01*
X0121499Y0010565D01*
X0121499Y0009115D01*
X0122114Y0008500D01*
X0122984Y0008500D01*
X0123194Y0008710D01*
X0123403Y0008500D01*
X0124273Y0008500D01*
X0124538Y0008765D01*
X0124802Y0008500D01*
X0125608Y0008500D01*
X0126043Y0008500D01*
X0126678Y0008500D01*
X0126982Y0008805D01*
X0127759Y0008416D01*
X0128584Y0008691D01*
X0128664Y0008852D01*
X0129016Y0008500D01*
X0129886Y0008500D01*
X0130501Y0009115D01*
X0130501Y0012885D01*
X0129886Y0013500D01*
X0128042Y0013500D01*
X0127067Y0012791D01*
X0126978Y0012516D01*
X0126961Y0012533D01*
X0126091Y0012533D01*
X0125881Y0012324D01*
X0125672Y0012533D01*
X0124802Y0012533D01*
X0124538Y0012269D01*
X0124273Y0012533D01*
X0122397Y0012533D01*
X0121499Y0011635D01*
X0121499Y0011175D02*
X0006000Y0011175D01*
X0006000Y0010576D02*
X0121499Y0010576D01*
X0121499Y0010565D02*
X0121499Y0010565D01*
X0121499Y0009978D02*
X0006000Y0009978D01*
X0006000Y0009379D02*
X0121499Y0009379D01*
X0121834Y0008781D02*
X0006000Y0008781D01*
X0006000Y0008182D02*
X0275401Y0008182D01*
X0275401Y0007584D02*
X0006000Y0007584D01*
X0006000Y0006985D02*
X0275401Y0006985D01*
X0275401Y0006387D02*
X0006000Y0006387D01*
X0020432Y0012372D02*
X0122236Y0012372D01*
X0124434Y0012372D02*
X0124641Y0012372D01*
X0125834Y0012372D02*
X0125929Y0012372D01*
X0127067Y0012791D02*
X0127067Y0012791D01*
X0127067Y0012791D01*
X0127313Y0012970D02*
X0021486Y0012970D01*
X0022084Y0013569D02*
X0026809Y0013569D01*
X0026441Y0013691D02*
X0027266Y0013416D01*
X0028044Y0013805D01*
X0028153Y0014130D01*
X0028261Y0013805D01*
X0029039Y0013416D01*
X0029864Y0013691D01*
X0029962Y0013887D01*
X0030631Y0013500D01*
X0031563Y0013500D01*
X0031563Y0013500D01*
X0032369Y0013500D01*
X0032744Y0013875D01*
X0033393Y0013500D01*
X0033413Y0013500D01*
X0033847Y0013500D01*
X0034330Y0013500D01*
X0035220Y0013871D01*
X0035220Y0013871D01*
X0035560Y0014213D01*
X0035866Y0014522D01*
X0035862Y0015392D01*
X0035462Y0015789D01*
X0035784Y0016353D01*
X0035784Y0017260D01*
X0035330Y0018046D01*
X0035330Y0018046D01*
X0035330Y0018046D01*
X0034543Y0018500D01*
X0033336Y0018500D01*
X0032784Y0018085D01*
X0032369Y0018500D01*
X0030631Y0018500D01*
X0029770Y0018003D01*
X0029770Y0018003D01*
X0029770Y0018003D01*
X0029330Y0017240D01*
X0029259Y0017450D01*
X0029286Y0017531D01*
X0029125Y0017853D01*
X0029011Y0018195D01*
X0028935Y0018233D01*
X0028897Y0018309D01*
X0028555Y0018423D01*
X0028233Y0018584D01*
X0028153Y0018557D01*
X0028072Y0018584D01*
X0027750Y0018423D01*
X0027408Y0018309D01*
X0027370Y0018233D01*
X0027294Y0018195D01*
X0027180Y0017853D01*
X0027019Y0017531D01*
X0027046Y0017450D01*
X0026510Y0015842D01*
X0026378Y0015710D01*
X0026378Y0015445D01*
X0026052Y0014469D01*
X0026441Y0013691D01*
X0026203Y0014167D02*
X0022462Y0014167D01*
X0022710Y0014766D02*
X0026151Y0014766D01*
X0026351Y0015364D02*
X0022900Y0015364D01*
X0022900Y0015963D02*
X0026550Y0015963D01*
X0026750Y0016561D02*
X0022900Y0016561D01*
X0022741Y0017160D02*
X0026949Y0017160D01*
X0027133Y0017758D02*
X0022493Y0017758D01*
X0022159Y0018357D02*
X0027553Y0018357D01*
X0028752Y0018357D02*
X0030383Y0018357D01*
X0029629Y0017758D02*
X0029172Y0017758D01*
X0032512Y0018357D02*
X0033145Y0018357D01*
X0033336Y0018500D02*
X0033336Y0018500D01*
X0034791Y0018357D02*
X0122138Y0018357D01*
X0121868Y0018955D02*
X0021560Y0018955D01*
X0027571Y0013569D02*
X0028734Y0013569D01*
X0029496Y0013569D02*
X0030512Y0013569D01*
X0032438Y0013569D02*
X0033274Y0013569D01*
X0034330Y0013500D02*
X0034330Y0013500D01*
X0034495Y0013569D02*
X0172043Y0013569D01*
X0172112Y0013500D02*
X0173788Y0013500D01*
X0173820Y0013533D01*
X0174350Y0013838D01*
X0174688Y0013500D01*
X0175558Y0013500D01*
X0175767Y0013710D01*
X0175977Y0013500D01*
X0176847Y0013500D01*
X0177127Y0013780D01*
X0177407Y0013500D01*
X0179262Y0013500D01*
X0180049Y0013954D01*
X0180503Y0014740D01*
X0180503Y0017260D01*
X0180049Y0018046D01*
X0180049Y0018046D01*
X0180049Y0018046D01*
X0179263Y0018500D01*
X0179243Y0018500D01*
X0177407Y0018500D01*
X0176792Y0017885D01*
X0176792Y0017533D01*
X0174971Y0017533D01*
X0174506Y0017068D01*
X0174475Y0017122D01*
X0174475Y0017122D01*
X0173820Y0017500D01*
X0173788Y0017533D01*
X0173597Y0017533D01*
X0173597Y0017885D01*
X0172982Y0018500D01*
X0172112Y0018500D01*
X0171497Y0017885D01*
X0171497Y0014115D01*
X0172112Y0013500D01*
X0171497Y0014167D02*
X0035514Y0014167D01*
X0035865Y0014766D02*
X0171497Y0014766D01*
X0171497Y0015364D02*
X0035862Y0015364D01*
X0035561Y0015963D02*
X0171497Y0015963D01*
X0171497Y0016561D02*
X0127304Y0016561D01*
X0128665Y0017160D02*
X0171497Y0017160D01*
X0171497Y0017758D02*
X0129264Y0017758D01*
X0129862Y0018357D02*
X0171969Y0018357D01*
X0173125Y0018357D02*
X0177264Y0018357D01*
X0176792Y0017758D02*
X0173597Y0017758D01*
X0174410Y0017160D02*
X0174598Y0017160D01*
X0174475Y0017122D02*
X0174475Y0017122D01*
X0174619Y0013569D02*
X0173883Y0013569D01*
X0175627Y0013569D02*
X0175908Y0013569D01*
X0176915Y0013569D02*
X0177338Y0013569D01*
X0179382Y0013569D02*
X0192723Y0013569D01*
X0192792Y0013500D02*
X0193661Y0013500D01*
X0193871Y0013710D01*
X0194080Y0013500D01*
X0194950Y0013500D01*
X0195153Y0013703D01*
X0195356Y0013500D01*
X0196226Y0013500D01*
X0196841Y0014115D01*
X0196841Y0014128D01*
X0196948Y0013805D01*
X0197024Y0013767D01*
X0197062Y0013691D01*
X0197404Y0013577D01*
X0197726Y0013416D01*
X0197807Y0013443D01*
X0197887Y0013416D01*
X0198210Y0013577D01*
X0198552Y0013691D01*
X0198589Y0013767D01*
X0198665Y0013805D01*
X0198779Y0014147D01*
X0198941Y0014469D01*
X0198914Y0014550D01*
X0199907Y0017531D01*
X0199518Y0018309D01*
X0198693Y0018584D01*
X0197915Y0018195D01*
X0197807Y0017870D01*
X0197699Y0018195D01*
X0196921Y0018584D01*
X0196397Y0018409D01*
X0196306Y0018500D01*
X0195275Y0018500D01*
X0194660Y0017885D01*
X0194660Y0017533D01*
X0193075Y0017533D01*
X0192176Y0016635D01*
X0192176Y0016000D01*
X0192176Y0015565D01*
X0192176Y0015565D01*
X0192176Y0014115D01*
X0192792Y0013500D01*
X0192176Y0014167D02*
X0180172Y0014167D01*
X0180049Y0013954D02*
X0180049Y0013954D01*
X0180503Y0014766D02*
X0192176Y0014766D01*
X0192176Y0015364D02*
X0180503Y0015364D01*
X0180503Y0015963D02*
X0192176Y0015963D01*
X0192176Y0016561D02*
X0180503Y0016561D01*
X0180503Y0017160D02*
X0192701Y0017160D01*
X0192176Y0016635D02*
X0192176Y0016635D01*
X0194660Y0017758D02*
X0180215Y0017758D01*
X0179510Y0018357D02*
X0195132Y0018357D01*
X0197374Y0018357D02*
X0198239Y0018357D01*
X0199373Y0018357D02*
X0241700Y0018357D01*
X0241700Y0018955D02*
X0130132Y0018955D01*
X0130380Y0019554D02*
X0241700Y0019554D01*
X0241700Y0020152D02*
X0130600Y0020152D01*
X0124696Y0016561D02*
X0035784Y0016561D01*
X0035784Y0017160D02*
X0123335Y0017160D01*
X0122736Y0017758D02*
X0035496Y0017758D01*
X0034387Y0023743D02*
X0122238Y0023743D01*
X0122837Y0024342D02*
X0035161Y0024342D01*
X0035033Y0024213D02*
X0035033Y0024213D01*
X0035338Y0024940D02*
X0123493Y0024940D01*
X0124938Y0025539D02*
X0035188Y0025539D01*
X0032445Y0023743D02*
X0031744Y0023743D01*
X0031303Y0028500D02*
X0031303Y0028500D01*
X0030977Y0033500D02*
X0031847Y0033500D01*
X0032127Y0033780D01*
X0032407Y0033500D01*
X0034263Y0033500D01*
X0035049Y0033954D01*
X0035503Y0034740D01*
X0035503Y0037260D01*
X0035049Y0038046D01*
X0035049Y0038046D01*
X0035049Y0038046D01*
X0034263Y0038500D01*
X0034243Y0038500D01*
X0032407Y0038500D01*
X0031792Y0037885D01*
X0031792Y0037533D01*
X0029971Y0037533D01*
X0029506Y0037068D01*
X0029475Y0037122D01*
X0028820Y0037500D01*
X0028788Y0037533D01*
X0028597Y0037533D01*
X0028597Y0037885D01*
X0027982Y0038500D01*
X0027112Y0038500D01*
X0026497Y0037885D01*
X0026497Y0034115D01*
X0027112Y0033500D01*
X0028788Y0033500D01*
X0028820Y0033533D01*
X0029350Y0033838D01*
X0029688Y0033500D01*
X0030558Y0033500D01*
X0030767Y0033710D01*
X0030977Y0033500D01*
X0026694Y0033918D02*
X0022765Y0033918D01*
X0022678Y0033746D02*
X0022985Y0034349D01*
X0023194Y0034993D01*
X0023300Y0035662D01*
X0023300Y0035700D01*
X0016300Y0035700D01*
X0016300Y0036300D01*
X0015700Y0036300D01*
X0015700Y0040300D01*
X0012662Y0040300D01*
X0011993Y0040194D01*
X0011349Y0039985D01*
X0010746Y0039678D01*
X0010199Y0039280D01*
X0009720Y0038801D01*
X0009322Y0038254D01*
X0009015Y0037651D01*
X0008806Y0037007D01*
X0008700Y0036338D01*
X0008700Y0036300D01*
X0015700Y0036300D01*
X0015700Y0035700D01*
X0016300Y0035700D01*
X0016300Y0031700D01*
X0019338Y0031700D01*
X0020007Y0031806D01*
X0020651Y0032015D01*
X0021254Y0032322D01*
X0021801Y0032720D01*
X0022280Y0033199D01*
X0022678Y0033746D01*
X0022368Y0033320D02*
X0121982Y0033320D01*
X0121734Y0032721D02*
X0021802Y0032721D01*
X0020862Y0032123D02*
X0121486Y0032123D01*
X0121400Y0031524D02*
X0006000Y0031524D01*
X0006000Y0030926D02*
X0121400Y0030926D01*
X0121400Y0030327D02*
X0006000Y0030327D01*
X0006000Y0029729D02*
X0011810Y0029729D01*
X0010615Y0029130D02*
X0006000Y0029130D01*
X0006000Y0028532D02*
X0010016Y0028532D01*
X0009579Y0027933D02*
X0006000Y0027933D01*
X0006000Y0027334D02*
X0009331Y0027334D01*
X0009100Y0026736D02*
X0006000Y0026736D01*
X0006000Y0026137D02*
X0009100Y0026137D01*
X0009100Y0025539D02*
X0006000Y0025539D01*
X0006000Y0024940D02*
X0009218Y0024940D01*
X0009465Y0024342D02*
X0006000Y0024342D01*
X0006000Y0023743D02*
X0009741Y0023743D01*
X0010340Y0023145D02*
X0006000Y0023145D01*
X0006000Y0022546D02*
X0011147Y0022546D01*
X0006000Y0021948D02*
X0121414Y0021948D01*
X0121400Y0021349D02*
X0006000Y0021349D01*
X0006000Y0020751D02*
X0121400Y0020751D01*
X0130416Y0012970D02*
X0275401Y0012970D01*
X0275401Y0012372D02*
X0130501Y0012372D01*
X0130501Y0011773D02*
X0275401Y0011773D01*
X0275401Y0011175D02*
X0130501Y0011175D01*
X0130501Y0010576D02*
X0275401Y0010576D01*
X0275401Y0009978D02*
X0130501Y0009978D01*
X0130501Y0009379D02*
X0275401Y0009379D01*
X0275401Y0008781D02*
X0130166Y0008781D01*
X0128735Y0008781D02*
X0128629Y0008781D01*
X0127031Y0008781D02*
X0126958Y0008781D01*
X0126678Y0008500D02*
X0126678Y0008500D01*
X0125608Y0008500D02*
X0125608Y0008500D01*
X0121796Y0029130D02*
X0021385Y0029130D01*
X0020190Y0029729D02*
X0121548Y0029729D01*
X0122413Y0033918D02*
X0034987Y0033918D01*
X0035049Y0033954D02*
X0035049Y0033954D01*
X0035049Y0033954D01*
X0035374Y0034517D02*
X0123011Y0034517D01*
X0123914Y0035115D02*
X0035503Y0035115D01*
X0035503Y0036911D02*
X0123852Y0036911D01*
X0122985Y0037509D02*
X0035359Y0037509D01*
X0034942Y0038108D02*
X0122387Y0038108D01*
X0121971Y0038706D02*
X0022349Y0038706D01*
X0022280Y0038801D02*
X0021801Y0039280D01*
X0021254Y0039678D01*
X0020651Y0039985D01*
X0020007Y0040194D01*
X0019338Y0040300D01*
X0016300Y0040300D01*
X0016300Y0036300D01*
X0023300Y0036300D01*
X0023300Y0036338D01*
X0023194Y0037007D01*
X0022985Y0037651D01*
X0022678Y0038254D01*
X0022280Y0038801D01*
X0021767Y0039305D02*
X0121723Y0039305D01*
X0121475Y0039903D02*
X0020811Y0039903D01*
X0022752Y0038108D02*
X0026720Y0038108D01*
X0026497Y0037509D02*
X0023031Y0037509D01*
X0023209Y0036911D02*
X0026497Y0036911D01*
X0026497Y0036312D02*
X0023300Y0036312D01*
X0023213Y0035115D02*
X0026497Y0035115D01*
X0026497Y0034517D02*
X0023039Y0034517D01*
X0026497Y0035714D02*
X0016300Y0035714D01*
X0016300Y0036312D02*
X0015700Y0036312D01*
X0015700Y0035714D02*
X0006000Y0035714D01*
X0006000Y0036312D02*
X0008700Y0036312D01*
X0008791Y0036911D02*
X0006000Y0036911D01*
X0006000Y0037509D02*
X0008969Y0037509D01*
X0009248Y0038108D02*
X0006000Y0038108D01*
X0006000Y0038706D02*
X0009651Y0038706D01*
X0010233Y0039305D02*
X0006000Y0039305D01*
X0006000Y0039903D02*
X0011189Y0039903D01*
X0006000Y0040502D02*
X0121400Y0040502D01*
X0121400Y0041100D02*
X0006000Y0041100D01*
X0008700Y0035700D02*
X0008700Y0035662D01*
X0008806Y0034993D01*
X0009015Y0034349D01*
X0009322Y0033746D01*
X0009720Y0033199D01*
X0010199Y0032720D01*
X0010746Y0032322D01*
X0011349Y0032015D01*
X0011993Y0031806D01*
X0012662Y0031700D01*
X0015700Y0031700D01*
X0015700Y0035700D01*
X0008700Y0035700D01*
X0008787Y0035115D02*
X0006000Y0035115D01*
X0006000Y0034517D02*
X0008961Y0034517D01*
X0009235Y0033918D02*
X0006000Y0033918D01*
X0006000Y0033320D02*
X0009632Y0033320D01*
X0010198Y0032721D02*
X0006000Y0032721D01*
X0006000Y0032123D02*
X0011138Y0032123D01*
X0015700Y0032123D02*
X0016300Y0032123D01*
X0016300Y0032721D02*
X0015700Y0032721D01*
X0015700Y0033320D02*
X0016300Y0033320D01*
X0016300Y0033918D02*
X0015700Y0033918D01*
X0015700Y0034517D02*
X0016300Y0034517D01*
X0016300Y0035115D02*
X0015700Y0035115D01*
X0015700Y0036911D02*
X0016300Y0036911D01*
X0016300Y0037509D02*
X0015700Y0037509D01*
X0015700Y0038108D02*
X0016300Y0038108D01*
X0016300Y0038706D02*
X0015700Y0038706D01*
X0015700Y0039305D02*
X0016300Y0039305D01*
X0016300Y0039903D02*
X0015700Y0039903D01*
X0028374Y0038108D02*
X0032015Y0038108D01*
X0029947Y0037509D02*
X0028812Y0037509D01*
X0029475Y0037122D02*
X0029475Y0037122D01*
X0034243Y0038500D02*
X0034243Y0038500D01*
X0081000Y0071000D02*
X0081100Y0071200D01*
X0115000Y0105100D01*
X0135100Y0105100D01*
X0141000Y0111000D01*
X0144700Y0109600D02*
X0144700Y0113800D01*
X0141100Y0117400D01*
X0141100Y0130900D01*
X0141000Y0131000D01*
X0142600Y0134500D02*
X0144700Y0132400D01*
X0144700Y0115600D01*
X0145900Y0114400D01*
X0145900Y0109000D01*
X0144700Y0107800D01*
X0144700Y0058900D01*
X0127000Y0041200D01*
X0126100Y0041200D01*
X0126000Y0041000D01*
X0132787Y0045290D02*
X0238635Y0045290D01*
X0237996Y0045888D02*
X0133385Y0045888D01*
X0145356Y0057859D02*
X0275401Y0057859D01*
X0275401Y0058457D02*
X0145900Y0058457D01*
X0145900Y0059056D02*
X0275401Y0059056D01*
X0275401Y0059654D02*
X0145900Y0059654D01*
X0145900Y0060253D02*
X0275401Y0060253D01*
X0275401Y0060851D02*
X0145900Y0060851D01*
X0146000Y0061450D02*
X0275401Y0061450D01*
X0275401Y0062048D02*
X0146000Y0062048D01*
X0146000Y0062647D02*
X0275401Y0062647D01*
X0275401Y0063245D02*
X0146000Y0063245D01*
X0146000Y0063844D02*
X0275401Y0063844D01*
X0275401Y0064442D02*
X0146000Y0064442D01*
X0146000Y0065041D02*
X0275401Y0065041D01*
X0275401Y0065639D02*
X0146000Y0065639D01*
X0146000Y0066238D02*
X0275401Y0066238D01*
X0275401Y0066836D02*
X0146000Y0066836D01*
X0146000Y0067435D02*
X0275401Y0067435D01*
X0275401Y0068033D02*
X0146000Y0068033D01*
X0146000Y0068632D02*
X0275401Y0068632D01*
X0275401Y0069230D02*
X0146000Y0069230D01*
X0146000Y0069829D02*
X0275401Y0069829D01*
X0275401Y0070427D02*
X0146000Y0070427D01*
X0146000Y0071026D02*
X0275401Y0071026D01*
X0275401Y0071624D02*
X0146000Y0071624D01*
X0146000Y0072223D02*
X0275401Y0072223D01*
X0275401Y0072821D02*
X0265080Y0072821D01*
X0264792Y0072533D02*
X0265407Y0073148D01*
X0265407Y0076918D01*
X0264792Y0077533D01*
X0262916Y0077533D01*
X0262815Y0077432D01*
X0262815Y0077885D01*
X0262200Y0078500D01*
X0261330Y0078500D01*
X0260715Y0077885D01*
X0260715Y0077533D01*
X0260524Y0077533D01*
X0260492Y0077500D01*
X0260304Y0077392D01*
X0260304Y0077885D01*
X0259689Y0078500D01*
X0257737Y0078500D01*
X0256846Y0077853D01*
X0256506Y0076806D01*
X0256737Y0076093D01*
X0256498Y0075356D01*
X0256498Y0075356D01*
X0256870Y0074209D01*
X0256870Y0074209D01*
X0257846Y0073500D01*
X0259689Y0073500D01*
X0260004Y0073815D01*
X0260492Y0073533D01*
X0260524Y0073500D01*
X0262200Y0073500D01*
X0262544Y0073844D01*
X0263084Y0073533D01*
X0263116Y0073500D01*
X0263307Y0073500D01*
X0263307Y0073148D01*
X0263922Y0072533D01*
X0264792Y0072533D01*
X0265407Y0073420D02*
X0275401Y0073420D01*
X0275401Y0074018D02*
X0275086Y0074018D01*
X0275301Y0077609D02*
X0275401Y0077609D01*
X0275401Y0078208D02*
X0274768Y0078208D01*
X0275401Y0078806D02*
X0146000Y0078806D01*
X0146000Y0078208D02*
X0241447Y0078208D01*
X0241497Y0078309D02*
X0241109Y0077533D01*
X0239598Y0077533D01*
X0239336Y0077271D01*
X0238937Y0077500D01*
X0238905Y0077533D01*
X0237390Y0077533D01*
X0236775Y0076918D01*
X0236775Y0076048D01*
X0237307Y0075517D01*
X0236775Y0074985D01*
X0236775Y0074115D01*
X0237390Y0073500D01*
X0238905Y0073500D01*
X0238937Y0073533D01*
X0239336Y0073763D01*
X0239598Y0073500D01*
X0241113Y0073500D01*
X0241145Y0073533D01*
X0241800Y0073911D01*
X0242097Y0074425D01*
X0242236Y0074147D01*
X0242350Y0073805D01*
X0242426Y0073767D01*
X0242463Y0073691D01*
X0242805Y0073577D01*
X0243128Y0073416D01*
X0243208Y0073443D01*
X0243289Y0073416D01*
X0243611Y0073577D01*
X0243953Y0073691D01*
X0243991Y0073767D01*
X0244067Y0073805D01*
X0244181Y0074147D01*
X0244342Y0074469D01*
X0244315Y0074550D01*
X0245308Y0077531D01*
X0244919Y0078309D01*
X0244094Y0078584D01*
X0243316Y0078195D01*
X0243208Y0077870D01*
X0243100Y0078195D01*
X0242322Y0078584D01*
X0241497Y0078309D01*
X0241147Y0077609D02*
X0146000Y0077609D01*
X0146000Y0077011D02*
X0236868Y0077011D01*
X0236775Y0076412D02*
X0146000Y0076412D01*
X0146000Y0075814D02*
X0237010Y0075814D01*
X0237006Y0075215D02*
X0146000Y0075215D01*
X0146000Y0074617D02*
X0236775Y0074617D01*
X0236872Y0074018D02*
X0146000Y0074018D01*
X0146000Y0073420D02*
X0243121Y0073420D01*
X0243138Y0073420D02*
X0243278Y0073420D01*
X0243296Y0073420D02*
X0253307Y0073420D01*
X0253307Y0073500D02*
X0253307Y0073148D01*
X0253922Y0072533D01*
X0254792Y0072533D01*
X0255407Y0073148D01*
X0255407Y0076918D01*
X0254792Y0077533D01*
X0252916Y0077533D01*
X0252815Y0077432D01*
X0252815Y0077885D01*
X0252200Y0078500D01*
X0251330Y0078500D01*
X0250715Y0077885D01*
X0250715Y0077533D01*
X0250524Y0077533D01*
X0250492Y0077500D01*
X0249837Y0077122D01*
X0249809Y0077074D01*
X0249500Y0078157D01*
X0248739Y0078579D01*
X0247903Y0078340D01*
X0247481Y0077580D01*
X0247681Y0076878D01*
X0247076Y0076274D01*
X0247076Y0076113D01*
X0246593Y0075629D01*
X0246593Y0074760D01*
X0247076Y0074276D01*
X0247076Y0074115D01*
X0247691Y0073500D01*
X0248561Y0073500D01*
X0249128Y0074066D01*
X0249401Y0074144D01*
X0249689Y0074144D01*
X0249697Y0074153D01*
X0249837Y0073911D01*
X0250492Y0073533D01*
X0250524Y0073500D01*
X0252200Y0073500D01*
X0252544Y0073844D01*
X0253084Y0073533D01*
X0253116Y0073500D01*
X0253307Y0073500D01*
X0253634Y0072821D02*
X0146000Y0072821D01*
X0146000Y0079405D02*
X0239488Y0079405D01*
X0238791Y0079694D02*
X0240224Y0079100D01*
X0241776Y0079100D01*
X0243209Y0079694D01*
X0244306Y0080791D01*
X0244900Y0082224D01*
X0244900Y0089776D01*
X0244306Y0091209D01*
X0243209Y0092306D01*
X0241776Y0092900D01*
X0241487Y0092900D01*
X0239600Y0094787D01*
X0239600Y0102513D01*
X0241187Y0104100D01*
X0241776Y0104100D01*
X0243209Y0104694D01*
X0244306Y0105791D01*
X0244900Y0107224D01*
X0244900Y0114776D01*
X0244306Y0116209D01*
X0243209Y0117306D01*
X0241776Y0117900D01*
X0240224Y0117900D01*
X0238791Y0117306D01*
X0237694Y0116209D01*
X0237100Y0114776D01*
X0237100Y0107224D01*
X0237638Y0105925D01*
X0236913Y0105200D01*
X0235800Y0104087D01*
X0235800Y0093213D01*
X0236913Y0092100D01*
X0237749Y0091264D01*
X0237694Y0091209D01*
X0237100Y0089776D01*
X0237100Y0082224D01*
X0237694Y0080791D01*
X0238791Y0079694D01*
X0238481Y0080003D02*
X0146000Y0080003D01*
X0146000Y0080602D02*
X0237883Y0080602D01*
X0237524Y0081201D02*
X0146000Y0081201D01*
X0146000Y0081799D02*
X0237276Y0081799D01*
X0237100Y0082398D02*
X0146000Y0082398D01*
X0146000Y0082996D02*
X0237100Y0082996D01*
X0237100Y0083595D02*
X0146000Y0083595D01*
X0146000Y0084193D02*
X0237100Y0084193D01*
X0237100Y0084792D02*
X0146000Y0084792D01*
X0146000Y0085390D02*
X0237100Y0085390D01*
X0237100Y0085989D02*
X0146000Y0085989D01*
X0146000Y0086587D02*
X0237100Y0086587D01*
X0237100Y0087186D02*
X0146000Y0087186D01*
X0146000Y0087784D02*
X0237100Y0087784D01*
X0237100Y0088383D02*
X0146000Y0088383D01*
X0146000Y0088981D02*
X0237100Y0088981D01*
X0237100Y0089580D02*
X0146000Y0089580D01*
X0146000Y0090178D02*
X0237267Y0090178D01*
X0237515Y0090777D02*
X0146000Y0090777D01*
X0146000Y0091375D02*
X0237638Y0091375D01*
X0237039Y0091974D02*
X0146000Y0091974D01*
X0146000Y0092572D02*
X0166510Y0092572D01*
X0166553Y0092544D02*
X0167262Y0092250D01*
X0168016Y0092100D01*
X0170700Y0092100D01*
X0170700Y0095700D01*
X0171300Y0095700D01*
X0171300Y0096300D01*
X0170700Y0096300D01*
X0170700Y0099900D01*
X0168016Y0099900D01*
X0167262Y0099750D01*
X0166553Y0099456D01*
X0165914Y0099029D01*
X0165371Y0098486D01*
X0164944Y0097847D01*
X0164650Y0097138D01*
X0164500Y0096384D01*
X0164500Y0096300D01*
X0170700Y0096300D01*
X0170700Y0095700D01*
X0164500Y0095700D01*
X0164500Y0095616D01*
X0164650Y0094862D01*
X0164944Y0094153D01*
X0165371Y0093514D01*
X0165914Y0092971D01*
X0166553Y0092544D01*
X0165714Y0093171D02*
X0146000Y0093171D01*
X0146000Y0093769D02*
X0165200Y0093769D01*
X0164855Y0094368D02*
X0146000Y0094368D01*
X0146000Y0094966D02*
X0164629Y0094966D01*
X0164510Y0095565D02*
X0146000Y0095565D01*
X0146000Y0096163D02*
X0170700Y0096163D01*
X0170700Y0095565D02*
X0171300Y0095565D01*
X0171300Y0095700D02*
X0171300Y0092100D01*
X0173984Y0092100D01*
X0174738Y0092250D01*
X0175447Y0092544D01*
X0176086Y0092971D01*
X0176629Y0093514D01*
X0177056Y0094153D01*
X0177350Y0094862D01*
X0177500Y0095616D01*
X0177500Y0095700D01*
X0171300Y0095700D01*
X0171300Y0096163D02*
X0194900Y0096163D01*
X0194900Y0096696D02*
X0194900Y0095304D01*
X0195433Y0094017D01*
X0196417Y0093033D01*
X0197704Y0092500D01*
X0204296Y0092500D01*
X0205583Y0093033D01*
X0206567Y0094017D01*
X0207100Y0095304D01*
X0207100Y0096696D01*
X0207069Y0096772D01*
X0228897Y0118600D01*
X0262103Y0118600D01*
X0264700Y0116003D01*
X0264700Y0115403D01*
X0265403Y0114700D01*
X0267100Y0113003D01*
X0267100Y0107224D01*
X0267694Y0105791D01*
X0268791Y0104694D01*
X0270224Y0104100D01*
X0271776Y0104100D01*
X0273209Y0104694D01*
X0274306Y0105791D01*
X0274900Y0107224D01*
X0274900Y0114776D01*
X0274306Y0116209D01*
X0273209Y0117306D01*
X0271776Y0117900D01*
X0270224Y0117900D01*
X0268791Y0117306D01*
X0267694Y0116209D01*
X0267575Y0115922D01*
X0267100Y0116397D01*
X0267100Y0116997D01*
X0263800Y0120297D01*
X0263097Y0121000D01*
X0227903Y0121000D01*
X0205726Y0098823D01*
X0205583Y0098967D01*
X0204296Y0099500D01*
X0197704Y0099500D01*
X0196417Y0098967D01*
X0195433Y0097983D01*
X0194900Y0096696D01*
X0194927Y0096762D02*
X0177425Y0096762D01*
X0177350Y0097138D02*
X0177056Y0097847D01*
X0176629Y0098486D01*
X0176086Y0099029D01*
X0175447Y0099456D01*
X0174738Y0099750D01*
X0173984Y0099900D01*
X0171300Y0099900D01*
X0171300Y0096300D01*
X0177500Y0096300D01*
X0177500Y0096384D01*
X0177350Y0097138D01*
X0177258Y0097360D02*
X0195175Y0097360D01*
X0195423Y0097959D02*
X0176982Y0097959D01*
X0176558Y0098557D02*
X0196008Y0098557D01*
X0196873Y0099156D02*
X0175897Y0099156D01*
X0174716Y0099754D02*
X0206657Y0099754D01*
X0206059Y0099156D02*
X0205127Y0099156D01*
X0207256Y0100353D02*
X0146000Y0100353D01*
X0146000Y0100951D02*
X0207854Y0100951D01*
X0208453Y0101550D02*
X0146000Y0101550D01*
X0146000Y0102148D02*
X0209051Y0102148D01*
X0209650Y0102747D02*
X0204892Y0102747D01*
X0204296Y0102500D02*
X0205583Y0103033D01*
X0206567Y0104017D01*
X0207100Y0105304D01*
X0207100Y0106696D01*
X0206567Y0107983D01*
X0205583Y0108967D01*
X0204296Y0109500D01*
X0197704Y0109500D01*
X0196417Y0108967D01*
X0195433Y0107983D01*
X0194900Y0106696D01*
X0194900Y0105304D01*
X0195433Y0104017D01*
X0196417Y0103033D01*
X0197704Y0102500D01*
X0204296Y0102500D01*
X0205895Y0103345D02*
X0210248Y0103345D01*
X0210847Y0103944D02*
X0206494Y0103944D01*
X0206785Y0104542D02*
X0211445Y0104542D01*
X0212044Y0105141D02*
X0207033Y0105141D01*
X0207100Y0105739D02*
X0212642Y0105739D01*
X0213241Y0106338D02*
X0207100Y0106338D01*
X0207000Y0106937D02*
X0213839Y0106937D01*
X0214438Y0107535D02*
X0206753Y0107535D01*
X0206416Y0108134D02*
X0215036Y0108134D01*
X0215635Y0108732D02*
X0205818Y0108732D01*
X0204705Y0109331D02*
X0216234Y0109331D01*
X0216832Y0109929D02*
X0147100Y0109929D01*
X0147100Y0109331D02*
X0167295Y0109331D01*
X0167704Y0109500D02*
X0166417Y0108967D01*
X0165433Y0107983D01*
X0164900Y0106696D01*
X0164900Y0105304D01*
X0165433Y0104017D01*
X0166417Y0103033D01*
X0167704Y0102500D01*
X0174296Y0102500D01*
X0175583Y0103033D01*
X0176567Y0104017D01*
X0177100Y0105304D01*
X0177100Y0106696D01*
X0176567Y0107983D01*
X0175583Y0108967D01*
X0174296Y0109500D01*
X0167704Y0109500D01*
X0166182Y0108732D02*
X0147100Y0108732D01*
X0146731Y0108134D02*
X0165584Y0108134D01*
X0165247Y0107535D02*
X0146132Y0107535D01*
X0146000Y0106937D02*
X0165000Y0106937D01*
X0164900Y0106338D02*
X0146000Y0106338D01*
X0146000Y0105739D02*
X0164900Y0105739D01*
X0164967Y0105141D02*
X0146000Y0105141D01*
X0146000Y0104542D02*
X0165215Y0104542D01*
X0165506Y0103944D02*
X0146000Y0103944D01*
X0146000Y0103345D02*
X0166105Y0103345D01*
X0167108Y0102747D02*
X0146000Y0102747D01*
X0146000Y0099754D02*
X0167284Y0099754D01*
X0166103Y0099156D02*
X0146000Y0099156D01*
X0146000Y0098557D02*
X0165442Y0098557D01*
X0165018Y0097959D02*
X0146000Y0097959D01*
X0146000Y0097360D02*
X0164742Y0097360D01*
X0164575Y0096762D02*
X0146000Y0096762D01*
X0139000Y0103900D02*
X0144700Y0109600D01*
X0147100Y0110528D02*
X0217431Y0110528D01*
X0218029Y0111126D02*
X0147100Y0111126D01*
X0147100Y0111725D02*
X0218628Y0111725D01*
X0219226Y0112323D02*
X0147100Y0112323D01*
X0147100Y0112922D02*
X0166686Y0112922D01*
X0166417Y0113033D02*
X0167704Y0112500D01*
X0174296Y0112500D01*
X0175583Y0113033D01*
X0176567Y0114017D01*
X0177100Y0115304D01*
X0177100Y0116696D01*
X0176567Y0117983D01*
X0175583Y0118967D01*
X0174296Y0119500D01*
X0167704Y0119500D01*
X0166417Y0118967D01*
X0165433Y0117983D01*
X0164900Y0116696D01*
X0164900Y0115304D01*
X0165433Y0114017D01*
X0166417Y0113033D01*
X0165930Y0113520D02*
X0147100Y0113520D01*
X0147100Y0114119D02*
X0165391Y0114119D01*
X0165143Y0114717D02*
X0147100Y0114717D01*
X0146681Y0115316D02*
X0164900Y0115316D01*
X0164900Y0115914D02*
X0146083Y0115914D01*
X0146000Y0116513D02*
X0164900Y0116513D01*
X0165072Y0117111D02*
X0146000Y0117111D01*
X0146000Y0117710D02*
X0165320Y0117710D01*
X0165758Y0118308D02*
X0146000Y0118308D01*
X0146000Y0118907D02*
X0166357Y0118907D01*
X0167704Y0122500D02*
X0166417Y0123033D01*
X0165433Y0124017D01*
X0164900Y0125304D01*
X0164900Y0126696D01*
X0165433Y0127983D01*
X0166417Y0128967D01*
X0167704Y0129500D01*
X0174296Y0129500D01*
X0175583Y0128967D01*
X0176567Y0127983D01*
X0177100Y0126696D01*
X0177100Y0125304D01*
X0176567Y0124017D01*
X0175583Y0123033D01*
X0174296Y0122500D01*
X0167704Y0122500D01*
X0166354Y0123096D02*
X0146000Y0123096D01*
X0146000Y0122498D02*
X0209301Y0122498D01*
X0209899Y0123096D02*
X0205646Y0123096D01*
X0205583Y0123033D02*
X0206567Y0124017D01*
X0207100Y0125304D01*
X0207100Y0126696D01*
X0206567Y0127983D01*
X0205583Y0128967D01*
X0204296Y0129500D01*
X0197704Y0129500D01*
X0196417Y0128967D01*
X0195433Y0127983D01*
X0194900Y0126696D01*
X0194900Y0125304D01*
X0195433Y0124017D01*
X0196417Y0123033D01*
X0197704Y0122500D01*
X0204296Y0122500D01*
X0205583Y0123033D01*
X0206245Y0123695D02*
X0210498Y0123695D01*
X0211096Y0124293D02*
X0206681Y0124293D01*
X0206929Y0124892D02*
X0211695Y0124892D01*
X0212293Y0125490D02*
X0207100Y0125490D01*
X0207100Y0126089D02*
X0212892Y0126089D01*
X0213490Y0126687D02*
X0207100Y0126687D01*
X0206856Y0127286D02*
X0214089Y0127286D01*
X0214687Y0127884D02*
X0206608Y0127884D01*
X0206067Y0128483D02*
X0215286Y0128483D01*
X0215884Y0129081D02*
X0205307Y0129081D01*
X0196693Y0129081D02*
X0175307Y0129081D01*
X0176067Y0128483D02*
X0195933Y0128483D01*
X0195392Y0127884D02*
X0176608Y0127884D01*
X0176856Y0127286D02*
X0195144Y0127286D01*
X0194900Y0126687D02*
X0177100Y0126687D01*
X0177100Y0126089D02*
X0194900Y0126089D01*
X0194900Y0125490D02*
X0177100Y0125490D01*
X0176929Y0124892D02*
X0195071Y0124892D01*
X0195319Y0124293D02*
X0176681Y0124293D01*
X0176245Y0123695D02*
X0195755Y0123695D01*
X0196354Y0123096D02*
X0175646Y0123096D01*
X0175643Y0118907D02*
X0196357Y0118907D01*
X0196417Y0118967D02*
X0195433Y0117983D01*
X0194900Y0116696D01*
X0194900Y0115304D01*
X0195433Y0114017D01*
X0196417Y0113033D01*
X0197704Y0112500D01*
X0204296Y0112500D01*
X0205583Y0113033D01*
X0206567Y0114017D01*
X0207100Y0115304D01*
X0207100Y0116696D01*
X0207039Y0116842D01*
X0233697Y0143500D01*
X0254003Y0143500D01*
X0257284Y0140219D01*
X0257100Y0139776D01*
X0257100Y0132224D01*
X0257694Y0130791D01*
X0258791Y0129694D01*
X0260224Y0129100D01*
X0261776Y0129100D01*
X0263209Y0129694D01*
X0264306Y0130791D01*
X0264900Y0132224D01*
X0264900Y0139776D01*
X0264306Y0141209D01*
X0263209Y0142306D01*
X0261776Y0142900D01*
X0260224Y0142900D01*
X0258791Y0142306D01*
X0258691Y0142206D01*
X0255700Y0145197D01*
X0254997Y0145900D01*
X0232703Y0145900D01*
X0205676Y0118873D01*
X0205583Y0118967D01*
X0204296Y0119500D01*
X0197704Y0119500D01*
X0196417Y0118967D01*
X0195758Y0118308D02*
X0176242Y0118308D01*
X0176680Y0117710D02*
X0195320Y0117710D01*
X0195072Y0117111D02*
X0176928Y0117111D01*
X0177100Y0116513D02*
X0194900Y0116513D01*
X0194900Y0115914D02*
X0177100Y0115914D01*
X0177100Y0115316D02*
X0194900Y0115316D01*
X0195143Y0114717D02*
X0176857Y0114717D01*
X0176609Y0114119D02*
X0195391Y0114119D01*
X0195930Y0113520D02*
X0176070Y0113520D01*
X0175314Y0112922D02*
X0196686Y0112922D01*
X0197295Y0109331D02*
X0174705Y0109331D01*
X0175818Y0108732D02*
X0196182Y0108732D01*
X0195584Y0108134D02*
X0176416Y0108134D01*
X0176753Y0107535D02*
X0195247Y0107535D01*
X0195000Y0106937D02*
X0177000Y0106937D01*
X0177100Y0106338D02*
X0194900Y0106338D01*
X0194900Y0105739D02*
X0177100Y0105739D01*
X0177033Y0105141D02*
X0194967Y0105141D01*
X0195215Y0104542D02*
X0176785Y0104542D01*
X0176494Y0103944D02*
X0195506Y0103944D01*
X0196105Y0103345D02*
X0175895Y0103345D01*
X0174892Y0102747D02*
X0197108Y0102747D01*
X0194900Y0095565D02*
X0177490Y0095565D01*
X0177371Y0094966D02*
X0195040Y0094966D01*
X0195288Y0094368D02*
X0177145Y0094368D01*
X0176800Y0093769D02*
X0195681Y0093769D01*
X0196280Y0093171D02*
X0176286Y0093171D01*
X0175490Y0092572D02*
X0197529Y0092572D01*
X0201000Y0096000D02*
X0201100Y0096100D01*
X0204700Y0096100D01*
X0228400Y0119800D01*
X0262600Y0119800D01*
X0265900Y0116500D01*
X0265900Y0115900D01*
X0268000Y0113800D01*
X0268300Y0113800D01*
X0271000Y0111100D01*
X0271000Y0111000D01*
X0267100Y0111126D02*
X0264900Y0111126D01*
X0264900Y0110528D02*
X0267100Y0110528D01*
X0267100Y0109929D02*
X0264900Y0109929D01*
X0264900Y0109331D02*
X0267100Y0109331D01*
X0267100Y0108732D02*
X0264900Y0108732D01*
X0264900Y0108134D02*
X0267100Y0108134D01*
X0267100Y0107535D02*
X0264900Y0107535D01*
X0264900Y0107224D02*
X0264900Y0114776D01*
X0264306Y0116209D01*
X0263209Y0117306D01*
X0261776Y0117900D01*
X0260224Y0117900D01*
X0258791Y0117306D01*
X0257694Y0116209D01*
X0257100Y0114776D01*
X0257100Y0107224D01*
X0257694Y0105791D01*
X0258791Y0104694D01*
X0260224Y0104100D01*
X0261776Y0104100D01*
X0263209Y0104694D01*
X0264306Y0105791D01*
X0264900Y0107224D01*
X0264781Y0106937D02*
X0267219Y0106937D01*
X0267467Y0106338D02*
X0264533Y0106338D01*
X0264255Y0105739D02*
X0267745Y0105739D01*
X0268344Y0105141D02*
X0263656Y0105141D01*
X0262844Y0104542D02*
X0269156Y0104542D01*
X0272844Y0104542D02*
X0275401Y0104542D01*
X0275401Y0103944D02*
X0252432Y0103944D01*
X0252651Y0104015D02*
X0253254Y0104322D01*
X0253801Y0104720D01*
X0254280Y0105199D01*
X0254678Y0105746D01*
X0254985Y0106349D01*
X0255194Y0106993D01*
X0255300Y0107662D01*
X0255300Y0110700D01*
X0251300Y0110700D01*
X0251300Y0111300D01*
X0255300Y0111300D01*
X0255300Y0114338D01*
X0255194Y0115007D01*
X0254985Y0115651D01*
X0254678Y0116254D01*
X0254280Y0116801D01*
X0253801Y0117280D01*
X0253254Y0117678D01*
X0252651Y0117985D01*
X0252007Y0118194D01*
X0251338Y0118300D01*
X0251300Y0118300D01*
X0251300Y0111300D01*
X0250700Y0111300D01*
X0250700Y0118300D01*
X0250662Y0118300D01*
X0249993Y0118194D01*
X0249349Y0117985D01*
X0248746Y0117678D01*
X0248199Y0117280D01*
X0247720Y0116801D01*
X0247322Y0116254D01*
X0247015Y0115651D01*
X0246806Y0115007D01*
X0246700Y0114338D01*
X0246700Y0111300D01*
X0250700Y0111300D01*
X0250700Y0110700D01*
X0251300Y0110700D01*
X0251300Y0103700D01*
X0251338Y0103700D01*
X0252007Y0103806D01*
X0252651Y0104015D01*
X0253557Y0104542D02*
X0259156Y0104542D01*
X0258344Y0105141D02*
X0254222Y0105141D01*
X0254673Y0105739D02*
X0257745Y0105739D01*
X0257467Y0106338D02*
X0254979Y0106338D01*
X0255176Y0106937D02*
X0257219Y0106937D01*
X0257100Y0107535D02*
X0255280Y0107535D01*
X0255300Y0108134D02*
X0257100Y0108134D01*
X0257100Y0108732D02*
X0255300Y0108732D01*
X0255300Y0109331D02*
X0257100Y0109331D01*
X0257100Y0109929D02*
X0255300Y0109929D01*
X0255300Y0110528D02*
X0257100Y0110528D01*
X0257100Y0111126D02*
X0251300Y0111126D01*
X0251300Y0110528D02*
X0250700Y0110528D01*
X0250700Y0110700D02*
X0250700Y0103700D01*
X0250662Y0103700D01*
X0249993Y0103806D01*
X0249349Y0104015D01*
X0248746Y0104322D01*
X0248199Y0104720D01*
X0247720Y0105199D01*
X0247322Y0105746D01*
X0247015Y0106349D01*
X0246806Y0106993D01*
X0246700Y0107662D01*
X0246700Y0110700D01*
X0250700Y0110700D01*
X0250700Y0111126D02*
X0244900Y0111126D01*
X0244900Y0110528D02*
X0246700Y0110528D01*
X0246700Y0109929D02*
X0244900Y0109929D01*
X0244900Y0109331D02*
X0246700Y0109331D01*
X0246700Y0108732D02*
X0244900Y0108732D01*
X0244900Y0108134D02*
X0246700Y0108134D01*
X0246720Y0107535D02*
X0244900Y0107535D01*
X0244781Y0106937D02*
X0246824Y0106937D01*
X0247021Y0106338D02*
X0244533Y0106338D01*
X0244255Y0105739D02*
X0247327Y0105739D01*
X0247778Y0105141D02*
X0243656Y0105141D01*
X0242844Y0104542D02*
X0248443Y0104542D01*
X0249568Y0103944D02*
X0241031Y0103944D01*
X0240432Y0103345D02*
X0275401Y0103345D01*
X0275401Y0102747D02*
X0239834Y0102747D01*
X0239600Y0102148D02*
X0275401Y0102148D01*
X0275401Y0101550D02*
X0239600Y0101550D01*
X0239600Y0100951D02*
X0275401Y0100951D01*
X0275401Y0100353D02*
X0239600Y0100353D01*
X0239600Y0099754D02*
X0275401Y0099754D01*
X0275401Y0099156D02*
X0239600Y0099156D01*
X0239600Y0098557D02*
X0275401Y0098557D01*
X0275401Y0097959D02*
X0239600Y0097959D01*
X0239600Y0097360D02*
X0252082Y0097360D01*
X0252610Y0097889D02*
X0251211Y0096490D01*
X0251211Y0094510D01*
X0252610Y0093111D01*
X0254292Y0093111D01*
X0257254Y0090149D01*
X0257100Y0089776D01*
X0257100Y0082224D01*
X0257694Y0080791D01*
X0258791Y0079694D01*
X0260224Y0079100D01*
X0261776Y0079100D01*
X0263209Y0079694D01*
X0264306Y0080791D01*
X0264900Y0082224D01*
X0264900Y0089776D01*
X0264306Y0091209D01*
X0263209Y0092306D01*
X0261776Y0092900D01*
X0260224Y0092900D01*
X0258791Y0092306D01*
X0258641Y0092156D01*
X0255989Y0094808D01*
X0255989Y0096490D01*
X0254590Y0097889D01*
X0252610Y0097889D01*
X0251483Y0096762D02*
X0239600Y0096762D01*
X0239600Y0096163D02*
X0251211Y0096163D01*
X0251211Y0095565D02*
X0239600Y0095565D01*
X0239600Y0094966D02*
X0251211Y0094966D01*
X0251354Y0094368D02*
X0240019Y0094368D01*
X0240618Y0093769D02*
X0251952Y0093769D01*
X0252551Y0093171D02*
X0241216Y0093171D01*
X0242567Y0092572D02*
X0249433Y0092572D01*
X0248791Y0092306D02*
X0247694Y0091209D01*
X0247100Y0089776D01*
X0247100Y0082224D01*
X0247694Y0080791D01*
X0248791Y0079694D01*
X0250224Y0079100D01*
X0251776Y0079100D01*
X0253209Y0079694D01*
X0254306Y0080791D01*
X0254900Y0082224D01*
X0254900Y0089776D01*
X0254306Y0091209D01*
X0253209Y0092306D01*
X0251776Y0092900D01*
X0250224Y0092900D01*
X0248791Y0092306D01*
X0248458Y0091974D02*
X0243542Y0091974D01*
X0244140Y0091375D02*
X0247860Y0091375D01*
X0247515Y0090777D02*
X0244485Y0090777D01*
X0244733Y0090178D02*
X0247267Y0090178D01*
X0247100Y0089580D02*
X0244900Y0089580D01*
X0244900Y0088981D02*
X0247100Y0088981D01*
X0247100Y0088383D02*
X0244900Y0088383D01*
X0244900Y0087784D02*
X0247100Y0087784D01*
X0247100Y0087186D02*
X0244900Y0087186D01*
X0244900Y0086587D02*
X0247100Y0086587D01*
X0247100Y0085989D02*
X0244900Y0085989D01*
X0244900Y0085390D02*
X0247100Y0085390D01*
X0247100Y0084792D02*
X0244900Y0084792D01*
X0244900Y0084193D02*
X0247100Y0084193D01*
X0247100Y0083595D02*
X0244900Y0083595D01*
X0244900Y0082996D02*
X0247100Y0082996D01*
X0247100Y0082398D02*
X0244900Y0082398D01*
X0244724Y0081799D02*
X0247276Y0081799D01*
X0247524Y0081201D02*
X0244476Y0081201D01*
X0244117Y0080602D02*
X0247883Y0080602D01*
X0248481Y0080003D02*
X0243519Y0080003D01*
X0242512Y0079405D02*
X0249488Y0079405D01*
X0249407Y0078208D02*
X0251038Y0078208D01*
X0250715Y0077609D02*
X0249656Y0077609D01*
X0249837Y0077122D02*
X0249837Y0077122D01*
X0249837Y0077122D01*
X0247643Y0077011D02*
X0245135Y0077011D01*
X0245269Y0077609D02*
X0247497Y0077609D01*
X0247830Y0078208D02*
X0244970Y0078208D01*
X0243343Y0078208D02*
X0243073Y0078208D01*
X0244936Y0076412D02*
X0247215Y0076412D01*
X0246778Y0075814D02*
X0244736Y0075814D01*
X0244537Y0075215D02*
X0246593Y0075215D01*
X0246736Y0074617D02*
X0244337Y0074617D01*
X0244138Y0074018D02*
X0247173Y0074018D01*
X0249080Y0074018D02*
X0249775Y0074018D01*
X0249837Y0073911D02*
X0249837Y0073911D01*
X0249837Y0073911D01*
X0252815Y0077609D02*
X0256767Y0077609D01*
X0256573Y0077011D02*
X0255314Y0077011D01*
X0255407Y0076412D02*
X0256634Y0076412D01*
X0256647Y0075814D02*
X0255407Y0075814D01*
X0255407Y0075215D02*
X0256543Y0075215D01*
X0256738Y0074617D02*
X0255407Y0074617D01*
X0255407Y0074018D02*
X0257132Y0074018D01*
X0255407Y0073420D02*
X0263307Y0073420D01*
X0263634Y0072821D02*
X0255080Y0072821D01*
X0260304Y0077609D02*
X0260715Y0077609D01*
X0261038Y0078208D02*
X0259981Y0078208D01*
X0259488Y0079405D02*
X0252512Y0079405D01*
X0253519Y0080003D02*
X0258481Y0080003D01*
X0257883Y0080602D02*
X0254117Y0080602D01*
X0254476Y0081201D02*
X0257524Y0081201D01*
X0257276Y0081799D02*
X0254724Y0081799D01*
X0254900Y0082398D02*
X0257100Y0082398D01*
X0257100Y0082996D02*
X0254900Y0082996D01*
X0254900Y0083595D02*
X0257100Y0083595D01*
X0257100Y0084193D02*
X0254900Y0084193D01*
X0254900Y0084792D02*
X0257100Y0084792D01*
X0257100Y0085390D02*
X0254900Y0085390D01*
X0254900Y0085989D02*
X0257100Y0085989D01*
X0257100Y0086587D02*
X0254900Y0086587D01*
X0254900Y0087186D02*
X0257100Y0087186D01*
X0257100Y0087784D02*
X0254900Y0087784D01*
X0254900Y0088383D02*
X0257100Y0088383D01*
X0257100Y0088981D02*
X0254900Y0088981D01*
X0254900Y0089580D02*
X0257100Y0089580D01*
X0257225Y0090178D02*
X0254733Y0090178D01*
X0254485Y0090777D02*
X0256626Y0090777D01*
X0256028Y0091375D02*
X0254140Y0091375D01*
X0253542Y0091974D02*
X0255429Y0091974D01*
X0254831Y0092572D02*
X0252567Y0092572D01*
X0253600Y0095500D02*
X0260800Y0088300D01*
X0260800Y0086200D01*
X0261000Y0086000D01*
X0264900Y0085989D02*
X0267100Y0085989D01*
X0267100Y0086587D02*
X0264900Y0086587D01*
X0264900Y0087186D02*
X0267100Y0087186D01*
X0267100Y0087784D02*
X0264900Y0087784D01*
X0264900Y0088383D02*
X0267100Y0088383D01*
X0267100Y0088981D02*
X0264900Y0088981D01*
X0264900Y0089580D02*
X0267100Y0089580D01*
X0267100Y0089776D02*
X0267694Y0091209D01*
X0268791Y0092306D01*
X0270224Y0092900D01*
X0271776Y0092900D01*
X0273209Y0092306D01*
X0274306Y0091209D01*
X0274900Y0089776D01*
X0274900Y0082224D01*
X0274306Y0080791D01*
X0273209Y0079694D01*
X0271776Y0079100D01*
X0270224Y0079100D01*
X0268791Y0079694D01*
X0267694Y0080791D01*
X0267100Y0082224D01*
X0267100Y0089776D01*
X0267267Y0090178D02*
X0264733Y0090178D01*
X0264485Y0090777D02*
X0267515Y0090777D01*
X0267860Y0091375D02*
X0264140Y0091375D01*
X0263542Y0091974D02*
X0268458Y0091974D01*
X0269433Y0092572D02*
X0262567Y0092572D01*
X0259433Y0092572D02*
X0258225Y0092572D01*
X0257626Y0093171D02*
X0275401Y0093171D01*
X0275401Y0093769D02*
X0257028Y0093769D01*
X0256429Y0094368D02*
X0275401Y0094368D01*
X0275401Y0094966D02*
X0255989Y0094966D01*
X0255989Y0095565D02*
X0275401Y0095565D01*
X0275401Y0096163D02*
X0255989Y0096163D01*
X0255717Y0096762D02*
X0275401Y0096762D01*
X0275401Y0097360D02*
X0255118Y0097360D01*
X0251300Y0103944D02*
X0250700Y0103944D01*
X0250700Y0104542D02*
X0251300Y0104542D01*
X0251300Y0105141D02*
X0250700Y0105141D01*
X0250700Y0105739D02*
X0251300Y0105739D01*
X0251300Y0106338D02*
X0250700Y0106338D01*
X0250700Y0106937D02*
X0251300Y0106937D01*
X0251300Y0107535D02*
X0250700Y0107535D01*
X0250700Y0108134D02*
X0251300Y0108134D01*
X0251300Y0108732D02*
X0250700Y0108732D01*
X0250700Y0109331D02*
X0251300Y0109331D01*
X0251300Y0109929D02*
X0250700Y0109929D01*
X0250700Y0111725D02*
X0251300Y0111725D01*
X0251300Y0112323D02*
X0250700Y0112323D01*
X0250700Y0112922D02*
X0251300Y0112922D01*
X0251300Y0113520D02*
X0250700Y0113520D01*
X0250700Y0114119D02*
X0251300Y0114119D01*
X0251300Y0114717D02*
X0250700Y0114717D01*
X0250700Y0115316D02*
X0251300Y0115316D01*
X0251300Y0115914D02*
X0250700Y0115914D01*
X0250700Y0116513D02*
X0251300Y0116513D01*
X0251300Y0117111D02*
X0250700Y0117111D01*
X0250700Y0117710D02*
X0251300Y0117710D01*
X0253191Y0117710D02*
X0259765Y0117710D01*
X0258596Y0117111D02*
X0253970Y0117111D01*
X0254490Y0116513D02*
X0257997Y0116513D01*
X0257572Y0115914D02*
X0254851Y0115914D01*
X0255094Y0115316D02*
X0257324Y0115316D01*
X0257100Y0114717D02*
X0255240Y0114717D01*
X0255300Y0114119D02*
X0257100Y0114119D01*
X0257100Y0113520D02*
X0255300Y0113520D01*
X0255300Y0112922D02*
X0257100Y0112922D01*
X0257100Y0112323D02*
X0255300Y0112323D01*
X0255300Y0111725D02*
X0257100Y0111725D01*
X0264900Y0111725D02*
X0267100Y0111725D01*
X0267100Y0112323D02*
X0264900Y0112323D01*
X0264900Y0112922D02*
X0267100Y0112922D01*
X0266583Y0113520D02*
X0264900Y0113520D01*
X0264900Y0114119D02*
X0265984Y0114119D01*
X0265386Y0114717D02*
X0264900Y0114717D01*
X0264787Y0115316D02*
X0264676Y0115316D01*
X0264700Y0115914D02*
X0264428Y0115914D01*
X0264190Y0116513D02*
X0264003Y0116513D01*
X0263592Y0117111D02*
X0263404Y0117111D01*
X0262993Y0117710D02*
X0262235Y0117710D01*
X0262395Y0118308D02*
X0228605Y0118308D01*
X0228007Y0117710D02*
X0239765Y0117710D01*
X0238596Y0117111D02*
X0227408Y0117111D01*
X0226810Y0116513D02*
X0237997Y0116513D01*
X0237572Y0115914D02*
X0226211Y0115914D01*
X0225613Y0115316D02*
X0237324Y0115316D01*
X0237100Y0114717D02*
X0225014Y0114717D01*
X0224416Y0114119D02*
X0237100Y0114119D01*
X0237100Y0113520D02*
X0223817Y0113520D01*
X0223219Y0112922D02*
X0237100Y0112922D01*
X0237100Y0112323D02*
X0222620Y0112323D01*
X0222022Y0111725D02*
X0237100Y0111725D01*
X0237100Y0111126D02*
X0221423Y0111126D01*
X0220825Y0110528D02*
X0237100Y0110528D01*
X0237100Y0109929D02*
X0220226Y0109929D01*
X0219628Y0109331D02*
X0237100Y0109331D01*
X0237100Y0108732D02*
X0219029Y0108732D01*
X0218431Y0108134D02*
X0237100Y0108134D01*
X0237100Y0107535D02*
X0217832Y0107535D01*
X0217234Y0106937D02*
X0237219Y0106937D01*
X0237467Y0106338D02*
X0216635Y0106338D01*
X0216037Y0105739D02*
X0237452Y0105739D01*
X0236913Y0105200D02*
X0236913Y0105200D01*
X0236854Y0105141D02*
X0215438Y0105141D01*
X0214839Y0104542D02*
X0236255Y0104542D01*
X0235800Y0103944D02*
X0214241Y0103944D01*
X0213642Y0103345D02*
X0235800Y0103345D01*
X0235800Y0102747D02*
X0213044Y0102747D01*
X0212445Y0102148D02*
X0235800Y0102148D01*
X0235800Y0101550D02*
X0211847Y0101550D01*
X0211248Y0100951D02*
X0235800Y0100951D01*
X0235800Y0100353D02*
X0210650Y0100353D01*
X0210051Y0099754D02*
X0235800Y0099754D01*
X0235800Y0099156D02*
X0209453Y0099156D01*
X0208854Y0098557D02*
X0235800Y0098557D01*
X0235800Y0097959D02*
X0208256Y0097959D01*
X0207657Y0097360D02*
X0235800Y0097360D01*
X0235800Y0096762D02*
X0207073Y0096762D01*
X0207100Y0096163D02*
X0235800Y0096163D01*
X0235800Y0095565D02*
X0207100Y0095565D01*
X0206960Y0094966D02*
X0235800Y0094966D01*
X0235800Y0094368D02*
X0206712Y0094368D01*
X0206319Y0093769D02*
X0235800Y0093769D01*
X0235842Y0093171D02*
X0205720Y0093171D01*
X0204471Y0092572D02*
X0236441Y0092572D01*
X0252492Y0078208D02*
X0257335Y0078208D01*
X0262492Y0078208D02*
X0266820Y0078208D01*
X0266497Y0077609D02*
X0262815Y0077609D01*
X0262512Y0079405D02*
X0269488Y0079405D01*
X0268481Y0080003D02*
X0263519Y0080003D01*
X0264117Y0080602D02*
X0267883Y0080602D01*
X0267524Y0081201D02*
X0264476Y0081201D01*
X0264724Y0081799D02*
X0267276Y0081799D01*
X0267100Y0082398D02*
X0264900Y0082398D01*
X0264900Y0082996D02*
X0267100Y0082996D01*
X0267100Y0083595D02*
X0264900Y0083595D01*
X0264900Y0084193D02*
X0267100Y0084193D01*
X0267100Y0084792D02*
X0264900Y0084792D01*
X0264900Y0085390D02*
X0267100Y0085390D01*
X0274900Y0085390D02*
X0275401Y0085390D01*
X0275401Y0084792D02*
X0274900Y0084792D01*
X0274900Y0084193D02*
X0275401Y0084193D01*
X0275401Y0083595D02*
X0274900Y0083595D01*
X0274900Y0082996D02*
X0275401Y0082996D01*
X0275401Y0082398D02*
X0274900Y0082398D01*
X0274724Y0081799D02*
X0275401Y0081799D01*
X0275401Y0081201D02*
X0274476Y0081201D01*
X0274117Y0080602D02*
X0275401Y0080602D01*
X0275401Y0080003D02*
X0273519Y0080003D01*
X0272512Y0079405D02*
X0275401Y0079405D01*
X0272115Y0078208D02*
X0268274Y0078208D01*
X0268597Y0077609D02*
X0271792Y0077609D01*
X0269475Y0077122D02*
X0269475Y0077122D01*
X0266497Y0077011D02*
X0265314Y0077011D01*
X0265407Y0076412D02*
X0266497Y0076412D01*
X0266497Y0075814D02*
X0265407Y0075814D01*
X0265407Y0075215D02*
X0266497Y0075215D01*
X0266497Y0074617D02*
X0265407Y0074617D01*
X0265407Y0074018D02*
X0266594Y0074018D01*
X0274900Y0085989D02*
X0275401Y0085989D01*
X0275401Y0086587D02*
X0274900Y0086587D01*
X0274900Y0087186D02*
X0275401Y0087186D01*
X0275401Y0087784D02*
X0274900Y0087784D01*
X0274900Y0088383D02*
X0275401Y0088383D01*
X0275401Y0088981D02*
X0274900Y0088981D01*
X0274900Y0089580D02*
X0275401Y0089580D01*
X0275401Y0090178D02*
X0274733Y0090178D01*
X0274485Y0090777D02*
X0275401Y0090777D01*
X0275401Y0091375D02*
X0274140Y0091375D01*
X0273542Y0091974D02*
X0275401Y0091974D01*
X0275401Y0092572D02*
X0272567Y0092572D01*
X0273656Y0105141D02*
X0275401Y0105141D01*
X0275401Y0105739D02*
X0274255Y0105739D01*
X0274533Y0106338D02*
X0275401Y0106338D01*
X0275401Y0106937D02*
X0274781Y0106937D01*
X0274900Y0107535D02*
X0275401Y0107535D01*
X0275401Y0108134D02*
X0274900Y0108134D01*
X0274900Y0108732D02*
X0275401Y0108732D01*
X0275401Y0109331D02*
X0274900Y0109331D01*
X0274900Y0109929D02*
X0275401Y0109929D01*
X0275401Y0110528D02*
X0274900Y0110528D01*
X0274900Y0111126D02*
X0275401Y0111126D01*
X0275401Y0111725D02*
X0274900Y0111725D01*
X0274900Y0112323D02*
X0275401Y0112323D01*
X0275401Y0112922D02*
X0274900Y0112922D01*
X0274900Y0113520D02*
X0275401Y0113520D01*
X0275401Y0114119D02*
X0274900Y0114119D01*
X0274900Y0114717D02*
X0275401Y0114717D01*
X0275401Y0115316D02*
X0274676Y0115316D01*
X0274428Y0115914D02*
X0275401Y0115914D01*
X0275401Y0116513D02*
X0274003Y0116513D01*
X0273404Y0117111D02*
X0275401Y0117111D01*
X0275401Y0117710D02*
X0272235Y0117710D01*
X0269765Y0117710D02*
X0266387Y0117710D01*
X0265789Y0118308D02*
X0275401Y0118308D01*
X0275401Y0118907D02*
X0265190Y0118907D01*
X0264592Y0119505D02*
X0275401Y0119505D01*
X0275401Y0120104D02*
X0263993Y0120104D01*
X0263395Y0120702D02*
X0275401Y0120702D01*
X0275401Y0121301D02*
X0211498Y0121301D01*
X0212096Y0121899D02*
X0275401Y0121899D01*
X0275401Y0122498D02*
X0212695Y0122498D01*
X0213293Y0123096D02*
X0275401Y0123096D01*
X0275401Y0123695D02*
X0274797Y0123695D01*
X0273056Y0123695D02*
X0272564Y0123695D01*
X0270294Y0123695D02*
X0269866Y0123695D01*
X0268482Y0123695D02*
X0267823Y0123695D01*
X0266440Y0123695D02*
X0264271Y0123695D01*
X0264693Y0123871D02*
X0264693Y0123871D01*
X0263803Y0123500D01*
X0263803Y0123500D01*
X0263321Y0123500D01*
X0262886Y0123500D01*
X0262886Y0123500D01*
X0262867Y0123500D01*
X0262867Y0123500D01*
X0262095Y0123946D01*
X0261322Y0123500D01*
X0261322Y0123500D01*
X0259789Y0123500D01*
X0259613Y0123676D01*
X0259436Y0123500D01*
X0257278Y0123500D01*
X0256662Y0124115D01*
X0256662Y0124985D01*
X0257278Y0125600D01*
X0257951Y0125600D01*
X0257951Y0127885D01*
X0258566Y0128500D01*
X0259436Y0128500D01*
X0259613Y0128324D01*
X0259789Y0128500D01*
X0261303Y0128500D01*
X0261303Y0128500D01*
X0261322Y0128500D01*
X0262109Y0128046D01*
X0262109Y0128046D01*
X0262109Y0128046D01*
X0262138Y0127996D01*
X0262208Y0128048D01*
X0262810Y0128500D01*
X0264017Y0128500D01*
X0264803Y0128046D01*
X0264803Y0128046D01*
X0264803Y0128046D01*
X0265257Y0127260D01*
X0265257Y0126353D01*
X0264935Y0125789D01*
X0265336Y0125392D01*
X0265339Y0124522D01*
X0265033Y0124213D01*
X0265033Y0124213D01*
X0264693Y0123871D01*
X0265112Y0124293D02*
X0266140Y0124293D01*
X0266193Y0124892D02*
X0265338Y0124892D01*
X0265237Y0125490D02*
X0266378Y0125490D01*
X0266592Y0126089D02*
X0265106Y0126089D01*
X0265257Y0126687D02*
X0266792Y0126687D01*
X0266991Y0127286D02*
X0265242Y0127286D01*
X0264896Y0127884D02*
X0267191Y0127884D01*
X0267871Y0128483D02*
X0264046Y0128483D01*
X0262787Y0128483D02*
X0261352Y0128483D01*
X0259772Y0128483D02*
X0259453Y0128483D01*
X0258549Y0128483D02*
X0254292Y0128483D01*
X0254263Y0128500D02*
X0254243Y0128500D01*
X0252407Y0128500D01*
X0251792Y0127885D01*
X0251792Y0127533D01*
X0249971Y0127533D01*
X0249506Y0127068D01*
X0249475Y0127122D01*
X0249475Y0127122D01*
X0248820Y0127500D01*
X0248788Y0127533D01*
X0248597Y0127533D01*
X0248597Y0127885D01*
X0247982Y0128500D01*
X0247112Y0128500D01*
X0246497Y0127885D01*
X0246497Y0124115D01*
X0247112Y0123500D01*
X0248788Y0123500D01*
X0248820Y0123533D01*
X0249350Y0123838D01*
X0249688Y0123500D01*
X0250558Y0123500D01*
X0250767Y0123710D01*
X0250977Y0123500D01*
X0251847Y0123500D01*
X0252127Y0123780D01*
X0252407Y0123500D01*
X0254262Y0123500D01*
X0255049Y0123954D01*
X0255503Y0124740D01*
X0255503Y0127260D01*
X0255049Y0128046D01*
X0255049Y0128046D01*
X0255049Y0128046D01*
X0254263Y0128500D01*
X0254243Y0128500D02*
X0254243Y0128500D01*
X0255142Y0127884D02*
X0257951Y0127884D01*
X0257951Y0127286D02*
X0255488Y0127286D01*
X0255503Y0126687D02*
X0257951Y0126687D01*
X0257951Y0126089D02*
X0255503Y0126089D01*
X0255503Y0125490D02*
X0257168Y0125490D01*
X0256662Y0124892D02*
X0255503Y0124892D01*
X0255245Y0124293D02*
X0256662Y0124293D01*
X0257083Y0123695D02*
X0254600Y0123695D01*
X0255049Y0123954D02*
X0255049Y0123954D01*
X0252212Y0123695D02*
X0252042Y0123695D01*
X0250782Y0123695D02*
X0250753Y0123695D01*
X0249493Y0123695D02*
X0249101Y0123695D01*
X0246917Y0123695D02*
X0243954Y0123695D01*
X0243953Y0123691D02*
X0243991Y0123767D01*
X0244067Y0123805D01*
X0244181Y0124147D01*
X0244342Y0124469D01*
X0244315Y0124550D01*
X0245308Y0127531D01*
X0244919Y0128309D01*
X0244094Y0128584D01*
X0243316Y0128195D01*
X0243208Y0127870D01*
X0243100Y0128195D01*
X0242322Y0128584D01*
X0241497Y0128309D01*
X0241109Y0127533D01*
X0239598Y0127533D01*
X0239336Y0127271D01*
X0238937Y0127500D01*
X0238905Y0127533D01*
X0237390Y0127533D01*
X0236775Y0126918D01*
X0236775Y0126048D01*
X0237307Y0125517D01*
X0236775Y0124985D01*
X0236775Y0124115D01*
X0237390Y0123500D01*
X0238905Y0123500D01*
X0238937Y0123533D01*
X0239336Y0123763D01*
X0239598Y0123500D01*
X0241113Y0123500D01*
X0241145Y0123533D01*
X0241800Y0123911D01*
X0242097Y0124425D01*
X0242236Y0124147D01*
X0242350Y0123805D01*
X0242426Y0123767D01*
X0242463Y0123691D01*
X0242805Y0123577D01*
X0243128Y0123416D01*
X0243208Y0123443D01*
X0243289Y0123416D01*
X0243611Y0123577D01*
X0243953Y0123691D01*
X0244254Y0124293D02*
X0246497Y0124293D01*
X0246497Y0124892D02*
X0244429Y0124892D01*
X0244628Y0125490D02*
X0246497Y0125490D01*
X0246497Y0126089D02*
X0244828Y0126089D01*
X0245027Y0126687D02*
X0246497Y0126687D01*
X0246497Y0127286D02*
X0245227Y0127286D01*
X0245132Y0127884D02*
X0246497Y0127884D01*
X0247095Y0128483D02*
X0244396Y0128483D01*
X0243893Y0128483D02*
X0242523Y0128483D01*
X0242020Y0128483D02*
X0218680Y0128483D01*
X0219278Y0129081D02*
X0249219Y0129081D01*
X0249349Y0129015D02*
X0249993Y0128806D01*
X0250662Y0128700D01*
X0250700Y0128700D01*
X0250700Y0135700D01*
X0251300Y0135700D01*
X0251300Y0136300D01*
X0255300Y0136300D01*
X0255300Y0139338D01*
X0255194Y0140007D01*
X0254985Y0140651D01*
X0254678Y0141254D01*
X0254280Y0141801D01*
X0253801Y0142280D01*
X0253254Y0142678D01*
X0252651Y0142985D01*
X0252007Y0143194D01*
X0251338Y0143300D01*
X0251300Y0143300D01*
X0251300Y0136300D01*
X0250700Y0136300D01*
X0250700Y0143300D01*
X0250662Y0143300D01*
X0249993Y0143194D01*
X0249349Y0142985D01*
X0248746Y0142678D01*
X0248199Y0142280D01*
X0247720Y0141801D01*
X0247322Y0141254D01*
X0247015Y0140651D01*
X0246806Y0140007D01*
X0246700Y0139338D01*
X0246700Y0136300D01*
X0250700Y0136300D01*
X0250700Y0135700D01*
X0246700Y0135700D01*
X0246700Y0132662D01*
X0246806Y0131993D01*
X0247015Y0131349D01*
X0247322Y0130746D01*
X0247720Y0130199D01*
X0248199Y0129720D01*
X0248746Y0129322D01*
X0249349Y0129015D01*
X0248254Y0129680D02*
X0243176Y0129680D01*
X0243209Y0129694D02*
X0244306Y0130791D01*
X0244900Y0132224D01*
X0244900Y0139776D01*
X0244306Y0141209D01*
X0243209Y0142306D01*
X0241776Y0142900D01*
X0240224Y0142900D01*
X0238791Y0142306D01*
X0237694Y0141209D01*
X0237100Y0139776D01*
X0237100Y0132224D01*
X0237694Y0130791D01*
X0238791Y0129694D01*
X0240224Y0129100D01*
X0241776Y0129100D01*
X0243209Y0129694D01*
X0243794Y0130278D02*
X0247662Y0130278D01*
X0247256Y0130877D02*
X0244342Y0130877D01*
X0244590Y0131475D02*
X0246974Y0131475D01*
X0246793Y0132074D02*
X0244838Y0132074D01*
X0244900Y0132672D02*
X0246700Y0132672D01*
X0246700Y0133271D02*
X0244900Y0133271D01*
X0244900Y0133870D02*
X0246700Y0133870D01*
X0246700Y0134468D02*
X0244900Y0134468D01*
X0244900Y0135067D02*
X0246700Y0135067D01*
X0246700Y0135665D02*
X0244900Y0135665D01*
X0244900Y0136264D02*
X0250700Y0136264D01*
X0250700Y0136862D02*
X0251300Y0136862D01*
X0251300Y0136264D02*
X0257100Y0136264D01*
X0257100Y0136862D02*
X0255300Y0136862D01*
X0255300Y0137461D02*
X0257100Y0137461D01*
X0257100Y0138059D02*
X0255300Y0138059D01*
X0255300Y0138658D02*
X0257100Y0138658D01*
X0257100Y0139256D02*
X0255300Y0139256D01*
X0255218Y0139855D02*
X0257133Y0139855D01*
X0257050Y0140453D02*
X0255049Y0140453D01*
X0254781Y0141052D02*
X0256451Y0141052D01*
X0255853Y0141650D02*
X0254390Y0141650D01*
X0253832Y0142249D02*
X0255254Y0142249D01*
X0254656Y0142847D02*
X0252921Y0142847D01*
X0254057Y0143446D02*
X0233643Y0143446D01*
X0233044Y0142847D02*
X0240097Y0142847D01*
X0238733Y0142249D02*
X0232446Y0142249D01*
X0231847Y0141650D02*
X0238135Y0141650D01*
X0237628Y0141052D02*
X0231249Y0141052D01*
X0230650Y0140453D02*
X0237381Y0140453D01*
X0237133Y0139855D02*
X0230052Y0139855D01*
X0229453Y0139256D02*
X0237100Y0139256D01*
X0237100Y0138658D02*
X0228855Y0138658D01*
X0228256Y0138059D02*
X0237100Y0138059D01*
X0237100Y0137461D02*
X0227658Y0137461D01*
X0227059Y0136862D02*
X0237100Y0136862D01*
X0237100Y0136264D02*
X0226461Y0136264D01*
X0225862Y0135665D02*
X0237100Y0135665D01*
X0237100Y0135067D02*
X0225264Y0135067D01*
X0224665Y0134468D02*
X0237100Y0134468D01*
X0237100Y0133870D02*
X0224067Y0133870D01*
X0223468Y0133271D02*
X0237100Y0133271D01*
X0237100Y0132672D02*
X0222870Y0132672D01*
X0222271Y0132074D02*
X0237162Y0132074D01*
X0237410Y0131475D02*
X0221673Y0131475D01*
X0221074Y0130877D02*
X0237658Y0130877D01*
X0238206Y0130278D02*
X0220475Y0130278D01*
X0219877Y0129680D02*
X0238824Y0129680D01*
X0241285Y0127884D02*
X0218081Y0127884D01*
X0217483Y0127286D02*
X0237143Y0127286D01*
X0236775Y0126687D02*
X0216884Y0126687D01*
X0216286Y0126089D02*
X0236775Y0126089D01*
X0237281Y0125490D02*
X0215687Y0125490D01*
X0215089Y0124892D02*
X0236775Y0124892D01*
X0236775Y0124293D02*
X0214490Y0124293D01*
X0213892Y0123695D02*
X0237195Y0123695D01*
X0239218Y0123695D02*
X0239403Y0123695D01*
X0241426Y0123695D02*
X0242462Y0123695D01*
X0242163Y0124293D02*
X0242021Y0124293D01*
X0241800Y0123911D02*
X0241800Y0123911D01*
X0241800Y0123911D01*
X0239351Y0127286D02*
X0239309Y0127286D01*
X0243203Y0127884D02*
X0243213Y0127884D01*
X0247999Y0128483D02*
X0252390Y0128483D01*
X0252007Y0128806D02*
X0252651Y0129015D01*
X0253254Y0129322D01*
X0253801Y0129720D01*
X0254280Y0130199D01*
X0254678Y0130746D01*
X0254985Y0131349D01*
X0255194Y0131993D01*
X0255300Y0132662D01*
X0255300Y0135700D01*
X0251300Y0135700D01*
X0251300Y0128700D01*
X0251338Y0128700D01*
X0252007Y0128806D01*
X0251300Y0129081D02*
X0250700Y0129081D01*
X0250700Y0129680D02*
X0251300Y0129680D01*
X0251300Y0130278D02*
X0250700Y0130278D01*
X0250700Y0130877D02*
X0251300Y0130877D01*
X0251300Y0131475D02*
X0250700Y0131475D01*
X0250700Y0132074D02*
X0251300Y0132074D01*
X0251300Y0132672D02*
X0250700Y0132672D01*
X0250700Y0133271D02*
X0251300Y0133271D01*
X0251300Y0133870D02*
X0250700Y0133870D01*
X0250700Y0134468D02*
X0251300Y0134468D01*
X0251300Y0135067D02*
X0250700Y0135067D01*
X0250700Y0135665D02*
X0251300Y0135665D01*
X0251300Y0137461D02*
X0250700Y0137461D01*
X0250700Y0138059D02*
X0251300Y0138059D01*
X0251300Y0138658D02*
X0250700Y0138658D01*
X0250700Y0139256D02*
X0251300Y0139256D01*
X0251300Y0139855D02*
X0250700Y0139855D01*
X0250700Y0140453D02*
X0251300Y0140453D01*
X0251300Y0141052D02*
X0250700Y0141052D01*
X0250700Y0141650D02*
X0251300Y0141650D01*
X0251300Y0142249D02*
X0250700Y0142249D01*
X0250700Y0142847D02*
X0251300Y0142847D01*
X0249079Y0142847D02*
X0241903Y0142847D01*
X0243267Y0142249D02*
X0248168Y0142249D01*
X0247610Y0141650D02*
X0243865Y0141650D01*
X0244372Y0141052D02*
X0247219Y0141052D01*
X0246951Y0140453D02*
X0244619Y0140453D01*
X0244867Y0139855D02*
X0246782Y0139855D01*
X0246700Y0139256D02*
X0244900Y0139256D01*
X0244900Y0138658D02*
X0246700Y0138658D01*
X0246700Y0138059D02*
X0244900Y0138059D01*
X0244900Y0137461D02*
X0246700Y0137461D01*
X0246700Y0136862D02*
X0244900Y0136862D01*
X0255300Y0135665D02*
X0257100Y0135665D01*
X0257100Y0135067D02*
X0255300Y0135067D01*
X0255300Y0134468D02*
X0257100Y0134468D01*
X0257100Y0133870D02*
X0255300Y0133870D01*
X0255300Y0133271D02*
X0257100Y0133271D01*
X0257100Y0132672D02*
X0255300Y0132672D01*
X0255207Y0132074D02*
X0257162Y0132074D01*
X0257410Y0131475D02*
X0255026Y0131475D01*
X0254744Y0130877D02*
X0257658Y0130877D01*
X0258206Y0130278D02*
X0254338Y0130278D01*
X0253746Y0129680D02*
X0258824Y0129680D01*
X0263176Y0129680D02*
X0268824Y0129680D01*
X0268791Y0129694D02*
X0270224Y0129100D01*
X0271776Y0129100D01*
X0273209Y0129694D01*
X0274306Y0130791D01*
X0274900Y0132224D01*
X0274900Y0139776D01*
X0274306Y0141209D01*
X0273209Y0142306D01*
X0271776Y0142900D01*
X0270224Y0142900D01*
X0268791Y0142306D01*
X0267694Y0141209D01*
X0267100Y0139776D01*
X0267100Y0132224D01*
X0267694Y0130791D01*
X0268791Y0129694D01*
X0268206Y0130278D02*
X0263794Y0130278D01*
X0264342Y0130877D02*
X0267658Y0130877D01*
X0267410Y0131475D02*
X0264590Y0131475D01*
X0264838Y0132074D02*
X0267162Y0132074D01*
X0267100Y0132672D02*
X0264900Y0132672D01*
X0264900Y0133271D02*
X0267100Y0133271D01*
X0267100Y0133870D02*
X0264900Y0133870D01*
X0264900Y0134468D02*
X0267100Y0134468D01*
X0267100Y0135067D02*
X0264900Y0135067D01*
X0264900Y0135665D02*
X0267100Y0135665D01*
X0267100Y0136264D02*
X0264900Y0136264D01*
X0264900Y0136862D02*
X0267100Y0136862D01*
X0267100Y0137461D02*
X0264900Y0137461D01*
X0264900Y0138059D02*
X0267100Y0138059D01*
X0267100Y0138658D02*
X0264900Y0138658D01*
X0264900Y0139256D02*
X0267100Y0139256D01*
X0267133Y0139855D02*
X0264867Y0139855D01*
X0264619Y0140453D02*
X0267381Y0140453D01*
X0267628Y0141052D02*
X0264372Y0141052D01*
X0263865Y0141650D02*
X0268135Y0141650D01*
X0268733Y0142249D02*
X0263267Y0142249D01*
X0261903Y0142847D02*
X0270097Y0142847D01*
X0271903Y0142847D02*
X0275401Y0142847D01*
X0275401Y0142249D02*
X0273267Y0142249D01*
X0273865Y0141650D02*
X0275401Y0141650D01*
X0275401Y0141052D02*
X0274372Y0141052D01*
X0274619Y0140453D02*
X0275401Y0140453D01*
X0275401Y0139855D02*
X0274867Y0139855D01*
X0274900Y0139256D02*
X0275401Y0139256D01*
X0275401Y0138658D02*
X0274900Y0138658D01*
X0274900Y0138059D02*
X0275401Y0138059D01*
X0275401Y0137461D02*
X0274900Y0137461D01*
X0274900Y0136862D02*
X0275401Y0136862D01*
X0275401Y0136264D02*
X0274900Y0136264D01*
X0274900Y0135665D02*
X0275401Y0135665D01*
X0275401Y0135067D02*
X0274900Y0135067D01*
X0274900Y0134468D02*
X0275401Y0134468D01*
X0275401Y0133870D02*
X0274900Y0133870D01*
X0274900Y0133271D02*
X0275401Y0133271D01*
X0275401Y0132672D02*
X0274900Y0132672D01*
X0274838Y0132074D02*
X0275401Y0132074D01*
X0275401Y0131475D02*
X0274590Y0131475D01*
X0274342Y0130877D02*
X0275401Y0130877D01*
X0275401Y0130278D02*
X0273794Y0130278D01*
X0273176Y0129680D02*
X0275401Y0129680D01*
X0275401Y0129081D02*
X0252781Y0129081D01*
X0251792Y0127884D02*
X0248597Y0127884D01*
X0249192Y0127286D02*
X0249724Y0127286D01*
X0249475Y0127122D02*
X0249475Y0127122D01*
X0261660Y0123695D02*
X0262529Y0123695D01*
X0268435Y0128483D02*
X0270602Y0128483D01*
X0269702Y0127884D02*
X0269115Y0127884D01*
X0269314Y0127286D02*
X0269356Y0127286D01*
X0272386Y0128483D02*
X0273314Y0128483D01*
X0274573Y0128483D02*
X0275401Y0128483D01*
X0261000Y0136000D02*
X0260800Y0136000D01*
X0260800Y0138400D01*
X0254500Y0144700D01*
X0233200Y0144700D01*
X0204700Y0116200D01*
X0201100Y0116200D01*
X0201000Y0116000D01*
X0206070Y0113520D02*
X0220423Y0113520D01*
X0219825Y0112922D02*
X0205314Y0112922D01*
X0206609Y0114119D02*
X0221022Y0114119D01*
X0221620Y0114717D02*
X0206857Y0114717D01*
X0207100Y0115316D02*
X0222219Y0115316D01*
X0222817Y0115914D02*
X0207100Y0115914D01*
X0207100Y0116513D02*
X0223416Y0116513D01*
X0224014Y0117111D02*
X0207308Y0117111D01*
X0207907Y0117710D02*
X0224613Y0117710D01*
X0225211Y0118308D02*
X0208505Y0118308D01*
X0209104Y0118907D02*
X0225810Y0118907D01*
X0226408Y0119505D02*
X0209702Y0119505D01*
X0210301Y0120104D02*
X0227007Y0120104D01*
X0227605Y0120702D02*
X0210899Y0120702D01*
X0208702Y0121899D02*
X0146000Y0121899D01*
X0146000Y0121301D02*
X0208104Y0121301D01*
X0207505Y0120702D02*
X0146000Y0120702D01*
X0146000Y0120104D02*
X0206907Y0120104D01*
X0206308Y0119505D02*
X0146000Y0119505D01*
X0146000Y0123695D02*
X0165755Y0123695D01*
X0165319Y0124293D02*
X0146000Y0124293D01*
X0146000Y0124892D02*
X0165071Y0124892D01*
X0164900Y0125490D02*
X0146000Y0125490D01*
X0146000Y0126089D02*
X0164900Y0126089D01*
X0164900Y0126687D02*
X0146000Y0126687D01*
X0146000Y0127286D02*
X0165144Y0127286D01*
X0165392Y0127884D02*
X0146000Y0127884D01*
X0146000Y0128483D02*
X0165933Y0128483D01*
X0166693Y0129081D02*
X0146000Y0129081D01*
X0146000Y0129680D02*
X0216483Y0129680D01*
X0217081Y0130278D02*
X0146000Y0130278D01*
X0146000Y0130877D02*
X0217680Y0130877D01*
X0218278Y0131475D02*
X0146000Y0131475D01*
X0146000Y0132074D02*
X0218877Y0132074D01*
X0219475Y0132672D02*
X0146000Y0132672D01*
X0146000Y0133271D02*
X0220074Y0133271D01*
X0220672Y0133870D02*
X0146000Y0133870D01*
X0146000Y0134468D02*
X0221271Y0134468D01*
X0221870Y0135067D02*
X0146000Y0135067D01*
X0146000Y0135665D02*
X0222468Y0135665D01*
X0223067Y0136264D02*
X0146000Y0136264D01*
X0146000Y0136862D02*
X0223665Y0136862D01*
X0224264Y0137461D02*
X0146000Y0137461D01*
X0146000Y0138059D02*
X0224862Y0138059D01*
X0225461Y0138658D02*
X0146000Y0138658D01*
X0146000Y0139256D02*
X0226059Y0139256D01*
X0226658Y0139855D02*
X0146000Y0139855D01*
X0146000Y0140453D02*
X0227256Y0140453D01*
X0227855Y0141052D02*
X0146000Y0141052D01*
X0146000Y0141650D02*
X0228453Y0141650D01*
X0229052Y0142249D02*
X0146000Y0142249D01*
X0146000Y0142847D02*
X0229650Y0142847D01*
X0230249Y0143446D02*
X0146000Y0143446D01*
X0146000Y0144044D02*
X0230847Y0144044D01*
X0231446Y0144643D02*
X0146000Y0144643D01*
X0146000Y0145241D02*
X0232044Y0145241D01*
X0232643Y0145840D02*
X0146000Y0145840D01*
X0146000Y0146438D02*
X0275401Y0146438D01*
X0275401Y0145840D02*
X0255057Y0145840D01*
X0255656Y0145241D02*
X0275401Y0145241D01*
X0275401Y0144643D02*
X0256254Y0144643D01*
X0256853Y0144044D02*
X0275401Y0144044D01*
X0275401Y0143446D02*
X0257451Y0143446D01*
X0258050Y0142847D02*
X0260097Y0142847D01*
X0258733Y0142249D02*
X0258648Y0142249D01*
X0252651Y0154015D02*
X0252007Y0153806D01*
X0251338Y0153700D01*
X0251300Y0153700D01*
X0251300Y0160700D01*
X0251300Y0161300D01*
X0255300Y0161300D01*
X0255300Y0164338D01*
X0255194Y0165007D01*
X0254985Y0165651D01*
X0254678Y0166254D01*
X0254280Y0166801D01*
X0253801Y0167280D01*
X0253254Y0167678D01*
X0252651Y0167985D01*
X0252007Y0168194D01*
X0251338Y0168300D01*
X0251300Y0168300D01*
X0251300Y0161300D01*
X0250700Y0161300D01*
X0250700Y0168300D01*
X0250662Y0168300D01*
X0249993Y0168194D01*
X0249349Y0167985D01*
X0248746Y0167678D01*
X0248199Y0167280D01*
X0247720Y0166801D01*
X0247322Y0166254D01*
X0247015Y0165651D01*
X0246806Y0165007D01*
X0246700Y0164338D01*
X0246700Y0161300D01*
X0250700Y0161300D01*
X0250700Y0160700D01*
X0251300Y0160700D01*
X0255300Y0160700D01*
X0255300Y0157662D01*
X0255194Y0156993D01*
X0254985Y0156349D01*
X0254678Y0155746D01*
X0254280Y0155199D01*
X0253801Y0154720D01*
X0253254Y0154322D01*
X0252651Y0154015D01*
X0253051Y0154219D02*
X0259937Y0154219D01*
X0260224Y0154100D02*
X0261776Y0154100D01*
X0263209Y0154694D01*
X0264306Y0155791D01*
X0264900Y0157224D01*
X0264900Y0164776D01*
X0264306Y0166209D01*
X0263209Y0167306D01*
X0261776Y0167900D01*
X0260224Y0167900D01*
X0258791Y0167306D01*
X0257694Y0166209D01*
X0257100Y0164776D01*
X0257100Y0157224D01*
X0257694Y0155791D01*
X0258791Y0154694D01*
X0260224Y0154100D01*
X0258667Y0154817D02*
X0253899Y0154817D01*
X0254438Y0155416D02*
X0258069Y0155416D01*
X0257601Y0156014D02*
X0254814Y0156014D01*
X0255071Y0156613D02*
X0257353Y0156613D01*
X0257105Y0157211D02*
X0255229Y0157211D01*
X0255300Y0157810D02*
X0257100Y0157810D01*
X0257100Y0158408D02*
X0255300Y0158408D01*
X0255300Y0159007D02*
X0257100Y0159007D01*
X0257100Y0159605D02*
X0255300Y0159605D01*
X0255300Y0160204D02*
X0257100Y0160204D01*
X0257100Y0160803D02*
X0251300Y0160803D01*
X0251300Y0161401D02*
X0250700Y0161401D01*
X0250700Y0160803D02*
X0244900Y0160803D01*
X0244900Y0161401D02*
X0246700Y0161401D01*
X0246700Y0162000D02*
X0244900Y0162000D01*
X0244900Y0162598D02*
X0246700Y0162598D01*
X0246700Y0163197D02*
X0244900Y0163197D01*
X0244900Y0163795D02*
X0246700Y0163795D01*
X0246709Y0164394D02*
X0244900Y0164394D01*
X0244900Y0164776D02*
X0244306Y0166209D01*
X0243209Y0167306D01*
X0241776Y0167900D01*
X0240224Y0167900D01*
X0238791Y0167306D01*
X0237694Y0166209D01*
X0237100Y0164776D01*
X0237100Y0157224D01*
X0237694Y0155791D01*
X0238791Y0154694D01*
X0240224Y0154100D01*
X0241776Y0154100D01*
X0243209Y0154694D01*
X0244306Y0155791D01*
X0244900Y0157224D01*
X0244900Y0164776D01*
X0244810Y0164992D02*
X0246804Y0164992D01*
X0246996Y0165591D02*
X0244562Y0165591D01*
X0244315Y0166189D02*
X0247289Y0166189D01*
X0247710Y0166788D02*
X0243728Y0166788D01*
X0243016Y0167386D02*
X0248345Y0167386D01*
X0249349Y0167985D02*
X0202651Y0167985D01*
X0202007Y0168194D01*
X0201338Y0168300D01*
X0201300Y0168300D01*
X0201300Y0161300D01*
X0200700Y0161300D01*
X0200700Y0168300D01*
X0200662Y0168300D01*
X0199993Y0168194D01*
X0199349Y0167985D01*
X0198746Y0167678D01*
X0198199Y0167280D01*
X0197720Y0166801D01*
X0197322Y0166254D01*
X0197015Y0165651D01*
X0196806Y0165007D01*
X0196700Y0164338D01*
X0196700Y0161300D01*
X0200700Y0161300D01*
X0200700Y0160700D01*
X0196700Y0160700D01*
X0196700Y0157662D01*
X0196806Y0156993D01*
X0197015Y0156349D01*
X0197322Y0155746D01*
X0197720Y0155199D01*
X0198199Y0154720D01*
X0198746Y0154322D01*
X0199349Y0154015D01*
X0199993Y0153806D01*
X0200662Y0153700D01*
X0200700Y0153700D01*
X0200700Y0160700D01*
X0201300Y0160700D01*
X0201300Y0161300D01*
X0205300Y0161300D01*
X0205300Y0164338D01*
X0205194Y0165007D01*
X0204985Y0165651D01*
X0204678Y0166254D01*
X0204280Y0166801D01*
X0203801Y0167280D01*
X0203254Y0167678D01*
X0202651Y0167985D01*
X0203655Y0167386D02*
X0208984Y0167386D01*
X0208791Y0167306D02*
X0210224Y0167900D01*
X0211776Y0167900D01*
X0213209Y0167306D01*
X0214306Y0166209D01*
X0214900Y0164776D01*
X0214900Y0157224D01*
X0214306Y0155791D01*
X0213209Y0154694D01*
X0211776Y0154100D01*
X0210224Y0154100D01*
X0208791Y0154694D01*
X0207694Y0155791D01*
X0207100Y0157224D01*
X0207100Y0164776D01*
X0207694Y0166209D01*
X0208791Y0167306D01*
X0208272Y0166788D02*
X0204290Y0166788D01*
X0204711Y0166189D02*
X0207685Y0166189D01*
X0207438Y0165591D02*
X0205004Y0165591D01*
X0205196Y0164992D02*
X0207190Y0164992D01*
X0207100Y0164394D02*
X0205291Y0164394D01*
X0205300Y0163795D02*
X0207100Y0163795D01*
X0207100Y0163197D02*
X0205300Y0163197D01*
X0205300Y0162598D02*
X0207100Y0162598D01*
X0207100Y0162000D02*
X0205300Y0162000D01*
X0205300Y0161401D02*
X0207100Y0161401D01*
X0207100Y0160803D02*
X0201300Y0160803D01*
X0201300Y0160700D02*
X0205300Y0160700D01*
X0205300Y0157662D01*
X0205194Y0156993D01*
X0204985Y0156349D01*
X0204678Y0155746D01*
X0204280Y0155199D01*
X0203801Y0154720D01*
X0203254Y0154322D01*
X0202651Y0154015D01*
X0202007Y0153806D01*
X0201338Y0153700D01*
X0201300Y0153700D01*
X0201300Y0160700D01*
X0201300Y0160204D02*
X0200700Y0160204D01*
X0200700Y0159605D02*
X0201300Y0159605D01*
X0201300Y0159007D02*
X0200700Y0159007D01*
X0200700Y0158408D02*
X0201300Y0158408D01*
X0201300Y0157810D02*
X0200700Y0157810D01*
X0200700Y0157211D02*
X0201300Y0157211D01*
X0201300Y0156613D02*
X0200700Y0156613D01*
X0200700Y0156014D02*
X0201300Y0156014D01*
X0201300Y0155416D02*
X0200700Y0155416D01*
X0200700Y0154817D02*
X0201300Y0154817D01*
X0201300Y0154219D02*
X0200700Y0154219D01*
X0198949Y0154219D02*
X0192063Y0154219D01*
X0191776Y0154100D02*
X0193209Y0154694D01*
X0194306Y0155791D01*
X0194900Y0157224D01*
X0194900Y0164776D01*
X0194306Y0166209D01*
X0193209Y0167306D01*
X0191776Y0167900D01*
X0190224Y0167900D01*
X0188791Y0167306D01*
X0187694Y0166209D01*
X0187100Y0164776D01*
X0187100Y0157224D01*
X0187694Y0155791D01*
X0188791Y0154694D01*
X0190224Y0154100D01*
X0191776Y0154100D01*
X0193333Y0154817D02*
X0198101Y0154817D01*
X0197562Y0155416D02*
X0193931Y0155416D01*
X0194399Y0156014D02*
X0197186Y0156014D01*
X0196929Y0156613D02*
X0194647Y0156613D01*
X0194895Y0157211D02*
X0196771Y0157211D01*
X0196700Y0157810D02*
X0194900Y0157810D01*
X0194900Y0158408D02*
X0196700Y0158408D01*
X0196700Y0159007D02*
X0194900Y0159007D01*
X0194900Y0159605D02*
X0196700Y0159605D01*
X0196700Y0160204D02*
X0194900Y0160204D01*
X0194900Y0160803D02*
X0200700Y0160803D01*
X0200700Y0161401D02*
X0201300Y0161401D01*
X0201300Y0162000D02*
X0200700Y0162000D01*
X0200700Y0162598D02*
X0201300Y0162598D01*
X0201300Y0163197D02*
X0200700Y0163197D01*
X0200700Y0163795D02*
X0201300Y0163795D01*
X0201300Y0164394D02*
X0200700Y0164394D01*
X0200700Y0164992D02*
X0201300Y0164992D01*
X0201300Y0165591D02*
X0200700Y0165591D01*
X0200700Y0166189D02*
X0201300Y0166189D01*
X0201300Y0166788D02*
X0200700Y0166788D01*
X0200700Y0167386D02*
X0201300Y0167386D01*
X0201300Y0167985D02*
X0200700Y0167985D01*
X0199349Y0167985D02*
X0182651Y0167985D01*
X0182007Y0168194D01*
X0181338Y0168300D01*
X0181300Y0168300D01*
X0181300Y0161300D01*
X0180700Y0161300D01*
X0180700Y0168300D01*
X0180662Y0168300D01*
X0179993Y0168194D01*
X0179349Y0167985D01*
X0178746Y0167678D01*
X0178199Y0167280D01*
X0177720Y0166801D01*
X0177322Y0166254D01*
X0177015Y0165651D01*
X0176806Y0165007D01*
X0176700Y0164338D01*
X0176700Y0161300D01*
X0180700Y0161300D01*
X0180700Y0160700D01*
X0176700Y0160700D01*
X0176700Y0157662D01*
X0176806Y0156993D01*
X0177015Y0156349D01*
X0177322Y0155746D01*
X0177720Y0155199D01*
X0178199Y0154720D01*
X0178746Y0154322D01*
X0179349Y0154015D01*
X0179993Y0153806D01*
X0180662Y0153700D01*
X0180700Y0153700D01*
X0180700Y0160700D01*
X0181300Y0160700D01*
X0181300Y0161300D01*
X0185300Y0161300D01*
X0185300Y0164338D01*
X0185194Y0165007D01*
X0184985Y0165651D01*
X0184678Y0166254D01*
X0184280Y0166801D01*
X0183801Y0167280D01*
X0183254Y0167678D01*
X0182651Y0167985D01*
X0183655Y0167386D02*
X0188984Y0167386D01*
X0188272Y0166788D02*
X0184290Y0166788D01*
X0184711Y0166189D02*
X0187685Y0166189D01*
X0187438Y0165591D02*
X0185004Y0165591D01*
X0185196Y0164992D02*
X0187190Y0164992D01*
X0187100Y0164394D02*
X0185291Y0164394D01*
X0185300Y0163795D02*
X0187100Y0163795D01*
X0187100Y0163197D02*
X0185300Y0163197D01*
X0185300Y0162598D02*
X0187100Y0162598D01*
X0187100Y0162000D02*
X0185300Y0162000D01*
X0185300Y0161401D02*
X0187100Y0161401D01*
X0187100Y0160803D02*
X0181300Y0160803D01*
X0181300Y0160700D02*
X0185300Y0160700D01*
X0185300Y0157662D01*
X0185194Y0156993D01*
X0184985Y0156349D01*
X0184678Y0155746D01*
X0184280Y0155199D01*
X0183801Y0154720D01*
X0183254Y0154322D01*
X0182651Y0154015D01*
X0182007Y0153806D01*
X0181338Y0153700D01*
X0181300Y0153700D01*
X0181300Y0160700D01*
X0181300Y0160204D02*
X0180700Y0160204D01*
X0180700Y0159605D02*
X0181300Y0159605D01*
X0181300Y0159007D02*
X0180700Y0159007D01*
X0180700Y0158408D02*
X0181300Y0158408D01*
X0181300Y0157810D02*
X0180700Y0157810D01*
X0180700Y0157211D02*
X0181300Y0157211D01*
X0181300Y0156613D02*
X0180700Y0156613D01*
X0180700Y0156014D02*
X0181300Y0156014D01*
X0181300Y0155416D02*
X0180700Y0155416D01*
X0180700Y0154817D02*
X0181300Y0154817D01*
X0181300Y0154219D02*
X0180700Y0154219D01*
X0178949Y0154219D02*
X0173051Y0154219D01*
X0173254Y0154322D02*
X0173801Y0154720D01*
X0174280Y0155199D01*
X0174678Y0155746D01*
X0174985Y0156349D01*
X0175194Y0156993D01*
X0175300Y0157662D01*
X0175300Y0160700D01*
X0171300Y0160700D01*
X0171300Y0161300D01*
X0170700Y0161300D01*
X0170700Y0168300D01*
X0170662Y0168300D01*
X0169993Y0168194D01*
X0169349Y0167985D01*
X0168746Y0167678D01*
X0168199Y0167280D01*
X0167720Y0166801D01*
X0167322Y0166254D01*
X0167015Y0165651D01*
X0166806Y0165007D01*
X0166700Y0164338D01*
X0166700Y0161300D01*
X0170700Y0161300D01*
X0170700Y0160700D01*
X0166700Y0160700D01*
X0166700Y0157662D01*
X0166806Y0156993D01*
X0167015Y0156349D01*
X0167322Y0155746D01*
X0167720Y0155199D01*
X0168199Y0154720D01*
X0168746Y0154322D01*
X0169349Y0154015D01*
X0169993Y0153806D01*
X0170662Y0153700D01*
X0170700Y0153700D01*
X0170700Y0160700D01*
X0171300Y0160700D01*
X0171300Y0153700D01*
X0171338Y0153700D01*
X0172007Y0153806D01*
X0172651Y0154015D01*
X0173254Y0154322D01*
X0173899Y0154817D02*
X0178101Y0154817D01*
X0177562Y0155416D02*
X0174438Y0155416D01*
X0174814Y0156014D02*
X0177186Y0156014D01*
X0176929Y0156613D02*
X0175071Y0156613D01*
X0175229Y0157211D02*
X0176771Y0157211D01*
X0176700Y0157810D02*
X0175300Y0157810D01*
X0175300Y0158408D02*
X0176700Y0158408D01*
X0176700Y0159007D02*
X0175300Y0159007D01*
X0175300Y0159605D02*
X0176700Y0159605D01*
X0176700Y0160204D02*
X0175300Y0160204D01*
X0175300Y0161300D02*
X0175300Y0164338D01*
X0175194Y0165007D01*
X0174985Y0165651D01*
X0174678Y0166254D01*
X0174280Y0166801D01*
X0173801Y0167280D01*
X0173254Y0167678D01*
X0172651Y0167985D01*
X0172007Y0168194D01*
X0171338Y0168300D01*
X0171300Y0168300D01*
X0171300Y0161300D01*
X0175300Y0161300D01*
X0175300Y0161401D02*
X0176700Y0161401D01*
X0176700Y0162000D02*
X0175300Y0162000D01*
X0175300Y0162598D02*
X0176700Y0162598D01*
X0176700Y0163197D02*
X0175300Y0163197D01*
X0175300Y0163795D02*
X0176700Y0163795D01*
X0176709Y0164394D02*
X0175291Y0164394D01*
X0175196Y0164992D02*
X0176804Y0164992D01*
X0176996Y0165591D02*
X0175004Y0165591D01*
X0174711Y0166189D02*
X0177289Y0166189D01*
X0177710Y0166788D02*
X0174290Y0166788D01*
X0173655Y0167386D02*
X0178345Y0167386D01*
X0179349Y0167985D02*
X0172651Y0167985D01*
X0171300Y0167985D02*
X0170700Y0167985D01*
X0170700Y0167386D02*
X0171300Y0167386D01*
X0171300Y0166788D02*
X0170700Y0166788D01*
X0170700Y0166189D02*
X0171300Y0166189D01*
X0171300Y0165591D02*
X0170700Y0165591D01*
X0170700Y0164992D02*
X0171300Y0164992D01*
X0171300Y0164394D02*
X0170700Y0164394D01*
X0170700Y0163795D02*
X0171300Y0163795D01*
X0171300Y0163197D02*
X0170700Y0163197D01*
X0170700Y0162598D02*
X0171300Y0162598D01*
X0171300Y0162000D02*
X0170700Y0162000D01*
X0170700Y0161401D02*
X0171300Y0161401D01*
X0171300Y0160803D02*
X0180700Y0160803D01*
X0180700Y0161401D02*
X0181300Y0161401D01*
X0181300Y0162000D02*
X0180700Y0162000D01*
X0180700Y0162598D02*
X0181300Y0162598D01*
X0181300Y0163197D02*
X0180700Y0163197D01*
X0180700Y0163795D02*
X0181300Y0163795D01*
X0181300Y0164394D02*
X0180700Y0164394D01*
X0180700Y0164992D02*
X0181300Y0164992D01*
X0181300Y0165591D02*
X0180700Y0165591D01*
X0180700Y0166189D02*
X0181300Y0166189D01*
X0181300Y0166788D02*
X0180700Y0166788D01*
X0180700Y0167386D02*
X0181300Y0167386D01*
X0181300Y0167985D02*
X0180700Y0167985D01*
X0185300Y0160204D02*
X0187100Y0160204D01*
X0187100Y0159605D02*
X0185300Y0159605D01*
X0185300Y0159007D02*
X0187100Y0159007D01*
X0187100Y0158408D02*
X0185300Y0158408D01*
X0185300Y0157810D02*
X0187100Y0157810D01*
X0187105Y0157211D02*
X0185229Y0157211D01*
X0185071Y0156613D02*
X0187353Y0156613D01*
X0187601Y0156014D02*
X0184814Y0156014D01*
X0184438Y0155416D02*
X0188069Y0155416D01*
X0188667Y0154817D02*
X0183899Y0154817D01*
X0183051Y0154219D02*
X0189937Y0154219D01*
X0194900Y0161401D02*
X0196700Y0161401D01*
X0196700Y0162000D02*
X0194900Y0162000D01*
X0194900Y0162598D02*
X0196700Y0162598D01*
X0196700Y0163197D02*
X0194900Y0163197D01*
X0194900Y0163795D02*
X0196700Y0163795D01*
X0196709Y0164394D02*
X0194900Y0164394D01*
X0194810Y0164992D02*
X0196804Y0164992D01*
X0196996Y0165591D02*
X0194562Y0165591D01*
X0194315Y0166189D02*
X0197289Y0166189D01*
X0197710Y0166788D02*
X0193728Y0166788D01*
X0193016Y0167386D02*
X0198345Y0167386D01*
X0205300Y0160204D02*
X0207100Y0160204D01*
X0207100Y0159605D02*
X0205300Y0159605D01*
X0205300Y0159007D02*
X0207100Y0159007D01*
X0207100Y0158408D02*
X0205300Y0158408D01*
X0205300Y0157810D02*
X0207100Y0157810D01*
X0207105Y0157211D02*
X0205229Y0157211D01*
X0205071Y0156613D02*
X0207353Y0156613D01*
X0207601Y0156014D02*
X0204814Y0156014D01*
X0204438Y0155416D02*
X0208069Y0155416D01*
X0208667Y0154817D02*
X0203899Y0154817D01*
X0203051Y0154219D02*
X0209937Y0154219D01*
X0212063Y0154219D02*
X0239937Y0154219D01*
X0238667Y0154817D02*
X0213333Y0154817D01*
X0213931Y0155416D02*
X0238069Y0155416D01*
X0237601Y0156014D02*
X0214399Y0156014D01*
X0214647Y0156613D02*
X0237353Y0156613D01*
X0237105Y0157211D02*
X0214895Y0157211D01*
X0214900Y0157810D02*
X0237100Y0157810D01*
X0237100Y0158408D02*
X0214900Y0158408D01*
X0214900Y0159007D02*
X0237100Y0159007D01*
X0237100Y0159605D02*
X0214900Y0159605D01*
X0214900Y0160204D02*
X0237100Y0160204D01*
X0237100Y0160803D02*
X0214900Y0160803D01*
X0214900Y0161401D02*
X0237100Y0161401D01*
X0237100Y0162000D02*
X0214900Y0162000D01*
X0214900Y0162598D02*
X0237100Y0162598D01*
X0237100Y0163197D02*
X0214900Y0163197D01*
X0214900Y0163795D02*
X0237100Y0163795D01*
X0237100Y0164394D02*
X0214900Y0164394D01*
X0214810Y0164992D02*
X0237190Y0164992D01*
X0237438Y0165591D02*
X0214562Y0165591D01*
X0214315Y0166189D02*
X0237685Y0166189D01*
X0238272Y0166788D02*
X0213728Y0166788D01*
X0213016Y0167386D02*
X0238984Y0167386D01*
X0244900Y0160204D02*
X0246700Y0160204D01*
X0246700Y0160700D02*
X0246700Y0157662D01*
X0246806Y0156993D01*
X0247015Y0156349D01*
X0247322Y0155746D01*
X0247720Y0155199D01*
X0248199Y0154720D01*
X0248746Y0154322D01*
X0249349Y0154015D01*
X0249993Y0153806D01*
X0250662Y0153700D01*
X0250700Y0153700D01*
X0250700Y0160700D01*
X0246700Y0160700D01*
X0246700Y0159605D02*
X0244900Y0159605D01*
X0244900Y0159007D02*
X0246700Y0159007D01*
X0246700Y0158408D02*
X0244900Y0158408D01*
X0244900Y0157810D02*
X0246700Y0157810D01*
X0246771Y0157211D02*
X0244895Y0157211D01*
X0244647Y0156613D02*
X0246929Y0156613D01*
X0247186Y0156014D02*
X0244399Y0156014D01*
X0243931Y0155416D02*
X0247562Y0155416D01*
X0248101Y0154817D02*
X0243333Y0154817D01*
X0242063Y0154219D02*
X0248949Y0154219D01*
X0250700Y0154219D02*
X0251300Y0154219D01*
X0251300Y0154817D02*
X0250700Y0154817D01*
X0250700Y0155416D02*
X0251300Y0155416D01*
X0251300Y0156014D02*
X0250700Y0156014D01*
X0250700Y0156613D02*
X0251300Y0156613D01*
X0251300Y0157211D02*
X0250700Y0157211D01*
X0250700Y0157810D02*
X0251300Y0157810D01*
X0251300Y0158408D02*
X0250700Y0158408D01*
X0250700Y0159007D02*
X0251300Y0159007D01*
X0251300Y0159605D02*
X0250700Y0159605D01*
X0250700Y0160204D02*
X0251300Y0160204D01*
X0251300Y0162000D02*
X0250700Y0162000D01*
X0250700Y0162598D02*
X0251300Y0162598D01*
X0251300Y0163197D02*
X0250700Y0163197D01*
X0250700Y0163795D02*
X0251300Y0163795D01*
X0251300Y0164394D02*
X0250700Y0164394D01*
X0250700Y0164992D02*
X0251300Y0164992D01*
X0251300Y0165591D02*
X0250700Y0165591D01*
X0250700Y0166189D02*
X0251300Y0166189D01*
X0251300Y0166788D02*
X0250700Y0166788D01*
X0250700Y0167386D02*
X0251300Y0167386D01*
X0251300Y0167985D02*
X0250700Y0167985D01*
X0252651Y0167985D02*
X0275401Y0167985D01*
X0275401Y0168583D02*
X0146000Y0168583D01*
X0146000Y0167985D02*
X0169349Y0167985D01*
X0168345Y0167386D02*
X0163016Y0167386D01*
X0163209Y0167306D02*
X0161776Y0167900D01*
X0160224Y0167900D01*
X0158791Y0167306D01*
X0157694Y0166209D01*
X0157100Y0164776D01*
X0157100Y0157224D01*
X0157694Y0155791D01*
X0158791Y0154694D01*
X0160224Y0154100D01*
X0161776Y0154100D01*
X0163209Y0154694D01*
X0164306Y0155791D01*
X0164900Y0157224D01*
X0164900Y0164776D01*
X0164306Y0166209D01*
X0163209Y0167306D01*
X0163728Y0166788D02*
X0167710Y0166788D01*
X0167289Y0166189D02*
X0164315Y0166189D01*
X0164562Y0165591D02*
X0166996Y0165591D01*
X0166804Y0164992D02*
X0164810Y0164992D01*
X0164900Y0164394D02*
X0166709Y0164394D01*
X0166700Y0163795D02*
X0164900Y0163795D01*
X0164900Y0163197D02*
X0166700Y0163197D01*
X0166700Y0162598D02*
X0164900Y0162598D01*
X0164900Y0162000D02*
X0166700Y0162000D01*
X0166700Y0161401D02*
X0164900Y0161401D01*
X0164900Y0160803D02*
X0170700Y0160803D01*
X0170700Y0160204D02*
X0171300Y0160204D01*
X0171300Y0159605D02*
X0170700Y0159605D01*
X0170700Y0159007D02*
X0171300Y0159007D01*
X0171300Y0158408D02*
X0170700Y0158408D01*
X0170700Y0157810D02*
X0171300Y0157810D01*
X0171300Y0157211D02*
X0170700Y0157211D01*
X0170700Y0156613D02*
X0171300Y0156613D01*
X0171300Y0156014D02*
X0170700Y0156014D01*
X0170700Y0155416D02*
X0171300Y0155416D01*
X0171300Y0154817D02*
X0170700Y0154817D01*
X0170700Y0154219D02*
X0171300Y0154219D01*
X0168949Y0154219D02*
X0162063Y0154219D01*
X0163333Y0154817D02*
X0168101Y0154817D01*
X0167562Y0155416D02*
X0163931Y0155416D01*
X0164399Y0156014D02*
X0167186Y0156014D01*
X0166929Y0156613D02*
X0164647Y0156613D01*
X0164895Y0157211D02*
X0166771Y0157211D01*
X0166700Y0157810D02*
X0164900Y0157810D01*
X0164900Y0158408D02*
X0166700Y0158408D01*
X0166700Y0159007D02*
X0164900Y0159007D01*
X0164900Y0159605D02*
X0166700Y0159605D01*
X0166700Y0160204D02*
X0164900Y0160204D01*
X0159937Y0154219D02*
X0146000Y0154219D01*
X0146000Y0154817D02*
X0158667Y0154817D01*
X0158069Y0155416D02*
X0146000Y0155416D01*
X0146000Y0156014D02*
X0157601Y0156014D01*
X0157353Y0156613D02*
X0146000Y0156613D01*
X0146000Y0157211D02*
X0157105Y0157211D01*
X0157100Y0157810D02*
X0146000Y0157810D01*
X0146000Y0158408D02*
X0157100Y0158408D01*
X0157100Y0159007D02*
X0146000Y0159007D01*
X0146000Y0159605D02*
X0157100Y0159605D01*
X0157100Y0160204D02*
X0146000Y0160204D01*
X0146000Y0160803D02*
X0157100Y0160803D01*
X0157100Y0161401D02*
X0146000Y0161401D01*
X0146000Y0162000D02*
X0157100Y0162000D01*
X0157100Y0162598D02*
X0146000Y0162598D01*
X0146000Y0163197D02*
X0157100Y0163197D01*
X0157100Y0163795D02*
X0146000Y0163795D01*
X0146000Y0164394D02*
X0157100Y0164394D01*
X0157190Y0164992D02*
X0146000Y0164992D01*
X0146000Y0165591D02*
X0157438Y0165591D01*
X0157685Y0166189D02*
X0146000Y0166189D01*
X0146000Y0166788D02*
X0158272Y0166788D01*
X0158984Y0167386D02*
X0146000Y0167386D01*
X0146000Y0169182D02*
X0275401Y0169182D01*
X0275401Y0169780D02*
X0146000Y0169780D01*
X0146000Y0170379D02*
X0275401Y0170379D01*
X0275401Y0170977D02*
X0146000Y0170977D01*
X0141700Y0168100D02*
X0114100Y0168100D01*
X0112900Y0169300D01*
X0049300Y0169300D01*
X0041000Y0161000D01*
X0091000Y0160900D02*
X0091000Y0161000D01*
X0091000Y0160900D02*
X0117400Y0134500D01*
X0142600Y0134500D01*
X0146000Y0147037D02*
X0275401Y0147037D01*
X0275401Y0147635D02*
X0146000Y0147635D01*
X0146000Y0148234D02*
X0275401Y0148234D01*
X0275401Y0148832D02*
X0146000Y0148832D01*
X0146000Y0149431D02*
X0275401Y0149431D01*
X0275401Y0150029D02*
X0146000Y0150029D01*
X0146000Y0150628D02*
X0275401Y0150628D01*
X0275401Y0151226D02*
X0146000Y0151226D01*
X0146000Y0151825D02*
X0275401Y0151825D01*
X0275401Y0152423D02*
X0146000Y0152423D01*
X0146000Y0153022D02*
X0275401Y0153022D01*
X0275401Y0153620D02*
X0146000Y0153620D01*
X0205643Y0118907D02*
X0205710Y0118907D01*
X0171300Y0099754D02*
X0170700Y0099754D01*
X0170700Y0099156D02*
X0171300Y0099156D01*
X0171300Y0098557D02*
X0170700Y0098557D01*
X0170700Y0097959D02*
X0171300Y0097959D01*
X0171300Y0097360D02*
X0170700Y0097360D01*
X0170700Y0096762D02*
X0171300Y0096762D01*
X0171300Y0094966D02*
X0170700Y0094966D01*
X0170700Y0094368D02*
X0171300Y0094368D01*
X0171300Y0093769D02*
X0170700Y0093769D01*
X0170700Y0093171D02*
X0171300Y0093171D01*
X0171300Y0092572D02*
X0170700Y0092572D01*
X0139000Y0103900D02*
X0123700Y0103900D01*
X0091000Y0071200D01*
X0091000Y0071000D01*
X0104500Y0107500D02*
X0101000Y0111000D01*
X0104500Y0107500D02*
X0118000Y0107500D01*
X0178579Y0038706D02*
X0194374Y0038706D01*
X0193167Y0038108D02*
X0179398Y0038108D01*
X0179953Y0037509D02*
X0192569Y0037509D01*
X0192041Y0036911D02*
X0180357Y0036911D01*
X0180650Y0036312D02*
X0191793Y0036312D01*
X0191545Y0035714D02*
X0180845Y0035714D01*
X0180949Y0035115D02*
X0191418Y0035115D01*
X0191418Y0034517D02*
X0180982Y0034517D01*
X0180982Y0033918D02*
X0191418Y0033918D01*
X0191418Y0033320D02*
X0180982Y0033320D01*
X0180982Y0032721D02*
X0191418Y0032721D01*
X0191418Y0032123D02*
X0180982Y0032123D01*
X0179243Y0018500D02*
X0179243Y0018500D01*
X0193730Y0013569D02*
X0194012Y0013569D01*
X0195019Y0013569D02*
X0195287Y0013569D01*
X0196295Y0013569D02*
X0197422Y0013569D01*
X0198192Y0013569D02*
X0275401Y0013569D01*
X0275401Y0014167D02*
X0256938Y0014167D01*
X0258281Y0014766D02*
X0275401Y0014766D01*
X0275401Y0015364D02*
X0258880Y0015364D01*
X0259377Y0015963D02*
X0275401Y0015963D01*
X0275401Y0016561D02*
X0259625Y0016561D01*
X0259873Y0017160D02*
X0275401Y0017160D01*
X0275401Y0017758D02*
X0259900Y0017758D01*
X0259900Y0018357D02*
X0275401Y0018357D01*
X0275401Y0018955D02*
X0259900Y0018955D01*
X0259900Y0019554D02*
X0275401Y0019554D01*
X0275401Y0020152D02*
X0259900Y0020152D01*
X0259900Y0020751D02*
X0275401Y0020751D01*
X0275401Y0021349D02*
X0259900Y0021349D01*
X0259900Y0021948D02*
X0275401Y0021948D01*
X0275401Y0022546D02*
X0259900Y0022546D01*
X0259900Y0023145D02*
X0275401Y0023145D01*
X0275401Y0023743D02*
X0259900Y0023743D01*
X0259900Y0024342D02*
X0275401Y0024342D01*
X0275401Y0024940D02*
X0259832Y0024940D01*
X0259584Y0025539D02*
X0275401Y0025539D01*
X0275401Y0026137D02*
X0259336Y0026137D01*
X0258779Y0026736D02*
X0275401Y0026736D01*
X0275401Y0027334D02*
X0258141Y0027334D01*
X0257887Y0028416D02*
X0258210Y0028577D01*
X0258552Y0028691D01*
X0258589Y0028767D01*
X0258665Y0028805D01*
X0258779Y0029147D01*
X0258941Y0029469D01*
X0258914Y0029550D01*
X0259907Y0032531D01*
X0259518Y0033309D01*
X0258693Y0033584D01*
X0257915Y0033195D01*
X0257807Y0032870D01*
X0257699Y0033195D01*
X0256921Y0033584D01*
X0256397Y0033409D01*
X0256306Y0033500D01*
X0255275Y0033500D01*
X0254660Y0032885D01*
X0254660Y0032533D01*
X0253075Y0032533D01*
X0252176Y0031635D01*
X0252176Y0031000D01*
X0252176Y0030565D01*
X0252176Y0030565D01*
X0252176Y0029115D01*
X0252792Y0028500D01*
X0253661Y0028500D01*
X0253871Y0028710D01*
X0254080Y0028500D01*
X0254950Y0028500D01*
X0255153Y0028703D01*
X0255356Y0028500D01*
X0256226Y0028500D01*
X0256841Y0029115D01*
X0256841Y0029128D01*
X0256948Y0028805D01*
X0257024Y0028767D01*
X0257062Y0028691D01*
X0257404Y0028577D01*
X0257726Y0028416D01*
X0257807Y0028443D01*
X0257887Y0028416D01*
X0258118Y0028532D02*
X0275401Y0028532D01*
X0275401Y0029130D02*
X0258774Y0029130D01*
X0258973Y0029729D02*
X0275401Y0029729D01*
X0275401Y0030327D02*
X0259173Y0030327D01*
X0259372Y0030926D02*
X0275401Y0030926D01*
X0275401Y0031524D02*
X0259572Y0031524D01*
X0259771Y0032123D02*
X0275401Y0032123D01*
X0275401Y0032721D02*
X0259812Y0032721D01*
X0259485Y0033320D02*
X0275401Y0033320D01*
X0275401Y0027933D02*
X0247753Y0027933D01*
X0247375Y0028532D02*
X0246878Y0028532D01*
X0248726Y0027334D02*
X0253859Y0027334D01*
X0253221Y0026736D02*
X0249327Y0026736D01*
X0249737Y0026137D02*
X0252664Y0026137D01*
X0252416Y0025539D02*
X0250021Y0025539D01*
X0250205Y0024940D02*
X0252168Y0024940D01*
X0252100Y0024342D02*
X0250299Y0024342D01*
X0250300Y0023743D02*
X0252100Y0023743D01*
X0252100Y0023145D02*
X0250300Y0023145D01*
X0250300Y0022546D02*
X0252100Y0022546D01*
X0252100Y0021948D02*
X0250300Y0021948D01*
X0250300Y0021349D02*
X0252100Y0021349D01*
X0252760Y0028532D02*
X0249317Y0028532D01*
X0250049Y0028954D02*
X0250049Y0028954D01*
X0250049Y0028954D01*
X0250151Y0029130D02*
X0252176Y0029130D01*
X0252176Y0029729D02*
X0250496Y0029729D01*
X0250503Y0030327D02*
X0252176Y0030327D01*
X0252176Y0030926D02*
X0250503Y0030926D01*
X0250503Y0031524D02*
X0252176Y0031524D01*
X0252176Y0031635D02*
X0252176Y0031635D01*
X0252664Y0032123D02*
X0250503Y0032123D01*
X0250236Y0032721D02*
X0254660Y0032721D01*
X0255095Y0033320D02*
X0249575Y0033320D01*
X0249243Y0033500D02*
X0249243Y0033500D01*
X0247227Y0033320D02*
X0243162Y0033320D01*
X0243597Y0032721D02*
X0246792Y0032721D01*
X0244560Y0032123D02*
X0244475Y0032123D01*
X0244475Y0032122D02*
X0244475Y0032122D01*
X0253693Y0028532D02*
X0254049Y0028532D01*
X0254982Y0028532D02*
X0255324Y0028532D01*
X0256257Y0028532D02*
X0257496Y0028532D01*
X0257449Y0033320D02*
X0258165Y0033320D01*
X0259363Y0045290D02*
X0252637Y0045290D01*
X0253438Y0045888D02*
X0258562Y0045888D01*
X0258004Y0046487D02*
X0253996Y0046487D01*
X0254244Y0047085D02*
X0257756Y0047085D01*
X0257508Y0047684D02*
X0254492Y0047684D01*
X0254500Y0048282D02*
X0257500Y0048282D01*
X0257500Y0048881D02*
X0254500Y0048881D01*
X0254500Y0049479D02*
X0257500Y0049479D01*
X0257500Y0050078D02*
X0254500Y0050078D01*
X0254500Y0050676D02*
X0257500Y0050676D01*
X0257500Y0051275D02*
X0254500Y0051275D01*
X0254500Y0051873D02*
X0257500Y0051873D01*
X0257500Y0052472D02*
X0254500Y0052472D01*
X0254500Y0053070D02*
X0257500Y0053070D01*
X0257500Y0053669D02*
X0254500Y0053669D01*
X0254500Y0054268D02*
X0257500Y0054268D01*
X0257736Y0054866D02*
X0254264Y0054866D01*
X0254016Y0055465D02*
X0257984Y0055465D01*
X0258513Y0056063D02*
X0253487Y0056063D01*
X0252755Y0056662D02*
X0259245Y0056662D01*
X0242279Y0074018D02*
X0241862Y0074018D01*
X0241800Y0073911D02*
X0241800Y0073911D01*
X0241800Y0073911D01*
X0244900Y0111725D02*
X0246700Y0111725D01*
X0246700Y0112323D02*
X0244900Y0112323D01*
X0244900Y0112922D02*
X0246700Y0112922D01*
X0246700Y0113520D02*
X0244900Y0113520D01*
X0244900Y0114119D02*
X0246700Y0114119D01*
X0246760Y0114717D02*
X0244900Y0114717D01*
X0244676Y0115316D02*
X0246906Y0115316D01*
X0247149Y0115914D02*
X0244428Y0115914D01*
X0244003Y0116513D02*
X0247510Y0116513D01*
X0248030Y0117111D02*
X0243404Y0117111D01*
X0242235Y0117710D02*
X0248809Y0117710D01*
X0266986Y0117111D02*
X0268596Y0117111D01*
X0267997Y0116513D02*
X0267100Y0116513D01*
X0270224Y0154100D02*
X0271776Y0154100D01*
X0273209Y0154694D01*
X0274306Y0155791D01*
X0274900Y0157224D01*
X0274900Y0164776D01*
X0274306Y0166209D01*
X0273209Y0167306D01*
X0271776Y0167900D01*
X0270224Y0167900D01*
X0268791Y0167306D01*
X0267694Y0166209D01*
X0267100Y0164776D01*
X0267100Y0157224D01*
X0267694Y0155791D01*
X0268791Y0154694D01*
X0270224Y0154100D01*
X0269937Y0154219D02*
X0262063Y0154219D01*
X0263333Y0154817D02*
X0268667Y0154817D01*
X0268069Y0155416D02*
X0263931Y0155416D01*
X0264399Y0156014D02*
X0267601Y0156014D01*
X0267353Y0156613D02*
X0264647Y0156613D01*
X0264895Y0157211D02*
X0267105Y0157211D01*
X0267100Y0157810D02*
X0264900Y0157810D01*
X0264900Y0158408D02*
X0267100Y0158408D01*
X0267100Y0159007D02*
X0264900Y0159007D01*
X0264900Y0159605D02*
X0267100Y0159605D01*
X0267100Y0160204D02*
X0264900Y0160204D01*
X0264900Y0160803D02*
X0267100Y0160803D01*
X0267100Y0161401D02*
X0264900Y0161401D01*
X0264900Y0162000D02*
X0267100Y0162000D01*
X0267100Y0162598D02*
X0264900Y0162598D01*
X0264900Y0163197D02*
X0267100Y0163197D01*
X0267100Y0163795D02*
X0264900Y0163795D01*
X0264900Y0164394D02*
X0267100Y0164394D01*
X0267190Y0164992D02*
X0264810Y0164992D01*
X0264562Y0165591D02*
X0267438Y0165591D01*
X0267685Y0166189D02*
X0264315Y0166189D01*
X0263728Y0166788D02*
X0268272Y0166788D01*
X0268984Y0167386D02*
X0263016Y0167386D01*
X0258984Y0167386D02*
X0253655Y0167386D01*
X0254290Y0166788D02*
X0258272Y0166788D01*
X0257685Y0166189D02*
X0254711Y0166189D01*
X0255004Y0165591D02*
X0257438Y0165591D01*
X0257190Y0164992D02*
X0255196Y0164992D01*
X0255291Y0164394D02*
X0257100Y0164394D01*
X0257100Y0163795D02*
X0255300Y0163795D01*
X0255300Y0163197D02*
X0257100Y0163197D01*
X0257100Y0162598D02*
X0255300Y0162598D01*
X0255300Y0162000D02*
X0257100Y0162000D01*
X0257100Y0161401D02*
X0255300Y0161401D01*
X0272063Y0154219D02*
X0275401Y0154219D01*
X0275401Y0154817D02*
X0273333Y0154817D01*
X0273931Y0155416D02*
X0275401Y0155416D01*
X0275401Y0156014D02*
X0274399Y0156014D01*
X0274647Y0156613D02*
X0275401Y0156613D01*
X0275401Y0157211D02*
X0274895Y0157211D01*
X0274900Y0157810D02*
X0275401Y0157810D01*
X0275401Y0158408D02*
X0274900Y0158408D01*
X0274900Y0159007D02*
X0275401Y0159007D01*
X0275401Y0159605D02*
X0274900Y0159605D01*
X0274900Y0160204D02*
X0275401Y0160204D01*
X0275401Y0160803D02*
X0274900Y0160803D01*
X0274900Y0161401D02*
X0275401Y0161401D01*
X0275401Y0162000D02*
X0274900Y0162000D01*
X0274900Y0162598D02*
X0275401Y0162598D01*
X0275401Y0163197D02*
X0274900Y0163197D01*
X0274900Y0163795D02*
X0275401Y0163795D01*
X0275401Y0164394D02*
X0274900Y0164394D01*
X0274810Y0164992D02*
X0275401Y0164992D01*
X0275401Y0165591D02*
X0274562Y0165591D01*
X0274315Y0166189D02*
X0275401Y0166189D01*
X0275401Y0166788D02*
X0273728Y0166788D01*
X0273016Y0167386D02*
X0275401Y0167386D01*
X0241700Y0017758D02*
X0199793Y0017758D01*
X0199784Y0017160D02*
X0241779Y0017160D01*
X0241946Y0016561D02*
X0199584Y0016561D01*
X0199385Y0015963D02*
X0242212Y0015963D01*
X0242600Y0015364D02*
X0199185Y0015364D01*
X0198986Y0014766D02*
X0243153Y0014766D01*
X0244051Y0014167D02*
X0198789Y0014167D01*
D18*
X0241000Y0086000D02*
X0241000Y0090700D01*
X0237700Y0094000D01*
X0237700Y0103300D01*
X0241000Y0106600D01*
X0241000Y0111000D01*
X0111100Y0111100D02*
X0111000Y0111000D01*
X0111100Y0111100D02*
X0111100Y0115300D01*
X0084100Y0115300D01*
X0041200Y0072400D01*
X0041200Y0071200D01*
X0041000Y0071000D01*
X0051000Y0071000D02*
X0051100Y0070900D01*
X0051100Y0061000D01*
X0111100Y0115300D02*
X0111100Y0130900D01*
X0111000Y0131000D01*
D19*
X0118000Y0107500D03*
X0141700Y0168100D03*
X0253600Y0095500D03*
M02*
