G75*
%MOIN*%
%OFA0B0*%
%FSLAX25Y25*%
%IPPOS*%
%LPD*%
%AMOC8*
5,1,8,0,0,1.08239X$1,22.5*
%
%ADD10C,0.00300*%
%ADD11C,0.06000*%
%ADD12C,0.07050*%
%ADD13C,0.07200*%
%ADD14OC8,0.05200*%
%ADD15C,0.07400*%
%ADD16C,0.05200*%
%ADD17C,0.00600*%
%ADD18C,0.02000*%
%ADD19C,0.02978*%
D10*
X0064528Y0014806D02*
X0065494Y0017706D01*
X0066461Y0014806D01*
X0066219Y0015531D02*
X0064769Y0015531D01*
X0067665Y0015611D02*
X0067665Y0016900D01*
X0067664Y0016900D02*
X0067666Y0016955D01*
X0067672Y0017010D01*
X0067681Y0017064D01*
X0067694Y0017117D01*
X0067711Y0017170D01*
X0067731Y0017221D01*
X0067754Y0017271D01*
X0067781Y0017319D01*
X0067812Y0017365D01*
X0067845Y0017409D01*
X0067881Y0017450D01*
X0067920Y0017489D01*
X0067961Y0017525D01*
X0068005Y0017558D01*
X0068051Y0017589D01*
X0068099Y0017616D01*
X0068149Y0017639D01*
X0068200Y0017659D01*
X0068253Y0017676D01*
X0068306Y0017689D01*
X0068360Y0017698D01*
X0068415Y0017704D01*
X0068470Y0017706D01*
X0069276Y0017706D01*
X0069276Y0014806D01*
X0068470Y0014806D01*
X0068470Y0014805D02*
X0068415Y0014807D01*
X0068360Y0014813D01*
X0068306Y0014822D01*
X0068253Y0014835D01*
X0068200Y0014852D01*
X0068149Y0014872D01*
X0068099Y0014895D01*
X0068051Y0014922D01*
X0068005Y0014953D01*
X0067961Y0014986D01*
X0067920Y0015022D01*
X0067881Y0015061D01*
X0067845Y0015102D01*
X0067812Y0015146D01*
X0067781Y0015192D01*
X0067754Y0015240D01*
X0067731Y0015290D01*
X0067711Y0015341D01*
X0067694Y0015394D01*
X0067681Y0015447D01*
X0067672Y0015501D01*
X0067666Y0015556D01*
X0067664Y0015611D01*
X0070867Y0016014D02*
X0071753Y0016498D01*
X0071431Y0017706D02*
X0071366Y0017704D01*
X0071302Y0017699D01*
X0071237Y0017690D01*
X0071174Y0017678D01*
X0071111Y0017663D01*
X0071049Y0017644D01*
X0070988Y0017622D01*
X0070929Y0017597D01*
X0070870Y0017568D01*
X0070814Y0017536D01*
X0070759Y0017502D01*
X0070706Y0017464D01*
X0071754Y0016497D02*
X0071794Y0016523D01*
X0071833Y0016552D01*
X0071870Y0016584D01*
X0071904Y0016619D01*
X0071935Y0016656D01*
X0071964Y0016695D01*
X0071990Y0016736D01*
X0072012Y0016779D01*
X0072031Y0016824D01*
X0072047Y0016870D01*
X0072060Y0016916D01*
X0072069Y0016964D01*
X0072074Y0017012D01*
X0072076Y0017061D01*
X0072075Y0017061D02*
X0072073Y0017109D01*
X0072068Y0017157D01*
X0072059Y0017204D01*
X0072046Y0017251D01*
X0072030Y0017296D01*
X0072011Y0017340D01*
X0071989Y0017383D01*
X0071963Y0017424D01*
X0071934Y0017463D01*
X0071903Y0017499D01*
X0071869Y0017533D01*
X0071833Y0017564D01*
X0071794Y0017593D01*
X0071753Y0017619D01*
X0071710Y0017641D01*
X0071666Y0017660D01*
X0071621Y0017676D01*
X0071574Y0017689D01*
X0071527Y0017698D01*
X0071479Y0017703D01*
X0071431Y0017705D01*
X0072155Y0015209D02*
X0072104Y0015159D01*
X0072049Y0015112D01*
X0071993Y0015069D01*
X0071934Y0015028D01*
X0071873Y0014990D01*
X0071810Y0014956D01*
X0071745Y0014925D01*
X0071679Y0014897D01*
X0071612Y0014873D01*
X0071543Y0014853D01*
X0071473Y0014836D01*
X0071403Y0014823D01*
X0071332Y0014814D01*
X0071261Y0014808D01*
X0071189Y0014806D01*
X0071141Y0014808D01*
X0071093Y0014813D01*
X0071046Y0014822D01*
X0070999Y0014835D01*
X0070954Y0014851D01*
X0070910Y0014870D01*
X0070867Y0014892D01*
X0070826Y0014918D01*
X0070787Y0014946D01*
X0070751Y0014978D01*
X0070717Y0015012D01*
X0070686Y0015048D01*
X0070657Y0015087D01*
X0070631Y0015128D01*
X0070609Y0015171D01*
X0070590Y0015215D01*
X0070574Y0015260D01*
X0070561Y0015307D01*
X0070552Y0015354D01*
X0070547Y0015402D01*
X0070545Y0015450D01*
X0070547Y0015498D01*
X0070552Y0015547D01*
X0070561Y0015594D01*
X0070574Y0015641D01*
X0070589Y0015687D01*
X0070609Y0015732D01*
X0070631Y0015774D01*
X0070657Y0015816D01*
X0070685Y0015855D01*
X0070717Y0015892D01*
X0070751Y0015926D01*
X0070787Y0015958D01*
X0070826Y0015987D01*
X0070867Y0016013D01*
X0068210Y0024806D02*
X0067566Y0024806D01*
X0068210Y0024806D02*
X0068258Y0024808D01*
X0068306Y0024813D01*
X0068353Y0024822D01*
X0068400Y0024835D01*
X0068445Y0024851D01*
X0068489Y0024870D01*
X0068532Y0024892D01*
X0068573Y0024918D01*
X0068612Y0024947D01*
X0068648Y0024978D01*
X0068682Y0025012D01*
X0068713Y0025048D01*
X0068742Y0025087D01*
X0068768Y0025128D01*
X0068790Y0025171D01*
X0068809Y0025215D01*
X0068825Y0025260D01*
X0068838Y0025307D01*
X0068847Y0025354D01*
X0068852Y0025402D01*
X0068854Y0025450D01*
X0068854Y0027061D01*
X0068852Y0027109D01*
X0068847Y0027157D01*
X0068838Y0027204D01*
X0068825Y0027251D01*
X0068809Y0027296D01*
X0068790Y0027340D01*
X0068768Y0027383D01*
X0068742Y0027424D01*
X0068713Y0027463D01*
X0068682Y0027499D01*
X0068648Y0027533D01*
X0068612Y0027564D01*
X0068573Y0027593D01*
X0068532Y0027619D01*
X0068489Y0027641D01*
X0068445Y0027660D01*
X0068400Y0027676D01*
X0068353Y0027689D01*
X0068306Y0027698D01*
X0068258Y0027703D01*
X0068210Y0027705D01*
X0068210Y0027706D02*
X0067566Y0027706D01*
X0066343Y0027706D02*
X0066343Y0024806D01*
X0065054Y0024806D01*
X0070340Y0026014D02*
X0071227Y0026498D01*
X0070904Y0027706D02*
X0070839Y0027704D01*
X0070775Y0027699D01*
X0070710Y0027690D01*
X0070647Y0027678D01*
X0070584Y0027663D01*
X0070522Y0027644D01*
X0070461Y0027622D01*
X0070402Y0027597D01*
X0070343Y0027568D01*
X0070287Y0027536D01*
X0070232Y0027502D01*
X0070179Y0027464D01*
X0071227Y0026497D02*
X0071267Y0026523D01*
X0071306Y0026552D01*
X0071343Y0026584D01*
X0071377Y0026619D01*
X0071408Y0026656D01*
X0071437Y0026695D01*
X0071463Y0026736D01*
X0071485Y0026779D01*
X0071504Y0026824D01*
X0071520Y0026870D01*
X0071533Y0026916D01*
X0071542Y0026964D01*
X0071547Y0027012D01*
X0071549Y0027061D01*
X0071548Y0027061D02*
X0071546Y0027109D01*
X0071541Y0027157D01*
X0071532Y0027204D01*
X0071519Y0027251D01*
X0071503Y0027296D01*
X0071484Y0027340D01*
X0071462Y0027383D01*
X0071436Y0027424D01*
X0071407Y0027463D01*
X0071376Y0027499D01*
X0071342Y0027533D01*
X0071306Y0027564D01*
X0071267Y0027593D01*
X0071226Y0027619D01*
X0071183Y0027641D01*
X0071139Y0027660D01*
X0071094Y0027676D01*
X0071047Y0027689D01*
X0071000Y0027698D01*
X0070952Y0027703D01*
X0070904Y0027705D01*
X0071629Y0025209D02*
X0071578Y0025159D01*
X0071523Y0025112D01*
X0071467Y0025069D01*
X0071408Y0025028D01*
X0071347Y0024990D01*
X0071284Y0024956D01*
X0071219Y0024925D01*
X0071153Y0024897D01*
X0071086Y0024873D01*
X0071017Y0024853D01*
X0070947Y0024836D01*
X0070877Y0024823D01*
X0070806Y0024814D01*
X0070735Y0024808D01*
X0070663Y0024806D01*
X0070615Y0024808D01*
X0070567Y0024813D01*
X0070520Y0024822D01*
X0070473Y0024835D01*
X0070428Y0024851D01*
X0070384Y0024870D01*
X0070341Y0024892D01*
X0070300Y0024918D01*
X0070261Y0024946D01*
X0070225Y0024978D01*
X0070191Y0025012D01*
X0070160Y0025048D01*
X0070131Y0025087D01*
X0070105Y0025128D01*
X0070083Y0025171D01*
X0070064Y0025215D01*
X0070048Y0025260D01*
X0070035Y0025307D01*
X0070026Y0025354D01*
X0070021Y0025402D01*
X0070019Y0025450D01*
X0070021Y0025498D01*
X0070026Y0025547D01*
X0070035Y0025594D01*
X0070048Y0025641D01*
X0070063Y0025687D01*
X0070083Y0025732D01*
X0070105Y0025774D01*
X0070131Y0025816D01*
X0070159Y0025855D01*
X0070191Y0025892D01*
X0070225Y0025926D01*
X0070261Y0025958D01*
X0070300Y0025987D01*
X0070341Y0026013D01*
X0070184Y0034806D02*
X0071150Y0034806D01*
X0071198Y0034808D01*
X0071246Y0034813D01*
X0071293Y0034822D01*
X0071340Y0034835D01*
X0071385Y0034851D01*
X0071429Y0034870D01*
X0071472Y0034892D01*
X0071513Y0034918D01*
X0071552Y0034947D01*
X0071588Y0034978D01*
X0071622Y0035012D01*
X0071653Y0035048D01*
X0071682Y0035087D01*
X0071708Y0035128D01*
X0071730Y0035171D01*
X0071749Y0035215D01*
X0071765Y0035260D01*
X0071778Y0035307D01*
X0071787Y0035354D01*
X0071792Y0035402D01*
X0071794Y0035450D01*
X0071795Y0035450D02*
X0071795Y0037061D01*
X0071794Y0037061D02*
X0071792Y0037109D01*
X0071787Y0037157D01*
X0071778Y0037204D01*
X0071765Y0037251D01*
X0071749Y0037296D01*
X0071730Y0037340D01*
X0071708Y0037383D01*
X0071682Y0037424D01*
X0071653Y0037463D01*
X0071622Y0037499D01*
X0071588Y0037533D01*
X0071552Y0037564D01*
X0071513Y0037593D01*
X0071472Y0037619D01*
X0071429Y0037641D01*
X0071385Y0037660D01*
X0071340Y0037676D01*
X0071293Y0037689D01*
X0071246Y0037698D01*
X0071198Y0037703D01*
X0071150Y0037705D01*
X0071150Y0037706D02*
X0070184Y0037706D01*
X0070184Y0036417D02*
X0070184Y0034806D01*
X0068754Y0034806D02*
X0068754Y0036739D01*
X0067948Y0036739D01*
X0067906Y0036737D01*
X0067864Y0036732D01*
X0067823Y0036723D01*
X0067783Y0036710D01*
X0067744Y0036694D01*
X0067707Y0036674D01*
X0067671Y0036652D01*
X0067638Y0036626D01*
X0067606Y0036598D01*
X0067578Y0036566D01*
X0067552Y0036533D01*
X0067530Y0036498D01*
X0067510Y0036460D01*
X0067494Y0036421D01*
X0067481Y0036381D01*
X0067472Y0036340D01*
X0067467Y0036298D01*
X0067465Y0036256D01*
X0067465Y0034806D01*
X0066178Y0035289D02*
X0066178Y0036256D01*
X0066177Y0036256D02*
X0066175Y0036298D01*
X0066170Y0036340D01*
X0066161Y0036381D01*
X0066148Y0036421D01*
X0066132Y0036460D01*
X0066112Y0036498D01*
X0066090Y0036533D01*
X0066064Y0036566D01*
X0066036Y0036598D01*
X0066004Y0036626D01*
X0065971Y0036652D01*
X0065936Y0036674D01*
X0065898Y0036694D01*
X0065859Y0036710D01*
X0065819Y0036723D01*
X0065778Y0036732D01*
X0065736Y0036737D01*
X0065694Y0036739D01*
X0064889Y0036739D01*
X0064889Y0037706D02*
X0064889Y0034806D01*
X0065694Y0034806D01*
X0065736Y0034808D01*
X0065778Y0034813D01*
X0065819Y0034822D01*
X0065859Y0034835D01*
X0065898Y0034851D01*
X0065936Y0034871D01*
X0065971Y0034893D01*
X0066004Y0034919D01*
X0066036Y0034947D01*
X0066064Y0034979D01*
X0066090Y0035012D01*
X0066112Y0035048D01*
X0066132Y0035085D01*
X0066148Y0035124D01*
X0066161Y0035164D01*
X0066170Y0035205D01*
X0066175Y0035247D01*
X0066177Y0035289D01*
X0070184Y0036417D02*
X0070667Y0036417D01*
X0070736Y0044806D02*
X0069769Y0047706D01*
X0068670Y0047061D02*
X0068670Y0045450D01*
X0068668Y0045402D01*
X0068663Y0045354D01*
X0068654Y0045307D01*
X0068641Y0045260D01*
X0068625Y0045215D01*
X0068606Y0045171D01*
X0068584Y0045128D01*
X0068558Y0045087D01*
X0068529Y0045048D01*
X0068498Y0045012D01*
X0068464Y0044978D01*
X0068428Y0044947D01*
X0068389Y0044918D01*
X0068348Y0044892D01*
X0068305Y0044870D01*
X0068261Y0044851D01*
X0068216Y0044835D01*
X0068169Y0044822D01*
X0068122Y0044813D01*
X0068074Y0044808D01*
X0068026Y0044806D01*
X0067381Y0044806D01*
X0066270Y0045450D02*
X0066270Y0047061D01*
X0066268Y0047109D01*
X0066263Y0047157D01*
X0066254Y0047204D01*
X0066241Y0047251D01*
X0066225Y0047296D01*
X0066206Y0047340D01*
X0066184Y0047383D01*
X0066158Y0047424D01*
X0066129Y0047463D01*
X0066098Y0047499D01*
X0066064Y0047533D01*
X0066028Y0047564D01*
X0065989Y0047593D01*
X0065948Y0047619D01*
X0065905Y0047641D01*
X0065861Y0047660D01*
X0065816Y0047676D01*
X0065769Y0047689D01*
X0065722Y0047698D01*
X0065674Y0047703D01*
X0065626Y0047705D01*
X0065626Y0047706D02*
X0064981Y0047706D01*
X0066270Y0045450D02*
X0066268Y0045402D01*
X0066263Y0045354D01*
X0066254Y0045307D01*
X0066241Y0045260D01*
X0066225Y0045215D01*
X0066206Y0045171D01*
X0066184Y0045128D01*
X0066158Y0045087D01*
X0066129Y0045048D01*
X0066098Y0045012D01*
X0066064Y0044978D01*
X0066028Y0044947D01*
X0065989Y0044918D01*
X0065948Y0044892D01*
X0065905Y0044870D01*
X0065861Y0044851D01*
X0065816Y0044835D01*
X0065769Y0044822D01*
X0065722Y0044813D01*
X0065674Y0044808D01*
X0065626Y0044806D01*
X0064981Y0044806D01*
X0067381Y0047706D02*
X0068026Y0047706D01*
X0068026Y0047705D02*
X0068074Y0047703D01*
X0068122Y0047698D01*
X0068169Y0047689D01*
X0068216Y0047676D01*
X0068261Y0047660D01*
X0068305Y0047641D01*
X0068348Y0047619D01*
X0068389Y0047593D01*
X0068428Y0047564D01*
X0068464Y0047533D01*
X0068498Y0047499D01*
X0068529Y0047463D01*
X0068558Y0047424D01*
X0068584Y0047383D01*
X0068606Y0047340D01*
X0068625Y0047296D01*
X0068641Y0047251D01*
X0068654Y0047204D01*
X0068663Y0047157D01*
X0068668Y0047109D01*
X0068670Y0047061D01*
X0070736Y0044806D02*
X0071702Y0047706D01*
X0158001Y0050289D02*
X0158001Y0051256D01*
X0158003Y0051298D01*
X0158008Y0051340D01*
X0158017Y0051381D01*
X0158030Y0051421D01*
X0158046Y0051460D01*
X0158066Y0051498D01*
X0158088Y0051533D01*
X0158114Y0051566D01*
X0158142Y0051598D01*
X0158174Y0051626D01*
X0158207Y0051652D01*
X0158243Y0051674D01*
X0158280Y0051694D01*
X0158319Y0051710D01*
X0158359Y0051723D01*
X0158400Y0051732D01*
X0158442Y0051737D01*
X0158484Y0051739D01*
X0159290Y0051739D01*
X0159290Y0048839D01*
X0159290Y0049806D02*
X0158484Y0049806D01*
X0158442Y0049808D01*
X0158400Y0049813D01*
X0158359Y0049822D01*
X0158319Y0049835D01*
X0158280Y0049851D01*
X0158243Y0049871D01*
X0158207Y0049893D01*
X0158174Y0049919D01*
X0158142Y0049947D01*
X0158114Y0049979D01*
X0158088Y0050012D01*
X0158066Y0050048D01*
X0158046Y0050085D01*
X0158030Y0050124D01*
X0158017Y0050164D01*
X0158008Y0050205D01*
X0158003Y0050247D01*
X0158001Y0050289D01*
X0160609Y0049806D02*
X0161414Y0049806D01*
X0161456Y0049808D01*
X0161498Y0049813D01*
X0161539Y0049822D01*
X0161579Y0049835D01*
X0161618Y0049851D01*
X0161656Y0049871D01*
X0161691Y0049893D01*
X0161724Y0049919D01*
X0161756Y0049947D01*
X0161784Y0049979D01*
X0161810Y0050012D01*
X0161832Y0050048D01*
X0161852Y0050085D01*
X0161868Y0050124D01*
X0161881Y0050164D01*
X0161890Y0050205D01*
X0161895Y0050247D01*
X0161897Y0050289D01*
X0161898Y0050289D02*
X0161898Y0051095D01*
X0161898Y0050773D02*
X0160609Y0050773D01*
X0160609Y0051095D01*
X0160611Y0051144D01*
X0160617Y0051193D01*
X0160626Y0051242D01*
X0160639Y0051289D01*
X0160656Y0051336D01*
X0160676Y0051381D01*
X0160699Y0051424D01*
X0160726Y0051466D01*
X0160756Y0051505D01*
X0160789Y0051542D01*
X0160825Y0051576D01*
X0160863Y0051607D01*
X0160903Y0051636D01*
X0160945Y0051661D01*
X0160990Y0051683D01*
X0161035Y0051701D01*
X0161082Y0051716D01*
X0161130Y0051727D01*
X0161179Y0051735D01*
X0161228Y0051739D01*
X0161278Y0051739D01*
X0161327Y0051735D01*
X0161376Y0051727D01*
X0161424Y0051716D01*
X0161471Y0051701D01*
X0161516Y0051683D01*
X0161561Y0051661D01*
X0161603Y0051636D01*
X0161643Y0051607D01*
X0161681Y0051576D01*
X0161717Y0051542D01*
X0161750Y0051505D01*
X0161780Y0051466D01*
X0161807Y0051424D01*
X0161830Y0051381D01*
X0161850Y0051336D01*
X0161867Y0051289D01*
X0161880Y0051242D01*
X0161889Y0051193D01*
X0161895Y0051144D01*
X0161897Y0051095D01*
X0163105Y0051095D02*
X0163105Y0050773D01*
X0164394Y0050773D01*
X0164394Y0051095D02*
X0164394Y0050289D01*
X0164393Y0050289D02*
X0164391Y0050247D01*
X0164386Y0050205D01*
X0164377Y0050164D01*
X0164364Y0050124D01*
X0164348Y0050085D01*
X0164328Y0050048D01*
X0164306Y0050012D01*
X0164280Y0049979D01*
X0164252Y0049947D01*
X0164220Y0049919D01*
X0164187Y0049893D01*
X0164152Y0049871D01*
X0164114Y0049851D01*
X0164075Y0049835D01*
X0164035Y0049822D01*
X0163994Y0049813D01*
X0163952Y0049808D01*
X0163910Y0049806D01*
X0163105Y0049806D01*
X0163105Y0051095D02*
X0163107Y0051144D01*
X0163113Y0051193D01*
X0163122Y0051242D01*
X0163135Y0051289D01*
X0163152Y0051336D01*
X0163172Y0051381D01*
X0163195Y0051424D01*
X0163222Y0051466D01*
X0163252Y0051505D01*
X0163285Y0051542D01*
X0163321Y0051576D01*
X0163359Y0051607D01*
X0163399Y0051636D01*
X0163441Y0051661D01*
X0163486Y0051683D01*
X0163531Y0051701D01*
X0163578Y0051716D01*
X0163626Y0051727D01*
X0163675Y0051735D01*
X0163724Y0051739D01*
X0163774Y0051739D01*
X0163823Y0051735D01*
X0163872Y0051727D01*
X0163920Y0051716D01*
X0163967Y0051701D01*
X0164012Y0051683D01*
X0164057Y0051661D01*
X0164099Y0051636D01*
X0164139Y0051607D01*
X0164177Y0051576D01*
X0164213Y0051542D01*
X0164246Y0051505D01*
X0164276Y0051466D01*
X0164303Y0051424D01*
X0164326Y0051381D01*
X0164346Y0051336D01*
X0164363Y0051289D01*
X0164376Y0051242D01*
X0164385Y0051193D01*
X0164391Y0051144D01*
X0164393Y0051095D01*
X0165414Y0049806D02*
X0165456Y0049808D01*
X0165498Y0049813D01*
X0165539Y0049822D01*
X0165579Y0049835D01*
X0165618Y0049851D01*
X0165656Y0049871D01*
X0165691Y0049893D01*
X0165724Y0049919D01*
X0165756Y0049947D01*
X0165784Y0049979D01*
X0165810Y0050012D01*
X0165832Y0050048D01*
X0165852Y0050085D01*
X0165868Y0050124D01*
X0165881Y0050164D01*
X0165890Y0050205D01*
X0165895Y0050247D01*
X0165897Y0050289D01*
X0165897Y0052706D01*
X0168281Y0051497D02*
X0168321Y0051523D01*
X0168360Y0051552D01*
X0168397Y0051584D01*
X0168431Y0051619D01*
X0168462Y0051656D01*
X0168491Y0051695D01*
X0168517Y0051736D01*
X0168539Y0051779D01*
X0168558Y0051824D01*
X0168574Y0051870D01*
X0168587Y0051916D01*
X0168596Y0051964D01*
X0168601Y0052012D01*
X0168603Y0052061D01*
X0168602Y0052061D02*
X0168600Y0052109D01*
X0168595Y0052157D01*
X0168586Y0052204D01*
X0168573Y0052251D01*
X0168557Y0052296D01*
X0168538Y0052340D01*
X0168516Y0052383D01*
X0168490Y0052424D01*
X0168461Y0052463D01*
X0168430Y0052499D01*
X0168396Y0052533D01*
X0168360Y0052564D01*
X0168321Y0052593D01*
X0168280Y0052619D01*
X0168237Y0052641D01*
X0168193Y0052660D01*
X0168148Y0052676D01*
X0168101Y0052689D01*
X0168054Y0052698D01*
X0168006Y0052703D01*
X0167958Y0052705D01*
X0167958Y0052706D02*
X0167893Y0052704D01*
X0167829Y0052699D01*
X0167764Y0052690D01*
X0167701Y0052678D01*
X0167638Y0052663D01*
X0167576Y0052644D01*
X0167515Y0052622D01*
X0167456Y0052597D01*
X0167397Y0052568D01*
X0167341Y0052536D01*
X0167286Y0052502D01*
X0167233Y0052464D01*
X0168682Y0050209D02*
X0168631Y0050159D01*
X0168576Y0050112D01*
X0168520Y0050069D01*
X0168461Y0050028D01*
X0168400Y0049990D01*
X0168337Y0049956D01*
X0168272Y0049925D01*
X0168206Y0049897D01*
X0168139Y0049873D01*
X0168070Y0049853D01*
X0168000Y0049836D01*
X0167930Y0049823D01*
X0167859Y0049814D01*
X0167788Y0049808D01*
X0167716Y0049806D01*
X0167668Y0049808D01*
X0167620Y0049813D01*
X0167573Y0049822D01*
X0167526Y0049835D01*
X0167481Y0049851D01*
X0167437Y0049870D01*
X0167394Y0049892D01*
X0167353Y0049918D01*
X0167314Y0049946D01*
X0167278Y0049978D01*
X0167244Y0050012D01*
X0167213Y0050048D01*
X0167184Y0050087D01*
X0167158Y0050128D01*
X0167136Y0050171D01*
X0167117Y0050215D01*
X0167101Y0050260D01*
X0167088Y0050307D01*
X0167079Y0050354D01*
X0167074Y0050402D01*
X0167072Y0050450D01*
X0167394Y0051014D02*
X0168280Y0051498D01*
X0167394Y0051013D02*
X0167353Y0050987D01*
X0167314Y0050958D01*
X0167278Y0050926D01*
X0167244Y0050892D01*
X0167212Y0050855D01*
X0167184Y0050816D01*
X0167158Y0050774D01*
X0167136Y0050732D01*
X0167116Y0050687D01*
X0167101Y0050641D01*
X0167088Y0050594D01*
X0167079Y0050547D01*
X0167074Y0050498D01*
X0167072Y0050450D01*
X0209889Y0017706D02*
X0209889Y0014806D01*
X0210694Y0014806D01*
X0210736Y0014808D01*
X0210778Y0014813D01*
X0210819Y0014822D01*
X0210859Y0014835D01*
X0210898Y0014851D01*
X0210936Y0014871D01*
X0210971Y0014893D01*
X0211004Y0014919D01*
X0211036Y0014947D01*
X0211064Y0014979D01*
X0211090Y0015012D01*
X0211112Y0015048D01*
X0211132Y0015085D01*
X0211148Y0015124D01*
X0211161Y0015164D01*
X0211170Y0015205D01*
X0211175Y0015247D01*
X0211177Y0015289D01*
X0211178Y0015289D02*
X0211178Y0016256D01*
X0211177Y0016256D02*
X0211175Y0016298D01*
X0211170Y0016340D01*
X0211161Y0016381D01*
X0211148Y0016421D01*
X0211132Y0016460D01*
X0211112Y0016498D01*
X0211090Y0016533D01*
X0211064Y0016566D01*
X0211036Y0016598D01*
X0211004Y0016626D01*
X0210971Y0016652D01*
X0210936Y0016674D01*
X0210898Y0016694D01*
X0210859Y0016710D01*
X0210819Y0016723D01*
X0210778Y0016732D01*
X0210736Y0016737D01*
X0210694Y0016739D01*
X0209889Y0016739D01*
X0212465Y0016256D02*
X0212465Y0014806D01*
X0213754Y0014806D02*
X0213754Y0016739D01*
X0212948Y0016739D01*
X0212906Y0016737D01*
X0212864Y0016732D01*
X0212823Y0016723D01*
X0212783Y0016710D01*
X0212744Y0016694D01*
X0212707Y0016674D01*
X0212671Y0016652D01*
X0212638Y0016626D01*
X0212606Y0016598D01*
X0212578Y0016566D01*
X0212552Y0016533D01*
X0212530Y0016498D01*
X0212510Y0016460D01*
X0212494Y0016421D01*
X0212481Y0016381D01*
X0212472Y0016340D01*
X0212467Y0016298D01*
X0212465Y0016256D01*
X0215184Y0016417D02*
X0215184Y0014806D01*
X0216150Y0014806D01*
X0216198Y0014808D01*
X0216246Y0014813D01*
X0216293Y0014822D01*
X0216340Y0014835D01*
X0216385Y0014851D01*
X0216429Y0014870D01*
X0216472Y0014892D01*
X0216513Y0014918D01*
X0216552Y0014947D01*
X0216588Y0014978D01*
X0216622Y0015012D01*
X0216653Y0015048D01*
X0216682Y0015087D01*
X0216708Y0015128D01*
X0216730Y0015171D01*
X0216749Y0015215D01*
X0216765Y0015260D01*
X0216778Y0015307D01*
X0216787Y0015354D01*
X0216792Y0015402D01*
X0216794Y0015450D01*
X0216795Y0015450D02*
X0216795Y0017061D01*
X0216794Y0017061D02*
X0216792Y0017109D01*
X0216787Y0017157D01*
X0216778Y0017204D01*
X0216765Y0017251D01*
X0216749Y0017296D01*
X0216730Y0017340D01*
X0216708Y0017383D01*
X0216682Y0017424D01*
X0216653Y0017463D01*
X0216622Y0017499D01*
X0216588Y0017533D01*
X0216552Y0017564D01*
X0216513Y0017593D01*
X0216472Y0017619D01*
X0216429Y0017641D01*
X0216385Y0017660D01*
X0216340Y0017676D01*
X0216293Y0017689D01*
X0216246Y0017698D01*
X0216198Y0017703D01*
X0216150Y0017705D01*
X0216150Y0017706D02*
X0215184Y0017706D01*
X0215184Y0016417D02*
X0215667Y0016417D01*
X0230568Y0016256D02*
X0230568Y0014806D01*
X0231857Y0014806D02*
X0231857Y0016739D01*
X0231052Y0016739D01*
X0231010Y0016737D01*
X0230968Y0016732D01*
X0230927Y0016723D01*
X0230887Y0016710D01*
X0230848Y0016694D01*
X0230811Y0016674D01*
X0230775Y0016652D01*
X0230742Y0016626D01*
X0230710Y0016598D01*
X0230682Y0016566D01*
X0230656Y0016533D01*
X0230634Y0016498D01*
X0230614Y0016460D01*
X0230598Y0016421D01*
X0230585Y0016381D01*
X0230576Y0016340D01*
X0230571Y0016298D01*
X0230569Y0016256D01*
X0233133Y0016739D02*
X0233133Y0014806D01*
X0235149Y0014806D02*
X0234182Y0017706D01*
X0233213Y0017706D02*
X0233052Y0017706D01*
X0233052Y0017545D01*
X0233213Y0017545D01*
X0233213Y0017706D01*
X0236115Y0017706D02*
X0235149Y0014806D01*
X0279889Y0029806D02*
X0280694Y0029806D01*
X0280736Y0029808D01*
X0280778Y0029813D01*
X0280819Y0029822D01*
X0280859Y0029835D01*
X0280898Y0029851D01*
X0280936Y0029871D01*
X0280971Y0029893D01*
X0281004Y0029919D01*
X0281036Y0029947D01*
X0281064Y0029979D01*
X0281090Y0030012D01*
X0281112Y0030048D01*
X0281132Y0030085D01*
X0281148Y0030124D01*
X0281161Y0030164D01*
X0281170Y0030205D01*
X0281175Y0030247D01*
X0281177Y0030289D01*
X0281178Y0030289D02*
X0281178Y0031256D01*
X0281177Y0031256D02*
X0281175Y0031298D01*
X0281170Y0031340D01*
X0281161Y0031381D01*
X0281148Y0031421D01*
X0281132Y0031460D01*
X0281112Y0031498D01*
X0281090Y0031533D01*
X0281064Y0031566D01*
X0281036Y0031598D01*
X0281004Y0031626D01*
X0280971Y0031652D01*
X0280936Y0031674D01*
X0280898Y0031694D01*
X0280859Y0031710D01*
X0280819Y0031723D01*
X0280778Y0031732D01*
X0280736Y0031737D01*
X0280694Y0031739D01*
X0279889Y0031739D01*
X0279889Y0032706D02*
X0279889Y0029806D01*
X0282465Y0029806D02*
X0282465Y0031256D01*
X0282467Y0031298D01*
X0282472Y0031340D01*
X0282481Y0031381D01*
X0282494Y0031421D01*
X0282510Y0031460D01*
X0282530Y0031498D01*
X0282552Y0031533D01*
X0282578Y0031566D01*
X0282606Y0031598D01*
X0282638Y0031626D01*
X0282671Y0031652D01*
X0282707Y0031674D01*
X0282744Y0031694D01*
X0282783Y0031710D01*
X0282823Y0031723D01*
X0282864Y0031732D01*
X0282906Y0031737D01*
X0282948Y0031739D01*
X0283754Y0031739D01*
X0283754Y0029806D01*
X0285184Y0029806D02*
X0285184Y0031417D01*
X0285667Y0031417D01*
X0286794Y0032061D02*
X0286792Y0032109D01*
X0286787Y0032157D01*
X0286778Y0032204D01*
X0286765Y0032251D01*
X0286749Y0032296D01*
X0286730Y0032340D01*
X0286708Y0032383D01*
X0286682Y0032424D01*
X0286653Y0032463D01*
X0286622Y0032499D01*
X0286588Y0032533D01*
X0286552Y0032564D01*
X0286513Y0032593D01*
X0286472Y0032619D01*
X0286429Y0032641D01*
X0286385Y0032660D01*
X0286340Y0032676D01*
X0286293Y0032689D01*
X0286246Y0032698D01*
X0286198Y0032703D01*
X0286150Y0032705D01*
X0286150Y0032706D02*
X0285184Y0032706D01*
X0286795Y0032061D02*
X0286795Y0030450D01*
X0286794Y0030450D02*
X0286792Y0030402D01*
X0286787Y0030354D01*
X0286778Y0030307D01*
X0286765Y0030260D01*
X0286749Y0030215D01*
X0286730Y0030171D01*
X0286708Y0030128D01*
X0286682Y0030087D01*
X0286653Y0030048D01*
X0286622Y0030012D01*
X0286588Y0029978D01*
X0286552Y0029947D01*
X0286513Y0029918D01*
X0286472Y0029892D01*
X0286429Y0029870D01*
X0286385Y0029851D01*
X0286340Y0029835D01*
X0286293Y0029822D01*
X0286246Y0029813D01*
X0286198Y0029808D01*
X0286150Y0029806D01*
X0285184Y0029806D01*
X0290568Y0029806D02*
X0290568Y0031256D01*
X0290569Y0031256D02*
X0290571Y0031298D01*
X0290576Y0031340D01*
X0290585Y0031381D01*
X0290598Y0031421D01*
X0290614Y0031460D01*
X0290634Y0031498D01*
X0290656Y0031533D01*
X0290682Y0031566D01*
X0290710Y0031598D01*
X0290742Y0031626D01*
X0290775Y0031652D01*
X0290811Y0031674D01*
X0290848Y0031694D01*
X0290887Y0031710D01*
X0290927Y0031723D01*
X0290968Y0031732D01*
X0291010Y0031737D01*
X0291052Y0031739D01*
X0291857Y0031739D01*
X0291857Y0029806D01*
X0293133Y0029806D02*
X0293133Y0031739D01*
X0293213Y0032545D02*
X0293052Y0032545D01*
X0293052Y0032706D01*
X0293213Y0032706D01*
X0293213Y0032545D01*
X0294182Y0032706D02*
X0295149Y0029806D01*
X0296115Y0032706D01*
X0291699Y0073839D02*
X0291699Y0076739D01*
X0290893Y0076739D01*
X0290851Y0076737D01*
X0290809Y0076732D01*
X0290768Y0076723D01*
X0290728Y0076710D01*
X0290689Y0076694D01*
X0290652Y0076674D01*
X0290616Y0076652D01*
X0290583Y0076626D01*
X0290551Y0076598D01*
X0290523Y0076566D01*
X0290497Y0076533D01*
X0290475Y0076498D01*
X0290455Y0076460D01*
X0290439Y0076421D01*
X0290426Y0076381D01*
X0290417Y0076340D01*
X0290412Y0076298D01*
X0290410Y0076256D01*
X0290410Y0075289D01*
X0290412Y0075247D01*
X0290417Y0075205D01*
X0290426Y0075164D01*
X0290439Y0075124D01*
X0290455Y0075085D01*
X0290475Y0075048D01*
X0290497Y0075012D01*
X0290523Y0074979D01*
X0290551Y0074947D01*
X0290583Y0074919D01*
X0290616Y0074893D01*
X0290652Y0074871D01*
X0290689Y0074851D01*
X0290728Y0074835D01*
X0290768Y0074822D01*
X0290809Y0074813D01*
X0290851Y0074808D01*
X0290893Y0074806D01*
X0291699Y0074806D01*
X0289107Y0074806D02*
X0289107Y0077706D01*
X0289107Y0076739D02*
X0288301Y0076739D01*
X0288259Y0076737D01*
X0288217Y0076732D01*
X0288176Y0076723D01*
X0288136Y0076710D01*
X0288097Y0076694D01*
X0288060Y0076674D01*
X0288024Y0076652D01*
X0287991Y0076626D01*
X0287959Y0076598D01*
X0287931Y0076566D01*
X0287905Y0076533D01*
X0287883Y0076498D01*
X0287863Y0076460D01*
X0287847Y0076421D01*
X0287834Y0076381D01*
X0287825Y0076340D01*
X0287820Y0076298D01*
X0287818Y0076256D01*
X0287818Y0075289D01*
X0287820Y0075247D01*
X0287825Y0075205D01*
X0287834Y0075164D01*
X0287847Y0075124D01*
X0287863Y0075085D01*
X0287883Y0075048D01*
X0287905Y0075012D01*
X0287931Y0074979D01*
X0287959Y0074947D01*
X0287991Y0074919D01*
X0288024Y0074893D01*
X0288060Y0074871D01*
X0288097Y0074851D01*
X0288136Y0074835D01*
X0288176Y0074822D01*
X0288217Y0074813D01*
X0288259Y0074808D01*
X0288301Y0074806D01*
X0289107Y0074806D01*
X0286596Y0075450D02*
X0285952Y0077706D01*
X0285468Y0076095D02*
X0285468Y0074806D01*
X0284985Y0075450D02*
X0286596Y0075450D01*
X0281517Y0077706D02*
X0280550Y0074806D01*
X0279583Y0077706D01*
X0278503Y0076256D02*
X0278503Y0075289D01*
X0278502Y0075289D02*
X0278500Y0075247D01*
X0278495Y0075205D01*
X0278486Y0075164D01*
X0278473Y0075124D01*
X0278457Y0075085D01*
X0278437Y0075048D01*
X0278415Y0075012D01*
X0278389Y0074979D01*
X0278361Y0074947D01*
X0278329Y0074919D01*
X0278296Y0074893D01*
X0278261Y0074871D01*
X0278223Y0074851D01*
X0278184Y0074835D01*
X0278144Y0074822D01*
X0278103Y0074813D01*
X0278061Y0074808D01*
X0278019Y0074806D01*
X0277375Y0074806D01*
X0276295Y0075289D02*
X0276295Y0076256D01*
X0276294Y0076256D02*
X0276292Y0076298D01*
X0276287Y0076340D01*
X0276278Y0076381D01*
X0276265Y0076421D01*
X0276249Y0076460D01*
X0276229Y0076498D01*
X0276207Y0076533D01*
X0276181Y0076566D01*
X0276153Y0076598D01*
X0276121Y0076626D01*
X0276088Y0076652D01*
X0276053Y0076674D01*
X0276015Y0076694D01*
X0275976Y0076710D01*
X0275936Y0076723D01*
X0275895Y0076732D01*
X0275853Y0076737D01*
X0275811Y0076739D01*
X0275167Y0076739D01*
X0276294Y0075289D02*
X0276292Y0075247D01*
X0276287Y0075205D01*
X0276278Y0075164D01*
X0276265Y0075124D01*
X0276249Y0075085D01*
X0276229Y0075048D01*
X0276207Y0075012D01*
X0276181Y0074979D01*
X0276153Y0074947D01*
X0276121Y0074919D01*
X0276088Y0074893D01*
X0276053Y0074871D01*
X0276015Y0074851D01*
X0275976Y0074835D01*
X0275936Y0074822D01*
X0275895Y0074813D01*
X0275853Y0074808D01*
X0275811Y0074806D01*
X0275167Y0074806D01*
X0277375Y0076739D02*
X0278019Y0076739D01*
X0278061Y0076737D01*
X0278103Y0076732D01*
X0278144Y0076723D01*
X0278184Y0076710D01*
X0278223Y0076694D01*
X0278261Y0076674D01*
X0278296Y0076652D01*
X0278329Y0076626D01*
X0278361Y0076598D01*
X0278389Y0076566D01*
X0278415Y0076533D01*
X0278437Y0076498D01*
X0278457Y0076460D01*
X0278473Y0076421D01*
X0278486Y0076381D01*
X0278495Y0076340D01*
X0278500Y0076298D01*
X0278502Y0076256D01*
X0295629Y0076417D02*
X0296274Y0076417D01*
X0295629Y0076417D02*
X0295580Y0076419D01*
X0295531Y0076425D01*
X0295482Y0076434D01*
X0295435Y0076447D01*
X0295388Y0076464D01*
X0295343Y0076484D01*
X0295300Y0076507D01*
X0295258Y0076534D01*
X0295219Y0076564D01*
X0295182Y0076597D01*
X0295148Y0076633D01*
X0295117Y0076671D01*
X0295088Y0076711D01*
X0295063Y0076753D01*
X0295041Y0076798D01*
X0295023Y0076843D01*
X0295008Y0076890D01*
X0294997Y0076938D01*
X0294989Y0076987D01*
X0294985Y0077036D01*
X0294985Y0077086D01*
X0294989Y0077135D01*
X0294997Y0077184D01*
X0295008Y0077232D01*
X0295023Y0077279D01*
X0295041Y0077324D01*
X0295063Y0077369D01*
X0295088Y0077411D01*
X0295117Y0077451D01*
X0295148Y0077489D01*
X0295182Y0077525D01*
X0295219Y0077558D01*
X0295258Y0077588D01*
X0295300Y0077615D01*
X0295343Y0077638D01*
X0295388Y0077658D01*
X0295435Y0077675D01*
X0295482Y0077688D01*
X0295531Y0077697D01*
X0295580Y0077703D01*
X0295629Y0077705D01*
X0295629Y0077706D02*
X0296596Y0077706D01*
X0297818Y0076256D02*
X0297818Y0075289D01*
X0297820Y0075247D01*
X0297825Y0075205D01*
X0297834Y0075164D01*
X0297847Y0075124D01*
X0297863Y0075085D01*
X0297883Y0075048D01*
X0297905Y0075012D01*
X0297931Y0074979D01*
X0297959Y0074947D01*
X0297991Y0074919D01*
X0298024Y0074893D01*
X0298060Y0074871D01*
X0298097Y0074851D01*
X0298136Y0074835D01*
X0298176Y0074822D01*
X0298217Y0074813D01*
X0298259Y0074808D01*
X0298301Y0074806D01*
X0299107Y0074806D01*
X0299107Y0077706D01*
X0299107Y0076739D02*
X0298301Y0076739D01*
X0298259Y0076737D01*
X0298217Y0076732D01*
X0298176Y0076723D01*
X0298136Y0076710D01*
X0298097Y0076694D01*
X0298060Y0076674D01*
X0298024Y0076652D01*
X0297991Y0076626D01*
X0297959Y0076598D01*
X0297931Y0076566D01*
X0297905Y0076533D01*
X0297883Y0076498D01*
X0297863Y0076460D01*
X0297847Y0076421D01*
X0297834Y0076381D01*
X0297825Y0076340D01*
X0297820Y0076298D01*
X0297818Y0076256D01*
X0296596Y0074806D02*
X0295790Y0074806D01*
X0295790Y0074805D02*
X0295735Y0074807D01*
X0295680Y0074813D01*
X0295626Y0074822D01*
X0295573Y0074835D01*
X0295520Y0074852D01*
X0295469Y0074872D01*
X0295419Y0074895D01*
X0295371Y0074922D01*
X0295325Y0074953D01*
X0295281Y0074986D01*
X0295240Y0075022D01*
X0295201Y0075061D01*
X0295165Y0075102D01*
X0295132Y0075146D01*
X0295101Y0075192D01*
X0295074Y0075240D01*
X0295051Y0075290D01*
X0295031Y0075341D01*
X0295014Y0075394D01*
X0295001Y0075447D01*
X0294992Y0075501D01*
X0294986Y0075556D01*
X0294984Y0075611D01*
X0294986Y0075666D01*
X0294992Y0075721D01*
X0295001Y0075775D01*
X0295014Y0075828D01*
X0295031Y0075881D01*
X0295051Y0075932D01*
X0295074Y0075982D01*
X0295101Y0076030D01*
X0295132Y0076076D01*
X0295165Y0076120D01*
X0295201Y0076161D01*
X0295240Y0076200D01*
X0295281Y0076236D01*
X0295325Y0076269D01*
X0295371Y0076300D01*
X0295419Y0076327D01*
X0295469Y0076350D01*
X0295520Y0076370D01*
X0295573Y0076387D01*
X0295626Y0076400D01*
X0295680Y0076409D01*
X0295735Y0076415D01*
X0295790Y0076417D01*
X0300410Y0076256D02*
X0300410Y0075289D01*
X0300412Y0075247D01*
X0300417Y0075205D01*
X0300426Y0075164D01*
X0300439Y0075124D01*
X0300455Y0075085D01*
X0300475Y0075048D01*
X0300497Y0075012D01*
X0300523Y0074979D01*
X0300551Y0074947D01*
X0300583Y0074919D01*
X0300616Y0074893D01*
X0300652Y0074871D01*
X0300689Y0074851D01*
X0300728Y0074835D01*
X0300768Y0074822D01*
X0300809Y0074813D01*
X0300851Y0074808D01*
X0300893Y0074806D01*
X0301699Y0074806D01*
X0301699Y0073839D02*
X0301699Y0076739D01*
X0300893Y0076739D01*
X0300851Y0076737D01*
X0300809Y0076732D01*
X0300768Y0076723D01*
X0300728Y0076710D01*
X0300689Y0076694D01*
X0300652Y0076674D01*
X0300616Y0076652D01*
X0300583Y0076626D01*
X0300551Y0076598D01*
X0300523Y0076566D01*
X0300497Y0076533D01*
X0300475Y0076498D01*
X0300455Y0076460D01*
X0300439Y0076421D01*
X0300426Y0076381D01*
X0300417Y0076340D01*
X0300412Y0076298D01*
X0300410Y0076256D01*
X0304889Y0076739D02*
X0305694Y0076739D01*
X0305736Y0076737D01*
X0305778Y0076732D01*
X0305819Y0076723D01*
X0305859Y0076710D01*
X0305898Y0076694D01*
X0305936Y0076674D01*
X0305971Y0076652D01*
X0306004Y0076626D01*
X0306036Y0076598D01*
X0306064Y0076566D01*
X0306090Y0076533D01*
X0306112Y0076498D01*
X0306132Y0076460D01*
X0306148Y0076421D01*
X0306161Y0076381D01*
X0306170Y0076340D01*
X0306175Y0076298D01*
X0306177Y0076256D01*
X0306178Y0076256D02*
X0306178Y0075289D01*
X0306177Y0075289D02*
X0306175Y0075247D01*
X0306170Y0075205D01*
X0306161Y0075164D01*
X0306148Y0075124D01*
X0306132Y0075085D01*
X0306112Y0075048D01*
X0306090Y0075012D01*
X0306064Y0074979D01*
X0306036Y0074947D01*
X0306004Y0074919D01*
X0305971Y0074893D01*
X0305936Y0074871D01*
X0305898Y0074851D01*
X0305859Y0074835D01*
X0305819Y0074822D01*
X0305778Y0074813D01*
X0305736Y0074808D01*
X0305694Y0074806D01*
X0304889Y0074806D01*
X0304889Y0077706D01*
X0307465Y0076256D02*
X0307465Y0074806D01*
X0308754Y0074806D02*
X0308754Y0076739D01*
X0307948Y0076739D01*
X0307906Y0076737D01*
X0307864Y0076732D01*
X0307823Y0076723D01*
X0307783Y0076710D01*
X0307744Y0076694D01*
X0307707Y0076674D01*
X0307671Y0076652D01*
X0307638Y0076626D01*
X0307606Y0076598D01*
X0307578Y0076566D01*
X0307552Y0076533D01*
X0307530Y0076498D01*
X0307510Y0076460D01*
X0307494Y0076421D01*
X0307481Y0076381D01*
X0307472Y0076340D01*
X0307467Y0076298D01*
X0307465Y0076256D01*
X0310184Y0076417D02*
X0310184Y0074806D01*
X0311150Y0074806D01*
X0311198Y0074808D01*
X0311246Y0074813D01*
X0311293Y0074822D01*
X0311340Y0074835D01*
X0311385Y0074851D01*
X0311429Y0074870D01*
X0311472Y0074892D01*
X0311513Y0074918D01*
X0311552Y0074947D01*
X0311588Y0074978D01*
X0311622Y0075012D01*
X0311653Y0075048D01*
X0311682Y0075087D01*
X0311708Y0075128D01*
X0311730Y0075171D01*
X0311749Y0075215D01*
X0311765Y0075260D01*
X0311778Y0075307D01*
X0311787Y0075354D01*
X0311792Y0075402D01*
X0311794Y0075450D01*
X0311795Y0075450D02*
X0311795Y0077061D01*
X0311794Y0077061D02*
X0311792Y0077109D01*
X0311787Y0077157D01*
X0311778Y0077204D01*
X0311765Y0077251D01*
X0311749Y0077296D01*
X0311730Y0077340D01*
X0311708Y0077383D01*
X0311682Y0077424D01*
X0311653Y0077463D01*
X0311622Y0077499D01*
X0311588Y0077533D01*
X0311552Y0077564D01*
X0311513Y0077593D01*
X0311472Y0077619D01*
X0311429Y0077641D01*
X0311385Y0077660D01*
X0311340Y0077676D01*
X0311293Y0077689D01*
X0311246Y0077698D01*
X0311198Y0077703D01*
X0311150Y0077705D01*
X0311150Y0077706D02*
X0310184Y0077706D01*
X0310184Y0076417D02*
X0310667Y0076417D01*
X0309276Y0124806D02*
X0308470Y0124806D01*
X0308470Y0124805D02*
X0308415Y0124807D01*
X0308360Y0124813D01*
X0308306Y0124822D01*
X0308253Y0124835D01*
X0308200Y0124852D01*
X0308149Y0124872D01*
X0308099Y0124895D01*
X0308051Y0124922D01*
X0308005Y0124953D01*
X0307961Y0124986D01*
X0307920Y0125022D01*
X0307881Y0125061D01*
X0307845Y0125102D01*
X0307812Y0125146D01*
X0307781Y0125192D01*
X0307754Y0125240D01*
X0307731Y0125290D01*
X0307711Y0125341D01*
X0307694Y0125394D01*
X0307681Y0125447D01*
X0307672Y0125501D01*
X0307666Y0125556D01*
X0307664Y0125611D01*
X0307665Y0125611D02*
X0307665Y0126900D01*
X0307664Y0126900D02*
X0307666Y0126955D01*
X0307672Y0127010D01*
X0307681Y0127064D01*
X0307694Y0127117D01*
X0307711Y0127170D01*
X0307731Y0127221D01*
X0307754Y0127271D01*
X0307781Y0127319D01*
X0307812Y0127365D01*
X0307845Y0127409D01*
X0307881Y0127450D01*
X0307920Y0127489D01*
X0307961Y0127525D01*
X0308005Y0127558D01*
X0308051Y0127589D01*
X0308099Y0127616D01*
X0308149Y0127639D01*
X0308200Y0127659D01*
X0308253Y0127676D01*
X0308306Y0127689D01*
X0308360Y0127698D01*
X0308415Y0127704D01*
X0308470Y0127706D01*
X0309276Y0127706D01*
X0309276Y0124806D01*
X0310867Y0126014D02*
X0311753Y0126498D01*
X0311431Y0127706D02*
X0311366Y0127704D01*
X0311302Y0127699D01*
X0311237Y0127690D01*
X0311174Y0127678D01*
X0311111Y0127663D01*
X0311049Y0127644D01*
X0310988Y0127622D01*
X0310929Y0127597D01*
X0310870Y0127568D01*
X0310814Y0127536D01*
X0310759Y0127502D01*
X0310706Y0127464D01*
X0311754Y0126497D02*
X0311794Y0126523D01*
X0311833Y0126552D01*
X0311870Y0126584D01*
X0311904Y0126619D01*
X0311935Y0126656D01*
X0311964Y0126695D01*
X0311990Y0126736D01*
X0312012Y0126779D01*
X0312031Y0126824D01*
X0312047Y0126870D01*
X0312060Y0126916D01*
X0312069Y0126964D01*
X0312074Y0127012D01*
X0312076Y0127061D01*
X0312075Y0127061D02*
X0312073Y0127109D01*
X0312068Y0127157D01*
X0312059Y0127204D01*
X0312046Y0127251D01*
X0312030Y0127296D01*
X0312011Y0127340D01*
X0311989Y0127383D01*
X0311963Y0127424D01*
X0311934Y0127463D01*
X0311903Y0127499D01*
X0311869Y0127533D01*
X0311833Y0127564D01*
X0311794Y0127593D01*
X0311753Y0127619D01*
X0311710Y0127641D01*
X0311666Y0127660D01*
X0311621Y0127676D01*
X0311574Y0127689D01*
X0311527Y0127698D01*
X0311479Y0127703D01*
X0311431Y0127705D01*
X0312155Y0125209D02*
X0312104Y0125159D01*
X0312049Y0125112D01*
X0311993Y0125069D01*
X0311934Y0125028D01*
X0311873Y0124990D01*
X0311810Y0124956D01*
X0311745Y0124925D01*
X0311679Y0124897D01*
X0311612Y0124873D01*
X0311543Y0124853D01*
X0311473Y0124836D01*
X0311403Y0124823D01*
X0311332Y0124814D01*
X0311261Y0124808D01*
X0311189Y0124806D01*
X0311141Y0124808D01*
X0311093Y0124813D01*
X0311046Y0124822D01*
X0310999Y0124835D01*
X0310954Y0124851D01*
X0310910Y0124870D01*
X0310867Y0124892D01*
X0310826Y0124918D01*
X0310787Y0124946D01*
X0310751Y0124978D01*
X0310717Y0125012D01*
X0310686Y0125048D01*
X0310657Y0125087D01*
X0310631Y0125128D01*
X0310609Y0125171D01*
X0310590Y0125215D01*
X0310574Y0125260D01*
X0310561Y0125307D01*
X0310552Y0125354D01*
X0310547Y0125402D01*
X0310545Y0125450D01*
X0310547Y0125498D01*
X0310552Y0125547D01*
X0310561Y0125594D01*
X0310574Y0125641D01*
X0310589Y0125687D01*
X0310609Y0125732D01*
X0310631Y0125774D01*
X0310657Y0125816D01*
X0310685Y0125855D01*
X0310717Y0125892D01*
X0310751Y0125926D01*
X0310787Y0125958D01*
X0310826Y0125987D01*
X0310867Y0126013D01*
X0306461Y0124806D02*
X0305494Y0127706D01*
X0304528Y0124806D01*
X0304769Y0125531D02*
X0306219Y0125531D01*
X0301227Y0126498D02*
X0300340Y0126014D01*
X0300663Y0124806D02*
X0300735Y0124808D01*
X0300806Y0124814D01*
X0300877Y0124823D01*
X0300947Y0124836D01*
X0301017Y0124853D01*
X0301086Y0124873D01*
X0301153Y0124897D01*
X0301219Y0124925D01*
X0301284Y0124956D01*
X0301347Y0124990D01*
X0301408Y0125028D01*
X0301467Y0125069D01*
X0301523Y0125112D01*
X0301578Y0125159D01*
X0301629Y0125209D01*
X0300341Y0126013D02*
X0300300Y0125987D01*
X0300261Y0125958D01*
X0300225Y0125926D01*
X0300191Y0125892D01*
X0300159Y0125855D01*
X0300131Y0125816D01*
X0300105Y0125774D01*
X0300083Y0125732D01*
X0300063Y0125687D01*
X0300048Y0125641D01*
X0300035Y0125594D01*
X0300026Y0125547D01*
X0300021Y0125498D01*
X0300019Y0125450D01*
X0300021Y0125402D01*
X0300026Y0125354D01*
X0300035Y0125307D01*
X0300048Y0125260D01*
X0300064Y0125215D01*
X0300083Y0125171D01*
X0300105Y0125128D01*
X0300131Y0125087D01*
X0300160Y0125048D01*
X0300191Y0125012D01*
X0300225Y0124978D01*
X0300261Y0124946D01*
X0300300Y0124918D01*
X0300341Y0124892D01*
X0300384Y0124870D01*
X0300428Y0124851D01*
X0300473Y0124835D01*
X0300520Y0124822D01*
X0300567Y0124813D01*
X0300615Y0124808D01*
X0300663Y0124806D01*
X0300179Y0127464D02*
X0300232Y0127502D01*
X0300287Y0127536D01*
X0300343Y0127568D01*
X0300402Y0127597D01*
X0300461Y0127622D01*
X0300522Y0127644D01*
X0300584Y0127663D01*
X0300647Y0127678D01*
X0300710Y0127690D01*
X0300775Y0127699D01*
X0300839Y0127704D01*
X0300904Y0127706D01*
X0300904Y0127705D02*
X0300952Y0127703D01*
X0301000Y0127698D01*
X0301047Y0127689D01*
X0301094Y0127676D01*
X0301139Y0127660D01*
X0301183Y0127641D01*
X0301226Y0127619D01*
X0301267Y0127593D01*
X0301306Y0127564D01*
X0301342Y0127533D01*
X0301376Y0127499D01*
X0301407Y0127463D01*
X0301436Y0127424D01*
X0301462Y0127383D01*
X0301484Y0127340D01*
X0301503Y0127296D01*
X0301519Y0127251D01*
X0301532Y0127204D01*
X0301541Y0127157D01*
X0301546Y0127109D01*
X0301548Y0127061D01*
X0301549Y0127061D02*
X0301547Y0127012D01*
X0301542Y0126964D01*
X0301533Y0126916D01*
X0301520Y0126870D01*
X0301504Y0126824D01*
X0301485Y0126779D01*
X0301463Y0126736D01*
X0301437Y0126695D01*
X0301408Y0126656D01*
X0301377Y0126619D01*
X0301343Y0126584D01*
X0301306Y0126552D01*
X0301267Y0126523D01*
X0301227Y0126497D01*
X0298854Y0127061D02*
X0298854Y0125450D01*
X0298852Y0125402D01*
X0298847Y0125354D01*
X0298838Y0125307D01*
X0298825Y0125260D01*
X0298809Y0125215D01*
X0298790Y0125171D01*
X0298768Y0125128D01*
X0298742Y0125087D01*
X0298713Y0125048D01*
X0298682Y0125012D01*
X0298648Y0124978D01*
X0298612Y0124947D01*
X0298573Y0124918D01*
X0298532Y0124892D01*
X0298489Y0124870D01*
X0298445Y0124851D01*
X0298400Y0124835D01*
X0298353Y0124822D01*
X0298306Y0124813D01*
X0298258Y0124808D01*
X0298210Y0124806D01*
X0297566Y0124806D01*
X0296343Y0124806D02*
X0296343Y0127706D01*
X0297566Y0127706D02*
X0298210Y0127706D01*
X0298210Y0127705D02*
X0298258Y0127703D01*
X0298306Y0127698D01*
X0298353Y0127689D01*
X0298400Y0127676D01*
X0298445Y0127660D01*
X0298489Y0127641D01*
X0298532Y0127619D01*
X0298573Y0127593D01*
X0298612Y0127564D01*
X0298648Y0127533D01*
X0298682Y0127499D01*
X0298713Y0127463D01*
X0298742Y0127424D01*
X0298768Y0127383D01*
X0298790Y0127340D01*
X0298809Y0127296D01*
X0298825Y0127251D01*
X0298838Y0127204D01*
X0298847Y0127157D01*
X0298852Y0127109D01*
X0298854Y0127061D01*
X0296343Y0124806D02*
X0295054Y0124806D01*
X0291795Y0125450D02*
X0291795Y0127061D01*
X0291794Y0127061D02*
X0291792Y0127109D01*
X0291787Y0127157D01*
X0291778Y0127204D01*
X0291765Y0127251D01*
X0291749Y0127296D01*
X0291730Y0127340D01*
X0291708Y0127383D01*
X0291682Y0127424D01*
X0291653Y0127463D01*
X0291622Y0127499D01*
X0291588Y0127533D01*
X0291552Y0127564D01*
X0291513Y0127593D01*
X0291472Y0127619D01*
X0291429Y0127641D01*
X0291385Y0127660D01*
X0291340Y0127676D01*
X0291293Y0127689D01*
X0291246Y0127698D01*
X0291198Y0127703D01*
X0291150Y0127705D01*
X0291150Y0127706D02*
X0290184Y0127706D01*
X0290184Y0126417D02*
X0290184Y0124806D01*
X0291150Y0124806D01*
X0291198Y0124808D01*
X0291246Y0124813D01*
X0291293Y0124822D01*
X0291340Y0124835D01*
X0291385Y0124851D01*
X0291429Y0124870D01*
X0291472Y0124892D01*
X0291513Y0124918D01*
X0291552Y0124947D01*
X0291588Y0124978D01*
X0291622Y0125012D01*
X0291653Y0125048D01*
X0291682Y0125087D01*
X0291708Y0125128D01*
X0291730Y0125171D01*
X0291749Y0125215D01*
X0291765Y0125260D01*
X0291778Y0125307D01*
X0291787Y0125354D01*
X0291792Y0125402D01*
X0291794Y0125450D01*
X0290667Y0126417D02*
X0290184Y0126417D01*
X0288754Y0126739D02*
X0287948Y0126739D01*
X0287906Y0126737D01*
X0287864Y0126732D01*
X0287823Y0126723D01*
X0287783Y0126710D01*
X0287744Y0126694D01*
X0287707Y0126674D01*
X0287671Y0126652D01*
X0287638Y0126626D01*
X0287606Y0126598D01*
X0287578Y0126566D01*
X0287552Y0126533D01*
X0287530Y0126498D01*
X0287510Y0126460D01*
X0287494Y0126421D01*
X0287481Y0126381D01*
X0287472Y0126340D01*
X0287467Y0126298D01*
X0287465Y0126256D01*
X0287465Y0124806D01*
X0288754Y0124806D02*
X0288754Y0126739D01*
X0286178Y0126256D02*
X0286178Y0125289D01*
X0286177Y0125289D02*
X0286175Y0125247D01*
X0286170Y0125205D01*
X0286161Y0125164D01*
X0286148Y0125124D01*
X0286132Y0125085D01*
X0286112Y0125048D01*
X0286090Y0125012D01*
X0286064Y0124979D01*
X0286036Y0124947D01*
X0286004Y0124919D01*
X0285971Y0124893D01*
X0285936Y0124871D01*
X0285898Y0124851D01*
X0285859Y0124835D01*
X0285819Y0124822D01*
X0285778Y0124813D01*
X0285736Y0124808D01*
X0285694Y0124806D01*
X0284889Y0124806D01*
X0284889Y0127706D01*
X0284889Y0126739D02*
X0285694Y0126739D01*
X0285736Y0126737D01*
X0285778Y0126732D01*
X0285819Y0126723D01*
X0285859Y0126710D01*
X0285898Y0126694D01*
X0285936Y0126674D01*
X0285971Y0126652D01*
X0286004Y0126626D01*
X0286036Y0126598D01*
X0286064Y0126566D01*
X0286090Y0126533D01*
X0286112Y0126498D01*
X0286132Y0126460D01*
X0286148Y0126421D01*
X0286161Y0126381D01*
X0286170Y0126340D01*
X0286175Y0126298D01*
X0286177Y0126256D01*
X0281517Y0127706D02*
X0280550Y0124806D01*
X0279583Y0127706D01*
X0278503Y0126256D02*
X0278503Y0125289D01*
X0278502Y0125289D02*
X0278500Y0125247D01*
X0278495Y0125205D01*
X0278486Y0125164D01*
X0278473Y0125124D01*
X0278457Y0125085D01*
X0278437Y0125048D01*
X0278415Y0125012D01*
X0278389Y0124979D01*
X0278361Y0124947D01*
X0278329Y0124919D01*
X0278296Y0124893D01*
X0278261Y0124871D01*
X0278223Y0124851D01*
X0278184Y0124835D01*
X0278144Y0124822D01*
X0278103Y0124813D01*
X0278061Y0124808D01*
X0278019Y0124806D01*
X0277375Y0124806D01*
X0276295Y0125289D02*
X0276295Y0126256D01*
X0276294Y0126256D02*
X0276292Y0126298D01*
X0276287Y0126340D01*
X0276278Y0126381D01*
X0276265Y0126421D01*
X0276249Y0126460D01*
X0276229Y0126498D01*
X0276207Y0126533D01*
X0276181Y0126566D01*
X0276153Y0126598D01*
X0276121Y0126626D01*
X0276088Y0126652D01*
X0276053Y0126674D01*
X0276015Y0126694D01*
X0275976Y0126710D01*
X0275936Y0126723D01*
X0275895Y0126732D01*
X0275853Y0126737D01*
X0275811Y0126739D01*
X0275167Y0126739D01*
X0276294Y0125289D02*
X0276292Y0125247D01*
X0276287Y0125205D01*
X0276278Y0125164D01*
X0276265Y0125124D01*
X0276249Y0125085D01*
X0276229Y0125048D01*
X0276207Y0125012D01*
X0276181Y0124979D01*
X0276153Y0124947D01*
X0276121Y0124919D01*
X0276088Y0124893D01*
X0276053Y0124871D01*
X0276015Y0124851D01*
X0275976Y0124835D01*
X0275936Y0124822D01*
X0275895Y0124813D01*
X0275853Y0124808D01*
X0275811Y0124806D01*
X0275167Y0124806D01*
X0277375Y0126739D02*
X0278019Y0126739D01*
X0278061Y0126737D01*
X0278103Y0126732D01*
X0278144Y0126723D01*
X0278184Y0126710D01*
X0278223Y0126694D01*
X0278261Y0126674D01*
X0278296Y0126652D01*
X0278329Y0126626D01*
X0278361Y0126598D01*
X0278389Y0126566D01*
X0278415Y0126533D01*
X0278437Y0126498D01*
X0278457Y0126460D01*
X0278473Y0126421D01*
X0278486Y0126381D01*
X0278495Y0126340D01*
X0278500Y0126298D01*
X0278502Y0126256D01*
X0166793Y0012706D02*
X0165987Y0012706D01*
X0165932Y0012704D01*
X0165877Y0012698D01*
X0165823Y0012689D01*
X0165770Y0012676D01*
X0165717Y0012659D01*
X0165666Y0012639D01*
X0165616Y0012616D01*
X0165568Y0012589D01*
X0165522Y0012558D01*
X0165478Y0012525D01*
X0165437Y0012489D01*
X0165398Y0012450D01*
X0165362Y0012409D01*
X0165329Y0012365D01*
X0165298Y0012319D01*
X0165271Y0012271D01*
X0165248Y0012221D01*
X0165228Y0012170D01*
X0165211Y0012117D01*
X0165198Y0012064D01*
X0165189Y0012010D01*
X0165183Y0011955D01*
X0165181Y0011900D01*
X0165183Y0011845D01*
X0165189Y0011790D01*
X0165198Y0011736D01*
X0165211Y0011683D01*
X0165228Y0011630D01*
X0165248Y0011579D01*
X0165271Y0011529D01*
X0165298Y0011481D01*
X0165329Y0011435D01*
X0165362Y0011391D01*
X0165398Y0011350D01*
X0165437Y0011311D01*
X0165478Y0011275D01*
X0165522Y0011242D01*
X0165568Y0011211D01*
X0165616Y0011184D01*
X0165666Y0011161D01*
X0165717Y0011141D01*
X0165770Y0011124D01*
X0165823Y0011111D01*
X0165877Y0011102D01*
X0165932Y0011096D01*
X0165987Y0011094D01*
X0165987Y0011095D02*
X0166793Y0011095D01*
X0165826Y0011095D02*
X0165182Y0009806D01*
X0163868Y0010289D02*
X0163868Y0011739D01*
X0162579Y0011739D02*
X0162579Y0009806D01*
X0163384Y0009806D01*
X0163426Y0009808D01*
X0163468Y0009813D01*
X0163509Y0009822D01*
X0163549Y0009835D01*
X0163588Y0009851D01*
X0163626Y0009871D01*
X0163661Y0009893D01*
X0163694Y0009919D01*
X0163726Y0009947D01*
X0163754Y0009979D01*
X0163780Y0010012D01*
X0163802Y0010048D01*
X0163822Y0010085D01*
X0163838Y0010124D01*
X0163851Y0010164D01*
X0163860Y0010205D01*
X0163865Y0010247D01*
X0163867Y0010289D01*
X0161180Y0009806D02*
X0161180Y0011739D01*
X0160374Y0011739D01*
X0160332Y0011737D01*
X0160290Y0011732D01*
X0160249Y0011723D01*
X0160209Y0011710D01*
X0160170Y0011694D01*
X0160133Y0011674D01*
X0160097Y0011652D01*
X0160064Y0011626D01*
X0160032Y0011598D01*
X0160004Y0011566D01*
X0159978Y0011533D01*
X0159956Y0011498D01*
X0159936Y0011460D01*
X0159920Y0011421D01*
X0159907Y0011381D01*
X0159898Y0011340D01*
X0159893Y0011298D01*
X0159891Y0011256D01*
X0159891Y0009806D01*
X0166793Y0009806D02*
X0166793Y0012706D01*
D11*
X0056342Y0016256D02*
X0050342Y0016256D01*
X0050342Y0026256D02*
X0056342Y0026256D01*
X0056342Y0036256D02*
X0050342Y0036256D01*
X0050342Y0046256D02*
X0056342Y0046256D01*
X0198342Y0158256D02*
X0198342Y0164256D01*
X0208342Y0164256D02*
X0208342Y0158256D01*
X0218342Y0158256D02*
X0218342Y0164256D01*
X0228342Y0164256D02*
X0228342Y0158256D01*
X0238342Y0158256D02*
X0238342Y0164256D01*
X0248342Y0164256D02*
X0248342Y0158256D01*
X0278342Y0158256D02*
X0278342Y0164256D01*
X0288342Y0164256D02*
X0288342Y0158256D01*
X0298342Y0158256D02*
X0298342Y0164256D01*
X0308342Y0164256D02*
X0308342Y0158256D01*
X0308342Y0139256D02*
X0308342Y0133256D01*
X0298342Y0133256D02*
X0298342Y0139256D01*
X0288342Y0139256D02*
X0288342Y0133256D01*
X0278342Y0133256D02*
X0278342Y0139256D01*
X0278342Y0114256D02*
X0278342Y0108256D01*
X0288342Y0108256D02*
X0288342Y0114256D01*
X0298342Y0114256D02*
X0298342Y0108256D01*
X0308342Y0108256D02*
X0308342Y0114256D01*
X0308342Y0089256D02*
X0308342Y0083256D01*
X0298342Y0083256D02*
X0298342Y0089256D01*
X0288342Y0089256D02*
X0288342Y0083256D01*
X0278342Y0083256D02*
X0278342Y0089256D01*
X0283342Y0024256D02*
X0283342Y0018256D01*
X0293342Y0018256D02*
X0293342Y0024256D01*
D12*
X0233184Y0027731D02*
X0233184Y0034781D01*
X0213499Y0034781D02*
X0213499Y0027731D01*
D13*
X0148342Y0067656D02*
X0148342Y0074856D01*
X0138342Y0074856D02*
X0138342Y0067656D01*
X0128342Y0067656D02*
X0128342Y0074856D01*
X0118342Y0074856D02*
X0118342Y0067656D01*
X0108342Y0067656D02*
X0108342Y0074856D01*
X0098342Y0074856D02*
X0098342Y0067656D01*
X0088342Y0067656D02*
X0088342Y0074856D01*
X0078342Y0074856D02*
X0078342Y0067656D01*
X0078342Y0157656D02*
X0078342Y0164856D01*
X0088342Y0164856D02*
X0088342Y0157656D01*
X0098342Y0157656D02*
X0098342Y0164856D01*
X0108342Y0164856D02*
X0108342Y0157656D01*
X0118342Y0157656D02*
X0118342Y0164856D01*
X0128342Y0164856D02*
X0128342Y0157656D01*
X0138342Y0157656D02*
X0138342Y0164856D01*
X0148342Y0164856D02*
X0148342Y0157656D01*
D14*
X0148342Y0131256D03*
X0138342Y0131256D03*
X0138342Y0111256D03*
X0148342Y0111256D03*
X0178342Y0111256D03*
X0178342Y0131256D03*
X0108342Y0131256D03*
X0098342Y0131256D03*
X0068342Y0131256D03*
X0108342Y0111256D03*
D15*
X0163342Y0041256D03*
X0163342Y0031256D03*
X0163342Y0021256D03*
D16*
X0278342Y0048656D02*
X0278342Y0053856D01*
X0288342Y0053856D02*
X0288342Y0048656D01*
X0298342Y0048656D02*
X0298342Y0053856D01*
X0240942Y0096256D02*
X0235742Y0096256D01*
X0235742Y0106256D02*
X0240942Y0106256D01*
X0240942Y0116256D02*
X0235742Y0116256D01*
X0235742Y0126256D02*
X0240942Y0126256D01*
X0210942Y0126256D02*
X0205742Y0126256D01*
X0205742Y0116256D02*
X0210942Y0116256D01*
X0210942Y0106256D02*
X0205742Y0106256D01*
X0205742Y0096256D02*
X0210942Y0096256D01*
D17*
X0043342Y0061256D02*
X0043342Y0006256D01*
X0312743Y0006256D01*
X0312743Y0074819D01*
X0312391Y0074210D01*
X0312391Y0074210D01*
X0312391Y0074210D01*
X0311604Y0073756D01*
X0309749Y0073756D01*
X0309469Y0074036D01*
X0309189Y0073756D01*
X0308319Y0073756D01*
X0308109Y0073965D01*
X0307900Y0073756D01*
X0307030Y0073756D01*
X0306691Y0074094D01*
X0306162Y0073789D01*
X0306129Y0073756D01*
X0304454Y0073756D01*
X0303839Y0074371D01*
X0303839Y0078141D01*
X0304454Y0078756D01*
X0305324Y0078756D01*
X0305939Y0078141D01*
X0305939Y0077789D01*
X0306129Y0077789D01*
X0306162Y0077756D01*
X0306817Y0077378D01*
X0306817Y0077378D01*
X0306848Y0077324D01*
X0307313Y0077789D01*
X0309134Y0077789D01*
X0309134Y0078141D01*
X0309749Y0078756D01*
X0311585Y0078756D01*
X0311585Y0078756D01*
X0311604Y0078756D01*
X0312391Y0078302D01*
X0312391Y0078302D01*
X0312743Y0077692D01*
X0312743Y0124309D01*
X0312562Y0124127D01*
X0312562Y0124127D01*
X0311672Y0123756D01*
X0311672Y0123756D01*
X0311189Y0123756D01*
X0310754Y0123756D01*
X0310735Y0123756D01*
X0310086Y0124131D01*
X0309711Y0123756D01*
X0308905Y0123756D01*
X0308905Y0123756D01*
X0307973Y0123756D01*
X0307303Y0124143D01*
X0307206Y0123947D01*
X0306380Y0123672D01*
X0305602Y0124061D01*
X0305494Y0124386D01*
X0305386Y0124061D01*
X0304608Y0123672D01*
X0303783Y0123947D01*
X0303394Y0124725D01*
X0303719Y0125701D01*
X0303719Y0125966D01*
X0303852Y0126098D01*
X0304388Y0127706D01*
X0304361Y0127786D01*
X0304522Y0128109D01*
X0304636Y0128451D01*
X0304712Y0128489D01*
X0304750Y0128564D01*
X0305092Y0128678D01*
X0305414Y0128840D01*
X0305494Y0128813D01*
X0305575Y0128840D01*
X0305897Y0128678D01*
X0306239Y0128564D01*
X0306277Y0128489D01*
X0306353Y0128451D01*
X0306467Y0128109D01*
X0306628Y0127786D01*
X0306601Y0127706D01*
X0306671Y0127495D01*
X0307112Y0128259D01*
X0307112Y0128259D01*
X0307112Y0128259D01*
X0307973Y0128756D01*
X0309711Y0128756D01*
X0310125Y0128341D01*
X0310678Y0128756D01*
X0311885Y0128756D01*
X0312671Y0128302D01*
X0312671Y0128302D01*
X0312671Y0128302D01*
X0312743Y0128178D01*
X0312743Y0171256D01*
X0183342Y0171256D01*
X0183342Y0138356D01*
X0188539Y0138356D01*
X0204439Y0122456D01*
X0220339Y0122456D01*
X0233665Y0109129D01*
X0233759Y0109223D01*
X0235046Y0109756D01*
X0241638Y0109756D01*
X0242924Y0109223D01*
X0243909Y0108238D01*
X0244442Y0106952D01*
X0244442Y0105560D01*
X0243909Y0104273D01*
X0242924Y0103289D01*
X0241638Y0102756D01*
X0235046Y0102756D01*
X0233759Y0103289D01*
X0232775Y0104273D01*
X0232242Y0105560D01*
X0232242Y0106952D01*
X0232302Y0107098D01*
X0219345Y0120056D01*
X0203445Y0120056D01*
X0202742Y0120759D01*
X0187545Y0135956D01*
X0184220Y0135956D01*
X0184431Y0135745D01*
X0184431Y0133766D01*
X0183342Y0132677D01*
X0183342Y0120956D01*
X0190963Y0120956D01*
X0192152Y0122145D01*
X0194131Y0122145D01*
X0195531Y0120745D01*
X0195531Y0118766D01*
X0194131Y0117367D01*
X0192152Y0117367D01*
X0183342Y0117367D01*
X0183342Y0116769D02*
X0202242Y0116769D01*
X0202242Y0116952D02*
X0202242Y0115560D01*
X0202775Y0114273D01*
X0203759Y0113289D01*
X0205046Y0112756D01*
X0211638Y0112756D01*
X0212924Y0113289D01*
X0213909Y0114273D01*
X0214442Y0115560D01*
X0214442Y0116952D01*
X0213909Y0118238D01*
X0212924Y0119223D01*
X0211638Y0119756D01*
X0205046Y0119756D01*
X0203759Y0119223D01*
X0202775Y0118238D01*
X0202242Y0116952D01*
X0202414Y0117367D02*
X0194132Y0117367D01*
X0194730Y0117966D02*
X0202662Y0117966D01*
X0203100Y0118564D02*
X0195329Y0118564D01*
X0195531Y0119163D02*
X0203699Y0119163D01*
X0203141Y0120360D02*
X0195531Y0120360D01*
X0195531Y0119761D02*
X0219640Y0119761D01*
X0220238Y0119163D02*
X0212985Y0119163D01*
X0213583Y0118564D02*
X0220837Y0118564D01*
X0221435Y0117966D02*
X0214022Y0117966D01*
X0214270Y0117367D02*
X0222034Y0117367D01*
X0222632Y0116769D02*
X0214442Y0116769D01*
X0214442Y0116170D02*
X0223231Y0116170D01*
X0223829Y0115572D02*
X0214442Y0115572D01*
X0214199Y0114973D02*
X0224428Y0114973D01*
X0225026Y0114375D02*
X0213951Y0114375D01*
X0213412Y0113776D02*
X0225625Y0113776D01*
X0226223Y0113178D02*
X0212656Y0113178D01*
X0211638Y0109756D02*
X0205046Y0109756D01*
X0203759Y0109223D01*
X0202775Y0108238D01*
X0202242Y0106952D01*
X0202242Y0105560D01*
X0202775Y0104273D01*
X0203759Y0103289D01*
X0205046Y0102756D01*
X0211638Y0102756D01*
X0212924Y0103289D01*
X0213909Y0104273D01*
X0214442Y0105560D01*
X0214442Y0106952D01*
X0213909Y0108238D01*
X0212924Y0109223D01*
X0211638Y0109756D01*
X0212047Y0109586D02*
X0229814Y0109586D01*
X0230413Y0108988D02*
X0213159Y0108988D01*
X0213758Y0108389D02*
X0231011Y0108389D01*
X0231610Y0107791D02*
X0214094Y0107791D01*
X0214342Y0107192D02*
X0232208Y0107192D01*
X0232242Y0106594D02*
X0214442Y0106594D01*
X0214442Y0105995D02*
X0232242Y0105995D01*
X0232309Y0105397D02*
X0214374Y0105397D01*
X0214126Y0104798D02*
X0232557Y0104798D01*
X0232848Y0104200D02*
X0213835Y0104200D01*
X0213237Y0103601D02*
X0233447Y0103601D01*
X0234449Y0103003D02*
X0212234Y0103003D01*
X0211326Y0100156D02*
X0208642Y0100156D01*
X0208642Y0096556D01*
X0214842Y0096556D01*
X0214842Y0096640D01*
X0214692Y0097393D01*
X0214398Y0098103D01*
X0213971Y0098742D01*
X0213428Y0099285D01*
X0212789Y0099712D01*
X0212079Y0100006D01*
X0211326Y0100156D01*
X0212058Y0100010D02*
X0229190Y0100010D01*
X0228945Y0100256D02*
X0232244Y0096957D01*
X0232242Y0096952D01*
X0232242Y0095560D01*
X0232775Y0094273D01*
X0233759Y0093289D01*
X0235046Y0092756D01*
X0241638Y0092756D01*
X0242924Y0093289D01*
X0243909Y0094273D01*
X0244442Y0095560D01*
X0244442Y0096952D01*
X0243909Y0098238D01*
X0242924Y0099223D01*
X0241638Y0099756D01*
X0235046Y0099756D01*
X0233759Y0099223D01*
X0233565Y0099029D01*
X0230642Y0101953D01*
X0229939Y0102656D01*
X0188839Y0102656D01*
X0183342Y0108153D01*
X0183342Y0118556D01*
X0190963Y0118556D01*
X0192152Y0117367D01*
X0191554Y0117966D02*
X0183342Y0117966D01*
X0183342Y0116170D02*
X0202242Y0116170D01*
X0202242Y0115572D02*
X0183342Y0115572D01*
X0183342Y0114973D02*
X0202485Y0114973D01*
X0202733Y0114375D02*
X0183342Y0114375D01*
X0183342Y0113776D02*
X0203272Y0113776D01*
X0204028Y0113178D02*
X0183342Y0113178D01*
X0183342Y0112579D02*
X0226822Y0112579D01*
X0227420Y0111980D02*
X0183342Y0111980D01*
X0183342Y0111382D02*
X0228019Y0111382D01*
X0228617Y0110783D02*
X0183342Y0110783D01*
X0183342Y0110185D02*
X0229216Y0110185D01*
X0230814Y0111980D02*
X0274442Y0111980D01*
X0274442Y0111382D02*
X0231413Y0111382D01*
X0232011Y0110783D02*
X0274442Y0110783D01*
X0274442Y0110185D02*
X0232610Y0110185D01*
X0233208Y0109586D02*
X0234637Y0109586D01*
X0233642Y0107456D02*
X0236942Y0107456D01*
X0238142Y0106256D01*
X0238342Y0106256D01*
X0233642Y0107456D02*
X0219842Y0121256D01*
X0203942Y0121256D01*
X0188042Y0137156D01*
X0139142Y0137156D01*
X0113342Y0111356D01*
X0108542Y0111356D01*
X0108342Y0111256D01*
X0138342Y0131256D02*
X0138542Y0131456D01*
X0143342Y0131456D01*
X0146642Y0134756D01*
X0182042Y0134756D01*
X0184431Y0134724D02*
X0188777Y0134724D01*
X0189375Y0134125D02*
X0184431Y0134125D01*
X0184191Y0133527D02*
X0189974Y0133527D01*
X0190572Y0132928D02*
X0183593Y0132928D01*
X0183342Y0132330D02*
X0191171Y0132330D01*
X0191769Y0131731D02*
X0183342Y0131731D01*
X0183342Y0131133D02*
X0192368Y0131133D01*
X0192966Y0130534D02*
X0183342Y0130534D01*
X0183342Y0129936D02*
X0193565Y0129936D01*
X0194163Y0129337D02*
X0183342Y0129337D01*
X0183342Y0128739D02*
X0194762Y0128739D01*
X0195360Y0128140D02*
X0183342Y0128140D01*
X0183342Y0127542D02*
X0195959Y0127542D01*
X0196557Y0126943D02*
X0183342Y0126943D01*
X0183342Y0126345D02*
X0197156Y0126345D01*
X0197754Y0125746D02*
X0183342Y0125746D01*
X0183342Y0125148D02*
X0198353Y0125148D01*
X0198951Y0124549D02*
X0183342Y0124549D01*
X0183342Y0123951D02*
X0199550Y0123951D01*
X0200148Y0123352D02*
X0183342Y0123352D01*
X0183342Y0122754D02*
X0200747Y0122754D01*
X0201345Y0122155D02*
X0183342Y0122155D01*
X0183342Y0121557D02*
X0191564Y0121557D01*
X0190966Y0120958D02*
X0183342Y0120958D01*
X0179342Y0119756D02*
X0177992Y0121106D01*
X0178142Y0121256D01*
X0178142Y0131156D01*
X0178342Y0131256D01*
X0184431Y0135322D02*
X0188178Y0135322D01*
X0187580Y0135921D02*
X0184255Y0135921D01*
X0183342Y0138914D02*
X0274442Y0138914D01*
X0274442Y0139512D02*
X0183342Y0139512D01*
X0183342Y0140111D02*
X0274474Y0140111D01*
X0274442Y0140032D02*
X0275036Y0141465D01*
X0276133Y0142562D01*
X0277566Y0143156D01*
X0279118Y0143156D01*
X0280551Y0142562D01*
X0281648Y0141465D01*
X0282242Y0140032D01*
X0282242Y0132480D01*
X0281648Y0131047D01*
X0280551Y0129950D01*
X0279118Y0129356D01*
X0277566Y0129356D01*
X0276133Y0129950D01*
X0275036Y0131047D01*
X0274442Y0132480D01*
X0274442Y0140032D01*
X0274722Y0140709D02*
X0183342Y0140709D01*
X0183342Y0141308D02*
X0274970Y0141308D01*
X0275477Y0141906D02*
X0183342Y0141906D01*
X0183342Y0142505D02*
X0276075Y0142505D01*
X0277439Y0143103D02*
X0183342Y0143103D01*
X0183342Y0143702D02*
X0312743Y0143702D01*
X0312743Y0144300D02*
X0183342Y0144300D01*
X0183342Y0144899D02*
X0312743Y0144899D01*
X0312743Y0145497D02*
X0183342Y0145497D01*
X0183342Y0146096D02*
X0312743Y0146096D01*
X0312743Y0146694D02*
X0183342Y0146694D01*
X0183342Y0147293D02*
X0312743Y0147293D01*
X0312743Y0147891D02*
X0183342Y0147891D01*
X0183342Y0148490D02*
X0312743Y0148490D01*
X0312743Y0149088D02*
X0183342Y0149088D01*
X0183342Y0149687D02*
X0312743Y0149687D01*
X0312743Y0150285D02*
X0183342Y0150285D01*
X0183342Y0150884D02*
X0312743Y0150884D01*
X0312743Y0151482D02*
X0183342Y0151482D01*
X0183342Y0152081D02*
X0312743Y0152081D01*
X0312743Y0152679D02*
X0183342Y0152679D01*
X0183342Y0153278D02*
X0312743Y0153278D01*
X0312743Y0153876D02*
X0183342Y0153876D01*
X0183342Y0154475D02*
X0197279Y0154475D01*
X0197566Y0154356D02*
X0199118Y0154356D01*
X0200551Y0154950D01*
X0201648Y0156047D01*
X0202242Y0157480D01*
X0202242Y0165032D01*
X0201648Y0166465D01*
X0200551Y0167562D01*
X0199118Y0168156D01*
X0197566Y0168156D01*
X0196133Y0167562D01*
X0195036Y0166465D01*
X0194442Y0165032D01*
X0194442Y0157480D01*
X0195036Y0156047D01*
X0196133Y0154950D01*
X0197566Y0154356D01*
X0196009Y0155073D02*
X0183342Y0155073D01*
X0183342Y0155672D02*
X0195410Y0155672D01*
X0194943Y0156270D02*
X0183342Y0156270D01*
X0183342Y0156869D02*
X0194695Y0156869D01*
X0194447Y0157467D02*
X0183342Y0157467D01*
X0183342Y0158066D02*
X0194442Y0158066D01*
X0194442Y0158664D02*
X0183342Y0158664D01*
X0183342Y0159263D02*
X0194442Y0159263D01*
X0194442Y0159861D02*
X0183342Y0159861D01*
X0183342Y0160460D02*
X0194442Y0160460D01*
X0194442Y0161058D02*
X0183342Y0161058D01*
X0183342Y0161657D02*
X0194442Y0161657D01*
X0194442Y0162255D02*
X0183342Y0162255D01*
X0183342Y0162854D02*
X0194442Y0162854D01*
X0194442Y0163452D02*
X0183342Y0163452D01*
X0183342Y0164051D02*
X0194442Y0164051D01*
X0194442Y0164649D02*
X0183342Y0164649D01*
X0183342Y0165248D02*
X0194531Y0165248D01*
X0194779Y0165847D02*
X0183342Y0165847D01*
X0183342Y0166445D02*
X0195027Y0166445D01*
X0195614Y0167044D02*
X0183342Y0167044D01*
X0183342Y0167642D02*
X0196326Y0167642D01*
X0200358Y0167642D02*
X0205687Y0167642D01*
X0205541Y0167536D02*
X0205062Y0167057D01*
X0204664Y0166510D01*
X0204357Y0165907D01*
X0204148Y0165263D01*
X0204042Y0164594D01*
X0204042Y0161556D01*
X0208042Y0161556D01*
X0208042Y0168556D01*
X0208003Y0168556D01*
X0207335Y0168450D01*
X0206691Y0168241D01*
X0206088Y0167934D01*
X0205541Y0167536D01*
X0205052Y0167044D02*
X0201070Y0167044D01*
X0201656Y0166445D02*
X0204631Y0166445D01*
X0204337Y0165847D02*
X0201904Y0165847D01*
X0202152Y0165248D02*
X0204145Y0165248D01*
X0204051Y0164649D02*
X0202242Y0164649D01*
X0202242Y0164051D02*
X0204042Y0164051D01*
X0204042Y0163452D02*
X0202242Y0163452D01*
X0202242Y0162854D02*
X0204042Y0162854D01*
X0204042Y0162255D02*
X0202242Y0162255D01*
X0202242Y0161657D02*
X0204042Y0161657D01*
X0204042Y0160956D02*
X0204042Y0157917D01*
X0204148Y0157249D01*
X0204357Y0156605D01*
X0204664Y0156002D01*
X0205062Y0155455D01*
X0205541Y0154976D01*
X0206088Y0154578D01*
X0206691Y0154271D01*
X0207335Y0154062D01*
X0208003Y0153956D01*
X0208042Y0153956D01*
X0208042Y0160956D01*
X0208642Y0160956D01*
X0208642Y0161556D01*
X0212642Y0161556D01*
X0212642Y0164594D01*
X0212536Y0165263D01*
X0212327Y0165907D01*
X0212019Y0166510D01*
X0211622Y0167057D01*
X0211143Y0167536D01*
X0210595Y0167934D01*
X0209992Y0168241D01*
X0209349Y0168450D01*
X0208680Y0168556D01*
X0208642Y0168556D01*
X0208642Y0161556D01*
X0208042Y0161556D01*
X0208042Y0160956D01*
X0204042Y0160956D01*
X0204042Y0160460D02*
X0202242Y0160460D01*
X0202242Y0161058D02*
X0208042Y0161058D01*
X0208042Y0160460D02*
X0208642Y0160460D01*
X0208642Y0160956D02*
X0208642Y0153956D01*
X0208680Y0153956D01*
X0209349Y0154062D01*
X0209992Y0154271D01*
X0210595Y0154578D01*
X0211143Y0154976D01*
X0211622Y0155455D01*
X0212019Y0156002D01*
X0212327Y0156605D01*
X0212536Y0157249D01*
X0212642Y0157917D01*
X0212642Y0160956D01*
X0208642Y0160956D01*
X0208642Y0161058D02*
X0218042Y0161058D01*
X0218042Y0160956D02*
X0214042Y0160956D01*
X0214042Y0157917D01*
X0214148Y0157249D01*
X0214357Y0156605D01*
X0214664Y0156002D01*
X0215062Y0155455D01*
X0215541Y0154976D01*
X0216088Y0154578D01*
X0216691Y0154271D01*
X0217335Y0154062D01*
X0218003Y0153956D01*
X0218042Y0153956D01*
X0218042Y0160956D01*
X0218642Y0160956D01*
X0218642Y0161556D01*
X0222642Y0161556D01*
X0222642Y0164594D01*
X0222536Y0165263D01*
X0222327Y0165907D01*
X0222019Y0166510D01*
X0221622Y0167057D01*
X0221143Y0167536D01*
X0220595Y0167934D01*
X0219992Y0168241D01*
X0219349Y0168450D01*
X0218680Y0168556D01*
X0218642Y0168556D01*
X0218642Y0161556D01*
X0218042Y0161556D01*
X0218042Y0168556D01*
X0218003Y0168556D01*
X0217335Y0168450D01*
X0216691Y0168241D01*
X0216088Y0167934D01*
X0215541Y0167536D01*
X0215062Y0167057D01*
X0214664Y0166510D01*
X0214357Y0165907D01*
X0214148Y0165263D01*
X0214042Y0164594D01*
X0214042Y0161556D01*
X0218042Y0161556D01*
X0218042Y0160956D01*
X0218042Y0160460D02*
X0218642Y0160460D01*
X0218642Y0160956D02*
X0218642Y0153956D01*
X0218680Y0153956D01*
X0219349Y0154062D01*
X0219992Y0154271D01*
X0220595Y0154578D01*
X0221143Y0154976D01*
X0221622Y0155455D01*
X0222019Y0156002D01*
X0222327Y0156605D01*
X0222536Y0157249D01*
X0222642Y0157917D01*
X0222642Y0160956D01*
X0218642Y0160956D01*
X0218642Y0161058D02*
X0224442Y0161058D01*
X0224442Y0160460D02*
X0222642Y0160460D01*
X0222642Y0159861D02*
X0224442Y0159861D01*
X0224442Y0159263D02*
X0222642Y0159263D01*
X0222642Y0158664D02*
X0224442Y0158664D01*
X0224442Y0158066D02*
X0222642Y0158066D01*
X0222570Y0157467D02*
X0224447Y0157467D01*
X0224442Y0157480D02*
X0225036Y0156047D01*
X0226133Y0154950D01*
X0227566Y0154356D01*
X0229118Y0154356D01*
X0230551Y0154950D01*
X0231648Y0156047D01*
X0232242Y0157480D01*
X0232242Y0165032D01*
X0231648Y0166465D01*
X0230551Y0167562D01*
X0229118Y0168156D01*
X0227566Y0168156D01*
X0226133Y0167562D01*
X0225036Y0166465D01*
X0224442Y0165032D01*
X0224442Y0157480D01*
X0224695Y0156869D02*
X0222412Y0156869D01*
X0222156Y0156270D02*
X0224943Y0156270D01*
X0225410Y0155672D02*
X0221779Y0155672D01*
X0221240Y0155073D02*
X0226009Y0155073D01*
X0227279Y0154475D02*
X0220393Y0154475D01*
X0218642Y0154475D02*
X0218042Y0154475D01*
X0218042Y0155073D02*
X0218642Y0155073D01*
X0218642Y0155672D02*
X0218042Y0155672D01*
X0218042Y0156270D02*
X0218642Y0156270D01*
X0218642Y0156869D02*
X0218042Y0156869D01*
X0218042Y0157467D02*
X0218642Y0157467D01*
X0218642Y0158066D02*
X0218042Y0158066D01*
X0218042Y0158664D02*
X0218642Y0158664D01*
X0218642Y0159263D02*
X0218042Y0159263D01*
X0218042Y0159861D02*
X0218642Y0159861D01*
X0218642Y0161657D02*
X0218042Y0161657D01*
X0218042Y0162255D02*
X0218642Y0162255D01*
X0218642Y0162854D02*
X0218042Y0162854D01*
X0218042Y0163452D02*
X0218642Y0163452D01*
X0218642Y0164051D02*
X0218042Y0164051D01*
X0218042Y0164649D02*
X0218642Y0164649D01*
X0218642Y0165248D02*
X0218042Y0165248D01*
X0218042Y0165847D02*
X0218642Y0165847D01*
X0218642Y0166445D02*
X0218042Y0166445D01*
X0218042Y0167044D02*
X0218642Y0167044D01*
X0218642Y0167642D02*
X0218042Y0167642D01*
X0218042Y0168241D02*
X0218642Y0168241D01*
X0219993Y0168241D02*
X0236691Y0168241D01*
X0236088Y0167934D01*
X0235541Y0167536D01*
X0235062Y0167057D01*
X0234664Y0166510D01*
X0234357Y0165907D01*
X0234148Y0165263D01*
X0234042Y0164594D01*
X0234042Y0161556D01*
X0238042Y0161556D01*
X0238042Y0168556D01*
X0238003Y0168556D01*
X0237335Y0168450D01*
X0236691Y0168241D01*
X0235687Y0167642D02*
X0230358Y0167642D01*
X0231070Y0167044D02*
X0235052Y0167044D01*
X0234631Y0166445D02*
X0231656Y0166445D01*
X0231904Y0165847D02*
X0234337Y0165847D01*
X0234145Y0165248D02*
X0232152Y0165248D01*
X0232242Y0164649D02*
X0234051Y0164649D01*
X0234042Y0164051D02*
X0232242Y0164051D01*
X0232242Y0163452D02*
X0234042Y0163452D01*
X0234042Y0162854D02*
X0232242Y0162854D01*
X0232242Y0162255D02*
X0234042Y0162255D01*
X0234042Y0161657D02*
X0232242Y0161657D01*
X0232242Y0161058D02*
X0238042Y0161058D01*
X0238042Y0160956D02*
X0234042Y0160956D01*
X0234042Y0157917D01*
X0234148Y0157249D01*
X0234357Y0156605D01*
X0234664Y0156002D01*
X0235062Y0155455D01*
X0235541Y0154976D01*
X0236088Y0154578D01*
X0236691Y0154271D01*
X0237335Y0154062D01*
X0238003Y0153956D01*
X0238042Y0153956D01*
X0238042Y0160956D01*
X0238642Y0160956D01*
X0238642Y0161556D01*
X0242642Y0161556D01*
X0242642Y0164594D01*
X0242536Y0165263D01*
X0242327Y0165907D01*
X0242019Y0166510D01*
X0241622Y0167057D01*
X0241143Y0167536D01*
X0240595Y0167934D01*
X0239992Y0168241D01*
X0239349Y0168450D01*
X0238680Y0168556D01*
X0238642Y0168556D01*
X0238642Y0161556D01*
X0238042Y0161556D01*
X0238042Y0160956D01*
X0238042Y0160460D02*
X0238642Y0160460D01*
X0238642Y0160956D02*
X0238642Y0153956D01*
X0238680Y0153956D01*
X0239349Y0154062D01*
X0239992Y0154271D01*
X0240595Y0154578D01*
X0241143Y0154976D01*
X0241622Y0155455D01*
X0242019Y0156002D01*
X0242327Y0156605D01*
X0242536Y0157249D01*
X0242642Y0157917D01*
X0242642Y0160956D01*
X0238642Y0160956D01*
X0238642Y0161058D02*
X0244442Y0161058D01*
X0244442Y0160460D02*
X0242642Y0160460D01*
X0242642Y0159861D02*
X0244442Y0159861D01*
X0244442Y0159263D02*
X0242642Y0159263D01*
X0242642Y0158664D02*
X0244442Y0158664D01*
X0244442Y0158066D02*
X0242642Y0158066D01*
X0242570Y0157467D02*
X0244447Y0157467D01*
X0244442Y0157480D02*
X0245036Y0156047D01*
X0246133Y0154950D01*
X0247566Y0154356D01*
X0249118Y0154356D01*
X0250551Y0154950D01*
X0251648Y0156047D01*
X0252242Y0157480D01*
X0252242Y0165032D01*
X0251648Y0166465D01*
X0250551Y0167562D01*
X0249118Y0168156D01*
X0247566Y0168156D01*
X0246133Y0167562D01*
X0245036Y0166465D01*
X0244442Y0165032D01*
X0244442Y0157480D01*
X0244695Y0156869D02*
X0242412Y0156869D01*
X0242156Y0156270D02*
X0244943Y0156270D01*
X0245410Y0155672D02*
X0241779Y0155672D01*
X0241240Y0155073D02*
X0246009Y0155073D01*
X0247279Y0154475D02*
X0240393Y0154475D01*
X0238642Y0154475D02*
X0238042Y0154475D01*
X0238042Y0155073D02*
X0238642Y0155073D01*
X0238642Y0155672D02*
X0238042Y0155672D01*
X0238042Y0156270D02*
X0238642Y0156270D01*
X0238642Y0156869D02*
X0238042Y0156869D01*
X0238042Y0157467D02*
X0238642Y0157467D01*
X0238642Y0158066D02*
X0238042Y0158066D01*
X0238042Y0158664D02*
X0238642Y0158664D01*
X0238642Y0159263D02*
X0238042Y0159263D01*
X0238042Y0159861D02*
X0238642Y0159861D01*
X0238642Y0161657D02*
X0238042Y0161657D01*
X0238042Y0162255D02*
X0238642Y0162255D01*
X0238642Y0162854D02*
X0238042Y0162854D01*
X0238042Y0163452D02*
X0238642Y0163452D01*
X0238642Y0164051D02*
X0238042Y0164051D01*
X0238042Y0164649D02*
X0238642Y0164649D01*
X0238642Y0165248D02*
X0238042Y0165248D01*
X0238042Y0165847D02*
X0238642Y0165847D01*
X0238642Y0166445D02*
X0238042Y0166445D01*
X0238042Y0167044D02*
X0238642Y0167044D01*
X0238642Y0167642D02*
X0238042Y0167642D01*
X0238042Y0168241D02*
X0238642Y0168241D01*
X0239993Y0168241D02*
X0286691Y0168241D01*
X0286088Y0167934D01*
X0285541Y0167536D01*
X0285062Y0167057D01*
X0284664Y0166510D01*
X0284357Y0165907D01*
X0284148Y0165263D01*
X0284042Y0164594D01*
X0284042Y0161556D01*
X0288042Y0161556D01*
X0288042Y0168556D01*
X0288003Y0168556D01*
X0287335Y0168450D01*
X0286691Y0168241D01*
X0285687Y0167642D02*
X0280358Y0167642D01*
X0280551Y0167562D02*
X0279118Y0168156D01*
X0277566Y0168156D01*
X0276133Y0167562D01*
X0275036Y0166465D01*
X0274442Y0165032D01*
X0274442Y0157480D01*
X0275036Y0156047D01*
X0276133Y0154950D01*
X0277566Y0154356D01*
X0279118Y0154356D01*
X0280551Y0154950D01*
X0281648Y0156047D01*
X0282242Y0157480D01*
X0282242Y0165032D01*
X0281648Y0166465D01*
X0280551Y0167562D01*
X0281070Y0167044D02*
X0285052Y0167044D01*
X0284631Y0166445D02*
X0281656Y0166445D01*
X0281904Y0165847D02*
X0284337Y0165847D01*
X0284145Y0165248D02*
X0282152Y0165248D01*
X0282242Y0164649D02*
X0284051Y0164649D01*
X0284042Y0164051D02*
X0282242Y0164051D01*
X0282242Y0163452D02*
X0284042Y0163452D01*
X0284042Y0162854D02*
X0282242Y0162854D01*
X0282242Y0162255D02*
X0284042Y0162255D01*
X0284042Y0161657D02*
X0282242Y0161657D01*
X0282242Y0161058D02*
X0288042Y0161058D01*
X0288042Y0160956D02*
X0284042Y0160956D01*
X0284042Y0157917D01*
X0284148Y0157249D01*
X0284357Y0156605D01*
X0284664Y0156002D01*
X0285062Y0155455D01*
X0285541Y0154976D01*
X0286088Y0154578D01*
X0286691Y0154271D01*
X0287335Y0154062D01*
X0288003Y0153956D01*
X0288042Y0153956D01*
X0288042Y0160956D01*
X0288642Y0160956D01*
X0288642Y0161556D01*
X0292642Y0161556D01*
X0292642Y0164594D01*
X0292536Y0165263D01*
X0292327Y0165907D01*
X0292019Y0166510D01*
X0291622Y0167057D01*
X0291143Y0167536D01*
X0290595Y0167934D01*
X0289992Y0168241D01*
X0289349Y0168450D01*
X0288680Y0168556D01*
X0288642Y0168556D01*
X0288642Y0161556D01*
X0288042Y0161556D01*
X0288042Y0160956D01*
X0288042Y0160460D02*
X0288642Y0160460D01*
X0288642Y0160956D02*
X0288642Y0153956D01*
X0288680Y0153956D01*
X0289349Y0154062D01*
X0289992Y0154271D01*
X0290595Y0154578D01*
X0291143Y0154976D01*
X0291622Y0155455D01*
X0292019Y0156002D01*
X0292327Y0156605D01*
X0292536Y0157249D01*
X0292642Y0157917D01*
X0292642Y0160956D01*
X0288642Y0160956D01*
X0288642Y0161058D02*
X0294442Y0161058D01*
X0294442Y0160460D02*
X0292642Y0160460D01*
X0292642Y0159861D02*
X0294442Y0159861D01*
X0294442Y0159263D02*
X0292642Y0159263D01*
X0292642Y0158664D02*
X0294442Y0158664D01*
X0294442Y0158066D02*
X0292642Y0158066D01*
X0292570Y0157467D02*
X0294447Y0157467D01*
X0294442Y0157480D02*
X0295036Y0156047D01*
X0296133Y0154950D01*
X0297566Y0154356D01*
X0299118Y0154356D01*
X0300551Y0154950D01*
X0301648Y0156047D01*
X0302242Y0157480D01*
X0302242Y0165032D01*
X0301648Y0166465D01*
X0300551Y0167562D01*
X0299118Y0168156D01*
X0297566Y0168156D01*
X0296133Y0167562D01*
X0295036Y0166465D01*
X0294442Y0165032D01*
X0294442Y0157480D01*
X0294695Y0156869D02*
X0292412Y0156869D01*
X0292156Y0156270D02*
X0294943Y0156270D01*
X0295410Y0155672D02*
X0291779Y0155672D01*
X0291240Y0155073D02*
X0296009Y0155073D01*
X0297279Y0154475D02*
X0290393Y0154475D01*
X0288642Y0154475D02*
X0288042Y0154475D01*
X0288042Y0155073D02*
X0288642Y0155073D01*
X0288642Y0155672D02*
X0288042Y0155672D01*
X0288042Y0156270D02*
X0288642Y0156270D01*
X0288642Y0156869D02*
X0288042Y0156869D01*
X0288042Y0157467D02*
X0288642Y0157467D01*
X0288642Y0158066D02*
X0288042Y0158066D01*
X0288042Y0158664D02*
X0288642Y0158664D01*
X0288642Y0159263D02*
X0288042Y0159263D01*
X0288042Y0159861D02*
X0288642Y0159861D01*
X0288642Y0161657D02*
X0288042Y0161657D01*
X0288042Y0162255D02*
X0288642Y0162255D01*
X0288642Y0162854D02*
X0288042Y0162854D01*
X0288042Y0163452D02*
X0288642Y0163452D01*
X0288642Y0164051D02*
X0288042Y0164051D01*
X0288042Y0164649D02*
X0288642Y0164649D01*
X0288642Y0165248D02*
X0288042Y0165248D01*
X0288042Y0165847D02*
X0288642Y0165847D01*
X0288642Y0166445D02*
X0288042Y0166445D01*
X0288042Y0167044D02*
X0288642Y0167044D01*
X0288642Y0167642D02*
X0288042Y0167642D01*
X0288042Y0168241D02*
X0288642Y0168241D01*
X0289993Y0168241D02*
X0312743Y0168241D01*
X0312743Y0168839D02*
X0183342Y0168839D01*
X0183342Y0168241D02*
X0206691Y0168241D01*
X0208042Y0168241D02*
X0208642Y0168241D01*
X0208642Y0167642D02*
X0208042Y0167642D01*
X0208042Y0167044D02*
X0208642Y0167044D01*
X0208642Y0166445D02*
X0208042Y0166445D01*
X0208042Y0165847D02*
X0208642Y0165847D01*
X0208642Y0165248D02*
X0208042Y0165248D01*
X0208042Y0164649D02*
X0208642Y0164649D01*
X0208642Y0164051D02*
X0208042Y0164051D01*
X0208042Y0163452D02*
X0208642Y0163452D01*
X0208642Y0162854D02*
X0208042Y0162854D01*
X0208042Y0162255D02*
X0208642Y0162255D01*
X0208642Y0161657D02*
X0208042Y0161657D01*
X0208042Y0159861D02*
X0208642Y0159861D01*
X0208642Y0159263D02*
X0208042Y0159263D01*
X0208042Y0158664D02*
X0208642Y0158664D01*
X0208642Y0158066D02*
X0208042Y0158066D01*
X0208042Y0157467D02*
X0208642Y0157467D01*
X0208642Y0156869D02*
X0208042Y0156869D01*
X0208042Y0156270D02*
X0208642Y0156270D01*
X0208642Y0155672D02*
X0208042Y0155672D01*
X0208042Y0155073D02*
X0208642Y0155073D01*
X0208642Y0154475D02*
X0208042Y0154475D01*
X0206291Y0154475D02*
X0199405Y0154475D01*
X0200675Y0155073D02*
X0205443Y0155073D01*
X0204904Y0155672D02*
X0201273Y0155672D01*
X0201741Y0156270D02*
X0204527Y0156270D01*
X0204271Y0156869D02*
X0201989Y0156869D01*
X0202236Y0157467D02*
X0204113Y0157467D01*
X0204042Y0158066D02*
X0202242Y0158066D01*
X0202242Y0158664D02*
X0204042Y0158664D01*
X0204042Y0159263D02*
X0202242Y0159263D01*
X0202242Y0159861D02*
X0204042Y0159861D01*
X0210393Y0154475D02*
X0216291Y0154475D01*
X0215443Y0155073D02*
X0211240Y0155073D01*
X0211779Y0155672D02*
X0214904Y0155672D01*
X0214527Y0156270D02*
X0212156Y0156270D01*
X0212412Y0156869D02*
X0214271Y0156869D01*
X0214113Y0157467D02*
X0212570Y0157467D01*
X0212642Y0158066D02*
X0214042Y0158066D01*
X0214042Y0158664D02*
X0212642Y0158664D01*
X0212642Y0159263D02*
X0214042Y0159263D01*
X0214042Y0159861D02*
X0212642Y0159861D01*
X0212642Y0160460D02*
X0214042Y0160460D01*
X0214042Y0161657D02*
X0212642Y0161657D01*
X0212642Y0162255D02*
X0214042Y0162255D01*
X0214042Y0162854D02*
X0212642Y0162854D01*
X0212642Y0163452D02*
X0214042Y0163452D01*
X0214042Y0164051D02*
X0212642Y0164051D01*
X0212633Y0164649D02*
X0214051Y0164649D01*
X0214145Y0165248D02*
X0212538Y0165248D01*
X0212346Y0165847D02*
X0214337Y0165847D01*
X0214631Y0166445D02*
X0212052Y0166445D01*
X0211632Y0167044D02*
X0215052Y0167044D01*
X0215687Y0167642D02*
X0210997Y0167642D01*
X0209993Y0168241D02*
X0216691Y0168241D01*
X0220997Y0167642D02*
X0226326Y0167642D01*
X0225614Y0167044D02*
X0221632Y0167044D01*
X0222052Y0166445D02*
X0225027Y0166445D01*
X0224779Y0165847D02*
X0222346Y0165847D01*
X0222538Y0165248D02*
X0224531Y0165248D01*
X0224442Y0164649D02*
X0222633Y0164649D01*
X0222642Y0164051D02*
X0224442Y0164051D01*
X0224442Y0163452D02*
X0222642Y0163452D01*
X0222642Y0162854D02*
X0224442Y0162854D01*
X0224442Y0162255D02*
X0222642Y0162255D01*
X0222642Y0161657D02*
X0224442Y0161657D01*
X0232242Y0160460D02*
X0234042Y0160460D01*
X0234042Y0159861D02*
X0232242Y0159861D01*
X0232242Y0159263D02*
X0234042Y0159263D01*
X0234042Y0158664D02*
X0232242Y0158664D01*
X0232242Y0158066D02*
X0234042Y0158066D01*
X0234113Y0157467D02*
X0232236Y0157467D01*
X0231989Y0156869D02*
X0234271Y0156869D01*
X0234527Y0156270D02*
X0231741Y0156270D01*
X0231273Y0155672D02*
X0234904Y0155672D01*
X0235443Y0155073D02*
X0230675Y0155073D01*
X0229405Y0154475D02*
X0236291Y0154475D01*
X0242642Y0161657D02*
X0244442Y0161657D01*
X0244442Y0162255D02*
X0242642Y0162255D01*
X0242642Y0162854D02*
X0244442Y0162854D01*
X0244442Y0163452D02*
X0242642Y0163452D01*
X0242642Y0164051D02*
X0244442Y0164051D01*
X0244442Y0164649D02*
X0242633Y0164649D01*
X0242538Y0165248D02*
X0244531Y0165248D01*
X0244779Y0165847D02*
X0242346Y0165847D01*
X0242052Y0166445D02*
X0245027Y0166445D01*
X0245614Y0167044D02*
X0241632Y0167044D01*
X0240997Y0167642D02*
X0246326Y0167642D01*
X0250358Y0167642D02*
X0276326Y0167642D01*
X0275614Y0167044D02*
X0251070Y0167044D01*
X0251656Y0166445D02*
X0275027Y0166445D01*
X0274779Y0165847D02*
X0251904Y0165847D01*
X0252152Y0165248D02*
X0274531Y0165248D01*
X0274442Y0164649D02*
X0252242Y0164649D01*
X0252242Y0164051D02*
X0274442Y0164051D01*
X0274442Y0163452D02*
X0252242Y0163452D01*
X0252242Y0162854D02*
X0274442Y0162854D01*
X0274442Y0162255D02*
X0252242Y0162255D01*
X0252242Y0161657D02*
X0274442Y0161657D01*
X0274442Y0161058D02*
X0252242Y0161058D01*
X0252242Y0160460D02*
X0274442Y0160460D01*
X0274442Y0159861D02*
X0252242Y0159861D01*
X0252242Y0159263D02*
X0274442Y0159263D01*
X0274442Y0158664D02*
X0252242Y0158664D01*
X0252242Y0158066D02*
X0274442Y0158066D01*
X0274447Y0157467D02*
X0252236Y0157467D01*
X0251989Y0156869D02*
X0274695Y0156869D01*
X0274943Y0156270D02*
X0251741Y0156270D01*
X0251273Y0155672D02*
X0275410Y0155672D01*
X0276009Y0155073D02*
X0250675Y0155073D01*
X0249405Y0154475D02*
X0277279Y0154475D01*
X0279405Y0154475D02*
X0286291Y0154475D01*
X0285443Y0155073D02*
X0280675Y0155073D01*
X0281273Y0155672D02*
X0284904Y0155672D01*
X0284527Y0156270D02*
X0281741Y0156270D01*
X0281989Y0156869D02*
X0284271Y0156869D01*
X0284113Y0157467D02*
X0282236Y0157467D01*
X0282242Y0158066D02*
X0284042Y0158066D01*
X0284042Y0158664D02*
X0282242Y0158664D01*
X0282242Y0159263D02*
X0284042Y0159263D01*
X0284042Y0159861D02*
X0282242Y0159861D01*
X0282242Y0160460D02*
X0284042Y0160460D01*
X0292642Y0161657D02*
X0294442Y0161657D01*
X0294442Y0162255D02*
X0292642Y0162255D01*
X0292642Y0162854D02*
X0294442Y0162854D01*
X0294442Y0163452D02*
X0292642Y0163452D01*
X0292642Y0164051D02*
X0294442Y0164051D01*
X0294442Y0164649D02*
X0292633Y0164649D01*
X0292538Y0165248D02*
X0294531Y0165248D01*
X0294779Y0165847D02*
X0292346Y0165847D01*
X0292052Y0166445D02*
X0295027Y0166445D01*
X0295614Y0167044D02*
X0291632Y0167044D01*
X0290997Y0167642D02*
X0296326Y0167642D01*
X0300358Y0167642D02*
X0306326Y0167642D01*
X0306133Y0167562D02*
X0305036Y0166465D01*
X0304442Y0165032D01*
X0304442Y0157480D01*
X0305036Y0156047D01*
X0306133Y0154950D01*
X0307566Y0154356D01*
X0309118Y0154356D01*
X0310551Y0154950D01*
X0311648Y0156047D01*
X0312242Y0157480D01*
X0312242Y0165032D01*
X0311648Y0166465D01*
X0310551Y0167562D01*
X0309118Y0168156D01*
X0307566Y0168156D01*
X0306133Y0167562D01*
X0305614Y0167044D02*
X0301070Y0167044D01*
X0301656Y0166445D02*
X0305027Y0166445D01*
X0304779Y0165847D02*
X0301904Y0165847D01*
X0302152Y0165248D02*
X0304531Y0165248D01*
X0304442Y0164649D02*
X0302242Y0164649D01*
X0302242Y0164051D02*
X0304442Y0164051D01*
X0304442Y0163452D02*
X0302242Y0163452D01*
X0302242Y0162854D02*
X0304442Y0162854D01*
X0304442Y0162255D02*
X0302242Y0162255D01*
X0302242Y0161657D02*
X0304442Y0161657D01*
X0304442Y0161058D02*
X0302242Y0161058D01*
X0302242Y0160460D02*
X0304442Y0160460D01*
X0304442Y0159861D02*
X0302242Y0159861D01*
X0302242Y0159263D02*
X0304442Y0159263D01*
X0304442Y0158664D02*
X0302242Y0158664D01*
X0302242Y0158066D02*
X0304442Y0158066D01*
X0304447Y0157467D02*
X0302236Y0157467D01*
X0301989Y0156869D02*
X0304695Y0156869D01*
X0304943Y0156270D02*
X0301741Y0156270D01*
X0301273Y0155672D02*
X0305410Y0155672D01*
X0306009Y0155073D02*
X0300675Y0155073D01*
X0299405Y0154475D02*
X0307279Y0154475D01*
X0309405Y0154475D02*
X0312743Y0154475D01*
X0312743Y0155073D02*
X0310675Y0155073D01*
X0311273Y0155672D02*
X0312743Y0155672D01*
X0312743Y0156270D02*
X0311741Y0156270D01*
X0311989Y0156869D02*
X0312743Y0156869D01*
X0312743Y0157467D02*
X0312236Y0157467D01*
X0312242Y0158066D02*
X0312743Y0158066D01*
X0312743Y0158664D02*
X0312242Y0158664D01*
X0312242Y0159263D02*
X0312743Y0159263D01*
X0312743Y0159861D02*
X0312242Y0159861D01*
X0312242Y0160460D02*
X0312743Y0160460D01*
X0312743Y0161058D02*
X0312242Y0161058D01*
X0312242Y0161657D02*
X0312743Y0161657D01*
X0312743Y0162255D02*
X0312242Y0162255D01*
X0312242Y0162854D02*
X0312743Y0162854D01*
X0312743Y0163452D02*
X0312242Y0163452D01*
X0312242Y0164051D02*
X0312743Y0164051D01*
X0312743Y0164649D02*
X0312242Y0164649D01*
X0312152Y0165248D02*
X0312743Y0165248D01*
X0312743Y0165847D02*
X0311904Y0165847D01*
X0311656Y0166445D02*
X0312743Y0166445D01*
X0312743Y0167044D02*
X0311070Y0167044D01*
X0310358Y0167642D02*
X0312743Y0167642D01*
X0312743Y0169438D02*
X0183342Y0169438D01*
X0183342Y0170036D02*
X0312743Y0170036D01*
X0312743Y0170635D02*
X0183342Y0170635D01*
X0183342Y0171233D02*
X0312743Y0171233D01*
X0290595Y0142934D02*
X0289992Y0143241D01*
X0289349Y0143450D01*
X0288680Y0143556D01*
X0288642Y0143556D01*
X0288642Y0136556D01*
X0292642Y0136556D01*
X0292642Y0139594D01*
X0292536Y0140263D01*
X0292327Y0140907D01*
X0292019Y0141510D01*
X0291622Y0142057D01*
X0291143Y0142536D01*
X0290595Y0142934D01*
X0290263Y0143103D02*
X0297439Y0143103D01*
X0297566Y0143156D02*
X0296133Y0142562D01*
X0295036Y0141465D01*
X0294442Y0140032D01*
X0294442Y0132480D01*
X0295036Y0131047D01*
X0296133Y0129950D01*
X0297566Y0129356D01*
X0299118Y0129356D01*
X0300551Y0129950D01*
X0301648Y0131047D01*
X0302242Y0132480D01*
X0302242Y0140032D01*
X0301648Y0141465D01*
X0300551Y0142562D01*
X0299118Y0143156D01*
X0297566Y0143156D01*
X0296075Y0142505D02*
X0291174Y0142505D01*
X0291731Y0141906D02*
X0295477Y0141906D01*
X0294970Y0141308D02*
X0292122Y0141308D01*
X0292391Y0140709D02*
X0294722Y0140709D01*
X0294474Y0140111D02*
X0292560Y0140111D01*
X0292642Y0139512D02*
X0294442Y0139512D01*
X0294442Y0138914D02*
X0292642Y0138914D01*
X0292642Y0138315D02*
X0294442Y0138315D01*
X0294442Y0137716D02*
X0292642Y0137716D01*
X0292642Y0137118D02*
X0294442Y0137118D01*
X0294442Y0136519D02*
X0288642Y0136519D01*
X0288642Y0136556D02*
X0288642Y0135956D01*
X0292642Y0135956D01*
X0292642Y0132917D01*
X0292536Y0132249D01*
X0292327Y0131605D01*
X0292019Y0131002D01*
X0291622Y0130455D01*
X0291143Y0129976D01*
X0290595Y0129578D01*
X0289992Y0129271D01*
X0289349Y0129062D01*
X0288680Y0128956D01*
X0288642Y0128956D01*
X0288642Y0135956D01*
X0288042Y0135956D01*
X0288042Y0128956D01*
X0288003Y0128956D01*
X0287335Y0129062D01*
X0286691Y0129271D01*
X0286088Y0129578D01*
X0285541Y0129976D01*
X0285062Y0130455D01*
X0284664Y0131002D01*
X0284357Y0131605D01*
X0284148Y0132249D01*
X0284042Y0132917D01*
X0284042Y0135956D01*
X0288042Y0135956D01*
X0288042Y0136556D01*
X0288042Y0143556D01*
X0288003Y0143556D01*
X0287335Y0143450D01*
X0286691Y0143241D01*
X0286088Y0142934D01*
X0285541Y0142536D01*
X0285062Y0142057D01*
X0284664Y0141510D01*
X0284357Y0140907D01*
X0284148Y0140263D01*
X0284042Y0139594D01*
X0284042Y0136556D01*
X0288042Y0136556D01*
X0288642Y0136556D01*
X0288642Y0137118D02*
X0288042Y0137118D01*
X0288042Y0137716D02*
X0288642Y0137716D01*
X0288642Y0138315D02*
X0288042Y0138315D01*
X0288042Y0138914D02*
X0288642Y0138914D01*
X0288642Y0139512D02*
X0288042Y0139512D01*
X0288042Y0140111D02*
X0288642Y0140111D01*
X0288642Y0140709D02*
X0288042Y0140709D01*
X0288042Y0141308D02*
X0288642Y0141308D01*
X0288642Y0141906D02*
X0288042Y0141906D01*
X0288042Y0142505D02*
X0288642Y0142505D01*
X0288642Y0143103D02*
X0288042Y0143103D01*
X0286421Y0143103D02*
X0279245Y0143103D01*
X0280609Y0142505D02*
X0285509Y0142505D01*
X0284952Y0141906D02*
X0281207Y0141906D01*
X0281713Y0141308D02*
X0284561Y0141308D01*
X0284293Y0140709D02*
X0281961Y0140709D01*
X0282209Y0140111D02*
X0284124Y0140111D01*
X0284042Y0139512D02*
X0282242Y0139512D01*
X0282242Y0138914D02*
X0284042Y0138914D01*
X0284042Y0138315D02*
X0282242Y0138315D01*
X0282242Y0137716D02*
X0284042Y0137716D01*
X0284042Y0137118D02*
X0282242Y0137118D01*
X0282242Y0136519D02*
X0288042Y0136519D01*
X0288042Y0135921D02*
X0288642Y0135921D01*
X0288642Y0135322D02*
X0288042Y0135322D01*
X0288042Y0134724D02*
X0288642Y0134724D01*
X0288642Y0134125D02*
X0288042Y0134125D01*
X0288042Y0133527D02*
X0288642Y0133527D01*
X0288642Y0132928D02*
X0288042Y0132928D01*
X0288042Y0132330D02*
X0288642Y0132330D01*
X0288642Y0131731D02*
X0288042Y0131731D01*
X0288042Y0131133D02*
X0288642Y0131133D01*
X0288642Y0130534D02*
X0288042Y0130534D01*
X0288042Y0129936D02*
X0288642Y0129936D01*
X0288642Y0129337D02*
X0288042Y0129337D01*
X0286561Y0129337D02*
X0242649Y0129337D01*
X0242924Y0129223D02*
X0241638Y0129756D01*
X0235046Y0129756D01*
X0233759Y0129223D01*
X0232775Y0128238D01*
X0232242Y0126952D01*
X0232242Y0125560D01*
X0232775Y0124273D01*
X0233759Y0123289D01*
X0235046Y0122756D01*
X0241638Y0122756D01*
X0242924Y0123289D01*
X0243909Y0124273D01*
X0244442Y0125560D01*
X0244442Y0126952D01*
X0243909Y0128238D01*
X0242924Y0129223D01*
X0243409Y0128739D02*
X0279362Y0128739D01*
X0279664Y0128840D02*
X0278839Y0128564D01*
X0278451Y0127789D01*
X0276940Y0127789D01*
X0276677Y0127526D01*
X0276279Y0127756D01*
X0276246Y0127789D01*
X0274732Y0127789D01*
X0274117Y0127174D01*
X0274117Y0126304D01*
X0274649Y0125773D01*
X0274117Y0125241D01*
X0274117Y0124371D01*
X0274732Y0123756D01*
X0276246Y0123756D01*
X0276279Y0123789D01*
X0276677Y0124019D01*
X0276940Y0123756D01*
X0278454Y0123756D01*
X0278487Y0123789D01*
X0279142Y0124167D01*
X0279439Y0124681D01*
X0279577Y0124403D01*
X0279691Y0124061D01*
X0279767Y0124023D01*
X0279805Y0123947D01*
X0280147Y0123833D01*
X0280469Y0123672D01*
X0280550Y0123699D01*
X0280631Y0123672D01*
X0280953Y0123833D01*
X0281295Y0123947D01*
X0281333Y0124023D01*
X0281409Y0124061D01*
X0281522Y0124403D01*
X0281684Y0124725D01*
X0281657Y0124806D01*
X0282650Y0127786D01*
X0282261Y0128564D01*
X0281436Y0128840D01*
X0280658Y0128451D01*
X0280550Y0128126D01*
X0280442Y0128451D01*
X0279664Y0128840D01*
X0279865Y0128739D02*
X0281235Y0128739D01*
X0281738Y0128739D02*
X0284437Y0128739D01*
X0284454Y0128756D02*
X0283839Y0128141D01*
X0283839Y0124371D01*
X0284454Y0123756D01*
X0286129Y0123756D01*
X0286162Y0123789D01*
X0286691Y0124094D01*
X0287030Y0123756D01*
X0287900Y0123756D01*
X0288109Y0123965D01*
X0288319Y0123756D01*
X0289189Y0123756D01*
X0289469Y0124036D01*
X0289749Y0123756D01*
X0291604Y0123756D01*
X0292391Y0124210D01*
X0292845Y0124996D01*
X0292845Y0127515D01*
X0292391Y0128302D01*
X0292391Y0128302D01*
X0292391Y0128302D01*
X0291604Y0128756D01*
X0291585Y0128756D01*
X0289749Y0128756D01*
X0289134Y0128141D01*
X0289134Y0127789D01*
X0287313Y0127789D01*
X0286848Y0127324D01*
X0286817Y0127378D01*
X0286817Y0127378D01*
X0286162Y0127756D01*
X0286129Y0127789D01*
X0285939Y0127789D01*
X0285939Y0128141D01*
X0285324Y0128756D01*
X0284454Y0128756D01*
X0283839Y0128140D02*
X0282473Y0128140D01*
X0282569Y0127542D02*
X0283839Y0127542D01*
X0283839Y0126943D02*
X0282369Y0126943D01*
X0282170Y0126345D02*
X0283839Y0126345D01*
X0283839Y0125746D02*
X0281970Y0125746D01*
X0281771Y0125148D02*
X0283839Y0125148D01*
X0283839Y0124549D02*
X0281596Y0124549D01*
X0281296Y0123951D02*
X0284259Y0123951D01*
X0286443Y0123951D02*
X0286835Y0123951D01*
X0288094Y0123951D02*
X0288124Y0123951D01*
X0289383Y0123951D02*
X0289554Y0123951D01*
X0291942Y0123951D02*
X0294425Y0123951D01*
X0294619Y0123756D02*
X0296778Y0123756D01*
X0296954Y0123932D01*
X0297131Y0123756D01*
X0298664Y0123756D01*
X0299436Y0124202D01*
X0300209Y0123756D01*
X0300228Y0123756D01*
X0300663Y0123756D01*
X0301145Y0123756D01*
X0302035Y0124127D01*
X0302035Y0124127D01*
X0302375Y0124469D01*
X0302681Y0124778D01*
X0302677Y0125648D01*
X0302277Y0126045D01*
X0302599Y0126609D01*
X0302599Y0127515D01*
X0302145Y0128302D01*
X0302145Y0128302D01*
X0302145Y0128302D01*
X0301358Y0128756D01*
X0300152Y0128756D01*
X0299549Y0128304D01*
X0299479Y0128252D01*
X0299450Y0128302D01*
X0298664Y0128756D01*
X0298645Y0128756D01*
X0297131Y0128756D01*
X0296954Y0128580D01*
X0296778Y0128756D01*
X0295908Y0128756D01*
X0295293Y0128141D01*
X0295293Y0125856D01*
X0294619Y0125856D01*
X0294004Y0125241D01*
X0294004Y0124371D01*
X0294619Y0123756D01*
X0294004Y0124549D02*
X0292587Y0124549D01*
X0292391Y0124210D02*
X0292391Y0124210D01*
X0292845Y0125148D02*
X0294004Y0125148D01*
X0294510Y0125746D02*
X0292845Y0125746D01*
X0292845Y0126345D02*
X0295293Y0126345D01*
X0295293Y0126943D02*
X0292845Y0126943D01*
X0292830Y0127542D02*
X0295293Y0127542D01*
X0295293Y0128140D02*
X0292484Y0128140D01*
X0291634Y0128739D02*
X0295891Y0128739D01*
X0296795Y0128739D02*
X0297114Y0128739D01*
X0296166Y0129936D02*
X0291088Y0129936D01*
X0291680Y0130534D02*
X0295548Y0130534D01*
X0295000Y0131133D02*
X0292086Y0131133D01*
X0292368Y0131731D02*
X0294752Y0131731D01*
X0294504Y0132330D02*
X0292549Y0132330D01*
X0292642Y0132928D02*
X0294442Y0132928D01*
X0294442Y0133527D02*
X0292642Y0133527D01*
X0292642Y0134125D02*
X0294442Y0134125D01*
X0294442Y0134724D02*
X0292642Y0134724D01*
X0292642Y0135322D02*
X0294442Y0135322D01*
X0294442Y0135921D02*
X0292642Y0135921D01*
X0284598Y0131133D02*
X0281684Y0131133D01*
X0281932Y0131731D02*
X0284316Y0131731D01*
X0284135Y0132330D02*
X0282180Y0132330D01*
X0282242Y0132928D02*
X0284042Y0132928D01*
X0284042Y0133527D02*
X0282242Y0133527D01*
X0282242Y0134125D02*
X0284042Y0134125D01*
X0284042Y0134724D02*
X0282242Y0134724D01*
X0282242Y0135322D02*
X0284042Y0135322D01*
X0284042Y0135921D02*
X0282242Y0135921D01*
X0275000Y0131133D02*
X0195762Y0131133D01*
X0195163Y0131731D02*
X0274752Y0131731D01*
X0274504Y0132330D02*
X0194565Y0132330D01*
X0193966Y0132928D02*
X0274442Y0132928D01*
X0274442Y0133527D02*
X0193368Y0133527D01*
X0192769Y0134125D02*
X0274442Y0134125D01*
X0274442Y0134724D02*
X0192171Y0134724D01*
X0191572Y0135322D02*
X0274442Y0135322D01*
X0274442Y0135921D02*
X0190974Y0135921D01*
X0190375Y0136519D02*
X0274442Y0136519D01*
X0274442Y0137118D02*
X0189777Y0137118D01*
X0189178Y0137716D02*
X0274442Y0137716D01*
X0274442Y0138315D02*
X0188580Y0138315D01*
X0196360Y0130534D02*
X0275548Y0130534D01*
X0276166Y0129936D02*
X0196959Y0129936D01*
X0197557Y0129337D02*
X0204035Y0129337D01*
X0203759Y0129223D02*
X0202775Y0128238D01*
X0202242Y0126952D01*
X0202242Y0125560D01*
X0202775Y0124273D01*
X0203759Y0123289D01*
X0205046Y0122756D01*
X0211638Y0122756D01*
X0212924Y0123289D01*
X0213909Y0124273D01*
X0214442Y0125560D01*
X0214442Y0126952D01*
X0213909Y0128238D01*
X0212924Y0129223D01*
X0211638Y0129756D01*
X0205046Y0129756D01*
X0203759Y0129223D01*
X0203275Y0128739D02*
X0198156Y0128739D01*
X0198754Y0128140D02*
X0202734Y0128140D01*
X0202486Y0127542D02*
X0199353Y0127542D01*
X0199951Y0126943D02*
X0202242Y0126943D01*
X0202242Y0126345D02*
X0200550Y0126345D01*
X0201148Y0125746D02*
X0202242Y0125746D01*
X0202412Y0125148D02*
X0201747Y0125148D01*
X0202346Y0124549D02*
X0202660Y0124549D01*
X0202944Y0123951D02*
X0203097Y0123951D01*
X0203543Y0123352D02*
X0203696Y0123352D01*
X0204141Y0122754D02*
X0312743Y0122754D01*
X0312743Y0123352D02*
X0242988Y0123352D01*
X0243586Y0123951D02*
X0274537Y0123951D01*
X0274117Y0124549D02*
X0244023Y0124549D01*
X0244271Y0125148D02*
X0274117Y0125148D01*
X0274622Y0125746D02*
X0244442Y0125746D01*
X0244442Y0126345D02*
X0274117Y0126345D01*
X0274117Y0126943D02*
X0244442Y0126943D01*
X0244198Y0127542D02*
X0274485Y0127542D01*
X0276651Y0127542D02*
X0276693Y0127542D01*
X0278627Y0128140D02*
X0243950Y0128140D01*
X0234035Y0129337D02*
X0212649Y0129337D01*
X0213409Y0128739D02*
X0233275Y0128739D01*
X0232734Y0128140D02*
X0213950Y0128140D01*
X0214198Y0127542D02*
X0232486Y0127542D01*
X0232242Y0126943D02*
X0214442Y0126943D01*
X0214442Y0126345D02*
X0232242Y0126345D01*
X0232242Y0125746D02*
X0214442Y0125746D01*
X0214271Y0125148D02*
X0232412Y0125148D01*
X0232660Y0124549D02*
X0214023Y0124549D01*
X0213586Y0123951D02*
X0233097Y0123951D01*
X0233696Y0123352D02*
X0212988Y0123352D01*
X0220640Y0122155D02*
X0312743Y0122155D01*
X0312743Y0121557D02*
X0221238Y0121557D01*
X0221837Y0120958D02*
X0312743Y0120958D01*
X0312743Y0120360D02*
X0222435Y0120360D01*
X0223034Y0119761D02*
X0312743Y0119761D01*
X0312743Y0119163D02*
X0242985Y0119163D01*
X0242924Y0119223D02*
X0243909Y0118238D01*
X0244442Y0116952D01*
X0244442Y0115560D01*
X0243909Y0114273D01*
X0242924Y0113289D01*
X0241638Y0112756D01*
X0235046Y0112756D01*
X0233759Y0113289D01*
X0232775Y0114273D01*
X0232242Y0115560D01*
X0232242Y0116952D01*
X0232775Y0118238D01*
X0233759Y0119223D01*
X0235046Y0119756D01*
X0241638Y0119756D01*
X0242924Y0119223D01*
X0243583Y0118564D02*
X0312743Y0118564D01*
X0312743Y0117966D02*
X0309577Y0117966D01*
X0309118Y0118156D02*
X0307566Y0118156D01*
X0306133Y0117562D01*
X0305036Y0116465D01*
X0304442Y0115032D01*
X0304442Y0107480D01*
X0305036Y0106047D01*
X0306133Y0104950D01*
X0307566Y0104356D01*
X0309118Y0104356D01*
X0310551Y0104950D01*
X0311648Y0106047D01*
X0312242Y0107480D01*
X0312242Y0115032D01*
X0311648Y0116465D01*
X0310551Y0117562D01*
X0309118Y0118156D01*
X0310746Y0117367D02*
X0312743Y0117367D01*
X0312743Y0116769D02*
X0311345Y0116769D01*
X0311770Y0116170D02*
X0312743Y0116170D01*
X0312743Y0115572D02*
X0312018Y0115572D01*
X0312242Y0114973D02*
X0312743Y0114973D01*
X0312743Y0114375D02*
X0312242Y0114375D01*
X0312242Y0113776D02*
X0312743Y0113776D01*
X0312743Y0113178D02*
X0312242Y0113178D01*
X0312242Y0112579D02*
X0312743Y0112579D01*
X0312743Y0111980D02*
X0312242Y0111980D01*
X0312242Y0111382D02*
X0312743Y0111382D01*
X0312743Y0110783D02*
X0312242Y0110783D01*
X0312242Y0110185D02*
X0312743Y0110185D01*
X0312743Y0109586D02*
X0312242Y0109586D01*
X0312242Y0108988D02*
X0312743Y0108988D01*
X0312743Y0108389D02*
X0312242Y0108389D01*
X0312242Y0107791D02*
X0312743Y0107791D01*
X0312743Y0107192D02*
X0312123Y0107192D01*
X0311875Y0106594D02*
X0312743Y0106594D01*
X0312743Y0105995D02*
X0311597Y0105995D01*
X0310998Y0105397D02*
X0312743Y0105397D01*
X0312743Y0104798D02*
X0310186Y0104798D01*
X0312743Y0104200D02*
X0289774Y0104200D01*
X0289992Y0104271D02*
X0290595Y0104578D01*
X0291143Y0104976D01*
X0291622Y0105455D01*
X0292019Y0106002D01*
X0292327Y0106605D01*
X0292536Y0107249D01*
X0292642Y0107917D01*
X0292642Y0110956D01*
X0288642Y0110956D01*
X0288642Y0111556D01*
X0292642Y0111556D01*
X0292642Y0114594D01*
X0292536Y0115263D01*
X0292327Y0115907D01*
X0292019Y0116510D01*
X0291622Y0117057D01*
X0291143Y0117536D01*
X0290595Y0117934D01*
X0289992Y0118241D01*
X0289349Y0118450D01*
X0288680Y0118556D01*
X0288642Y0118556D01*
X0288642Y0111556D01*
X0288042Y0111556D01*
X0288042Y0118556D01*
X0288003Y0118556D01*
X0287335Y0118450D01*
X0286691Y0118241D01*
X0286088Y0117934D01*
X0285541Y0117536D01*
X0285062Y0117057D01*
X0284664Y0116510D01*
X0284357Y0115907D01*
X0284148Y0115263D01*
X0284042Y0114594D01*
X0284042Y0111556D01*
X0288042Y0111556D01*
X0288042Y0110956D01*
X0288642Y0110956D01*
X0288642Y0103956D01*
X0288680Y0103956D01*
X0289349Y0104062D01*
X0289992Y0104271D01*
X0290898Y0104798D02*
X0296498Y0104798D01*
X0296133Y0104950D02*
X0297566Y0104356D01*
X0299118Y0104356D01*
X0300551Y0104950D01*
X0301648Y0106047D01*
X0302242Y0107480D01*
X0302242Y0115032D01*
X0301648Y0116465D01*
X0300551Y0117562D01*
X0299118Y0118156D01*
X0297566Y0118156D01*
X0296133Y0117562D01*
X0295036Y0116465D01*
X0294442Y0115032D01*
X0294442Y0107480D01*
X0295036Y0106047D01*
X0296133Y0104950D01*
X0295685Y0105397D02*
X0291564Y0105397D01*
X0292015Y0105995D02*
X0295087Y0105995D01*
X0294809Y0106594D02*
X0292321Y0106594D01*
X0292518Y0107192D02*
X0294561Y0107192D01*
X0294442Y0107791D02*
X0292622Y0107791D01*
X0292642Y0108389D02*
X0294442Y0108389D01*
X0294442Y0108988D02*
X0292642Y0108988D01*
X0292642Y0109586D02*
X0294442Y0109586D01*
X0294442Y0110185D02*
X0292642Y0110185D01*
X0292642Y0110783D02*
X0294442Y0110783D01*
X0294442Y0111382D02*
X0288642Y0111382D01*
X0288642Y0111980D02*
X0288042Y0111980D01*
X0288042Y0111382D02*
X0282242Y0111382D01*
X0282242Y0111980D02*
X0284042Y0111980D01*
X0284042Y0112579D02*
X0282242Y0112579D01*
X0282242Y0113178D02*
X0284042Y0113178D01*
X0284042Y0113776D02*
X0282242Y0113776D01*
X0282242Y0114375D02*
X0284042Y0114375D01*
X0284102Y0114973D02*
X0282242Y0114973D01*
X0282242Y0115032D02*
X0281648Y0116465D01*
X0280551Y0117562D01*
X0279118Y0118156D01*
X0277566Y0118156D01*
X0276133Y0117562D01*
X0275036Y0116465D01*
X0274442Y0115032D01*
X0274442Y0107480D01*
X0274980Y0106181D01*
X0273142Y0104343D01*
X0273142Y0093469D01*
X0274255Y0092356D01*
X0275091Y0091520D01*
X0275036Y0091465D01*
X0274442Y0090032D01*
X0274442Y0082480D01*
X0275036Y0081047D01*
X0276133Y0079950D01*
X0277566Y0079356D01*
X0279118Y0079356D01*
X0280551Y0079950D01*
X0281648Y0081047D01*
X0282242Y0082480D01*
X0282242Y0090032D01*
X0281648Y0091465D01*
X0280551Y0092562D01*
X0279118Y0093156D01*
X0278829Y0093156D01*
X0276942Y0095043D01*
X0276942Y0102769D01*
X0278529Y0104356D01*
X0279118Y0104356D01*
X0280551Y0104950D01*
X0281648Y0106047D01*
X0282242Y0107480D01*
X0282242Y0115032D01*
X0282018Y0115572D02*
X0284248Y0115572D01*
X0284491Y0116170D02*
X0281770Y0116170D01*
X0281345Y0116769D02*
X0284852Y0116769D01*
X0285372Y0117367D02*
X0280746Y0117367D01*
X0279577Y0117966D02*
X0286151Y0117966D01*
X0288042Y0117966D02*
X0288642Y0117966D01*
X0288642Y0117367D02*
X0288042Y0117367D01*
X0288042Y0116769D02*
X0288642Y0116769D01*
X0288642Y0116170D02*
X0288042Y0116170D01*
X0288042Y0115572D02*
X0288642Y0115572D01*
X0288642Y0114973D02*
X0288042Y0114973D01*
X0288042Y0114375D02*
X0288642Y0114375D01*
X0288642Y0113776D02*
X0288042Y0113776D01*
X0288042Y0113178D02*
X0288642Y0113178D01*
X0288642Y0112579D02*
X0288042Y0112579D01*
X0288042Y0110956D02*
X0284042Y0110956D01*
X0284042Y0107917D01*
X0284148Y0107249D01*
X0284357Y0106605D01*
X0284664Y0106002D01*
X0285062Y0105455D01*
X0285541Y0104976D01*
X0286088Y0104578D01*
X0286691Y0104271D01*
X0287335Y0104062D01*
X0288003Y0103956D01*
X0288042Y0103956D01*
X0288042Y0110956D01*
X0288042Y0110783D02*
X0288642Y0110783D01*
X0288642Y0110185D02*
X0288042Y0110185D01*
X0288042Y0109586D02*
X0288642Y0109586D01*
X0288642Y0108988D02*
X0288042Y0108988D01*
X0288042Y0108389D02*
X0288642Y0108389D01*
X0288642Y0107791D02*
X0288042Y0107791D01*
X0288042Y0107192D02*
X0288642Y0107192D01*
X0288642Y0106594D02*
X0288042Y0106594D01*
X0288042Y0105995D02*
X0288642Y0105995D01*
X0288642Y0105397D02*
X0288042Y0105397D01*
X0288042Y0104798D02*
X0288642Y0104798D01*
X0288642Y0104200D02*
X0288042Y0104200D01*
X0286910Y0104200D02*
X0278373Y0104200D01*
X0277774Y0103601D02*
X0312743Y0103601D01*
X0312743Y0103003D02*
X0277176Y0103003D01*
X0276942Y0102404D02*
X0312743Y0102404D01*
X0312743Y0101806D02*
X0276942Y0101806D01*
X0276942Y0101207D02*
X0312743Y0101207D01*
X0312743Y0100609D02*
X0276942Y0100609D01*
X0276942Y0100010D02*
X0312743Y0100010D01*
X0312743Y0099412D02*
X0276942Y0099412D01*
X0276942Y0098813D02*
X0312743Y0098813D01*
X0312743Y0098215D02*
X0276942Y0098215D01*
X0276942Y0097616D02*
X0312743Y0097616D01*
X0312743Y0097018D02*
X0276942Y0097018D01*
X0276942Y0096419D02*
X0312743Y0096419D01*
X0312743Y0095821D02*
X0276942Y0095821D01*
X0276942Y0095222D02*
X0312743Y0095222D01*
X0312743Y0094624D02*
X0277361Y0094624D01*
X0277960Y0094025D02*
X0312743Y0094025D01*
X0312743Y0093427D02*
X0278558Y0093427D01*
X0279909Y0092828D02*
X0286775Y0092828D01*
X0286133Y0092562D02*
X0285036Y0091465D01*
X0284442Y0090032D01*
X0284442Y0082480D01*
X0285036Y0081047D01*
X0286133Y0079950D01*
X0287566Y0079356D01*
X0289118Y0079356D01*
X0290551Y0079950D01*
X0291648Y0081047D01*
X0292242Y0082480D01*
X0292242Y0090032D01*
X0291648Y0091465D01*
X0290551Y0092562D01*
X0289118Y0093156D01*
X0287566Y0093156D01*
X0286133Y0092562D01*
X0285800Y0092230D02*
X0280884Y0092230D01*
X0281482Y0091631D02*
X0285202Y0091631D01*
X0284856Y0091033D02*
X0281827Y0091033D01*
X0282075Y0090434D02*
X0284609Y0090434D01*
X0284442Y0089836D02*
X0282242Y0089836D01*
X0282242Y0089237D02*
X0284442Y0089237D01*
X0284442Y0088639D02*
X0282242Y0088639D01*
X0282242Y0088040D02*
X0284442Y0088040D01*
X0284442Y0087442D02*
X0282242Y0087442D01*
X0282242Y0086843D02*
X0284442Y0086843D01*
X0284442Y0086245D02*
X0282242Y0086245D01*
X0282242Y0085646D02*
X0284442Y0085646D01*
X0284442Y0085047D02*
X0282242Y0085047D01*
X0282242Y0084449D02*
X0284442Y0084449D01*
X0284442Y0083850D02*
X0282242Y0083850D01*
X0282242Y0083252D02*
X0284442Y0083252D01*
X0284442Y0082653D02*
X0282242Y0082653D01*
X0282066Y0082055D02*
X0284618Y0082055D01*
X0284866Y0081456D02*
X0281818Y0081456D01*
X0281459Y0080858D02*
X0285224Y0080858D01*
X0285823Y0080259D02*
X0280861Y0080259D01*
X0279854Y0079661D02*
X0286830Y0079661D01*
X0286081Y0078835D02*
X0285245Y0078596D01*
X0284822Y0077836D01*
X0285023Y0077134D01*
X0284418Y0076530D01*
X0284418Y0076369D01*
X0283935Y0075885D01*
X0283935Y0075015D01*
X0284418Y0074532D01*
X0284418Y0074371D01*
X0285033Y0073756D01*
X0285903Y0073756D01*
X0286469Y0074322D01*
X0286743Y0074400D01*
X0287031Y0074400D01*
X0287039Y0074409D01*
X0287179Y0074167D01*
X0287833Y0073789D01*
X0287866Y0073756D01*
X0289542Y0073756D01*
X0289886Y0074100D01*
X0290425Y0073789D01*
X0290458Y0073756D01*
X0290649Y0073756D01*
X0290649Y0073404D01*
X0291264Y0072789D01*
X0292134Y0072789D01*
X0292749Y0073404D01*
X0292749Y0077174D01*
X0292134Y0077789D01*
X0290258Y0077789D01*
X0290157Y0077688D01*
X0290157Y0078141D01*
X0289542Y0078756D01*
X0288672Y0078756D01*
X0288057Y0078141D01*
X0288057Y0077789D01*
X0287866Y0077789D01*
X0287833Y0077756D01*
X0287179Y0077378D01*
X0287151Y0077330D01*
X0286842Y0078413D01*
X0286081Y0078835D01*
X0286749Y0078464D02*
X0288380Y0078464D01*
X0288057Y0077865D02*
X0286998Y0077865D01*
X0287179Y0077378D02*
X0287179Y0077378D01*
X0287179Y0077378D01*
X0284985Y0077267D02*
X0282477Y0077267D01*
X0282650Y0077786D02*
X0281657Y0074806D01*
X0281684Y0074725D01*
X0281522Y0074403D01*
X0281409Y0074061D01*
X0281333Y0074023D01*
X0281295Y0073947D01*
X0280953Y0073833D01*
X0280631Y0073672D01*
X0280550Y0073699D01*
X0280469Y0073672D01*
X0280147Y0073833D01*
X0279805Y0073947D01*
X0279767Y0074023D01*
X0279691Y0074061D01*
X0279577Y0074403D01*
X0279439Y0074681D01*
X0279142Y0074167D01*
X0279142Y0074167D01*
X0279142Y0074167D01*
X0278487Y0073789D01*
X0278454Y0073756D01*
X0276940Y0073756D01*
X0276677Y0074019D01*
X0276279Y0073789D01*
X0276246Y0073756D01*
X0274732Y0073756D01*
X0274117Y0074371D01*
X0274117Y0075241D01*
X0274649Y0075773D01*
X0274117Y0076304D01*
X0274117Y0077174D01*
X0274732Y0077789D01*
X0276246Y0077789D01*
X0276279Y0077756D01*
X0276677Y0077526D01*
X0276940Y0077789D01*
X0278451Y0077789D01*
X0278839Y0078564D01*
X0279664Y0078840D01*
X0280442Y0078451D01*
X0280550Y0078126D01*
X0280658Y0078451D01*
X0281436Y0078840D01*
X0282261Y0078564D01*
X0282650Y0077786D01*
X0282611Y0077865D02*
X0284839Y0077865D01*
X0285171Y0078464D02*
X0282312Y0078464D01*
X0280685Y0078464D02*
X0280415Y0078464D01*
X0278788Y0078464D02*
X0183342Y0078464D01*
X0183342Y0079062D02*
X0312743Y0079062D01*
X0312743Y0078464D02*
X0312110Y0078464D01*
X0312643Y0077865D02*
X0312743Y0077865D01*
X0312743Y0079661D02*
X0309854Y0079661D01*
X0310551Y0079950D02*
X0309118Y0079356D01*
X0307566Y0079356D01*
X0306133Y0079950D01*
X0305036Y0081047D01*
X0304442Y0082480D01*
X0304442Y0090032D01*
X0305036Y0091465D01*
X0306133Y0092562D01*
X0307566Y0093156D01*
X0309118Y0093156D01*
X0310551Y0092562D01*
X0311648Y0091465D01*
X0312242Y0090032D01*
X0312242Y0082480D01*
X0311648Y0081047D01*
X0310551Y0079950D01*
X0310861Y0080259D02*
X0312743Y0080259D01*
X0312743Y0080858D02*
X0311459Y0080858D01*
X0311818Y0081456D02*
X0312743Y0081456D01*
X0312743Y0082055D02*
X0312066Y0082055D01*
X0312242Y0082653D02*
X0312743Y0082653D01*
X0312743Y0083252D02*
X0312242Y0083252D01*
X0312242Y0083850D02*
X0312743Y0083850D01*
X0312743Y0084449D02*
X0312242Y0084449D01*
X0312242Y0085047D02*
X0312743Y0085047D01*
X0312743Y0085646D02*
X0312242Y0085646D01*
X0312242Y0086245D02*
X0312743Y0086245D01*
X0312743Y0086843D02*
X0312242Y0086843D01*
X0312242Y0087442D02*
X0312743Y0087442D01*
X0312743Y0088040D02*
X0312242Y0088040D01*
X0312242Y0088639D02*
X0312743Y0088639D01*
X0312743Y0089237D02*
X0312242Y0089237D01*
X0312242Y0089836D02*
X0312743Y0089836D01*
X0312743Y0090434D02*
X0312075Y0090434D01*
X0311827Y0091033D02*
X0312743Y0091033D01*
X0312743Y0091631D02*
X0311482Y0091631D01*
X0310884Y0092230D02*
X0312743Y0092230D01*
X0312743Y0092828D02*
X0309909Y0092828D01*
X0306775Y0092828D02*
X0299909Y0092828D01*
X0300551Y0092562D02*
X0299118Y0093156D01*
X0297566Y0093156D01*
X0296133Y0092562D01*
X0295036Y0091465D01*
X0294442Y0090032D01*
X0294442Y0082480D01*
X0295036Y0081047D01*
X0296133Y0079950D01*
X0297566Y0079356D01*
X0299118Y0079356D01*
X0300551Y0079950D01*
X0301648Y0081047D01*
X0302242Y0082480D01*
X0302242Y0090032D01*
X0301648Y0091465D01*
X0300551Y0092562D01*
X0300884Y0092230D02*
X0305800Y0092230D01*
X0305202Y0091631D02*
X0301482Y0091631D01*
X0301827Y0091033D02*
X0304856Y0091033D01*
X0304609Y0090434D02*
X0302075Y0090434D01*
X0302242Y0089836D02*
X0304442Y0089836D01*
X0304442Y0089237D02*
X0302242Y0089237D01*
X0302242Y0088639D02*
X0304442Y0088639D01*
X0304442Y0088040D02*
X0302242Y0088040D01*
X0302242Y0087442D02*
X0304442Y0087442D01*
X0304442Y0086843D02*
X0302242Y0086843D01*
X0302242Y0086245D02*
X0304442Y0086245D01*
X0304442Y0085646D02*
X0302242Y0085646D01*
X0302242Y0085047D02*
X0304442Y0085047D01*
X0304442Y0084449D02*
X0302242Y0084449D01*
X0302242Y0083850D02*
X0304442Y0083850D01*
X0304442Y0083252D02*
X0302242Y0083252D01*
X0302242Y0082653D02*
X0304442Y0082653D01*
X0304618Y0082055D02*
X0302066Y0082055D01*
X0301818Y0081456D02*
X0304866Y0081456D01*
X0305224Y0080858D02*
X0301459Y0080858D01*
X0300861Y0080259D02*
X0305823Y0080259D01*
X0306830Y0079661D02*
X0299854Y0079661D01*
X0299542Y0078756D02*
X0298672Y0078756D01*
X0298057Y0078141D01*
X0298057Y0077789D01*
X0297866Y0077789D01*
X0297833Y0077756D01*
X0297646Y0077648D01*
X0297646Y0078141D01*
X0297031Y0078756D01*
X0295079Y0078756D01*
X0294188Y0078109D01*
X0293848Y0077061D01*
X0294079Y0076349D01*
X0293839Y0075611D01*
X0294212Y0074465D01*
X0294212Y0074465D01*
X0295188Y0073756D01*
X0297031Y0073756D01*
X0297345Y0074070D01*
X0297833Y0073789D01*
X0297866Y0073756D01*
X0299542Y0073756D01*
X0299886Y0074100D01*
X0300425Y0073789D01*
X0300458Y0073756D01*
X0300649Y0073756D01*
X0300649Y0073404D01*
X0301264Y0072789D01*
X0302134Y0072789D01*
X0302749Y0073404D01*
X0302749Y0077174D01*
X0302134Y0077789D01*
X0300258Y0077789D01*
X0300157Y0077688D01*
X0300157Y0078141D01*
X0299542Y0078756D01*
X0299834Y0078464D02*
X0304162Y0078464D01*
X0303839Y0077865D02*
X0300157Y0077865D01*
X0298380Y0078464D02*
X0297323Y0078464D01*
X0297646Y0077865D02*
X0298057Y0077865D01*
X0296830Y0079661D02*
X0289854Y0079661D01*
X0290861Y0080259D02*
X0295823Y0080259D01*
X0295224Y0080858D02*
X0291459Y0080858D01*
X0291818Y0081456D02*
X0294866Y0081456D01*
X0294618Y0082055D02*
X0292066Y0082055D01*
X0292242Y0082653D02*
X0294442Y0082653D01*
X0294442Y0083252D02*
X0292242Y0083252D01*
X0292242Y0083850D02*
X0294442Y0083850D01*
X0294442Y0084449D02*
X0292242Y0084449D01*
X0292242Y0085047D02*
X0294442Y0085047D01*
X0294442Y0085646D02*
X0292242Y0085646D01*
X0292242Y0086245D02*
X0294442Y0086245D01*
X0294442Y0086843D02*
X0292242Y0086843D01*
X0292242Y0087442D02*
X0294442Y0087442D01*
X0294442Y0088040D02*
X0292242Y0088040D01*
X0292242Y0088639D02*
X0294442Y0088639D01*
X0294442Y0089237D02*
X0292242Y0089237D01*
X0292242Y0089836D02*
X0294442Y0089836D01*
X0294609Y0090434D02*
X0292075Y0090434D01*
X0291827Y0091033D02*
X0294856Y0091033D01*
X0295202Y0091631D02*
X0291482Y0091631D01*
X0290884Y0092230D02*
X0295800Y0092230D01*
X0296775Y0092828D02*
X0289909Y0092828D01*
X0274980Y0091631D02*
X0183342Y0091631D01*
X0183342Y0091033D02*
X0274856Y0091033D01*
X0274609Y0090434D02*
X0183342Y0090434D01*
X0183342Y0089836D02*
X0274442Y0089836D01*
X0274442Y0089237D02*
X0183342Y0089237D01*
X0183342Y0088639D02*
X0274442Y0088639D01*
X0274442Y0088040D02*
X0183342Y0088040D01*
X0183342Y0087442D02*
X0274442Y0087442D01*
X0274442Y0086843D02*
X0183342Y0086843D01*
X0183342Y0086245D02*
X0274442Y0086245D01*
X0274442Y0085646D02*
X0183342Y0085646D01*
X0183342Y0085047D02*
X0274442Y0085047D01*
X0274442Y0084449D02*
X0183342Y0084449D01*
X0183342Y0083850D02*
X0274442Y0083850D01*
X0274442Y0083252D02*
X0183342Y0083252D01*
X0183342Y0082653D02*
X0274442Y0082653D01*
X0274618Y0082055D02*
X0183342Y0082055D01*
X0183342Y0081456D02*
X0274866Y0081456D01*
X0275224Y0080858D02*
X0183342Y0080858D01*
X0183342Y0080259D02*
X0275823Y0080259D01*
X0276830Y0079661D02*
X0183342Y0079661D01*
X0183342Y0077865D02*
X0278489Y0077865D01*
X0282278Y0076668D02*
X0284557Y0076668D01*
X0284119Y0076070D02*
X0282078Y0076070D01*
X0281879Y0075471D02*
X0283935Y0075471D01*
X0284077Y0074873D02*
X0281679Y0074873D01*
X0281480Y0074274D02*
X0284515Y0074274D01*
X0286421Y0074274D02*
X0287117Y0074274D01*
X0287179Y0074167D02*
X0287179Y0074167D01*
X0287179Y0074167D01*
X0290649Y0073676D02*
X0280638Y0073676D01*
X0280620Y0073676D02*
X0280480Y0073676D01*
X0280462Y0073676D02*
X0183342Y0073676D01*
X0183342Y0074274D02*
X0274214Y0074274D01*
X0274117Y0074873D02*
X0183342Y0074873D01*
X0183342Y0075471D02*
X0274348Y0075471D01*
X0274351Y0076070D02*
X0183342Y0076070D01*
X0183342Y0076668D02*
X0274117Y0076668D01*
X0274210Y0077267D02*
X0183342Y0077267D01*
X0183342Y0073077D02*
X0290976Y0073077D01*
X0292422Y0073077D02*
X0300976Y0073077D01*
X0300649Y0073676D02*
X0292749Y0073676D01*
X0292749Y0074274D02*
X0294474Y0074274D01*
X0294079Y0074873D02*
X0292749Y0074873D01*
X0292749Y0075471D02*
X0293885Y0075471D01*
X0293839Y0075611D02*
X0293839Y0075611D01*
X0293988Y0076070D02*
X0292749Y0076070D01*
X0292749Y0076668D02*
X0293975Y0076668D01*
X0293914Y0077267D02*
X0292656Y0077267D01*
X0294109Y0077865D02*
X0290157Y0077865D01*
X0289834Y0078464D02*
X0294677Y0078464D01*
X0302656Y0077267D02*
X0303839Y0077267D01*
X0303839Y0076668D02*
X0302749Y0076668D01*
X0302749Y0076070D02*
X0303839Y0076070D01*
X0303839Y0075471D02*
X0302749Y0075471D01*
X0302749Y0074873D02*
X0303839Y0074873D01*
X0303936Y0074274D02*
X0302749Y0074274D01*
X0302749Y0073676D02*
X0312743Y0073676D01*
X0312743Y0074274D02*
X0312428Y0074274D01*
X0312743Y0073077D02*
X0302422Y0073077D01*
X0306817Y0077378D02*
X0306817Y0077378D01*
X0305939Y0077865D02*
X0309134Y0077865D01*
X0309457Y0078464D02*
X0305616Y0078464D01*
X0312743Y0072479D02*
X0183342Y0072479D01*
X0183342Y0071880D02*
X0312743Y0071880D01*
X0312743Y0071282D02*
X0183342Y0071282D01*
X0183342Y0070683D02*
X0312743Y0070683D01*
X0312743Y0070085D02*
X0183342Y0070085D01*
X0183342Y0069486D02*
X0312743Y0069486D01*
X0312743Y0068888D02*
X0183342Y0068888D01*
X0183342Y0068289D02*
X0312743Y0068289D01*
X0312743Y0067691D02*
X0183342Y0067691D01*
X0183342Y0067092D02*
X0312743Y0067092D01*
X0312743Y0066494D02*
X0183342Y0066494D01*
X0183342Y0065895D02*
X0312743Y0065895D01*
X0312743Y0065297D02*
X0183342Y0065297D01*
X0183342Y0064698D02*
X0312743Y0064698D01*
X0312743Y0064100D02*
X0183342Y0064100D01*
X0183342Y0063501D02*
X0312743Y0063501D01*
X0312743Y0062903D02*
X0183342Y0062903D01*
X0183342Y0062304D02*
X0312743Y0062304D01*
X0312743Y0061706D02*
X0183342Y0061706D01*
X0183342Y0061256D02*
X0183342Y0104759D01*
X0187845Y0100256D01*
X0228945Y0100256D01*
X0229789Y0099412D02*
X0213239Y0099412D01*
X0213900Y0098813D02*
X0230387Y0098813D01*
X0230986Y0098215D02*
X0214323Y0098215D01*
X0214600Y0097616D02*
X0231584Y0097616D01*
X0232183Y0097018D02*
X0214767Y0097018D01*
X0214842Y0095956D02*
X0208642Y0095956D01*
X0208642Y0096556D01*
X0208042Y0096556D01*
X0208042Y0100156D01*
X0205358Y0100156D01*
X0204604Y0100006D01*
X0203894Y0099712D01*
X0203256Y0099285D01*
X0202712Y0098742D01*
X0202286Y0098103D01*
X0201992Y0097393D01*
X0201842Y0096640D01*
X0201842Y0096556D01*
X0208042Y0096556D01*
X0208042Y0095956D01*
X0208642Y0095956D01*
X0208642Y0092356D01*
X0211326Y0092356D01*
X0212079Y0092506D01*
X0212789Y0092800D01*
X0213428Y0093227D01*
X0213971Y0093770D01*
X0214398Y0094409D01*
X0214692Y0095118D01*
X0214842Y0095872D01*
X0214842Y0095956D01*
X0214832Y0095821D02*
X0232242Y0095821D01*
X0232242Y0096419D02*
X0208642Y0096419D01*
X0208642Y0095821D02*
X0208042Y0095821D01*
X0208042Y0095956D02*
X0208042Y0092356D01*
X0205358Y0092356D01*
X0204604Y0092506D01*
X0203894Y0092800D01*
X0203256Y0093227D01*
X0202712Y0093770D01*
X0202286Y0094409D01*
X0201992Y0095118D01*
X0201842Y0095872D01*
X0201842Y0095956D01*
X0208042Y0095956D01*
X0208042Y0096419D02*
X0183342Y0096419D01*
X0183342Y0095821D02*
X0201852Y0095821D01*
X0201971Y0095222D02*
X0183342Y0095222D01*
X0183342Y0094624D02*
X0202197Y0094624D01*
X0202542Y0094025D02*
X0183342Y0094025D01*
X0183342Y0093427D02*
X0203056Y0093427D01*
X0203852Y0092828D02*
X0183342Y0092828D01*
X0183342Y0092230D02*
X0274381Y0092230D01*
X0274255Y0092356D02*
X0274255Y0092356D01*
X0273783Y0092828D02*
X0241812Y0092828D01*
X0243062Y0093427D02*
X0273184Y0093427D01*
X0273142Y0094025D02*
X0243661Y0094025D01*
X0244054Y0094624D02*
X0273142Y0094624D01*
X0273142Y0095222D02*
X0244302Y0095222D01*
X0244442Y0095821D02*
X0273142Y0095821D01*
X0273142Y0096419D02*
X0244442Y0096419D01*
X0244415Y0097018D02*
X0273142Y0097018D01*
X0273142Y0097616D02*
X0244167Y0097616D01*
X0243919Y0098215D02*
X0273142Y0098215D01*
X0273142Y0098813D02*
X0243334Y0098813D01*
X0242469Y0099412D02*
X0273142Y0099412D01*
X0273142Y0100010D02*
X0232584Y0100010D01*
X0231986Y0100609D02*
X0273142Y0100609D01*
X0273142Y0101207D02*
X0231387Y0101207D01*
X0230789Y0101806D02*
X0273142Y0101806D01*
X0273142Y0102404D02*
X0230190Y0102404D01*
X0229442Y0101456D02*
X0188342Y0101456D01*
X0178442Y0111356D01*
X0178342Y0111256D01*
X0143042Y0075956D01*
X0143042Y0065756D01*
X0140342Y0063056D01*
X0126542Y0063056D01*
X0118342Y0071256D01*
X0128342Y0071256D02*
X0128342Y0071456D01*
X0177992Y0121106D01*
X0179342Y0119756D02*
X0193142Y0119756D01*
X0194720Y0121557D02*
X0201944Y0121557D01*
X0202542Y0120958D02*
X0195318Y0120958D01*
X0203524Y0108988D02*
X0183342Y0108988D01*
X0183342Y0109586D02*
X0204637Y0109586D01*
X0202926Y0108389D02*
X0183342Y0108389D01*
X0183704Y0107791D02*
X0202589Y0107791D01*
X0202341Y0107192D02*
X0184302Y0107192D01*
X0184901Y0106594D02*
X0202242Y0106594D01*
X0202242Y0105995D02*
X0185499Y0105995D01*
X0186098Y0105397D02*
X0202309Y0105397D01*
X0202557Y0104798D02*
X0186696Y0104798D01*
X0187295Y0104200D02*
X0202848Y0104200D01*
X0203447Y0103601D02*
X0187893Y0103601D01*
X0188492Y0103003D02*
X0204449Y0103003D01*
X0204626Y0100010D02*
X0183342Y0100010D01*
X0183342Y0099412D02*
X0203445Y0099412D01*
X0202784Y0098813D02*
X0183342Y0098813D01*
X0183342Y0098215D02*
X0202360Y0098215D01*
X0202084Y0097616D02*
X0183342Y0097616D01*
X0183342Y0097018D02*
X0201917Y0097018D01*
X0208042Y0097018D02*
X0208642Y0097018D01*
X0208642Y0097616D02*
X0208042Y0097616D01*
X0208042Y0098215D02*
X0208642Y0098215D01*
X0208642Y0098813D02*
X0208042Y0098813D01*
X0208042Y0099412D02*
X0208642Y0099412D01*
X0208642Y0100010D02*
X0208042Y0100010D01*
X0208042Y0095222D02*
X0208642Y0095222D01*
X0208642Y0094624D02*
X0208042Y0094624D01*
X0208042Y0094025D02*
X0208642Y0094025D01*
X0208642Y0093427D02*
X0208042Y0093427D01*
X0208042Y0092828D02*
X0208642Y0092828D01*
X0212832Y0092828D02*
X0234871Y0092828D01*
X0233621Y0093427D02*
X0213628Y0093427D01*
X0214142Y0094025D02*
X0233023Y0094025D01*
X0232630Y0094624D02*
X0214487Y0094624D01*
X0214713Y0095222D02*
X0232382Y0095222D01*
X0234542Y0096356D02*
X0229442Y0101456D01*
X0233183Y0099412D02*
X0234215Y0099412D01*
X0234542Y0096356D02*
X0238142Y0096356D01*
X0238342Y0096256D01*
X0242234Y0103003D02*
X0273142Y0103003D01*
X0273142Y0103601D02*
X0243237Y0103601D01*
X0243835Y0104200D02*
X0273142Y0104200D01*
X0273597Y0104798D02*
X0244126Y0104798D01*
X0244374Y0105397D02*
X0274196Y0105397D01*
X0274794Y0105995D02*
X0244442Y0105995D01*
X0244442Y0106594D02*
X0274809Y0106594D01*
X0274561Y0107192D02*
X0244342Y0107192D01*
X0244094Y0107791D02*
X0274442Y0107791D01*
X0274442Y0108389D02*
X0243758Y0108389D01*
X0243159Y0108988D02*
X0274442Y0108988D01*
X0274442Y0109586D02*
X0242047Y0109586D01*
X0242656Y0113178D02*
X0274442Y0113178D01*
X0274442Y0113776D02*
X0243412Y0113776D01*
X0243951Y0114375D02*
X0274442Y0114375D01*
X0274442Y0114973D02*
X0244199Y0114973D01*
X0244442Y0115572D02*
X0274665Y0115572D01*
X0274913Y0116170D02*
X0244442Y0116170D01*
X0244442Y0116769D02*
X0275339Y0116769D01*
X0275938Y0117367D02*
X0244270Y0117367D01*
X0244022Y0117966D02*
X0277107Y0117966D01*
X0274442Y0112579D02*
X0230216Y0112579D01*
X0229617Y0113178D02*
X0234028Y0113178D01*
X0233272Y0113776D02*
X0229019Y0113776D01*
X0228420Y0114375D02*
X0232733Y0114375D01*
X0232485Y0114973D02*
X0227822Y0114973D01*
X0227223Y0115572D02*
X0232242Y0115572D01*
X0232242Y0116170D02*
X0226625Y0116170D01*
X0226026Y0116769D02*
X0232242Y0116769D01*
X0232414Y0117367D02*
X0225428Y0117367D01*
X0224829Y0117966D02*
X0232662Y0117966D01*
X0233100Y0118564D02*
X0224231Y0118564D01*
X0223632Y0119163D02*
X0233699Y0119163D01*
X0276560Y0123951D02*
X0276745Y0123951D01*
X0278768Y0123951D02*
X0279804Y0123951D01*
X0279504Y0124549D02*
X0279363Y0124549D01*
X0279142Y0124167D02*
X0279142Y0124167D01*
X0279142Y0124167D01*
X0280545Y0128140D02*
X0280555Y0128140D01*
X0280518Y0129936D02*
X0285596Y0129936D01*
X0285004Y0130534D02*
X0281136Y0130534D01*
X0285341Y0128739D02*
X0289732Y0128739D01*
X0290123Y0129337D02*
X0312743Y0129337D01*
X0312743Y0128739D02*
X0311915Y0128739D01*
X0310655Y0128739D02*
X0309728Y0128739D01*
X0309118Y0129356D02*
X0310551Y0129950D01*
X0311648Y0131047D01*
X0312242Y0132480D01*
X0312242Y0140032D01*
X0311648Y0141465D01*
X0310551Y0142562D01*
X0309118Y0143156D01*
X0307566Y0143156D01*
X0306133Y0142562D01*
X0305036Y0141465D01*
X0304442Y0140032D01*
X0304442Y0132480D01*
X0305036Y0131047D01*
X0306133Y0129950D01*
X0307566Y0129356D01*
X0309118Y0129356D01*
X0307944Y0128739D02*
X0305776Y0128739D01*
X0305212Y0128739D02*
X0301388Y0128739D01*
X0302238Y0128140D02*
X0304532Y0128140D01*
X0304333Y0127542D02*
X0302584Y0127542D01*
X0302599Y0126943D02*
X0304133Y0126943D01*
X0303934Y0126345D02*
X0302448Y0126345D01*
X0302578Y0125746D02*
X0303719Y0125746D01*
X0303535Y0125148D02*
X0302680Y0125148D01*
X0302454Y0124549D02*
X0303482Y0124549D01*
X0303781Y0123951D02*
X0301612Y0123951D01*
X0301145Y0123756D02*
X0301145Y0123756D01*
X0300228Y0123756D02*
X0300228Y0123756D01*
X0300209Y0123756D02*
X0300209Y0123756D01*
X0299871Y0123951D02*
X0299001Y0123951D01*
X0298664Y0123756D02*
X0298664Y0123756D01*
X0302375Y0124469D02*
X0302375Y0124469D01*
X0305165Y0123951D02*
X0305824Y0123951D01*
X0307207Y0123951D02*
X0307636Y0123951D01*
X0309906Y0123951D02*
X0310398Y0123951D01*
X0312139Y0123951D02*
X0312743Y0123951D01*
X0306698Y0127542D02*
X0306656Y0127542D01*
X0306456Y0128140D02*
X0307044Y0128140D01*
X0306166Y0129936D02*
X0300518Y0129936D01*
X0301136Y0130534D02*
X0305548Y0130534D01*
X0305000Y0131133D02*
X0301684Y0131133D01*
X0301932Y0131731D02*
X0304752Y0131731D01*
X0304504Y0132330D02*
X0302180Y0132330D01*
X0302242Y0132928D02*
X0304442Y0132928D01*
X0304442Y0133527D02*
X0302242Y0133527D01*
X0302242Y0134125D02*
X0304442Y0134125D01*
X0304442Y0134724D02*
X0302242Y0134724D01*
X0302242Y0135322D02*
X0304442Y0135322D01*
X0304442Y0135921D02*
X0302242Y0135921D01*
X0302242Y0136519D02*
X0304442Y0136519D01*
X0304442Y0137118D02*
X0302242Y0137118D01*
X0302242Y0137716D02*
X0304442Y0137716D01*
X0304442Y0138315D02*
X0302242Y0138315D01*
X0302242Y0138914D02*
X0304442Y0138914D01*
X0304442Y0139512D02*
X0302242Y0139512D01*
X0302209Y0140111D02*
X0304474Y0140111D01*
X0304722Y0140709D02*
X0301961Y0140709D01*
X0301713Y0141308D02*
X0304970Y0141308D01*
X0305477Y0141906D02*
X0301207Y0141906D01*
X0300609Y0142505D02*
X0306075Y0142505D01*
X0307439Y0143103D02*
X0299245Y0143103D01*
X0309245Y0143103D02*
X0312743Y0143103D01*
X0312743Y0142505D02*
X0310609Y0142505D01*
X0311207Y0141906D02*
X0312743Y0141906D01*
X0312743Y0141308D02*
X0311713Y0141308D01*
X0311961Y0140709D02*
X0312743Y0140709D01*
X0312743Y0140111D02*
X0312209Y0140111D01*
X0312242Y0139512D02*
X0312743Y0139512D01*
X0312743Y0138914D02*
X0312242Y0138914D01*
X0312242Y0138315D02*
X0312743Y0138315D01*
X0312743Y0137716D02*
X0312242Y0137716D01*
X0312242Y0137118D02*
X0312743Y0137118D01*
X0312743Y0136519D02*
X0312242Y0136519D01*
X0312242Y0135921D02*
X0312743Y0135921D01*
X0312743Y0135322D02*
X0312242Y0135322D01*
X0312242Y0134724D02*
X0312743Y0134724D01*
X0312743Y0134125D02*
X0312242Y0134125D01*
X0312242Y0133527D02*
X0312743Y0133527D01*
X0312743Y0132928D02*
X0312242Y0132928D01*
X0312180Y0132330D02*
X0312743Y0132330D01*
X0312743Y0131731D02*
X0311932Y0131731D01*
X0311684Y0131133D02*
X0312743Y0131133D01*
X0312743Y0130534D02*
X0311136Y0130534D01*
X0310518Y0129936D02*
X0312743Y0129936D01*
X0300129Y0128739D02*
X0298694Y0128739D01*
X0298645Y0128756D02*
X0298645Y0128756D01*
X0299450Y0128302D02*
X0299450Y0128302D01*
X0299450Y0128302D01*
X0291585Y0128756D02*
X0291585Y0128756D01*
X0289134Y0128140D02*
X0285939Y0128140D01*
X0286534Y0127542D02*
X0287066Y0127542D01*
X0286817Y0127378D02*
X0286817Y0127378D01*
X0290533Y0117966D02*
X0297107Y0117966D01*
X0295938Y0117367D02*
X0291312Y0117367D01*
X0291831Y0116769D02*
X0295339Y0116769D01*
X0294913Y0116170D02*
X0292192Y0116170D01*
X0292436Y0115572D02*
X0294665Y0115572D01*
X0294442Y0114973D02*
X0292582Y0114973D01*
X0292642Y0114375D02*
X0294442Y0114375D01*
X0294442Y0113776D02*
X0292642Y0113776D01*
X0292642Y0113178D02*
X0294442Y0113178D01*
X0294442Y0112579D02*
X0292642Y0112579D01*
X0292642Y0111980D02*
X0294442Y0111980D01*
X0302242Y0111980D02*
X0304442Y0111980D01*
X0304442Y0111382D02*
X0302242Y0111382D01*
X0302242Y0110783D02*
X0304442Y0110783D01*
X0304442Y0110185D02*
X0302242Y0110185D01*
X0302242Y0109586D02*
X0304442Y0109586D01*
X0304442Y0108988D02*
X0302242Y0108988D01*
X0302242Y0108389D02*
X0304442Y0108389D01*
X0304442Y0107791D02*
X0302242Y0107791D01*
X0302123Y0107192D02*
X0304561Y0107192D01*
X0304809Y0106594D02*
X0301875Y0106594D01*
X0301597Y0105995D02*
X0305087Y0105995D01*
X0305685Y0105397D02*
X0300998Y0105397D01*
X0300186Y0104798D02*
X0306498Y0104798D01*
X0304442Y0112579D02*
X0302242Y0112579D01*
X0302242Y0113178D02*
X0304442Y0113178D01*
X0304442Y0113776D02*
X0302242Y0113776D01*
X0302242Y0114375D02*
X0304442Y0114375D01*
X0304442Y0114973D02*
X0302242Y0114973D01*
X0302018Y0115572D02*
X0304665Y0115572D01*
X0304913Y0116170D02*
X0301770Y0116170D01*
X0301345Y0116769D02*
X0305339Y0116769D01*
X0305938Y0117367D02*
X0300746Y0117367D01*
X0299577Y0117966D02*
X0307107Y0117966D01*
X0285785Y0104798D02*
X0280186Y0104798D01*
X0280998Y0105397D02*
X0285120Y0105397D01*
X0284669Y0105995D02*
X0281597Y0105995D01*
X0281875Y0106594D02*
X0284363Y0106594D01*
X0284166Y0107192D02*
X0282123Y0107192D01*
X0282242Y0107791D02*
X0284062Y0107791D01*
X0284042Y0108389D02*
X0282242Y0108389D01*
X0282242Y0108988D02*
X0284042Y0108988D01*
X0284042Y0109586D02*
X0282242Y0109586D01*
X0282242Y0110185D02*
X0284042Y0110185D01*
X0284042Y0110783D02*
X0282242Y0110783D01*
X0279620Y0074274D02*
X0279204Y0074274D01*
X0278726Y0057756D02*
X0279479Y0057606D01*
X0280189Y0057312D01*
X0280828Y0056885D01*
X0281371Y0056342D01*
X0281798Y0055703D01*
X0282092Y0054993D01*
X0282242Y0054240D01*
X0282242Y0051556D01*
X0278642Y0051556D01*
X0278642Y0050956D01*
X0282242Y0050956D01*
X0282242Y0048272D01*
X0282092Y0047518D01*
X0281798Y0046809D01*
X0281371Y0046170D01*
X0280828Y0045627D01*
X0280189Y0045200D01*
X0279479Y0044906D01*
X0278726Y0044756D01*
X0278642Y0044756D01*
X0278642Y0050956D01*
X0278042Y0050956D01*
X0278042Y0044756D01*
X0277958Y0044756D01*
X0277204Y0044906D01*
X0276494Y0045200D01*
X0275856Y0045627D01*
X0275312Y0046170D01*
X0274886Y0046809D01*
X0274592Y0047518D01*
X0274442Y0048272D01*
X0274442Y0050956D01*
X0278042Y0050956D01*
X0278042Y0051556D01*
X0278042Y0057756D01*
X0277958Y0057756D01*
X0277204Y0057606D01*
X0276494Y0057312D01*
X0275856Y0056885D01*
X0275312Y0056342D01*
X0274886Y0055703D01*
X0274592Y0054993D01*
X0274442Y0054240D01*
X0274442Y0051556D01*
X0278042Y0051556D01*
X0278642Y0051556D01*
X0278642Y0057756D01*
X0278726Y0057756D01*
X0278642Y0057516D02*
X0278042Y0057516D01*
X0278042Y0056917D02*
X0278642Y0056917D01*
X0278642Y0056319D02*
X0278042Y0056319D01*
X0278042Y0055720D02*
X0278642Y0055720D01*
X0278642Y0055122D02*
X0278042Y0055122D01*
X0278042Y0054523D02*
X0278642Y0054523D01*
X0278642Y0053925D02*
X0278042Y0053925D01*
X0278042Y0053326D02*
X0278642Y0053326D01*
X0278642Y0052728D02*
X0278042Y0052728D01*
X0278042Y0052129D02*
X0278642Y0052129D01*
X0278642Y0051531D02*
X0284842Y0051531D01*
X0284842Y0052129D02*
X0282242Y0052129D01*
X0282242Y0052728D02*
X0284842Y0052728D01*
X0284842Y0053326D02*
X0282242Y0053326D01*
X0282242Y0053925D02*
X0284842Y0053925D01*
X0284842Y0054523D02*
X0282185Y0054523D01*
X0282039Y0055122D02*
X0285078Y0055122D01*
X0284842Y0054552D02*
X0285375Y0055838D01*
X0286359Y0056823D01*
X0287646Y0057356D01*
X0289038Y0057356D01*
X0290324Y0056823D01*
X0291309Y0055838D01*
X0291842Y0054552D01*
X0291842Y0047960D01*
X0291309Y0046673D01*
X0290324Y0045689D01*
X0289038Y0045156D01*
X0287646Y0045156D01*
X0286359Y0045689D01*
X0285375Y0046673D01*
X0284842Y0047960D01*
X0284842Y0054552D01*
X0285326Y0055720D02*
X0281786Y0055720D01*
X0281387Y0056319D02*
X0285855Y0056319D01*
X0286587Y0056917D02*
X0280780Y0056917D01*
X0279697Y0057516D02*
X0312743Y0057516D01*
X0312743Y0058114D02*
X0043342Y0058114D01*
X0043342Y0057516D02*
X0276987Y0057516D01*
X0275904Y0056917D02*
X0043342Y0056917D01*
X0043342Y0056319D02*
X0275297Y0056319D01*
X0274897Y0055720D02*
X0043342Y0055720D01*
X0043342Y0055122D02*
X0274645Y0055122D01*
X0274498Y0054523D02*
X0043342Y0054523D01*
X0043342Y0053925D02*
X0274442Y0053925D01*
X0274442Y0053326D02*
X0169156Y0053326D01*
X0169198Y0053302D02*
X0168412Y0053756D01*
X0167205Y0053756D01*
X0166706Y0053382D01*
X0166332Y0053756D01*
X0165462Y0053756D01*
X0164847Y0053141D01*
X0164847Y0052467D01*
X0164797Y0052536D01*
X0164796Y0052536D01*
X0163749Y0052876D01*
X0162702Y0052536D01*
X0162501Y0052260D01*
X0162301Y0052536D01*
X0161253Y0052876D01*
X0160206Y0052536D01*
X0160110Y0052404D01*
X0159725Y0052789D01*
X0157849Y0052789D01*
X0156951Y0051891D01*
X0156951Y0051256D01*
X0156951Y0050821D01*
X0156951Y0049854D01*
X0156984Y0049821D01*
X0157362Y0049167D01*
X0158016Y0048789D01*
X0158049Y0048756D01*
X0158240Y0048756D01*
X0158240Y0048404D01*
X0158855Y0047789D01*
X0159725Y0047789D01*
X0160340Y0048404D01*
X0160340Y0048756D01*
X0161849Y0048756D01*
X0161882Y0048789D01*
X0162361Y0049065D01*
X0162670Y0048756D01*
X0164345Y0048756D01*
X0164378Y0048789D01*
X0164738Y0048997D01*
X0164979Y0048756D01*
X0165414Y0048756D01*
X0166049Y0048756D01*
X0166493Y0049200D01*
X0167262Y0048756D01*
X0167281Y0048756D01*
X0167716Y0048756D01*
X0168198Y0048756D01*
X0168198Y0048756D01*
X0169089Y0049127D01*
X0169428Y0049469D01*
X0169428Y0049469D01*
X0169735Y0049778D01*
X0169731Y0050648D01*
X0169330Y0051045D01*
X0169652Y0051609D01*
X0169652Y0052515D01*
X0169198Y0053302D01*
X0169198Y0053302D01*
X0169198Y0053302D01*
X0169530Y0052728D02*
X0274442Y0052728D01*
X0274442Y0052129D02*
X0169652Y0052129D01*
X0169608Y0051531D02*
X0278042Y0051531D01*
X0278042Y0050932D02*
X0278642Y0050932D01*
X0278642Y0050334D02*
X0278042Y0050334D01*
X0278042Y0049735D02*
X0278642Y0049735D01*
X0278642Y0049137D02*
X0278042Y0049137D01*
X0278042Y0048538D02*
X0278642Y0048538D01*
X0278642Y0047940D02*
X0278042Y0047940D01*
X0278042Y0047341D02*
X0278642Y0047341D01*
X0278642Y0046743D02*
X0278042Y0046743D01*
X0278042Y0046144D02*
X0278642Y0046144D01*
X0278642Y0045546D02*
X0278042Y0045546D01*
X0278042Y0044947D02*
X0278642Y0044947D01*
X0279579Y0044947D02*
X0312743Y0044947D01*
X0312743Y0044349D02*
X0166754Y0044349D01*
X0167241Y0043862D02*
X0165947Y0045156D01*
X0164257Y0045856D01*
X0162427Y0045856D01*
X0160736Y0045156D01*
X0159442Y0043862D01*
X0158742Y0042171D01*
X0158742Y0040341D01*
X0159442Y0038650D01*
X0160736Y0037356D01*
X0162427Y0036656D01*
X0164257Y0036656D01*
X0165947Y0037356D01*
X0167241Y0038650D01*
X0167942Y0040341D01*
X0167942Y0042171D01*
X0167241Y0043862D01*
X0167288Y0043750D02*
X0312743Y0043750D01*
X0312743Y0043152D02*
X0167536Y0043152D01*
X0167783Y0042553D02*
X0312743Y0042553D01*
X0312743Y0041955D02*
X0167942Y0041955D01*
X0167942Y0041356D02*
X0312743Y0041356D01*
X0312743Y0040758D02*
X0167942Y0040758D01*
X0167866Y0040159D02*
X0312743Y0040159D01*
X0312743Y0039561D02*
X0214165Y0039561D01*
X0213879Y0039606D02*
X0214629Y0039487D01*
X0215351Y0039252D01*
X0216028Y0038908D01*
X0216643Y0038461D01*
X0217180Y0037924D01*
X0217626Y0037310D01*
X0217971Y0036633D01*
X0218205Y0035911D01*
X0218324Y0035161D01*
X0218324Y0031556D01*
X0213799Y0031556D01*
X0213199Y0031556D01*
X0213199Y0030956D01*
X0208674Y0030956D01*
X0208674Y0027351D01*
X0208793Y0026601D01*
X0209028Y0025879D01*
X0209373Y0025202D01*
X0209819Y0024588D01*
X0210356Y0024051D01*
X0210970Y0023604D01*
X0211647Y0023259D01*
X0212369Y0023025D01*
X0213120Y0022906D01*
X0213199Y0022906D01*
X0213199Y0030956D01*
X0213799Y0030956D01*
X0213799Y0022906D01*
X0213879Y0022906D01*
X0214629Y0023025D01*
X0215351Y0023259D01*
X0216028Y0023604D01*
X0216643Y0024051D01*
X0217180Y0024588D01*
X0217626Y0025202D01*
X0217971Y0025879D01*
X0218205Y0026601D01*
X0218324Y0027351D01*
X0218324Y0030956D01*
X0213799Y0030956D01*
X0213799Y0031556D01*
X0213799Y0039606D01*
X0213879Y0039606D01*
X0213799Y0039561D02*
X0213199Y0039561D01*
X0213199Y0039606D02*
X0213120Y0039606D01*
X0212369Y0039487D01*
X0211647Y0039252D01*
X0210970Y0038908D01*
X0210356Y0038461D01*
X0209819Y0037924D01*
X0209373Y0037310D01*
X0209028Y0036633D01*
X0208793Y0035911D01*
X0208674Y0035161D01*
X0208674Y0031556D01*
X0213199Y0031556D01*
X0213199Y0039606D01*
X0212834Y0039561D02*
X0167619Y0039561D01*
X0167371Y0038962D02*
X0211077Y0038962D01*
X0210258Y0038364D02*
X0166955Y0038364D01*
X0166356Y0037765D02*
X0209703Y0037765D01*
X0209300Y0037167D02*
X0165490Y0037167D01*
X0165427Y0035371D02*
X0208708Y0035371D01*
X0208674Y0034773D02*
X0166331Y0034773D01*
X0165947Y0035156D02*
X0167241Y0033862D01*
X0167942Y0032171D01*
X0167942Y0030341D01*
X0167241Y0028650D01*
X0165947Y0027356D01*
X0164257Y0026656D01*
X0162427Y0026656D01*
X0160736Y0027356D01*
X0159442Y0028650D01*
X0158742Y0030341D01*
X0158742Y0032171D01*
X0159442Y0033862D01*
X0160736Y0035156D01*
X0162427Y0035856D01*
X0164257Y0035856D01*
X0165947Y0035156D01*
X0166929Y0034174D02*
X0208674Y0034174D01*
X0208674Y0033576D02*
X0167360Y0033576D01*
X0167608Y0032977D02*
X0208674Y0032977D01*
X0208674Y0032378D02*
X0167856Y0032378D01*
X0167942Y0031780D02*
X0208674Y0031780D01*
X0208674Y0030583D02*
X0167942Y0030583D01*
X0167942Y0031181D02*
X0213199Y0031181D01*
X0213199Y0030583D02*
X0213799Y0030583D01*
X0213799Y0031181D02*
X0228759Y0031181D01*
X0228759Y0030583D02*
X0218324Y0030583D01*
X0218324Y0029984D02*
X0228759Y0029984D01*
X0228759Y0029386D02*
X0218324Y0029386D01*
X0218324Y0028787D02*
X0228759Y0028787D01*
X0228759Y0028189D02*
X0218324Y0028189D01*
X0218324Y0027590D02*
X0228759Y0027590D01*
X0228759Y0026992D02*
X0218267Y0026992D01*
X0218138Y0026393D02*
X0228949Y0026393D01*
X0228759Y0026851D02*
X0229433Y0025224D01*
X0230678Y0023980D01*
X0232304Y0023306D01*
X0234065Y0023306D01*
X0235691Y0023980D01*
X0236936Y0025224D01*
X0237609Y0026851D01*
X0237609Y0035661D01*
X0236936Y0037287D01*
X0235691Y0038532D01*
X0234065Y0039206D01*
X0232304Y0039206D01*
X0230678Y0038532D01*
X0229433Y0037287D01*
X0228759Y0035661D01*
X0228759Y0026851D01*
X0229197Y0025795D02*
X0217928Y0025795D01*
X0217622Y0025196D02*
X0229461Y0025196D01*
X0230059Y0024598D02*
X0217187Y0024598D01*
X0216572Y0023999D02*
X0230658Y0023999D01*
X0232075Y0023401D02*
X0215629Y0023401D01*
X0213799Y0023401D02*
X0213199Y0023401D01*
X0213199Y0023999D02*
X0213799Y0023999D01*
X0213799Y0024598D02*
X0213199Y0024598D01*
X0213199Y0025196D02*
X0213799Y0025196D01*
X0213799Y0025795D02*
X0213199Y0025795D01*
X0213199Y0026393D02*
X0213799Y0026393D01*
X0213799Y0026992D02*
X0213199Y0026992D01*
X0213199Y0027590D02*
X0213799Y0027590D01*
X0213799Y0028189D02*
X0213199Y0028189D01*
X0213199Y0028787D02*
X0213799Y0028787D01*
X0213799Y0029386D02*
X0213199Y0029386D01*
X0213199Y0029984D02*
X0213799Y0029984D01*
X0213799Y0031780D02*
X0213199Y0031780D01*
X0213199Y0032378D02*
X0213799Y0032378D01*
X0213799Y0032977D02*
X0213199Y0032977D01*
X0213199Y0033576D02*
X0213799Y0033576D01*
X0213799Y0034174D02*
X0213199Y0034174D01*
X0213199Y0034773D02*
X0213799Y0034773D01*
X0213799Y0035371D02*
X0213199Y0035371D01*
X0213199Y0035970D02*
X0213799Y0035970D01*
X0213799Y0036568D02*
X0213199Y0036568D01*
X0213199Y0037167D02*
X0213799Y0037167D01*
X0213799Y0037765D02*
X0213199Y0037765D01*
X0213199Y0038364D02*
X0213799Y0038364D01*
X0213799Y0038962D02*
X0213199Y0038962D01*
X0215921Y0038962D02*
X0231716Y0038962D01*
X0230509Y0038364D02*
X0216740Y0038364D01*
X0217295Y0037765D02*
X0229911Y0037765D01*
X0229383Y0037167D02*
X0217699Y0037167D01*
X0217992Y0036568D02*
X0229135Y0036568D01*
X0228887Y0035970D02*
X0218186Y0035970D01*
X0218291Y0035371D02*
X0228759Y0035371D01*
X0228759Y0034773D02*
X0218324Y0034773D01*
X0218324Y0034174D02*
X0228759Y0034174D01*
X0228759Y0033576D02*
X0218324Y0033576D01*
X0218324Y0032977D02*
X0228759Y0032977D01*
X0228759Y0032378D02*
X0218324Y0032378D01*
X0218324Y0031780D02*
X0228759Y0031780D01*
X0237609Y0031780D02*
X0278839Y0031780D01*
X0278839Y0032378D02*
X0237609Y0032378D01*
X0237609Y0032977D02*
X0278839Y0032977D01*
X0278839Y0033141D02*
X0278839Y0029371D01*
X0279454Y0028756D01*
X0281129Y0028756D01*
X0281162Y0028789D01*
X0281691Y0029094D01*
X0282030Y0028756D01*
X0282900Y0028756D01*
X0283109Y0028965D01*
X0283319Y0028756D01*
X0284189Y0028756D01*
X0284469Y0029036D01*
X0284749Y0028756D01*
X0286604Y0028756D01*
X0287391Y0029210D01*
X0287845Y0029996D01*
X0287845Y0032515D01*
X0287391Y0033302D01*
X0287391Y0033302D01*
X0287391Y0033302D01*
X0286604Y0033756D01*
X0286585Y0033756D01*
X0284749Y0033756D01*
X0284134Y0033141D01*
X0284134Y0032789D01*
X0282313Y0032789D01*
X0281848Y0032324D01*
X0281817Y0032378D01*
X0281817Y0032378D01*
X0281162Y0032756D01*
X0281129Y0032789D01*
X0280939Y0032789D01*
X0280939Y0033141D01*
X0280324Y0033756D01*
X0279454Y0033756D01*
X0278839Y0033141D01*
X0279274Y0033576D02*
X0237609Y0033576D01*
X0237609Y0034174D02*
X0312743Y0034174D01*
X0312743Y0033576D02*
X0296827Y0033576D01*
X0296860Y0033564D02*
X0296035Y0033840D01*
X0295257Y0033451D01*
X0295149Y0033126D01*
X0295041Y0033451D01*
X0294263Y0033840D01*
X0293739Y0033665D01*
X0293648Y0033756D01*
X0292617Y0033756D01*
X0292002Y0033141D01*
X0292002Y0032789D01*
X0290416Y0032789D01*
X0289518Y0031891D01*
X0289518Y0031256D01*
X0289518Y0030821D01*
X0289518Y0030821D01*
X0289518Y0029371D01*
X0290133Y0028756D01*
X0291003Y0028756D01*
X0291213Y0028965D01*
X0291422Y0028756D01*
X0292292Y0028756D01*
X0292495Y0028959D01*
X0292698Y0028756D01*
X0293568Y0028756D01*
X0294183Y0029371D01*
X0294183Y0029384D01*
X0294290Y0029061D01*
X0294366Y0029023D01*
X0294404Y0028947D01*
X0294746Y0028833D01*
X0295068Y0028672D01*
X0295149Y0028699D01*
X0295229Y0028672D01*
X0295552Y0028833D01*
X0295893Y0028947D01*
X0295931Y0029023D01*
X0296007Y0029061D01*
X0296121Y0029403D01*
X0296282Y0029725D01*
X0296255Y0029806D01*
X0297249Y0032786D01*
X0296860Y0033564D01*
X0297154Y0032977D02*
X0312743Y0032977D01*
X0312743Y0032378D02*
X0297113Y0032378D01*
X0296913Y0031780D02*
X0312743Y0031780D01*
X0312743Y0031181D02*
X0296714Y0031181D01*
X0296514Y0030583D02*
X0312743Y0030583D01*
X0312743Y0029984D02*
X0296315Y0029984D01*
X0296115Y0029386D02*
X0312743Y0029386D01*
X0312743Y0028787D02*
X0295460Y0028787D01*
X0294838Y0028787D02*
X0293599Y0028787D01*
X0294118Y0028156D02*
X0292566Y0028156D01*
X0291133Y0027562D01*
X0290036Y0026465D01*
X0289442Y0025032D01*
X0289442Y0017480D01*
X0290036Y0016047D01*
X0291133Y0014950D01*
X0292566Y0014356D01*
X0294118Y0014356D01*
X0295551Y0014950D01*
X0296648Y0016047D01*
X0297242Y0017480D01*
X0297242Y0025032D01*
X0296648Y0026465D01*
X0295551Y0027562D01*
X0294118Y0028156D01*
X0295483Y0027590D02*
X0312743Y0027590D01*
X0312743Y0026992D02*
X0296121Y0026992D01*
X0296678Y0026393D02*
X0312743Y0026393D01*
X0312743Y0025795D02*
X0296926Y0025795D01*
X0297174Y0025196D02*
X0312743Y0025196D01*
X0312743Y0024598D02*
X0297242Y0024598D01*
X0297242Y0023999D02*
X0312743Y0023999D01*
X0312743Y0023401D02*
X0297242Y0023401D01*
X0297242Y0022802D02*
X0312743Y0022802D01*
X0312743Y0022204D02*
X0297242Y0022204D01*
X0297242Y0021605D02*
X0312743Y0021605D01*
X0312743Y0021007D02*
X0297242Y0021007D01*
X0297242Y0020408D02*
X0312743Y0020408D01*
X0312743Y0019810D02*
X0297242Y0019810D01*
X0297242Y0019211D02*
X0312743Y0019211D01*
X0312743Y0018613D02*
X0297242Y0018613D01*
X0297242Y0018014D02*
X0312743Y0018014D01*
X0312743Y0017416D02*
X0297215Y0017416D01*
X0296967Y0016817D02*
X0312743Y0016817D01*
X0312743Y0016219D02*
X0296719Y0016219D01*
X0296222Y0015620D02*
X0312743Y0015620D01*
X0312743Y0015022D02*
X0295623Y0015022D01*
X0294280Y0014423D02*
X0312743Y0014423D01*
X0312743Y0013825D02*
X0235534Y0013825D01*
X0235552Y0013833D02*
X0235893Y0013947D01*
X0235931Y0014023D01*
X0236007Y0014061D01*
X0236121Y0014403D01*
X0236282Y0014725D01*
X0236255Y0014806D01*
X0237249Y0017786D01*
X0236860Y0018564D01*
X0236035Y0018840D01*
X0235257Y0018451D01*
X0235149Y0018126D01*
X0235041Y0018451D01*
X0234263Y0018840D01*
X0233739Y0018665D01*
X0233648Y0018756D01*
X0232617Y0018756D01*
X0232002Y0018141D01*
X0232002Y0017789D01*
X0230416Y0017789D01*
X0229518Y0016891D01*
X0229518Y0016256D01*
X0229518Y0015821D01*
X0229518Y0015821D01*
X0229518Y0014371D01*
X0230133Y0013756D01*
X0231003Y0013756D01*
X0231213Y0013965D01*
X0231422Y0013756D01*
X0232292Y0013756D01*
X0232495Y0013959D01*
X0232698Y0013756D01*
X0233568Y0013756D01*
X0234183Y0014371D01*
X0234183Y0014384D01*
X0234290Y0014061D01*
X0234366Y0014023D01*
X0234404Y0013947D01*
X0234746Y0013833D01*
X0235068Y0013672D01*
X0235149Y0013699D01*
X0235229Y0013672D01*
X0235552Y0013833D01*
X0234763Y0013825D02*
X0233636Y0013825D01*
X0232629Y0013825D02*
X0232361Y0013825D01*
X0231353Y0013825D02*
X0231072Y0013825D01*
X0230065Y0013825D02*
X0216723Y0013825D01*
X0216604Y0013756D02*
X0217391Y0014210D01*
X0217845Y0014996D01*
X0217845Y0017515D01*
X0217391Y0018302D01*
X0217391Y0018302D01*
X0217391Y0018302D01*
X0216604Y0018756D01*
X0216585Y0018756D01*
X0214749Y0018756D01*
X0214134Y0018141D01*
X0214134Y0017789D01*
X0212313Y0017789D01*
X0211848Y0017324D01*
X0211817Y0017378D01*
X0211817Y0017378D01*
X0211162Y0017756D01*
X0211129Y0017789D01*
X0210939Y0017789D01*
X0210939Y0018141D01*
X0210324Y0018756D01*
X0209454Y0018756D01*
X0208839Y0018141D01*
X0208839Y0014371D01*
X0209454Y0013756D01*
X0211129Y0013756D01*
X0211162Y0013789D01*
X0211691Y0014094D01*
X0212030Y0013756D01*
X0212900Y0013756D01*
X0213109Y0013965D01*
X0213319Y0013756D01*
X0214189Y0013756D01*
X0214469Y0014036D01*
X0214749Y0013756D01*
X0216604Y0013756D01*
X0217391Y0014210D02*
X0217391Y0014210D01*
X0217514Y0014423D02*
X0229518Y0014423D01*
X0229518Y0015022D02*
X0217845Y0015022D01*
X0217845Y0015620D02*
X0229518Y0015620D01*
X0229518Y0016219D02*
X0217845Y0016219D01*
X0217845Y0016817D02*
X0229518Y0016817D01*
X0229518Y0016891D02*
X0229518Y0016891D01*
X0230043Y0017416D02*
X0217845Y0017416D01*
X0217557Y0018014D02*
X0232002Y0018014D01*
X0232474Y0018613D02*
X0216852Y0018613D01*
X0216585Y0018756D02*
X0216585Y0018756D01*
X0214606Y0018613D02*
X0210467Y0018613D01*
X0210939Y0018014D02*
X0214134Y0018014D01*
X0211939Y0017416D02*
X0211752Y0017416D01*
X0211817Y0017378D02*
X0211817Y0017378D01*
X0209311Y0018613D02*
X0167204Y0018613D01*
X0167241Y0018650D02*
X0167942Y0020341D01*
X0167942Y0022171D01*
X0167241Y0023862D01*
X0165947Y0025156D01*
X0164257Y0025856D01*
X0162427Y0025856D01*
X0160736Y0025156D01*
X0159442Y0023862D01*
X0158742Y0022171D01*
X0158742Y0020341D01*
X0159442Y0018650D01*
X0160736Y0017356D01*
X0162427Y0016656D01*
X0164257Y0016656D01*
X0165947Y0017356D01*
X0167241Y0018650D01*
X0167474Y0019211D02*
X0279042Y0019211D01*
X0279042Y0018613D02*
X0236715Y0018613D01*
X0237135Y0018014D02*
X0279042Y0018014D01*
X0279042Y0017917D02*
X0279148Y0017249D01*
X0279357Y0016605D01*
X0279664Y0016002D01*
X0280062Y0015455D01*
X0280541Y0014976D01*
X0281088Y0014578D01*
X0281691Y0014271D01*
X0282335Y0014062D01*
X0283003Y0013956D01*
X0283042Y0013956D01*
X0283042Y0020956D01*
X0283642Y0020956D01*
X0283642Y0021556D01*
X0287642Y0021556D01*
X0287642Y0024594D01*
X0287536Y0025263D01*
X0287327Y0025907D01*
X0287019Y0026510D01*
X0286622Y0027057D01*
X0286143Y0027536D01*
X0285595Y0027934D01*
X0284992Y0028241D01*
X0284349Y0028450D01*
X0283680Y0028556D01*
X0283642Y0028556D01*
X0283642Y0021556D01*
X0283042Y0021556D01*
X0283042Y0028556D01*
X0283003Y0028556D01*
X0282335Y0028450D01*
X0281691Y0028241D01*
X0281088Y0027934D01*
X0280541Y0027536D01*
X0280062Y0027057D01*
X0279664Y0026510D01*
X0279357Y0025907D01*
X0279148Y0025263D01*
X0279042Y0024594D01*
X0279042Y0021556D01*
X0283042Y0021556D01*
X0283042Y0020956D01*
X0279042Y0020956D01*
X0279042Y0017917D01*
X0279121Y0017416D02*
X0237125Y0017416D01*
X0236926Y0016817D02*
X0279288Y0016817D01*
X0279554Y0016219D02*
X0236726Y0016219D01*
X0236527Y0015620D02*
X0279942Y0015620D01*
X0280495Y0015022D02*
X0236327Y0015022D01*
X0236131Y0014423D02*
X0281392Y0014423D01*
X0283042Y0014423D02*
X0283642Y0014423D01*
X0283642Y0013956D02*
X0283680Y0013956D01*
X0284349Y0014062D01*
X0284992Y0014271D01*
X0285595Y0014578D01*
X0286143Y0014976D01*
X0286622Y0015455D01*
X0287019Y0016002D01*
X0287327Y0016605D01*
X0287536Y0017249D01*
X0287642Y0017917D01*
X0287642Y0020956D01*
X0283642Y0020956D01*
X0283642Y0013956D01*
X0283642Y0015022D02*
X0283042Y0015022D01*
X0283042Y0015620D02*
X0283642Y0015620D01*
X0283642Y0016219D02*
X0283042Y0016219D01*
X0283042Y0016817D02*
X0283642Y0016817D01*
X0283642Y0017416D02*
X0283042Y0017416D01*
X0283042Y0018014D02*
X0283642Y0018014D01*
X0283642Y0018613D02*
X0283042Y0018613D01*
X0283042Y0019211D02*
X0283642Y0019211D01*
X0283642Y0019810D02*
X0283042Y0019810D01*
X0283042Y0020408D02*
X0283642Y0020408D01*
X0283642Y0021007D02*
X0289442Y0021007D01*
X0289442Y0021605D02*
X0287642Y0021605D01*
X0287642Y0022204D02*
X0289442Y0022204D01*
X0289442Y0022802D02*
X0287642Y0022802D01*
X0287642Y0023401D02*
X0289442Y0023401D01*
X0289442Y0023999D02*
X0287642Y0023999D01*
X0287641Y0024598D02*
X0289442Y0024598D01*
X0289510Y0025196D02*
X0287546Y0025196D01*
X0287363Y0025795D02*
X0289758Y0025795D01*
X0290006Y0026393D02*
X0287079Y0026393D01*
X0286669Y0026992D02*
X0290562Y0026992D01*
X0291201Y0027590D02*
X0286068Y0027590D01*
X0285094Y0028189D02*
X0312743Y0028189D01*
X0312743Y0034773D02*
X0237609Y0034773D01*
X0237609Y0035371D02*
X0312743Y0035371D01*
X0312743Y0035970D02*
X0237482Y0035970D01*
X0237234Y0036568D02*
X0312743Y0036568D01*
X0312743Y0037167D02*
X0236986Y0037167D01*
X0236458Y0037765D02*
X0312743Y0037765D01*
X0312743Y0038364D02*
X0235860Y0038364D01*
X0234653Y0038962D02*
X0312743Y0038962D01*
X0312743Y0045546D02*
X0299979Y0045546D01*
X0300324Y0045689D02*
X0301309Y0046673D01*
X0301842Y0047960D01*
X0301842Y0054552D01*
X0301309Y0055838D01*
X0300324Y0056823D01*
X0299038Y0057356D01*
X0297646Y0057356D01*
X0296359Y0056823D01*
X0295375Y0055838D01*
X0294842Y0054552D01*
X0294842Y0047960D01*
X0295375Y0046673D01*
X0296359Y0045689D01*
X0297646Y0045156D01*
X0299038Y0045156D01*
X0300324Y0045689D01*
X0300780Y0046144D02*
X0312743Y0046144D01*
X0312743Y0046743D02*
X0301338Y0046743D01*
X0301586Y0047341D02*
X0312743Y0047341D01*
X0312743Y0047940D02*
X0301834Y0047940D01*
X0301842Y0048538D02*
X0312743Y0048538D01*
X0312743Y0049137D02*
X0301842Y0049137D01*
X0301842Y0049735D02*
X0312743Y0049735D01*
X0312743Y0050334D02*
X0301842Y0050334D01*
X0301842Y0050932D02*
X0312743Y0050932D01*
X0312743Y0051531D02*
X0301842Y0051531D01*
X0301842Y0052129D02*
X0312743Y0052129D01*
X0312743Y0052728D02*
X0301842Y0052728D01*
X0301842Y0053326D02*
X0312743Y0053326D01*
X0312743Y0053925D02*
X0301842Y0053925D01*
X0301842Y0054523D02*
X0312743Y0054523D01*
X0312743Y0055122D02*
X0301606Y0055122D01*
X0301358Y0055720D02*
X0312743Y0055720D01*
X0312743Y0056319D02*
X0300828Y0056319D01*
X0300096Y0056917D02*
X0312743Y0056917D01*
X0312743Y0058713D02*
X0043342Y0058713D01*
X0043342Y0059312D02*
X0312743Y0059312D01*
X0312743Y0059910D02*
X0043342Y0059910D01*
X0043342Y0060509D02*
X0312743Y0060509D01*
X0312743Y0061107D02*
X0043342Y0061107D01*
X0043342Y0061256D02*
X0183342Y0061256D01*
X0169444Y0050932D02*
X0274442Y0050932D01*
X0274442Y0050334D02*
X0169732Y0050334D01*
X0169692Y0049735D02*
X0274442Y0049735D01*
X0274442Y0049137D02*
X0169099Y0049137D01*
X0169089Y0049127D02*
X0169089Y0049127D01*
X0166602Y0049137D02*
X0166430Y0049137D01*
X0166049Y0048756D02*
X0166049Y0048756D01*
X0165006Y0045546D02*
X0275977Y0045546D01*
X0275338Y0046144D02*
X0072288Y0046144D01*
X0072089Y0045546D02*
X0161678Y0045546D01*
X0160528Y0044947D02*
X0071889Y0044947D01*
X0071842Y0044806D02*
X0072836Y0047786D01*
X0072447Y0048564D01*
X0071622Y0048840D01*
X0070844Y0048451D01*
X0070736Y0048126D01*
X0070627Y0048451D01*
X0069849Y0048840D01*
X0069024Y0048564D01*
X0068977Y0048469D01*
X0068480Y0048756D01*
X0068461Y0048756D01*
X0066946Y0048756D01*
X0066629Y0048439D01*
X0066080Y0048756D01*
X0066061Y0048756D01*
X0064546Y0048756D01*
X0063931Y0048141D01*
X0063931Y0047271D01*
X0064546Y0046656D01*
X0065191Y0046656D01*
X0065220Y0046656D01*
X0065220Y0045856D01*
X0064546Y0045856D01*
X0063931Y0045241D01*
X0063931Y0044371D01*
X0064546Y0043756D01*
X0066080Y0043756D01*
X0066629Y0044073D01*
X0066946Y0043756D01*
X0068480Y0043756D01*
X0069266Y0044210D01*
X0069622Y0044826D01*
X0069629Y0044806D01*
X0069602Y0044725D01*
X0069763Y0044403D01*
X0069877Y0044061D01*
X0069953Y0044023D01*
X0069991Y0043947D01*
X0070333Y0043833D01*
X0070655Y0043672D01*
X0070736Y0043699D01*
X0070816Y0043672D01*
X0071138Y0043833D01*
X0071480Y0043947D01*
X0071518Y0044023D01*
X0071594Y0044061D01*
X0071708Y0044403D01*
X0071869Y0044725D01*
X0071842Y0044806D01*
X0071690Y0044349D02*
X0159929Y0044349D01*
X0159396Y0043750D02*
X0070972Y0043750D01*
X0070499Y0043750D02*
X0059352Y0043750D01*
X0059648Y0044047D02*
X0060242Y0045480D01*
X0060242Y0047032D01*
X0059648Y0048465D01*
X0058551Y0049562D01*
X0057118Y0050156D01*
X0049566Y0050156D01*
X0048133Y0049562D01*
X0047036Y0048465D01*
X0046442Y0047032D01*
X0046442Y0045480D01*
X0047036Y0044047D01*
X0048133Y0042950D01*
X0049566Y0042356D01*
X0057118Y0042356D01*
X0058551Y0042950D01*
X0059648Y0044047D01*
X0059773Y0044349D02*
X0063954Y0044349D01*
X0063931Y0044947D02*
X0060021Y0044947D01*
X0060242Y0045546D02*
X0064236Y0045546D01*
X0065220Y0046144D02*
X0060242Y0046144D01*
X0060242Y0046743D02*
X0064460Y0046743D01*
X0065191Y0046656D02*
X0065191Y0046656D01*
X0063931Y0047341D02*
X0060114Y0047341D01*
X0059866Y0047940D02*
X0063931Y0047940D01*
X0064329Y0048538D02*
X0059575Y0048538D01*
X0058976Y0049137D02*
X0157413Y0049137D01*
X0157362Y0049167D02*
X0157362Y0049167D01*
X0157362Y0049167D01*
X0157033Y0049735D02*
X0058133Y0049735D01*
X0066061Y0048756D02*
X0066061Y0048756D01*
X0066457Y0048538D02*
X0066729Y0048538D01*
X0068461Y0048756D02*
X0068461Y0048756D01*
X0068857Y0048538D02*
X0069011Y0048538D01*
X0070452Y0048538D02*
X0071019Y0048538D01*
X0072460Y0048538D02*
X0158240Y0048538D01*
X0158704Y0047940D02*
X0072759Y0047940D01*
X0072687Y0047341D02*
X0274665Y0047341D01*
X0274508Y0047940D02*
X0159875Y0047940D01*
X0160340Y0048538D02*
X0274442Y0048538D01*
X0274930Y0046743D02*
X0072488Y0046743D01*
X0069781Y0044349D02*
X0069346Y0044349D01*
X0069266Y0044210D02*
X0069266Y0044210D01*
X0069266Y0044210D01*
X0069749Y0038756D02*
X0069134Y0038141D01*
X0069134Y0037789D01*
X0067313Y0037789D01*
X0066848Y0037324D01*
X0066817Y0037378D01*
X0066162Y0037756D01*
X0066129Y0037789D01*
X0065939Y0037789D01*
X0065939Y0038141D01*
X0065324Y0038756D01*
X0064454Y0038756D01*
X0063839Y0038141D01*
X0063839Y0034371D01*
X0064454Y0033756D01*
X0066129Y0033756D01*
X0066162Y0033789D01*
X0066691Y0034094D01*
X0067030Y0033756D01*
X0067900Y0033756D01*
X0068109Y0033965D01*
X0068319Y0033756D01*
X0069189Y0033756D01*
X0069469Y0034036D01*
X0069749Y0033756D01*
X0071604Y0033756D01*
X0072391Y0034210D01*
X0072845Y0034996D01*
X0072845Y0037515D01*
X0072391Y0038302D01*
X0072391Y0038302D01*
X0072391Y0038302D01*
X0071604Y0038756D01*
X0071585Y0038756D01*
X0069749Y0038756D01*
X0069356Y0038364D02*
X0065716Y0038364D01*
X0066153Y0037765D02*
X0067289Y0037765D01*
X0066817Y0037378D02*
X0066817Y0037378D01*
X0064062Y0038364D02*
X0060094Y0038364D01*
X0060019Y0038510D02*
X0059622Y0039057D01*
X0059143Y0039536D01*
X0058595Y0039934D01*
X0057992Y0040241D01*
X0057349Y0040450D01*
X0056680Y0040556D01*
X0053642Y0040556D01*
X0053642Y0036556D01*
X0060642Y0036556D01*
X0060642Y0036594D01*
X0060536Y0037263D01*
X0060327Y0037907D01*
X0060019Y0038510D01*
X0059691Y0038962D02*
X0159313Y0038962D01*
X0159065Y0039561D02*
X0059109Y0039561D01*
X0058153Y0040159D02*
X0158817Y0040159D01*
X0158742Y0040758D02*
X0043342Y0040758D01*
X0043342Y0041356D02*
X0158742Y0041356D01*
X0158742Y0041955D02*
X0043342Y0041955D01*
X0043342Y0042553D02*
X0049090Y0042553D01*
X0047931Y0043152D02*
X0043342Y0043152D01*
X0043342Y0043750D02*
X0047332Y0043750D01*
X0046910Y0044349D02*
X0043342Y0044349D01*
X0043342Y0044947D02*
X0046663Y0044947D01*
X0046442Y0045546D02*
X0043342Y0045546D01*
X0043342Y0046144D02*
X0046442Y0046144D01*
X0046442Y0046743D02*
X0043342Y0046743D01*
X0043342Y0047341D02*
X0046570Y0047341D01*
X0046818Y0047940D02*
X0043342Y0047940D01*
X0043342Y0048538D02*
X0047109Y0048538D01*
X0047707Y0049137D02*
X0043342Y0049137D01*
X0043342Y0049735D02*
X0048551Y0049735D01*
X0043342Y0050334D02*
X0156951Y0050334D01*
X0156951Y0050821D02*
X0156951Y0050821D01*
X0156951Y0050932D02*
X0043342Y0050932D01*
X0043342Y0051531D02*
X0156951Y0051531D01*
X0156951Y0051891D02*
X0156951Y0051891D01*
X0157189Y0052129D02*
X0043342Y0052129D01*
X0043342Y0052728D02*
X0157788Y0052728D01*
X0159786Y0052728D02*
X0160796Y0052728D01*
X0161253Y0052876D02*
X0161253Y0052876D01*
X0161710Y0052728D02*
X0163292Y0052728D01*
X0163749Y0052876D02*
X0163749Y0052876D01*
X0164206Y0052728D02*
X0164847Y0052728D01*
X0164797Y0052536D02*
X0164797Y0052536D01*
X0165033Y0053326D02*
X0043342Y0053326D01*
X0058753Y0043152D02*
X0159148Y0043152D01*
X0158900Y0042553D02*
X0057594Y0042553D01*
X0053642Y0040159D02*
X0053042Y0040159D01*
X0053042Y0040556D02*
X0050003Y0040556D01*
X0049335Y0040450D01*
X0048691Y0040241D01*
X0048088Y0039934D01*
X0047541Y0039536D01*
X0047062Y0039057D01*
X0046664Y0038510D01*
X0046357Y0037907D01*
X0046148Y0037263D01*
X0046042Y0036594D01*
X0046042Y0036556D01*
X0053042Y0036556D01*
X0053042Y0040556D01*
X0053042Y0039561D02*
X0053642Y0039561D01*
X0053642Y0038962D02*
X0053042Y0038962D01*
X0053042Y0038364D02*
X0053642Y0038364D01*
X0053642Y0037765D02*
X0053042Y0037765D01*
X0053042Y0037167D02*
X0053642Y0037167D01*
X0053642Y0036568D02*
X0053042Y0036568D01*
X0053042Y0036556D02*
X0053642Y0036556D01*
X0053642Y0035956D01*
X0060642Y0035956D01*
X0060642Y0035917D01*
X0060536Y0035249D01*
X0060327Y0034605D01*
X0060019Y0034002D01*
X0059622Y0033455D01*
X0059143Y0032976D01*
X0058595Y0032578D01*
X0057992Y0032271D01*
X0057349Y0032062D01*
X0056680Y0031956D01*
X0053642Y0031956D01*
X0053642Y0035956D01*
X0053042Y0035956D01*
X0053042Y0031956D01*
X0050003Y0031956D01*
X0049335Y0032062D01*
X0048691Y0032271D01*
X0048088Y0032578D01*
X0047541Y0032976D01*
X0047062Y0033455D01*
X0046664Y0034002D01*
X0046357Y0034605D01*
X0046148Y0035249D01*
X0046042Y0035917D01*
X0046042Y0035956D01*
X0053042Y0035956D01*
X0053042Y0036556D01*
X0053042Y0035970D02*
X0043342Y0035970D01*
X0043342Y0036568D02*
X0046042Y0036568D01*
X0046132Y0037167D02*
X0043342Y0037167D01*
X0043342Y0037765D02*
X0046311Y0037765D01*
X0046590Y0038364D02*
X0043342Y0038364D01*
X0043342Y0038962D02*
X0046993Y0038962D01*
X0047575Y0039561D02*
X0043342Y0039561D01*
X0043342Y0040159D02*
X0048531Y0040159D01*
X0046128Y0035371D02*
X0043342Y0035371D01*
X0043342Y0034773D02*
X0046302Y0034773D01*
X0046577Y0034174D02*
X0043342Y0034174D01*
X0043342Y0033576D02*
X0046974Y0033576D01*
X0047540Y0032977D02*
X0043342Y0032977D01*
X0043342Y0032378D02*
X0048480Y0032378D01*
X0049566Y0030156D02*
X0048133Y0029562D01*
X0047036Y0028465D01*
X0046442Y0027032D01*
X0046442Y0025480D01*
X0047036Y0024047D01*
X0048133Y0022950D01*
X0049566Y0022356D01*
X0057118Y0022356D01*
X0058551Y0022950D01*
X0059648Y0024047D01*
X0060242Y0025480D01*
X0060242Y0027032D01*
X0059648Y0028465D01*
X0058551Y0029562D01*
X0057118Y0030156D01*
X0049566Y0030156D01*
X0049152Y0029984D02*
X0043342Y0029984D01*
X0043342Y0029386D02*
X0047956Y0029386D01*
X0047358Y0028787D02*
X0043342Y0028787D01*
X0043342Y0028189D02*
X0046921Y0028189D01*
X0046673Y0027590D02*
X0043342Y0027590D01*
X0043342Y0026992D02*
X0046442Y0026992D01*
X0046442Y0026393D02*
X0043342Y0026393D01*
X0043342Y0025795D02*
X0046442Y0025795D01*
X0046559Y0025196D02*
X0043342Y0025196D01*
X0043342Y0024598D02*
X0046807Y0024598D01*
X0047083Y0023999D02*
X0043342Y0023999D01*
X0043342Y0023401D02*
X0047681Y0023401D01*
X0048488Y0022802D02*
X0043342Y0022802D01*
X0043342Y0022204D02*
X0158755Y0022204D01*
X0158742Y0021605D02*
X0043342Y0021605D01*
X0043342Y0021007D02*
X0158742Y0021007D01*
X0158742Y0020408D02*
X0043342Y0020408D01*
X0043342Y0019810D02*
X0048730Y0019810D01*
X0048133Y0019562D02*
X0047036Y0018465D01*
X0046442Y0017032D01*
X0046442Y0015480D01*
X0047036Y0014047D01*
X0048133Y0012950D01*
X0049566Y0012356D01*
X0057118Y0012356D01*
X0058551Y0012950D01*
X0059648Y0014047D01*
X0060242Y0015480D01*
X0060242Y0017032D01*
X0059648Y0018465D01*
X0058551Y0019562D01*
X0057118Y0020156D01*
X0049566Y0020156D01*
X0048133Y0019562D01*
X0047782Y0019211D02*
X0043342Y0019211D01*
X0043342Y0018613D02*
X0047183Y0018613D01*
X0046849Y0018014D02*
X0043342Y0018014D01*
X0043342Y0017416D02*
X0046601Y0017416D01*
X0046442Y0016817D02*
X0043342Y0016817D01*
X0043342Y0016219D02*
X0046442Y0016219D01*
X0046442Y0015620D02*
X0043342Y0015620D01*
X0043342Y0015022D02*
X0046632Y0015022D01*
X0046880Y0014423D02*
X0043342Y0014423D01*
X0043342Y0013825D02*
X0047258Y0013825D01*
X0047856Y0013226D02*
X0043342Y0013226D01*
X0043342Y0012628D02*
X0048910Y0012628D01*
X0043342Y0012029D02*
X0158979Y0012029D01*
X0158841Y0011891D02*
X0158841Y0011891D01*
X0158841Y0011256D01*
X0158841Y0010821D01*
X0158841Y0009371D01*
X0159456Y0008756D01*
X0160326Y0008756D01*
X0160535Y0008965D01*
X0160745Y0008756D01*
X0161615Y0008756D01*
X0161879Y0009021D01*
X0162144Y0008756D01*
X0162950Y0008756D01*
X0163384Y0008756D01*
X0164020Y0008756D01*
X0164324Y0009061D01*
X0165101Y0008672D01*
X0165926Y0008947D01*
X0166006Y0009107D01*
X0166358Y0008756D01*
X0167228Y0008756D01*
X0167843Y0009371D01*
X0167843Y0013141D01*
X0167228Y0013756D01*
X0165384Y0013756D01*
X0164409Y0013047D01*
X0164409Y0013047D01*
X0164319Y0012772D01*
X0164303Y0012789D01*
X0163433Y0012789D01*
X0163223Y0012580D01*
X0163014Y0012789D01*
X0162144Y0012789D01*
X0161879Y0012525D01*
X0161615Y0012789D01*
X0159739Y0012789D01*
X0158841Y0011891D01*
X0158841Y0011431D02*
X0043342Y0011431D01*
X0043342Y0010832D02*
X0158841Y0010832D01*
X0158841Y0010821D02*
X0158841Y0010821D01*
X0158841Y0010234D02*
X0043342Y0010234D01*
X0043342Y0009635D02*
X0158841Y0009635D01*
X0159175Y0009037D02*
X0043342Y0009037D01*
X0043342Y0008438D02*
X0312743Y0008438D01*
X0312743Y0007840D02*
X0043342Y0007840D01*
X0043342Y0007241D02*
X0312743Y0007241D01*
X0312743Y0006643D02*
X0043342Y0006643D01*
X0057774Y0012628D02*
X0159577Y0012628D01*
X0161776Y0012628D02*
X0161982Y0012628D01*
X0163175Y0012628D02*
X0163271Y0012628D01*
X0164409Y0013047D02*
X0164409Y0013047D01*
X0164655Y0013226D02*
X0058827Y0013226D01*
X0059426Y0013825D02*
X0064151Y0013825D01*
X0063783Y0013947D02*
X0064608Y0013672D01*
X0065386Y0014061D01*
X0065494Y0014386D01*
X0065602Y0014061D01*
X0066380Y0013672D01*
X0067206Y0013947D01*
X0067303Y0014143D01*
X0067973Y0013756D01*
X0068905Y0013756D01*
X0068905Y0013756D01*
X0069711Y0013756D01*
X0070086Y0014131D01*
X0070735Y0013756D01*
X0070754Y0013756D01*
X0071189Y0013756D01*
X0071672Y0013756D01*
X0072562Y0014127D01*
X0072901Y0014469D01*
X0073208Y0014778D01*
X0073204Y0015648D01*
X0072803Y0016045D01*
X0073125Y0016609D01*
X0073125Y0017515D01*
X0072671Y0018302D01*
X0071885Y0018756D01*
X0070678Y0018756D01*
X0070678Y0018756D01*
X0070125Y0018341D01*
X0069711Y0018756D01*
X0067973Y0018756D01*
X0067112Y0018259D01*
X0067112Y0018259D01*
X0067112Y0018259D01*
X0066671Y0017495D01*
X0066601Y0017706D01*
X0066628Y0017786D01*
X0066467Y0018109D01*
X0066353Y0018451D01*
X0066277Y0018489D01*
X0066239Y0018564D01*
X0065897Y0018678D01*
X0065575Y0018840D01*
X0065494Y0018813D01*
X0065414Y0018840D01*
X0065092Y0018678D01*
X0064750Y0018564D01*
X0064712Y0018489D01*
X0064636Y0018451D01*
X0064522Y0018109D01*
X0064361Y0017786D01*
X0064388Y0017706D01*
X0063852Y0016098D01*
X0063719Y0015966D01*
X0063719Y0015701D01*
X0063394Y0014725D01*
X0063783Y0013947D01*
X0063545Y0014423D02*
X0059804Y0014423D01*
X0060052Y0015022D02*
X0063493Y0015022D01*
X0063692Y0015620D02*
X0060242Y0015620D01*
X0060242Y0016219D02*
X0063892Y0016219D01*
X0064091Y0016817D02*
X0060242Y0016817D01*
X0060083Y0017416D02*
X0064291Y0017416D01*
X0064475Y0018014D02*
X0059835Y0018014D01*
X0059500Y0018613D02*
X0064894Y0018613D01*
X0066094Y0018613D02*
X0067725Y0018613D01*
X0066971Y0018014D02*
X0066514Y0018014D01*
X0069854Y0018613D02*
X0070487Y0018613D01*
X0072133Y0018613D02*
X0159480Y0018613D01*
X0159210Y0019211D02*
X0058902Y0019211D01*
X0057953Y0019810D02*
X0158962Y0019810D01*
X0160078Y0018014D02*
X0072837Y0018014D01*
X0072671Y0018302D02*
X0072671Y0018302D01*
X0072671Y0018302D01*
X0073125Y0017416D02*
X0160677Y0017416D01*
X0162037Y0016817D02*
X0073125Y0016817D01*
X0072902Y0016219D02*
X0208839Y0016219D01*
X0208839Y0016817D02*
X0164646Y0016817D01*
X0166007Y0017416D02*
X0208839Y0017416D01*
X0208839Y0018014D02*
X0166605Y0018014D01*
X0167722Y0019810D02*
X0279042Y0019810D01*
X0279042Y0020408D02*
X0167942Y0020408D01*
X0167942Y0021007D02*
X0283042Y0021007D01*
X0283042Y0021605D02*
X0283642Y0021605D01*
X0283642Y0022204D02*
X0283042Y0022204D01*
X0283042Y0022802D02*
X0283642Y0022802D01*
X0283642Y0023401D02*
X0283042Y0023401D01*
X0283042Y0023999D02*
X0283642Y0023999D01*
X0283642Y0024598D02*
X0283042Y0024598D01*
X0283042Y0025196D02*
X0283642Y0025196D01*
X0283642Y0025795D02*
X0283042Y0025795D01*
X0283042Y0026393D02*
X0283642Y0026393D01*
X0283642Y0026992D02*
X0283042Y0026992D01*
X0283042Y0027590D02*
X0283642Y0027590D01*
X0283642Y0028189D02*
X0283042Y0028189D01*
X0282931Y0028787D02*
X0283287Y0028787D01*
X0284220Y0028787D02*
X0284717Y0028787D01*
X0286659Y0028787D02*
X0290102Y0028787D01*
X0289518Y0029386D02*
X0287492Y0029386D01*
X0287391Y0029210D02*
X0287391Y0029210D01*
X0287391Y0029210D01*
X0287838Y0029984D02*
X0289518Y0029984D01*
X0289518Y0030583D02*
X0287845Y0030583D01*
X0287845Y0031181D02*
X0289518Y0031181D01*
X0289518Y0031780D02*
X0287845Y0031780D01*
X0287845Y0032378D02*
X0290006Y0032378D01*
X0289518Y0031891D02*
X0289518Y0031891D01*
X0287578Y0032977D02*
X0292002Y0032977D01*
X0292437Y0033576D02*
X0286917Y0033576D01*
X0286585Y0033756D02*
X0286585Y0033756D01*
X0284568Y0033576D02*
X0280504Y0033576D01*
X0280939Y0032977D02*
X0284134Y0032977D01*
X0281902Y0032378D02*
X0281817Y0032378D01*
X0281817Y0032378D01*
X0278839Y0031181D02*
X0237609Y0031181D01*
X0237609Y0030583D02*
X0278839Y0030583D01*
X0278839Y0029984D02*
X0237609Y0029984D01*
X0237609Y0029386D02*
X0278839Y0029386D01*
X0279422Y0028787D02*
X0237609Y0028787D01*
X0237609Y0028189D02*
X0281589Y0028189D01*
X0281998Y0028787D02*
X0281161Y0028787D01*
X0280616Y0027590D02*
X0237609Y0027590D01*
X0237609Y0026992D02*
X0280015Y0026992D01*
X0279605Y0026393D02*
X0237420Y0026393D01*
X0237172Y0025795D02*
X0279321Y0025795D01*
X0279137Y0025196D02*
X0236908Y0025196D01*
X0236309Y0024598D02*
X0279042Y0024598D01*
X0279042Y0023999D02*
X0235711Y0023999D01*
X0234294Y0023401D02*
X0279042Y0023401D01*
X0279042Y0022802D02*
X0167680Y0022802D01*
X0167928Y0022204D02*
X0279042Y0022204D01*
X0279042Y0021605D02*
X0167942Y0021605D01*
X0167432Y0023401D02*
X0211370Y0023401D01*
X0210427Y0023999D02*
X0167104Y0023999D01*
X0166505Y0024598D02*
X0209812Y0024598D01*
X0209377Y0025196D02*
X0165849Y0025196D01*
X0164404Y0025795D02*
X0209071Y0025795D01*
X0208861Y0026393D02*
X0072476Y0026393D01*
X0072599Y0026609D02*
X0072277Y0026045D01*
X0072677Y0025648D01*
X0072681Y0024778D01*
X0072375Y0024469D01*
X0072375Y0024469D01*
X0072035Y0024127D01*
X0072035Y0024127D01*
X0071145Y0023756D01*
X0071145Y0023756D01*
X0070663Y0023756D01*
X0070228Y0023756D01*
X0070209Y0023756D01*
X0069436Y0024202D01*
X0068664Y0023756D01*
X0067131Y0023756D01*
X0066954Y0023932D01*
X0066778Y0023756D01*
X0064619Y0023756D01*
X0064004Y0024371D01*
X0064004Y0025241D01*
X0064619Y0025856D01*
X0065293Y0025856D01*
X0065293Y0028141D01*
X0065908Y0028756D01*
X0066778Y0028756D01*
X0066954Y0028580D01*
X0067131Y0028756D01*
X0068645Y0028756D01*
X0068645Y0028756D01*
X0068664Y0028756D01*
X0069450Y0028302D01*
X0069450Y0028302D01*
X0069450Y0028302D01*
X0069479Y0028252D01*
X0069549Y0028304D01*
X0070152Y0028756D01*
X0071358Y0028756D01*
X0072145Y0028302D01*
X0072145Y0028302D01*
X0072145Y0028302D01*
X0072599Y0027515D01*
X0072599Y0026609D01*
X0072599Y0026992D02*
X0161616Y0026992D01*
X0160502Y0027590D02*
X0072556Y0027590D01*
X0072210Y0028189D02*
X0159903Y0028189D01*
X0159385Y0028787D02*
X0059326Y0028787D01*
X0059762Y0028189D02*
X0065341Y0028189D01*
X0065293Y0027590D02*
X0060010Y0027590D01*
X0060242Y0026992D02*
X0065293Y0026992D01*
X0065293Y0026393D02*
X0060242Y0026393D01*
X0060242Y0025795D02*
X0064558Y0025795D01*
X0064004Y0025196D02*
X0060124Y0025196D01*
X0059876Y0024598D02*
X0064004Y0024598D01*
X0064376Y0023999D02*
X0059601Y0023999D01*
X0059002Y0023401D02*
X0159251Y0023401D01*
X0159003Y0022802D02*
X0058195Y0022802D01*
X0058727Y0029386D02*
X0159137Y0029386D01*
X0158889Y0029984D02*
X0057531Y0029984D01*
X0058204Y0032378D02*
X0158828Y0032378D01*
X0158742Y0031780D02*
X0043342Y0031780D01*
X0043342Y0031181D02*
X0158742Y0031181D01*
X0158742Y0030583D02*
X0043342Y0030583D01*
X0053042Y0032378D02*
X0053642Y0032378D01*
X0053642Y0032977D02*
X0053042Y0032977D01*
X0053042Y0033576D02*
X0053642Y0033576D01*
X0053642Y0034174D02*
X0053042Y0034174D01*
X0053042Y0034773D02*
X0053642Y0034773D01*
X0053642Y0035371D02*
X0053042Y0035371D01*
X0053642Y0035970D02*
X0063839Y0035970D01*
X0063839Y0036568D02*
X0060642Y0036568D01*
X0060551Y0037167D02*
X0063839Y0037167D01*
X0063839Y0037765D02*
X0060373Y0037765D01*
X0060555Y0035371D02*
X0063839Y0035371D01*
X0063839Y0034773D02*
X0060381Y0034773D01*
X0060107Y0034174D02*
X0064036Y0034174D01*
X0059709Y0033576D02*
X0159324Y0033576D01*
X0159076Y0032977D02*
X0059144Y0032977D01*
X0072329Y0034174D02*
X0159755Y0034174D01*
X0160353Y0034773D02*
X0072716Y0034773D01*
X0072845Y0035371D02*
X0161256Y0035371D01*
X0161194Y0037167D02*
X0072845Y0037167D01*
X0072845Y0036568D02*
X0209007Y0036568D01*
X0208812Y0035970D02*
X0072845Y0035970D01*
X0072701Y0037765D02*
X0160327Y0037765D01*
X0159729Y0038364D02*
X0072284Y0038364D01*
X0071585Y0038756D02*
X0071585Y0038756D01*
X0072391Y0034210D02*
X0072391Y0034210D01*
X0072391Y0034210D01*
X0072529Y0025795D02*
X0162279Y0025795D01*
X0160835Y0025196D02*
X0072679Y0025196D01*
X0072502Y0024598D02*
X0160178Y0024598D01*
X0159580Y0023999D02*
X0071729Y0023999D01*
X0069787Y0023999D02*
X0069086Y0023999D01*
X0073204Y0015620D02*
X0208839Y0015620D01*
X0208839Y0015022D02*
X0073207Y0015022D01*
X0072856Y0014423D02*
X0208839Y0014423D01*
X0209385Y0013825D02*
X0071836Y0013825D01*
X0071672Y0013756D02*
X0071672Y0013756D01*
X0072562Y0014127D02*
X0072562Y0014127D01*
X0070616Y0013825D02*
X0069780Y0013825D01*
X0067854Y0013825D02*
X0066838Y0013825D01*
X0066076Y0013825D02*
X0064913Y0013825D01*
X0162950Y0008756D02*
X0162950Y0008756D01*
X0164020Y0008756D02*
X0164020Y0008756D01*
X0164300Y0009037D02*
X0164372Y0009037D01*
X0165971Y0009037D02*
X0166077Y0009037D01*
X0167508Y0009037D02*
X0312743Y0009037D01*
X0312743Y0009635D02*
X0167843Y0009635D01*
X0167843Y0010234D02*
X0312743Y0010234D01*
X0312743Y0010832D02*
X0167843Y0010832D01*
X0167843Y0011431D02*
X0312743Y0011431D01*
X0312743Y0012029D02*
X0167843Y0012029D01*
X0167843Y0012628D02*
X0312743Y0012628D01*
X0312743Y0013226D02*
X0167757Y0013226D01*
X0165068Y0026992D02*
X0208731Y0026992D01*
X0208674Y0027590D02*
X0166182Y0027590D01*
X0166780Y0028189D02*
X0208674Y0028189D01*
X0208674Y0028787D02*
X0167298Y0028787D01*
X0167546Y0029386D02*
X0208674Y0029386D01*
X0208674Y0029984D02*
X0167794Y0029984D01*
X0166156Y0044947D02*
X0277104Y0044947D01*
X0280707Y0045546D02*
X0286704Y0045546D01*
X0285904Y0046144D02*
X0281346Y0046144D01*
X0281754Y0046743D02*
X0285346Y0046743D01*
X0285098Y0047341D02*
X0282019Y0047341D01*
X0282176Y0047940D02*
X0284850Y0047940D01*
X0284842Y0048538D02*
X0282242Y0048538D01*
X0282242Y0049137D02*
X0284842Y0049137D01*
X0284842Y0049735D02*
X0282242Y0049735D01*
X0282242Y0050334D02*
X0284842Y0050334D01*
X0284842Y0050932D02*
X0282242Y0050932D01*
X0289979Y0045546D02*
X0296704Y0045546D01*
X0295904Y0046144D02*
X0290780Y0046144D01*
X0291338Y0046743D02*
X0295346Y0046743D01*
X0295098Y0047341D02*
X0291586Y0047341D01*
X0291834Y0047940D02*
X0294850Y0047940D01*
X0294842Y0048538D02*
X0291842Y0048538D01*
X0291842Y0049137D02*
X0294842Y0049137D01*
X0294842Y0049735D02*
X0291842Y0049735D01*
X0291842Y0050334D02*
X0294842Y0050334D01*
X0294842Y0050932D02*
X0291842Y0050932D01*
X0291842Y0051531D02*
X0294842Y0051531D01*
X0294842Y0052129D02*
X0291842Y0052129D01*
X0291842Y0052728D02*
X0294842Y0052728D01*
X0294842Y0053326D02*
X0291842Y0053326D01*
X0291842Y0053925D02*
X0294842Y0053925D01*
X0294842Y0054523D02*
X0291842Y0054523D01*
X0291606Y0055122D02*
X0295078Y0055122D01*
X0295326Y0055720D02*
X0291358Y0055720D01*
X0290828Y0056319D02*
X0295855Y0056319D01*
X0296587Y0056917D02*
X0290096Y0056917D01*
X0294791Y0033576D02*
X0295507Y0033576D01*
X0292666Y0028787D02*
X0292324Y0028787D01*
X0291391Y0028787D02*
X0291035Y0028787D01*
X0289442Y0020408D02*
X0287642Y0020408D01*
X0287642Y0019810D02*
X0289442Y0019810D01*
X0289442Y0019211D02*
X0287642Y0019211D01*
X0287642Y0018613D02*
X0289442Y0018613D01*
X0289442Y0018014D02*
X0287642Y0018014D01*
X0287562Y0017416D02*
X0289468Y0017416D01*
X0289716Y0016817D02*
X0287396Y0016817D01*
X0287130Y0016219D02*
X0289964Y0016219D01*
X0290462Y0015620D02*
X0286742Y0015620D01*
X0286189Y0015022D02*
X0291061Y0015022D01*
X0292404Y0014423D02*
X0285291Y0014423D01*
X0235581Y0018613D02*
X0234716Y0018613D01*
X0214680Y0013825D02*
X0214257Y0013825D01*
X0213250Y0013825D02*
X0212968Y0013825D01*
X0211961Y0013825D02*
X0211224Y0013825D01*
X0162702Y0052536D02*
X0162702Y0052536D01*
X0162301Y0052536D02*
X0162301Y0052536D01*
X0160206Y0052536D02*
X0160206Y0052536D01*
X0183342Y0100609D02*
X0187492Y0100609D01*
X0186893Y0101207D02*
X0183342Y0101207D01*
X0183342Y0101806D02*
X0186295Y0101806D01*
X0185696Y0102404D02*
X0183342Y0102404D01*
X0183342Y0103003D02*
X0185098Y0103003D01*
X0184499Y0103601D02*
X0183342Y0103601D01*
X0183342Y0104200D02*
X0183901Y0104200D01*
D18*
X0148342Y0111256D02*
X0143942Y0106856D01*
X0112742Y0106856D01*
X0078542Y0072656D01*
X0078542Y0071456D01*
X0078342Y0071256D01*
X0088342Y0071256D02*
X0088442Y0071156D01*
X0088442Y0061256D01*
X0148342Y0131256D02*
X0148442Y0131456D01*
X0168542Y0131456D01*
X0275042Y0103556D02*
X0275042Y0094256D01*
X0278342Y0090956D01*
X0278342Y0086256D01*
X0275042Y0103556D02*
X0278342Y0106856D01*
X0278342Y0111256D01*
D19*
X0193142Y0119756D03*
X0182042Y0134756D03*
X0168542Y0131456D03*
M02*
